<svg width="40" height="40" viewBox="0 0 40 40" fill="none" xmlns="http://www.w3.org/2000/svg">
<path d="M30.8815 15.0398C30.5874 14.7968 30.368 14.4755 30.2488 14.1131C30.1296 13.7507 30.1153 13.3619 30.2078 12.9917C30.3173 12.5603 30.3304 12.1101 30.2463 11.673C30.1621 11.236 29.9827 10.8229 29.7209 10.463C29.4522 10.0934 29.1053 9.7876 28.705 9.56736C28.3046 9.34711 27.8606 9.21785 27.4046 9.18877C27.0197 9.16315 26.6496 9.03081 26.3357 8.80659C26.0219 8.58238 25.7767 8.27515 25.6277 7.91937C25.4572 7.50442 25.1983 7.13165 24.869 6.82704C24.5397 6.52243 24.1479 6.29331 23.7209 6.15566C23.288 6.01394 22.8293 5.96842 22.3769 6.02227C21.9245 6.07612 21.4893 6.22804 21.1017 6.46743C20.7699 6.6702 20.3886 6.77747 19.9997 6.77742C19.6109 6.77738 19.2296 6.67002 18.8978 6.46717C18.5103 6.22767 18.0752 6.0757 17.6229 6.0219C17.1705 5.96809 16.7119 6.01374 16.2791 6.15566C15.8521 6.29336 15.4603 6.52255 15.131 6.82723C14.8018 7.13192 14.5429 7.50477 14.3726 7.91978C14.223 8.27614 13.977 8.58374 13.6622 8.80801C13.3475 9.03229 12.9764 9.16436 12.5907 9.18939C12.1355 9.21897 11.6925 9.34848 11.293 9.56871C10.8936 9.78894 10.5475 10.0945 10.2796 10.4636C10.0172 10.8242 9.83772 11.2383 9.75378 11.6762C9.66984 12.1142 9.68356 12.5653 9.79396 12.9973C9.88521 13.368 9.86968 13.7569 9.74915 14.1191C9.62862 14.4813 9.40803 14.802 9.11287 15.0441C8.76451 15.3297 8.48396 15.6891 8.29149 16.0964C8.09903 16.5037 7.99947 16.9486 8 17.3991C8.00054 17.8496 8.10116 18.2943 8.29459 18.7011C8.48802 19.1079 8.76943 19.4667 9.11847 19.7514C9.41261 19.9944 9.63198 20.3157 9.75121 20.6782C9.87045 21.0406 9.88467 21.4294 9.79225 21.7996C9.68272 22.2309 9.66956 22.6812 9.75371 23.1182C9.83786 23.5553 10.0173 23.9684 10.2791 24.3283C10.5478 24.6979 10.8947 25.0037 11.295 25.2239C11.6954 25.4441 12.1394 25.5734 12.5954 25.6025C13.0322 25.6341 13.4481 25.8021 13.7843 26.0829V34.2126C13.7843 34.3055 13.8092 34.3966 13.8565 34.4765C13.9037 34.5564 13.9716 34.6222 14.053 34.6668C14.1344 34.7115 14.2263 34.7335 14.3191 34.7305C14.4119 34.7275 14.5022 34.6996 14.5805 34.6497L20 31.2009L25.4195 34.6497C25.4978 34.6996 25.5881 34.7275 25.6809 34.7305C25.7737 34.7335 25.8656 34.7115 25.947 34.6668C26.0284 34.6222 26.0963 34.5564 26.1435 34.4765C26.1908 34.3966 26.2157 34.3055 26.2157 34.2126V26.0832C26.5535 25.8018 26.971 25.6336 27.4095 25.6022C27.8647 25.5726 28.3077 25.4431 28.7072 25.2229C29.1066 25.0026 29.4527 24.6971 29.7206 24.328C29.983 23.9673 30.1625 23.5533 30.2464 23.1153C30.3304 22.6774 30.3167 22.2263 30.2062 21.7942C30.1149 21.4236 30.1304 21.0346 30.2509 20.6724C30.3714 20.3102 30.592 19.9895 30.8871 19.7473C31.2355 19.4618 31.516 19.1023 31.7085 18.6951C31.901 18.2878 32.0005 17.8428 32 17.3924C31.9995 16.9419 31.8988 16.4972 31.7054 16.0904C31.512 15.6835 31.2306 15.3246 30.8815 15.0398ZM14.8202 27.6247C15.1974 28.097 15.7045 28.4484 16.2791 28.6358C16.7121 28.7774 17.1707 28.8228 17.6231 28.769C18.0754 28.7151 18.5106 28.5632 18.8983 28.3239C19.0793 28.2135 19.2761 28.1316 19.482 28.0811V30.3023L14.8202 33.269V27.6247ZM20.518 30.3023V28.0811C20.7239 28.1317 20.9207 28.2136 21.1017 28.324C21.4893 28.5633 21.9249 28.7152 22.3772 28.769C22.8294 28.8228 23.288 28.7773 23.7209 28.6357C24.2955 28.4483 24.8026 28.0969 25.1798 27.6247V33.2688L20.518 30.3023ZM30.2219 18.9529C29.777 19.3212 29.4452 19.8078 29.2649 20.3565C29.0847 20.9053 29.0633 21.4939 29.2032 22.0543C29.2753 22.3384 29.2839 22.635 29.2284 22.9229C29.1729 23.2108 29.0547 23.483 28.882 23.72C28.7024 23.9666 28.4706 24.1706 28.2031 24.3173C27.9356 24.4641 27.6391 24.55 27.3345 24.569C26.7571 24.6108 26.2025 24.8115 25.732 25.1488C25.2615 25.4861 24.8933 25.9469 24.6683 26.4803C24.5547 26.7559 24.3825 27.0034 24.1634 27.2056C23.9444 27.4078 23.6839 27.5598 23.4002 27.6509C23.1102 27.7461 22.803 27.7767 22.5 27.7408C22.1969 27.7048 21.9054 27.603 21.6459 27.4425C21.1536 27.1409 20.5877 26.981 20.0104 26.9806C20.0067 26.9806 20.0036 26.9784 20 26.9784C19.9964 26.9784 19.9934 26.9804 19.9896 26.9805C19.4121 26.981 18.8459 27.141 18.3534 27.4428C18.0939 27.603 17.8026 27.7047 17.4998 27.7406C17.197 27.7766 16.8899 27.746 16.6002 27.6509C16.3163 27.5598 16.0557 27.4079 15.8366 27.2057C15.6175 27.0035 15.4451 26.756 15.3315 26.4803C15.1064 25.9461 14.7377 25.4846 14.2662 25.1473C13.7948 24.8099 13.2391 24.6097 12.6607 24.569C12.3571 24.5495 12.0614 24.4633 11.7948 24.3166C11.5281 24.1699 11.2971 23.9663 11.118 23.7202C10.945 23.4823 10.8266 23.209 10.7713 22.92C10.7161 22.631 10.7253 22.3334 10.7984 22.0484C10.9371 21.4875 10.9144 20.8989 10.7329 20.3503C10.5514 19.8018 10.2185 19.3158 9.77252 18.9484C9.54188 18.76 9.35611 18.5226 9.22871 18.2534C9.10131 17.9842 9.03549 17.69 9.03602 17.3922C9.03655 17.0943 9.10342 16.8004 9.23178 16.5316C9.36013 16.2629 9.54675 16.0261 9.77806 15.8385C10.223 15.4703 10.5548 14.9837 10.7351 14.4349C10.9153 13.8862 10.9367 13.2976 10.7968 12.7372C10.7247 12.453 10.7161 12.1564 10.7716 11.8685C10.8271 11.5806 10.9453 11.3085 11.118 11.0715C11.2976 10.8249 11.5294 10.6209 11.7969 10.4741C12.0644 10.3274 12.3609 10.2415 12.6655 10.2225C13.2435 10.1829 13.7992 9.98317 14.2701 9.64558C14.741 9.308 15.1087 8.84593 15.3317 8.31116C15.4453 8.03556 15.6175 7.78803 15.8366 7.58585C16.0556 7.38367 16.3161 7.2317 16.5999 7.14054C16.8898 7.04554 17.197 7.01497 17.5 7.05096C17.803 7.08695 18.0945 7.18864 18.3541 7.34892C18.8499 7.65157 19.4195 7.81168 20.0004 7.81163C20.5813 7.81158 21.1509 7.65139 21.6466 7.34866C21.906 7.18838 22.1974 7.08671 22.5002 7.05076C22.803 7.01481 23.1101 7.04545 23.3998 7.14054C23.6837 7.23163 23.9443 7.38357 24.1634 7.58575C24.3825 7.78794 24.5549 8.0355 24.6685 8.31116C24.892 8.84651 25.2603 9.30895 25.7321 9.64657C26.2039 9.9842 26.7604 10.1836 27.3393 10.2225C27.6429 10.242 27.9386 10.3282 28.2052 10.4749C28.4719 10.6216 28.7029 10.8252 28.882 11.0713C29.055 11.3092 29.1734 11.5824 29.2287 11.8714C29.2839 12.1604 29.2747 12.4581 29.2016 12.7431C29.0628 13.3039 29.0855 13.8926 29.267 14.4411C29.4484 14.9896 29.7813 15.4756 30.2272 15.843C30.4579 16.0315 30.6436 16.2689 30.771 16.5381C30.8984 16.8073 30.9642 17.1015 30.9637 17.3993C30.9632 17.6971 30.8963 17.9911 30.768 18.2598C30.6396 18.5286 30.4533 18.7653 30.2219 18.9529ZM20 10.1441C18.5658 10.1441 17.1637 10.5694 15.9712 11.3662C14.7787 12.163 13.8492 13.2956 13.3003 14.6206C12.7515 15.9457 12.6079 17.4038 12.8877 18.8105C13.1675 20.2171 13.8581 21.5093 14.8723 22.5234C15.8865 23.5376 17.1786 24.2283 18.5853 24.5081C19.992 24.7879 21.45 24.6443 22.7751 24.0954C24.1002 23.5465 25.2327 22.6171 26.0295 21.4245C26.8264 20.232 27.2517 18.83 27.2517 17.3957C27.2495 15.4731 26.4848 13.6299 25.1253 12.2704C23.7658 10.9109 21.9226 10.1462 20 10.1441ZM20 23.6114C18.7706 23.6114 17.5689 23.2469 16.5467 22.5639C15.5246 21.8809 14.7279 20.9102 14.2574 19.7744C13.787 18.6386 13.6639 17.3888 13.9037 16.1831C14.1436 14.9774 14.7355 13.8698 15.6048 13.0006C16.4741 12.1313 17.5816 11.5393 18.7874 11.2995C19.9931 11.0596 21.2429 11.1827 22.3786 11.6532C23.5144 12.1236 24.4852 12.9203 25.1682 13.9425C25.8512 14.9646 26.2157 16.1664 26.2157 17.3957C26.2139 19.0437 25.5584 20.6236 24.3931 21.7889C23.2279 22.9541 21.6479 23.6096 20 23.6114Z" fill="#1179EF" stroke="#1179EF" stroke-width="0.4"/>
<path fill-rule="evenodd" clip-rule="evenodd" d="M20.1553 19.1158L18.5618 19.9966L18.8661 18.1309L17.5769 16.8096L19.3585 16.5374L20.1553 14.8398L20.9521 16.5374L22.7337 16.8096L21.4445 18.1309L21.7488 19.9966L20.1553 19.1158Z" fill="#1179EF"/>
</svg>
