<svg width="40" height="40" viewBox="0 0 40 40" fill="none" xmlns="http://www.w3.org/2000/svg">
<path d="M13.4072 24.6717C14.4496 23.6293 14.4496 21.933 13.4072 20.8907C12.9021 20.3859 12.2309 20.1077 11.5168 20.1077C11.1039 20.1077 10.7057 20.201 10.3456 20.3771C9.07587 18.5605 8.40707 16.4347 8.40707 14.1987C8.40707 8.47616 12.8774 3.73556 18.584 3.40597C18.9721 3.38345 19.2682 3.05084 19.2459 2.66302C19.2234 2.27493 18.8908 1.97967 18.503 2.0011C12.0526 2.37381 7 7.73156 7 14.1987C7 16.7788 7.78854 19.2296 9.28351 21.3112C8.60043 22.3483 8.71469 23.7601 9.62628 24.6717C10.1314 25.1765 10.8026 25.4547 11.5168 25.4547C12.2309 25.4547 12.9021 25.1765 13.4072 24.6717V24.6717ZM10.6211 21.8858C10.868 21.6389 11.1924 21.5153 11.5168 21.5153C11.8409 21.5153 12.1652 21.6389 12.4121 21.8858C12.906 22.3794 12.906 23.183 12.4121 23.6766C11.9183 24.1704 11.1149 24.1704 10.6211 23.6766C10.1275 23.183 10.1275 22.3796 10.6211 21.8858Z" fill="#1179EF"/>
<path d="M30.0654 26.3753C29.6207 26.3753 29.2027 26.4912 28.8399 26.6944C28.5183 25.6746 27.5636 24.9331 26.4388 24.9331C25.7272 24.9331 25.0837 25.23 24.6255 25.7062C24.4984 25.5744 24.3569 25.4566 24.2039 25.3547C25.8255 24.6287 27.2848 23.5504 28.4655 22.1846C30.381 19.9681 31.436 17.1319 31.436 14.1989C31.436 11.6201 30.6474 9.16795 29.1527 7.08604C29.8358 6.04893 29.7215 4.63746 28.8097 3.72559C27.7674 2.68327 26.0713 2.68327 25.0287 3.72559C23.9864 4.76792 23.9864 6.46421 25.0287 7.50654C25.55 8.02784 26.2345 8.28849 26.9192 8.28849C27.3205 8.28849 27.7212 8.19813 28.0895 8.01905C29.3598 9.83619 30.0289 11.9637 30.0289 14.1989C30.0289 19.2883 26.574 23.5903 21.7024 24.7235V20.9365C24.4923 19.9065 26.3985 17.2097 26.3985 14.1989C26.3985 10.2397 23.1773 7.01847 19.2178 7.01847C15.2586 7.01847 12.0374 10.2394 12.0374 14.1989C12.0374 15.7614 12.531 17.2473 13.4643 18.4953C14.2783 19.5838 15.4047 20.4292 16.6684 20.9115V31.2604L15.7846 29.8104C15.0419 28.5912 13.4914 28.1957 12.2552 28.9093C11.0794 29.5882 10.6207 31.078 11.2143 32.3068L13.8386 37.6085C13.9614 37.8566 14.2108 38.0002 14.4698 38.0002C14.5747 38.0002 14.681 37.9769 14.7812 37.9271C15.1295 37.7547 15.2721 37.3325 15.0998 36.9845L12.4782 31.6888C12.2066 31.1261 12.4175 30.4405 12.9589 30.1279C13.5184 29.8049 14.247 29.9909 14.5832 30.5427L16.7711 34.1327C16.9354 34.4019 17.2587 34.5291 17.5622 34.4439C17.8657 34.3588 18.0755 34.0819 18.0755 33.7663V17.6241C18.0755 17.0122 18.5734 16.5145 19.1854 16.5145C19.7973 16.5145 20.2953 17.0122 20.2953 17.6241V20.407C20.295 20.4119 20.2953 20.4169 20.2953 20.4221V30.986C20.2953 31.3746 20.61 31.6894 20.9987 31.6894C21.3873 31.6894 21.7024 31.3746 21.7024 30.986V27.45C21.7024 26.8381 22.2 26.3401 22.812 26.3401C23.4239 26.3401 23.9219 26.8381 23.9219 27.45V31.242C23.9219 31.6306 24.2369 31.9456 24.6253 31.9456C25.0139 31.9456 25.3289 31.6306 25.3289 31.242V27.45C25.3289 26.8381 25.8269 26.3401 26.4388 26.3401C27.0508 26.3401 27.5485 26.8381 27.5485 27.45V31.2895C27.5485 31.6781 27.8635 31.9931 28.2521 31.9931C28.6408 31.9931 28.9555 31.6781 28.9555 31.2895V28.8923C28.9555 28.2803 29.4535 27.7824 30.0654 27.7824C30.6774 27.7824 31.1753 28.2803 31.1753 28.8923V37.2962C31.1753 37.6849 31.4901 37.9999 31.8787 37.9999C32.2674 37.9999 32.5824 37.6849 32.5824 37.2962V28.8923C32.5824 27.5044 31.4533 26.3753 30.0654 26.3753V26.3753ZM26.0238 6.51173C25.53 6.01789 25.53 5.21452 26.0238 4.72068C26.2707 4.47376 26.5948 4.35044 26.9192 4.35044C27.2436 4.35044 27.568 4.47376 27.8149 4.72068C28.3084 5.21452 28.3084 6.01789 27.8149 6.51173C27.321 7.00529 26.5174 7.00529 26.0238 6.51173ZM13.4445 14.1989C13.4445 11.0153 16.0345 8.42527 19.2181 8.42527C22.4014 8.42527 24.9914 11.0153 24.9914 14.1989C24.9914 16.4406 23.6777 18.4662 21.7024 19.4113V17.6241C21.7024 17.2292 21.6106 16.8551 21.4475 16.5219C22.0715 15.9204 22.4404 15.0819 22.4404 14.1989C22.4404 12.4218 20.9948 10.9763 19.2181 10.9763C17.441 10.9763 15.9955 12.4218 15.9955 14.1989C15.9955 15.0561 16.3446 15.8798 16.9447 16.4802C16.7687 16.8235 16.6684 17.2124 16.6684 17.6241V19.3817C14.7093 18.4242 13.4445 16.4387 13.4445 14.1989ZM17.9088 15.4562C17.5844 15.1206 17.4026 14.6759 17.4026 14.1989C17.4026 13.1977 18.2169 12.3834 19.2178 12.3834C20.2189 12.3834 21.0333 13.1977 21.0333 14.1989C21.0333 14.6828 20.8366 15.1437 20.5021 15.4804C20.1187 15.2439 19.6677 15.1074 19.1854 15.1074C18.7196 15.1074 18.2834 15.2349 17.9088 15.4562Z" fill="#1179EF"/>
<path d="M21.7093 3.65805C21.8944 3.65805 22.0759 3.58279 22.2067 3.45178C22.3377 3.32104 22.4129 3.1395 22.4129 2.95438C22.4129 2.76953 22.3377 2.58798 22.2067 2.45697C22.0759 2.32623 21.8944 2.25098 21.7093 2.25098C21.5244 2.25098 21.3429 2.32623 21.2121 2.45697C21.0811 2.58798 21.0059 2.76953 21.0059 2.95438C21.0059 3.1395 21.0811 3.32104 21.2121 3.45178C21.3429 3.58279 21.5244 3.65805 21.7093 3.65805Z" fill="#1179EF"/>
</svg>
