<svg width="40" height="40" viewBox="0 0 40 40" fill="none" xmlns="http://www.w3.org/2000/svg">
<path fill-rule="evenodd" clip-rule="evenodd" d="M30.7 15.6348C31.9986 17.6217 32.7001 19.9408 32.7001 22.37C32.7001 25.6684 31.4158 28.77 29.0827 31.1027C26.7504 33.4353 23.6489 34.7197 20.3501 34.7197C17.0512 34.7197 13.9497 33.4353 11.6174 31.1027C9.28473 28.77 8 25.6684 8 22.37C8 19.9408 8.70147 17.6217 10.0001 15.6348C10.1121 16.0615 10.3183 16.4618 10.6163 16.8009C10.7435 16.9455 10.8845 17.0741 11.0357 17.1892C10.2749 18.5511 9.80094 20.0939 9.70444 21.7379H13.5342C13.5966 20.3865 13.8718 19.0611 14.331 17.7787H14.6558C14.669 18.3368 14.843 18.8801 15.1619 19.3409C14.9639 20.1238 14.8403 20.9229 14.8 21.7379H19.718V20.5795H20.9821V21.7379H25.9005C25.8598 20.9229 25.7358 20.1238 25.5386 19.3405C25.8575 18.8801 26.0311 18.3368 26.0447 17.7787H26.3691C26.8287 19.0611 27.1035 20.3865 27.1659 21.7379H30.9957C30.8992 20.0939 30.4252 18.5511 29.6648 17.1892C29.8156 17.0741 29.957 16.9455 30.0841 16.8009C30.3818 16.4622 30.5883 16.0615 30.7 15.6348ZM25.5134 28.9115C25.0723 29.7338 24.5484 30.5302 23.9442 31.291C23.4826 31.8727 23.0218 32.3742 22.5982 32.7955C24.7356 32.3351 26.6373 31.2325 28.0894 29.6997C27.2473 29.3831 26.3877 29.1203 25.5134 28.9115ZM15.1871 28.9115C14.3124 29.1203 13.4528 29.3831 12.6107 29.6997C14.0632 31.2325 15.9642 32.3351 18.1019 32.7955C17.6783 32.3742 17.2175 31.8727 16.7555 31.291C16.1521 30.5302 15.6274 29.7338 15.1871 28.9115ZM19.718 28.3197C18.6212 28.3495 17.5403 28.458 16.4792 28.644C16.8431 29.2792 17.2655 29.9001 17.7457 30.5051C18.4592 31.4034 19.1715 32.0971 19.718 32.5746V28.3197ZM20.9821 28.3197V32.5734C21.5367 32.0882 22.2618 31.3829 22.9811 30.4717C23.4505 29.8768 23.8632 29.2676 24.2205 28.644C23.1598 28.458 22.0789 28.3495 20.9821 28.3197ZM30.9957 23.0021H27.1659C27.0942 24.5527 26.7586 26.0723 26.1656 27.5275C26.1358 27.6011 26.1048 27.6744 26.0734 27.7473C27.0492 27.993 28.0077 28.3026 28.9451 28.6762C30.1279 27.0675 30.8713 25.1166 30.9957 23.0021ZM13.5342 23.0021H9.70444C9.82846 25.1166 10.5718 27.0675 11.755 28.6758C12.6928 28.3026 13.6509 27.993 14.6263 27.7473C14.5953 27.6744 14.5647 27.6011 14.5349 27.5275C13.9415 26.0723 13.6063 24.5527 13.5342 23.0021ZM25.9005 23.0021H20.9821V27.0551C22.2843 27.0888 23.5659 27.2272 24.8204 27.469C25.4618 26.0416 25.8234 24.5488 25.9005 23.0021ZM19.718 23.0021H14.8C14.8767 24.5492 15.2379 26.042 15.8793 27.469C17.1342 27.2272 18.4158 27.0888 19.718 27.0551V23.0021Z" fill="#1179EF"/>
<path d="M15 16.5L19.2394 17.6562C20.0659 17.8816 20.9365 17.8909 21.7676 17.6831L26.5 16.5" stroke="#1179EF" stroke-width="1.2"/>
<path d="M25.5 14.5L30 13.5" stroke="#1179EF" stroke-width="1.2"/>
<path d="M15 14.5L11.5 13.5" stroke="#1179EF" stroke-width="1.2"/>
<path fill-rule="evenodd" clip-rule="evenodd" d="M20.6671 5C18.907 5 17.4704 6.43659 17.4704 8.19672C17.4704 9.27028 18.0048 10.2235 18.8212 10.8037C18.338 10.9593 17.8812 11.1742 17.4593 11.4399C17.1046 10.9975 16.6476 10.6402 16.1251 10.4029C16.6533 9.96881 16.9914 9.3115 16.9914 8.57902C16.9914 7.27838 15.928 6.21498 14.6274 6.21498C13.3284 6.21498 12.2656 7.27838 12.2656 8.57902C12.2656 9.31165 12.6037 9.9691 13.1317 10.4032C11.8766 10.9744 11 12.2408 11 13.7069C10.9992 13.7652 11.01 13.823 11.0317 13.877C11.0534 13.931 11.0856 13.9802 11.1265 14.0217C11.1674 14.0632 11.2161 14.0961 11.2698 14.1186C11.3236 14.141 11.3812 14.1526 11.4395 14.1526C11.4977 14.1526 11.5553 14.141 11.6091 14.1186C11.6628 14.0961 11.7115 14.0632 11.7524 14.0217C11.7933 13.9802 11.8255 13.931 11.8472 13.877C11.8689 13.823 11.8797 13.7652 11.8789 13.7069C11.8789 12.1823 13.1049 10.9584 14.6274 10.9584C15.4848 10.9584 16.2474 11.3496 16.7506 11.9614C15.4524 13.0702 14.6274 14.7181 14.6274 16.5543C14.6266 16.6126 14.6373 16.6704 14.659 16.7244C14.6807 16.7784 14.713 16.8276 14.7539 16.8691C14.7948 16.9106 14.8435 16.9435 14.8972 16.9659C14.9509 16.9884 15.0086 17 15.0668 17C15.125 17 15.1827 16.9884 15.2364 16.9659C15.2901 16.9435 15.3388 16.9106 15.3797 16.8691C15.4206 16.8276 15.4529 16.7784 15.4746 16.7244C15.4963 16.6704 15.507 16.6126 15.5062 16.5543C15.5062 14.8631 16.3168 13.3637 17.5712 12.4228C17.5963 12.4081 17.6199 12.3908 17.6415 12.3714C18.4913 11.7562 19.5362 11.3934 20.6671 11.3934C21.7922 11.3934 22.8316 11.7517 23.6784 12.3601C23.7079 12.3891 23.7414 12.4137 23.7778 12.4333C25.0241 13.3748 25.828 14.8692 25.828 16.5543C25.8272 16.6126 25.8379 16.6704 25.8596 16.7244C25.8814 16.7784 25.9136 16.8276 25.9545 16.8691C25.9954 16.9106 26.0441 16.9435 26.0978 16.9659C26.1515 16.9884 26.2092 17 26.2674 17C26.3256 17 26.3833 16.9884 26.437 16.9659C26.4907 16.9435 26.5395 16.9106 26.5803 16.8691C26.6212 16.8276 26.6535 16.7784 26.6752 16.7244C26.6969 16.6704 26.7076 16.6126 26.7068 16.5543C26.7068 14.7183 25.8826 13.0705 24.5846 11.9616C25.0879 11.349 25.8498 10.9584 26.7068 10.9584C28.2318 10.9584 29.4553 12.182 29.4553 13.7069C29.4545 13.7652 29.4653 13.823 29.487 13.877C29.5087 13.931 29.5409 13.9802 29.5818 14.0217C29.6227 14.0632 29.6714 14.0961 29.7251 14.1186C29.7789 14.141 29.8365 14.1526 29.8948 14.1526C29.953 14.1526 30.0106 14.141 30.0644 14.1186C30.1181 14.0961 30.1668 14.0632 30.2077 14.0217C30.2486 13.9802 30.2808 13.931 30.3025 13.877C30.3242 13.823 30.335 13.7652 30.3342 13.7069C30.3342 12.2427 29.4606 10.9775 28.2076 10.4052C28.734 9.97141 29.0709 9.31532 29.0709 8.5834C29.0709 7.28447 28.0075 6.22156 26.7068 6.22156C25.4079 6.22156 24.345 7.28447 24.345 8.5834C24.345 9.31482 24.6814 9.97052 25.2066 10.4044C24.6857 10.6416 24.23 10.9983 23.876 11.44C23.4539 11.1742 22.9968 10.9592 22.5133 10.8035C23.3294 10.2232 23.8638 9.27018 23.8638 8.19672C23.8638 6.43659 22.4272 5 20.6671 5V5ZM20.6671 5.87882C21.9521 5.87882 22.985 6.91172 22.985 8.19672C22.985 9.48171 21.9521 10.5146 20.6671 10.5146C19.3821 10.5146 18.3492 9.48171 18.3492 8.19672C18.3492 6.91172 19.3821 5.87882 20.6671 5.87882ZM14.6274 7.0938C15.4535 7.0938 16.1126 7.7529 16.1126 8.57902C16.1126 9.40245 15.4535 10.062 14.6274 10.062C13.804 10.062 13.1444 9.40245 13.1444 8.57902C13.1444 7.7529 13.804 7.0938 14.6274 7.0938V7.0938ZM26.7068 7.10039C27.5329 7.10039 28.192 7.75997 28.192 8.5834C28.192 9.40952 27.5335 10.0664 26.7068 10.0664C25.8828 10.0664 25.2238 9.40952 25.2238 8.5834C25.2238 7.75997 25.8834 7.10039 26.7068 7.10039Z" fill="#1179EF" stroke="#1179EF" stroke-width="0.2"/>
</svg>
