<svg width="40" height="40" viewBox="0 0 40 40" fill="none" xmlns="http://www.w3.org/2000/svg">
<path d="M29.3859 10.4264C29.3859 9.6353 28.7623 8.9918 27.9959 8.9918H20.5748V6.99242C20.5748 5.89378 19.7088 5 18.6444 5H13.7556C12.6912 5 11.8252 5.89378 11.8252 6.99242V8.9918H4.40409C3.6377 8.9918 3.01414 9.6353 3.01414 10.4252L3 17.3913C2.9996 17.6058 3.11813 17.8015 3.30511 17.8951C3.61133 18.0484 3.92665 18.1905 4.24355 18.3306V27.8286C4.24355 28.6195 4.86697 29.2629 5.63337 29.2629H26.7665C27.5329 29.2629 28.1565 28.6195 28.1565 27.8286V18.1886C28.4807 18.0343 28.8 17.8743 29.1111 17.705C29.2891 17.6081 29.4004 17.4173 29.4 17.2096L29.3859 10.4264ZM12.9077 6.99242C12.9077 6.50987 13.2881 6.11733 13.7556 6.11733H18.6444C19.104 6.11733 19.4923 6.51805 19.4923 6.99242V8.9918H12.9077V6.99242ZM27.074 27.8286C27.074 27.9974 26.9304 28.1456 26.7665 28.1456H5.63337C5.46674 28.1456 5.32602 28.0004 5.32602 27.8286V18.7735C7.82295 19.7253 10.6155 20.2957 13.6639 20.4677V21.312C13.6639 21.8879 14.1176 22.3562 14.6755 22.3562H17.7245C18.2824 22.3562 18.7361 21.8879 18.7361 21.312V20.4583C21.8242 20.2672 24.6177 19.6658 27.074 18.6654V27.8286V27.8286ZM14.7464 21.2389V19.2262H17.6536V21.2389H14.7464ZM18.7361 19.3349V19.1532C18.7361 18.5773 18.2824 18.1088 17.7245 18.1088H14.6755C14.1176 18.1088 13.6639 18.5773 13.6639 19.1532V19.348C10.0683 19.1386 6.84627 18.3651 4.08313 17.0397L4.09661 10.4264C4.09661 10.2544 4.23747 10.1091 4.40409 10.1091H27.9959C28.1625 10.1091 28.3034 10.2544 28.3034 10.4276L28.3169 16.8708C25.6202 18.2764 22.3977 19.1008 18.7361 19.3349Z" fill="#1179EF" stroke="#1179EF" stroke-width="0.3"/>
<circle cx="28.6001" cy="29.0001" r="5.75" fill="white" stroke="#1179EF" stroke-width="1.3"/>
<path d="M25.9689 29.658L27.9142 31.4001L31.3733 27.6313" stroke="#1179EF" stroke-width="1.2" stroke-linecap="round" stroke-linejoin="round"/>
</svg>
