<svg width="134" height="41" viewBox="0 0 134 41" fill="none" xmlns="http://www.w3.org/2000/svg">
<g clip-path="url(#clip0_2969_9142)">
<path d="M82.8368 31.991C75.1446 37.6608 63.9952 40.6858 54.3958 40.6858C40.9359 40.6858 28.8186 35.7075 19.6513 27.4276C18.9311 26.7765 19.5764 25.8891 20.4407 26.3962C30.3339 32.1524 42.5666 35.6153 55.2025 35.6153C63.7244 35.6153 73.0991 33.8521 81.719 30.1933C83.0212 29.6402 84.1102 31.0461 82.8368 31.991Z" fill="#FF9900"/>
<path d="M86.0342 28.3329C85.0547 27.0768 79.5348 27.7395 77.0571 28.0333C76.3023 28.1255 76.1871 27.4686 76.867 26.9962C81.2634 23.902 88.4773 24.7951 89.3185 25.8322C90.1598 26.8752 89.0996 34.1064 84.9683 37.5578C84.3345 38.0879 83.7295 37.8056 84.0118 37.1026C84.9395 34.7863 87.0195 29.5948 86.0342 28.3329Z" fill="#FF9900"/>
<path d="M77.2302 5.1521V2.14436C77.2302 1.68917 77.5759 1.38379 77.9908 1.38379H91.4564C91.8886 1.38379 92.2343 1.69493 92.2343 2.14436V4.71995C92.2286 5.1521 91.8655 5.71677 91.2202 6.60987L84.2425 16.5723C86.8354 16.5089 89.5723 16.8949 91.9232 18.2202C92.4533 18.5198 92.5973 18.9577 92.6376 19.3899V22.5993C92.6376 23.0372 92.1536 23.55 91.6466 23.2849C87.5038 21.1127 82.0011 20.8764 77.4203 23.308C76.9536 23.5615 76.4639 23.0545 76.4639 22.6166V19.5685C76.4639 19.0787 76.4696 18.2432 76.9594 17.4999L85.0434 5.90691H78.0081C77.5759 5.90691 77.2302 5.60153 77.2302 5.1521Z" fill="#221F1F"/>
<path d="M28.1098 23.9191H24.013C23.6212 23.8903 23.3101 23.5964 23.2812 23.2219V2.19653C23.2812 1.77591 23.6327 1.44172 24.0706 1.44172H27.8908C28.2884 1.45899 28.6053 1.76439 28.6341 2.14467V4.89312H28.709C29.7058 2.23686 31.5784 0.998047 34.1022 0.998047C36.6662 0.998047 38.2681 2.23686 39.4205 4.89312C40.4115 2.23686 42.6644 0.998047 45.0787 0.998047C46.7957 0.998047 48.6741 1.70677 49.8208 3.29706C51.1172 5.06598 50.8521 7.63581 50.8521 9.88873L50.8464 23.1585C50.8464 23.5791 50.4949 23.9191 50.057 23.9191H45.966C45.5569 23.8903 45.2285 23.5618 45.2285 23.1585V12.0149C45.2285 11.1275 45.3092 8.91496 45.1133 8.07371C44.8079 6.66204 43.8917 6.26446 42.7048 6.26446C41.7137 6.26446 40.6766 6.92709 40.2559 7.98729C39.8353 9.04748 39.8757 10.8222 39.8757 12.0149V23.1585C39.8757 23.5791 39.5242 23.9191 39.0863 23.9191H34.9953C34.5804 23.8903 34.2578 23.5618 34.2578 23.1585L34.252 12.0149C34.252 9.66977 34.638 6.21837 31.7283 6.21837C28.7839 6.21837 28.8991 9.58334 28.8991 12.0149V23.1585C28.8991 23.5791 28.5477 23.9191 28.1098 23.9191Z" fill="#221F1F"/>
<path d="M103.828 0.998047C109.906 0.998047 113.196 6.21837 113.196 12.8561C113.196 19.2692 109.561 24.357 103.828 24.357C97.8581 24.357 94.6084 19.1366 94.6084 12.6314C94.6084 6.08584 97.8985 0.998047 103.828 0.998047ZM103.862 5.2907C100.843 5.2907 100.653 9.40472 100.653 11.9688C100.653 14.5386 100.612 20.024 103.828 20.024C107.002 20.024 107.152 15.5988 107.152 12.9022C107.152 11.1275 107.077 9.00715 106.541 7.32466C106.08 5.86113 105.164 5.2907 103.862 5.2907Z" fill="#221F1F"/>
<path d="M121.079 23.9191H116.999C116.59 23.8903 116.262 23.5618 116.262 23.1585L116.256 2.12739C116.29 1.74134 116.63 1.44172 117.045 1.44172H120.842C121.2 1.45899 121.493 1.70101 121.574 2.02944V5.2446H121.649C122.796 2.36939 124.403 0.998047 127.232 0.998047C129.07 0.998047 130.862 1.66067 132.015 3.47568C133.086 5.15817 133.086 7.98729 133.086 10.0212V23.2564C133.04 23.6252 132.7 23.9191 132.297 23.9191H128.189C127.814 23.8903 127.503 23.6137 127.463 23.2564V11.8363C127.463 9.53725 127.728 6.17227 124.899 6.17227C123.902 6.17227 122.986 6.84066 122.531 7.85476C121.954 9.13968 121.88 10.4188 121.88 11.8363V23.1585C121.874 23.5791 121.517 23.9191 121.079 23.9191Z" fill="#221F1F"/>
<path d="M66.4961 13.8755V12.9882C63.5344 12.9882 60.4057 13.622 60.4057 17.1137C60.4057 18.8826 61.3218 20.0811 62.8949 20.0811C64.0472 20.0811 65.0786 19.3724 65.7297 18.22C66.5364 16.8026 66.4961 15.4716 66.4961 13.8755ZM70.6274 23.861C70.3566 24.103 69.9648 24.1202 69.6594 23.9589C68.2996 22.8296 68.0576 22.3052 67.3085 21.2278C65.0613 23.521 63.4711 24.2067 60.5555 24.2067C57.1099 24.2067 54.4248 22.0805 54.4248 17.8224C54.4248 14.4978 56.2283 12.2334 58.7924 11.1271C61.0165 10.1475 64.1222 9.97468 66.4961 9.70387V9.17377C66.4961 8.19999 66.571 7.04761 66.0005 6.20637C65.4993 5.45155 64.5428 5.1404 63.7015 5.1404C62.14 5.1404 60.7457 5.94131 60.4057 7.60075C60.3366 7.96952 60.0657 8.33252 59.697 8.34981L55.7212 7.92342C55.387 7.84852 55.0183 7.5777 55.1105 7.0649C56.0266 2.24791 60.3769 0.795898 64.272 0.795898C66.2656 0.795898 68.87 1.326 70.443 2.83563C72.4366 4.69673 72.2465 7.18013 72.2465 9.88248V16.2667C72.2465 18.1854 73.0416 19.0267 73.7907 20.0638C74.0557 20.4326 74.1134 20.8763 73.7792 21.1528C72.9437 21.85 71.4571 23.1465 70.6389 23.8725L70.6274 23.861Z" fill="#221F1F"/>
<path d="M12.789 13.8755V12.9882C9.8274 12.9882 6.69867 13.622 6.69867 17.1137C6.69867 18.8826 7.61482 20.0811 9.18783 20.0811C10.3402 20.0811 11.3716 19.3724 12.0227 18.22C12.8294 16.8026 12.789 15.4716 12.789 13.8755ZM16.9204 23.861C16.6495 24.103 16.2577 24.1202 15.9523 23.9589C14.5925 22.8296 14.3505 22.3052 13.6015 21.2278C11.3543 23.521 9.76403 24.2067 6.84848 24.2067C3.40283 24.2067 0.717773 22.0805 0.717773 17.8224C0.717773 14.4978 2.52126 12.2334 5.08532 11.1271C7.30943 10.1475 10.4151 9.97468 12.789 9.70387V9.17377C12.789 8.19999 12.864 7.04761 12.2935 6.20637C11.7922 5.45155 10.8357 5.1404 9.9945 5.1404C8.43302 5.1404 7.03862 5.94131 6.69867 7.60075C6.62952 7.96952 6.35871 8.33252 5.98995 8.34981L2.01421 7.92342C1.68002 7.84852 1.31125 7.5777 1.40344 7.0649C2.31959 2.24791 6.66986 0.795898 10.5649 0.795898C12.5586 0.795898 15.163 1.326 16.736 2.83563C18.7296 4.69673 18.5395 7.18013 18.5395 9.88248V16.2667C18.5395 18.1854 19.3346 19.0267 20.0837 20.0638C20.3487 20.4326 20.4063 20.8763 20.0721 21.1528C19.2367 21.85 17.7501 23.1465 16.9319 23.8725L16.9204 23.861Z" fill="#221F1F"/>
</g>
<defs>
<clipPath id="clip0_2969_9142">
<rect width="132.527" height="40" fill="white" transform="translate(0.637695 0.742188)"/>
</clipPath>
</defs>
</svg>
