<svg width="367" height="218" viewBox="0 0 367 218" fill="none" xmlns="http://www.w3.org/2000/svg">
<g opacity="0.3" clip-path="url(#clip0_265_6359)">
<path opacity="0.7" d="M-288.594 -0.359375C13.5927 -0.359375 183.017 -0.344422 485.203 -0.344422C787.39 -0.344422 956.814 -0.351898 1259 -0.351898M-288.594 -0.359375C13.5927 -0.359375 183.017 14.2212 485.203 14.2212C787.39 14.2212 956.814 -0.351898 1259 -0.351898M-288.594 -0.359375C13.5927 -0.359375 183.017 28.7868 485.203 28.7868C787.39 28.7868 956.814 -0.351898 1259 -0.351898M-288.594 -0.359375C13.5927 -0.359375 183.017 43.3523 485.203 43.3523C787.39 43.3523 956.814 -0.351898 1259 -0.351898M-288.594 -0.359375C13.5927 -0.359375 183.017 57.9179 485.203 57.9179C787.39 57.9179 956.814 -0.351898 1259 -0.351898M-288.594 -0.359375C13.5927 -0.359375 183.017 72.4835 485.203 72.4835C787.39 72.4835 956.814 -0.351898 1259 -0.351898M-288.594 -0.359375C13.5927 -0.359375 183.017 87.0491 485.203 87.0491C787.39 87.0491 956.814 -0.351898 1259 -0.351898M-288.594 -0.359375C13.5927 -0.359375 183.017 101.615 485.203 101.615C787.39 101.615 956.814 -0.351898 1259 -0.351898M-288.594 -0.359375C13.5927 -0.359375 183.017 116.18 485.203 116.18C787.39 116.18 956.814 -0.351898 1259 -0.351898M-288.594 -0.359375C13.5927 -0.359375 183.017 130.746 485.203 130.746C787.39 130.746 956.814 -0.351898 1259 -0.351898M-288.594 -0.359375C13.5927 -0.359375 183.017 145.311 485.203 145.311C787.39 145.311 956.814 -0.351898 1259 -0.351898M-288.594 -0.359375C13.5927 -0.359375 183.017 159.877 485.203 159.877C787.39 159.877 956.814 -0.351898 1259 -0.351898M-288.594 -0.359375C13.5927 -0.359375 183.017 174.443 485.203 174.443C787.39 174.443 956.814 -0.351898 1259 -0.351898M-288.594 -0.359375C13.5927 -0.359375 183.017 189.008 485.203 189.008C787.39 189.008 956.814 -0.351898 1259 -0.351898M-288.594 -0.359375C13.5927 -0.359375 183.017 203.574 485.203 203.574C787.39 203.574 956.814 -0.351898 1259 -0.351898M-288.594 -0.359375C13.5927 -0.359375 183.017 218.139 485.203 218.139C787.39 218.139 956.814 -0.351898 1259 -0.351898" stroke="white" stroke-width="1.69582"/>
</g>
<defs>
<clipPath id="clip0_265_6359">
<rect width="367" height="218" fill="white"/>
</clipPath>
</defs>
</svg>
