<svg width="21" height="14" viewBox="0 0 21 14" fill="none" xmlns="http://www.w3.org/2000/svg">
<path d="M7.34176 0.353551C7.1465 0.15829 6.82992 0.15829 6.63465 0.353551L0.000630379 6.98758L6.63465 13.6216C6.82991 13.8169 7.1465 13.8169 7.34176 13.6216C7.53702 13.4263 7.53702 13.1098 7.34176 12.9145L1.41474 6.98753L7.34175 1.06066C7.53702 0.865398 7.53702 0.548814 7.34176 0.353551Z" fill="#51565E"/>
<path d="M1.93694 6.49463C1.6608 6.49463 1.43694 6.71849 1.43694 6.99463C1.43694 7.27077 1.6608 7.49463 1.93694 7.49463H20.207C20.4832 7.49463 20.707 7.27077 20.707 6.99463C20.707 6.71849 20.4832 6.49463 20.207 6.49463H1.93694Z" fill="#51565E"/>
</svg>
