<svg width="609" height="172" viewBox="0 0 609 172" fill="none" xmlns="http://www.w3.org/2000/svg">
<mask id="mask0_217_3975" style="mask-type:alpha" maskUnits="userSpaceOnUse" x="0" y="0" width="609" height="172">
<rect width="609" height="172" fill="#D9D9D9"/>
</mask>
<g mask="url(#mask0_217_3975)">
<path d="M304.5 172C136.329 172 0 35.6707 0 -132.5C0 -300.671 136.329 -437 304.5 -437C472.671 -437 609 -300.671 609 -132.5C609 35.6707 472.671 172 304.5 172Z" fill="#FEFEFF" fill-opacity="0.75"/>
<path d="M304.5 115C167.81 115 57 4.19049 57 -132.5C57 -269.19 167.81 -380 304.5 -380C441.19 -380 552 -269.19 552 -132.5C552 4.19049 441.19 115 304.5 115Z" fill="#FFE7C4" fill-opacity="0.75"/>
<path d="M306 47C204.38 47 122 -35.3796 122 -137C122 -238.62 204.38 -321 306 -321C407.62 -321 490 -238.62 490 -137C490 -35.3796 407.62 47 306 47Z" fill="#FFC878" fill-opacity="0.75"/>
</g>
</svg>
