<svg width="322" height="262" viewBox="0 0 322 262" fill="none" xmlns="http://www.w3.org/2000/svg">
<path d="M31.9048 136.19C35.1429 136.19 38.0952 137.524 40.2857 139.619C42.4762 141.809 43.8095 144.762 43.8095 148.095C43.8095 151.333 42.4762 154.286 40.2857 156.476C38.0952 158.667 35.1429 160 31.9048 160C28.5714 160 25.619 158.667 23.4286 156.476C21.3333 154.381 20 151.333 20 148.095C20 144.762 21.3333 141.809 23.4286 139.619C25.619 137.524 28.5714 136.19 31.9048 136.19ZM42.6667 146.476H39.5238C39.5238 146.952 39.619 147.524 39.619 148.095C39.619 148.571 39.5238 149.143 39.5238 149.714H42.6667C42.7619 149.143 42.7619 148.571 42.7619 148.095C42.7619 147.524 42.7619 146.952 42.6667 146.476ZM38.4762 146.476H36C36.0952 146.952 36.0952 147.524 36.0952 148.095C36.0952 148.571 36.0952 149.143 36 149.714H38.4762C38.5714 149.143 38.5714 148.667 38.5714 148.095C38.5714 147.524 38.5714 146.952 38.4762 146.476ZM35.0476 146.476H28.6667C28.6667 146.952 28.6667 147.524 28.6667 148.095C28.6667 148.571 28.6667 149.143 28.6667 149.714H35.0476C35.0476 149.143 35.0476 148.571 35.0476 148.095C35.0476 147.524 35.0476 146.952 35.0476 146.476ZM27.7143 146.476H25.2381C25.2381 146.952 25.1429 147.524 25.1429 148.095C25.1429 148.667 25.2381 149.143 25.2381 149.714H27.7143C27.7143 149.143 27.7143 148.571 27.7143 148.095C27.7143 147.524 27.7143 146.952 27.7143 146.476ZM24.2857 146.476H21.0476C21.0476 146.952 20.9524 147.524 20.9524 148.095C20.9524 148.571 21.0476 149.143 21.0476 149.714H24.2857C24.1905 149.143 24.1905 148.571 24.1905 148.095C24.1905 147.524 24.1905 146.952 24.2857 146.476ZM21.2381 145.429H24.381C24.6667 143.238 25.3333 141.333 26.381 139.714C26.7619 139.048 27.2381 138.476 27.8095 137.905C26.4762 138.476 25.2381 139.333 24.1905 140.381C22.7619 141.714 21.7143 143.524 21.2381 145.429ZM25.3333 145.429H27.8095C27.9048 143.333 28.2857 141.333 28.7619 139.809C29.0476 139.048 29.3333 138.286 29.7143 137.714C28.7619 138.286 27.9048 139.143 27.2381 140.286C26.2857 141.714 25.619 143.429 25.3333 145.429ZM28.7619 145.429H34.9524C34.8571 143.429 34.4762 141.619 34 140.19C33.4286 138.286 32.6667 137.143 31.9048 137.143C31.0476 137.143 30.2857 138.286 29.7143 140.19C29.2381 141.619 28.9524 143.429 28.7619 145.429ZM36 145.429H38.381C38.0952 143.429 37.4286 141.714 36.5714 140.286C35.8095 139.143 34.9524 138.286 34 137.714C34.381 138.286 34.6667 139.048 34.9524 139.809C35.4286 141.333 35.8095 143.333 36 145.429ZM39.4286 145.429H42.4762C42 143.524 40.9524 141.714 39.619 140.381C38.5714 139.333 37.3333 138.476 35.9048 137.905C36.4762 138.476 36.9524 139.048 37.4286 139.714C38.381 141.333 39.0476 143.238 39.4286 145.429ZM42.4762 150.667H39.4286C39.0476 152.857 38.381 154.857 37.4286 156.381C36.9524 157.048 36.4762 157.714 35.9048 158.19C37.3333 157.619 38.5714 156.857 39.619 155.809C40.9524 154.381 42 152.667 42.4762 150.667ZM38.381 150.667H36C35.8095 152.857 35.4286 154.762 34.9524 156.286C34.6667 157.143 34.381 157.809 34 158.381C34.9524 157.905 35.8095 156.952 36.5714 155.905C37.4286 154.476 38.0952 152.667 38.381 150.667ZM34.9524 150.667H28.7619C28.9524 152.762 29.2381 154.571 29.7143 156C30.2857 157.809 31.0476 158.952 31.9048 158.952C32.6667 158.952 33.4286 157.809 34 156C34.4762 154.571 34.8571 152.762 34.9524 150.667ZM27.8095 150.667H25.3333C25.619 152.667 26.2857 154.476 27.2381 155.905C27.9048 156.952 28.7619 157.905 29.7143 158.381C29.3333 157.809 29.0476 157.143 28.7619 156.286C28.2857 154.762 27.9048 152.857 27.8095 150.667ZM24.381 150.667H21.2381C21.7143 152.667 22.7619 154.381 24.1905 155.809C25.2381 156.857 26.4762 157.619 27.8095 158.19C27.2381 157.714 26.7619 157.048 26.381 156.381C25.3333 154.857 24.6667 152.857 24.381 150.667Z" fill="#1179EF"/>
<path d="M31.9047 110H80.1904C81.8094 110 83.238 110.667 84.2856 111.714C85.3332 112.762 85.9999 114.19 85.9999 115.81V126.476V127.429V148.095C85.9999 149.714 85.3332 151.143 84.2856 152.19C83.238 153.238 81.8094 153.905 80.1904 153.905H44.0952C44.1904 153.714 44.2856 153.429 44.3809 153.238C44.5713 152.857 44.6666 152.381 44.7618 152H80.1904C81.238 152 82.2856 151.524 82.9523 150.857C83.619 150.19 84.0952 149.143 84.0952 148.095V122.381H27.9999V135.143C27.619 135.238 27.1428 135.429 26.6666 135.619C26.4761 135.619 26.2856 135.714 26.0952 135.81V127.429V126.476V115.81C26.0952 114.19 26.7618 112.762 27.8094 111.714C28.8571 110.667 30.3809 110 31.9047 110ZM84.0952 120.476V115.81C84.0952 114.667 83.619 113.714 82.9523 113.048C82.2856 112.381 81.238 111.905 80.1904 111.905H31.9047C30.8571 111.905 29.9047 112.381 29.1428 113.048C28.4761 113.714 27.9999 114.667 27.9999 115.81V120.476H84.0952Z" fill="#1179EF"/>
<circle cx="32.381" cy="116.286" r="1.61905" fill="#1179EF"/>
<circle cx="36.7619" cy="116.286" r="1.61905" fill="#1179EF"/>
<circle cx="41.1428" cy="116.286" r="1.61905" fill="#1179EF"/>
<rect x="37.8096" y="127.429" width="39.2381" height="1.90476" rx="0.952381" fill="#1179EF"/>
<rect x="37.8096" y="132.952" width="39.2381" height="1.90476" rx="0.952381" fill="#1179EF"/>
<rect x="54.1905" y="138.476" width="22.8571" height="1.90476" rx="0.952381" fill="#1179EF"/>
<rect x="54.1905" y="144" width="22.8571" height="1.90476" rx="0.952381" fill="#1179EF"/>
<path d="M171.812 130.965L173.154 132.309L173.961 131.503L172.618 130.159L171.812 130.965Z" fill="#1179EF" stroke="#1179EF" stroke-width="0.7"/>
<path d="M182.632 123.83L180.277 121.474L178.301 123.45C177.617 123.45 176.933 123.678 176.401 124.134L175.793 124.742L174.274 123.222L172.982 124.514V113.647V110H166.067H162.875H159.684H156.492H153.301H150.109H146.918H143.726H140.611H134V113.647V154.377C134 157.492 136.508 160 139.623 160C139.623 160 139.623 160 139.699 160H140.307H172.45H174.653C177.465 160 179.517 157.796 179.517 154.833C179.517 154.377 179.441 153.009 179.441 153.009V152.477H172.982V134.62L179.897 127.705C180.429 127.173 180.657 126.489 180.581 125.805L182.632 123.83ZM180.277 123.07L181.036 123.83L180.277 124.59C180.201 124.438 180.049 124.286 179.973 124.21C179.821 124.058 179.669 123.982 179.593 123.906L180.277 123.07ZM178.377 154.833C178.377 157.188 176.781 158.86 174.653 158.86H142.967C144.334 157.796 145.246 156.201 145.246 154.377C145.246 154.149 145.246 153.921 145.17 153.617H178.377C178.377 153.997 178.377 154.529 178.377 154.833ZM171.842 152.477H144.714L143.878 152.629L144.03 153.237C144.106 153.541 144.182 154.073 144.182 154.377C144.182 156.884 142.131 158.86 139.699 158.86C137.116 158.86 135.14 156.809 135.14 154.377V114.103V111.596H140.915H144.03H147.222H150.413H153.605H156.796H159.988H163.179H166.371H171.842V114.103V125.653L167.283 130.213L168.119 131.049L174.274 124.894L174.957 125.578L160.672 139.863C159.456 141.079 158.544 142.447 157.86 144.043C157.708 144.422 157.708 144.954 157.936 145.334L156.568 146.702L157.404 147.538L158.772 146.17C159 146.246 159.228 146.322 159.456 146.322C159.684 146.322 159.836 146.246 160.064 146.17C161.66 145.486 163.027 144.574 164.243 143.359L171.918 135.76V152.477H171.842ZM179.137 126.869L163.407 142.599C162.343 143.663 161.052 144.574 159.608 145.106C159.456 145.182 159.228 145.106 159.076 144.954C158.924 144.802 158.924 144.574 158.924 144.422C159.532 142.979 160.368 141.687 161.508 140.623L177.237 124.894C177.465 124.666 177.845 124.514 178.225 124.514C178.605 124.514 178.909 124.666 179.213 124.894C179.669 125.502 179.669 126.337 179.137 126.869Z" fill="#1179EF" stroke="#1179EF" stroke-width="0.7"/>
<path d="M150.033 118.663H138.559V134.24H150.033V118.663ZM148.894 133.1H139.699V119.802H148.894V133.1Z" fill="#1179EF" stroke="#1179EF" stroke-width="0.7"/>
<path d="M154.137 142.675H138.559V143.815H154.137V142.675Z" fill="#1179EF" stroke="#1179EF" stroke-width="0.7"/>
<path d="M158.544 138.951H138.559V140.091H158.544V138.951Z" fill="#1179EF" stroke="#1179EF" stroke-width="0.7"/>
<path d="M169.562 120.638H152.465V121.778H169.562V120.638Z" fill="#1179EF" stroke="#1179EF" stroke-width="0.7"/>
<path d="M165.839 125.046H152.465V126.185H165.839V125.046Z" fill="#1179EF" stroke="#1179EF" stroke-width="0.7"/>
<path d="M162.192 129.453H152.465V130.593H162.192V129.453Z" fill="#1179EF" stroke="#1179EF" stroke-width="0.7"/>
<path d="M147.678 146.322H146.538V147.462H147.678V146.322Z" fill="#1179EF" stroke="#1179EF" stroke-width="0.7"/>
<path d="M150.337 146.322H149.198V147.462H150.337V146.322Z" fill="#1179EF" stroke="#1179EF" stroke-width="0.7"/>
<path d="M139.699 146.322H138.559V147.462H139.699V146.322Z" fill="#1179EF" stroke="#1179EF" stroke-width="0.7"/>
<path d="M152.997 146.322H151.857V147.462H152.997V146.322Z" fill="#1179EF" stroke="#1179EF" stroke-width="0.7"/>
<path d="M145.018 146.322H143.878V147.462H145.018V146.322Z" fill="#1179EF" stroke="#1179EF" stroke-width="0.7"/>
<path d="M142.359 146.322H141.219V147.462H142.359V146.322Z" fill="#1179EF" stroke="#1179EF" stroke-width="0.7"/>
<path d="M29.5238 210.952C32.1143 210.952 34.4762 212.019 36.2286 213.695C37.981 215.448 39.0476 217.809 39.0476 220.476C39.0476 223.067 37.981 225.429 36.2286 227.181C34.4762 228.933 32.1143 230 29.5238 230C26.8571 230 24.4952 228.933 22.7429 227.181C21.0667 225.505 20 223.067 20 220.476C20 217.809 21.0667 215.448 22.7429 213.695C24.4952 212.019 26.8571 210.952 29.5238 210.952ZM38.1333 219.181H35.619C35.619 219.562 35.6952 220.019 35.6952 220.476C35.6952 220.857 35.619 221.314 35.619 221.771H38.1333C38.2095 221.314 38.2095 220.857 38.2095 220.476C38.2095 220.019 38.2095 219.562 38.1333 219.181ZM34.781 219.181H32.8C32.8762 219.562 32.8762 220.019 32.8762 220.476C32.8762 220.857 32.8762 221.314 32.8 221.771H34.781C34.8571 221.314 34.8571 220.933 34.8571 220.476C34.8571 220.019 34.8571 219.562 34.781 219.181ZM32.0381 219.181H26.9333C26.9333 219.562 26.9333 220.019 26.9333 220.476C26.9333 220.857 26.9333 221.314 26.9333 221.771H32.0381C32.0381 221.314 32.0381 220.857 32.0381 220.476C32.0381 220.019 32.0381 219.562 32.0381 219.181ZM26.1714 219.181H24.1905C24.1905 219.562 24.1143 220.019 24.1143 220.476C24.1143 220.933 24.1905 221.314 24.1905 221.771H26.1714C26.1714 221.314 26.1714 220.857 26.1714 220.476C26.1714 220.019 26.1714 219.562 26.1714 219.181ZM23.4286 219.181H20.8381C20.8381 219.562 20.7619 220.019 20.7619 220.476C20.7619 220.857 20.8381 221.314 20.8381 221.771H23.4286C23.3524 221.314 23.3524 220.857 23.3524 220.476C23.3524 220.019 23.3524 219.562 23.4286 219.181ZM20.9905 218.343H23.5048C23.7333 216.59 24.2667 215.067 25.1048 213.771C25.4095 213.238 25.7905 212.781 26.2476 212.324C25.181 212.781 24.1905 213.467 23.3524 214.305C22.2095 215.371 21.3714 216.819 20.9905 218.343ZM24.2667 218.343H26.2476C26.3238 216.667 26.6286 215.067 27.0095 213.848C27.2381 213.238 27.4667 212.629 27.7714 212.171C27.0095 212.629 26.3238 213.314 25.7905 214.229C25.0286 215.371 24.4952 216.743 24.2667 218.343ZM27.0095 218.343H31.9619C31.8857 216.743 31.581 215.295 31.2 214.152C30.7429 212.629 30.1333 211.714 29.5238 211.714C28.8381 211.714 28.2286 212.629 27.7714 214.152C27.3905 215.295 27.1619 216.743 27.0095 218.343ZM32.8 218.343H34.7048C34.4762 216.743 33.9429 215.371 33.2571 214.229C32.6476 213.314 31.9619 212.629 31.2 212.171C31.5048 212.629 31.7333 213.238 31.9619 213.848C32.3429 215.067 32.6476 216.667 32.8 218.343ZM35.5429 218.343H37.981C37.6 216.819 36.7619 215.371 35.6952 214.305C34.8571 213.467 33.8667 212.781 32.7238 212.324C33.181 212.781 33.5619 213.238 33.9429 213.771C34.7048 215.067 35.2381 216.59 35.5429 218.343ZM37.981 222.533H35.5429C35.2381 224.286 34.7048 225.886 33.9429 227.105C33.5619 227.638 33.181 228.171 32.7238 228.552C33.8667 228.095 34.8571 227.486 35.6952 226.648C36.7619 225.505 37.6 224.133 37.981 222.533ZM34.7048 222.533H32.8C32.6476 224.286 32.3429 225.809 31.9619 227.029C31.7333 227.714 31.5048 228.248 31.2 228.705C31.9619 228.324 32.6476 227.562 33.2571 226.724C33.9429 225.581 34.4762 224.133 34.7048 222.533ZM31.9619 222.533H27.0095C27.1619 224.209 27.3905 225.657 27.7714 226.8C28.2286 228.248 28.8381 229.162 29.5238 229.162C30.1333 229.162 30.7429 228.248 31.2 226.8C31.581 225.657 31.8857 224.209 31.9619 222.533ZM26.2476 222.533H24.2667C24.4952 224.133 25.0286 225.581 25.7905 226.724C26.3238 227.562 27.0095 228.324 27.7714 228.705C27.4667 228.248 27.2381 227.714 27.0095 227.029C26.6286 225.809 26.3238 224.286 26.2476 222.533ZM23.5048 222.533H20.9905C21.3714 224.133 22.2095 225.505 23.3524 226.648C24.1905 227.486 25.181 228.095 26.2476 228.552C25.7905 228.171 25.4095 227.638 25.1048 227.105C24.2667 225.886 23.7333 224.286 23.5048 222.533Z" fill="#1179EF"/>
<path d="M29.5238 190H68.1523C69.4476 190 70.5904 190.533 71.4285 191.371C72.2666 192.21 72.8 193.352 72.8 194.648V203.181V203.943V220.476C72.8 221.771 72.2666 222.914 71.4285 223.752C70.5904 224.59 69.4476 225.124 68.1523 225.124H39.2762C39.3523 224.971 39.4285 224.743 39.5047 224.59C39.6571 224.286 39.7333 223.905 39.8095 223.6H68.1523C68.9904 223.6 69.8285 223.219 70.3619 222.686C70.8952 222.152 71.2762 221.314 71.2762 220.476V199.905H26.4V210.114C26.0952 210.19 25.7143 210.343 25.3333 210.495C25.1809 210.495 25.0285 210.571 24.8762 210.648V203.943V203.181V194.648C24.8762 193.352 25.4095 192.21 26.2476 191.371C27.0857 190.533 28.3047 190 29.5238 190ZM71.2762 198.381V194.648C71.2762 193.733 70.8952 192.971 70.3619 192.438C69.8285 191.905 68.9904 191.524 68.1523 191.524H29.5238C28.6857 191.524 27.9238 191.905 27.3143 192.438C26.7809 192.971 26.4 193.733 26.4 194.648V198.381H71.2762Z" fill="#1179EF"/>
<circle cx="29.9048" cy="195.029" r="1.29524" fill="#1179EF"/>
<circle cx="33.4095" cy="195.029" r="1.29524" fill="#1179EF"/>
<circle cx="36.9142" cy="195.029" r="1.29524" fill="#1179EF"/>
<rect x="34.2477" y="203.943" width="31.3905" height="1.52381" rx="0.761905" fill="#1179EF"/>
<rect x="34.2477" y="208.362" width="31.3905" height="1.52381" rx="0.761905" fill="#1179EF"/>
<rect x="47.3524" y="212.781" width="18.2857" height="1.52381" rx="0.761905" fill="#1179EF"/>
<rect x="47.3524" y="217.2" width="18.2857" height="1.52381" rx="0.761905" fill="#1179EF"/>
<path d="M164.249 206.772L165.323 207.847L165.968 207.203L164.895 206.127L164.249 206.772Z" fill="#1179EF" stroke="#1179EF" stroke-width="0.7"/>
<path d="M172.906 201.064L171.021 199.179L169.441 200.76C168.894 200.76 168.347 200.942 167.921 201.307L167.435 201.793L166.219 200.578L165.185 201.611V192.918V190H159.653H157.1H154.547H151.994H149.441H146.888H144.334H141.781H139.289H134V192.918V225.502C134 227.994 136.006 230 138.498 230C138.498 230 138.498 230 138.559 230H139.046H164.76H166.523C168.772 230 170.413 228.237 170.413 225.866C170.413 225.502 170.353 224.407 170.353 224.407V223.982H165.185V209.696L170.717 204.164C171.143 203.739 171.325 203.191 171.264 202.644L172.906 201.064ZM171.021 200.456L171.629 201.064L171.021 201.672C170.96 201.55 170.839 201.429 170.778 201.368C170.657 201.246 170.535 201.185 170.474 201.125L171.021 200.456ZM169.502 225.866C169.502 227.751 168.225 229.088 166.523 229.088H141.173C142.267 228.237 142.997 226.96 142.997 225.502C142.997 225.319 142.997 225.137 142.936 224.894H169.502C169.502 225.198 169.502 225.623 169.502 225.866ZM164.274 223.982H142.571L141.903 224.103L142.024 224.59C142.085 224.833 142.146 225.258 142.146 225.502C142.146 227.508 140.505 229.088 138.559 229.088C136.492 229.088 134.912 227.447 134.912 225.502V193.283V191.277H139.532H142.024H144.578H147.131H149.684H152.237H154.79H157.343H159.897H164.274V193.283V202.523L160.626 206.17L161.295 206.839L166.219 201.915L166.766 202.462L155.337 213.891C154.365 214.863 153.635 215.957 153.088 217.234C152.967 217.538 152.967 217.964 153.149 218.267L152.055 219.362L152.723 220.03L153.818 218.936C154 218.997 154.182 219.058 154.365 219.058C154.547 219.058 154.669 218.997 154.851 218.936C156.128 218.389 157.222 217.66 158.195 216.687L164.334 210.608V223.982H164.274ZM170.109 203.495L157.526 216.079C156.675 216.93 155.641 217.66 154.486 218.085C154.365 218.146 154.182 218.085 154.061 217.964C153.939 217.842 153.939 217.66 153.939 217.538C154.426 216.383 155.094 215.35 156.006 214.498L168.59 201.915C168.772 201.733 169.076 201.611 169.38 201.611C169.684 201.611 169.927 201.733 170.17 201.915C170.535 202.401 170.535 203.07 170.109 203.495Z" fill="#1179EF" stroke="#1179EF" stroke-width="0.7"/>
<path d="M146.827 196.93H137.647V209.392H146.827V196.93ZM145.915 208.48H138.559V197.842H145.915V208.48Z" fill="#1179EF" stroke="#1179EF" stroke-width="0.7"/>
<path d="M150.109 216.14H137.647V217.052H150.109V216.14Z" fill="#1179EF" stroke="#1179EF" stroke-width="0.7"/>
<path d="M153.635 213.161H137.647V214.073H153.635V213.161Z" fill="#1179EF" stroke="#1179EF" stroke-width="0.7"/>
<path d="M162.45 198.511H148.772V199.423H162.45V198.511Z" fill="#1179EF" stroke="#1179EF" stroke-width="0.7"/>
<path d="M159.471 202.037H148.772V202.948H159.471V202.037Z" fill="#1179EF" stroke="#1179EF" stroke-width="0.7"/>
<path d="M156.553 205.562H148.772V206.474H156.553V205.562Z" fill="#1179EF" stroke="#1179EF" stroke-width="0.7"/>
<path d="M144.942 219.058H144.03V219.97H144.942V219.058Z" fill="#1179EF" stroke="#1179EF" stroke-width="0.7"/>
<path d="M147.07 219.058H146.158V219.97H147.07V219.058Z" fill="#1179EF" stroke="#1179EF" stroke-width="0.7"/>
<path d="M138.559 219.058H137.647V219.97H138.559V219.058Z" fill="#1179EF" stroke="#1179EF" stroke-width="0.7"/>
<path d="M149.198 219.058H148.286V219.97H149.198V219.058Z" fill="#1179EF" stroke="#1179EF" stroke-width="0.7"/>
<path d="M142.815 219.058H141.903V219.97H142.815V219.058Z" fill="#1179EF" stroke="#1179EF" stroke-width="0.7"/>
<path d="M140.687 219.058H139.775V219.97H140.687V219.058Z" fill="#1179EF" stroke="#1179EF" stroke-width="0.7"/>
<path d="M288.108 41.891L288.118 41.8769L281.457 36.8236V27.5513C281.457 27.2838 281.351 27.0273 281.162 26.8381C280.973 26.6489 280.716 26.5427 280.449 26.5427H267.907L260.092 20.617C259.565 20.2167 258.922 20 258.26 20C257.599 20 256.956 20.2167 256.429 20.617L248.61 26.5427H236.069C235.802 26.5427 235.545 26.6489 235.356 26.8381C235.167 27.0273 235.06 27.2838 235.06 27.5513V36.8236L228.403 41.8738L228.414 41.888C228.287 41.9782 228.184 42.0971 228.112 42.2349C228.04 42.3726 228.002 42.5254 228 42.6807V78.9914C228 79.2589 228.106 79.5154 228.295 79.7046C228.485 79.8937 228.741 80 229.009 80H287.509C287.777 80 288.033 79.8937 288.222 79.7046C288.411 79.5154 288.518 79.2589 288.518 78.9914V42.6807C288.516 42.5262 288.478 42.3743 288.407 42.2371C288.336 42.1 288.234 41.9814 288.108 41.891V41.891ZM281.457 39.3523L285.885 42.711L281.457 46.3774V39.3523ZM257.654 22.2197C257.828 22.0843 258.043 22.0109 258.263 22.0109C258.484 22.0109 258.699 22.0843 258.873 22.2197L264.569 26.5427H251.949L257.654 22.2197ZM237.078 28.5599H279.44V48.0466L265.571 59.5248L260.197 55.0788C259.655 54.6234 258.97 54.3738 258.261 54.3738C257.553 54.3738 256.868 54.6234 256.325 55.0788L250.946 59.5248L237.078 48.0466V28.5599ZM230.633 42.715L235.06 39.3523V46.3733L230.633 42.715ZM230.017 44.8241L249.364 60.8361L230.017 76.847V44.8241ZM231.81 77.9827L257.616 56.626C257.797 56.4746 258.026 56.392 258.262 56.3929C258.498 56.3938 258.727 56.4782 258.906 56.6311L284.708 77.9827H231.81ZM286.5 76.847L267.154 60.8361L286.5 44.8241V76.847Z" fill="#1179EF"/>
<path d="M258.259 50.7498H263.302C263.57 50.7498 263.826 50.6435 264.015 50.4543C264.204 50.2652 264.311 50.0086 264.311 49.7411C264.311 49.4736 264.204 49.2171 264.015 49.0279C263.826 48.8388 263.57 48.7325 263.302 48.7325H258.259C256.386 48.7325 254.59 47.9886 253.266 46.6646C251.942 45.3405 251.198 43.5446 251.198 41.6721C251.198 39.7996 251.942 38.0037 253.266 36.6797C254.59 35.3556 256.386 34.6117 258.259 34.6117H260.276C261.613 34.6133 262.895 35.1452 263.84 36.0906C264.786 37.036 265.318 38.3178 265.319 39.6549V43.6894C265.319 43.9569 265.213 44.2134 265.024 44.4026C264.835 44.5917 264.578 44.698 264.311 44.698C264.043 44.698 263.787 44.5917 263.597 44.4026C263.408 44.2134 263.302 43.9569 263.302 43.6894V39.6549C263.302 38.8523 262.983 38.0827 262.416 37.5152C261.848 36.9478 261.079 36.629 260.276 36.629H258.259C257.432 36.6266 256.618 36.8275 255.887 37.214C255.156 37.6004 254.532 38.1606 254.068 38.8451C253.605 39.5297 253.317 40.3176 253.23 41.1397C253.142 41.9617 253.258 42.7925 253.568 43.5591C253.877 44.3257 254.37 45.0045 255.003 45.5358C255.637 46.0671 256.391 46.4345 257.2 46.6058C258.008 46.7771 258.847 46.7469 259.641 46.518C260.435 46.2891 261.161 45.8685 261.755 45.2931C262.102 45.8499 262.622 46.2783 263.234 46.5136C263.847 46.7488 264.52 46.778 265.151 46.5968C265.781 46.4155 266.336 46.0337 266.73 45.5091C267.125 44.9845 267.338 44.3457 267.337 43.6894V39.6549C267.334 37.783 266.59 35.9884 265.266 34.6648C263.943 33.3411 262.148 32.5966 260.276 32.5945H258.259C255.851 32.5945 253.542 33.5508 251.84 35.2532C250.138 36.9556 249.181 39.2646 249.181 41.6721C249.181 44.0797 250.138 46.3886 251.84 48.091C253.542 49.7934 255.851 50.7498 258.259 50.7498V50.7498ZM258.259 44.698C257.456 44.698 256.687 44.3792 256.119 43.8117C255.552 43.2443 255.233 42.4746 255.233 41.6721C255.233 40.8696 255.552 40.0999 256.119 39.5325C256.687 38.965 257.456 38.6462 258.259 38.6462H260.276C260.544 38.6462 260.8 38.7525 260.989 38.9416C261.178 39.1308 261.285 39.3873 261.285 39.6549V41.6721C261.285 42.4746 260.966 43.2443 260.398 43.8117C259.831 44.3792 259.061 44.698 258.259 44.698Z" fill="#1179EF"/>
<path d="M278.09 128.242L278.099 128.231L272.548 124.02V116.293C272.548 116.07 272.459 115.856 272.302 115.698C272.144 115.541 271.93 115.452 271.707 115.452H261.256L254.743 110.514C254.304 110.181 253.768 110 253.217 110C252.666 110 252.13 110.181 251.691 110.514L245.175 115.452H234.724C234.501 115.452 234.287 115.541 234.13 115.698C233.972 115.856 233.884 116.07 233.884 116.293V124.02L228.336 128.228L228.345 128.24C228.239 128.315 228.153 128.414 228.093 128.529C228.033 128.644 228.001 128.771 228 128.901V159.159C228 159.382 228.089 159.596 228.246 159.754C228.404 159.911 228.618 160 228.841 160H277.591C277.814 160 278.028 159.911 278.185 159.754C278.343 159.596 278.431 159.382 278.431 159.159V128.901C278.43 128.772 278.398 128.645 278.339 128.531C278.28 128.417 278.195 128.318 278.09 128.242V128.242ZM272.548 126.127L276.238 128.926L272.548 131.981V126.127ZM252.711 111.85C252.857 111.737 253.036 111.676 253.22 111.676C253.403 111.676 253.582 111.737 253.728 111.85L258.474 115.452H247.957L252.711 111.85ZM235.565 117.133H270.867V133.372L259.31 142.937L254.831 139.232C254.379 138.853 253.808 138.645 253.218 138.645C252.628 138.645 252.056 138.853 251.604 139.232L247.122 142.937L235.565 133.372V117.133ZM230.194 128.929L233.884 126.127V131.978L230.194 128.929ZM229.681 130.687L245.803 144.03L229.681 157.373V130.687ZM231.175 158.319L252.68 140.522C252.831 140.395 253.022 140.327 253.219 140.327C253.415 140.328 253.605 140.398 253.755 140.526L275.257 158.319H231.175ZM276.75 157.373L260.628 144.03L276.75 130.687V157.373Z" fill="#1179EF"/>
<path d="M253.216 135.625H257.418C257.641 135.625 257.855 135.536 258.013 135.379C258.17 135.221 258.259 135.007 258.259 134.784C258.259 134.561 258.17 134.348 258.013 134.19C257.855 134.032 257.641 133.944 257.418 133.944H253.216C251.655 133.944 250.159 133.324 249.055 132.22C247.952 131.117 247.332 129.621 247.332 128.06C247.332 126.5 247.952 125.003 249.055 123.9C250.159 122.796 251.655 122.176 253.216 122.176H254.897C256.011 122.178 257.079 122.621 257.867 123.409C258.655 124.197 259.098 125.265 259.099 126.379V129.741C259.099 129.964 259.011 130.178 258.853 130.335C258.696 130.493 258.482 130.582 258.259 130.582C258.036 130.582 257.822 130.493 257.665 130.335C257.507 130.178 257.418 129.964 257.418 129.741V126.379C257.418 125.71 257.153 125.069 256.68 124.596C256.207 124.123 255.566 123.857 254.897 123.857H253.216C252.527 123.856 251.848 124.023 251.239 124.345C250.63 124.667 250.11 125.134 249.724 125.704C249.337 126.275 249.097 126.931 249.025 127.616C248.952 128.301 249.049 128.994 249.306 129.633C249.564 130.271 249.975 130.837 250.503 131.28C251.031 131.723 251.659 132.029 252.333 132.171C253.007 132.314 253.706 132.289 254.368 132.098C255.029 131.908 255.634 131.557 256.129 131.078C256.419 131.542 256.851 131.899 257.362 132.095C257.873 132.291 258.433 132.315 258.959 132.164C259.485 132.013 259.947 131.695 260.275 131.258C260.604 130.82 260.781 130.288 260.78 129.741V126.379C260.779 124.819 260.158 123.324 259.055 122.221C257.952 121.118 256.457 120.497 254.897 120.495H253.216C251.209 120.495 249.285 121.292 247.867 122.711C246.448 124.13 245.651 126.054 245.651 128.06C245.651 130.066 246.448 131.99 247.867 133.409C249.285 134.828 251.209 135.625 253.216 135.625V135.625ZM253.216 130.582C252.547 130.582 251.906 130.316 251.433 129.843C250.96 129.37 250.694 128.729 250.694 128.06C250.694 127.391 250.96 126.75 251.433 126.277C251.906 125.804 252.547 125.539 253.216 125.539H254.897C255.12 125.539 255.333 125.627 255.491 125.785C255.649 125.942 255.737 126.156 255.737 126.379V128.06C255.737 128.729 255.472 129.37 254.999 129.843C254.526 130.316 253.884 130.582 253.216 130.582Z" fill="#1179EF"/>
<path d="M268.072 204.594L268.079 204.585L263.638 201.216V195.034C263.638 194.856 263.567 194.685 263.441 194.559C263.315 194.433 263.144 194.362 262.966 194.362H254.605L249.394 190.411C249.043 190.144 248.615 190 248.174 190C247.733 190 247.304 190.144 246.953 190.411L241.74 194.362H233.379C233.201 194.362 233.03 194.433 232.904 194.559C232.778 194.685 232.707 194.856 232.707 195.034V201.216L228.269 204.583L228.276 204.592C228.191 204.652 228.122 204.731 228.075 204.823C228.027 204.915 228.001 205.017 228 205.12V229.328C228 229.506 228.071 229.677 228.197 229.803C228.323 229.929 228.494 230 228.672 230H267.673C267.851 230 268.022 229.929 268.148 229.803C268.274 229.677 268.345 229.506 268.345 229.328V205.12C268.344 205.017 268.319 204.916 268.271 204.825C268.224 204.733 268.156 204.654 268.072 204.594V204.594ZM263.638 202.902L266.59 205.141L263.638 207.585V202.902ZM247.769 191.48C247.885 191.39 248.028 191.341 248.176 191.341C248.323 191.341 248.466 191.39 248.582 191.48L252.379 194.362H243.966L247.769 191.48ZM234.052 195.707H262.293V208.698L253.048 216.35L249.465 213.386C249.103 213.082 248.646 212.916 248.174 212.916C247.702 212.916 247.245 213.082 246.884 213.386L243.298 216.35L234.052 208.698V195.707ZM229.755 205.143L232.707 202.902V207.582L229.755 205.143ZM229.345 206.549L242.243 217.224L229.345 227.898V206.549ZM230.54 228.655L247.744 214.417C247.865 214.316 248.017 214.261 248.175 214.262C248.332 214.263 248.484 214.319 248.604 214.421L265.805 228.655H230.54ZM267 227.898L254.103 217.224L267 206.549V227.898Z" fill="#1179EF"/>
<path d="M248.173 210.5H251.535C251.713 210.5 251.884 210.429 252.01 210.303C252.136 210.177 252.207 210.006 252.207 209.827C252.207 209.649 252.136 209.478 252.01 209.352C251.884 209.226 251.713 209.155 251.535 209.155H248.173C246.924 209.155 245.727 208.659 244.844 207.776C243.962 206.894 243.466 205.696 243.466 204.448C243.466 203.2 243.962 202.002 244.844 201.12C245.727 200.237 246.924 199.741 248.173 199.741H249.517C250.409 199.742 251.263 200.097 251.894 200.727C252.524 201.357 252.878 202.212 252.879 203.103V205.793C252.879 205.971 252.809 206.142 252.683 206.268C252.556 206.394 252.385 206.465 252.207 206.465C252.029 206.465 251.858 206.394 251.732 206.268C251.606 206.142 251.535 205.971 251.535 205.793V203.103C251.535 202.568 251.322 202.055 250.944 201.677C250.566 201.298 250.052 201.086 249.517 201.086H248.173C247.621 201.084 247.078 201.218 246.591 201.476C246.104 201.734 245.688 202.107 245.379 202.563C245.07 203.02 244.878 203.545 244.82 204.093C244.762 204.641 244.839 205.195 245.045 205.706C245.251 206.217 245.58 206.67 246.002 207.024C246.424 207.378 246.927 207.623 247.466 207.737C248.006 207.851 248.564 207.831 249.094 207.679C249.624 207.526 250.107 207.246 250.503 206.862C250.735 207.233 251.081 207.519 251.49 207.676C251.898 207.833 252.347 207.852 252.767 207.731C253.188 207.61 253.557 207.356 253.82 207.006C254.083 206.656 254.225 206.23 254.224 205.793V203.103C254.223 201.855 253.727 200.659 252.844 199.776C251.962 198.894 250.765 198.398 249.517 198.396H248.173C246.568 198.396 245.028 199.034 243.893 200.169C242.758 201.304 242.121 202.843 242.121 204.448C242.121 206.053 242.758 207.592 243.893 208.727C245.028 209.862 246.568 210.5 248.173 210.5V210.5ZM248.173 206.465C247.638 206.465 247.124 206.253 246.746 205.874C246.368 205.496 246.155 204.983 246.155 204.448C246.155 203.913 246.368 203.4 246.746 203.022C247.124 202.643 247.638 202.431 248.173 202.431H249.517C249.696 202.431 249.867 202.502 249.993 202.628C250.119 202.754 250.19 202.925 250.19 203.103V204.448C250.19 204.983 249.977 205.496 249.599 205.874C249.221 206.253 248.708 206.465 248.173 206.465Z" fill="#1179EF"/>
<path d="M179.374 45.1574L180.985 46.7705L181.953 45.804L180.342 44.191L179.374 45.1574Z" fill="#1179EF" stroke="#1179EF" stroke-width="0.7"/>
<path d="M192.359 36.5957L189.532 33.769L187.161 36.1398C186.34 36.1398 185.52 36.4134 184.881 36.9605L184.152 37.69L182.328 35.8663L180.778 37.4164V24.3769V20H172.48H168.65H164.821H160.991H157.161H153.331H149.502H145.672H141.933H134V24.3769V73.2523C134 76.9909 137.009 80 140.748 80C140.748 80 140.748 80 140.839 80H141.568H180.14H182.784C186.158 80 188.62 77.3556 188.62 73.7994C188.62 73.2523 188.529 71.6109 188.529 71.6109V70.9726H180.778V49.5441L189.076 41.2462C189.714 40.6079 189.988 39.7872 189.897 38.9666L192.359 36.5957ZM189.532 35.6839L190.444 36.5957L189.532 37.5076C189.441 37.3252 189.258 37.1429 189.167 37.0517C188.985 36.8693 188.802 36.7781 188.711 36.6869L189.532 35.6839ZM187.252 73.7994C187.252 76.6261 185.337 78.6322 182.784 78.6322H144.76C146.401 77.3556 147.495 75.4407 147.495 73.2523C147.495 72.9787 147.495 72.7052 147.404 72.3404H187.252C187.252 72.7964 187.252 73.4346 187.252 73.7994ZM179.41 70.9726H146.857L145.854 71.155L146.036 71.8845C146.128 72.2492 146.219 72.8875 146.219 73.2523C146.219 76.2614 143.757 78.6322 140.839 78.6322C137.739 78.6322 135.368 76.1702 135.368 73.2523V24.924V21.9149H142.298H146.036H149.866H153.696H157.526H161.356H165.185H169.015H172.845H179.41V24.924V38.7842L173.939 44.2553L174.942 45.2584L182.328 37.8723L183.149 38.693L166.006 55.8359C164.547 57.2948 163.453 58.9362 162.632 60.8511C162.45 61.307 162.45 61.9453 162.723 62.4012L161.082 64.0426L162.085 65.0456L163.726 63.4043C164 63.4954 164.274 63.5866 164.547 63.5866C164.821 63.5866 165.003 63.4954 165.277 63.4043C167.191 62.5836 168.833 61.4894 170.292 60.0304L179.502 50.9119V70.9726H179.41ZM188.164 40.2432L169.289 59.1185C168.012 60.3951 166.462 61.4894 164.729 62.1277C164.547 62.2188 164.274 62.1277 164.091 61.9453C163.909 61.7629 163.909 61.4894 163.909 61.307C164.638 59.5745 165.641 58.0243 167.009 56.7477L185.884 37.8723C186.158 37.5988 186.614 37.4164 187.07 37.4164C187.526 37.4164 187.891 37.5988 188.255 37.8723C188.802 38.6018 188.802 39.6049 188.164 40.2432Z" fill="#1179EF" stroke="#1179EF" stroke-width="0.7"/>
<path d="M153.24 30.3951H139.471V49.0882H153.24V30.3951ZM151.872 47.7204H140.839V31.7629H151.872V47.7204Z" fill="#1179EF" stroke="#1179EF" stroke-width="0.7"/>
<path d="M158.164 59.2097H139.471V60.5775H158.164V59.2097Z" fill="#1179EF" stroke="#1179EF" stroke-width="0.7"/>
<path d="M163.453 54.7416H139.471V56.1094H163.453V54.7416Z" fill="#1179EF" stroke="#1179EF" stroke-width="0.7"/>
<path d="M176.675 32.766H156.158V34.1338H176.675V32.766Z" fill="#1179EF" stroke="#1179EF" stroke-width="0.7"/>
<path d="M172.207 38.0548H156.158V39.4226H172.207V38.0548Z" fill="#1179EF" stroke="#1179EF" stroke-width="0.7"/>
<path d="M167.83 43.3434H156.158V44.7112H167.83V43.3434Z" fill="#1179EF" stroke="#1179EF" stroke-width="0.7"/>
<path d="M150.413 63.5867H149.046V64.9545H150.413V63.5867Z" fill="#1179EF" stroke="#1179EF" stroke-width="0.7"/>
<path d="M153.605 63.5867H152.237V64.9545H153.605V63.5867Z" fill="#1179EF" stroke="#1179EF" stroke-width="0.7"/>
<path d="M140.839 63.5867H139.471V64.9545H140.839V63.5867Z" fill="#1179EF" stroke="#1179EF" stroke-width="0.7"/>
<path d="M156.796 63.5867H155.429V64.9545H156.796V63.5867Z" fill="#1179EF" stroke="#1179EF" stroke-width="0.7"/>
<path d="M147.222 63.5867H145.854V64.9545H147.222V63.5867Z" fill="#1179EF" stroke="#1179EF" stroke-width="0.7"/>
<path d="M144.03 63.5867H142.663V64.9545H144.03V63.5867Z" fill="#1179EF" stroke="#1179EF" stroke-width="0.7"/>
<path d="M34.2857 51.4285C38.1714 51.4285 41.7143 53.0285 44.3429 55.5428C46.9714 58.1714 48.5714 61.7142 48.5714 65.7142C48.5714 69.6 46.9714 73.1428 44.3429 75.7714C41.7143 78.4 38.1714 80 34.2857 80C30.2857 80 26.7429 78.4 24.1143 75.7714C21.6 73.2571 20 69.6 20 65.7142C20 61.7142 21.6 58.1714 24.1143 55.5428C26.7429 53.0285 30.2857 51.4285 34.2857 51.4285ZM47.2 63.7714H43.4286C43.4286 64.3428 43.5429 65.0285 43.5429 65.7142C43.5429 66.2857 43.4286 66.9714 43.4286 67.6571H47.2C47.3143 66.9714 47.3143 66.2857 47.3143 65.7142C47.3143 65.0285 47.3143 64.3428 47.2 63.7714ZM42.1714 63.7714H39.2C39.3143 64.3428 39.3143 65.0285 39.3143 65.7142C39.3143 66.2857 39.3143 66.9714 39.2 67.6571H42.1714C42.2857 66.9714 42.2857 66.4 42.2857 65.7142C42.2857 65.0285 42.2857 64.3428 42.1714 63.7714ZM38.0571 63.7714H30.4C30.4 64.3428 30.4 65.0285 30.4 65.7142C30.4 66.2857 30.4 66.9714 30.4 67.6571H38.0571C38.0571 66.9714 38.0571 66.2857 38.0571 65.7142C38.0571 65.0285 38.0571 64.3428 38.0571 63.7714ZM29.2571 63.7714H26.2857C26.2857 64.3428 26.1714 65.0285 26.1714 65.7142C26.1714 66.4 26.2857 66.9714 26.2857 67.6571H29.2571C29.2571 66.9714 29.2571 66.2857 29.2571 65.7142C29.2571 65.0285 29.2571 64.3428 29.2571 63.7714ZM25.1429 63.7714H21.2571C21.2571 64.3428 21.1429 65.0285 21.1429 65.7142C21.1429 66.2857 21.2571 66.9714 21.2571 67.6571H25.1429C25.0286 66.9714 25.0286 66.2857 25.0286 65.7142C25.0286 65.0285 25.0286 64.3428 25.1429 63.7714ZM21.4857 62.5142H25.2571C25.6 59.8857 26.4 57.6 27.6571 55.6571C28.1143 54.8571 28.6857 54.1714 29.3714 53.4857C27.7714 54.1714 26.2857 55.2 25.0286 56.4571C23.3143 58.0571 22.0571 60.2285 21.4857 62.5142ZM26.4 62.5142H29.3714C29.4857 60 29.9429 57.6 30.5143 55.7714C30.8571 54.8571 31.2 53.9428 31.6571 53.2571C30.5143 53.9428 29.4857 54.9714 28.6857 56.3428C27.5429 58.0571 26.7429 60.1142 26.4 62.5142ZM30.5143 62.5142H37.9429C37.8286 60.1142 37.3714 57.9428 36.8 56.2285C36.1143 53.9428 35.2 52.5714 34.2857 52.5714C33.2571 52.5714 32.3429 53.9428 31.6571 56.2285C31.0857 57.9428 30.7429 60.1142 30.5143 62.5142ZM39.2 62.5142H42.0571C41.7143 60.1142 40.9143 58.0571 39.8857 56.3428C38.9714 54.9714 37.9429 53.9428 36.8 53.2571C37.2571 53.9428 37.6 54.8571 37.9429 55.7714C38.5143 57.6 38.9714 60 39.2 62.5142ZM43.3143 62.5142H46.9714C46.4 60.2285 45.1429 58.0571 43.5429 56.4571C42.2857 55.2 40.8 54.1714 39.0857 53.4857C39.7714 54.1714 40.3429 54.8571 40.9143 55.6571C42.0571 57.6 42.8571 59.8857 43.3143 62.5142ZM46.9714 68.8H43.3143C42.8571 71.4285 42.0571 73.8285 40.9143 75.6571C40.3429 76.4571 39.7714 77.2571 39.0857 77.8285C40.8 77.1428 42.2857 76.2285 43.5429 74.9714C45.1429 73.2571 46.4 71.2 46.9714 68.8ZM42.0571 68.8H39.2C38.9714 71.4285 38.5143 73.7142 37.9429 75.5428C37.6 76.5714 37.2571 77.3714 36.8 78.0571C37.9429 77.4857 38.9714 76.3428 39.8857 75.0857C40.9143 73.3714 41.7143 71.2 42.0571 68.8ZM37.9429 68.8H30.5143C30.7429 71.3142 31.0857 73.4857 31.6571 75.2C32.3429 77.3714 33.2571 78.7428 34.2857 78.7428C35.2 78.7428 36.1143 77.3714 36.8 75.2C37.3714 73.4857 37.8286 71.3142 37.9429 68.8ZM29.3714 68.8H26.4C26.7429 71.2 27.5429 73.3714 28.6857 75.0857C29.4857 76.3428 30.5143 77.4857 31.6571 78.0571C31.2 77.3714 30.8571 76.5714 30.5143 75.5428C29.9429 73.7142 29.4857 71.4285 29.3714 68.8ZM25.2571 68.8H21.4857C22.0571 71.2 23.3143 73.2571 25.0286 74.9714C26.2857 76.2285 27.7714 77.1428 29.3714 77.8285C28.6857 77.2571 28.1143 76.4571 27.6571 75.6571C26.4 73.8285 25.6 71.4285 25.2571 68.8Z" fill="#1179EF"/>
<path d="M34.2857 20H92.2286C94.1714 20 95.8857 20.8 97.1428 22.0571C98.4 23.3143 99.2 25.0286 99.2 26.9714V39.7714V40.9143V65.7143C99.2 67.6571 98.4 69.3714 97.1428 70.6286C95.8857 71.8857 94.1714 72.6857 92.2286 72.6857H48.9143C49.0286 72.4571 49.1428 72.1143 49.2571 71.8857C49.4857 71.4286 49.6 70.8571 49.7143 70.4H92.2286C93.4857 70.4 94.7428 69.8286 95.5428 69.0286C96.3428 68.2286 96.9143 66.9714 96.9143 65.7143V34.8571H29.6V50.1714C29.1428 50.2857 28.5714 50.5143 28 50.7429C27.7714 50.7429 27.5428 50.8571 27.3143 50.9714V40.9143V39.7714V26.9714C27.3143 25.0286 28.1143 23.3143 29.3714 22.0571C30.6286 20.8 32.4571 20 34.2857 20ZM96.9143 32.5714V26.9714C96.9143 25.6 96.3428 24.4571 95.5428 23.6571C94.7428 22.8571 93.4857 22.2857 92.2286 22.2857H34.2857C33.0286 22.2857 31.8857 22.8571 30.9714 23.6571C30.1714 24.4571 29.6 25.6 29.6 26.9714V32.5714H96.9143Z" fill="#1179EF"/>
<circle cx="34.8572" cy="27.5428" r="1.94286" fill="#1179EF"/>
<circle cx="40.1142" cy="27.5428" r="1.94286" fill="#1179EF"/>
<circle cx="45.3714" cy="27.5428" r="1.94286" fill="#1179EF"/>
<rect x="41.3715" y="40.9143" width="47.0857" height="2.28571" rx="1.14286" fill="#1179EF"/>
<rect x="41.3715" y="47.5429" width="47.0857" height="2.28571" rx="1.14286" fill="#1179EF"/>
<rect x="61.0285" y="54.1714" width="27.4286" height="2.28571" rx="1.14286" fill="#1179EF"/>
<rect x="61.0285" y="60.8" width="27.4286" height="2.28571" rx="1.14286" fill="#1179EF"/>
</svg>
