<svg width="33" height="33" viewBox="0 0 33 33" fill="none" xmlns="http://www.w3.org/2000/svg">
<g id="carbon:time">
<path id="Vector" d="M16.667 30.5C13.8981 30.5 11.1913 29.6789 8.88901 28.1406C6.58673 26.6022 4.79231 24.4157 3.73268 21.8576C2.67306 19.2994 2.39581 16.4845 2.936 13.7687C3.4762 11.053 4.80957 8.55845 6.7675 6.60051C8.72544 4.64258 11.22 3.30921 13.9357 2.76901C16.6515 2.22882 19.4664 2.50607 22.0246 3.56569C24.5827 4.62532 26.7692 6.41973 28.3076 8.72202C29.8459 11.0243 30.667 13.7311 30.667 16.5C30.667 20.213 29.192 23.774 26.5665 26.3995C23.941 29.025 20.38 30.5 16.667 30.5ZM16.667 4.50001C14.2936 4.50001 11.9735 5.20379 10.0002 6.52237C8.02677 7.84095 6.4887 9.71509 5.58044 11.9078C4.67219 14.1005 4.43455 16.5133 4.89758 18.8411C5.3606 21.1689 6.50349 23.3071 8.18172 24.9853C9.85995 26.6635 11.9981 27.8064 14.3259 28.2694C16.6537 28.7325 19.0665 28.4948 21.2592 27.5866C23.4519 26.6783 25.3261 25.1402 26.6446 23.1668C27.9632 21.1935 28.667 18.8734 28.667 16.5C28.667 13.3174 27.4027 10.2652 25.1523 8.01472C22.9018 5.76429 19.8496 4.50001 16.667 4.50001Z" fill="#4F4F4F"/>
<path id="Vector_2" d="M21.257 22.5L15.667 16.91V7.5H17.667V16.08L22.667 21.09L21.257 22.5Z" fill="#4F4F4F"/>
</g>
</svg>
