<svg width="33" height="33" viewBox="0 0 33 33" fill="none" xmlns="http://www.w3.org/2000/svg">
<g id="carbon:calendar">
<path id="Vector" d="M26.333 4.5H22.333V2.5H20.333V4.5H12.333V2.5H10.333V4.5H6.33301C5.23301 4.5 4.33301 5.4 4.33301 6.5V26.5C4.33301 27.6 5.23301 28.5 6.33301 28.5H26.333C27.433 28.5 28.333 27.6 28.333 26.5V6.5C28.333 5.4 27.433 4.5 26.333 4.5ZM26.333 26.5H6.33301V12.5H26.333V26.5ZM26.333 10.5H6.33301V6.5H10.333V8.5H12.333V6.5H20.333V8.5H22.333V6.5H26.333V10.5Z" fill="#4F4F4F"/>
</g>
</svg>
