<svg width="126" height="33" viewBox="0 0 126 33" fill="none" xmlns="http://www.w3.org/2000/svg">
<g clip-path="url(#clip0_30_3)">
<path d="M16.4505 1.10195C20.8535 1.14221 24.669 2.66109 27.769 5.79219C31.0419 9.09714 32.5836 13.1405 32.3467 17.7749C32.1088 22.4322 30.1022 26.2606 26.531 29.2718C26.2226 29.5316 26.1439 29.4072 25.9893 29.1419C24.2225 26.1087 22.4657 23.0691 20.6604 20.0578C20.0602 19.0568 19.298 18.1711 18.2604 17.5581C16.8595 16.7291 15.5886 16.9853 14.4183 17.8655C13.3935 18.6359 12.6753 19.6653 12.0302 20.755C10.8526 22.7433 9.66768 24.727 8.48185 26.7107C7.98501 27.5425 7.47627 28.366 6.98218 29.1986C6.85408 29.4145 6.76898 29.5051 6.52194 29.302C3.96911 27.2039 2.20684 24.5806 1.26989 21.4129C0.666906 19.3688 0.493057 17.2763 0.7337 15.1571C0.988983 12.9063 1.68621 10.7926 2.86014 8.85559C4.93809 5.42803 7.88436 3.07558 11.7109 1.84218C12.387 1.62441 13.0733 1.43866 13.7732 1.32521C14.6571 1.18155 15.5483 1.08182 16.4505 1.10195Z" fill="#2E2E2C"/>
<path d="M68.7551 32.7799C67.2509 32.7799 65.8198 32.7762 64.3878 32.7835C64.1856 32.7845 64.1518 32.6719 64.0923 32.5191C63.2569 30.3671 62.4142 28.2187 61.5706 26.0703C61.1195 24.921 60.6647 23.7736 60.1697 22.5192C59.7882 23.4708 59.4414 24.3226 59.1047 25.1781C58.154 27.5919 57.2033 30.0065 56.2664 32.4258C56.1493 32.7277 55.9919 32.8165 55.668 32.8128C53.5205 32.7872 51.373 32.7881 49.2255 32.7799C48.854 32.779 48.4752 32.7378 48.1111 32.79C47.5721 32.8677 47.2995 32.6124 47.0469 32.1806C45.4576 29.463 43.849 26.7565 42.2451 24.0472C42.2249 24.0134 42.1819 23.9923 42.0794 23.9072C42.0794 24.2961 42.0794 24.6218 42.0794 24.9476C42.0794 27.4318 42.0712 29.9151 42.0886 32.3993C42.0913 32.7598 41.9962 32.8567 41.6375 32.8485C40.5706 32.8238 39.5037 32.8394 38.4369 32.8394C37.8293 32.8394 37.8238 32.8394 37.8247 32.2327C37.8284 30.6242 37.8458 29.0156 37.843 27.4071C37.8366 24.2696 37.822 21.1311 37.8046 17.9936C37.8028 17.6414 37.8751 17.4785 38.2996 17.494C39.426 17.5343 40.5551 17.5197 41.6832 17.4995C42.0035 17.494 42.0904 17.5801 42.0877 17.9012C42.0712 19.6232 42.0804 21.3452 42.0804 23.0673C42.0804 23.2127 42.0804 23.3582 42.0804 23.651C42.7071 22.9218 43.2461 22.3014 43.7777 21.6746C44.8857 20.3699 45.9901 19.0605 47.0991 17.7557C47.2135 17.6203 47.3269 17.4986 47.5483 17.5004C49.1157 17.5123 50.6822 17.5069 52.3072 17.5069C51.9549 18.0732 51.5011 18.4941 51.1013 18.9553C49.8386 20.4101 48.564 21.854 47.2766 23.2859C47.0744 23.511 47.0936 23.6675 47.2308 23.8944C48.5905 26.1526 49.9438 28.4145 51.2989 30.6754C51.524 31.0515 51.7536 31.4257 52.0199 31.8658C52.353 31.0926 52.6686 30.3735 52.9742 29.6488C53.8654 27.537 54.7484 25.4215 55.6414 23.3116C56.4411 21.4221 57.2564 19.54 58.0488 17.6468C58.1275 17.4593 58.1961 17.3925 58.3956 17.3952C59.5841 17.4089 60.7727 17.4163 61.9622 17.4099C62.1928 17.4089 62.3017 17.4767 62.3932 17.6963C63.7272 20.8813 65.0732 24.0609 66.4164 27.2414C67.1841 29.0586 67.9508 30.8767 68.7542 32.7799H68.7551Z" fill="#2E2E2C"/>
<path d="M96.0639 24.2339C94.8058 26.1599 93.5486 28.086 92.2447 30.0825C90.9518 28.1088 89.7029 26.202 88.4539 24.2961C88.4072 24.3043 88.3597 24.3125 88.313 24.3217C88.313 25.4508 88.2892 26.5808 88.3185 27.709C88.3606 29.2883 88.3487 30.8666 88.3313 32.4459C88.3276 32.7726 88.2526 32.8522 87.9406 32.8485C86.7968 32.8329 85.6531 32.832 84.5103 32.8494C84.2202 32.854 84.158 32.7634 84.158 32.4889C84.1608 27.612 84.1562 22.7342 84.1425 17.8573C84.1425 17.5709 84.2266 17.5004 84.5039 17.5041C85.7538 17.5187 87.0045 17.5242 88.2544 17.5004C88.5637 17.4949 88.7147 17.6121 88.862 17.8545C89.9581 19.6525 91.0662 21.444 92.1706 23.2374C92.1944 23.2759 92.2273 23.3088 92.2813 23.3756C92.9657 22.273 93.6419 21.1833 94.3172 20.0926C94.7948 19.3203 95.2742 18.5499 95.7446 17.7731C95.8553 17.591 95.9724 17.5004 96.2066 17.5032C97.4876 17.5178 98.7686 17.5196 100.049 17.5032C100.363 17.4995 100.403 17.6075 100.402 17.893C100.391 22.7241 100.387 27.5544 100.405 32.3855C100.406 32.7881 100.277 32.8558 99.9233 32.8494C98.8107 32.8311 97.6971 32.8293 96.5845 32.8512C96.2524 32.8576 96.1517 32.7872 96.1545 32.434C96.1728 30.0102 96.1636 27.5873 96.1636 25.1635V24.2613C96.1307 24.2531 96.0968 24.2448 96.0639 24.2375V24.2339Z" fill="#2E2E2C"/>
<path d="M125.36 16.4693C123.827 16.4693 122.318 16.4647 120.809 16.4748C120.601 16.4757 120.481 16.4107 120.376 16.2387C119.105 14.1781 117.829 12.1212 116.552 10.0643C116.276 9.61963 115.993 9.17861 115.619 8.75497C115.619 9.78067 115.619 10.8064 115.619 11.8321C115.619 13.2631 115.61 14.6951 115.626 16.1261C115.629 16.4134 115.549 16.4802 115.27 16.4766C114.082 16.461 112.893 16.4619 111.705 16.4766C111.435 16.4802 111.343 16.4253 111.344 16.1307C111.354 11.2712 111.353 6.41167 111.345 1.55215C111.345 1.27583 111.413 1.19439 111.697 1.18799C113.477 1.14864 115.259 1.17975 117.039 1.17792C118.414 1.17609 119.791 1.11662 121.136 1.4817C123.826 2.21278 125.108 4.20288 124.925 6.89845C124.797 8.76137 123.85 10.0744 122.231 10.9198C121.836 11.1257 121.885 11.2739 122.095 11.5768C123.133 13.0701 124.151 14.5752 125.175 16.0776C125.25 16.1874 125.361 16.2799 125.36 16.4711V16.4693ZM115.635 6.70081C115.635 7.2187 115.642 7.73658 115.631 8.25447C115.626 8.44936 115.683 8.52347 115.886 8.51707C116.904 8.48413 117.923 8.57197 118.939 8.45394C119.948 8.33682 120.609 7.69449 120.661 6.77401C120.716 5.8032 120.207 5.15082 119.142 4.95592C118.045 4.75554 116.928 4.87723 115.82 4.86991C115.595 4.86808 115.636 5.01906 115.636 5.14899C115.634 5.66687 115.636 6.18476 115.636 6.70264L115.635 6.70081Z" fill="#2E2E2C"/>
<path d="M73.6026 24.9869C73.6026 26.7693 73.6026 28.4465 73.6026 30.1246C73.6026 30.9261 73.6026 31.7277 73.6099 32.5292C73.6118 32.747 73.5495 32.8467 73.3043 32.8449C72.07 32.8339 70.8348 32.8357 69.5995 32.8439C69.3982 32.8449 69.3205 32.7772 69.3406 32.5813C69.3488 32.5063 69.3415 32.4295 69.3415 32.3526C69.3415 27.5672 69.347 22.7818 69.3314 17.9973C69.3305 17.6002 69.4165 17.4931 69.8255 17.4968C72.1423 17.5197 74.46 17.4904 76.7767 17.5142C78.1035 17.5279 79.3973 17.7246 80.5721 18.4191C81.951 19.2334 82.7104 20.4403 82.8642 22.0196C82.9712 23.1194 82.8943 24.2019 82.3655 25.2093C81.8577 26.1755 81.0461 26.826 80.1055 27.3147C79.8127 27.4665 79.8474 27.5425 80.0002 27.7648C81.0818 29.3395 82.1514 30.9225 83.2228 32.5036C83.2814 32.5896 83.3299 32.6829 83.4241 32.8403C82.9886 32.8403 82.6034 32.8403 82.2191 32.8403C81.1211 32.8403 80.0231 32.8256 78.926 32.8504C78.625 32.8568 78.4612 32.7534 78.3139 32.5145C76.8115 30.0788 75.3027 27.6477 73.7948 25.2157C73.7637 25.1653 73.717 25.1242 73.6008 24.9878L73.6026 24.9869ZM73.5825 23.005C73.5825 23.5055 73.5807 24.006 73.5834 24.5065C73.5843 24.7042 73.6291 24.8359 73.889 24.8305C74.8314 24.8103 75.7748 24.8323 76.7172 24.8048C77.3394 24.7865 77.9049 24.588 78.2947 24.06C78.7311 23.4689 78.7247 22.812 78.4466 22.1816C78.1611 21.5356 77.5453 21.2913 76.8911 21.2501C75.9139 21.1879 74.9312 21.2016 73.9512 21.1778C73.6923 21.1714 73.5715 21.2748 73.5779 21.5456C73.5889 22.0315 73.5807 22.5183 73.5816 23.005H73.5825Z" fill="#2E2E2C"/>
<path d="M83.3062 16.4693C81.6674 16.4693 80.1321 16.4657 78.5967 16.473C78.3652 16.4739 78.2874 16.3229 78.1914 16.1683C77.13 14.4573 76.0686 12.7453 75.0045 11.037C74.5277 10.2721 74.0428 9.51264 73.4892 8.63699C73.4755 8.94077 73.4609 9.1137 73.4609 9.28663C73.459 11.5412 73.4517 13.7966 73.4682 16.0512C73.4709 16.3925 73.3868 16.4867 73.0418 16.4794C71.9292 16.4556 70.8156 16.4455 69.7039 16.483C69.2546 16.4977 69.1979 16.3312 69.1997 15.9432C69.2153 12.6135 69.2126 9.28389 69.2135 5.95424C69.2135 4.46829 69.2162 2.98234 69.2007 1.4964C69.1979 1.26765 69.272 1.16151 69.4816 1.16608C72.3793 1.23379 75.2863 0.986746 78.174 1.31889C79.8686 1.51378 81.3234 2.26041 82.1652 3.82688C83.2677 5.87921 83.1287 9.33696 80.2318 10.8284C79.6416 11.1322 79.6526 11.1486 80.0342 11.704C81.1056 13.2632 82.1762 14.8242 83.3071 16.4711L83.3062 16.4693ZM73.4599 6.69263C73.4599 7.21052 73.4654 7.72932 73.4572 8.2472C73.4545 8.43386 73.4993 8.52353 73.7097 8.51713C74.7574 8.48419 75.8078 8.57386 76.8546 8.44484C77.7979 8.32772 78.4723 7.63233 78.4915 6.74479C78.5135 5.73738 77.9882 5.1097 76.9561 4.94774C75.8673 4.77664 74.7702 4.87729 73.6768 4.87089C73.4307 4.86906 73.4645 5.04107 73.4627 5.18564C73.4572 5.68797 73.4609 6.19122 73.4609 6.69446L73.4599 6.69263Z" fill="#2E2E2C"/>
<path d="M97.7035 8.78241C97.7035 6.37507 97.7145 3.96681 97.6916 1.55947C97.6879 1.20262 97.8151 1.15413 98.1043 1.15504C101.854 1.16419 105.604 1.16877 109.352 1.17426C109.957 1.17517 109.97 1.177 109.974 1.76077C109.981 2.64465 109.951 3.52853 109.972 4.4115C109.98 4.74547 109.867 4.80403 109.561 4.8022C107.152 4.78939 104.743 4.80403 102.334 4.78573C101.967 4.78298 101.866 4.88821 101.888 5.24139C101.918 5.7117 101.917 6.1875 101.888 6.6578C101.868 6.99086 101.952 7.09334 102.306 7.09059C104.455 7.07229 106.605 7.09242 108.755 7.07138C109.139 7.06772 109.238 7.16562 109.223 7.54443C109.192 8.38164 109.198 9.22069 109.221 10.0588C109.231 10.3882 109.125 10.4587 108.812 10.4568C106.648 10.4431 104.483 10.4568 102.318 10.4422C101.991 10.4404 101.861 10.4971 101.885 10.8576C101.921 11.3883 101.912 11.9245 101.887 12.457C101.873 12.7562 101.964 12.8358 102.263 12.834C104.718 12.8221 107.172 12.834 109.627 12.8184C109.98 12.8157 110.087 12.8999 110.077 13.2631C110.049 14.223 110.059 15.1837 110.073 16.1435C110.077 16.4061 109.993 16.4747 109.737 16.4747C105.834 16.4674 101.932 16.4638 98.0283 16.4793C97.6468 16.4811 97.7008 16.2789 97.7008 16.0511C97.7008 13.6282 97.7008 11.2053 97.7008 8.78241H97.7035Z" fill="#2E2E2C"/>
<path d="M84.0089 8.73388C84.0089 6.36222 84.0117 3.99056 84.0053 1.61799C84.0043 1.29225 84.0757 1.14585 84.4573 1.1486C87.7796 1.16964 91.1019 1.16598 94.4252 1.17239C94.9385 1.1733 95.4518 1.20441 95.9642 1.18977C96.2442 1.18154 96.3284 1.26206 96.3229 1.54662C96.3055 2.50644 96.3027 3.46719 96.3229 4.4261C96.3293 4.73811 96.225 4.80124 95.9349 4.80033C93.5111 4.78935 91.0873 4.80399 88.6635 4.78386C88.2792 4.78111 88.1639 4.87719 88.1959 5.25691C88.2316 5.68055 88.2344 6.11243 88.1959 6.53515C88.1575 6.96154 88.2673 7.09879 88.7275 7.09238C90.8457 7.06402 92.9658 7.08964 95.084 7.07042C95.4518 7.06676 95.5415 7.17382 95.5305 7.52609C95.5049 8.34775 95.5003 9.17216 95.5323 9.99382C95.547 10.3662 95.4152 10.4541 95.0748 10.4522C92.9411 10.4422 90.8064 10.4568 88.6726 10.4385C88.3002 10.4348 88.1666 10.5163 88.1941 10.907C88.2307 11.4221 88.2234 11.9437 88.1959 12.4606C88.1795 12.7754 88.2966 12.833 88.5839 12.8312C91.0379 12.8202 93.4928 12.8349 95.9468 12.8157C96.3348 12.8129 96.4272 12.92 96.4153 13.2951C96.386 14.2083 96.3997 15.1233 96.4098 16.0373C96.4125 16.3192 96.3842 16.4363 96.0255 16.4418C92.1807 16.5049 88.3359 16.4409 84.4911 16.4756C84.126 16.4793 84.0117 16.3878 84.0135 16.0154C84.0281 13.5879 84.0208 11.1595 84.0208 8.73205C84.0162 8.73205 84.0117 8.73205 84.008 8.73205L84.0089 8.73388Z" fill="#2E2E2C"/>
<path d="M37.2016 9.05241C37.0213 5.47571 39.414 2.07194 42.901 1.18897C45.0549 0.64272 47.1292 0.756179 49.1257 1.76541C50.0627 2.23847 50.8148 2.94392 51.4846 3.73997C51.6584 3.94675 51.7133 4.09132 51.4223 4.3036C50.5421 4.94593 49.6903 5.62851 48.843 6.31475C48.5987 6.51331 48.4678 6.47122 48.2711 6.24979C47.3927 5.26343 46.3323 4.67875 44.9579 4.76201C43.4994 4.84985 42.2825 5.83804 41.7774 7.39261C41.2092 9.14025 41.7335 11.0938 43.0493 12.1304C44.2452 13.0729 46.0001 13.1351 47.261 12.2823C47.691 11.9914 48.0872 11.6565 48.4157 11.2585C48.5722 11.0681 48.6774 11.0544 48.8576 11.1843C49.7809 11.8459 50.7023 12.5111 51.6365 13.158C51.8643 13.3163 51.749 13.4004 51.641 13.5459C49.7507 16.0914 47.1621 17.0339 44.0969 16.6999C40.6932 16.3293 38.1952 14.0602 37.3699 10.7223C37.2354 10.1778 37.186 9.61696 37.1997 9.05241H37.2016Z" fill="#2E2E2C"/>
<path d="M60.0416 6.15183C59.5731 7.34772 59.1504 8.42558 58.7268 9.50344C57.8667 11.6939 57.0011 13.8826 56.1492 16.0758C56.0358 16.3686 55.8875 16.4857 55.5545 16.4793C54.3659 16.4546 53.1764 16.4501 51.9878 16.4793C51.5432 16.4903 51.5633 16.3275 51.6941 16.0191C52.5185 14.0757 53.3356 12.1286 54.16 10.1851C55.4026 7.25531 56.6552 4.33008 57.885 1.3957C57.9939 1.13676 58.1027 1.06997 58.3681 1.07363C59.4908 1.09101 60.6153 1.09284 61.738 1.07546C62.0125 1.07088 62.1479 1.12395 62.2641 1.40028C64.1664 5.93315 66.0842 10.4605 67.9984 14.9879C68.1686 15.3905 68.3452 15.7913 68.5172 16.1929C68.584 16.3485 68.5766 16.4391 68.3598 16.44C66.9891 16.4437 65.6185 16.451 64.2487 16.4748C64.0163 16.4784 64.0172 16.3165 63.9678 16.1929C63.2569 14.3968 62.5487 12.5998 61.8451 10.8009C61.2567 9.29757 60.6757 7.79149 60.0389 6.15L60.0416 6.15183Z" fill="#2E2E2C"/>
<path d="M118.069 32.7799C116.608 32.7799 115.177 32.7753 113.745 32.7845C113.52 32.7863 113.458 32.6472 113.398 32.4917C112.526 30.2554 111.659 28.0183 110.788 25.783C110.378 24.7289 109.963 23.6776 109.51 22.5247C109.215 23.2475 108.945 23.8889 108.691 24.5358C107.664 27.1472 106.638 29.7595 105.625 32.3764C105.503 32.6893 105.348 32.7973 105.002 32.7909C103.692 32.7644 102.381 32.7799 101.009 32.7799C101.394 31.8402 101.754 30.9371 102.132 30.0413C103.428 26.9697 104.729 23.8999 106.029 20.8292C106.476 19.7733 106.932 18.722 107.37 17.6624C107.454 17.4611 107.559 17.3925 107.774 17.3943C108.902 17.4071 110.03 17.4126 111.159 17.4026C111.482 17.3998 111.651 17.484 111.791 17.817C113.831 22.7013 115.894 27.5754 117.95 32.4533C117.99 32.5493 118.022 32.6491 118.069 32.779L118.069 32.7799Z" fill="#2E2E2C"/>
<path d="M16.4661 32.8568C14.2518 32.8111 12.1235 32.3627 10.0794 31.499C9.77838 31.3718 9.75642 31.2665 9.93027 31.0149C11.1417 29.2581 12.2452 27.4272 13.5884 25.761C14.3662 24.7966 15.3241 24.1616 16.5566 23.9988C17.1258 23.9237 17.6574 24.1067 18.1524 24.4032C19.2394 25.0528 19.9549 26.0557 20.6576 27.0585C21.5433 28.323 22.3778 29.6241 23.2535 30.8969C23.4438 31.1732 23.4191 31.2748 23.108 31.4093C21.4043 32.1486 19.6457 32.6537 17.7836 32.7745C17.3454 32.8028 16.9107 32.8925 16.467 32.8568H16.4661Z" fill="#EB9348"/>
<path d="M122.486 32.7827C120.867 32.8257 119.537 31.3288 119.655 29.6278C119.755 28.1867 121.209 26.8938 122.722 27.0109C124.116 27.1189 125.563 28.2297 125.432 30.2079C125.34 31.6051 123.96 32.8458 122.487 32.7818L122.486 32.7827Z" fill="#EB9348"/>
</g>
<defs>
<clipPath id="clip0_30_3">
<rect width="124.811" height="32" fill="white" transform="translate(0.629395 0.86499)"/>
</clipPath>
</defs>
</svg>
