<svg width="359" height="102" viewBox="0 0 359 102" fill="none" xmlns="http://www.w3.org/2000/svg">
<g filter="url(#filter0_d)">
<circle cx="50" cy="50" r="30" fill="url(#paint0_linear)"/>
</g>
<path fill-rule="evenodd" clip-rule="evenodd" d="M67.25 43.625C67.25 41.1438 65.2312 39.125 62.75 39.125C60.2688 39.125 58.25 41.1438 58.25 43.625C58.25 44.9694 58.8457 46.1748 59.7834 47H56.7954L53.0227 43.2273C52.8027 43.0074 52.4473 43.0074 52.2273 43.2273L49.9773 45.4773C49.7574 45.6972 49.7574 46.0528 49.9773 46.2727L55.0398 51.3352C55.145 51.4409 55.2879 51.5 55.4375 51.5H59.9375V55.4375H57.125H50.3008L53.093 51.2497L52.157 50.6259L48.9491 55.4375H47.5625V52.625C47.5625 52.3139 47.3111 52.0625 47 52.0625H42.5V49.8125C42.5 48.6267 41.7597 47.6148 40.7191 47.2019C41.7986 46.3796 42.5 45.0841 42.5 43.625C42.5 41.1438 40.4812 39.125 38 39.125C35.5188 39.125 33.5 41.1438 33.5 43.625C33.5 45.0841 34.2014 46.3796 35.2809 47.2019C34.2402 47.6148 33.5 48.6267 33.5 49.8125V57.6875C33.5 59.2383 34.7617 60.5 36.3125 60.5V67.25H37.4375V60.5H41.375V66.6875C41.375 66.9986 41.6264 67.25 41.9375 67.25H45.875C46.1861 67.25 46.4375 66.9986 46.4375 66.6875V58.25C46.4375 57.6172 46.2277 57.0327 45.8739 56.5625H46.4375H47H49.8125V66.125H47.5625V67.25H53.1875V66.125H50.9375V56.5625H54.8896C54.5324 57.0339 54.3125 57.6144 54.3125 58.25V66.6875C54.3125 66.9986 54.5639 67.25 54.875 67.25H58.8125C59.1236 67.25 59.375 66.9986 59.375 66.6875V60.5H63.3125V67.25H64.4375V60.5C65.9883 60.5 67.25 59.2383 67.25 57.6875V49.8125C67.25 48.6267 66.5098 47.6148 65.4691 47.2019C66.5486 46.3796 67.25 45.0841 67.25 43.625ZM59.375 43.625C59.375 41.7637 60.8887 40.25 62.75 40.25C64.6113 40.25 66.125 41.7637 66.125 43.625C66.125 45.4863 64.6113 47 62.75 47C60.8887 47 59.375 45.4863 59.375 43.625ZM38 40.25C36.1387 40.25 34.625 41.7637 34.625 43.625C34.625 45.4863 36.1387 47 38 47C39.8613 47 41.375 45.4863 41.375 43.625C41.375 41.7637 39.8613 40.25 38 40.25ZM39.125 55.4375V50.9375H38V56C38 56.3111 38.2514 56.5625 38.5625 56.5625H43.625C44.5554 56.5625 45.3125 57.3196 45.3125 58.25V66.125H42.5V59.9375C42.5 59.6264 42.2486 59.375 41.9375 59.375H36.3125C35.3821 59.375 34.625 58.6179 34.625 57.6875V49.8125C34.625 48.8821 35.3821 48.125 36.3125 48.125H39.6875C40.6179 48.125 41.375 48.8821 41.375 49.8125V52.625C41.375 52.9361 41.6264 53.1875 41.9375 53.1875H46.4375V55.4375H39.125ZM66.125 49.8125C66.125 48.8821 65.3679 48.125 64.4375 48.125H56.5625C56.4129 48.125 56.27 48.0659 56.1648 47.9602L52.625 44.4204L51.1704 45.875L55.6704 50.375H60.5C60.8111 50.375 61.0625 50.6264 61.0625 50.9375V56C61.0625 56.3111 60.8111 56.5625 60.5 56.5625H57.125C56.1946 56.5625 55.4375 57.3196 55.4375 58.25V66.125H58.25V59.9375C58.25 59.6264 58.5014 59.375 58.8125 59.375H64.4375C65.3679 59.375 66.125 58.6179 66.125 57.6875V49.8125Z" fill="white"/>
<path fill-rule="evenodd" clip-rule="evenodd" d="M45.875 45.3125C45.8024 45.3125 45.7293 45.299 45.6596 45.2697C45.4492 45.1831 45.3125 44.9773 45.3125 44.75V41.375H44.75C43.8196 41.375 43.0625 40.6179 43.0625 39.6875V35.1875C43.0625 34.2571 43.8196 33.5 44.75 33.5H56C56.9304 33.5 57.6875 34.2571 57.6875 35.1875V39.6875C57.6875 40.6179 56.9304 41.375 56 41.375H50.0454L46.2727 45.1477C46.1652 45.2551 46.0213 45.3125 45.875 45.3125ZM44.1875 39.6875C44.1875 39.998 44.4395 40.25 44.75 40.25H45.875C46.1861 40.25 46.4375 40.5014 46.4375 40.8125V43.3921L49.4148 40.4148C49.52 40.3091 49.6629 40.25 49.8125 40.25H56C56.3105 40.25 56.5625 39.998 56.5625 39.6875V35.1875C56.5625 34.877 56.3105 34.625 56 34.625H44.75C44.4395 34.625 44.1875 34.877 44.1875 35.1875V39.6875Z" fill="white"/>
<rect x="45.3125" y="35.75" width="3.375" height="1.125" fill="white"/>
<rect x="45.3125" y="38" width="10.125" height="1.125" fill="white"/>
<rect x="49.8125" y="35.75" width="5.625" height="1.125" fill="white"/>
<g filter="url(#filter1_d)">
<circle cx="130" cy="50" r="30" fill="url(#paint1_linear)"/>
</g>
<path d="M138.407 40.7344H134.849C134.093 40.7344 133.383 40.4393 132.851 39.9033C132.318 39.3674 132.027 38.656 132.032 37.9005L132.06 33.5012C132.062 33.2237 132.287 33 132.564 33C132.565 33 132.566 33 132.567 33C132.846 33.0018 133.07 33.229 133.069 33.5076L133.041 37.9069C133.038 38.3918 133.225 38.8483 133.566 39.1922C133.908 39.5363 134.364 39.7257 134.849 39.7257H138.407C138.686 39.7257 138.912 39.9516 138.912 40.2301C138.912 40.5086 138.686 40.7344 138.407 40.7344Z" fill="white"/>
<path d="M126.06 56.3151H121.681C121.264 56.3151 120.925 56.0599 120.925 55.7451C120.925 55.4304 121.264 55.1751 121.681 55.1751H126.06C126.478 55.1751 126.817 55.4304 126.817 55.7451C126.817 56.0599 126.478 56.3151 126.06 56.3151Z" fill="white"/>
<path d="M118.6 54.0306C118.755 53.8756 119.007 53.8756 119.162 54.0306V54.0306C119.317 54.1855 119.317 54.4368 119.162 54.5917L116.582 57.1711C116.504 57.2492 116.377 57.2492 116.299 57.1711L115.08 55.9521C114.925 55.7971 114.925 55.5459 115.08 55.391V55.391C115.235 55.236 115.487 55.236 115.642 55.391L116.441 56.1902L118.6 54.0306Z" fill="white"/>
<path d="M126.06 62.0151H121.681C121.264 62.0151 120.925 61.7598 120.925 61.4451C120.925 61.1303 121.264 60.8751 121.681 60.8751H126.06C126.478 60.8751 126.817 61.1303 126.817 61.4451C126.817 61.7598 126.478 62.0151 126.06 62.0151Z" fill="white"/>
<path d="M118.6 59.7305C118.755 59.5756 119.007 59.5756 119.162 59.7305V59.7305C119.317 59.8855 119.317 60.1367 119.162 60.2917L116.582 62.871C116.504 62.9491 116.377 62.9491 116.299 62.871L115.08 61.6521C114.925 61.4971 114.925 61.2459 115.08 61.0909V61.0909C115.235 60.936 115.487 60.936 115.642 61.0909L116.441 61.8902L118.6 59.7305Z" fill="white"/>
<path fill-rule="evenodd" clip-rule="evenodd" d="M116.213 48.3008H125.909C126.929 48.3008 127.759 47.4711 127.759 46.4512V40.3981C127.759 39.3783 126.929 38.5486 125.909 38.5486H116.213C115.193 38.5486 114.363 39.3783 114.363 40.3981V46.4512C114.363 47.4711 115.193 48.3008 116.213 48.3008ZM115.372 40.3981C115.372 39.9346 115.749 39.5574 116.213 39.5574H125.909C126.373 39.5574 126.75 39.9346 126.75 40.3981V46.4512C126.75 46.9148 126.373 47.2919 125.909 47.2919H116.213C115.749 47.2919 115.372 46.9148 115.372 46.4512V40.3981Z" fill="white"/>
<path fill-rule="evenodd" clip-rule="evenodd" d="M118.51 39.5575H123.611C123.889 39.5575 124.115 39.3316 124.115 39.0531V37.6239C124.115 36.9285 123.549 36.3628 122.854 36.3628H119.267C118.572 36.3628 118.006 36.9285 118.006 37.6239V39.0531C118.006 39.3316 118.232 39.5575 118.51 39.5575ZM123.106 38.5486H119.015V37.6239C119.015 37.4848 119.128 37.3716 119.267 37.3716H122.854C122.993 37.3716 123.106 37.4848 123.106 37.6239V38.5486Z" fill="white"/>
<path d="M127.254 43.2005H114.868C114.589 43.2005 114.363 42.9746 114.363 42.6961C114.363 42.4175 114.589 42.1917 114.868 42.1917H127.254C127.533 42.1917 127.759 42.4175 127.759 42.6961C127.759 42.9746 127.533 43.2005 127.254 43.2005Z" fill="white"/>
<path d="M124.339 44.6017C124.061 44.6017 123.835 44.3758 123.835 44.0972V41.9114C123.835 41.6329 124.061 41.407 124.339 41.407C124.618 41.407 124.844 41.6329 124.844 41.9114V44.0972C124.844 44.3758 124.618 44.6017 124.339 44.6017Z" fill="white"/>
<path d="M117.782 44.6017C117.503 44.6017 117.277 44.3758 117.277 44.0972V41.9114C117.277 41.6329 117.503 41.407 117.782 41.407C118.06 41.407 118.286 41.6329 118.286 41.9114V44.0972C118.286 44.3758 118.06 44.6017 117.782 44.6017Z" fill="white"/>
<path fill-rule="evenodd" clip-rule="evenodd" d="M145.324 66.1938C145.713 66.583 146.231 66.7972 146.781 66.7972C147.331 66.7972 147.848 66.583 148.238 66.1938C149.041 65.3907 149.041 64.0838 148.237 63.2806L143.335 58.3785C143.228 58.271 143.078 58.2178 142.927 58.2334C142.776 58.249 142.64 58.3318 142.557 58.4589C142.025 59.2712 141.314 59.9803 140.501 60.5093C140.373 60.5922 140.29 60.7283 140.274 60.8796C140.258 61.0309 140.312 61.1812 140.419 61.2888L145.324 66.1938ZM146.038 65.4805L141.556 60.9987C142.116 60.5705 142.614 60.0737 143.044 59.514L147.524 63.9939C147.934 64.4038 147.934 65.0707 147.524 65.4804C147.326 65.679 147.062 65.7884 146.781 65.7884C146.5 65.7884 146.236 65.679 146.038 65.4805Z" fill="white"/>
<path fill-rule="evenodd" clip-rule="evenodd" d="M113.816 67H136.095C137.648 67 138.912 65.7366 138.912 64.1836V61.9438C138.912 61.7897 138.841 61.6441 138.72 61.5484C138.599 61.4527 138.442 61.4176 138.292 61.4528C137.765 61.5768 137.223 61.6397 136.681 61.6397C132.812 61.6397 129.664 58.4922 129.664 54.6233C129.664 50.7544 132.812 47.6069 136.681 47.6069C137.224 47.6069 137.766 47.6695 138.292 47.7929C138.441 47.8281 138.599 47.7929 138.72 47.6973C138.841 47.6016 138.911 47.456 138.911 47.3019V39.3473C138.911 39.2135 138.858 39.0852 138.764 38.9906L132.921 33.1477C132.826 33.0531 132.698 33 132.564 33H113.816C112.263 33 111 34.2634 111 35.8164V64.1836C111 65.7366 112.263 67 113.816 67ZM112.009 35.8164C112.009 34.8197 112.82 34.0088 113.816 34.0088H132.355L137.903 39.5563V46.6908C137.499 46.6291 137.09 46.598 136.681 46.598C132.256 46.598 128.655 50.1982 128.655 54.6233C128.655 59.0485 132.256 62.6486 136.681 62.6486C137.09 62.6486 137.499 62.6173 137.903 62.5552V64.1836C137.903 65.1803 137.092 65.9911 136.095 65.9911H113.816C112.82 65.9911 112.009 65.1803 112.009 64.1836V35.8164Z" fill="white"/>
<path fill-rule="evenodd" clip-rule="evenodd" d="M128.655 54.6235C128.655 59.0486 132.255 62.6487 136.681 62.6487C137.3 62.6487 137.919 62.5769 138.522 62.435C139.425 62.2227 140.275 61.8593 141.051 61.3548C141.994 60.7415 142.784 59.953 143.4 59.0112C144.254 57.7059 144.706 56.1886 144.706 54.6234C144.706 52.8037 144.08 51.0213 142.943 49.6047C141.824 48.2099 140.254 47.2176 138.522 46.8109C137.921 46.6698 137.302 46.5981 136.681 46.5981C132.255 46.5981 128.655 50.1983 128.655 54.6235ZM129.664 54.6235C129.664 50.7545 132.812 47.607 136.681 47.607C137.224 47.607 137.766 47.6696 138.291 47.793C141.474 48.5405 143.697 51.3493 143.697 54.6234C143.697 55.9919 143.302 57.3182 142.556 58.4589C142.025 59.2711 141.314 59.9802 140.5 60.5093C139.823 60.95 139.08 61.2676 138.291 61.4529C137.764 61.577 137.222 61.6398 136.681 61.6398C132.812 61.6398 129.664 58.4923 129.664 54.6235Z" fill="white"/>
<path fill-rule="evenodd" clip-rule="evenodd" d="M131.068 54.6232C131.068 57.718 133.586 60.2356 136.681 60.2356C137.113 60.2356 137.547 60.1854 137.969 60.0863C138.6 59.9378 139.195 59.6836 139.737 59.3307C140.397 58.9017 140.95 58.3505 141.38 57.6921C141.978 56.7791 142.293 55.7178 142.293 54.6233C142.293 52.0045 140.515 49.7577 137.969 49.1595C137.548 49.0608 137.115 49.0107 136.681 49.0107C133.586 49.0107 131.068 51.5285 131.068 54.6232ZM132.283 54.6232C132.283 52.1982 134.256 50.2252 136.681 50.2252C137.021 50.2252 137.361 50.2644 137.691 50.3417C139.686 50.8103 141.079 52.571 141.079 54.6233C141.079 55.4811 140.832 56.3125 140.364 57.0273C140.031 57.5364 139.585 57.981 139.075 58.3128C138.651 58.589 138.185 58.788 137.691 58.9041C137.36 58.9817 137.02 59.0212 136.681 59.0212C134.256 59.0212 132.283 57.0483 132.283 54.6232Z" fill="white"/>
<g filter="url(#filter2_d)">
<circle cx="210" cy="50" r="30" fill="url(#paint2_linear)"/>
</g>
<path d="M226.666 52.8333C225.125 52.8333 223.833 51.5416 223.833 49.9583C223.833 48.4166 225.125 47.0833 226.666 47.0833C228.25 47.0833 229.5 48.3749 229.5 49.9583C229.541 51.5833 228.25 52.8333 226.666 52.8333Z" fill="white"/>
<path d="M212.625 32.875C212.625 31.2917 211.375 30 209.791 30C208.25 30 206.958 31.3333 206.958 32.875C206.958 34.4583 208.25 35.75 209.791 35.75C211.375 35.75 212.666 34.5 212.625 32.875Z" fill="white"/>
<path d="M212.625 66.875C212.625 65.2917 211.375 64 209.791 64C208.25 64 206.958 65.3333 206.958 66.875C206.958 68.4583 208.25 69.75 209.791 69.75C211.375 69.75 212.666 68.5 212.625 66.875Z" fill="white"/>
<path d="M195.667 49.9583C195.667 48.3749 194.417 47.0833 192.833 47.0833C191.292 47.0833 190 48.4166 190 49.9583C190 51.5416 191.292 52.8333 192.833 52.8333C194.417 52.8333 195.708 51.5833 195.667 49.9583Z" fill="white"/>
<path fill-rule="evenodd" clip-rule="evenodd" d="M222.333 50.2916C222.542 50.2916 222.667 50.1249 222.667 49.9583C222.667 49.7499 222.542 49.6249 222.375 49.5833H216.75C216.625 45.9999 213.708 43.0833 210.083 42.9166V37.2916C210.083 37.0833 209.958 36.9583 209.75 36.9583C209.542 36.9583 209.417 37.1249 209.417 37.2916V42.9166C205.833 43.0416 202.917 45.9583 202.75 49.5833H197.208C197 49.5833 196.875 49.7499 196.875 49.9166C196.875 50.1249 197.042 50.2499 197.208 50.2499H202.75C202.875 53.8333 205.792 56.7499 209.417 56.9166V62.4583C209.417 62.6666 209.542 62.7916 209.75 62.7916C209.958 62.7916 210.083 62.6249 210.083 62.4583V56.9583C213.667 56.8333 216.583 53.9166 216.75 50.2916H222.333ZM209.75 43.5833C213.25 43.5833 216.125 46.4166 216.125 49.9583C216.125 53.4583 213.25 56.3333 209.75 56.3333C206.25 56.3333 203.375 53.4999 203.375 49.9583C203.375 46.4583 206.208 43.5833 209.75 43.5833Z" fill="white"/>
<path d="M222.375 49.5833L222.424 49.3892L222.4 49.3833H222.375V49.5833ZM216.75 49.5833L216.55 49.5902L216.557 49.7833H216.75V49.5833ZM210.083 42.9166H209.883V43.1076L210.074 43.1164L210.083 42.9166ZM209.417 42.9166L209.424 43.1165L209.617 43.1097V42.9166H209.417ZM202.75 49.5833V49.7833H202.941L202.95 49.5924L202.75 49.5833ZM202.75 50.2499L202.95 50.2429L202.943 50.0499H202.75V50.2499ZM209.417 56.9166H209.617V56.7256L209.426 56.7168L209.417 56.9166ZM210.083 56.9583L210.076 56.7584L209.883 56.7651V56.9583H210.083ZM216.75 50.2916V50.0916H216.559L216.55 50.2824L216.75 50.2916ZM222.467 49.9583C222.467 49.993 222.453 50.0277 222.431 50.0523C222.411 50.0743 222.38 50.0916 222.333 50.0916V50.4916C222.668 50.4916 222.867 50.2186 222.867 49.9583H222.467ZM222.326 49.7773C222.376 49.7896 222.409 49.8117 222.43 49.8363C222.449 49.8594 222.467 49.8962 222.467 49.9583H222.867C222.867 49.812 222.822 49.6821 222.737 49.5802C222.653 49.4798 222.541 49.4185 222.424 49.3892L222.326 49.7773ZM216.75 49.7833H222.375V49.3833H216.75V49.7833ZM210.074 43.1164C213.597 43.2783 216.429 46.113 216.55 49.5902L216.95 49.5763C216.821 45.8868 213.82 42.8882 210.093 42.7168L210.074 43.1164ZM209.883 37.2916V42.9166H210.283V37.2916H209.883ZM209.75 37.1583C209.814 37.1583 209.842 37.1767 209.853 37.1882C209.865 37.1997 209.883 37.2275 209.883 37.2916H210.283C210.283 37.1473 210.239 37.0084 210.136 36.9054C210.033 36.8023 209.894 36.7583 209.75 36.7583V37.1583ZM209.617 37.2916C209.617 37.2569 209.63 37.2221 209.653 37.1976C209.673 37.1756 209.703 37.1583 209.75 37.1583V36.7583C209.415 36.7583 209.217 37.0312 209.217 37.2916H209.617ZM209.617 42.9166V37.2916H209.217V42.9166H209.617ZM202.95 49.5924C203.112 46.0695 205.946 43.2378 209.424 43.1165L209.41 42.7167C205.72 42.8454 202.722 45.847 202.55 49.5741L202.95 49.5924ZM197.208 49.7833H202.75V49.3833H197.208V49.7833ZM197.075 49.9166C197.075 49.8819 197.088 49.8471 197.111 49.8226C197.131 49.8006 197.161 49.7833 197.208 49.7833V49.3833C196.874 49.3833 196.675 49.6562 196.675 49.9166H197.075ZM197.208 50.0499C197.174 50.0499 197.139 50.0365 197.114 50.0139C197.092 49.9938 197.075 49.9636 197.075 49.9166H196.675C196.675 50.2514 196.948 50.4499 197.208 50.4499V50.0499ZM202.75 50.0499H197.208V50.4499H202.75V50.0499ZM209.426 56.7168C205.903 56.5548 203.071 53.7201 202.95 50.2429L202.55 50.2569C202.679 53.9464 205.68 56.945 209.407 57.1164L209.426 56.7168ZM209.617 62.4583V56.9166H209.217V62.4583H209.617ZM209.75 62.5916C209.686 62.5916 209.658 62.5732 209.647 62.5616C209.635 62.5501 209.617 62.5223 209.617 62.4583H209.217C209.217 62.6025 209.261 62.7414 209.364 62.8445C209.467 62.9475 209.606 62.9916 209.75 62.9916V62.5916ZM209.883 62.4583C209.883 62.493 209.87 62.5277 209.847 62.5523C209.827 62.5743 209.797 62.5916 209.75 62.5916V62.9916C210.085 62.9916 210.283 62.7186 210.283 62.4583H209.883ZM209.883 56.9583V62.4583H210.283V56.9583H209.883ZM216.55 50.2824C216.388 53.8053 213.554 56.6371 210.076 56.7584L210.09 57.1581C213.78 57.0294 216.778 54.0278 216.95 50.3008L216.55 50.2824ZM222.333 50.0916H216.75V50.4916H222.333V50.0916ZM216.325 49.9583C216.325 46.3053 213.36 43.3833 209.75 43.3833V43.7833C213.14 43.7833 215.925 46.5279 215.925 49.9583H216.325ZM209.75 56.5333C213.36 56.5333 216.325 53.5687 216.325 49.9583H215.925C215.925 53.3478 213.14 56.1333 209.75 56.1333V56.5333ZM203.175 49.9583C203.175 53.6112 206.14 56.5333 209.75 56.5333V56.1333C206.36 56.1333 203.575 53.3886 203.575 49.9583H203.175ZM209.75 43.3833C206.097 43.3833 203.175 46.3486 203.175 49.9583H203.575C203.575 46.5679 206.32 43.7833 209.75 43.7833V43.3833Z" fill="white"/>
<path d="M213.625 62.8333V62.8333C213.5 62.7083 213.5 62.4999 213.625 62.3749L222.042 53.9583C222.167 53.8333 222.375 53.8333 222.5 53.9583V53.9583C222.625 54.0833 222.625 54.2916 222.5 54.4166L214.042 62.8333C213.917 62.9583 213.75 62.9583 213.625 62.8333Z" fill="white" stroke="white" stroke-width="0.4"/>
<path d="M196.917 54V54C197.042 53.875 197.25 53.875 197.375 54L205.75 62.375C205.875 62.5 205.875 62.7083 205.75 62.8333V62.8333C205.625 62.9583 205.417 62.9583 205.292 62.8333L196.917 54.4583C196.792 54.3333 196.792 54.125 196.917 54Z" fill="white" stroke="white" stroke-width="0.4"/>
<path d="M214.125 37L222.542 45.4167C222.667 45.5417 222.667 45.75 222.542 45.875V45.875C222.417 46 222.209 46 222.084 45.875L213.667 37.4583C213.542 37.3333 213.542 37.125 213.667 37V37C213.792 36.875 214 36.875 214.125 37Z" fill="white" stroke="white" stroke-width="0.4"/>
<path d="M197 45.4167L205.417 37C205.542 36.875 205.75 36.875 205.875 37V37C206 37.125 206 37.3333 205.875 37.4583L197.417 45.8333C197.292 45.9583 197.083 45.9583 196.958 45.8333V45.8333C196.875 45.75 196.875 45.5417 197 45.4167Z" fill="white" stroke="white" stroke-width="0.4"/>
<path fill-rule="evenodd" clip-rule="evenodd" d="M207.225 47.1249C207.225 45.7374 208.32 44.6416 209.708 44.6416C211.096 44.6416 212.191 45.7374 212.191 47.1249C212.191 48.5125 211.096 49.6083 209.708 49.6083C208.32 49.6083 207.225 48.5125 207.225 47.1249ZM211.391 47.1249C211.391 46.1792 210.654 45.4416 209.708 45.4416C208.762 45.4416 208.025 46.1792 208.025 47.1249C208.025 48.0707 208.762 48.8083 209.708 48.8083C210.654 48.8083 211.391 48.0707 211.391 47.1249Z" fill="white"/>
<path fill-rule="evenodd" clip-rule="evenodd" d="M209.558 49.0121L209.558 48.9739L209.796 48.9971L209.9 48.9915V49.0081L209.999 49.0188C212.186 49.2421 213.875 51.1024 213.978 53.3634L213.983 53.5834V53.9834H205.392V53.5834C205.392 51.1814 207.206 49.1565 209.475 49.0175L209.558 49.0121ZM208.929 50.3584L209.022 49.8871L208.984 49.8952C207.577 50.2242 206.465 51.4691 206.235 52.998L206.212 53.1831H213.163L213.139 52.9887C212.914 51.5019 211.86 50.2938 210.475 49.918L210.441 49.9091L210.554 50.3584H208.929Z" fill="white"/>
<path fill-rule="evenodd" clip-rule="evenodd" d="M209.032 50.1001H210.52L210.564 50.4505C210.6 50.7428 210.65 51.0233 210.71 51.2888L210.777 51.5656L210.839 51.7914L210.894 51.9624L210.999 52.2476L209.814 53.63L208.45 52.2658L208.544 52.0232C208.75 51.4853 208.904 50.9324 208.98 50.4393L209.032 50.1001ZM209.868 51.1692L209.82 50.9001H209.709L209.63 51.246C209.571 51.48 209.5 51.718 209.419 51.9554L209.379 52.0631L209.769 52.4531L210.09 52.0771L210.004 51.773L209.929 51.4644L209.868 51.1692Z" fill="white"/>
<g filter="url(#filter3_d)">
<circle cx="290" cy="50" r="30" fill="url(#paint3_linear)"/>
</g>
<path fill-rule="evenodd" clip-rule="evenodd" d="M276 61.9316C276 63.43 277.219 64.6491 278.717 64.6491H292.245C293.349 66.6446 295.474 68 297.911 68C301.479 68 304.383 65.0967 304.383 61.5283C304.383 58.3537 302.083 55.7113 299.064 55.1651V34.7178C299.064 33.2191 297.848 32 296.354 32H278.717C277.219 32 276 33.2191 276 34.7178V61.9316ZM303.049 61.5283C303.049 64.3617 300.744 66.6667 297.911 66.6667C295.077 66.6667 292.773 64.3617 292.773 61.5283C292.773 58.695 295.077 56.3896 297.911 56.3896C300.744 56.3896 303.049 58.695 303.049 61.5283ZM278.717 33.3333C277.954 33.3333 277.333 33.9544 277.333 34.7178V61.9316C277.333 62.695 277.954 63.3158 278.717 63.3158H291.696C291.532 62.7472 291.439 62.1488 291.439 61.5283C291.439 58.0205 294.246 55.1622 297.73 55.0655V34.7178C297.73 33.9544 297.113 33.3333 296.354 33.3333H278.717Z" fill="white"/>
<path fill-rule="evenodd" clip-rule="evenodd" d="M285.776 43.8855H279.517C279.149 43.8855 278.851 43.587 278.851 43.2188V36.9594C278.851 36.5912 279.149 36.2927 279.517 36.2927H285.776C286.145 36.2927 286.443 36.5912 286.443 36.9594V43.2188C286.443 43.587 286.145 43.8855 285.776 43.8855ZM285.11 37.6261H280.184V42.5522H285.11V37.6261Z" fill="white"/>
<path d="M288.662 39.1722H295.549C295.918 39.1722 296.216 38.8737 296.216 38.5055C296.216 38.1374 295.918 37.8389 295.549 37.8389H288.662C288.293 37.8389 287.995 38.1374 287.995 38.5055C287.995 38.8737 288.293 39.1722 288.662 39.1722Z" fill="white"/>
<path d="M288.662 41.9757H295.549C295.918 41.9757 296.216 41.6772 296.216 41.309C296.216 40.9408 295.918 40.6423 295.549 40.6423H288.662C288.293 40.6423 287.995 40.9408 287.995 41.309C287.995 41.6772 288.293 41.9757 288.662 41.9757Z" fill="white"/>
<path d="M288.662 44.7789H295.549C295.918 44.7789 296.216 44.4804 296.216 44.1122C296.216 43.7441 295.918 43.4456 295.549 43.4456H288.662C288.293 43.4456 287.995 43.7441 287.995 44.1122C287.995 44.4804 288.293 44.7789 288.662 44.7789Z" fill="white"/>
<path d="M279.517 47.5824H295.55C295.918 47.5824 296.216 47.2839 296.216 46.9157C296.216 46.5475 295.918 46.249 295.55 46.249H279.517C279.149 46.249 278.851 46.5475 278.851 46.9157C278.851 47.2839 279.149 47.5824 279.517 47.5824Z" fill="white"/>
<path d="M279.517 50.3858H295.55C295.918 50.3858 296.216 50.0873 296.216 49.7192C296.216 49.351 295.918 49.0525 295.55 49.0525H279.517C279.149 49.0525 278.851 49.351 278.851 49.7192C278.851 50.0873 279.149 50.3858 279.517 50.3858Z" fill="white"/>
<path d="M279.517 53.3858H290.55C290.918 53.3858 291.216 53.0873 291.216 52.7192C291.216 52.351 290.918 52.0525 290.55 52.0525H279.517C279.149 52.0525 278.851 52.351 278.851 52.7192C278.851 53.0873 279.149 53.3858 279.517 53.3858Z" fill="white"/>
<path d="M296.191 61.5759C295.93 61.3155 295.508 61.3155 295.248 61.5759C294.988 61.8363 294.988 62.2582 295.248 62.5186L296.363 63.6339C296.488 63.7589 296.658 63.8292 296.835 63.8292C297.012 63.8292 297.181 63.7589 297.306 63.6339L300.574 60.3653C300.835 60.1049 300.835 59.683 300.574 59.4226C300.314 59.1622 299.892 59.1622 299.632 59.4226L296.835 62.2198L296.191 61.5759Z" fill="white"/>
<defs>
<filter id="filter0_d" x="12" y="14" width="76" height="76" filterUnits="userSpaceOnUse" color-interpolation-filters="sRGB">
<feFlood flood-opacity="0" result="BackgroundImageFix"/>
<feColorMatrix in="SourceAlpha" type="matrix" values="0 0 0 0 0 0 0 0 0 0 0 0 0 0 0 0 0 0 127 0"/>
<feOffset dy="2"/>
<feGaussianBlur stdDeviation="4"/>
<feColorMatrix type="matrix" values="0 0 0 0 0 0 0 0 0 0 0 0 0 0 0 0 0 0 0.1 0"/>
<feBlend mode="normal" in2="BackgroundImageFix" result="effect1_dropShadow"/>
<feBlend mode="normal" in="SourceGraphic" in2="effect1_dropShadow" result="shape"/>
</filter>
<filter id="filter1_d" x="92" y="14" width="76" height="76" filterUnits="userSpaceOnUse" color-interpolation-filters="sRGB">
<feFlood flood-opacity="0" result="BackgroundImageFix"/>
<feColorMatrix in="SourceAlpha" type="matrix" values="0 0 0 0 0 0 0 0 0 0 0 0 0 0 0 0 0 0 127 0"/>
<feOffset dy="2"/>
<feGaussianBlur stdDeviation="4"/>
<feColorMatrix type="matrix" values="0 0 0 0 0 0 0 0 0 0 0 0 0 0 0 0 0 0 0.1 0"/>
<feBlend mode="normal" in2="BackgroundImageFix" result="effect1_dropShadow"/>
<feBlend mode="normal" in="SourceGraphic" in2="effect1_dropShadow" result="shape"/>
</filter>
<filter id="filter2_d" x="172" y="14" width="76" height="76" filterUnits="userSpaceOnUse" color-interpolation-filters="sRGB">
<feFlood flood-opacity="0" result="BackgroundImageFix"/>
<feColorMatrix in="SourceAlpha" type="matrix" values="0 0 0 0 0 0 0 0 0 0 0 0 0 0 0 0 0 0 127 0"/>
<feOffset dy="2"/>
<feGaussianBlur stdDeviation="4"/>
<feColorMatrix type="matrix" values="0 0 0 0 0 0 0 0 0 0 0 0 0 0 0 0 0 0 0.1 0"/>
<feBlend mode="normal" in2="BackgroundImageFix" result="effect1_dropShadow"/>
<feBlend mode="normal" in="SourceGraphic" in2="effect1_dropShadow" result="shape"/>
</filter>
<filter id="filter3_d" x="252" y="14" width="76" height="76" filterUnits="userSpaceOnUse" color-interpolation-filters="sRGB">
<feFlood flood-opacity="0" result="BackgroundImageFix"/>
<feColorMatrix in="SourceAlpha" type="matrix" values="0 0 0 0 0 0 0 0 0 0 0 0 0 0 0 0 0 0 127 0"/>
<feOffset dy="2"/>
<feGaussianBlur stdDeviation="4"/>
<feColorMatrix type="matrix" values="0 0 0 0 0 0 0 0 0 0 0 0 0 0 0 0 0 0 0.1 0"/>
<feBlend mode="normal" in2="BackgroundImageFix" result="effect1_dropShadow"/>
<feBlend mode="normal" in="SourceGraphic" in2="effect1_dropShadow" result="shape"/>
</filter>
<linearGradient id="paint0_linear" x1="6.71636" y1="46.5979" x2="43.8213" y2="91.5057" gradientUnits="userSpaceOnUse">
<stop stop-color="#27B1F8"/>
<stop offset="1" stop-color="#1179EF"/>
</linearGradient>
<linearGradient id="paint1_linear" x1="86.7164" y1="46.5979" x2="123.821" y2="91.5057" gradientUnits="userSpaceOnUse">
<stop stop-color="#27B1F8"/>
<stop offset="1" stop-color="#1179EF"/>
</linearGradient>
<linearGradient id="paint2_linear" x1="166.716" y1="46.5979" x2="203.821" y2="91.5057" gradientUnits="userSpaceOnUse">
<stop stop-color="#27B1F8"/>
<stop offset="1" stop-color="#1179EF"/>
</linearGradient>
<linearGradient id="paint3_linear" x1="246.716" y1="46.5979" x2="283.821" y2="91.5057" gradientUnits="userSpaceOnUse">
<stop stop-color="#27B1F8"/>
<stop offset="1" stop-color="#1179EF"/>
</linearGradient>
</defs>
</svg>
