<svg width="45" height="45" viewBox="0 0 45 45" fill="none" xmlns="http://www.w3.org/2000/svg">
<g clip-path="url(#clip0_1887_3041)">
<path d="M26.2667 36.9333H25.2C25.2 37.1314 25.2552 37.3256 25.3593 37.4941C25.4634 37.6626 25.6125 37.7988 25.7896 37.8874C25.9668 37.976 26.1652 38.0135 26.3625 37.9957C26.5598 37.9779 26.7482 37.9055 26.9067 37.7867L26.2667 36.9333ZM30.5333 33.7333L31.1733 32.88C30.9887 32.7415 30.7641 32.6667 30.5333 32.6667C30.3025 32.6667 30.078 32.7415 29.8933 32.88L30.5333 33.7333ZM34.8 36.9333L34.16 37.7867C34.3185 37.9055 34.5069 37.9779 34.7042 37.9957C34.9015 38.0135 35.0998 37.976 35.277 37.8874C35.4542 37.7988 35.6032 37.6626 35.7074 37.4941C35.8115 37.3256 35.8667 37.1314 35.8667 36.9333H34.8ZM30.5333 29.4667C29.1188 29.4667 27.7623 28.9048 26.7621 27.9046C25.7619 26.9044 25.2 25.5478 25.2 24.1333H23.0667C23.0667 26.1136 23.8533 28.0128 25.2536 29.4131C26.6539 30.8133 28.5531 31.6 30.5333 31.6V29.4667ZM35.8667 24.1333C35.8667 25.5478 35.3048 26.9044 34.3046 27.9046C33.3044 28.9048 31.9478 29.4667 30.5333 29.4667V31.6C32.5136 31.6 34.4128 30.8133 35.8131 29.4131C37.2133 28.0128 38 26.1136 38 24.1333H35.8667ZM30.5333 18.8C31.9478 18.8 33.3044 19.3619 34.3046 20.3621C35.3048 21.3623 35.8667 22.7188 35.8667 24.1333H38C38 22.1531 37.2133 20.2539 35.8131 18.8536C34.4128 17.4533 32.5136 16.6667 30.5333 16.6667V18.8ZM30.5333 16.6667C28.5531 16.6667 26.6539 17.4533 25.2536 18.8536C23.8533 20.2539 23.0667 22.1531 23.0667 24.1333H25.2C25.2 22.7188 25.7619 21.3623 26.7621 20.3621C27.7623 19.3619 29.1188 18.8 30.5333 18.8V16.6667ZM25.2 28.4V36.9333H27.3333V28.4H25.2ZM26.9067 37.7867L31.1733 34.5867L29.8933 32.88L25.6267 36.08L26.9067 37.7867ZM29.8933 34.5867L34.16 37.7867L35.44 36.08L31.1733 32.88L29.8933 34.5867ZM35.8667 36.9333V28.4H33.7333V36.9333H35.8667ZM38 16.6667V9.2H35.8667V16.6667H38ZM34.8 6H9.2V8.13333H34.8V6ZM6 9.2V34.8H8.13333V9.2H6ZM9.2 38H23.0667V35.8667H9.2V38ZM6 34.8C6 35.6487 6.33714 36.4626 6.93726 37.0627C7.53737 37.6629 8.35131 38 9.2 38V35.8667C8.9171 35.8667 8.64579 35.7543 8.44575 35.5542C8.24571 35.3542 8.13333 35.0829 8.13333 34.8H6ZM9.2 6C8.35131 6 7.53737 6.33714 6.93726 6.93726C6.33714 7.53737 6 8.35131 6 9.2H8.13333C8.13333 8.9171 8.24571 8.64579 8.44575 8.44575C8.64579 8.24571 8.9171 8.13333 9.2 8.13333V6ZM38 9.2C38 8.35131 37.6629 7.53737 37.0627 6.93726C36.4626 6.33714 35.6487 6 34.8 6V8.13333C35.0829 8.13333 35.3542 8.24571 35.5542 8.44575C35.7543 8.64579 35.8667 8.9171 35.8667 9.2H38ZM12.4 16.6667H23.0667V14.5333H12.4V16.6667ZM12.4 23.0667H18.8V20.9333H12.4V23.0667Z" fill="#2F80ED"/>
</g>
<defs>
<clipPath id="clip0_1887_3041">
<rect width="32" height="32" fill="white" transform="translate(6 6)"/>
</clipPath>
</defs>
</svg>
