<svg width="298" height="117" viewBox="0 0 298 117" fill="none" xmlns="http://www.w3.org/2000/svg">
<ellipse cx="112.849" cy="47.406" rx="3.04085" ry="2.80445" fill="white" fill-opacity="0.2"/>
<ellipse cx="112.849" cy="2.80445" rx="3.04085" ry="2.80445" fill="white" fill-opacity="0.2"/>
<ellipse cx="209.764" cy="47.406" rx="3.04085" ry="2.80445" fill="white" fill-opacity="0.2"/>
<ellipse cx="294.137" cy="47.406" rx="3.04085" ry="2.80445" fill="white" fill-opacity="0.2"/>
<ellipse cx="209.764" cy="2.80445" rx="3.04085" ry="2.80445" fill="white" fill-opacity="0.2"/>
<ellipse cx="294.137" cy="2.80445" rx="3.04085" ry="2.80445" fill="white" fill-opacity="0.2"/>
<ellipse cx="125.014" cy="47.406" rx="3.04085" ry="2.80445" fill="white" fill-opacity="0.2"/>
<ellipse cx="125.014" cy="2.80445" rx="3.04085" ry="2.80445" fill="white" fill-opacity="0.2"/>
<ellipse cx="137.185" cy="47.406" rx="3.04085" ry="2.80445" fill="white" fill-opacity="0.2"/>
<ellipse cx="221.556" cy="47.406" rx="3.04085" ry="2.80445" fill="white" fill-opacity="0.2"/>
<ellipse cx="137.185" cy="2.80445" rx="3.04085" ry="2.80445" fill="white" fill-opacity="0.2"/>
<ellipse cx="221.556" cy="2.80445" rx="3.04085" ry="2.80445" fill="white" fill-opacity="0.2"/>
<ellipse cx="149.338" cy="47.406" rx="3.04085" ry="2.80445" fill="white" fill-opacity="0.2"/>
<ellipse cx="233.713" cy="47.406" rx="3.04085" ry="2.80445" fill="white" fill-opacity="0.2"/>
<ellipse cx="149.338" cy="2.80445" rx="3.04085" ry="2.80445" fill="white" fill-opacity="0.2"/>
<ellipse cx="233.713" cy="2.80445" rx="3.04085" ry="2.80445" fill="white" fill-opacity="0.2"/>
<ellipse cx="161.502" cy="47.406" rx="3.04085" ry="2.80445" fill="white" fill-opacity="0.2"/>
<ellipse cx="245.873" cy="47.406" rx="3.04085" ry="2.80445" fill="white" fill-opacity="0.2"/>
<ellipse cx="161.502" cy="2.80445" rx="3.04085" ry="2.80445" fill="white" fill-opacity="0.2"/>
<ellipse cx="245.873" cy="2.80445" rx="3.04085" ry="2.80445" fill="white" fill-opacity="0.2"/>
<ellipse cx="173.664" cy="47.406" rx="3.04085" ry="2.80445" fill="white" fill-opacity="0.2"/>
<ellipse cx="258.035" cy="47.406" rx="3.04085" ry="2.80445" fill="white" fill-opacity="0.2"/>
<ellipse cx="173.664" cy="2.80445" rx="3.04085" ry="2.80445" fill="white" fill-opacity="0.2"/>
<ellipse cx="258.035" cy="2.80445" rx="3.04085" ry="2.80445" fill="white" fill-opacity="0.2"/>
<ellipse cx="185.832" cy="47.406" rx="3.04085" ry="2.80445" fill="white" fill-opacity="0.2"/>
<ellipse cx="270.209" cy="47.406" rx="3.04085" ry="2.80445" fill="white" fill-opacity="0.2"/>
<ellipse cx="185.832" cy="2.80445" rx="3.04085" ry="2.80445" fill="white" fill-opacity="0.2"/>
<ellipse cx="270.209" cy="2.80445" rx="3.04085" ry="2.80445" fill="white" fill-opacity="0.2"/>
<ellipse cx="197.994" cy="47.406" rx="3.04085" ry="2.80445" fill="white" fill-opacity="0.2"/>
<ellipse cx="282.371" cy="47.406" rx="3.04085" ry="2.80445" fill="white" fill-opacity="0.2"/>
<ellipse cx="197.994" cy="2.80445" rx="3.04085" ry="2.80445" fill="white" fill-opacity="0.2"/>
<ellipse cx="282.371" cy="2.80445" rx="3.04085" ry="2.80445" fill="white" fill-opacity="0.2"/>
<ellipse cx="112.849" cy="58.6228" rx="3.04085" ry="2.80445" fill="white" fill-opacity="0.2"/>
<ellipse cx="112.849" cy="14.0222" rx="3.04085" ry="2.80445" fill="white" fill-opacity="0.2"/>
<ellipse cx="209.764" cy="58.6228" rx="3.04085" ry="2.80445" fill="white" fill-opacity="0.2"/>
<ellipse cx="294.137" cy="58.6228" rx="3.04085" ry="2.80445" fill="white" fill-opacity="0.2"/>
<ellipse cx="209.764" cy="14.0222" rx="3.04085" ry="2.80445" fill="white" fill-opacity="0.2"/>
<ellipse cx="294.137" cy="14.0222" rx="3.04085" ry="2.80445" fill="white" fill-opacity="0.2"/>
<ellipse cx="125.014" cy="58.6228" rx="3.04085" ry="2.80445" fill="white" fill-opacity="0.2"/>
<ellipse cx="125.014" cy="14.0222" rx="3.04085" ry="2.80445" fill="white" fill-opacity="0.2"/>
<ellipse cx="137.185" cy="58.6228" rx="3.04085" ry="2.80445" fill="white" fill-opacity="0.2"/>
<ellipse cx="221.556" cy="58.6228" rx="3.04085" ry="2.80445" fill="white" fill-opacity="0.2"/>
<ellipse cx="137.185" cy="14.0222" rx="3.04085" ry="2.80445" fill="white" fill-opacity="0.2"/>
<ellipse cx="221.556" cy="14.0222" rx="3.04085" ry="2.80445" fill="white" fill-opacity="0.2"/>
<ellipse cx="149.338" cy="58.6228" rx="3.04085" ry="2.80445" fill="white" fill-opacity="0.2"/>
<ellipse cx="233.713" cy="58.6228" rx="3.04085" ry="2.80445" fill="white" fill-opacity="0.2"/>
<ellipse cx="149.338" cy="14.0222" rx="3.04085" ry="2.80445" fill="white" fill-opacity="0.2"/>
<ellipse cx="233.713" cy="14.0222" rx="3.04085" ry="2.80445" fill="white" fill-opacity="0.2"/>
<ellipse cx="161.502" cy="58.6228" rx="3.04085" ry="2.80445" fill="white" fill-opacity="0.2"/>
<ellipse cx="245.873" cy="58.6228" rx="3.04085" ry="2.80445" fill="white" fill-opacity="0.2"/>
<ellipse cx="161.502" cy="14.0222" rx="3.04085" ry="2.80445" fill="white" fill-opacity="0.2"/>
<ellipse cx="245.873" cy="14.0222" rx="3.04085" ry="2.80445" fill="white" fill-opacity="0.2"/>
<ellipse cx="173.664" cy="58.6228" rx="3.04085" ry="2.80445" fill="white" fill-opacity="0.2"/>
<ellipse cx="258.035" cy="58.6228" rx="3.04085" ry="2.80445" fill="white" fill-opacity="0.2"/>
<ellipse cx="173.664" cy="14.0222" rx="3.04085" ry="2.80445" fill="white" fill-opacity="0.2"/>
<ellipse cx="258.035" cy="14.0222" rx="3.04085" ry="2.80445" fill="white" fill-opacity="0.2"/>
<ellipse cx="185.832" cy="58.6228" rx="3.04085" ry="2.80445" fill="white" fill-opacity="0.2"/>
<ellipse cx="270.209" cy="58.6228" rx="3.04085" ry="2.80445" fill="white" fill-opacity="0.2"/>
<ellipse cx="185.832" cy="14.0222" rx="3.04085" ry="2.80445" fill="white" fill-opacity="0.2"/>
<ellipse cx="270.209" cy="14.0222" rx="3.04085" ry="2.80445" fill="white" fill-opacity="0.2"/>
<ellipse cx="197.994" cy="58.6228" rx="3.04085" ry="2.80445" fill="white" fill-opacity="0.2"/>
<ellipse cx="282.371" cy="58.6228" rx="3.04085" ry="2.80445" fill="white" fill-opacity="0.2"/>
<ellipse cx="197.994" cy="14.0222" rx="3.04085" ry="2.80445" fill="white" fill-opacity="0.2"/>
<ellipse cx="282.371" cy="14.0222" rx="3.04085" ry="2.80445" fill="white" fill-opacity="0.2"/>
<ellipse cx="112.849" cy="69.8416" rx="3.04085" ry="2.80445" fill="white" fill-opacity="0.2"/>
<ellipse cx="112.849" cy="25.24" rx="3.04085" ry="2.80445" fill="white" fill-opacity="0.2"/>
<ellipse cx="209.764" cy="69.8416" rx="3.04085" ry="2.80445" fill="white" fill-opacity="0.2"/>
<ellipse cx="294.137" cy="69.8416" rx="3.04085" ry="2.80445" fill="white" fill-opacity="0.2"/>
<ellipse cx="209.764" cy="25.24" rx="3.04085" ry="2.80445" fill="white" fill-opacity="0.2"/>
<ellipse cx="294.137" cy="25.24" rx="3.04085" ry="2.80445" fill="white" fill-opacity="0.2"/>
<ellipse cx="125.014" cy="69.8416" rx="3.04085" ry="2.80445" fill="white" fill-opacity="0.2"/>
<ellipse cx="125.014" cy="25.24" rx="3.04085" ry="2.80445" fill="white" fill-opacity="0.2"/>
<ellipse cx="137.185" cy="69.8416" rx="3.04085" ry="2.80445" fill="white" fill-opacity="0.2"/>
<ellipse cx="221.556" cy="69.8416" rx="3.04085" ry="2.80445" fill="white" fill-opacity="0.2"/>
<ellipse cx="137.185" cy="25.24" rx="3.04085" ry="2.80445" fill="white" fill-opacity="0.2"/>
<ellipse cx="221.556" cy="25.24" rx="3.04085" ry="2.80445" fill="white" fill-opacity="0.2"/>
<ellipse cx="149.338" cy="69.8416" rx="3.04085" ry="2.80445" fill="white" fill-opacity="0.2"/>
<ellipse cx="233.713" cy="69.8416" rx="3.04085" ry="2.80445" fill="white" fill-opacity="0.2"/>
<ellipse cx="149.338" cy="25.24" rx="3.04085" ry="2.80445" fill="white" fill-opacity="0.2"/>
<ellipse cx="233.713" cy="25.24" rx="3.04085" ry="2.80445" fill="white" fill-opacity="0.2"/>
<ellipse cx="161.502" cy="69.8416" rx="3.04085" ry="2.80445" fill="white" fill-opacity="0.2"/>
<ellipse cx="245.873" cy="69.8416" rx="3.04085" ry="2.80445" fill="white" fill-opacity="0.2"/>
<ellipse cx="161.502" cy="25.24" rx="3.04085" ry="2.80445" fill="white" fill-opacity="0.2"/>
<ellipse cx="245.873" cy="25.24" rx="3.04085" ry="2.80445" fill="white" fill-opacity="0.2"/>
<ellipse cx="173.664" cy="69.8416" rx="3.04085" ry="2.80445" fill="white" fill-opacity="0.2"/>
<ellipse cx="258.035" cy="69.8416" rx="3.04085" ry="2.80445" fill="white" fill-opacity="0.2"/>
<ellipse cx="173.664" cy="25.24" rx="3.04085" ry="2.80445" fill="white" fill-opacity="0.2"/>
<ellipse cx="258.035" cy="25.24" rx="3.04085" ry="2.80445" fill="white" fill-opacity="0.2"/>
<ellipse cx="185.832" cy="69.8416" rx="3.04085" ry="2.80445" fill="white" fill-opacity="0.2"/>
<ellipse cx="270.209" cy="69.8416" rx="3.04085" ry="2.80445" fill="white" fill-opacity="0.2"/>
<ellipse cx="185.832" cy="25.24" rx="3.04085" ry="2.80445" fill="white" fill-opacity="0.2"/>
<ellipse cx="270.209" cy="25.24" rx="3.04085" ry="2.80445" fill="white" fill-opacity="0.2"/>
<ellipse cx="197.994" cy="69.8416" rx="3.04085" ry="2.80445" fill="white" fill-opacity="0.2"/>
<ellipse cx="282.371" cy="69.8416" rx="3.04085" ry="2.80445" fill="white" fill-opacity="0.2"/>
<ellipse cx="197.994" cy="25.24" rx="3.04085" ry="2.80445" fill="white" fill-opacity="0.2"/>
<ellipse cx="282.371" cy="25.24" rx="3.04085" ry="2.80445" fill="white" fill-opacity="0.2"/>
<ellipse cx="112.849" cy="81.0588" rx="3.04085" ry="2.80445" fill="white" fill-opacity="0.2"/>
<ellipse cx="112.849" cy="36.4583" rx="3.04085" ry="2.80445" fill="white" fill-opacity="0.2"/>
<ellipse cx="209.764" cy="81.0588" rx="3.04085" ry="2.80445" fill="white" fill-opacity="0.2"/>
<ellipse cx="294.137" cy="81.0588" rx="3.04085" ry="2.80445" fill="white" fill-opacity="0.2"/>
<ellipse cx="209.764" cy="36.4583" rx="3.04085" ry="2.80445" fill="white" fill-opacity="0.2"/>
<ellipse cx="294.137" cy="36.4583" rx="3.04085" ry="2.80445" fill="white" fill-opacity="0.2"/>
<ellipse cx="125.014" cy="81.0588" rx="3.04085" ry="2.80445" fill="white" fill-opacity="0.2"/>
<ellipse cx="125.014" cy="36.4583" rx="3.04085" ry="2.80445" fill="white" fill-opacity="0.2"/>
<ellipse cx="137.185" cy="81.0588" rx="3.04085" ry="2.80445" fill="white" fill-opacity="0.2"/>
<ellipse cx="221.556" cy="81.0588" rx="3.04085" ry="2.80445" fill="white" fill-opacity="0.2"/>
<ellipse cx="137.185" cy="36.4583" rx="3.04085" ry="2.80445" fill="white" fill-opacity="0.2"/>
<ellipse cx="221.556" cy="36.4583" rx="3.04085" ry="2.80445" fill="white" fill-opacity="0.2"/>
<ellipse cx="149.338" cy="81.0588" rx="3.04085" ry="2.80445" fill="white" fill-opacity="0.2"/>
<ellipse cx="233.713" cy="81.0588" rx="3.04085" ry="2.80445" fill="white" fill-opacity="0.2"/>
<ellipse cx="149.338" cy="36.4583" rx="3.04085" ry="2.80445" fill="white" fill-opacity="0.2"/>
<ellipse cx="233.713" cy="36.4583" rx="3.04085" ry="2.80445" fill="white" fill-opacity="0.2"/>
<ellipse cx="161.502" cy="81.0588" rx="3.04085" ry="2.80445" fill="white" fill-opacity="0.2"/>
<ellipse cx="245.873" cy="81.0588" rx="3.04085" ry="2.80445" fill="white" fill-opacity="0.2"/>
<ellipse cx="161.502" cy="36.4583" rx="3.04085" ry="2.80445" fill="white" fill-opacity="0.2"/>
<ellipse cx="245.873" cy="36.4583" rx="3.04085" ry="2.80445" fill="white" fill-opacity="0.2"/>
<ellipse cx="173.664" cy="81.0588" rx="3.04085" ry="2.80445" fill="white" fill-opacity="0.2"/>
<ellipse cx="258.035" cy="81.0588" rx="3.04085" ry="2.80445" fill="white" fill-opacity="0.2"/>
<ellipse cx="173.664" cy="36.4583" rx="3.04085" ry="2.80445" fill="white" fill-opacity="0.2"/>
<ellipse cx="258.035" cy="36.4583" rx="3.04085" ry="2.80445" fill="white" fill-opacity="0.2"/>
<ellipse cx="185.832" cy="81.0588" rx="3.04085" ry="2.80445" fill="white" fill-opacity="0.2"/>
<ellipse cx="270.209" cy="81.0588" rx="3.04085" ry="2.80445" fill="white" fill-opacity="0.2"/>
<ellipse cx="185.832" cy="36.4583" rx="3.04085" ry="2.80445" fill="white" fill-opacity="0.2"/>
<ellipse cx="270.209" cy="36.4583" rx="3.04085" ry="2.80445" fill="white" fill-opacity="0.2"/>
<ellipse cx="197.994" cy="81.0588" rx="3.04085" ry="2.80445" fill="white" fill-opacity="0.2"/>
<ellipse cx="282.371" cy="81.0588" rx="3.04085" ry="2.80445" fill="white" fill-opacity="0.2"/>
<ellipse cx="197.994" cy="36.4583" rx="3.04085" ry="2.80445" fill="white" fill-opacity="0.2"/>
<ellipse cx="282.371" cy="36.4583" rx="3.04085" ry="2.80445" fill="white" fill-opacity="0.2"/>
<ellipse cx="112.849" cy="92.2771" rx="3.04085" ry="2.80445" fill="white" fill-opacity="0.2"/>
<ellipse cx="209.764" cy="92.2771" rx="3.04085" ry="2.80445" fill="white" fill-opacity="0.2"/>
<ellipse cx="294.137" cy="92.2771" rx="3.04085" ry="2.80445" fill="white" fill-opacity="0.2"/>
<ellipse cx="125.014" cy="92.2771" rx="3.04085" ry="2.80445" fill="white" fill-opacity="0.2"/>
<ellipse cx="137.185" cy="92.2771" rx="3.04085" ry="2.80445" fill="white" fill-opacity="0.2"/>
<ellipse cx="221.556" cy="92.2771" rx="3.04085" ry="2.80445" fill="white" fill-opacity="0.2"/>
<ellipse cx="149.338" cy="92.2771" rx="3.04085" ry="2.80445" fill="white" fill-opacity="0.2"/>
<ellipse cx="233.713" cy="92.2771" rx="3.04085" ry="2.80445" fill="white" fill-opacity="0.2"/>
<ellipse cx="161.502" cy="92.2771" rx="3.04085" ry="2.80445" fill="white" fill-opacity="0.2"/>
<ellipse cx="245.873" cy="92.2771" rx="3.04085" ry="2.80445" fill="white" fill-opacity="0.2"/>
<ellipse cx="173.664" cy="92.2771" rx="3.04085" ry="2.80445" fill="white" fill-opacity="0.2"/>
<ellipse cx="258.035" cy="92.2771" rx="3.04085" ry="2.80445" fill="white" fill-opacity="0.2"/>
<ellipse cx="185.832" cy="92.2771" rx="3.04085" ry="2.80445" fill="white" fill-opacity="0.2"/>
<ellipse cx="270.209" cy="92.2771" rx="3.04085" ry="2.80445" fill="white" fill-opacity="0.2"/>
<ellipse cx="197.994" cy="92.2771" rx="3.04085" ry="2.80445" fill="white" fill-opacity="0.2"/>
<ellipse cx="282.371" cy="92.2771" rx="3.04085" ry="2.80445" fill="white" fill-opacity="0.2"/>
<ellipse cx="112.849" cy="103.494" rx="3.04085" ry="2.80445" fill="white" fill-opacity="0.2"/>
<ellipse cx="112.849" cy="113.833" rx="3.04085" ry="2.80445" fill="white" fill-opacity="0.2"/>
<ellipse cx="209.764" cy="103.494" rx="3.04085" ry="2.80445" fill="white" fill-opacity="0.2"/>
<ellipse cx="294.137" cy="103.494" rx="3.04085" ry="2.80445" fill="white" fill-opacity="0.2"/>
<ellipse cx="209.764" cy="113.933" rx="3.04085" ry="2.80445" fill="white" fill-opacity="0.2"/>
<ellipse cx="294.137" cy="113.933" rx="3.04085" ry="2.80445" fill="white" fill-opacity="0.2"/>
<ellipse cx="125.014" cy="103.494" rx="3.04085" ry="2.80445" fill="white" fill-opacity="0.2"/>
<ellipse cx="125.014" cy="113.833" rx="3.04085" ry="2.80445" fill="white" fill-opacity="0.2"/>
<ellipse cx="137.185" cy="103.494" rx="3.04085" ry="2.80445" fill="white" fill-opacity="0.2"/>
<ellipse cx="221.556" cy="103.494" rx="3.04085" ry="2.80445" fill="white" fill-opacity="0.2"/>
<ellipse cx="137.185" cy="113.833" rx="3.04085" ry="2.80445" fill="white" fill-opacity="0.2"/>
<ellipse cx="221.556" cy="113.833" rx="3.04085" ry="2.80445" fill="white" fill-opacity="0.2"/>
<ellipse cx="149.338" cy="103.494" rx="3.04085" ry="2.80445" fill="white" fill-opacity="0.2"/>
<ellipse cx="233.713" cy="103.494" rx="3.04085" ry="2.80445" fill="white" fill-opacity="0.2"/>
<ellipse cx="149.338" cy="113.833" rx="3.04085" ry="2.80445" fill="white" fill-opacity="0.2"/>
<ellipse cx="233.713" cy="113.833" rx="3.04085" ry="2.80445" fill="white" fill-opacity="0.2"/>
<ellipse cx="161.502" cy="103.494" rx="3.04085" ry="2.80445" fill="white" fill-opacity="0.2"/>
<ellipse cx="245.873" cy="103.494" rx="3.04085" ry="2.80445" fill="white" fill-opacity="0.2"/>
<ellipse cx="161.502" cy="113.833" rx="3.04085" ry="2.80445" fill="white" fill-opacity="0.2"/>
<ellipse cx="245.873" cy="113.833" rx="3.04085" ry="2.80445" fill="white" fill-opacity="0.2"/>
<ellipse cx="173.664" cy="103.494" rx="3.04085" ry="2.80445" fill="white" fill-opacity="0.2"/>
<ellipse cx="258.035" cy="103.494" rx="3.04085" ry="2.80445" fill="white" fill-opacity="0.2"/>
<ellipse cx="173.664" cy="113.833" rx="3.04085" ry="2.80445" fill="white" fill-opacity="0.2"/>
<ellipse cx="258.035" cy="113.833" rx="3.04085" ry="2.80445" fill="white" fill-opacity="0.2"/>
<ellipse cx="185.832" cy="103.494" rx="3.04085" ry="2.80445" fill="white" fill-opacity="0.2"/>
<ellipse cx="270.209" cy="103.494" rx="3.04085" ry="2.80445" fill="white" fill-opacity="0.2"/>
<ellipse cx="185.832" cy="113.833" rx="3.04085" ry="2.80445" fill="white" fill-opacity="0.2"/>
<ellipse cx="270.209" cy="113.833" rx="3.04085" ry="2.80445" fill="white" fill-opacity="0.2"/>
<ellipse cx="197.994" cy="103.494" rx="3.04085" ry="2.80445" fill="white" fill-opacity="0.2"/>
<ellipse cx="282.371" cy="103.494" rx="3.04085" ry="2.80445" fill="white" fill-opacity="0.2"/>
<ellipse cx="197.994" cy="113.833" rx="3.04085" ry="2.80445" fill="white" fill-opacity="0.2"/>
<ellipse cx="282.371" cy="113.833" rx="3.04085" ry="2.80445" fill="white" fill-opacity="0.2"/>
<ellipse cx="3.04085" cy="47.406" rx="3.04085" ry="2.80445" fill="white" fill-opacity="0.01"/>
<ellipse cx="3.04085" cy="2.80445" rx="3.04085" ry="2.80445" fill="white" fill-opacity="0.01"/>
<ellipse cx="99.9608" cy="47.406" rx="3.04085" ry="2.80445" fill="white" fill-opacity="0.2"/>
<ellipse cx="99.9608" cy="2.80445" rx="3.04085" ry="2.80445" fill="white" fill-opacity="0.2"/>
<ellipse cx="15.2127" cy="47.406" rx="3.04085" ry="2.80445" fill="white" fill-opacity="0.02"/>
<ellipse cx="15.2127" cy="2.80445" rx="3.04085" ry="2.80445" fill="white" fill-opacity="0.02"/>
<ellipse cx="27.3729" cy="47.406" rx="3.04085" ry="2.80445" fill="white" fill-opacity="0.03"/>
<ellipse cx="27.3729" cy="2.80445" rx="3.04085" ry="2.80445" fill="white" fill-opacity="0.03"/>
<ellipse cx="39.5291" cy="47.406" rx="3.04085" ry="2.80445" fill="white" fill-opacity="0.04"/>
<ellipse cx="39.5291" cy="2.80445" rx="3.04085" ry="2.80445" fill="white" fill-opacity="0.04"/>
<ellipse cx="51.6991" cy="47.406" rx="3.04085" ry="2.80445" fill="white" fill-opacity="0.07"/>
<ellipse cx="51.6991" cy="2.80445" rx="3.04085" ry="2.80445" fill="white" fill-opacity="0.07"/>
<ellipse cx="63.8612" cy="47.406" rx="3.04085" ry="2.80445" fill="white" fill-opacity="0.09"/>
<ellipse cx="63.8612" cy="2.80445" rx="3.04085" ry="2.80445" fill="white" fill-opacity="0.09"/>
<ellipse cx="76.0252" cy="47.406" rx="3.04085" ry="2.80445" fill="white" fill-opacity="0.12"/>
<ellipse cx="76.0252" cy="2.80445" rx="3.04085" ry="2.80445" fill="white" fill-opacity="0.12"/>
<ellipse cx="88.1873" cy="47.406" rx="3.04085" ry="2.80445" fill="white" fill-opacity="0.2"/>
<ellipse cx="88.1873" cy="2.80445" rx="3.04085" ry="2.80445" fill="white" fill-opacity="0.2"/>
<ellipse cx="3.04085" cy="58.6228" rx="3.04085" ry="2.80445" fill="white" fill-opacity="0.01"/>
<ellipse cx="3.04085" cy="14.0222" rx="3.04085" ry="2.80445" fill="white" fill-opacity="0.01"/>
<ellipse cx="99.9608" cy="58.6228" rx="3.04085" ry="2.80445" fill="white" fill-opacity="0.2"/>
<ellipse cx="99.9608" cy="14.0222" rx="3.04085" ry="2.80445" fill="white" fill-opacity="0.2"/>
<ellipse cx="15.2127" cy="58.6228" rx="3.04085" ry="2.80445" fill="white" fill-opacity="0.02"/>
<ellipse cx="15.2127" cy="14.0222" rx="3.04085" ry="2.80445" fill="white" fill-opacity="0.02"/>
<ellipse cx="27.3729" cy="58.6228" rx="3.04085" ry="2.80445" fill="white" fill-opacity="0.03"/>
<ellipse cx="27.3729" cy="14.0222" rx="3.04085" ry="2.80445" fill="white" fill-opacity="0.03"/>
<ellipse cx="39.5291" cy="58.6228" rx="3.04085" ry="2.80445" fill="white" fill-opacity="0.04"/>
<ellipse cx="39.5291" cy="14.0222" rx="3.04085" ry="2.80445" fill="white" fill-opacity="0.04"/>
<ellipse cx="51.6991" cy="58.6228" rx="3.04085" ry="2.80445" fill="white" fill-opacity="0.07"/>
<ellipse cx="51.6991" cy="14.0222" rx="3.04085" ry="2.80445" fill="white" fill-opacity="0.07"/>
<ellipse cx="63.8612" cy="58.6228" rx="3.04085" ry="2.80445" fill="white" fill-opacity="0.09"/>
<ellipse cx="63.8612" cy="14.0222" rx="3.04085" ry="2.80445" fill="white" fill-opacity="0.09"/>
<ellipse cx="76.0252" cy="58.6228" rx="3.04085" ry="2.80445" fill="white" fill-opacity="0.12"/>
<ellipse cx="76.0252" cy="14.0222" rx="3.04085" ry="2.80445" fill="white" fill-opacity="0.12"/>
<ellipse cx="88.1873" cy="58.6228" rx="3.04085" ry="2.80445" fill="white" fill-opacity="0.2"/>
<ellipse cx="88.1873" cy="14.0222" rx="3.04085" ry="2.80445" fill="white" fill-opacity="0.2"/>
<ellipse cx="3.04085" cy="69.8416" rx="3.04085" ry="2.80445" fill="white" fill-opacity="0.01"/>
<ellipse cx="3.04085" cy="25.24" rx="3.04085" ry="2.80445" fill="white" fill-opacity="0.01"/>
<ellipse cx="99.9608" cy="69.8416" rx="3.04085" ry="2.80445" fill="white" fill-opacity="0.2"/>
<ellipse cx="99.9608" cy="25.24" rx="3.04085" ry="2.80445" fill="white" fill-opacity="0.2"/>
<ellipse cx="15.2127" cy="69.8416" rx="3.04085" ry="2.80445" fill="white" fill-opacity="0.02"/>
<ellipse cx="15.2127" cy="25.24" rx="3.04085" ry="2.80445" fill="white" fill-opacity="0.02"/>
<ellipse cx="27.3729" cy="69.8416" rx="3.04085" ry="2.80445" fill="white" fill-opacity="0.03"/>
<ellipse cx="27.3729" cy="25.24" rx="3.04085" ry="2.80445" fill="white" fill-opacity="0.03"/>
<ellipse cx="39.5291" cy="69.8416" rx="3.04085" ry="2.80445" fill="white" fill-opacity="0.04"/>
<ellipse cx="39.5291" cy="25.24" rx="3.04085" ry="2.80445" fill="white" fill-opacity="0.04"/>
<ellipse cx="51.6991" cy="69.8416" rx="3.04085" ry="2.80445" fill="white" fill-opacity="0.07"/>
<ellipse cx="51.6991" cy="25.24" rx="3.04085" ry="2.80445" fill="white" fill-opacity="0.07"/>
<ellipse cx="63.8612" cy="69.8416" rx="3.04085" ry="2.80445" fill="white" fill-opacity="0.09"/>
<ellipse cx="63.8612" cy="25.24" rx="3.04085" ry="2.80445" fill="white" fill-opacity="0.09"/>
<ellipse cx="76.0252" cy="69.8416" rx="3.04085" ry="2.80445" fill="white" fill-opacity="0.12"/>
<ellipse cx="76.0252" cy="25.24" rx="3.04085" ry="2.80445" fill="white" fill-opacity="0.12"/>
<ellipse cx="88.1873" cy="69.8416" rx="3.04085" ry="2.80445" fill="white" fill-opacity="0.2"/>
<ellipse cx="88.1873" cy="25.24" rx="3.04085" ry="2.80445" fill="white" fill-opacity="0.2"/>
<ellipse cx="3.04085" cy="81.0588" rx="3.04085" ry="2.80445" fill="white" fill-opacity="0.01"/>
<ellipse cx="3.04085" cy="36.4583" rx="3.04085" ry="2.80445" fill="white" fill-opacity="0.01"/>
<ellipse cx="99.9608" cy="81.0588" rx="3.04085" ry="2.80445" fill="white" fill-opacity="0.2"/>
<ellipse cx="99.9608" cy="36.4583" rx="3.04085" ry="2.80445" fill="white" fill-opacity="0.2"/>
<ellipse cx="15.2127" cy="81.0588" rx="3.04085" ry="2.80445" fill="white" fill-opacity="0.02"/>
<ellipse cx="15.2127" cy="36.4583" rx="3.04085" ry="2.80445" fill="white" fill-opacity="0.02"/>
<ellipse cx="27.3729" cy="81.0588" rx="3.04085" ry="2.80445" fill="white" fill-opacity="0.03"/>
<ellipse cx="27.3729" cy="36.4583" rx="3.04085" ry="2.80445" fill="white" fill-opacity="0.03"/>
<ellipse cx="39.5291" cy="81.0588" rx="3.04085" ry="2.80445" fill="white" fill-opacity="0.04"/>
<ellipse cx="39.5291" cy="36.4583" rx="3.04085" ry="2.80445" fill="white" fill-opacity="0.04"/>
<ellipse cx="51.6991" cy="81.0588" rx="3.04085" ry="2.80445" fill="white" fill-opacity="0.07"/>
<ellipse cx="51.6991" cy="36.4583" rx="3.04085" ry="2.80445" fill="white" fill-opacity="0.07"/>
<ellipse cx="63.8612" cy="81.0588" rx="3.04085" ry="2.80445" fill="white" fill-opacity="0.09"/>
<ellipse cx="63.8612" cy="36.4583" rx="3.04085" ry="2.80445" fill="white" fill-opacity="0.09"/>
<ellipse cx="76.0252" cy="81.0588" rx="3.04085" ry="2.80445" fill="white" fill-opacity="0.12"/>
<ellipse cx="76.0252" cy="36.4583" rx="3.04085" ry="2.80445" fill="white" fill-opacity="0.12"/>
<ellipse cx="88.1873" cy="81.0588" rx="3.04085" ry="2.80445" fill="white" fill-opacity="0.2"/>
<ellipse cx="88.1873" cy="36.4583" rx="3.04085" ry="2.80445" fill="white" fill-opacity="0.2"/>
<ellipse cx="3.04085" cy="92.2771" rx="3.04085" ry="2.80445" fill="white" fill-opacity="0.01"/>
<ellipse cx="99.9608" cy="92.2771" rx="3.04085" ry="2.80445" fill="white" fill-opacity="0.2"/>
<ellipse cx="15.2127" cy="92.2771" rx="3.04085" ry="2.80445" fill="white" fill-opacity="0.02"/>
<ellipse cx="27.3729" cy="92.2771" rx="3.04085" ry="2.80445" fill="white" fill-opacity="0.03"/>
<ellipse cx="39.5291" cy="92.2771" rx="3.04085" ry="2.80445" fill="white" fill-opacity="0.04"/>
<ellipse cx="51.6991" cy="92.2771" rx="3.04085" ry="2.80445" fill="white" fill-opacity="0.07"/>
<ellipse cx="63.8612" cy="92.2771" rx="3.04085" ry="2.80445" fill="white" fill-opacity="0.09"/>
<ellipse cx="76.0252" cy="92.2771" rx="3.04085" ry="2.80445" fill="white" fill-opacity="0.12"/>
<ellipse cx="88.1873" cy="92.2771" rx="3.04085" ry="2.80445" fill="white" fill-opacity="0.2"/>
<ellipse cx="3.04085" cy="103.494" rx="3.04085" ry="2.80445" fill="white" fill-opacity="0.01"/>
<ellipse cx="3.04085" cy="113.833" rx="3.04085" ry="2.80445" fill="white" fill-opacity="0.01"/>
<ellipse cx="99.9608" cy="103.494" rx="3.04085" ry="2.80445" fill="white" fill-opacity="0.2"/>
<ellipse cx="99.9608" cy="113.833" rx="3.04085" ry="2.80445" fill="white" fill-opacity="0.2"/>
<ellipse cx="15.2127" cy="103.494" rx="3.04085" ry="2.80445" fill="white" fill-opacity="0.02"/>
<ellipse cx="15.2127" cy="113.833" rx="3.04085" ry="2.80445" fill="white" fill-opacity="0.02"/>
<ellipse cx="27.3729" cy="103.494" rx="3.04085" ry="2.80445" fill="white" fill-opacity="0.03"/>
<ellipse cx="27.3729" cy="113.833" rx="3.04085" ry="2.80445" fill="white" fill-opacity="0.03"/>
<ellipse cx="39.5291" cy="103.494" rx="3.04085" ry="2.80445" fill="white" fill-opacity="0.04"/>
<ellipse cx="39.5291" cy="113.833" rx="3.04085" ry="2.80445" fill="white" fill-opacity="0.04"/>
<ellipse cx="51.6991" cy="103.494" rx="3.04085" ry="2.80445" fill="white" fill-opacity="0.07"/>
<ellipse cx="51.6991" cy="113.833" rx="3.04085" ry="2.80445" fill="white" fill-opacity="0.07"/>
<ellipse cx="63.8612" cy="103.494" rx="3.04085" ry="2.80445" fill="white" fill-opacity="0.09"/>
<ellipse cx="63.8612" cy="113.833" rx="3.04085" ry="2.80445" fill="white" fill-opacity="0.09"/>
<ellipse cx="76.0252" cy="103.494" rx="3.04085" ry="2.80445" fill="white" fill-opacity="0.12"/>
<ellipse cx="76.0252" cy="113.833" rx="3.04085" ry="2.80445" fill="white" fill-opacity="0.12"/>
<ellipse cx="88.1873" cy="103.494" rx="3.04085" ry="2.80445" fill="white" fill-opacity="0.2"/>
<ellipse cx="88.1873" cy="113.833" rx="3.04085" ry="2.80445" fill="white" fill-opacity="0.2"/>
</svg>
