<svg width="362" height="113" viewBox="0 0 362 113" fill="none" xmlns="http://www.w3.org/2000/svg">
<path d="M45 16C45 9.37258 39.6274 4 33 4C26.3726 4 21 9.37258 21 16C21 22.6274 26.3726 28 33 28C39.6274 28 45 22.6274 45 16Z" fill="white"/>
<path fill-rule="evenodd" clip-rule="evenodd" d="M29 9.16602V22.8334L39.2832 15.9997L29 9.16602Z" fill="#117AEF"/>
<path d="M93 18.062V24H95V18.062C98.946 18.554 102 21.92 102 26H86C86 24.0514 86.7112 22.1698 88 20.7083C89.2888 19.2467 91.0667 18.3058 93 18.062ZM94 17C90.685 17 88 14.315 88 11C88 7.685 90.685 5 94 5C97.315 5 100 7.685 100 11C100 14.315 97.315 17 94 17Z" fill="#117AEF"/>
<path d="M149.386 4.92731C149.685 4.006 150.989 4.006 151.288 4.92731L152.807 9.60107C152.941 10.0131 153.324 10.2921 153.758 10.2921H158.672C159.641 10.2921 160.043 11.5317 159.26 12.1011L155.284 14.9897C154.934 15.2443 154.787 15.6957 154.921 16.1077L156.439 20.7815C156.739 21.7028 155.684 22.4689 154.901 21.8995L150.925 19.0109C150.574 18.7563 150.1 18.7563 149.749 19.0109L145.773 21.8995C144.99 22.4689 143.935 21.7028 144.235 20.7815L145.753 16.1077C145.887 15.6957 145.74 15.2443 145.39 14.9897L141.414 12.1011C140.631 11.5317 141.033 10.2921 142.002 10.2921H146.916C147.35 10.2921 147.733 10.0131 147.867 9.60107L149.386 4.92731Z" fill="#F1B006"/>
<path d="M262.834 99.4738C262.831 99.126 262.949 98.7881 263.168 98.5174C263.386 98.2468 263.691 98.0603 264.032 97.9898V97.6695C264.032 97.4417 264.213 97.2581 264.436 97.2581C264.66 97.2581 264.841 97.4417 264.841 97.6695V98.0001C265.081 98.0637 265.303 98.1821 265.489 98.3461C265.675 98.51 265.821 98.715 265.915 98.9448C265.953 99.0444 265.951 99.1547 265.909 99.2529C265.868 99.3511 265.791 99.4296 265.693 99.4723C265.596 99.5134 265.486 99.5145 265.388 99.4753C265.289 99.4361 265.211 99.3598 265.168 99.2629C265.11 99.1172 265.009 98.9924 264.879 98.9043C264.749 98.8162 264.595 98.769 264.438 98.7685C264.056 98.7685 263.646 98.9889 263.646 99.4738C263.646 99.6009 263.646 99.9836 264.529 100.19H264.542C265.837 100.499 266.039 101.271 266.039 101.706C266.042 102.053 265.924 102.391 265.706 102.662C265.488 102.932 265.183 103.119 264.843 103.19V103.52C264.843 103.748 264.661 103.932 264.438 103.932C264.33 103.931 264.227 103.887 264.151 103.81C264.075 103.733 264.033 103.628 264.033 103.52V103.19C263.793 103.126 263.572 103.007 263.385 102.844C263.199 102.68 263.053 102.475 262.959 102.245C262.929 102.178 262.918 102.104 262.925 102.03C262.933 101.957 262.96 101.887 263.003 101.828C263.046 101.769 263.104 101.723 263.172 101.694C263.239 101.666 263.312 101.656 263.384 101.666C263.456 101.677 263.524 101.706 263.581 101.752C263.638 101.798 263.681 101.858 263.706 101.927C263.83 102.227 264.119 102.422 264.438 102.421C264.82 102.421 265.229 102.201 265.229 101.716C265.229 101.588 265.229 101.206 264.348 101H264.335C263.029 100.683 262.834 99.9094 262.834 99.4738ZM265.749 93.8155C265.932 93.9419 266.181 93.8964 266.308 93.712L267.702 91.6895C267.761 91.6041 267.785 91.5001 267.772 91.3976C267.758 91.295 267.707 91.2012 267.628 91.1341C265.837 89.6207 263.033 89.6215 261.243 91.1392C261.165 91.2061 261.114 91.2998 261.1 91.4021C261.086 91.5044 261.111 91.6081 261.17 91.6932L262.565 93.712C262.696 93.8883 262.941 93.9272 263.119 93.8001C263.206 93.7377 263.265 93.6448 263.285 93.5404C263.305 93.4359 263.284 93.3278 263.227 93.2381L262.058 91.5448C262.761 91.0714 263.589 90.8186 264.436 90.8186C265.284 90.8186 266.112 91.0714 266.815 91.5448L265.646 93.2418C265.584 93.3314 265.56 93.4415 265.579 93.5487C265.597 93.6558 265.656 93.7516 265.744 93.8155H265.749ZM258.984 101.845C258.992 99.0903 260.188 96.4772 262.257 94.7015C262.329 94.6388 262.422 94.6041 262.518 94.6038H266.353C266.449 94.6038 266.541 94.6383 266.614 94.7015C268.684 96.4764 269.881 99.0895 269.888 101.846V103.018L270.013 103.079C270.323 103.233 270.573 103.487 270.721 103.799C270.87 104.112 270.909 104.465 270.833 104.803C270.761 105.14 270.577 105.442 270.31 105.66C270.043 105.877 269.71 105.998 269.365 106H259.506C259.161 105.998 258.828 105.877 258.561 105.66C258.294 105.442 258.11 105.14 258.038 104.803C257.962 104.465 258.001 104.112 258.15 103.799C258.298 103.487 258.548 103.233 258.858 103.079L258.983 103.018L258.984 101.845ZM258.823 104.621C258.855 104.778 258.94 104.918 259.064 105.019C259.188 105.12 259.343 105.175 259.503 105.175H269.363C269.522 105.174 269.676 105.118 269.799 105.018C269.922 104.917 270.008 104.778 270.041 104.622C270.077 104.466 270.059 104.303 269.991 104.158C269.922 104.014 269.807 103.896 269.664 103.824L269.31 103.66C269.24 103.624 269.181 103.57 269.14 103.502C269.1 103.434 269.08 103.357 269.082 103.278V101.845C269.08 100.633 268.823 99.4358 268.327 98.3302C267.831 97.2246 267.108 96.236 266.204 95.4288H262.668C261.765 96.2364 261.042 97.2255 260.546 98.3315C260.051 99.4375 259.795 100.636 259.794 101.847V103.278C259.794 103.356 259.772 103.431 259.732 103.497C259.691 103.562 259.633 103.615 259.564 103.649L259.21 103.815C259.063 103.885 258.945 104.003 258.875 104.15C258.805 104.297 258.788 104.463 258.825 104.621H258.823Z" fill="#27BA44"/>
<path fill-rule="evenodd" clip-rule="evenodd" d="M207 8C209.122 8 211.157 8.84285 212.657 10.3431C214.157 11.8434 215 13.8783 215 16C215 18.1217 214.157 20.1566 212.657 21.6569C211.157 23.1572 209.122 24 207 24C204.878 24 202.843 23.1572 201.343 21.6569C199.843 20.1566 199 18.1217 199 16C199 13.8783 199.843 11.8434 201.343 10.3431C202.843 8.84285 204.878 8 207 8Z" fill="#27BA44"/>
<path d="M207.502 12.6084C207.594 12.6351 207.69 12.6433 207.784 12.6324C207.879 12.6215 207.971 12.5918 208.054 12.545C208.137 12.4982 208.21 12.4353 208.268 12.3599C208.327 12.2846 208.37 12.1983 208.394 12.1061C208.419 12.014 208.425 11.9178 208.412 11.8234C208.399 11.7289 208.367 11.6379 208.319 11.5559C208.27 11.4739 208.205 11.4023 208.129 11.3456C208.052 11.2888 207.965 11.248 207.872 11.2254C207.69 11.1811 207.498 11.2098 207.338 11.3052C207.177 11.4006 207.059 11.5553 207.011 11.736C206.963 11.9168 206.987 12.1093 207.079 12.2723C207.171 12.4354 207.323 12.556 207.502 12.6084ZM205.966 15.5734L204.82 19.8494C204.612 20.6274 205.512 21.1374 206.698 20.5374C207.268 20.2484 208.096 19.5274 208.564 18.8744C208.564 18.8744 206.204 20.2144 206.598 18.7464L207.744 14.4704C207.952 13.6924 207.052 13.1824 205.866 13.7824C205.296 14.0714 204.468 14.7924 204 15.4444C204 15.4444 206.36 14.1054 205.966 15.5734Z" fill="white"/>
<path d="M264 25C268.971 25 273 20.9706 273 16C273 11.0294 268.971 7 264 7C259.029 7 255 11.0294 255 16C255 20.9706 259.029 25 264 25Z" stroke="#1179EF" stroke-width="1.2"/>
<path d="M260 15.8002L262.782 19L268 13" stroke="#1179EF" stroke-width="1.5" stroke-linecap="round"/>
<path d="M149.743 89.0787H147.1C146.892 89.0787 146.723 89.3268 146.723 89.6315V104.369C146.723 104.674 146.892 104.923 147.101 104.923H149.743C149.95 104.923 150.12 104.674 150.12 104.369V89.6327C150.12 89.3268 149.95 89.0787 149.743 89.0787ZM147.478 93.4228H149.367V100.227H147.478V93.4228ZM149.367 90.1842V92.5023H147.478V90.1842H149.367ZM147.478 103.816V101.148H149.367V103.817H147.478V103.816ZM153.417 89.0132L150.89 89.8367C150.691 89.9022 150.597 90.1905 150.681 90.4827L154.722 104.576C154.805 104.868 155.035 105.052 155.234 104.987L157.761 104.163C157.96 104.099 158.053 103.809 157.969 103.517L153.928 89.4237C153.846 89.1316 153.616 88.9478 153.417 89.0132ZM152.442 93.8735L154.248 93.2855L156.114 99.7915L154.308 100.38L152.442 93.8735ZM153.361 90.1868L153.997 92.4041L152.19 92.9934L151.554 90.776L153.361 90.1868ZM155.291 103.812L154.559 101.261L156.367 100.672L157.099 103.223L155.291 103.812ZM145.019 89.0787H142.377C142.169 89.0787 142 89.3268 142 89.6315V104.369C142 104.674 142.169 104.923 142.378 104.923H145.019C145.227 104.923 145.397 104.674 145.397 104.369V89.6327C145.397 89.3268 145.227 89.0787 145.019 89.0787ZM142.755 93.4228H144.644V100.227H142.755V93.4228ZM144.644 90.1842V92.5023H142.755V90.1842H144.644ZM142.755 103.816V101.148H144.644V103.817H142.755V103.816Z" fill="#117AEF"/>
<path d="M38.1797 94.6992L33.0009 99.3026L27.8221 94.6992" stroke="#272C37" stroke-width="1.72626" stroke-linecap="round" stroke-linejoin="round"/>
<path d="M88.4 104L87 102.6L92.6 97L87 91.4L88.4 90L94 95.6L99.6 90L101 91.4L95.4 97L101 102.6L99.6 104L94 98.4L88.4 104Z" fill="#51565E"/>
<path d="M258.82 61.3008L263.999 56.6974L269.178 61.3008" stroke="#117AEF" stroke-width="1.72626" stroke-linecap="round" stroke-linejoin="round"/>
<path d="M206.743 51.0787H204.1C203.892 51.0787 203.723 51.3268 203.723 51.6315V66.3685C203.723 66.6745 203.892 66.9225 204.101 66.9225H206.743C206.95 66.9225 207.12 66.6745 207.12 66.3685V51.6327C207.12 51.3268 206.95 51.0787 206.743 51.0787ZM204.478 55.4228H206.367V62.2272H204.478V55.4228ZM206.367 52.1842V54.5023H204.478V52.1842H206.367ZM204.478 65.8158V63.1476H206.367V65.817H204.478V65.8158ZM210.417 51.0132L207.89 51.8367C207.691 51.9022 207.597 52.1905 207.681 52.4827L211.722 66.5763C211.805 66.8684 212.035 67.0522 212.234 66.9868L214.761 66.1633C214.96 66.0991 215.053 65.8095 214.969 65.5173L210.928 51.4237C210.846 51.1316 210.616 50.9478 210.417 51.0132ZM209.442 55.8735L211.248 55.2855L213.114 61.7915L211.308 62.3795L209.442 55.8735ZM210.361 52.1868L210.997 54.4041L209.19 54.9934L208.554 52.776L210.361 52.1868ZM212.291 65.812L211.559 63.261L213.367 62.6717L214.099 65.2227L212.291 65.812ZM202.019 51.0787H199.377C199.169 51.0787 199 51.3268 199 51.6315V66.3685C199 66.6745 199.169 66.9225 199.378 66.9225H202.019C202.227 66.9225 202.397 66.6745 202.397 66.3685V51.6327C202.397 51.3268 202.227 51.0787 202.019 51.0787ZM199.755 55.4228H201.644V62.2272H199.755V55.4228ZM201.644 52.1842V54.5023H199.755V52.1842H201.644ZM199.755 65.8158V63.1476H201.644V65.817H199.755V65.8158Z" fill="#848DA0"/>
<path fill-rule="evenodd" clip-rule="evenodd" d="M157 54C157 52.8954 156.164 52 155.133 52H144.867C143.836 52 143 52.8954 143 54V64C143 65.1046 143.836 66 144.867 66H155.133C156.164 66 157 65.1046 157 64V54ZM144.867 53H155.133L155.242 53.0067C155.706 53.0645 156.067 53.4872 156.067 54V64L156.06 64.1166C156.006 64.614 155.612 65 155.133 65H144.867L144.758 64.9933C144.294 64.9355 143.933 64.5128 143.933 64V54L143.94 53.8834C143.994 53.386 144.388 53 144.867 53Z" fill="#848DA0"/>
<path fill-rule="evenodd" clip-rule="evenodd" d="M149.534 58V55H145.801V58H149.534ZM146.734 56H148.601V57H146.734V56Z" fill="#848DA0"/>
<path fill-rule="evenodd" clip-rule="evenodd" d="M149.534 63V60H145.801V63H149.534ZM146.734 61H148.601V62H146.734V61Z" fill="#848DA0"/>
<path d="M154.198 56V57H150.465V56H154.198Z" fill="#848DA0"/>
<path d="M154.198 61V62H150.465V61H154.198Z" fill="#848DA0"/>
<path d="M94 51C91.8783 51 89.8434 51.8429 88.3431 53.3431C86.8429 54.8434 86 56.8783 86 59C86 61.1217 86.8429 63.1566 88.3431 64.6569C89.8434 66.1571 91.8783 67 94 67C96.1217 67 98.1566 66.1571 99.6569 64.6569C101.157 63.1566 102 61.1217 102 59C102 56.8783 101.157 54.8434 99.6569 53.3431C98.1566 51.8429 96.1217 51 94 51ZM94 51.9275C95.8757 51.9275 97.6746 52.6727 99.001 53.999C100.327 55.3254 101.072 57.1243 101.072 59C101.072 60.8757 100.327 62.6746 99.001 64.001C97.6746 65.3273 95.8757 66.0725 94 66.0725C92.1243 66.0725 90.3254 65.3273 88.999 64.001C87.6727 62.6746 86.9275 60.8757 86.9275 59C86.9275 57.1243 87.6727 55.3254 88.999 53.999C90.3254 52.6727 92.1243 51.9275 94 51.9275Z" fill="#848DA0"/>
<path d="M93.8846 53.7832V59.1165H98.0585V60.0441H92.957V53.7832H93.8846Z" fill="#848DA0"/>
<path d="M38.9372 52.2505H37.4997V51.4997C37.4997 51.3672 37.447 51.2401 37.3533 51.1464C37.2596 51.0526 37.1325 51 37 51C36.8675 51 36.7404 51.0526 36.6467 51.1464C36.553 51.2401 36.5003 51.3672 36.5003 51.4997V52.2505H29.4997V51.4997C29.4997 51.3672 29.447 51.2401 29.3533 51.1464C29.2596 51.0526 29.1325 51 29 51C28.8675 51 28.7404 51.0526 28.6467 51.1464C28.553 51.2401 28.5003 51.3672 28.5003 51.4997V52.2505H27.0628C25.9255 52.2505 25 53.1748 25 54.312V64.9372C25 66.0745 25.9255 67 27.0628 67H38.9372C40.0745 67 41 66.0745 41 64.9372V54.312C41 53.1748 40.0745 52.2505 38.9372 52.2505ZM27.0628 53.2498H28.5003V53.7495C28.5003 53.8821 28.553 54.0092 28.6467 54.1029C28.7404 54.1966 28.8675 54.2492 29 54.2492C29.1325 54.2492 29.2596 54.1966 29.3533 54.1029C29.447 54.0092 29.4997 53.8821 29.4997 53.7495V53.2498H36.5003V53.7495C36.5003 53.8821 36.553 54.0092 36.6467 54.1029C36.7404 54.1966 36.8675 54.2492 37 54.2492C37.1325 54.2492 37.2596 54.1966 37.3533 54.1029C37.447 54.0092 37.4997 53.8821 37.4997 53.7495V53.2498H38.9372C39.5231 53.2498 40.0006 53.7262 40.0006 54.312V55.4997H25.9982V54.312C25.9982 53.7262 26.4769 53.2498 27.0628 53.2498ZM38.9372 66.0006H27.0628C26.7807 66.0006 26.5103 65.8886 26.3108 65.6892C26.1114 65.4897 25.9994 65.2193 25.9994 64.9372V56.5015H40.0006V64.9385C40.0006 65.2205 39.8886 65.491 39.6892 65.6904C39.4897 65.8898 39.2193 66.0006 38.9372 66.0006Z" fill="#848DA0"/>
<path fill-rule="evenodd" clip-rule="evenodd" d="M213.227 90.5996H200.773C199.793 90.5996 199 91.3142 199 92.1957V103.404C199 104.286 199.794 105 200.773 105H213.227C214.207 105 215 104.286 215 103.404V92.1957C215 91.3137 214.206 90.5996 213.227 90.5996ZM200.772 104.201C200.283 104.201 199.887 103.845 199.887 103.405V92.1964C199.887 91.7565 200.283 91.4003 200.772 91.4003H213.225C213.714 91.4003 214.11 91.7564 214.11 92.1964V103.405C214.11 103.845 213.714 104.201 213.225 104.201H200.772Z" fill="#272C37"/>
<rect x="201.668" y="89" width="1.77778" height="1.60006" fill="#272C37"/>
<rect x="210.555" y="89" width="1.77778" height="1.60006" fill="#272C37"/>
<path d="M199.887 94.6005H214.109V91.4004H199.887V94.6005V94.6005Z" fill="#272C37"/>
<path fill-rule="evenodd" clip-rule="evenodd" d="M202.902 100.781L204.616 99.4687C204.787 99.3365 204.931 99.218 205.05 99.1135C205.168 99.009 205.264 98.9108 205.338 98.8191C205.411 98.7274 205.465 98.6367 205.498 98.5471C205.531 98.4575 205.548 98.3615 205.548 98.2591C205.548 98.0372 205.471 97.8655 205.317 97.7439C205.162 97.6223 204.972 97.5614 204.744 97.5614C204.517 97.5614 204.316 97.6169 204.143 97.7279C203.97 97.8388 203.789 98.0073 203.599 98.2335L202.973 97.7919C203.092 97.6425 203.213 97.5102 203.336 97.395C203.459 97.2798 203.593 97.1817 203.738 97.1006C203.882 97.0196 204.041 96.9588 204.214 96.9182C204.387 96.8777 204.585 96.8574 204.808 96.8574C205.05 96.8574 205.272 96.8894 205.473 96.9534C205.674 97.0174 205.848 97.1081 205.992 97.2254C206.137 97.3428 206.249 97.4836 206.33 97.6479C206.41 97.8121 206.451 97.9945 206.451 98.1951V98.2079C206.451 98.3828 206.425 98.5418 206.373 98.6847C206.32 98.8276 206.241 98.9652 206.134 99.0975C206.028 99.2298 205.893 99.3631 205.729 99.4975C205.565 99.6319 205.375 99.7802 205.157 99.9423L204.133 100.71H206.501V101.402H202.902V100.781ZM209.151 101.466C208.881 101.466 208.63 101.435 208.397 101.373C208.165 101.311 207.964 101.225 207.793 101.114C207.622 101.003 207.489 100.867 207.395 100.707C207.3 100.547 207.252 100.371 207.252 100.179V100.166C207.252 99.8975 207.331 99.6757 207.487 99.5007C207.644 99.3258 207.864 99.185 208.148 99.0783C207.935 98.9802 207.761 98.8522 207.626 98.6943C207.491 98.5364 207.423 98.3316 207.423 98.0799V98.0671C207.423 97.8964 207.467 97.7375 207.555 97.5903C207.642 97.443 207.762 97.315 207.914 97.2062C208.065 97.0974 208.247 97.0121 208.458 96.9502C208.669 96.8884 208.9 96.8574 209.151 96.8574C209.398 96.8574 209.628 96.8884 209.841 96.9502C210.054 97.0121 210.237 97.0964 210.388 97.203C210.54 97.3097 210.66 97.4377 210.748 97.5871C210.835 97.7364 210.879 97.8964 210.879 98.0671V98.0799C210.879 98.3316 210.812 98.5364 210.676 98.6943C210.541 98.8522 210.367 98.9802 210.154 99.0783C210.429 99.1892 210.647 99.329 210.808 99.4975C210.969 99.6661 211.05 99.8847 211.05 100.154V100.166C211.05 100.367 211.002 100.547 210.908 100.707C210.813 100.867 210.68 101.004 210.509 101.117C210.339 101.23 210.137 101.316 209.905 101.376C209.673 101.436 209.421 101.466 209.151 101.466V101.466ZM209.154 98.8167C209.41 98.8167 209.622 98.7548 209.79 98.6311C209.959 98.5073 210.043 98.3495 210.043 98.1575V98.1446C210.043 97.9697 209.962 97.8214 209.801 97.6998C209.64 97.5782 209.424 97.5174 209.154 97.5174C208.884 97.5174 208.668 97.5782 208.507 97.6998C208.346 97.8214 208.265 97.9676 208.265 98.1382V98.1511C208.265 98.3473 208.349 98.5073 208.517 98.6311C208.686 98.7548 208.898 98.8167 209.154 98.8167V98.8167ZM209.153 100.806C209.48 100.806 209.736 100.741 209.921 100.611C210.106 100.481 210.199 100.322 210.199 100.134V100.122C210.199 100.019 210.171 99.9263 210.117 99.8431C210.062 99.7599 209.989 99.6885 209.896 99.6287C209.804 99.569 209.694 99.5231 209.566 99.4911C209.438 99.4591 209.3 99.4431 209.153 99.4431C209.006 99.4431 208.869 99.4591 208.741 99.4911C208.613 99.5231 208.503 99.569 208.41 99.6287C208.318 99.6885 208.245 99.7599 208.193 99.8431C208.141 99.9263 208.115 100.019 208.115 100.122V100.134C208.115 100.318 208.206 100.476 208.389 100.608C208.571 100.74 208.826 100.806 209.153 100.806V100.806Z" fill="#272C37"/>
<path d="M313.82 18.3018L318.999 13.6984L324.178 18.3018" stroke="#272C37" stroke-width="1.72626" stroke-linecap="round" stroke-linejoin="round"/>
</svg>
