<svg width="204" height="137" viewBox="0 0 204 137" fill="none" xmlns="http://www.w3.org/2000/svg">
<path fill-rule="evenodd" clip-rule="evenodd" d="M154 0.224121H58L69.9671 16.2241L58 32.2241H154V0.224121Z" fill="#F1B006"/>
<g filter="url(#filter0_d_1780_45837)">
<path d="M84.4639 17.5122H81.873V16.1519H84.4639C84.915 16.1519 85.2796 16.0789 85.5576 15.9331C85.8356 15.7873 86.0384 15.5868 86.166 15.3315C86.2982 15.0718 86.3643 14.7756 86.3643 14.4429C86.3643 14.1284 86.2982 13.8345 86.166 13.561C86.0384 13.283 85.8356 13.0597 85.5576 12.8911C85.2796 12.7225 84.915 12.6382 84.4639 12.6382H82.3994V21.2241H80.6836V11.271H84.4639C85.234 11.271 85.888 11.4077 86.4258 11.6812C86.9681 11.95 87.3805 12.3237 87.6631 12.8022C87.9456 13.2762 88.0869 13.8185 88.0869 14.4292C88.0869 15.0718 87.9456 15.6232 87.6631 16.0835C87.3805 16.5438 86.9681 16.897 86.4258 17.1431C85.888 17.3892 85.234 17.5122 84.4639 17.5122ZM91.1152 15.2358V21.2241H89.4678V13.8276H91.04L91.1152 15.2358ZM93.3779 13.7798L93.3643 15.311C93.264 15.2928 93.1546 15.2791 93.0361 15.27C92.9222 15.2609 92.8083 15.2563 92.6943 15.2563C92.4118 15.2563 92.1634 15.2974 91.9492 15.3794C91.735 15.4569 91.555 15.5708 91.4092 15.7212C91.2679 15.867 91.1585 16.0448 91.0811 16.2544C91.0036 16.464 90.958 16.6987 90.9443 16.9585L90.5684 16.9858C90.5684 16.521 90.6139 16.0903 90.7051 15.6938C90.7962 15.2974 90.9329 14.9487 91.1152 14.6479C91.3021 14.3472 91.5345 14.1125 91.8125 13.9438C92.0951 13.7752 92.4209 13.6909 92.79 13.6909C92.8903 13.6909 92.9974 13.7 93.1113 13.7183C93.2298 13.7365 93.3187 13.757 93.3779 13.7798ZM97.5342 21.3608C96.9873 21.3608 96.4928 21.272 96.0508 21.0942C95.6133 20.9119 95.2396 20.659 94.9297 20.3354C94.6243 20.0119 94.3896 19.6313 94.2256 19.1938C94.0615 18.7563 93.9795 18.2847 93.9795 17.7788V17.5054C93.9795 16.9266 94.0638 16.4025 94.2324 15.9331C94.401 15.4637 94.6357 15.0627 94.9365 14.73C95.2373 14.3927 95.5928 14.1353 96.0029 13.9575C96.4131 13.7798 96.8574 13.6909 97.3359 13.6909C97.8646 13.6909 98.3271 13.7798 98.7236 13.9575C99.1201 14.1353 99.4482 14.3859 99.708 14.7095C99.9723 15.0285 100.168 15.409 100.296 15.8511C100.428 16.2931 100.494 16.7808 100.494 17.314V18.0181H94.7793V16.8354H98.8672V16.7056C98.8581 16.4093 98.7988 16.1313 98.6895 15.8716C98.5846 15.6118 98.4229 15.4022 98.2041 15.2427C97.9854 15.0832 97.6937 15.0034 97.3291 15.0034C97.0557 15.0034 96.8118 15.0627 96.5977 15.1812C96.388 15.2951 96.2126 15.4614 96.0713 15.6802C95.93 15.8989 95.8206 16.1632 95.7432 16.4731C95.6702 16.7785 95.6338 17.1226 95.6338 17.5054V17.7788C95.6338 18.1024 95.6771 18.4032 95.7637 18.6812C95.8548 18.9546 95.987 19.1938 96.1602 19.3989C96.3333 19.604 96.543 19.7658 96.7891 19.8843C97.0352 19.9982 97.3154 20.0552 97.6299 20.0552C98.0264 20.0552 98.3796 19.9754 98.6895 19.8159C98.9993 19.6564 99.2682 19.4308 99.4961 19.1392L100.364 19.98C100.205 20.2124 99.9974 20.4357 99.7422 20.6499C99.487 20.8595 99.1748 21.0304 98.8057 21.1626C98.4411 21.2948 98.0173 21.3608 97.5342 21.3608ZM104.008 21.2241H102.36V13.1167C102.36 12.5653 102.463 12.1027 102.668 11.729C102.878 11.3507 103.176 11.0659 103.563 10.8745C103.951 10.6785 104.409 10.5806 104.938 10.5806C105.102 10.5806 105.263 10.592 105.423 10.6147C105.582 10.633 105.737 10.6626 105.888 10.7036L105.847 11.9751C105.756 11.9523 105.655 11.9364 105.546 11.9272C105.441 11.9181 105.327 11.9136 105.204 11.9136C104.953 11.9136 104.737 11.9614 104.555 12.0571C104.377 12.1483 104.24 12.2827 104.145 12.4604C104.053 12.6382 104.008 12.8569 104.008 13.1167V21.2241ZM105.532 13.8276V15.0308H101.226V13.8276H105.532ZM109.825 21.3608C109.278 21.3608 108.784 21.272 108.342 21.0942C107.904 20.9119 107.531 20.659 107.221 20.3354C106.915 20.0119 106.681 19.6313 106.517 19.1938C106.353 18.7563 106.271 18.2847 106.271 17.7788V17.5054C106.271 16.9266 106.355 16.4025 106.523 15.9331C106.692 15.4637 106.927 15.0627 107.228 14.73C107.528 14.3927 107.884 14.1353 108.294 13.9575C108.704 13.7798 109.148 13.6909 109.627 13.6909C110.156 13.6909 110.618 13.7798 111.015 13.9575C111.411 14.1353 111.739 14.3859 111.999 14.7095C112.263 15.0285 112.459 15.409 112.587 15.8511C112.719 16.2931 112.785 16.7808 112.785 17.314V18.0181H107.07V16.8354H111.158V16.7056C111.149 16.4093 111.09 16.1313 110.98 15.8716C110.876 15.6118 110.714 15.4022 110.495 15.2427C110.276 15.0832 109.985 15.0034 109.62 15.0034C109.347 15.0034 109.103 15.0627 108.889 15.1812C108.679 15.2951 108.504 15.4614 108.362 15.6802C108.221 15.8989 108.112 16.1632 108.034 16.4731C107.961 16.7785 107.925 17.1226 107.925 17.5054V17.7788C107.925 18.1024 107.968 18.4032 108.055 18.6812C108.146 18.9546 108.278 19.1938 108.451 19.3989C108.624 19.604 108.834 19.7658 109.08 19.8843C109.326 19.9982 109.606 20.0552 109.921 20.0552C110.317 20.0552 110.671 19.9754 110.98 19.8159C111.29 19.6564 111.559 19.4308 111.787 19.1392L112.655 19.98C112.496 20.2124 112.288 20.4357 112.033 20.6499C111.778 20.8595 111.466 21.0304 111.097 21.1626C110.732 21.2948 110.308 21.3608 109.825 21.3608ZM115.725 15.2358V21.2241H114.077V13.8276H115.649L115.725 15.2358ZM117.987 13.7798L117.974 15.311C117.873 15.2928 117.764 15.2791 117.646 15.27C117.532 15.2609 117.418 15.2563 117.304 15.2563C117.021 15.2563 116.773 15.2974 116.559 15.3794C116.344 15.4569 116.164 15.5708 116.019 15.7212C115.877 15.867 115.768 16.0448 115.69 16.2544C115.613 16.464 115.567 16.6987 115.554 16.9585L115.178 16.9858C115.178 16.521 115.223 16.0903 115.314 15.6938C115.406 15.2974 115.542 14.9487 115.725 14.6479C115.911 14.3472 116.144 14.1125 116.422 13.9438C116.704 13.7752 117.03 13.6909 117.399 13.6909C117.5 13.6909 117.607 13.7 117.721 13.7183C117.839 13.7365 117.928 13.757 117.987 13.7798ZM120.674 15.2358V21.2241H119.026V13.8276H120.599L120.674 15.2358ZM122.937 13.7798L122.923 15.311C122.823 15.2928 122.713 15.2791 122.595 15.27C122.481 15.2609 122.367 15.2563 122.253 15.2563C121.97 15.2563 121.722 15.2974 121.508 15.3794C121.294 15.4569 121.114 15.5708 120.968 15.7212C120.826 15.867 120.717 16.0448 120.64 16.2544C120.562 16.464 120.517 16.6987 120.503 16.9585L120.127 16.9858C120.127 16.521 120.173 16.0903 120.264 15.6938C120.355 15.2974 120.492 14.9487 120.674 14.6479C120.861 14.3472 121.093 14.1125 121.371 13.9438C121.654 13.7752 121.979 13.6909 122.349 13.6909C122.449 13.6909 122.556 13.7 122.67 13.7183C122.788 13.7365 122.877 13.757 122.937 13.7798ZM127.093 21.3608C126.546 21.3608 126.051 21.272 125.609 21.0942C125.172 20.9119 124.798 20.659 124.488 20.3354C124.183 20.0119 123.948 19.6313 123.784 19.1938C123.62 18.7563 123.538 18.2847 123.538 17.7788V17.5054C123.538 16.9266 123.622 16.4025 123.791 15.9331C123.96 15.4637 124.194 15.0627 124.495 14.73C124.796 14.3927 125.151 14.1353 125.562 13.9575C125.972 13.7798 126.416 13.6909 126.895 13.6909C127.423 13.6909 127.886 13.7798 128.282 13.9575C128.679 14.1353 129.007 14.3859 129.267 14.7095C129.531 15.0285 129.727 15.409 129.854 15.8511C129.987 16.2931 130.053 16.7808 130.053 17.314V18.0181H124.338V16.8354H128.426V16.7056C128.417 16.4093 128.357 16.1313 128.248 15.8716C128.143 15.6118 127.981 15.4022 127.763 15.2427C127.544 15.0832 127.252 15.0034 126.888 15.0034C126.614 15.0034 126.37 15.0627 126.156 15.1812C125.947 15.2951 125.771 15.4614 125.63 15.6802C125.489 15.8989 125.379 16.1632 125.302 16.4731C125.229 16.7785 125.192 17.1226 125.192 17.5054V17.7788C125.192 18.1024 125.236 18.4032 125.322 18.6812C125.413 18.9546 125.546 19.1938 125.719 19.3989C125.892 19.604 126.102 19.7658 126.348 19.8843C126.594 19.9982 126.874 20.0552 127.188 20.0552C127.585 20.0552 127.938 19.9754 128.248 19.8159C128.558 19.6564 128.827 19.4308 129.055 19.1392L129.923 19.98C129.763 20.2124 129.556 20.4357 129.301 20.6499C129.046 20.8595 128.733 21.0304 128.364 21.1626C128 21.2948 127.576 21.3608 127.093 21.3608ZM135.85 19.6929V10.7241H137.504V21.2241H136.007L135.85 19.6929ZM131.037 17.6079V17.4644C131.037 16.9038 131.103 16.3934 131.235 15.9331C131.368 15.4683 131.559 15.0695 131.81 14.7368C132.06 14.3996 132.366 14.1421 132.726 13.9644C133.086 13.7821 133.491 13.6909 133.942 13.6909C134.389 13.6909 134.781 13.7775 135.118 13.9507C135.455 14.1239 135.743 14.3722 135.979 14.6958C136.216 15.0148 136.406 15.3976 136.547 15.8442C136.688 16.2863 136.788 16.7785 136.848 17.3208V17.7788C136.788 18.3075 136.688 18.7905 136.547 19.228C136.406 19.6655 136.216 20.0438 135.979 20.3628C135.743 20.6818 135.453 20.9279 135.111 21.1011C134.774 21.2743 134.38 21.3608 133.929 21.3608C133.482 21.3608 133.079 21.2674 132.719 21.0806C132.363 20.8937 132.06 20.6317 131.81 20.2944C131.559 19.9572 131.368 19.5607 131.235 19.105C131.103 18.6447 131.037 18.1457 131.037 17.6079ZM132.685 17.4644V17.6079C132.685 17.9451 132.714 18.2596 132.773 18.5513C132.837 18.8429 132.935 19.1004 133.067 19.3237C133.2 19.5425 133.37 19.7157 133.58 19.8433C133.794 19.9663 134.049 20.0278 134.346 20.0278C134.719 20.0278 135.027 19.9458 135.269 19.7817C135.51 19.6177 135.699 19.3966 135.836 19.1187C135.977 18.8361 136.073 18.5216 136.123 18.1753V16.938C136.096 16.6691 136.039 16.4185 135.952 16.186C135.87 15.9536 135.758 15.7508 135.617 15.5776C135.476 15.3999 135.3 15.2632 135.091 15.1675C134.886 15.0672 134.642 15.0171 134.359 15.0171C134.059 15.0171 133.803 15.0809 133.594 15.2085C133.384 15.3361 133.211 15.5116 133.074 15.7349C132.942 15.9582 132.844 16.2179 132.78 16.5142C132.716 16.8104 132.685 17.1271 132.685 17.4644Z" fill="#272C37"/>
</g>
<rect width="24" height="24" rx="12" fill="white"/>
<path fill-rule="evenodd" clip-rule="evenodd" d="M8.65234 5.1665V18.8338L18.9355 12.0002L8.65234 5.1665Z" fill="#117AEF"/>
<path d="M11 54.062V60H13V54.062C16.946 54.554 20 57.92 20 62H4C4.00003 60.0514 4.71119 58.1698 6 56.7083C7.28882 55.2467 9.0667 54.3058 11 54.062ZM12 53C8.685 53 6 50.315 6 47C6 43.685 8.685 41 12 41C15.315 41 18 43.685 18 47C18 50.315 15.315 53 12 53Z" fill="#117AEF"/>
<path d="M11.0489 82.9271C11.3483 82.0057 12.6517 82.0057 12.9511 82.9271L14.4697 87.6008C14.6035 88.0128 14.9875 88.2918 15.4207 88.2918H20.335C21.3037 88.2918 21.7065 89.5314 20.9228 90.1008L16.947 92.9894C16.5966 93.244 16.4499 93.6954 16.5838 94.1074L18.1024 98.7812C18.4017 99.7025 17.3472 100.469 16.5635 99.8992L12.5878 97.0106C12.2373 96.756 11.7627 96.756 11.4122 97.0106L7.43648 99.8992C6.65276 100.469 5.59828 99.7025 5.89763 98.7812L7.41623 94.1074C7.5501 93.6954 7.40345 93.244 7.05296 92.9894L3.07722 90.1008C2.29351 89.5314 2.69628 88.2918 3.66501 88.2918H8.57929C9.01252 88.2918 9.39647 88.0128 9.53035 87.6008L11.0489 82.9271Z" fill="#F1B006"/>
<ellipse cx="192" cy="12.2241" rx="8.63077" ry="9" stroke="#1179EF" stroke-width="1.2"/>
<path d="M188 12.0243L190.668 15.2241L195.672 9.22412" stroke="#1179EF" stroke-width="1.5" stroke-linecap="round"/>
<path d="M10.8344 129.474C10.8314 129.126 10.9492 128.788 11.1675 128.517C11.3859 128.247 11.6914 128.06 12.0319 127.99V127.669C12.0319 127.442 12.2126 127.258 12.436 127.258C12.66 127.258 12.8407 127.442 12.8407 127.669V128C13.0807 128.064 13.3026 128.182 13.4889 128.346C13.6753 128.51 13.8211 128.715 13.9148 128.945C13.9526 129.044 13.9506 129.155 13.9093 129.253C13.868 129.351 13.7905 129.43 13.6929 129.472C13.5955 129.513 13.4858 129.514 13.3877 129.475C13.2895 129.436 13.2107 129.36 13.1684 129.263C13.1096 129.117 13.0088 128.992 12.8787 128.904C12.7486 128.816 12.5952 128.769 12.4382 128.769C12.0561 128.769 11.6462 128.989 11.6462 129.474C11.6462 129.601 11.6462 129.984 12.5285 130.19H12.5417C13.8369 130.499 14.0389 131.271 14.0389 131.706C14.042 132.053 13.9245 132.391 13.7064 132.662C13.4883 132.932 13.1832 133.119 12.8429 133.19V133.52C12.8429 133.748 12.6615 133.932 12.4382 133.932C12.3299 133.931 12.2266 133.887 12.1507 133.81C12.0748 133.732 12.0326 133.628 12.0334 133.52V133.19C11.7934 133.126 11.5715 133.008 11.3852 132.844C11.1988 132.68 11.053 132.475 10.9593 132.245C10.9293 132.178 10.9176 132.104 10.9253 132.03C10.9331 131.957 10.96 131.887 11.0034 131.828C11.0463 131.769 11.1044 131.723 11.1715 131.694C11.2386 131.666 11.3122 131.656 11.3843 131.666C11.4565 131.677 11.5245 131.706 11.5811 131.752C11.6377 131.798 11.6808 131.858 11.7057 131.927C11.8299 132.226 12.1186 132.422 12.4382 132.421C12.8202 132.421 13.2294 132.201 13.2294 131.716C13.2294 131.588 13.2294 131.206 12.3478 131H12.3346C11.0291 130.683 10.8352 129.909 10.8352 129.474H10.8344ZM13.7495 123.816C13.9324 123.942 14.1807 123.896 14.3078 123.712L15.7022 121.689C15.7606 121.604 15.7853 121.5 15.7716 121.398C15.7579 121.295 15.7068 121.201 15.628 121.134C13.8369 119.621 11.0328 119.621 9.24319 121.139C9.16462 121.206 9.11363 121.3 9.10006 121.402C9.0865 121.504 9.1113 121.608 9.16972 121.693L10.5648 123.712C10.6963 123.888 10.9409 123.927 11.1195 123.8C11.2056 123.738 11.2646 123.645 11.2846 123.54C11.3045 123.436 11.2838 123.328 11.2267 123.238L10.0579 121.545C10.7608 121.071 11.5889 120.819 12.4363 120.819C13.2837 120.819 14.1118 121.071 14.8147 121.545L13.6459 123.242C13.5843 123.331 13.5602 123.442 13.5785 123.549C13.5969 123.656 13.6564 123.752 13.7443 123.816H13.7495ZM6.98416 131.845C6.9915 129.09 8.18825 126.477 10.257 124.702C10.3294 124.639 10.422 124.604 10.5178 124.604H14.3534C14.4489 124.604 14.5414 124.638 14.6142 124.702C16.6837 126.476 17.8811 129.09 17.8885 131.846V133.018L18.0133 133.079C18.3234 133.233 18.5727 133.487 18.7214 133.799C18.8701 134.112 18.9095 134.465 18.8332 134.803C18.7613 135.14 18.5767 135.442 18.3098 135.66C18.043 135.877 17.7098 135.998 17.3654 136H7.50577C7.16136 135.998 6.8282 135.877 6.56132 135.66C6.29445 135.442 6.10982 135.14 6.03794 134.803C5.96169 134.465 6.00107 134.112 6.14975 133.799C6.29842 133.487 6.54777 133.233 6.8578 133.079L6.9827 133.018L6.98416 131.846V131.845ZM6.82253 134.621C6.85509 134.778 6.94049 134.918 7.06437 135.019C7.18825 135.12 7.34308 135.175 7.50283 135.175H17.3632C17.5222 135.174 17.6759 135.118 17.7992 135.018C17.9224 134.917 18.0078 134.778 18.0413 134.622C18.0768 134.466 18.059 134.303 17.9906 134.158C17.9223 134.014 17.8074 133.896 17.6644 133.824L17.3103 133.66C17.2398 133.624 17.1808 133.57 17.1403 133.502C17.0998 133.434 17.0795 133.357 17.0818 133.278V131.845C17.0802 130.633 16.823 129.436 16.3272 128.33C15.8313 127.225 15.108 126.236 14.2042 125.429H10.6684C9.76486 126.236 9.04182 127.226 8.54648 128.332C8.05114 129.438 7.79465 130.636 7.79375 131.847V133.278C7.79391 133.356 7.77244 133.431 7.7318 133.497C7.69116 133.562 7.63295 133.615 7.56379 133.649L7.2097 133.815C7.0631 133.885 6.945 134.003 6.87508 134.15C6.80517 134.297 6.78766 134.463 6.82547 134.621H6.82253Z" fill="#27BA44"/>
<path fill-rule="evenodd" clip-rule="evenodd" d="M192 40.2241C194.122 40.2241 196.157 41.067 197.657 42.5673C199.157 44.0676 200 46.1024 200 48.2241C200 50.3459 199.157 52.3807 197.657 53.881C196.157 55.3813 194.122 56.2241 192 56.2241C189.878 56.2241 187.843 55.3813 186.343 53.881C184.843 52.3807 184 50.3459 184 48.2241C184 46.1024 184.843 44.0676 186.343 42.5673C187.843 41.067 189.878 40.2241 192 40.2241Z" fill="#27BA44"/>
<path d="M193.369 44.8325C193.461 44.8593 193.557 44.8674 193.651 44.8565C193.746 44.8456 193.838 44.8159 193.921 44.7691C194.004 44.7223 194.077 44.6594 194.135 44.584C194.194 44.5087 194.237 44.4224 194.261 44.3303C194.286 44.2381 194.292 44.142 194.279 44.0475C194.266 43.953 194.234 43.8621 194.186 43.78C194.137 43.698 194.072 43.6265 193.996 43.5697C193.919 43.513 193.832 43.4721 193.739 43.4495C193.557 43.4053 193.365 43.4339 193.205 43.5293C193.044 43.6248 192.926 43.7794 192.878 43.9601C192.83 44.1409 192.854 44.3334 192.946 44.4965C193.038 44.6595 193.19 44.7801 193.369 44.8325ZM191.833 47.7975L190.687 52.0735C190.479 52.8515 191.379 53.3615 192.565 52.7615C193.135 52.4725 193.963 51.7515 194.431 51.0985C194.431 51.0985 192.071 52.4385 192.465 50.9705L193.611 46.6945C193.819 45.9165 192.919 45.4066 191.733 46.0066C191.163 46.2956 190.335 47.0165 189.867 47.6685C189.867 47.6685 192.227 46.3295 191.833 47.7975Z" fill="white"/>
<mask id="mask0_1780_45837" style="mask-type:luminance" maskUnits="userSpaceOnUse" x="180" y="72" width="24" height="25">
<rect x="180" y="72.2241" width="24" height="24" fill="white"/>
</mask>
<g mask="url(#mask0_1780_45837)">
<path d="M190.094 87.8739L190.458 88.2241L190.822 87.8736L197 81.925L196.271 81.2241L190.093 87.1727L190.822 87.1725L187.728 84.1982L187 84.8996L190.094 87.8739Z" fill="#272C37" stroke="#117AEF"/>
</g>
<path fill-rule="evenodd" clip-rule="evenodd" d="M198.337 117.89H186.663C185.744 117.89 185 118.634 185 119.553V131.228C185 132.146 185.744 132.89 186.663 132.89H198.337C199.256 132.89 200 132.146 200 131.228V119.553C200 118.634 199.256 117.89 198.337 117.89ZM186.661 132.057C186.203 132.057 185.832 131.686 185.832 131.228V119.553C185.832 119.095 186.203 118.724 186.661 118.724H198.336C198.794 118.724 199.165 119.095 199.165 119.553V131.228C199.165 131.686 198.794 132.057 198.336 132.057H186.661Z" fill="#272C37"/>
<rect x="187.5" y="116.224" width="1.66667" height="1.66667" fill="#272C37"/>
<rect x="195.832" y="116.224" width="1.66667" height="1.66667" fill="#272C37"/>
<path d="M185.832 122.057H199.165V118.724H185.832V122.057V122.057Z" fill="#272C37"/>
<path fill-rule="evenodd" clip-rule="evenodd" d="M188.66 128.494L190.267 127.128C190.427 126.99 190.562 126.867 190.673 126.758C190.785 126.649 190.875 126.547 190.943 126.451C191.012 126.355 191.062 126.261 191.093 126.168C191.125 126.074 191.14 125.974 191.14 125.868C191.14 125.637 191.068 125.458 190.923 125.331C190.779 125.204 190.6 125.141 190.387 125.141C190.173 125.141 189.986 125.199 189.823 125.314C189.661 125.43 189.491 125.605 189.313 125.841L188.727 125.381C188.838 125.225 188.951 125.088 189.067 124.968C189.182 124.848 189.308 124.745 189.443 124.661C189.579 124.577 189.728 124.513 189.89 124.471C190.052 124.429 190.238 124.408 190.447 124.408C190.673 124.408 190.881 124.441 191.07 124.508C191.259 124.574 191.421 124.669 191.557 124.791C191.692 124.913 191.798 125.06 191.873 125.231C191.949 125.402 191.987 125.592 191.987 125.801V125.814C191.987 125.997 191.962 126.162 191.913 126.311C191.865 126.46 191.79 126.603 191.69 126.741C191.59 126.879 191.463 127.018 191.31 127.158C191.157 127.298 190.978 127.452 190.773 127.621L189.813 128.421H192.033V129.141H188.66V128.494ZM194.518 129.208C194.265 129.208 194.029 129.175 193.812 129.111C193.594 129.047 193.405 128.957 193.245 128.841C193.085 128.725 192.961 128.584 192.872 128.418C192.783 128.251 192.738 128.068 192.738 127.868V127.854C192.738 127.574 192.812 127.343 192.958 127.161C193.105 126.979 193.312 126.832 193.578 126.721C193.378 126.619 193.215 126.485 193.088 126.321C192.962 126.157 192.898 125.943 192.898 125.681V125.668C192.898 125.49 192.939 125.324 193.022 125.171C193.104 125.018 193.216 124.884 193.358 124.771C193.501 124.658 193.671 124.569 193.868 124.504C194.066 124.44 194.283 124.408 194.518 124.408C194.749 124.408 194.965 124.44 195.165 124.504C195.365 124.569 195.536 124.657 195.678 124.768C195.821 124.879 195.933 125.012 196.015 125.168C196.097 125.323 196.138 125.49 196.138 125.668V125.681C196.138 125.943 196.075 126.157 195.948 126.321C195.822 126.485 195.658 126.619 195.458 126.721C195.716 126.837 195.921 126.982 196.072 127.158C196.223 127.333 196.298 127.561 196.298 127.841V127.854C196.298 128.063 196.254 128.251 196.165 128.418C196.076 128.584 195.952 128.727 195.792 128.844C195.632 128.962 195.443 129.052 195.225 129.114C195.007 129.177 194.772 129.208 194.518 129.208V129.208ZM194.521 126.449C194.761 126.449 194.96 126.384 195.117 126.255C195.275 126.126 195.354 125.962 195.354 125.762V125.749C195.354 125.566 195.279 125.412 195.128 125.285C194.976 125.159 194.774 125.095 194.521 125.095C194.267 125.095 194.065 125.159 193.914 125.285C193.763 125.412 193.688 125.564 193.688 125.742V125.755C193.688 125.96 193.766 126.126 193.924 126.255C194.082 126.384 194.281 126.449 194.521 126.449V126.449ZM194.52 128.521C194.827 128.521 195.067 128.453 195.24 128.318C195.413 128.182 195.5 128.017 195.5 127.821V127.808C195.5 127.701 195.475 127.604 195.423 127.518C195.372 127.431 195.303 127.357 195.217 127.294C195.13 127.232 195.027 127.184 194.907 127.151C194.787 127.118 194.658 127.101 194.52 127.101C194.382 127.101 194.253 127.118 194.133 127.151C194.013 127.184 193.91 127.232 193.823 127.294C193.737 127.357 193.669 127.431 193.62 127.518C193.571 127.604 193.547 127.701 193.547 127.808V127.821C193.547 128.012 193.632 128.177 193.803 128.314C193.975 128.452 194.213 128.521 194.52 128.521V128.521Z" fill="#272C37"/>
<defs>
<filter id="filter0_d_1780_45837" x="76.6836" y="6.58057" width="64.8203" height="18.7803" filterUnits="userSpaceOnUse" color-interpolation-filters="sRGB">
<feFlood flood-opacity="0" result="BackgroundImageFix"/>
<feColorMatrix in="SourceAlpha" type="matrix" values="0 0 0 0 0 0 0 0 0 0 0 0 0 0 0 0 0 0 127 0" result="hardAlpha"/>
<feOffset/>
<feGaussianBlur stdDeviation="2"/>
<feComposite in2="hardAlpha" operator="out"/>
<feColorMatrix type="matrix" values="0 0 0 0 0 0 0 0 0 0 0 0 0 0 0 0 0 0 0.08 0"/>
<feBlend mode="normal" in2="BackgroundImageFix" result="effect1_dropShadow_1780_45837"/>
<feBlend mode="normal" in="SourceGraphic" in2="effect1_dropShadow_1780_45837" result="shape"/>
</filter>
</defs>
</svg>
