<svg width="359" height="155" viewBox="0 0 359 155" fill="none" xmlns="http://www.w3.org/2000/svg">
<g clip-path="url(#clip0_2500_17889)">
<path d="M17.4356 19.5469H-3.62598C-3.97238 19.5469 -4.2941 19.7261 -4.47636 20.0207L-15.575 37.958C-15.7719 38.2761 -15.7747 38.6775 -15.5824 38.9983L-4.47442 57.5298C-4.29375 57.8312 -3.96812 58.0156 -3.6167 58.0156H17.4265C17.7863 58.0156 18.1184 57.8223 18.2961 57.5094L28.8196 38.9777C28.9959 38.6672 28.9933 38.2862 28.8127 37.9782L18.2983 20.0412C18.1189 19.735 17.7906 19.5469 17.4356 19.5469Z" stroke="#BBBBBB" stroke-width="0.6"/>
<path d="M72.2892 19.5469H51.2275C50.8811 19.5469 50.5594 19.7261 50.3772 20.0207L39.2785 37.958C39.0816 38.2761 39.0788 38.6775 39.2711 38.9983L50.3791 57.5298C50.5598 57.8312 50.8854 58.0156 51.2368 58.0156H72.28C72.6398 58.0156 72.9719 57.8223 73.1496 57.5094L83.6731 38.9777C83.8494 38.6672 83.8468 38.2862 83.6662 37.9782L73.1519 20.0412C72.9724 19.735 72.6441 19.5469 72.2892 19.5469Z" stroke="#BBBBBB" stroke-width="0.6"/>
<path d="M46.5108 78.1523H25.4492C25.1028 78.1523 24.7811 78.3316 24.5988 78.6262L13.5001 96.5635C13.3033 96.8816 13.3005 97.2829 13.4928 97.6038L24.6008 116.135C24.7814 116.437 25.1071 116.621 25.4585 116.621H46.5017C46.8615 116.621 47.1936 116.428 47.3712 116.115L57.8948 97.5831C58.0711 97.2726 58.0685 96.8917 57.8879 96.5836L47.3735 78.6466C47.1941 78.3405 46.8657 78.1523 46.5108 78.1523Z" stroke="#BBBBBB" stroke-width="0.6"/>
<path d="M126.29 19.5469H105.229C104.882 19.5469 104.56 19.7261 104.378 20.0207L93.2794 37.958C93.0826 38.2761 93.0798 38.6775 93.2721 38.9983L104.38 57.5298C104.561 57.8312 104.886 58.0156 105.238 58.0156H126.281C126.641 58.0156 126.973 57.8223 127.151 57.5094L137.674 38.9777C137.85 38.6672 137.848 38.2862 137.667 37.9782L127.153 20.0412C126.973 19.735 126.645 19.5469 126.29 19.5469Z" stroke="#BBBBBB" stroke-width="0.6"/>
<path d="M101.478 78.1523H80.416C80.0696 78.1523 79.7479 78.3316 79.5656 78.6262L68.4669 96.5635C68.2701 96.8816 68.2673 97.2829 68.4596 97.6038L79.5676 116.135C79.7482 116.437 80.0739 116.621 80.4253 116.621H101.468C101.828 116.621 102.16 116.428 102.338 116.115L112.862 97.5831C113.038 97.2726 113.035 96.8917 112.855 96.5836L102.34 78.6466C102.161 78.3405 101.833 78.1523 101.478 78.1523Z" stroke="#BBBBBB" stroke-width="0.6"/>
<path d="M22.3761 136.152H1.31445C0.968054 136.152 0.646332 136.332 0.464069 136.626L-10.6346 154.563C-10.8314 154.882 -10.8343 155.283 -10.642 155.604L0.466011 174.135C0.646683 174.437 0.972308 174.621 1.32372 174.621H22.3669C22.7267 174.621 23.0588 174.428 23.2365 174.115L33.76 155.583C33.9363 155.273 33.9337 154.892 33.7531 154.584L23.2388 136.647C23.0593 136.34 22.731 136.152 22.3761 136.152Z" stroke="#BBBBBB" stroke-width="0.6"/>
<path d="M180.385 19.5469H159.323C158.977 19.5469 158.655 19.7261 158.473 20.0207L147.374 37.958C147.177 38.2761 147.175 38.6775 147.367 38.9983L158.475 57.5298C158.655 57.8312 158.981 58.0156 159.333 58.0156H180.376C180.736 58.0156 181.068 57.8223 181.245 57.5094L191.769 38.9777C191.945 38.6672 191.942 38.2862 191.762 37.9782L181.248 20.0412C181.068 19.735 180.74 19.5469 180.385 19.5469Z" stroke="#BBBBBB" stroke-width="0.6"/>
<path d="M156.392 78.1523H135.33C134.984 78.1523 134.662 78.3316 134.48 78.6262L123.381 96.5635C123.184 96.8816 123.181 97.2829 123.374 97.6038L134.482 116.135C134.662 116.437 134.988 116.621 135.339 116.621H156.383C156.742 116.621 157.074 116.428 157.252 116.115L167.776 97.5831C167.952 97.2726 167.949 96.8917 167.769 96.5836L157.254 78.6466C157.075 78.3405 156.747 78.1523 156.392 78.1523Z" stroke="#BBBBBB" stroke-width="0.6"/>
<path d="M77.2901 136.152H56.2285C55.8821 136.152 55.5604 136.332 55.3781 136.626L44.2794 154.563C44.0826 154.882 44.0798 155.283 44.2721 155.604L55.3801 174.135C55.5607 174.437 55.8864 174.621 56.2378 174.621H77.281C77.6408 174.621 77.9729 174.428 78.1505 174.115L88.6741 155.583C88.8504 155.273 88.8478 154.892 88.6672 154.584L78.1528 136.647C77.9734 136.34 77.645 136.152 77.2901 136.152Z" stroke="#BBBBBB" stroke-width="0.6"/>
<path d="M234.386 19.5469H213.324C212.978 19.5469 212.656 19.7261 212.474 20.0207L201.375 37.958C201.178 38.2761 201.175 38.6775 201.368 38.9983L212.476 57.5298C212.656 57.8312 212.982 58.0156 213.333 58.0156H234.377C234.736 58.0156 235.069 57.8223 235.246 57.5094L245.77 38.9777C245.946 38.6672 245.943 38.2862 245.763 37.9782L235.249 20.0412C235.069 19.735 234.741 19.5469 234.386 19.5469Z" stroke="#BBBBBB" stroke-width="0.6"/>
<path d="M288.481 19.5469H267.419C267.073 19.5469 266.751 19.7261 266.569 20.0207L255.47 37.958C255.273 38.2761 255.27 38.6775 255.463 38.9983L266.571 57.5298C266.751 57.8312 267.077 58.0156 267.428 58.0156H288.471C288.831 58.0156 289.163 57.8223 289.341 57.5094L299.864 38.9777C300.041 38.6672 300.038 38.2862 299.858 37.9782L289.343 20.0412C289.164 19.735 288.835 19.5469 288.481 19.5469Z" stroke="#BBBBBB" stroke-width="0.6"/>
<path d="M151.585 38.7812H125.734C125.388 38.7812 125.067 38.9598 124.885 39.2534L111.262 61.1705C111.064 61.4894 111.061 61.8925 111.255 62.2142L124.887 84.8537C125.068 85.1542 125.393 85.3379 125.743 85.3379H151.576C151.935 85.3379 152.267 85.1453 152.444 84.8334L165.359 62.1935C165.536 61.8821 165.534 61.4995 165.352 61.1906L152.447 39.2739C152.267 38.9686 151.939 38.7812 151.585 38.7812Z" stroke="#BBBBBB" stroke-width="0.6"/>
<path d="M122.067 -19.6836H96.2155C95.8698 -19.6836 95.5486 -19.5051 95.3661 -19.2115L81.7438 2.70563C81.5456 3.02456 81.5428 3.42765 81.7365 3.74934L95.3681 26.3889C95.549 26.6893 95.874 26.873 96.2248 26.873H122.057C122.416 26.873 122.748 26.6805 122.926 26.3685L135.84 3.72867C136.018 3.4173 136.015 3.03469 135.833 2.72579L122.928 -19.191C122.748 -19.4962 122.421 -19.6836 122.067 -19.6836Z" stroke="#BBBBBB" stroke-width="0.6"/>
<path d="M284.266 -19.6836H258.583C258.237 -19.6836 257.915 -19.5041 257.733 -19.2091L244.194 2.70793C243.997 3.02573 243.994 3.42645 244.186 3.74699L257.735 26.3866C257.915 26.6883 258.241 26.873 258.593 26.873H284.257C284.617 26.873 284.949 26.6795 285.127 26.3662L297.962 3.72635C298.138 3.41616 298.136 3.0358 297.956 2.72806L285.129 -19.1887C284.95 -19.4952 284.621 -19.6836 284.266 -19.6836Z" stroke="#BBBBBB" stroke-width="0.6"/>
<path d="M338.639 -19.6836H312.956C312.61 -19.6836 312.288 -19.5041 312.106 -19.2091L298.567 2.70793C298.37 3.02573 298.367 3.42645 298.559 3.74699L312.108 26.3866C312.288 26.6883 312.614 26.873 312.966 26.873H338.63C338.99 26.873 339.322 26.6795 339.5 26.3662L352.335 3.72635C352.511 3.41616 352.509 3.0358 352.329 2.72806L339.502 -19.1887C339.323 -19.4952 338.994 -19.6836 338.639 -19.6836Z" stroke="#BBBBBB" stroke-width="0.6"/>
<path d="M96.878 38.7812H71.027C70.6813 38.7812 70.3601 38.9598 70.1777 39.2534L56.5554 61.1705C56.3571 61.4894 56.3543 61.8925 56.548 62.2142L70.1796 84.8537C70.3605 85.1542 70.6856 85.3379 71.0363 85.3379H96.8689C97.228 85.3379 97.5595 85.1453 97.7375 84.8334L110.652 62.1935C110.829 61.8821 110.827 61.4995 110.645 61.1906L97.7397 39.2739C97.56 38.9686 97.2322 38.7812 96.878 38.7812Z" stroke="#BBBBBB" stroke-width="0.6"/>
<path d="M67.3604 -19.6836H41.5094C41.1637 -19.6836 40.8426 -19.5051 40.6601 -19.2115L27.0378 2.70563C26.8396 3.02456 26.8367 3.42765 27.0304 3.74934L40.662 26.3889C40.8429 26.6893 41.168 26.873 41.5187 26.873H67.3513C67.7104 26.873 68.042 26.6805 68.2199 26.3685L81.1342 3.72867C81.3118 3.4173 81.3092 3.03469 81.1273 2.72579L68.2222 -19.191C68.0424 -19.4962 67.7147 -19.6836 67.3604 -19.6836Z" stroke="#BBBBBB" stroke-width="0.6"/>
<path d="M229.894 -19.6836H204.211C203.865 -19.6836 203.543 -19.5041 203.361 -19.2091L189.822 2.70793C189.625 3.02573 189.622 3.42645 189.814 3.74699L203.363 26.3866C203.543 26.6883 203.869 26.873 204.221 26.873H229.885C230.245 26.873 230.577 26.6795 230.755 26.3662L243.59 3.72635C243.766 3.41616 243.764 3.0358 243.583 2.72806L230.757 -19.1887C230.578 -19.4952 230.249 -19.6836 229.894 -19.6836Z" stroke="#BBBBBB" stroke-width="0.6"/>
<path d="M42.171 38.7812H16.32C15.9743 38.7812 15.6531 38.9598 15.4706 39.2534L1.84834 61.1705C1.65012 61.4894 1.64727 61.8925 1.84096 62.2142L15.4726 84.8537C15.6535 85.1542 15.9785 85.3379 16.3292 85.3379H42.1618C42.5209 85.3379 42.8525 85.1453 43.0304 84.8334L55.9448 62.1935C56.1224 61.8821 56.1197 61.4995 55.9379 61.1906L43.0327 39.2739C42.853 38.9686 42.5252 38.7812 42.171 38.7812Z" stroke="#BBBBBB" stroke-width="0.6"/>
<path d="M17.7374 97.2461H-8.11364C-8.45931 97.2461 -8.78048 97.4246 -8.96295 97.7182L-22.5853 119.635C-22.7835 119.954 -22.7863 120.357 -22.5926 120.679L-8.96104 143.319C-8.78014 143.619 -8.45506 143.803 -8.10435 143.803H17.7282C18.0874 143.803 18.4189 143.61 18.5968 143.298L31.5112 120.658C31.6888 120.347 31.6861 119.964 31.5043 119.655L18.5991 97.7387C18.4194 97.4335 18.0916 97.2461 17.7374 97.2461Z" stroke="#BBBBBB" stroke-width="0.6"/>
<path d="M72.4444 97.2461H46.5934C46.2477 97.2461 45.9266 97.4246 45.7441 97.7182L32.1218 119.635C31.9236 119.954 31.9207 120.357 32.1144 120.679L45.746 143.319C45.9269 143.619 46.252 143.803 46.6027 143.803H72.4353C72.7944 143.803 73.1259 143.61 73.3039 143.298L86.2182 120.658C86.3958 120.347 86.3932 119.964 86.2113 119.655L73.3061 97.7387C73.1264 97.4335 72.7986 97.2461 72.4444 97.2461Z" stroke="#BBBBBB" stroke-width="0.6"/>
<path d="M12.6534 -19.6836H-13.1976C-13.5433 -19.6836 -13.8645 -19.5051 -14.0469 -19.2115L-27.6692 2.70563C-27.8675 3.02456 -27.8703 3.42765 -27.6766 3.74934L-14.045 26.3889C-13.8641 26.6893 -13.539 26.873 -13.1883 26.873H12.6442C13.0034 26.873 13.3349 26.6805 13.5129 26.3685L26.4272 3.72867C26.6048 3.4173 26.6022 3.03469 26.4203 2.72579L13.5151 -19.191C13.3354 -19.4962 13.0076 -19.6836 12.6534 -19.6836Z" stroke="#BBBBBB" stroke-width="0.6"/>
<path d="M175.521 -19.6836H149.838C149.492 -19.6836 149.17 -19.5041 148.988 -19.2091L135.448 2.70793C135.252 3.02573 135.249 3.42645 135.441 3.74699L148.99 26.3866C149.17 26.6883 149.496 26.873 149.848 26.873H175.512C175.872 26.873 176.204 26.6795 176.382 26.3662L189.217 3.72635C189.393 3.41616 189.391 3.0358 189.21 2.72806L176.384 -19.1887C176.205 -19.4952 175.876 -19.6836 175.521 -19.6836Z" stroke="#BBBBBB" stroke-width="0.6"/>
<path d="M342.576 19.5469H321.515C321.168 19.5469 320.847 19.7261 320.664 20.0207L309.566 37.958C309.369 38.2761 309.366 38.6775 309.558 38.9983L320.666 57.5298C320.847 57.8312 321.173 58.0156 321.524 58.0156H342.567C342.927 58.0156 343.259 57.8223 343.437 57.5094L353.96 38.9777C354.137 38.6672 354.134 38.2862 353.953 37.9782L343.439 20.0412C343.259 19.735 342.931 19.5469 342.576 19.5469Z" stroke="#BBBBBB" stroke-width="0.6"/>
<path d="M174.424 46.3867H157.56C157.212 46.3867 156.889 46.5675 156.707 46.8642L147.815 61.3724C147.621 61.6887 147.619 62.0864 147.808 62.4055L156.709 77.3973C156.89 77.7007 157.216 77.8867 157.569 77.8867H174.415C174.776 77.8867 175.11 77.6919 175.287 77.377L183.72 62.3849C183.893 62.0762 183.891 61.6987 183.713 61.3925L175.289 46.8846C175.11 46.5764 174.781 46.3867 174.424 46.3867Z" stroke="#BBBBBB" stroke-width="0.6"/>
<path d="M119.424 46.3867H102.56C102.212 46.3867 101.889 46.5675 101.707 46.8642L92.8153 61.3724C92.6214 61.6887 92.6186 62.0864 92.808 62.4055L101.709 77.3973C101.89 77.7007 102.216 77.8867 102.569 77.8867H119.415C119.776 77.8867 120.11 77.6919 120.287 77.377L128.72 62.3849C128.893 62.0762 128.891 61.6987 128.713 61.3925L120.289 46.8846C120.11 46.5764 119.781 46.3867 119.424 46.3867Z" stroke="#BBBBBB" stroke-width="0.6"/>
<path d="M95.4243 104.387H78.56C78.2121 104.387 77.8892 104.568 77.7074 104.864L68.8153 119.372C68.6214 119.689 68.6186 120.086 68.808 120.405L77.7094 135.397C77.8896 135.701 78.2163 135.887 78.5692 135.887H95.4152C95.7764 135.887 96.1096 135.692 96.2867 135.377L104.72 120.385C104.893 120.076 104.891 119.699 104.713 119.392L96.2891 104.885C96.1101 104.576 95.7807 104.387 95.4243 104.387Z" stroke="#BBBBBB" stroke-width="0.6"/>
<path d="M90.4274 -11.6133H73.5568C73.2106 -11.6133 72.8891 -11.4342 72.7067 -11.1399L63.8211 3.20304C63.6239 3.52137 63.6211 3.92319 63.8138 4.24427L72.7087 19.0654C72.8894 19.3665 73.2149 19.5508 73.5661 19.5508H90.4182C90.7779 19.5508 91.1098 19.3577 91.2875 19.045L99.7145 4.22362C99.8911 3.91288 99.8885 3.53147 99.7076 3.22319L91.2898 -11.1194C91.1103 -11.4254 90.7821 -11.6133 90.4274 -11.6133Z" stroke="#BBBBBB" stroke-width="0.6"/>
<path d="M144.427 -11.6133H127.557C127.211 -11.6133 126.889 -11.4342 126.707 -11.1399L117.821 3.20304C117.624 3.52137 117.621 3.92319 117.814 4.24427L126.709 19.0654C126.889 19.3665 127.215 19.5508 127.566 19.5508H144.418C144.778 19.5508 145.11 19.3577 145.288 19.045L153.714 4.22362C153.891 3.91288 153.889 3.53147 153.708 3.22319L145.29 -11.1194C145.11 -11.4254 144.782 -11.6133 144.427 -11.6133Z" stroke="#BBBBBB" stroke-width="0.6"/>
<path d="M198.427 -11.6133H181.557C181.211 -11.6133 180.889 -11.4342 180.707 -11.1399L171.821 3.20304C171.624 3.52137 171.621 3.92319 171.814 4.24427L180.709 19.0654C180.889 19.3665 181.215 19.5508 181.566 19.5508H198.418C198.778 19.5508 199.11 19.3577 199.288 19.045L207.714 4.22362C207.891 3.91288 207.889 3.53147 207.708 3.22319L199.29 -11.1194C199.11 -11.4254 198.782 -11.6133 198.427 -11.6133Z" stroke="#BBBBBB" stroke-width="0.6"/>
<path d="M252.427 -11.6133H235.557C235.211 -11.6133 234.889 -11.4342 234.707 -11.1399L225.821 3.20304C225.624 3.52137 225.621 3.92319 225.814 4.24427L234.709 19.0654C234.889 19.3665 235.215 19.5508 235.566 19.5508H252.418C252.778 19.5508 253.11 19.3577 253.288 19.045L261.714 4.22362C261.891 3.91288 261.889 3.53147 261.708 3.22319L253.29 -11.1194C253.11 -11.4254 252.782 -11.6133 252.427 -11.6133Z" stroke="#BBBBBB" stroke-width="0.6"/>
<path d="M306.427 -11.6133H289.557C289.211 -11.6133 288.889 -11.4342 288.707 -11.1399L279.821 3.20304C279.624 3.52137 279.621 3.92319 279.814 4.24427L288.709 19.0654C288.889 19.3665 289.215 19.5508 289.566 19.5508H306.418C306.778 19.5508 307.11 19.3577 307.288 19.045L315.714 4.22362C315.891 3.91288 315.889 3.53147 315.708 3.22319L307.29 -11.1194C307.11 -11.4254 306.782 -11.6133 306.427 -11.6133Z" stroke="#BBBBBB" stroke-width="0.6"/>
<path d="M360.427 -11.6133H343.557C343.211 -11.6133 342.889 -11.4342 342.707 -11.1399L333.821 3.20304C333.624 3.52137 333.621 3.92319 333.814 4.24427L342.709 19.0654C342.889 19.3665 343.215 19.5508 343.566 19.5508H360.418C360.778 19.5508 361.11 19.3577 361.288 19.045L369.714 4.22362C369.891 3.91288 369.889 3.53147 369.708 3.22319L361.29 -11.1194C361.11 -11.4254 360.782 -11.6133 360.427 -11.6133Z" stroke="#BBBBBB" stroke-width="0.6"/>
<path d="M64.4243 46.3867H47.56C47.2121 46.3867 46.8892 46.5675 46.7074 46.8642L37.8153 61.3724C37.6214 61.6887 37.6186 62.0864 37.808 62.4055L46.7094 77.3973C46.8896 77.7007 47.2163 77.8867 47.5692 77.8867H64.4152C64.7764 77.8867 65.1096 77.6919 65.2867 77.377L73.7198 62.3849C73.8934 62.0762 73.8908 61.6987 73.713 61.3925L65.2891 46.8846C65.1101 46.5764 64.7807 46.3867 64.4243 46.3867Z" stroke="#BBBBBB" stroke-width="0.6"/>
<path d="M40.4243 104.387H23.56C23.2121 104.387 22.8892 104.568 22.7074 104.864L13.8153 119.372C13.6214 119.689 13.6186 120.086 13.808 120.405L22.7094 135.397C22.8896 135.701 23.2163 135.887 23.5692 135.887H40.4152C40.7764 135.887 41.1096 135.692 41.2867 135.377L49.7198 120.385C49.8934 120.076 49.8908 119.699 49.713 119.392L41.2891 104.885C41.1101 104.576 40.7807 104.387 40.4243 104.387Z" stroke="#BBBBBB" stroke-width="0.6"/>
<path d="M35.4274 -11.6133H18.5568C18.2106 -11.6133 17.8891 -11.4342 17.7067 -11.1399L8.82114 3.20304C8.62393 3.52137 8.6211 3.92319 8.81379 4.24427L17.7087 19.0654C17.8894 19.3665 18.2149 19.5508 18.5661 19.5508H35.4182C35.7779 19.5508 36.1098 19.3577 36.2875 19.045L44.7145 4.22362C44.8911 3.91288 44.8885 3.53147 44.7076 3.22319L36.2898 -11.1194C36.1103 -11.4254 35.7821 -11.6133 35.4274 -11.6133Z" stroke="#BBBBBB" stroke-width="0.6"/>
<rect x="84.3672" y="153.002" width="4.76709" height="4.76709" fill="#32BEC7"/>
<path fill-rule="evenodd" clip-rule="evenodd" d="M78.3694 155.387L86.7501 163.767L95.1309 155.387L86.7501 147.006L78.3694 155.387ZM76.9552 154.68C76.5646 155.07 76.5646 155.703 76.9552 156.094L86.043 165.182C86.4335 165.572 87.0667 165.572 87.4572 165.182L96.5451 156.094C96.9356 155.703 96.9356 155.07 96.5451 154.68L87.4572 145.592C87.0667 145.201 86.4335 145.201 86.043 145.592L76.9552 154.68Z" fill="#32BEC7"/>
<rect x="15.8125" y="16.8164" width="4.76709" height="4.76709" fill="#32BEC7"/>
<path fill-rule="evenodd" clip-rule="evenodd" d="M9.81468 19.2012L18.1954 27.5819L26.5762 19.2012L18.1954 10.8204L9.81468 19.2012ZM8.40047 18.4941C8.00994 18.8846 8.00994 19.5178 8.40047 19.9083L17.4883 28.9961C17.8789 29.3867 18.512 29.3867 18.9025 28.9961L27.9904 19.9083C28.3809 19.5178 28.3809 18.8846 27.9904 18.4941L18.9025 9.4062C18.512 9.01568 17.8789 9.01568 17.4883 9.4062L8.40047 18.4941Z" fill="#32BEC7"/>
<rect x="39.8691" y="82.8711" width="4.76709" height="4.76709" fill="#32BEC7"/>
<path fill-rule="evenodd" clip-rule="evenodd" d="M33.8713 85.2559L42.2521 93.6366L50.6328 85.2559L42.2521 76.8751L33.8713 85.2559ZM32.4571 84.5488C32.0666 84.9393 32.0666 85.5724 32.4571 85.963L41.545 95.0508C41.9355 95.4414 42.5687 95.4414 42.9592 95.0508L52.047 85.963C52.4376 85.5724 52.4376 84.9393 52.047 84.5488L42.9592 75.4609C42.5687 75.0704 41.9355 75.0704 41.545 75.4609L32.4571 84.5488Z" fill="#32BEC7"/>
<rect x="108.771" y="59.752" width="4.76709" height="4.76709" fill="#32BEC7"/>
<path fill-rule="evenodd" clip-rule="evenodd" d="M102.774 62.1367L111.154 70.5175L119.535 62.1367L111.154 53.756L102.774 62.1367ZM101.359 61.4296C100.969 61.8201 100.969 62.4533 101.359 62.8438L110.447 71.9317C110.838 72.3222 111.471 72.3222 111.862 71.9317L120.949 62.8438C121.34 62.4533 121.34 61.8201 120.949 61.4296L111.862 52.3418C111.471 51.9512 110.838 51.9512 110.447 52.3418L101.359 61.4296Z" fill="#32BEC7"/>
<rect x="178.174" y="16.8164" width="4.76709" height="4.76709" fill="#32BEC7"/>
<path fill-rule="evenodd" clip-rule="evenodd" d="M172.177 19.2012L180.558 27.5819L188.938 19.2012L180.558 10.8204L172.177 19.2012ZM170.763 18.4941C170.372 18.8846 170.372 19.5178 170.763 19.9083L179.851 28.9961C180.241 29.3867 180.874 29.3867 181.265 28.9961L190.353 19.9083C190.743 19.5178 190.743 18.8846 190.353 18.4941L181.265 9.4062C180.874 9.01568 180.241 9.01568 179.851 9.4062L170.763 18.4941Z" fill="#32BEC7"/>
<rect x="78.8672" y="0.927734" width="4.76709" height="4.76709" fill="#32BEC7"/>
<path fill-rule="evenodd" clip-rule="evenodd" d="M72.8694 3.3125L81.2501 11.6933L89.6309 3.3125L81.2501 -5.06826L72.8694 3.3125ZM71.4552 2.60539C71.0646 2.99592 71.0646 3.62908 71.4552 4.01961L80.543 13.1075C80.9335 13.498 81.5667 13.498 81.9572 13.1075L91.0451 4.01961C91.4356 3.62908 91.4356 2.99592 91.0451 2.60539L81.9572 -6.48247C81.5667 -6.87299 80.9335 -6.87299 80.543 -6.48247L71.4552 2.60539Z" fill="#32BEC7"/>
<rect x="278.619" y="0.927734" width="4.76709" height="4.76709" fill="#32BEC7"/>
<path fill-rule="evenodd" clip-rule="evenodd" d="M272.621 3.3125L281.002 11.6933L289.383 3.3125L281.002 -5.06826L272.621 3.3125ZM271.207 2.60539C270.817 2.99592 270.817 3.62908 271.207 4.01961L280.295 13.1075C280.685 13.498 281.319 13.498 281.709 13.1075L290.797 4.01961C291.188 3.62908 291.188 2.99592 290.797 2.60539L281.709 -6.48247C281.319 -6.87299 280.685 -6.87299 280.295 -6.48247L271.207 2.60539Z" fill="#32BEC7"/>
<rect x="20.1934" y="134.016" width="4.76709" height="4.76709" fill="#32BEC7"/>
<path fill-rule="evenodd" clip-rule="evenodd" d="M14.1955 136.4L22.5763 144.781L30.957 136.4L22.5763 128.02L14.1955 136.4ZM12.7813 135.693C12.3908 136.084 12.3908 136.717 12.7813 137.107L21.8692 146.195C22.2597 146.586 22.8929 146.586 23.2834 146.195L32.3713 137.107C32.7618 136.717 32.7618 136.084 32.3713 135.693L23.2834 126.605C22.8929 126.215 22.2597 126.215 21.8692 126.605L12.7813 135.693Z" fill="#32BEC7"/>
</g>
<defs>
<clipPath id="clip0_2500_17889">
<rect width="358" height="154" fill="white" transform="translate(0.0078125 0.46875)"/>
</clipPath>
</defs>
</svg>
