<svg width="212" height="338" viewBox="0 0 212 338" fill="none" xmlns="http://www.w3.org/2000/svg">
<path d="M36.393 32.143C34.6642 32.1508 32.9569 31.7607 31.403 31.003C31.2575 30.9332 31.0904 30.9237 30.938 30.9765C30.7855 31.0293 30.6601 31.1402 30.589 31.285L29.634 33.26C27.1618 31.8801 25.1219 29.8402 23.742 27.368L25.717 26.411C25.8618 26.3401 25.9725 26.2147 26.025 26.0624C26.0775 25.91 26.0674 25.743 25.997 25.598C25.2393 24.0441 24.8492 22.3368 24.857 20.608C24.8567 20.447 24.7927 20.2927 24.679 20.1787C24.5652 20.0648 24.411 20.0005 24.25 20H20.607C20.446 20 20.2916 20.064 20.1778 20.1778C20.064 20.2916 20 20.446 20 20.607C20 29.647 27.354 37 36.393 37C36.554 37 36.7084 36.936 36.8222 36.8222C36.936 36.7084 37 36.554 37 36.393V32.75C37 32.589 36.936 32.4346 36.8222 32.3208C36.7084 32.207 36.554 32.143 36.393 32.143ZM73.393 32.143C71.6642 32.1508 69.9569 31.7607 68.403 31.003C68.2575 30.9332 68.0904 30.9237 67.938 30.9765C67.7855 31.0293 67.6601 31.1402 67.589 31.285L66.634 33.26C64.1618 31.8801 62.1219 29.8402 60.742 27.368L62.717 26.411C62.8618 26.3401 62.9725 26.2147 63.025 26.0624C63.0775 25.91 63.0674 25.743 62.997 25.598C62.2393 24.0441 61.8492 22.3368 61.857 20.608C61.8567 20.447 61.7927 20.2927 61.679 20.1787C61.5652 20.0648 61.411 20.0005 61.25 20H57.607C57.446 20 57.2916 20.064 57.1778 20.1778C57.064 20.2916 57 20.446 57 20.607C57 29.647 64.354 37 73.393 37C73.554 37 73.7084 36.936 73.8222 36.8222C73.936 36.7084 74 36.554 74 36.393V32.75C74 32.589 73.936 32.4346 73.8222 32.3208C73.7084 32.207 73.554 32.143 73.393 32.143ZM69.5 25.368C69.5148 25.4996 69.5813 25.62 69.6848 25.7027C69.7883 25.7854 69.9203 25.8236 70.052 25.809L74.525 25.312C74.6568 25.2974 74.7774 25.2311 74.8603 25.1275C74.9432 25.024 74.9816 24.8918 74.967 24.76C74.9524 24.6282 74.8861 24.5076 74.7825 24.4247C74.679 24.3418 74.5468 24.3034 74.415 24.318L70.439 24.76L69.997 20.785C69.9824 20.6532 69.9161 20.5326 69.8125 20.4497C69.709 20.3668 69.5768 20.3284 69.445 20.343C69.3132 20.3576 69.1926 20.4239 69.1097 20.5275C69.0268 20.631 68.9884 20.7632 69.003 20.895L69.5 25.368V25.368ZM73.607 20L69.607 25L70.387 25.625L74.387 20.625L73.607 20Z" fill="#212529"/>
<path d="M36.393 73.143C34.6642 73.1507 32.9569 72.7607 31.403 72.003C31.2575 71.9332 31.0904 71.9237 30.938 71.9765C30.7855 72.0293 30.6601 72.1402 30.589 72.285L29.634 74.26C27.1618 72.8801 25.1219 70.8402 23.742 68.368L25.717 67.411C25.8618 67.3401 25.9725 67.2147 26.025 67.0624C26.0775 66.91 26.0674 66.743 25.997 66.598C25.2393 65.0441 24.8492 63.3368 24.857 61.608C24.8567 61.447 24.7927 61.2927 24.679 61.1787C24.5652 61.0648 24.411 61.0005 24.25 61H20.607C20.446 61 20.2916 61.064 20.1778 61.1778C20.064 61.2916 20 61.446 20 61.607C20 70.647 27.354 78 36.393 78C36.554 78 36.7084 77.936 36.8222 77.8222C36.936 77.7084 37 77.554 37 77.393V73.75C37 73.589 36.936 73.4346 36.8222 73.3208C36.7084 73.207 36.554 73.143 36.393 73.143ZM69.504 68.055C69.511 68.1204 69.5308 68.1837 69.5624 68.2414C69.5939 68.2991 69.6366 68.3499 69.6879 68.391C69.7392 68.4321 69.7982 68.4626 69.8614 68.4808C69.9245 68.499 69.9907 68.5045 70.056 68.497L74.53 68C74.612 67.9914 74.6905 67.9626 74.7586 67.9162C74.8267 67.8698 74.8822 67.8072 74.9202 67.7341C74.9581 67.661 74.9773 67.5795 74.9761 67.4971C74.9748 67.4148 74.9532 67.334 74.913 67.262C74.8654 67.1753 74.7932 67.1046 74.7054 67.0591C74.6176 67.0135 74.5183 66.995 74.42 67.006L70.444 67.448L70 63.472C69.9914 63.39 69.9626 63.3115 69.9162 63.2434C69.8698 63.1753 69.8072 63.1198 69.7341 63.0818C69.661 63.0439 69.5795 63.0247 69.4971 63.0259C69.4148 63.0272 69.334 63.0488 69.262 63.089C69.1753 63.1366 69.1046 63.2088 69.0591 63.2966C69.0135 63.3844 68.995 63.4837 69.006 63.582L69.503 68.055H69.504V68.055ZM73.61 62.688L69.61 67.688L70.391 68.312L74.391 63.312L73.611 62.688H73.61ZM73.393 75.143C71.6642 75.1507 69.9569 74.7607 68.403 74.003C68.2575 73.9332 68.0904 73.9237 67.938 73.9765C67.7855 74.0293 67.6601 74.1402 67.589 74.285L66.634 76.26C64.1618 74.8801 62.1219 72.8402 60.742 70.368L62.717 69.411C62.8618 69.3401 62.9725 69.2147 63.025 69.0624C63.0775 68.91 63.0674 68.743 62.997 68.598C62.2393 67.0441 61.8492 65.3368 61.857 63.608C61.8567 63.447 61.7927 63.2927 61.679 63.1787C61.5652 63.0648 61.411 63.0005 61.25 63H57.607C57.446 63 57.2916 63.064 57.1778 63.1778C57.064 63.2916 57 63.446 57 63.607C57 72.647 64.354 80 73.393 80C73.554 80 73.7084 79.936 73.8222 79.8222C73.936 79.7084 74 79.554 74 79.393V75.75C74 75.589 73.936 75.4346 73.8222 75.3208C73.7084 75.207 73.554 75.143 73.393 75.143V75.143Z" fill="#F36B24"/>
<path d="M36.393 113.143C34.6642 113.151 32.9569 112.761 31.403 112.003C31.2577 111.933 31.0905 111.923 30.9379 111.975C30.7854 112.028 30.6599 112.139 30.589 112.284L29.634 114.26C27.1619 112.88 25.1219 110.84 23.742 108.368L25.717 107.411C25.789 107.376 25.8535 107.328 25.9066 107.268C25.9598 107.208 26.0005 107.138 26.0266 107.063C26.0526 106.987 26.0634 106.907 26.0583 106.827C26.0533 106.748 26.0324 106.67 25.997 106.598C25.2392 105.044 24.8491 103.336 24.857 101.607C24.857 101.446 24.7931 101.292 24.6792 101.178C24.5654 101.064 24.411 101 24.25 101H20.607C20.5273 101 20.4483 101.015 20.3746 101.046C20.3009 101.076 20.2339 101.121 20.1775 101.177C20.1211 101.234 20.0764 101.301 20.0459 101.375C20.0155 101.448 19.9999 101.527 20 101.607C20 110.646 27.354 118 36.393 118C36.4728 118 36.5517 117.985 36.6254 117.954C36.6992 117.924 36.7661 117.879 36.8225 117.823C36.8789 117.766 36.9236 117.699 36.9541 117.625C36.9845 117.552 37.0001 117.473 37 117.393V113.75C37 113.589 36.936 113.435 36.8222 113.321C36.7084 113.207 36.554 113.143 36.393 113.143Z" fill="black"/>
<path d="M36.393 148.143C34.6642 148.151 32.9569 147.761 31.403 147.003C31.2577 146.933 31.0905 146.923 30.9379 146.975C30.7854 147.028 30.6599 147.139 30.589 147.284L29.634 149.26C27.1619 147.88 25.1219 145.84 23.742 143.368L25.717 142.411C25.789 142.376 25.8535 142.328 25.9066 142.268C25.9598 142.208 26.0005 142.138 26.0266 142.063C26.0526 141.987 26.0634 141.907 26.0583 141.827C26.0533 141.748 26.0324 141.67 25.997 141.598C25.2392 140.044 24.8491 138.336 24.857 136.607C24.857 136.446 24.7931 136.292 24.6792 136.178C24.5654 136.064 24.411 136 24.25 136H20.607C20.5273 136 20.4483 136.015 20.3746 136.046C20.3009 136.076 20.2339 136.121 20.1775 136.177C20.1211 136.234 20.0764 136.301 20.0459 136.375C20.0155 136.448 19.9999 136.527 20 136.607C20 145.646 27.354 153 36.393 153C36.4728 153 36.5517 152.985 36.6254 152.954C36.6992 152.924 36.7661 152.879 36.8225 152.823C36.8789 152.766 36.9236 152.699 36.9541 152.625C36.9845 152.552 37.0001 152.473 37 152.393V148.75C37 148.589 36.936 148.435 36.8222 148.321C36.7084 148.207 36.554 148.143 36.393 148.143Z" fill="#337AE7"/>
<path d="M36.393 192.143C34.6642 192.151 32.9569 191.761 31.403 191.003C31.2577 190.933 31.0905 190.923 30.9379 190.975C30.7854 191.028 30.6599 191.139 30.589 191.284L29.634 193.26C27.1619 191.88 25.1219 189.84 23.742 187.368L25.717 186.411C25.789 186.376 25.8535 186.328 25.9066 186.268C25.9598 186.208 26.0005 186.138 26.0266 186.063C26.0526 185.987 26.0634 185.907 26.0583 185.827C26.0533 185.748 26.0324 185.67 25.997 185.598C25.2392 184.044 24.8491 182.336 24.857 180.607C24.857 180.446 24.7931 180.292 24.6792 180.178C24.5654 180.064 24.411 180 24.25 180H20.607C20.5273 180 20.4483 180.015 20.3746 180.046C20.3009 180.076 20.2339 180.121 20.1775 180.177C20.1211 180.234 20.0764 180.301 20.0459 180.375C20.0155 180.448 19.9999 180.527 20 180.607C20 189.646 27.354 197 36.393 197C36.4728 197 36.5517 196.985 36.6254 196.954C36.6992 196.924 36.7661 196.879 36.8225 196.823C36.8789 196.766 36.9236 196.699 36.9541 196.625C36.9845 196.552 37.0001 196.473 37 196.393V192.75C37 192.589 36.936 192.435 36.8222 192.321C36.7084 192.207 36.554 192.143 36.393 192.143V192.143Z" fill="#881C1C"/>
<path d="M36.393 236.143C34.6642 236.151 32.9569 235.761 31.403 235.003C31.2577 234.933 31.0905 234.923 30.9379 234.975C30.7854 235.028 30.6599 235.139 30.589 235.284L29.634 237.26C27.1619 235.88 25.1219 233.84 23.742 231.368L25.717 230.411C25.789 230.376 25.8535 230.328 25.9066 230.268C25.9598 230.208 26.0005 230.138 26.0266 230.063C26.0526 229.987 26.0634 229.907 26.0583 229.827C26.0533 229.748 26.0324 229.67 25.997 229.598C25.2392 228.044 24.8491 226.336 24.857 224.607C24.857 224.446 24.7931 224.292 24.6792 224.178C24.5654 224.064 24.411 224 24.25 224H20.607C20.5273 224 20.4483 224.015 20.3746 224.046C20.3009 224.076 20.2339 224.121 20.1775 224.177C20.1211 224.234 20.0764 224.301 20.0459 224.375C20.0155 224.448 19.9999 224.527 20 224.607C20 233.646 27.354 241 36.393 241C36.4728 241 36.5517 240.985 36.6254 240.954C36.6992 240.924 36.7661 240.879 36.8225 240.823C36.8789 240.766 36.9236 240.699 36.9541 240.625C36.9845 240.552 37.0001 240.473 37 240.393V236.75C37 236.589 36.936 236.435 36.8222 236.321C36.7084 236.207 36.554 236.143 36.393 236.143Z" fill="#562F83"/>
<path d="M36.393 273.143C34.6642 273.151 32.9569 272.761 31.403 272.003C31.2577 271.933 31.0905 271.923 30.9379 271.975C30.7854 272.028 30.6599 272.139 30.589 272.284L29.634 274.26C27.1619 272.88 25.1219 270.84 23.742 268.368L25.717 267.411C25.789 267.376 25.8535 267.328 25.9066 267.268C25.9598 267.208 26.0005 267.138 26.0266 267.063C26.0526 266.987 26.0634 266.907 26.0583 266.827C26.0533 266.748 26.0324 266.67 25.997 266.598C25.2392 265.044 24.8491 263.336 24.857 261.607C24.857 261.446 24.7931 261.292 24.6792 261.178C24.5654 261.064 24.411 261 24.25 261H20.607C20.5273 261 20.4483 261.015 20.3746 261.046C20.3009 261.076 20.2339 261.121 20.1775 261.177C20.1211 261.234 20.0764 261.301 20.0459 261.375C20.0155 261.448 19.9999 261.527 20 261.607C20 270.646 27.354 278 36.393 278C36.4728 278 36.5517 277.985 36.6254 277.954C36.6992 277.924 36.7661 277.879 36.8225 277.823C36.8789 277.766 36.9236 277.699 36.9541 277.625C36.9845 277.552 37.0001 277.473 37 277.393V273.75C37 273.589 36.936 273.435 36.8222 273.321C36.7084 273.207 36.554 273.143 36.393 273.143Z" fill="#86192B"/>
<path d="M36.393 313.143C34.6642 313.151 32.9569 312.761 31.403 312.003C31.2577 311.933 31.0905 311.923 30.9379 311.975C30.7854 312.028 30.6599 312.139 30.589 312.284L29.634 314.26C27.1619 312.88 25.1219 310.84 23.742 308.368L25.717 307.411C25.789 307.376 25.8535 307.328 25.9066 307.268C25.9598 307.208 26.0005 307.138 26.0266 307.063C26.0526 306.987 26.0634 306.907 26.0583 306.827C26.0533 306.748 26.0324 306.67 25.997 306.598C25.2392 305.044 24.8491 303.336 24.857 301.607C24.857 301.446 24.7931 301.292 24.6792 301.178C24.5654 301.064 24.411 301 24.25 301H20.607C20.5273 301 20.4483 301.015 20.3746 301.046C20.3009 301.076 20.2339 301.121 20.1775 301.177C20.1211 301.234 20.0764 301.301 20.0459 301.375C20.0155 301.448 19.9999 301.527 20 301.607C20 310.646 27.354 318 36.393 318C36.4728 318 36.5517 317.985 36.6254 317.954C36.6992 317.924 36.7661 317.879 36.8225 317.823C36.8789 317.766 36.9236 317.699 36.9541 317.625C36.9845 317.552 37.0001 317.473 37 317.393V313.75C37 313.589 36.936 313.435 36.8222 313.321C36.7084 313.207 36.554 313.143 36.393 313.143Z" fill="#990000"/>
<path d="M69.504 108.055C69.5193 108.186 69.5859 108.307 69.6892 108.389C69.7926 108.472 69.9243 108.511 70.056 108.497L74.53 108C74.5953 107.993 74.6586 107.974 74.7162 107.942C74.7737 107.91 74.8243 107.868 74.865 107.816C74.9471 107.712 74.9855 107.58 74.972 107.448C74.9567 107.316 74.8901 107.196 74.7868 107.114C74.6834 107.031 74.5517 106.992 74.42 107.006L70.444 107.448L70.002 103.472C69.9873 103.34 69.9208 103.22 69.8172 103.137C69.7136 103.054 69.5813 103.016 69.4495 103.03C69.3177 103.045 69.1971 103.112 69.1143 103.215C69.0315 103.319 68.9933 103.451 69.008 103.583L69.505 108.055H69.504V108.055ZM73.61 102.688L69.61 107.688L70.391 108.312L74.391 103.312L73.611 102.688H73.61ZM73.393 115.143C71.6642 115.151 69.9569 114.761 68.403 114.003C68.2577 113.933 68.0905 113.923 67.938 113.975C67.7854 114.028 67.6599 114.139 67.589 114.284L66.634 116.26C64.1619 114.88 62.1219 112.84 60.742 110.368L62.717 109.411C62.789 109.376 62.8535 109.328 62.9066 109.268C62.9598 109.208 63.0005 109.138 63.0266 109.063C63.0526 108.987 63.0634 108.907 63.0583 108.827C63.0532 108.748 63.0324 108.67 62.997 108.598C62.2392 107.044 61.8491 105.336 61.857 103.607C61.857 103.446 61.7931 103.292 61.6792 103.178C61.5654 103.064 61.411 103 61.25 103H57.607C57.5272 103 57.4483 103.015 57.3746 103.046C57.3009 103.076 57.2339 103.121 57.1775 103.177C57.1211 103.234 57.0764 103.301 57.0459 103.375C57.0155 103.448 56.9999 103.527 57 103.607C57 112.646 64.354 120 73.393 120C73.4727 120 73.5517 119.985 73.6254 119.954C73.6991 119.924 73.7661 119.879 73.8225 119.822C73.8789 119.766 73.9236 119.699 73.9541 119.625C73.9845 119.552 74.0001 119.473 74 119.393V115.75C74 115.589 73.936 115.435 73.8222 115.321C73.7084 115.207 73.554 115.143 73.393 115.143Z" fill="black"/>
<path d="M69.504 143.055C69.5193 143.186 69.5859 143.307 69.6892 143.389C69.7926 143.472 69.9243 143.511 70.056 143.497L74.53 143C74.5953 142.993 74.6586 142.974 74.7162 142.942C74.7737 142.91 74.8243 142.868 74.865 142.816C74.9471 142.712 74.9855 142.58 74.972 142.448C74.9567 142.316 74.8901 142.196 74.7868 142.114C74.6834 142.031 74.5517 141.992 74.42 142.006L70.444 142.448L70.002 138.472C69.9904 138.374 69.9503 138.281 69.8867 138.206C69.8231 138.13 69.7387 138.075 69.644 138.047C69.5807 138.029 69.5145 138.023 69.449 138.03C69.3512 138.042 69.2591 138.083 69.1838 138.147C69.1086 138.21 69.0534 138.295 69.025 138.389C69.0066 138.452 69.0008 138.518 69.008 138.583L69.505 143.055H69.504V143.055ZM73.61 137.688L69.61 142.688L70.391 143.312L74.391 138.312L73.611 137.688H73.61ZM73.393 150.143C71.6642 150.151 69.9569 149.761 68.403 149.003C68.2577 148.933 68.0905 148.923 67.938 148.975C67.7854 149.028 67.6599 149.139 67.589 149.284L66.634 151.26C64.1619 149.88 62.1219 147.84 60.742 145.368L62.717 144.411C62.789 144.376 62.8535 144.328 62.9066 144.268C62.9598 144.208 63.0005 144.138 63.0266 144.063C63.0526 143.987 63.0634 143.907 63.0583 143.827C63.0532 143.748 63.0324 143.67 62.997 143.598C62.2392 142.044 61.8491 140.336 61.857 138.607C61.857 138.446 61.7931 138.292 61.6792 138.178C61.5654 138.064 61.411 138 61.25 138H57.607C57.5272 138 57.4483 138.015 57.3746 138.046C57.3009 138.076 57.2339 138.121 57.1775 138.177C57.1211 138.234 57.0764 138.301 57.0459 138.375C57.0155 138.448 56.9999 138.527 57 138.607C57 147.646 64.354 155 73.393 155C73.4727 155 73.5517 154.984 73.6254 154.954C73.6991 154.924 73.7661 154.879 73.8225 154.822C73.8789 154.766 73.9236 154.699 73.9541 154.625C73.9845 154.552 74.0001 154.473 74 154.393V150.75C74 150.589 73.936 150.435 73.8222 150.321C73.7084 150.207 73.554 150.143 73.393 150.143V150.143Z" fill="#337AE7"/>
<path d="M70.504 187.367C70.5193 187.498 70.5859 187.619 70.6892 187.701C70.7926 187.784 70.9243 187.823 71.056 187.809L75.53 187.312C75.5953 187.305 75.6586 187.286 75.7162 187.254C75.7737 187.222 75.8243 187.18 75.865 187.128C75.9471 187.024 75.9855 186.892 75.972 186.76C75.9567 186.629 75.8901 186.508 75.7868 186.426C75.6834 186.343 75.5517 186.304 75.42 186.318L71.444 186.76L71.002 182.784C70.9873 182.652 70.9208 182.532 70.8172 182.449C70.7136 182.366 70.5813 182.328 70.4495 182.342C70.3177 182.357 70.1971 182.424 70.1143 182.527C70.0315 182.631 69.9933 182.763 70.008 182.895L70.505 187.367H70.504ZM74.61 182L70.61 187L71.391 187.624L75.391 182.624L74.611 182H74.61ZM74.393 194.455C72.6642 194.463 70.9569 194.073 69.403 193.315C69.2577 193.245 69.0905 193.235 68.938 193.287C68.7854 193.34 68.6599 193.451 68.589 193.596L67.634 195.572C65.1619 194.192 63.1219 192.152 61.742 189.68L63.717 188.723C63.789 188.688 63.8535 188.64 63.9066 188.58C63.9598 188.52 64.0005 188.45 64.0266 188.375C64.0526 188.299 64.0634 188.219 64.0583 188.139C64.0533 188.06 64.0324 187.982 63.997 187.91C63.2392 186.356 62.8491 184.648 62.857 182.919C62.857 182.758 62.7931 182.604 62.6792 182.49C62.5654 182.376 62.411 182.312 62.25 182.312H58.607C58.5272 182.312 58.4483 182.327 58.3746 182.358C58.3009 182.388 58.2339 182.433 58.1775 182.489C58.1211 182.546 58.0764 182.613 58.0459 182.687C58.0155 182.76 57.9999 182.839 58 182.919C58 191.958 65.354 199.312 74.393 199.312C74.4727 199.312 74.5517 199.297 74.6254 199.266C74.6991 199.236 74.7661 199.191 74.8225 199.135C74.8789 199.078 74.9236 199.011 74.9541 198.937C74.9845 198.864 75.0001 198.785 75 198.705V195.062C75 194.901 74.936 194.747 74.8222 194.633C74.7084 194.519 74.554 194.455 74.393 194.455V194.455Z" fill="#881C1C"/>
<path d="M70.504 231.367C70.5193 231.498 70.5859 231.619 70.6892 231.701C70.7926 231.784 70.9243 231.823 71.056 231.809L75.53 231.312C75.5953 231.305 75.6586 231.286 75.7162 231.254C75.7737 231.222 75.8243 231.18 75.865 231.128C75.9471 231.024 75.9855 230.892 75.972 230.76C75.9567 230.629 75.8901 230.508 75.7868 230.426C75.6834 230.343 75.5517 230.304 75.42 230.318L71.444 230.76L71.002 226.784C70.9873 226.652 70.9208 226.532 70.8172 226.449C70.7136 226.366 70.5813 226.328 70.4495 226.342C70.3177 226.357 70.1971 226.424 70.1143 226.527C70.0315 226.631 69.9933 226.763 70.008 226.895L70.505 231.367H70.504ZM74.61 226L70.61 231L71.391 231.624L75.391 226.624L74.611 226H74.61ZM74.393 238.455C72.6642 238.463 70.9569 238.073 69.403 237.315C69.2577 237.245 69.0905 237.235 68.938 237.287C68.7854 237.34 68.6599 237.451 68.589 237.596L67.634 239.572C65.1619 238.192 63.1219 236.152 61.742 233.68L63.717 232.723C63.789 232.688 63.8535 232.64 63.9066 232.58C63.9598 232.52 64.0005 232.45 64.0266 232.375C64.0526 232.299 64.0634 232.219 64.0583 232.139C64.0533 232.06 64.0324 231.982 63.997 231.91C63.2392 230.356 62.8491 228.648 62.857 226.919C62.857 226.758 62.7931 226.604 62.6792 226.49C62.5654 226.376 62.411 226.312 62.25 226.312H58.607C58.5272 226.312 58.4483 226.327 58.3746 226.358C58.3009 226.388 58.2339 226.433 58.1775 226.489C58.1211 226.546 58.0764 226.613 58.0459 226.687C58.0155 226.76 57.9999 226.839 58 226.919C58 235.958 65.354 243.312 74.393 243.312C74.4727 243.312 74.5517 243.297 74.6254 243.266C74.6991 243.236 74.7661 243.191 74.8225 243.135C74.8789 243.078 74.9236 243.011 74.9541 242.937C74.9845 242.864 75.0001 242.785 75 242.705V239.062C75 238.901 74.936 238.747 74.8222 238.633C74.7084 238.519 74.554 238.455 74.393 238.455V238.455Z" fill="#562F83"/>
<path d="M70.504 268.367C70.5193 268.498 70.5859 268.619 70.6892 268.701C70.7926 268.784 70.9243 268.823 71.056 268.809L75.53 268.312C75.5953 268.305 75.6586 268.286 75.7162 268.254C75.7737 268.222 75.8243 268.18 75.865 268.128C75.9471 268.024 75.9855 267.892 75.972 267.76C75.9567 267.629 75.8901 267.508 75.7868 267.426C75.6834 267.343 75.5517 267.304 75.42 267.318L71.444 267.76L71.002 263.784C70.9873 263.652 70.9208 263.532 70.8172 263.449C70.7136 263.366 70.5813 263.328 70.4495 263.342C70.3177 263.357 70.1971 263.424 70.1143 263.527C70.0315 263.631 69.9933 263.763 70.008 263.895L70.505 268.367H70.504ZM74.61 263L70.61 268L71.391 268.624L75.391 263.624L74.611 263H74.61ZM74.393 275.455C72.6642 275.463 70.9569 275.073 69.403 274.315C69.2577 274.245 69.0905 274.235 68.938 274.287C68.7854 274.34 68.6599 274.451 68.589 274.596L67.634 276.572C65.1619 275.192 63.1219 273.152 61.742 270.68L63.717 269.723C63.789 269.688 63.8535 269.64 63.9066 269.58C63.9598 269.52 64.0005 269.45 64.0266 269.375C64.0526 269.299 64.0634 269.219 64.0583 269.139C64.0533 269.06 64.0324 268.982 63.997 268.91C63.2392 267.356 62.8491 265.648 62.857 263.919C62.857 263.758 62.7931 263.604 62.6792 263.49C62.5654 263.376 62.411 263.312 62.25 263.312H58.607C58.5272 263.312 58.4483 263.327 58.3746 263.358C58.3009 263.388 58.2339 263.433 58.1775 263.489C58.1211 263.546 58.0764 263.613 58.0459 263.687C58.0155 263.76 57.9999 263.839 58 263.919C58 272.958 65.354 280.312 74.393 280.312C74.4727 280.312 74.5517 280.297 74.6254 280.266C74.6991 280.236 74.7661 280.191 74.8225 280.135C74.8789 280.078 74.9236 280.011 74.9541 279.937C74.9845 279.864 75.0001 279.785 75 279.705V276.062C75 275.901 74.936 275.747 74.8222 275.633C74.7084 275.519 74.554 275.455 74.393 275.455V275.455Z" fill="#86192B"/>
<path d="M70.504 308.367C70.5193 308.498 70.5859 308.619 70.6892 308.701C70.7926 308.784 70.9243 308.823 71.056 308.809L75.53 308.312C75.5953 308.305 75.6586 308.286 75.7162 308.254C75.7737 308.222 75.8243 308.18 75.865 308.128C75.9471 308.024 75.9855 307.892 75.972 307.76C75.9567 307.629 75.8901 307.508 75.7868 307.426C75.6834 307.343 75.5517 307.304 75.42 307.318L71.444 307.76L71.002 303.784C70.9873 303.652 70.9208 303.532 70.8172 303.449C70.7136 303.366 70.5813 303.328 70.4495 303.342C70.3177 303.357 70.1971 303.424 70.1143 303.527C70.0315 303.631 69.9933 303.763 70.008 303.895L70.505 308.367H70.504ZM74.61 303L70.61 308L71.391 308.624L75.391 303.624L74.611 303H74.61ZM74.393 315.455C72.6642 315.463 70.9569 315.073 69.403 314.315C69.2577 314.245 69.0905 314.235 68.938 314.287C68.7854 314.34 68.6599 314.451 68.589 314.596L67.634 316.572C65.1619 315.192 63.1219 313.152 61.742 310.68L63.717 309.723C63.789 309.688 63.8535 309.64 63.9066 309.58C63.9598 309.52 64.0005 309.45 64.0266 309.375C64.0526 309.299 64.0634 309.219 64.0583 309.139C64.0533 309.06 64.0324 308.982 63.997 308.91C63.2392 307.356 62.8491 305.648 62.857 303.919C62.857 303.758 62.7931 303.604 62.6792 303.49C62.5654 303.376 62.411 303.312 62.25 303.312H58.607C58.5272 303.312 58.4483 303.327 58.3746 303.358C58.3009 303.388 58.2339 303.433 58.1775 303.489C58.1211 303.546 58.0764 303.613 58.0459 303.687C58.0155 303.76 57.9999 303.839 58 303.919C58 312.958 65.354 320.312 74.393 320.312C74.4727 320.312 74.5517 320.297 74.6254 320.266C74.6991 320.236 74.7661 320.191 74.8225 320.135C74.8789 320.078 74.9236 320.011 74.9541 319.937C74.9845 319.864 75.0001 319.785 75 319.705V316.062C75 315.901 74.936 315.747 74.8222 315.633C74.7084 315.519 74.554 315.455 74.393 315.455V315.455Z" fill="#990000"/>
<path fill-rule="evenodd" clip-rule="evenodd" d="M149.21 103.429C149.21 102.871 148.755 102.417 148.198 102.417H139.428C138.871 102.417 138.416 102.871 138.416 103.429V113.687L138.992 113.112L141.591 110.512H148.198C148.755 110.512 149.21 110.057 149.21 109.5V103.429V103.429ZM149.885 105.115H151.571C152.129 105.115 152.583 105.57 152.583 106.127V117.06L152.007 116.485L149.408 113.885H142.127C141.859 113.884 141.602 113.777 141.413 113.587C141.223 113.398 141.116 113.141 141.115 112.873V111.186H149.885V105.115V105.115ZM151.908 115.432V106.127C151.908 106.038 151.872 105.952 151.809 105.889C151.746 105.826 151.66 105.79 151.571 105.79H150.559V111.861H141.789V112.873C141.79 112.962 141.826 113.047 141.889 113.11C141.952 113.173 142.037 113.209 142.126 113.21H149.687L149.786 113.309L151.908 115.432ZM141.452 109.837H148.198C148.287 109.837 148.373 109.801 148.436 109.738C148.499 109.675 148.535 109.589 148.535 109.5V103.429C148.534 103.34 148.498 103.255 148.435 103.191C148.372 103.128 148.287 103.092 148.198 103.091H139.428C139.339 103.092 139.254 103.128 139.191 103.191C139.128 103.255 139.092 103.34 139.091 103.429V112.059L141.214 109.936L141.312 109.837H141.452V109.837Z" fill="#212529"/>
<path fill-rule="evenodd" clip-rule="evenodd" d="M108.21 139.429C108.21 138.871 107.755 138.417 107.198 138.417H98.428C97.871 138.417 97.416 138.871 97.416 139.429V149.687L97.992 149.112L100.591 146.512H107.198C107.755 146.512 108.21 146.057 108.21 145.5V139.429V139.429ZM108.885 141.115H110.571C111.129 141.115 111.583 141.57 111.583 142.127V153.06L111.007 152.485L108.408 149.885H101.127C100.859 149.884 100.602 149.777 100.413 149.587C100.223 149.398 100.116 149.141 100.115 148.873V147.186H108.885V141.115ZM110.908 151.432V142.127C110.908 142.038 110.872 141.952 110.809 141.889C110.746 141.826 110.66 141.79 110.571 141.79H109.559V147.861H100.789V148.873C100.79 148.962 100.826 149.047 100.889 149.11C100.952 149.173 101.037 149.209 101.126 149.21H108.687L108.786 149.309L110.908 151.432V151.432ZM100.452 145.837H107.198C107.287 145.837 107.373 145.801 107.436 145.738C107.499 145.675 107.535 145.589 107.535 145.5V139.429C107.534 139.34 107.498 139.255 107.435 139.191C107.372 139.128 107.287 139.092 107.198 139.091H98.428C98.3389 139.092 98.2538 139.128 98.1908 139.191C98.1279 139.255 98.0921 139.34 98.091 139.429V148.059L100.214 145.936L100.312 145.837H100.452V145.837Z" fill="#337AE7"/>
<path fill-rule="evenodd" clip-rule="evenodd" d="M107.794 183.012C107.794 182.454 107.339 182 106.782 182H98.012C97.455 182 97 182.454 97 183.012V193.27L97.576 192.695L100.175 190.095H106.782C107.339 190.095 107.794 189.64 107.794 189.083V183.012V183.012ZM108.469 184.698H110.155C110.713 184.698 111.167 185.153 111.167 185.71V196.643L110.591 196.068L107.992 193.468H100.711C100.443 193.467 100.186 193.36 99.9966 193.17C99.807 192.981 99.7001 192.724 99.699 192.456V190.769H108.469V184.698ZM110.492 195.015V185.71C110.492 185.621 110.456 185.535 110.393 185.472C110.33 185.409 110.244 185.373 110.155 185.373H109.143V191.444H100.373V192.456C100.374 192.545 100.41 192.63 100.473 192.693C100.536 192.756 100.621 192.792 100.71 192.793H108.271L108.37 192.892L110.492 195.015V195.015ZM100.036 189.42H106.782C106.871 189.42 106.957 189.384 107.02 189.321C107.083 189.258 107.119 189.172 107.119 189.083V183.012C107.118 182.923 107.082 182.838 107.019 182.774C106.956 182.711 106.871 182.675 106.782 182.674H98.012C97.9229 182.675 97.8377 182.711 97.7748 182.774C97.7118 182.838 97.676 182.923 97.675 183.012V191.642L99.798 189.519L99.896 189.42H100.036V189.42Z" fill="#881C1C"/>
<path fill-rule="evenodd" clip-rule="evenodd" d="M107.794 227.012C107.794 226.454 107.339 226 106.782 226H98.012C97.455 226 97 226.454 97 227.012V237.27L97.576 236.695L100.175 234.095H106.782C107.339 234.095 107.794 233.64 107.794 233.083V227.012V227.012ZM108.469 228.698H110.155C110.713 228.698 111.167 229.153 111.167 229.71V240.643L110.591 240.068L107.992 237.468H100.711C100.443 237.467 100.186 237.36 99.9966 237.17C99.807 236.981 99.7001 236.724 99.699 236.456V234.769H108.469V228.698ZM110.492 239.015V229.71C110.492 229.621 110.456 229.535 110.393 229.472C110.33 229.409 110.244 229.373 110.155 229.373H109.143V235.444H100.373V236.456C100.374 236.545 100.41 236.63 100.473 236.693C100.536 236.756 100.621 236.792 100.71 236.793H108.271L108.37 236.892L110.492 239.015V239.015ZM100.036 233.42H106.782C106.871 233.42 106.957 233.384 107.02 233.321C107.083 233.258 107.119 233.172 107.119 233.083V227.012C107.118 226.923 107.082 226.838 107.019 226.774C106.956 226.711 106.871 226.675 106.782 226.674H98.012C97.9229 226.675 97.8377 226.711 97.7748 226.774C97.7118 226.838 97.676 226.923 97.675 227.012V235.642L99.798 233.519L99.896 233.42H100.036V233.42Z" fill="#562F83"/>
<path fill-rule="evenodd" clip-rule="evenodd" d="M107.794 264.012C107.794 263.454 107.339 263 106.782 263H98.012C97.455 263 97 263.454 97 264.012V274.27L97.576 273.695L100.175 271.095H106.782C107.339 271.095 107.794 270.64 107.794 270.083V264.012ZM108.469 265.698H110.155C110.713 265.698 111.167 266.153 111.167 266.71V277.643L110.591 277.068L107.992 274.468H100.711C100.443 274.467 100.186 274.36 99.9966 274.17C99.807 273.981 99.7001 273.724 99.699 273.456V271.769H108.469V265.698ZM110.492 276.015V266.71C110.492 266.621 110.456 266.535 110.393 266.472C110.33 266.409 110.244 266.373 110.155 266.373H109.143V272.444H100.373V273.456C100.374 273.545 100.41 273.63 100.473 273.693C100.536 273.756 100.621 273.792 100.71 273.793H108.271L108.37 273.892L110.492 276.015ZM100.036 270.42H106.782C106.871 270.42 106.957 270.384 107.02 270.321C107.083 270.258 107.119 270.172 107.119 270.083V264.012C107.118 263.923 107.082 263.838 107.019 263.774C106.956 263.711 106.871 263.675 106.782 263.674H98.012C97.9229 263.675 97.8377 263.711 97.7748 263.774C97.7118 263.838 97.676 263.923 97.675 264.012V272.642L99.798 270.519L99.896 270.42H100.036Z" fill="#86192B"/>
<path fill-rule="evenodd" clip-rule="evenodd" d="M107.794 304.012C107.794 303.454 107.339 303 106.782 303H98.012C97.455 303 97 303.454 97 304.012V314.27L97.576 313.695L100.175 311.095H106.782C107.339 311.095 107.794 310.64 107.794 310.083V304.012ZM108.469 305.698H110.155C110.713 305.698 111.167 306.153 111.167 306.71V317.643L110.591 317.068L107.992 314.468H100.711C100.443 314.467 100.186 314.36 99.9966 314.17C99.807 313.981 99.7001 313.724 99.699 313.456V311.769H108.469V305.698ZM110.492 316.015V306.71C110.492 306.621 110.456 306.535 110.393 306.472C110.33 306.409 110.244 306.373 110.155 306.373H109.143V312.444H100.373V313.456C100.374 313.545 100.41 313.63 100.473 313.693C100.536 313.756 100.621 313.792 100.71 313.793H108.271L108.37 313.892L110.492 316.015ZM100.036 310.42H106.782C106.871 310.42 106.957 310.384 107.02 310.321C107.083 310.258 107.119 310.172 107.119 310.083V304.012C107.118 303.923 107.082 303.838 107.019 303.774C106.956 303.711 106.871 303.675 106.782 303.674H98.012C97.9229 303.675 97.8377 303.711 97.7748 303.774C97.7118 303.838 97.676 303.923 97.675 304.012V312.642L99.798 310.519L99.896 310.42H100.036Z" fill="#990000"/>
<path fill-rule="evenodd" clip-rule="evenodd" d="M109.21 103.429C109.21 102.871 108.755 102.417 108.198 102.417H99.428C98.871 102.417 98.416 102.871 98.416 103.429V113.687L98.992 113.112L101.591 110.512H108.198C108.755 110.512 109.21 110.057 109.21 109.5V103.429ZM109.885 105.115H111.571C112.129 105.115 112.583 105.57 112.583 106.127V117.06L112.007 116.485L109.408 113.885H102.127C101.859 113.884 101.602 113.777 101.413 113.587C101.223 113.398 101.116 113.141 101.115 112.873V111.186H109.885V105.115ZM111.908 115.432V106.127C111.908 106.038 111.872 105.952 111.809 105.889C111.746 105.826 111.66 105.79 111.571 105.79H110.559V111.861H101.789V112.873C101.79 112.962 101.826 113.047 101.889 113.11C101.952 113.173 102.037 113.209 102.126 113.21H109.687L109.786 113.309L111.908 115.432ZM101.452 109.837H108.198C108.287 109.837 108.373 109.801 108.436 109.738C108.499 109.675 108.535 109.589 108.535 109.5V103.429C108.534 103.34 108.498 103.255 108.435 103.191C108.372 103.128 108.287 103.092 108.198 103.091H99.428C99.3389 103.092 99.2538 103.128 99.1908 103.191C99.1279 103.255 99.0921 103.34 99.091 103.429V112.059L101.214 109.936L101.312 109.837H101.452V109.837Z" fill="#CFBA91"/>
<path fill-rule="evenodd" clip-rule="evenodd" d="M109.21 63.429C109.21 62.871 108.755 62.417 108.198 62.417H99.428C98.871 62.417 98.416 62.871 98.416 63.429V73.687L98.992 73.112L101.591 70.512H108.198C108.755 70.512 109.21 70.057 109.21 69.5V63.429ZM109.885 65.115H111.571C112.129 65.115 112.583 65.57 112.583 66.127V77.06L112.007 76.484L109.408 73.884H102.127C101.859 73.8829 101.602 73.7761 101.413 73.5868C101.223 73.3974 101.116 73.1409 101.115 72.873V71.186H109.885V65.115V65.115ZM111.908 75.432V66.127C111.907 66.0379 111.871 65.9528 111.808 65.8898C111.745 65.8269 111.66 65.791 111.571 65.79H110.559V71.861H101.789V72.873C101.79 72.962 101.826 73.0472 101.889 73.1101C101.952 73.1731 102.037 73.209 102.126 73.21H109.687L109.786 73.309L111.908 75.432ZM101.452 69.837H108.198C108.287 69.8362 108.372 69.8004 108.435 69.7374C108.498 69.6744 108.534 69.5891 108.535 69.5V63.43C108.535 63.3406 108.499 63.2549 108.436 63.1916C108.373 63.1283 108.287 63.0925 108.198 63.092H99.428C99.3387 63.0928 99.2533 63.1287 99.1902 63.1919C99.1272 63.2552 99.0915 63.3407 99.091 63.43V72.06L101.214 69.937L101.312 69.838H101.452V69.837V69.837Z" fill="white"/>
<path fill-rule="evenodd" clip-rule="evenodd" d="M109.21 23.429C109.21 22.871 108.755 22.417 108.198 22.417H99.428C98.871 22.417 98.416 22.871 98.416 23.429V33.687L98.992 33.112L101.591 30.512H108.198C108.755 30.512 109.21 30.057 109.21 29.5V23.429ZM109.885 25.115H111.571C112.129 25.115 112.583 25.57 112.583 26.127V37.06L112.007 36.484L109.408 33.884H102.127C101.859 33.8829 101.602 33.7761 101.413 33.5868C101.223 33.3974 101.116 33.1409 101.115 32.873V31.186H109.885V25.115V25.115ZM111.908 35.432V26.127C111.907 26.0379 111.871 25.9528 111.808 25.8898C111.745 25.8269 111.66 25.791 111.571 25.79H110.559V31.861H101.789V32.873C101.79 32.962 101.826 33.0472 101.889 33.1101C101.952 33.1731 102.037 33.209 102.126 33.21H109.687L109.786 33.309L111.908 35.432ZM101.452 29.837H108.198C108.287 29.8362 108.372 29.8005 108.435 29.7374C108.498 29.6744 108.534 29.5891 108.535 29.5V23.43C108.535 23.3406 108.499 23.2549 108.436 23.1916C108.373 23.1283 108.287 23.0925 108.198 23.092H99.428C99.3387 23.0928 99.2533 23.1287 99.1902 23.1919C99.1272 23.2552 99.0915 23.3407 99.091 23.43V32.06L101.214 29.937L101.312 29.838H101.452V29.837V29.837Z" fill="#F36B24"/>
<path d="M140.588 29.47V29.882H141.411V20H140.588V29.471V29.47Z" fill="white"/>
<path d="M144.584 27.292L144.875 27L144.292 26.418L144.001 26.709L140.707 30.003L140.416 30.295L140.998 30.877L141.29 30.586L144.584 27.292Z" fill="white"/>
<path d="M137.997 26.709L137.705 26.418L137.123 27L137.414 27.291L140.708 30.585L140.999 30.876L141.582 30.294L141.291 30.003L137.997 26.709ZM134 33.588V34H148V31.118H147.176V33.588L147.588 33.176H134.412L134.824 33.588V31.118H134V33.588ZM141.777 73.056V73.667H142.999V59H141.777V73.056V73.056Z" fill="white"/>
<path d="M147.71 69.82L148.142 69.389L147.278 68.525L146.846 68.957L141.957 73.846L141.525 74.278L142.389 75.142L142.821 74.71L147.71 69.82Z" fill="white"/>
<path d="M137.933 68.957L137.501 68.525L136.637 69.389L137.069 69.821L141.958 74.71L142.39 75.142L143.254 74.278L142.822 73.846L137.933 68.956V68.957ZM132 79.167V79.778H152.778V75.5H151.556V79.167L152.167 78.556H132.611L133.223 79.167V75.5H132V79.167Z" fill="white"/>
</svg>
