<svg width="92" height="48" viewBox="0 0 92 48" fill="none" xmlns="http://www.w3.org/2000/svg">
<path d="M25.8951 31.8314H29.9372V47.6209H25.8951V31.8314ZM62.0213 36.3788C61.895 36.2525 60.6318 35.4946 58.6108 35.4946C56.0845 35.4946 54.1897 37.263 54.1897 39.663C54.1897 42.063 55.9581 43.8314 58.6108 43.8314C60.5055 43.8314 61.7686 43.0735 62.0213 42.9472V47.2419C61.516 47.3682 60.1265 47.7472 58.3581 47.7472C53.8108 47.7472 49.895 44.7156 49.895 39.5367C49.895 34.863 53.4318 31.3262 58.3581 31.3262C60.2529 31.3262 61.6423 31.8314 62.0213 31.8314V36.3788ZM20.3372 36.3788C20.2109 36.2525 18.9477 35.4946 16.9267 35.4946C14.4004 35.4946 12.5057 37.263 12.5057 39.663C12.5057 42.063 14.2741 43.8314 16.9267 43.8314C18.8214 43.8314 20.0846 43.0735 20.3372 42.9472V47.2419C19.832 47.3682 18.4425 47.7472 16.6741 47.7472C12.253 47.7472 8.21094 44.7156 8.21094 39.5367C8.21094 34.863 11.7478 31.3262 16.6741 31.3262C18.5688 31.3262 19.9583 31.8314 20.3372 31.8314V36.3788ZM82.8633 39.7893C82.8633 44.3367 79.3265 47.9998 74.5265 47.9998C69.7265 47.9998 66.1897 44.3367 66.1897 39.7893C66.1897 35.2419 69.7265 31.5788 74.5265 31.5788C79.4528 31.5788 82.8633 35.2419 82.8633 39.7893ZM74.5265 35.6209C72.1265 35.6209 70.3581 37.5156 70.3581 39.7893C70.3581 42.063 72.1265 43.9577 74.5265 43.9577C76.9265 43.9577 78.6949 42.063 78.6949 39.7893C78.6949 37.5156 76.9265 35.6209 74.5265 35.6209ZM44.9687 35.4946C44.9687 35.4946 43.2003 34.9893 41.8108 34.9893C40.1687 34.9893 39.2845 35.4946 39.2845 36.2525C39.2845 37.263 40.4214 37.5156 41.0529 37.7683L42.1898 38.1472C44.7161 39.0314 45.9792 40.7998 45.9792 42.6946C45.9792 46.6103 42.4424 47.9998 39.4108 47.9998C37.2635 47.9998 35.2424 47.6209 35.1161 47.6209V43.9577C35.4951 44.084 37.1372 44.5893 38.9056 44.5893C40.9266 44.5893 41.8108 43.9577 41.8108 43.0735C41.8108 42.3156 41.0529 41.8103 40.0424 41.5577C39.7898 41.4314 39.4108 41.3051 39.1582 41.3051C36.8845 40.5472 35.1161 39.284 35.1161 36.6314C35.1161 33.7262 37.3898 31.7051 41.0529 31.7051C42.9477 31.7051 44.8424 32.2104 44.9687 32.2104V35.4946Z" fill="#0096D6"/>
<path d="M4.04225 14.906C4.04565 14.6396 3.99569 14.3753 3.89532 14.1286C3.79496 13.8818 3.64622 13.6577 3.45786 13.4693C3.26951 13.281 3.04536 13.1322 2.79863 13.0319C2.55189 12.9315 2.28756 12.8815 2.02121 12.8849C1.75486 12.8815 1.49053 12.9315 1.24379 13.0319C0.997053 13.1322 0.772903 13.281 0.584551 13.4693C0.3962 13.6577 0.247458 13.8818 0.147092 14.1286C0.046727 14.3753 -0.00323141 14.6396 0.000161969 14.906V19.0744C-0.00323141 19.3407 0.046727 19.6051 0.147092 19.8518C0.247458 20.0985 0.3962 20.3227 0.584551 20.511C0.772903 20.6994 0.997053 20.8481 1.24379 20.9485C1.49053 21.0489 1.75486 21.0988 2.02121 21.0954C2.28756 21.0988 2.55189 21.0489 2.79863 20.9485C3.04536 20.8481 3.26951 20.6994 3.45786 20.511C3.64622 20.3227 3.79496 20.0985 3.89532 19.8518C3.99569 19.6051 4.04565 19.3407 4.04225 19.0744V14.906Z" fill="#0096D6"/>
<path d="M14.9052 9.47381C14.9086 9.20747 14.8586 8.94313 14.7583 8.6964C14.6579 8.44966 14.5092 8.22551 14.3208 8.03716C14.1325 7.84881 13.9083 7.70006 13.6616 7.5997C13.4148 7.49933 13.1505 7.44937 12.8842 7.45277C11.7473 7.45277 10.9894 8.33698 10.9894 9.47381V19.0738C10.986 19.3401 11.036 19.6045 11.1363 19.8512C11.2367 20.0979 11.3855 20.3221 11.5738 20.5104C11.7622 20.6988 11.9863 20.8475 12.233 20.9479C12.4798 21.0483 12.7441 21.0982 13.0105 21.0948C13.2768 21.0982 13.5411 21.0483 13.7879 20.9479C14.0346 20.8475 14.2588 20.6988 14.4471 20.5104C14.6355 20.3221 14.7842 20.0979 14.8846 19.8512C14.9849 19.6045 15.0349 19.3401 15.0315 19.0738V9.47381H14.9052ZM25.8946 2.02121C25.898 1.75486 25.8481 1.49053 25.7477 1.24379C25.6473 0.997053 25.4986 0.772903 25.3102 0.584551C25.1219 0.3962 24.8977 0.247458 24.651 0.147092C24.4043 0.0467268 24.1399 -0.00323141 23.8736 0.000161969C23.6072 -0.00323141 23.3429 0.0467268 23.0962 0.147092C22.8494 0.247458 22.6253 0.3962 22.4369 0.584551C22.2486 0.772903 22.0998 0.997053 21.9995 1.24379C21.8991 1.49053 21.8491 1.75486 21.8525 2.02121V22.9896C21.8491 23.2559 21.8991 23.5202 21.9995 23.767C22.0998 24.0137 22.2486 24.2379 22.4369 24.4262C22.6253 24.6146 22.8494 24.7633 23.0962 24.8637C23.3429 24.964 23.6072 25.014 23.8736 25.0106C24.1399 25.014 24.4043 24.964 24.651 24.8637C24.8977 24.7633 25.1219 24.6146 25.3102 24.4262C25.4986 24.2379 25.6473 24.0137 25.7477 23.767C25.8481 23.5202 25.898 23.2559 25.8946 22.9896V2.02121ZM36.7578 9.47381C36.7611 9.20747 36.7112 8.94313 36.6108 8.6964C36.5105 8.44966 36.3617 8.22551 36.1734 8.03716C35.985 7.84881 35.7609 7.70006 35.5141 7.5997C35.2674 7.49933 35.0031 7.44937 34.7367 7.45277C34.4704 7.44937 34.206 7.49933 33.9593 7.5997C33.7126 7.70006 33.4884 7.84881 33.3001 8.03716C33.1117 8.22551 32.963 8.44966 32.8626 8.6964C32.7622 8.94313 32.7123 9.20747 32.7157 9.47381V19.0738C32.7123 19.3401 32.7622 19.6045 32.8626 19.8512C32.963 20.0979 33.1117 20.3221 33.3001 20.5104C33.4884 20.6988 33.7126 20.8475 33.9593 20.9479C34.206 21.0483 34.4704 21.0982 34.7367 21.0948C35.0031 21.0982 35.2674 21.0483 35.5141 20.9479C35.7609 20.8475 35.985 20.6988 36.1734 20.5104C36.3617 20.3221 36.5105 20.0979 36.6108 19.8512C36.7112 19.6045 36.7611 19.3401 36.7578 19.0738V9.47381Z" fill="#0096D6"/>
<path d="M47.6204 14.906C47.6238 14.6396 47.5738 14.3753 47.4734 14.1286C47.3731 13.8818 47.2243 13.6577 47.036 13.4693C46.8476 13.281 46.6235 13.1322 46.3768 13.0319C46.13 12.9315 45.8657 12.8815 45.5993 12.8849C45.333 12.8815 45.0687 12.9315 44.8219 13.0319C44.5752 13.1322 44.351 13.281 44.1627 13.4693C43.9743 13.6577 43.8256 13.8818 43.7252 14.1286C43.6249 14.3753 43.5749 14.6396 43.5783 14.906V19.0744C43.5749 19.3407 43.6249 19.6051 43.7252 19.8518C43.8256 20.0985 43.9743 20.3227 44.1627 20.511C44.351 20.6994 44.5752 20.8481 44.8219 20.9485C45.0687 21.0489 45.333 21.0988 45.5993 21.0954C45.8657 21.0988 46.13 21.0489 46.3768 20.9485C46.6235 20.8481 46.8476 20.6994 47.036 20.511C47.2243 20.3227 47.3731 20.0985 47.4734 19.8518C47.5738 19.6051 47.6238 19.3407 47.6204 19.0744V14.906Z" fill="#0096D6"/>
<path d="M58.4845 9.47365C58.4845 8.93764 58.2715 8.42358 57.8925 8.04456C57.5135 7.66554 56.9994 7.45261 56.4634 7.45261C55.9274 7.45261 55.4134 7.66554 55.0343 8.04456C54.6553 8.42358 54.4424 8.93764 54.4424 9.47365V19.0736C54.4424 19.6096 54.6553 20.1237 55.0343 20.5027C55.4134 20.8817 55.9274 21.0947 56.4634 21.0947C56.9994 21.0947 57.5135 20.8817 57.8925 20.5027C58.2715 20.1237 58.4845 19.6096 58.4845 19.0736V9.47365ZM69.3476 2.02105C69.3476 1.48503 69.1347 0.97097 68.7556 0.591951C68.3766 0.212931 67.8626 0 67.3266 0C66.7905 0 66.2765 0.212931 65.8975 0.591951C65.5184 0.97097 65.3055 1.48503 65.3055 2.02105V22.9894C65.3055 23.5254 65.5184 24.0395 65.8975 24.4185C66.2765 24.7975 66.7905 25.0104 67.3266 25.0104C67.8626 25.0104 68.3766 24.7975 68.7556 24.4185C69.1347 24.0395 69.3476 23.5254 69.3476 22.9894V2.02105ZM80.2107 9.47365C80.2107 9.20825 80.1584 8.94544 80.0569 8.70023C79.9553 8.45503 79.8064 8.23223 79.6188 8.04456C79.4311 7.85689 79.2083 7.70802 78.9631 7.60645C78.7179 7.50488 78.4551 7.45261 78.1897 7.45261C77.9243 7.45261 77.6615 7.50488 77.4162 7.60645C77.171 7.70802 76.9482 7.85689 76.7606 8.04456C76.5729 8.23223 76.424 8.45503 76.3225 8.70023C76.2209 8.94544 76.1686 9.20825 76.1686 9.47365V19.0736C76.1686 19.339 76.2209 19.6018 76.3225 19.847C76.424 20.0922 76.5729 20.315 76.7606 20.5027C76.9482 20.6904 77.171 20.8393 77.4162 20.9408C77.6615 21.0424 77.9243 21.0947 78.1897 21.0947C78.4551 21.0947 78.7179 21.0424 78.9631 20.9408C79.2083 20.8393 79.4311 20.6904 79.6188 20.5027C79.8064 20.315 79.9553 20.0922 80.0569 19.847C80.1584 19.6018 80.2107 19.339 80.2107 19.0736V9.47365ZM91.0738 14.9052C91.0738 14.3692 90.8609 13.8551 90.4819 13.4761C90.1029 13.0971 89.5888 12.8842 89.0528 12.8842C88.5168 12.8842 88.0027 13.0971 87.6237 13.4761C87.2447 13.8551 87.0317 14.3692 87.0317 14.9052V19.0736C87.0317 19.6096 87.2447 20.1237 87.6237 20.5027C88.0027 20.8817 88.5168 21.0947 89.0528 21.0947C89.5888 21.0947 90.1029 20.8817 90.4819 20.5027C90.8609 20.1237 91.0738 19.6096 91.0738 19.0736V14.9052Z" fill="#0096D6"/>
</svg>
