<?xml version="1.0" encoding="UTF-8"?>
<svg width="107px" height="132px" viewBox="0 0 107 132" version="1.1" xmlns="http://www.w3.org/2000/svg" xmlns:xlink="http://www.w3.org/1999/xlink">
    <title>City Sprite image</title>
    <g id="City-Sprite-image" stroke="none" stroke-width="1" fill="none" fill-rule="evenodd">
        <rect id="Rectangle" fill="#1179EF" fill-rule="nonzero" x="70" y="34.4166" width="11.6667" height="1.16667"></rect>
        <polygon id="Path" fill="#1179EF" fill-rule="nonzero" points="77.0359 41.2811 82.8692 35.4478 83.2817 35.0353 82.8692 34.6228 77.0359 28.7895 76.2109 29.61446 82.0443 35.4478 82.0443 34.6228 76.2109 40.4562"></polygon>
        <path d="M40.55,43.83 C40.94,43.57 50,37.45 50,30 C50,24.47715 45.5228,20 40,20 C34.47715,20 30,24.47715 30,30 C30,37.45 39.06,43.57 39.45,43.83 L40.55,43.83 Z M40,22 C44.4183,22 48,25.58172 48,30 C48,35.41 41.9,40.36 40,41.77 C38.1,40.36 32,35.41 32,30 C32,25.58172 35.58172,22 40,22 Z M40,24.46 C42.9602,24.46 45.36,26.85975 45.36,29.82 C45.3545,32.778 42.958,35.1745 40,35.18 C37.03975,35.18 34.64,32.7802 34.64,29.82 C34.64,26.85975 37.03975,24.46 40,24.46 Z M36.64,29.82 C36.64,27.96432 38.14432,26.46 40,26.46 C41.8557,26.46 43.36,27.96432 43.36,29.82 C43.36,31.6757 41.8557,33.18 40,33.18 C38.1466,33.1745 36.64549,31.6734 36.64,29.82 Z M50,48 L50,46 L30,46 L30,48 L50,48 Z" id="Shape" fill="#1179EF"></path>
        <rect id="Rectangle-Copy" fill="#0A5DC9" fill-rule="nonzero" x="70" y="84.4166" width="11.6667" height="1.16667"></rect>
        <polygon id="Path-Copy" fill="#0A5DC9" fill-rule="nonzero" points="82.8692 85.4478 83.2817 85.0353 82.8692 84.6228 77.0359 78.7895 76.2109 79.61446 82.0443 85.4478 82.0443 84.6228 76.2109 90.4562 77.0359 91.2811"></polygon>
        <path d="M40.55,93.83 C40.94,93.57 50,87.45 50,80 C50,74.47715 45.5228,70 40,70 C34.47715,70 30,74.47715 30,80 C30,87.45 39.06,93.57 39.45,93.83 L40.55,93.83 Z M40,72 C44.4183,72 48,75.58172 48,80 C48,85.41 41.9,90.36 40,91.77 C38.1,90.36 32,85.41 32,80 C32,75.58172 35.58172,72 40,72 Z M40,74.46 C42.9602,74.46 45.36,76.85975 45.36,79.82 C45.3545,82.778 42.958,85.1745 40,85.18 C37.03975,85.18 34.64,82.7802 34.64,79.82 C34.64,76.85975 37.03975,74.46 40,74.46 Z M36.64,79.82 C36.64,77.96432 38.14432,76.46 40,76.46 C41.8557,76.46 43.36,77.96432 43.36,79.82 C43.36,81.6757 41.8557,83.18 40,83.18 C38.1466,83.1745 36.64549,81.6734 36.64,79.82 Z M50,98 L50,96 L30,96 L30,98 L50,98 Z" id="Shape-Copy" fill="#0A5DC9"></path>
    </g>
</svg>