<?xml version="1.0" encoding="UTF-8"?>
<svg width="236px" height="278px" viewBox="0 0 236 278" version="1.1" xmlns="http://www.w3.org/2000/svg" xmlns:xlink="http://www.w3.org/1999/xlink">
    <title>Sprite image - Cohort Dates</title>
    <defs>
        <rect id="path-1" x="0" y="0" width="24" height="24"></rect>
        <rect id="path-3" x="0" y="0" width="24" height="24"></rect>
    </defs>
    <g id="Sprite-image---Cohort-Dates" stroke="none" stroke-width="1" fill="none" fill-rule="evenodd">
        <g id="Group" transform="translate(30.000000, 22.000000)">
            <polygon id="Rectangle" fill="#E08E01" points="150 -2.85604873e-14 157 5 157 28 150 28"></polygon>
            <polygon id="Rectangle" fill="#FFA812" points="5.31085592e-15 5 157 5 157 33 5.31085592e-15 33 11 19.2551428"></polygon>
            <path d="M36.1914062,24 L36.1914062,22.9267578 L31.4746094,22.9267578 L31.4746094,14.046875 L30.1552734,14.046875 L30.1552734,24 L36.1914062,24 Z M38.2421875,15.359375 C38.4882812,15.359375 38.6751302,15.2910156 38.8027344,15.1542969 C38.9303385,15.0175781 38.9941406,14.8466797 38.9941406,14.6416016 C38.9941406,14.4365234 38.9303385,14.2633464 38.8027344,14.1220703 C38.6751302,13.9807943 38.4882812,13.9101562 38.2421875,13.9101562 C37.9960938,13.9101562 37.8103841,13.9807943 37.6850586,14.1220703 C37.5597331,14.2633464 37.4970703,14.4365234 37.4970703,14.6416016 C37.4970703,14.8466797 37.5597331,15.0175781 37.6850586,15.1542969 C37.8103841,15.2910156 37.9960938,15.359375 38.2421875,15.359375 Z M38.8642578,24 L38.8642578,16.6035156 L37.5996094,16.6035156 L37.5996094,24 L38.8642578,24 Z M42.1455078,24 L42.1455078,18.5996094 C42.4508464,17.8932292 43.0182292,17.5400391 43.8476562,17.5400391 C44.9003906,17.5400391 45.4267578,18.0777995 45.4267578,19.1533203 L45.4267578,19.1533203 L45.4267578,24 L46.6982422,24 L46.6982422,19.0917969 C46.7483724,18.6178385 46.9283854,18.2407227 47.2382812,17.9604492 C47.5481771,17.6801758 47.9378255,17.5400391 48.4072266,17.5400391 C48.976888,17.5400391 49.382487,17.6710612 49.6240234,17.9331055 C49.8655599,18.1951497 49.9863281,18.5904948 49.9863281,19.1191406 L49.9863281,19.1191406 L49.9863281,24 L51.2509766,24 L51.2509766,19.0439453 C51.2236328,17.3258464 50.398763,16.4667969 48.7763672,16.4667969 C48.2386068,16.4667969 47.7726237,16.5761719 47.378418,16.7949219 C46.9842122,17.0136719 46.6640625,17.3007812 46.4179688,17.65625 C46.0442708,16.8632812 45.3401693,16.4667969 44.3056641,16.4667969 C43.3850911,16.4667969 42.6536458,16.7858073 42.1113281,17.4238281 L42.1113281,17.4238281 L42.0771484,16.6035156 L40.8808594,16.6035156 L40.8808594,24 L42.1455078,24 Z M53.9101562,15.359375 C54.15625,15.359375 54.343099,15.2910156 54.4707031,15.1542969 C54.5983073,15.0175781 54.6621094,14.8466797 54.6621094,14.6416016 C54.6621094,14.4365234 54.5983073,14.2633464 54.4707031,14.1220703 C54.343099,13.9807943 54.15625,13.9101562 53.9101562,13.9101562 C53.6640625,13.9101562 53.4783529,13.9807943 53.3530273,14.1220703 C53.2277018,14.2633464 53.1650391,14.4365234 53.1650391,14.6416016 C53.1650391,14.8466797 53.2277018,15.0175781 53.3530273,15.1542969 C53.4783529,15.2910156 53.6640625,15.359375 53.9101562,15.359375 Z M54.5322266,24 L54.5322266,16.6035156 L53.2675781,16.6035156 L53.2675781,24 L54.5322266,24 Z M58.7158203,24.1367188 C59.0302734,24.1367188 59.3538411,24.0911458 59.6865234,24 L59.6865234,24 L59.6865234,22.9746094 C59.4313151,23.0292969 59.2307943,23.0566406 59.0849609,23.0566406 C58.788737,23.0566406 58.5791016,22.9825846 58.4560547,22.8344727 C58.3330078,22.6863607 58.2714844,22.4641927 58.2714844,22.1679688 L58.2714844,22.1679688 L58.2714844,17.5810547 L59.6523438,17.5810547 L59.6523438,16.6035156 L58.2714844,16.6035156 L58.2714844,14.8125 L57.0068359,14.8125 L57.0068359,16.6035156 L55.6601562,16.6035156 L55.6601562,17.5810547 L57.0068359,17.5810547 L57.0068359,22.1679688 C57.0068359,22.796875 57.1503906,23.2822266 57.4375,23.6240234 C57.7246094,23.9658203 58.1507161,24.1367188 58.7158203,24.1367188 Z M64.1982422,24.1367188 C65.4378255,24.1367188 66.367513,23.6604818 66.9873047,22.7080078 L66.9873047,22.7080078 L66.2148438,22.1064453 C65.9824219,22.4072266 65.711263,22.648763 65.4013672,22.8310547 C65.0914714,23.0133464 64.7132161,23.1044922 64.2666016,23.1044922 C63.6376953,23.1044922 63.1193034,22.8800456 62.7114258,22.4311523 C62.3035482,21.9822591 62.0904948,21.3932292 62.0722656,20.6640625 L62.0722656,20.6640625 L67.0830078,20.6640625 L67.0830078,20.1376953 C67.0830078,18.9573568 66.8164062,18.0504557 66.2832031,17.4169922 C65.75,16.7835286 65.0026042,16.4667969 64.0410156,16.4667969 C63.453125,16.4667969 62.9073893,16.6297201 62.4038086,16.9555664 C61.9002279,17.2814128 61.5083008,17.7325846 61.2280273,18.309082 C60.9477539,18.8855794 60.8076172,19.5406901 60.8076172,20.2744141 L60.8076172,20.2744141 L60.8076172,20.5068359 C60.8076172,21.6097005 61.1220703,22.4903971 61.7509766,23.1489258 C62.3798828,23.8074544 63.195638,24.1367188 64.1982422,24.1367188 Z M65.8183594,19.625 L62.1132812,19.625 C62.1953125,18.9550781 62.4095052,18.4344076 62.7558594,18.0629883 C63.1022135,17.691569 63.530599,17.5058594 64.0410156,17.5058594 C64.5696615,17.5058594 64.9889323,17.6824544 65.2988281,18.0356445 C65.608724,18.3888346 65.781901,18.8867188 65.8183594,19.5292969 L65.8183594,19.5292969 L65.8183594,19.625 Z M71.1435547,24.1367188 C72.0458984,24.1367188 72.75,23.8268229 73.2558594,23.2070312 L73.2558594,23.2070312 L73.3173828,24 L74.4794922,24 L74.4794922,13.5 L73.2148438,13.5 L73.2148438,17.3554688 C72.7089844,16.7630208 72.023112,16.4667969 71.1572266,16.4667969 C70.2867839,16.4667969 69.5826823,16.8120117 69.0449219,17.5024414 C68.5071615,18.1928711 68.2382812,19.1054688 68.2382812,20.2402344 L68.2382812,20.2402344 L68.2382812,20.3359375 C68.2382812,21.4661458 68.5083008,22.3821615 69.0483398,23.0839844 C69.5883789,23.7858073 70.2867839,24.1367188 71.1435547,24.1367188 Z M71.4580078,23.0634766 C70.8473307,23.0634766 70.3688151,22.8264974 70.0224609,22.3525391 C69.6761068,21.8785807 69.5029297,21.2223307 69.5029297,20.3837891 C69.5029297,19.444987 69.6761068,18.7363281 70.0224609,18.2578125 C70.3688151,17.7792969 70.851888,17.5400391 71.4716797,17.5400391 C72.2555339,17.5400391 72.8365885,17.8886719 73.2148438,18.5859375 L73.2148438,18.5859375 L73.2148438,21.9833984 C72.8457031,22.7034505 72.2600911,23.0634766 71.4580078,23.0634766 Z M83.2636719,24.1367188 C84.3164062,24.1367188 85.1572266,23.894043 85.7861328,23.4086914 C86.4150391,22.9233398 86.7294922,22.2773438 86.7294922,21.4707031 C86.7294922,20.9648438 86.6166992,20.5250651 86.3911133,20.1513672 C86.1655273,19.7776693 85.8191732,19.4506836 85.3520508,19.1704102 C84.8849284,18.8901367 84.237793,18.6337891 83.4106445,18.4013672 C82.5834961,18.1689453 81.9978841,17.9125977 81.6538086,17.6323242 C81.3097331,17.3520508 81.1376953,17.0091146 81.1376953,16.6035156 C81.1376953,16.0976562 81.3188477,15.7023112 81.6811523,15.4174805 C82.043457,15.1326497 82.5481771,14.9902344 83.1953125,14.9902344 C83.8925781,14.9902344 84.4326172,15.1622721 84.8154297,15.5063477 C85.1982422,15.8504232 85.3896484,16.3232422 85.3896484,16.9248047 L85.3896484,16.9248047 L86.7089844,16.9248047 C86.7089844,16.3733724 86.5620117,15.8652344 86.2680664,15.4003906 C85.9741211,14.9355469 85.5594076,14.5709635 85.0239258,14.3066406 C84.488444,14.0423177 83.8789062,13.9101562 83.1953125,13.9101562 C82.1927083,13.9101562 81.3780924,14.1665039 80.7514648,14.6791992 C80.1248372,15.1918945 79.8115234,15.8401693 79.8115234,16.6240234 C79.8115234,17.3167318 80.0678711,17.8989258 80.5805664,18.3706055 C81.0932617,18.8422852 81.9124349,19.2399089 83.0380859,19.5634766 C83.9358724,19.8232422 84.5556641,20.0864258 84.8974609,20.3530273 C85.2392578,20.6196289 85.4101562,20.9967448 85.4101562,21.484375 C85.4101562,21.9720052 85.2255859,22.3570964 84.8564453,22.6396484 C84.4873047,22.9222005 83.9563802,23.0634766 83.2636719,23.0634766 C82.5208333,23.0634766 81.9272461,22.8891602 81.4829102,22.5405273 C81.0385742,22.1918945 80.8164062,21.7167969 80.8164062,21.1152344 L80.8164062,21.1152344 L79.4970703,21.1152344 C79.4970703,21.6940104 79.6577148,22.211263 79.9790039,22.6669922 C80.300293,23.1227214 80.7571615,23.4816081 81.3496094,23.7436523 C81.9420573,24.0056966 82.5800781,24.1367188 83.2636719,24.1367188 Z M91.2822266,24.1367188 C92.5218099,24.1367188 93.4514974,23.6604818 94.0712891,22.7080078 L94.0712891,22.7080078 L93.2988281,22.1064453 C93.0664062,22.4072266 92.7952474,22.648763 92.4853516,22.8310547 C92.1754557,23.0133464 91.7972005,23.1044922 91.3505859,23.1044922 C90.7216797,23.1044922 90.2032878,22.8800456 89.7954102,22.4311523 C89.3875326,21.9822591 89.1744792,21.3932292 89.15625,20.6640625 L89.15625,20.6640625 L94.1669922,20.6640625 L94.1669922,20.1376953 C94.1669922,18.9573568 93.9003906,18.0504557 93.3671875,17.4169922 C92.8339844,16.7835286 92.0865885,16.4667969 91.125,16.4667969 C90.5371094,16.4667969 89.9913737,16.6297201 89.487793,16.9555664 C88.9842122,17.2814128 88.5922852,17.7325846 88.3120117,18.309082 C88.0317383,18.8855794 87.8916016,19.5406901 87.8916016,20.2744141 L87.8916016,20.2744141 L87.8916016,20.5068359 C87.8916016,21.6097005 88.2060547,22.4903971 88.8349609,23.1489258 C89.4638672,23.8074544 90.2796224,24.1367188 91.2822266,24.1367188 Z M92.9023438,19.625 L89.1972656,19.625 C89.2792969,18.9550781 89.4934896,18.4344076 89.8398438,18.0629883 C90.1861979,17.691569 90.6145833,17.5058594 91.125,17.5058594 C91.6536458,17.5058594 92.0729167,17.6824544 92.3828125,18.0356445 C92.6927083,18.3888346 92.8658854,18.8867188 92.9023438,19.5292969 L92.9023438,19.5292969 L92.9023438,19.625 Z M97.9130859,24.1367188 C98.7288411,24.1367188 99.4306641,23.8313802 100.018555,23.2207031 C100.064128,23.594401 100.123372,23.8541667 100.196289,24 L100.196289,24 L101.522461,24 L101.522461,23.890625 C101.349284,23.4895833 101.262695,22.9495443 101.262695,22.2705078 L101.262695,22.2705078 L101.262695,18.8662109 C101.244466,18.1188151 100.993815,17.5320638 100.510742,17.105957 C100.027669,16.6798503 99.360026,16.4667969 98.5078125,16.4667969 C97.9700521,16.4667969 97.4767253,16.5670573 97.027832,16.7675781 C96.5789388,16.968099 96.2234701,17.2403971 95.9614258,17.5844727 C95.6993815,17.9285482 95.5683594,18.2851562 95.5683594,18.6542969 L95.5683594,18.6542969 L96.8398438,18.6542969 C96.8398438,18.3307292 96.992513,18.055013 97.2978516,17.8271484 C97.6031901,17.5992839 97.9814453,17.4853516 98.4326172,17.4853516 C98.9475911,17.4853516 99.3372396,17.6163737 99.6015625,17.878418 C99.8658854,18.1404622 99.9980469,18.492513 99.9980469,18.9345703 L99.9980469,18.9345703 L99.9980469,19.515625 L98.7675781,19.515625 C97.7057292,19.515625 96.8819987,19.7286784 96.2963867,20.1547852 C95.7107747,20.5808919 95.4179688,21.1790365 95.4179688,21.9492188 C95.4179688,22.5826823 95.6515299,23.1056315 96.1186523,23.5180664 C96.5857747,23.9305013 97.1839193,24.1367188 97.9130859,24.1367188 Z M98.0976562,23.0361328 C97.6829427,23.0361328 97.3434245,22.9244792 97.0791016,22.7011719 C96.8147786,22.4778646 96.6826172,22.1679688 96.6826172,21.7714844 C96.6826172,20.8645833 97.4573568,20.4111328 99.0068359,20.4111328 L99.0068359,20.4111328 L99.9980469,20.4111328 L99.9980469,21.9287109 C99.8385417,22.2568359 99.5810547,22.5234375 99.2255859,22.7285156 C98.8701172,22.9335938 98.4941406,23.0361328 98.0976562,23.0361328 Z M105.405273,24.1367188 C105.719727,24.1367188 106.043294,24.0911458 106.375977,24 L106.375977,24 L106.375977,22.9746094 C106.120768,23.0292969 105.920247,23.0566406 105.774414,23.0566406 C105.47819,23.0566406 105.268555,22.9825846 105.145508,22.8344727 C105.022461,22.6863607 104.960938,22.4641927 104.960938,22.1679688 L104.960938,22.1679688 L104.960938,17.5810547 L106.341797,17.5810547 L106.341797,16.6035156 L104.960938,16.6035156 L104.960938,14.8125 L103.696289,14.8125 L103.696289,16.6035156 L102.349609,16.6035156 L102.349609,17.5810547 L103.696289,17.5810547 L103.696289,22.1679688 C103.696289,22.796875 103.839844,23.2822266 104.126953,23.6240234 C104.414062,23.9658203 104.840169,24.1367188 105.405273,24.1367188 Z M110.539062,24.1367188 C111.382161,24.1367188 112.068034,23.9373372 112.59668,23.5385742 C113.125326,23.1398112 113.389648,22.610026 113.389648,21.9492188 C113.389648,21.5527344 113.295085,21.2166341 113.105957,20.940918 C112.916829,20.6652018 112.626302,20.429362 112.234375,20.2333984 C111.842448,20.0374349 111.330892,19.8688151 110.699707,19.7275391 C110.068522,19.586263 109.632161,19.438151 109.390625,19.2832031 C109.149089,19.1282552 109.02832,18.898112 109.02832,18.5927734 C109.02832,18.2692057 109.158203,18.0071615 109.417969,17.8066406 C109.677734,17.6061198 110.03776,17.5058594 110.498047,17.5058594 C110.944661,17.5058594 111.314941,17.6311849 111.608887,17.8818359 C111.902832,18.132487 112.049805,18.4309896 112.049805,18.7773438 L112.049805,18.7773438 L113.321289,18.7773438 C113.321289,18.1028646 113.060384,17.5491536 112.538574,17.1162109 C112.016764,16.6832682 111.336589,16.4667969 110.498047,16.4667969 C109.700521,16.4667969 109.04541,16.6764323 108.532715,17.0957031 C108.02002,17.514974 107.763672,18.0276693 107.763672,18.6337891 C107.763672,18.9983724 107.853678,19.3128255 108.033691,19.5771484 C108.213704,19.8414714 108.491699,20.0693359 108.867676,20.2607422 C109.243652,20.4521484 109.75179,20.6162109 110.39209,20.7529297 C111.032389,20.8896484 111.481283,21.0525716 111.73877,21.2416992 C111.996257,21.4308268 112.125,21.6962891 112.125,22.0380859 C112.125,22.3616536 111.980306,22.6202799 111.690918,22.8139648 C111.40153,23.0076497 111.017578,23.1044922 110.539062,23.1044922 C110.019531,23.1044922 109.6014,22.980306 109.284668,22.7319336 C108.967936,22.4835612 108.798177,22.1474609 108.775391,21.7236328 L108.775391,21.7236328 L107.510742,21.7236328 C107.510742,22.1611328 107.639486,22.5678711 107.896973,22.9438477 C108.15446,23.3198242 108.511068,23.6126302 108.966797,23.8222656 C109.422526,24.031901 109.946615,24.1367188 110.539062,24.1367188 Z M124.737305,24 L124.737305,22.9267578 L120.020508,22.9267578 L120.020508,14.046875 L118.701172,14.046875 L118.701172,24 L124.737305,24 Z M129.105469,24.1367188 C130.345052,24.1367188 131.27474,23.6604818 131.894531,22.7080078 L131.894531,22.7080078 L131.12207,22.1064453 C130.889648,22.4072266 130.61849,22.648763 130.308594,22.8310547 C129.998698,23.0133464 129.620443,23.1044922 129.173828,23.1044922 C128.544922,23.1044922 128.02653,22.8800456 127.618652,22.4311523 C127.210775,21.9822591 126.997721,21.3932292 126.979492,20.6640625 L126.979492,20.6640625 L131.990234,20.6640625 L131.990234,20.1376953 C131.990234,18.9573568 131.723633,18.0504557 131.19043,17.4169922 C130.657227,16.7835286 129.909831,16.4667969 128.948242,16.4667969 C128.360352,16.4667969 127.814616,16.6297201 127.311035,16.9555664 C126.807454,17.2814128 126.415527,17.7325846 126.135254,18.309082 C125.85498,18.8855794 125.714844,19.5406901 125.714844,20.2744141 L125.714844,20.2744141 L125.714844,20.5068359 C125.714844,21.6097005 126.029297,22.4903971 126.658203,23.1489258 C127.287109,23.8074544 128.102865,24.1367188 129.105469,24.1367188 Z M130.725586,19.625 L127.020508,19.625 C127.102539,18.9550781 127.316732,18.4344076 127.663086,18.0629883 C128.00944,17.691569 128.437826,17.5058594 128.948242,17.5058594 C129.476888,17.5058594 129.896159,17.6824544 130.206055,18.0356445 C130.515951,18.3888346 130.689128,18.8867188 130.725586,19.5292969 L130.725586,19.5292969 L130.725586,19.625 Z M135.339844,24 L135.339844,17.5810547 L136.918945,17.5810547 L136.918945,16.6035156 L135.339844,16.6035156 L135.339844,15.8242188 C135.339844,15.3776042 135.451497,15.034668 135.674805,14.7954102 C135.898112,14.5561523 136.214844,14.4365234 136.625,14.4365234 C136.866536,14.4365234 137.094401,14.4570312 137.308594,14.4980469 L137.308594,14.4980469 L137.376953,13.4726562 C137.089844,13.3951823 136.800456,13.3564453 136.508789,13.3564453 C135.734049,13.3564453 135.134766,13.5729167 134.710938,14.0058594 C134.287109,14.4388021 134.075195,15.0517578 134.075195,15.8447266 L134.075195,15.8447266 L134.075195,16.6035156 L132.90625,16.6035156 L132.90625,17.5810547 L134.075195,17.5810547 L134.075195,24 L135.339844,24 Z M140.473633,24.1367188 C140.788086,24.1367188 141.111654,24.0911458 141.444336,24 L141.444336,24 L141.444336,22.9746094 C141.189128,23.0292969 140.988607,23.0566406 140.842773,23.0566406 C140.546549,23.0566406 140.336914,22.9825846 140.213867,22.8344727 C140.09082,22.6863607 140.029297,22.4641927 140.029297,22.1679688 L140.029297,22.1679688 L140.029297,17.5810547 L141.410156,17.5810547 L141.410156,16.6035156 L140.029297,16.6035156 L140.029297,14.8125 L138.764648,14.8125 L138.764648,16.6035156 L137.417969,16.6035156 L137.417969,17.5810547 L138.764648,17.5810547 L138.764648,22.1679688 C138.764648,22.796875 138.908203,23.2822266 139.195312,23.6240234 C139.482422,23.9658203 139.908529,24.1367188 140.473633,24.1367188 Z" id="LimitedSeatsLeft" fill="#FFFFFF" fill-rule="nonzero"></path>
        </g>
        <g id="Group-2" transform="translate(65.000000, 73.000000)">
            <polygon id="Rectangle" fill="#E08E01" points="117 2.95582309e-12 122 4 122 27 117 27"></polygon>
            <polygon id="Rectangle" fill="#FFA812" points="2.4528643e-13 4 122 4 122 30 2.4528643e-13 30 11 17"></polygon>
            <g id="LimitedSeatsLeft-2" transform="translate(18.000000, 12.000000)" fill="#FFFFFF" fill-rule="nonzero">
                <path d="M5.17382812,9.12304688 L5.17382812,8.203125 L1.13085938,8.203125 L1.13085938,0.591796875 L0,0.591796875 L0,9.12304688 L5.17382812,9.12304688 Z M6.93164062,1.71679688 C7.14257812,1.71679688 7.30273438,1.65820312 7.41210938,1.54101562 C7.52148438,1.42382812 7.57617188,1.27734375 7.57617188,1.1015625 C7.57617188,0.92578125 7.52148438,0.77734375 7.41210938,0.65625 C7.30273438,0.53515625 7.14257812,0.474609375 6.93164062,0.474609375 C6.72070312,0.474609375 6.56152344,0.53515625 6.45410156,0.65625 C6.34667969,0.77734375 6.29296875,0.92578125 6.29296875,1.1015625 C6.29296875,1.27734375 6.34667969,1.42382812 6.45410156,1.54101562 C6.56152344,1.65820312 6.72070312,1.71679688 6.93164062,1.71679688 Z M7.46484375,9.12304688 L7.46484375,2.78320312 L6.38085938,2.78320312 L6.38085938,9.12304688 L7.46484375,9.12304688 Z M10.2773438,9.12304688 L10.2773438,4.49414062 C10.5390625,3.88867188 11.0253906,3.5859375 11.7363281,3.5859375 C12.6386719,3.5859375 13.0898438,4.046875 13.0898438,4.96875 L13.0898438,4.96875 L13.0898438,9.12304688 L14.1796875,9.12304688 L14.1796875,4.91601562 C14.2226562,4.50976562 14.3769531,4.18652344 14.6425781,3.94628906 C14.9082031,3.70605469 15.2421875,3.5859375 15.6445312,3.5859375 C16.1328125,3.5859375 16.4804688,3.69824219 16.6875,3.92285156 C16.8945312,4.14746094 16.9980469,4.48632812 16.9980469,4.93945312 L16.9980469,4.93945312 L16.9980469,9.12304688 L18.0820312,9.12304688 L18.0820312,4.875 C18.0585938,3.40234375 17.3515625,2.66601562 15.9609375,2.66601562 C15.5,2.66601562 15.1005859,2.75976562 14.7626953,2.94726562 C14.4248047,3.13476562 14.1503906,3.38085938 13.9394531,3.68554688 C13.6191406,3.00585938 13.015625,2.66601562 12.1289062,2.66601562 C11.3398438,2.66601562 10.7128906,2.93945312 10.2480469,3.48632812 L10.2480469,3.48632812 L10.21875,2.78320312 L9.19335938,2.78320312 L9.19335938,9.12304688 L10.2773438,9.12304688 Z M20.3613281,1.71679688 C20.5722656,1.71679688 20.7324219,1.65820312 20.8417969,1.54101562 C20.9511719,1.42382812 21.0058594,1.27734375 21.0058594,1.1015625 C21.0058594,0.92578125 20.9511719,0.77734375 20.8417969,0.65625 C20.7324219,0.53515625 20.5722656,0.474609375 20.3613281,0.474609375 C20.1503906,0.474609375 19.9912109,0.53515625 19.8837891,0.65625 C19.7763672,0.77734375 19.7226562,0.92578125 19.7226562,1.1015625 C19.7226562,1.27734375 19.7763672,1.42382812 19.8837891,1.54101562 C19.9912109,1.65820312 20.1503906,1.71679688 20.3613281,1.71679688 Z M20.8945312,9.12304688 L20.8945312,2.78320312 L19.8105469,2.78320312 L19.8105469,9.12304688 L20.8945312,9.12304688 Z M24.4804688,9.24023438 C24.75,9.24023438 25.0273438,9.20117188 25.3125,9.12304688 L25.3125,9.12304688 L25.3125,8.24414062 C25.09375,8.29101562 24.921875,8.31445312 24.796875,8.31445312 C24.5429688,8.31445312 24.3632812,8.25097656 24.2578125,8.12402344 C24.1523438,7.99707031 24.0996094,7.80664062 24.0996094,7.55273438 L24.0996094,7.55273438 L24.0996094,3.62109375 L25.2832031,3.62109375 L25.2832031,2.78320312 L24.0996094,2.78320312 L24.0996094,1.24804688 L23.015625,1.24804688 L23.015625,2.78320312 L21.8613281,2.78320312 L21.8613281,3.62109375 L23.015625,3.62109375 L23.015625,7.55273438 C23.015625,8.09179688 23.1386719,8.5078125 23.3847656,8.80078125 C23.6308594,9.09375 23.9960938,9.24023438 24.4804688,9.24023438 Z M29.1796875,9.24023438 C30.2421875,9.24023438 31.0390625,8.83203125 31.5703125,8.015625 L31.5703125,8.015625 L30.9082031,7.5 C30.7089844,7.7578125 30.4765625,7.96484375 30.2109375,8.12109375 C29.9453125,8.27734375 29.6210938,8.35546875 29.2382812,8.35546875 C28.6992188,8.35546875 28.2548828,8.16308594 27.9052734,7.77832031 C27.5556641,7.39355469 27.3730469,6.88867188 27.3574219,6.26367188 L27.3574219,6.26367188 L31.6523438,6.26367188 L31.6523438,5.8125 C31.6523438,4.80078125 31.4238281,4.0234375 30.9667969,3.48046875 C30.5097656,2.9375 29.8691406,2.66601562 29.0449219,2.66601562 C28.5410156,2.66601562 28.0732422,2.80566406 27.6416016,3.08496094 C27.2099609,3.36425781 26.8740234,3.75097656 26.6337891,4.24511719 C26.3935547,4.73925781 26.2734375,5.30078125 26.2734375,5.9296875 L26.2734375,5.9296875 L26.2734375,6.12890625 C26.2734375,7.07421875 26.5429688,7.82910156 27.0820312,8.39355469 C27.6210938,8.95800781 28.3203125,9.24023438 29.1796875,9.24023438 Z M30.5683594,5.37304688 L27.3925781,5.37304688 C27.4628906,4.79882812 27.6464844,4.35253906 27.9433594,4.03417969 C28.2402344,3.71582031 28.6074219,3.55664062 29.0449219,3.55664062 C29.4980469,3.55664062 29.8574219,3.70800781 30.1230469,4.01074219 C30.3886719,4.31347656 30.5371094,4.74023438 30.5683594,5.29101562 L30.5683594,5.29101562 L30.5683594,5.37304688 Z M35.1328125,9.24023438 C35.90625,9.24023438 36.5097656,8.97460938 36.9433594,8.44335938 L36.9433594,8.44335938 L36.9960938,9.12304688 L37.9921875,9.12304688 L37.9921875,0.123046875 L36.9082031,0.123046875 L36.9082031,3.42773437 C36.4746094,2.91992188 35.8867188,2.66601562 35.1445312,2.66601562 C34.3984375,2.66601562 33.7949219,2.96191406 33.3339844,3.55371094 C32.8730469,4.14550781 32.6425781,4.92773438 32.6425781,5.90039062 L32.6425781,5.90039062 L32.6425781,5.98242188 C32.6425781,6.95117188 32.8740234,7.73632812 33.3369141,8.33789062 C33.7998047,8.93945312 34.3984375,9.24023438 35.1328125,9.24023438 Z M35.4023438,8.3203125 C34.8789062,8.3203125 34.46875,8.1171875 34.171875,7.7109375 C33.875,7.3046875 33.7265625,6.7421875 33.7265625,6.0234375 C33.7265625,5.21875 33.875,4.61132812 34.171875,4.20117188 C34.46875,3.79101562 34.8828125,3.5859375 35.4140625,3.5859375 C36.0859375,3.5859375 36.5839844,3.88476562 36.9082031,4.48242188 L36.9082031,4.48242188 L36.9082031,7.39453125 C36.5917969,8.01171875 36.0898438,8.3203125 35.4023438,8.3203125 Z M45.5214844,9.24023438 C46.4238281,9.24023438 47.1445312,9.03222656 47.6835938,8.61621094 C48.2226562,8.20019531 48.4921875,7.64648438 48.4921875,6.95507812 C48.4921875,6.52148438 48.3955078,6.14453125 48.2021484,5.82421875 C48.0087891,5.50390625 47.7119141,5.22363281 47.3115234,4.98339844 C46.9111328,4.74316406 46.3564453,4.5234375 45.6474609,4.32421875 C44.9384766,4.125 44.4365234,3.90527344 44.1416016,3.66503906 C43.8466797,3.42480469 43.6992188,3.13085938 43.6992188,2.78320312 C43.6992188,2.34960938 43.8544922,2.01074219 44.1650391,1.76660156 C44.4755859,1.52246094 44.9082031,1.40039062 45.4628906,1.40039062 C46.0605469,1.40039062 46.5234375,1.54785156 46.8515625,1.84277344 C47.1796875,2.13769531 47.34375,2.54296875 47.34375,3.05859375 L47.34375,3.05859375 L48.4746094,3.05859375 C48.4746094,2.5859375 48.3486328,2.15039062 48.0966797,1.75195312 C47.8447266,1.35351562 47.4892578,1.04101562 47.0302734,0.814453125 C46.5712891,0.587890625 46.0488281,0.474609375 45.4628906,0.474609375 C44.6035156,0.474609375 43.9052734,0.694335938 43.3681641,1.13378906 C42.8310547,1.57324219 42.5625,2.12890625 42.5625,2.80078125 C42.5625,3.39453125 42.7822266,3.89355469 43.2216797,4.29785156 C43.6611328,4.70214844 44.3632812,5.04296875 45.328125,5.3203125 C46.0976562,5.54296875 46.6289062,5.76855469 46.921875,5.99707031 C47.2148438,6.22558594 47.3613281,6.54882812 47.3613281,6.96679688 C47.3613281,7.38476562 47.203125,7.71484375 46.8867188,7.95703125 C46.5703125,8.19921875 46.1152344,8.3203125 45.5214844,8.3203125 C44.8847656,8.3203125 44.3759766,8.17089844 43.9951172,7.87207031 C43.6142578,7.57324219 43.4238281,7.16601563 43.4238281,6.65039062 L43.4238281,6.65039062 L42.2929688,6.65039062 C42.2929688,7.14648438 42.4306641,7.58984375 42.7060547,7.98046875 C42.9814453,8.37109375 43.3730469,8.67871094 43.8808594,8.90332031 C44.3886719,9.12792969 44.9355469,9.24023438 45.5214844,9.24023438 Z M52.3945312,9.24023438 C53.4570312,9.24023438 54.2539062,8.83203125 54.7851562,8.015625 L54.7851562,8.015625 L54.1230469,7.5 C53.9238281,7.7578125 53.6914062,7.96484375 53.4257812,8.12109375 C53.1601562,8.27734375 52.8359375,8.35546875 52.453125,8.35546875 C51.9140625,8.35546875 51.4697266,8.16308594 51.1201172,7.77832031 C50.7705078,7.39355469 50.5878906,6.88867188 50.5722656,6.26367188 L50.5722656,6.26367188 L54.8671875,6.26367188 L54.8671875,5.8125 C54.8671875,4.80078125 54.6386719,4.0234375 54.1816406,3.48046875 C53.7246094,2.9375 53.0839844,2.66601562 52.2597656,2.66601562 C51.7558594,2.66601562 51.2880859,2.80566406 50.8564453,3.08496094 C50.4248047,3.36425781 50.0888672,3.75097656 49.8486328,4.24511719 C49.6083984,4.73925781 49.4882812,5.30078125 49.4882812,5.9296875 L49.4882812,5.9296875 L49.4882812,6.12890625 C49.4882812,7.07421875 49.7578125,7.82910156 50.296875,8.39355469 C50.8359375,8.95800781 51.5351562,9.24023438 52.3945312,9.24023438 Z M53.7832031,5.37304688 L50.6074219,5.37304688 C50.6777344,4.79882812 50.8613281,4.35253906 51.1582031,4.03417969 C51.4550781,3.71582031 51.8222656,3.55664062 52.2597656,3.55664062 C52.7128906,3.55664062 53.0722656,3.70800781 53.3378906,4.01074219 C53.6035156,4.31347656 53.7519531,4.74023438 53.7832031,5.29101562 L53.7832031,5.29101562 L53.7832031,5.37304688 Z M58.078125,9.24023438 C58.7773438,9.24023438 59.3789062,8.97851562 59.8828125,8.45507812 C59.921875,8.77539062 59.9726562,8.99804688 60.0351562,9.12304688 L60.0351562,9.12304688 L61.171875,9.12304688 L61.171875,9.02929688 C61.0234375,8.68554688 60.9492188,8.22265625 60.9492188,7.640625 L60.9492188,7.640625 L60.9492188,4.72265625 C60.9335938,4.08203125 60.71875,3.57910156 60.3046875,3.21386719 C59.890625,2.84863281 59.3183594,2.66601562 58.5878906,2.66601562 C58.1269531,2.66601562 57.7041016,2.75195312 57.3193359,2.92382812 C56.9345703,3.09570312 56.6298828,3.32910156 56.4052734,3.62402344 C56.1806641,3.91894531 56.0683594,4.22460938 56.0683594,4.54101562 L56.0683594,4.54101562 L57.1582031,4.54101562 C57.1582031,4.26367188 57.2890625,4.02734375 57.5507812,3.83203125 C57.8125,3.63671875 58.1367188,3.5390625 58.5234375,3.5390625 C58.9648438,3.5390625 59.2988281,3.65136719 59.5253906,3.87597656 C59.7519531,4.10058594 59.8652344,4.40234375 59.8652344,4.78125 L59.8652344,4.78125 L59.8652344,5.27929688 L58.8105469,5.27929688 C57.9003906,5.27929688 57.1943359,5.46191406 56.6923828,5.82714844 C56.1904297,6.19238281 55.9394531,6.70507812 55.9394531,7.36523438 C55.9394531,7.90820312 56.1396484,8.35644531 56.5400391,8.70996094 C56.9404297,9.06347656 57.453125,9.24023438 58.078125,9.24023438 Z M58.2363281,8.296875 C57.8808594,8.296875 57.5898438,8.20117188 57.3632812,8.00976562 C57.1367188,7.81835938 57.0234375,7.55273438 57.0234375,7.21289062 C57.0234375,6.43554688 57.6875,6.046875 59.015625,6.046875 L59.015625,6.046875 L59.8652344,6.046875 L59.8652344,7.34765625 C59.7285156,7.62890625 59.5078125,7.85742188 59.203125,8.03320312 C58.8984375,8.20898438 58.5761719,8.296875 58.2363281,8.296875 Z M64.5,9.24023438 C64.7695312,9.24023438 65.046875,9.20117188 65.3320312,9.12304688 L65.3320312,9.12304688 L65.3320312,8.24414062 C65.1132812,8.29101562 64.9414062,8.31445312 64.8164062,8.31445312 C64.5625,8.31445312 64.3828125,8.25097656 64.2773438,8.12402344 C64.171875,7.99707031 64.1191406,7.80664062 64.1191406,7.55273438 L64.1191406,7.55273438 L64.1191406,3.62109375 L65.3027344,3.62109375 L65.3027344,2.78320312 L64.1191406,2.78320312 L64.1191406,1.24804688 L63.0351562,1.24804688 L63.0351562,2.78320312 L61.8808594,2.78320312 L61.8808594,3.62109375 L63.0351562,3.62109375 L63.0351562,7.55273438 C63.0351562,8.09179688 63.1582031,8.5078125 63.4042969,8.80078125 C63.6503906,9.09375 64.015625,9.24023438 64.5,9.24023438 Z M68.9003906,9.24023438 C69.6230469,9.24023438 70.2109375,9.06933594 70.6640625,8.72753906 C71.1171875,8.38574219 71.34375,7.93164062 71.34375,7.36523438 C71.34375,7.02539062 71.2626953,6.73730469 71.1005859,6.50097656 C70.9384766,6.26464844 70.6894531,6.0625 70.3535156,5.89453125 C70.0175781,5.7265625 69.5791016,5.58203125 69.0380859,5.4609375 C68.4970703,5.33984375 68.1230469,5.21289062 67.9160156,5.08007812 C67.7089844,4.94726562 67.6054688,4.75 67.6054688,4.48828125 C67.6054688,4.2109375 67.7167969,3.98632812 67.9394531,3.81445312 C68.1621094,3.64257812 68.4707031,3.55664062 68.8652344,3.55664062 C69.2480469,3.55664062 69.5654297,3.6640625 69.8173828,3.87890625 C70.0693359,4.09375 70.1953125,4.34960938 70.1953125,4.64648438 L70.1953125,4.64648438 L71.2851562,4.64648438 C71.2851562,4.06835938 71.0615234,3.59375 70.6142578,3.22265625 C70.1669922,2.8515625 69.5839844,2.66601562 68.8652344,2.66601562 C68.1816406,2.66601562 67.6201172,2.84570312 67.1806641,3.20507812 C66.7412109,3.56445312 66.5214844,4.00390625 66.5214844,4.5234375 C66.5214844,4.8359375 66.5986328,5.10546875 66.7529297,5.33203125 C66.9072266,5.55859375 67.1455078,5.75390625 67.4677734,5.91796875 C67.7900391,6.08203125 68.2255859,6.22265625 68.7744141,6.33984375 C69.3232422,6.45703125 69.7080078,6.59667969 69.9287109,6.75878906 C70.1494141,6.92089844 70.2597656,7.1484375 70.2597656,7.44140625 C70.2597656,7.71875 70.1357422,7.94042969 69.8876953,8.10644531 C69.6396484,8.27246094 69.3105469,8.35546875 68.9003906,8.35546875 C68.4550781,8.35546875 68.0966797,8.24902344 67.8251953,8.03613281 C67.5537109,7.82324219 67.4082031,7.53515625 67.3886719,7.171875 L67.3886719,7.171875 L66.3046875,7.171875 C66.3046875,7.546875 66.4150391,7.89550781 66.6357422,8.21777344 C66.8564453,8.54003906 67.1621094,8.79101562 67.5527344,8.97070312 C67.9433594,9.15039062 68.3925781,9.24023438 68.9003906,9.24023438 Z M81.0703125,9.12304688 L81.0703125,8.203125 L77.0273438,8.203125 L77.0273438,0.591796875 L75.8964844,0.591796875 L75.8964844,9.12304688 L81.0703125,9.12304688 Z M84.8144531,9.24023438 C85.8769531,9.24023438 86.6738281,8.83203125 87.2050781,8.015625 L87.2050781,8.015625 L86.5429688,7.5 C86.34375,7.7578125 86.1113281,7.96484375 85.8457031,8.12109375 C85.5800781,8.27734375 85.2558594,8.35546875 84.8730469,8.35546875 C84.3339844,8.35546875 83.8896484,8.16308594 83.5400391,7.77832031 C83.1904297,7.39355469 83.0078125,6.88867188 82.9921875,6.26367188 L82.9921875,6.26367188 L87.2871094,6.26367188 L87.2871094,5.8125 C87.2871094,4.80078125 87.0585938,4.0234375 86.6015625,3.48046875 C86.1445312,2.9375 85.5039062,2.66601562 84.6796875,2.66601562 C84.1757812,2.66601562 83.7080078,2.80566406 83.2763672,3.08496094 C82.8447266,3.36425781 82.5087891,3.75097656 82.2685547,4.24511719 C82.0283203,4.73925781 81.9082031,5.30078125 81.9082031,5.9296875 L81.9082031,5.9296875 L81.9082031,6.12890625 C81.9082031,7.07421875 82.1777344,7.82910156 82.7167969,8.39355469 C83.2558594,8.95800781 83.9550781,9.24023438 84.8144531,9.24023438 Z M86.203125,5.37304688 L83.0273438,5.37304688 C83.0976562,4.79882812 83.28125,4.35253906 83.578125,4.03417969 C83.875,3.71582031 84.2421875,3.55664062 84.6796875,3.55664062 C85.1328125,3.55664062 85.4921875,3.70800781 85.7578125,4.01074219 C86.0234375,4.31347656 86.171875,4.74023438 86.203125,5.29101562 L86.203125,5.29101562 L86.203125,5.37304688 Z M90.1582031,9.12304688 L90.1582031,3.62109375 L91.5117188,3.62109375 L91.5117188,2.78320312 L90.1582031,2.78320312 L90.1582031,2.11523438 C90.1582031,1.73242188 90.2539062,1.43847656 90.4453125,1.23339844 C90.6367188,1.02832031 90.9082031,0.92578125 91.2597656,0.92578125 C91.4667969,0.92578125 91.6621094,0.943359375 91.8457031,0.978515625 L91.8457031,0.978515625 L91.9042969,0.099609375 C91.6582031,0.033203125 91.4101562,0 91.1601562,0 C90.4960938,0 89.9824219,0.185546875 89.6191406,0.556640625 C89.2558594,0.927734375 89.0742188,1.453125 89.0742188,2.1328125 L89.0742188,2.1328125 L89.0742188,2.78320312 L88.0722656,2.78320312 L88.0722656,3.62109375 L89.0742188,3.62109375 L89.0742188,9.12304688 L90.1582031,9.12304688 Z M94.5585938,9.24023438 C94.828125,9.24023438 95.1054688,9.20117188 95.390625,9.12304688 L95.390625,9.12304688 L95.390625,8.24414062 C95.171875,8.29101562 95,8.31445312 94.875,8.31445312 C94.6210938,8.31445312 94.4414062,8.25097656 94.3359375,8.12402344 C94.2304688,7.99707031 94.1777344,7.80664062 94.1777344,7.55273438 L94.1777344,7.55273438 L94.1777344,3.62109375 L95.3613281,3.62109375 L95.3613281,2.78320312 L94.1777344,2.78320312 L94.1777344,1.24804688 L93.09375,1.24804688 L93.09375,2.78320312 L91.9394531,2.78320312 L91.9394531,3.62109375 L93.09375,3.62109375 L93.09375,7.55273438 C93.09375,8.09179688 93.2167969,8.5078125 93.4628906,8.80078125 C93.7089844,9.09375 94.0742188,9.24023438 94.5585938,9.24023438 Z" id="LimitedSeatsLeft"></path>
            </g>
        </g>
        <g id="Group-2-Copy-2" transform="translate(30.000000, 194.000000)" fill="#848DA0" fill-rule="nonzero">
            <path d="M13,0 C14.1045695,0 15,0.8954305 15,2 L15,12 C15,13.1045695 14.1045695,14 13,14 L2,14 C0.8954305,14 0,13.1045695 0,12 L0,2 C0,0.8954305 0.8954305,0 2,0 L13,0 Z M13,1 L2,1 C1.48716416,1 1.06449284,1.38604019 1.00672773,1.88337887 L1,2 L1,12 C1,12.5128358 1.38604019,12.9355072 1.88337887,12.9932723 L2,13 L13,13 C13.5128358,13 13.9355072,12.6139598 13.9932723,12.1166211 L14,12 L14,2 C14,1.48716416 13.6139598,1.06449284 13.1166211,1.00672773 L13,1 Z" id="Rectangle"></path>
            <path d="M7,3 L7,6 L3,6 L3,3 L7,3 Z M6,4 L4,4 L4,5 L6,5 L6,4 Z" id="Rectangle"></path>
            <path d="M7,8 L7,11 L3,11 L3,8 L7,8 Z M6,9 L4,9 L4,10 L6,10 L6,9 Z" id="Rectangle-Copy"></path>
            <polygon id="Line" points="12 4 12 5 8 5 8 4"></polygon>
            <polygon id="Line-Copy" points="12 9 12 10 8 10 8 9"></polygon>
        </g>
        <g id="Group-12-Copy-2" transform="translate(30.000000, 162.000000)" fill="#848DA0" fill-rule="nonzero">
            <path d="M7.44705882,-3.26013726e-14 C3.3341618,-3.26013726e-14 1.27897692e-13,3.3341618 1.27897692e-13,7.44705882 C1.27897692e-13,11.5599558 3.3341618,14.8941176 7.44705882,14.8941176 C11.5599558,14.8941176 14.8941176,11.5599558 14.8941176,7.44705882 C14.8892556,3.33617743 11.5579402,0.00486207653 7.44705882,-3.26013726e-14 Z M7.44705882,13.8352941 C3.91893389,13.8352941 1.05882353,10.9751838 1.05882353,7.44705882 C1.05882353,3.91893389 3.91893389,1.05882353 7.44705882,1.05882353 C10.9751838,1.05882353 13.8352941,3.91893389 13.8352941,7.44705882 C13.8314039,10.9735711 10.9735711,13.8314039 7.44705882,13.8352941 Z" id="Shape"></path>
            <path d="M10.0182353,7.37470588 L7.55647059,7.37470588 L7.55647059,3.15661765 C7.55647058,2.86423161 7.31944486,2.6272059 7.02705882,2.6272059 C6.73467279,2.6272059 6.49764706,2.86423161 6.49764706,3.15661765 L6.49764706,7.91117647 C6.49764706,8.20356251 6.73467278,8.44058824 7.02705882,8.44058824 L10.0270588,8.44058824 C10.3194449,8.44058824 10.5564706,8.20356251 10.5564706,7.91117647 C10.5564706,7.61879043 10.3194449,7.38176471 10.0270588,7.38176471 L10.0182353,7.37470588 Z" id="Path"></path>
        </g>
        <g id="Shape-2-Copy-2" transform="translate(30.000000, 130.000000)" fill="#848DA0" fill-rule="nonzero">
            <path d="M13.2479508,1.11504425 L12.2643443,1.11504425 L12.2643443,0.526548673 C12.2643443,0.23539823 12.0307377,0 11.7418033,0 C11.4528689,0 11.2192623,0.23539823 11.2192623,0.526548673 L11.2192623,1.11504425 L3.99590164,1.11504425 L3.99590164,0.526548673 C3.99590164,0.23539823 3.76229508,0 3.47336066,0 C3.18442623,0 2.95081967,0.23539823 2.95081967,0.526548673 L2.95081967,1.11504425 L1.75204918,1.11504425 C0.786885246,1.11504425 0,1.89867257 0,2.87123894 L0,4.50044248 L0,5.55353982 L0,12.2345133 C0,13.2070796 0.783811475,14 1.75204918,14 L13.2479508,14 C14.2131148,14 15,13.2070796 15,12.2345133 L15,5.55353982 L15,4.50044248 L15,2.87123894 C15,1.89867257 14.2161885,1.11504425 13.2479508,1.11504425 Z M13.954918,12.2345133 C13.954918,12.6278761 13.6383197,12.9469027 13.2479508,12.9469027 L1.75204918,12.9469027 C1.36168033,12.9469027 1.04508197,12.6278761 1.04508197,12.2345133 L1.04508197,5.54424779 L13.954918,5.54424779 L13.954918,12.2345133 Z M1.04508197,4.49115044 L1.04508197,2.87123894 C1.04508197,2.47787611 1.36168033,2.16814159 1.75204918,2.16814159 L2.95081967,2.16814159 L2.95081967,2.56150442 C2.95081967,2.85265487 3.18442623,3.0880531 3.47336066,3.0880531 C3.76229508,3.0880531 3.99590164,2.85265487 3.99590164,2.56150442 L3.99590164,2.16814159 L11.2192623,2.16814159 L11.2192623,2.56150442 C11.2192623,2.85265487 11.4528689,3.0880531 11.7418033,3.0880531 C12.0307377,3.0880531 12.2643443,2.85265487 12.2643443,2.56150442 L12.2643443,2.16814159 L13.2479508,2.16814159 C13.6383197,2.16814159 13.954918,2.47787611 13.954918,2.87123894 L13.954918,4.49115044 L1.04508197,4.49115044 Z" id="Shape"></path>
        </g>
        <g id="Oval-5-+-Path-143-Mask-Copy-4" transform="translate(96.000000, 172.000000)">
            <mask id="mask-2" fill="white">
                <use xlink:href="#path-1"></use>
            </mask>
            <g id="Mask"></g>
            <polygon id="Path-143" stroke="#50565F" fill="#51565E" fill-rule="nonzero" mask="url(#mask-2)" points="6.64644661 10.3535534 11.6464466 15.3535534 12 15.7071068 12.3535534 15.3535534 17.3535534 10.3535534 16.6464466 9.64644661 11.6464466 14.6464466 12.3535534 14.6464466 7.35355339 9.64644661"></polygon>
        </g>
        <g id="Oval-5-+-Path-143-Mask-Copy-11" transform="translate(108.000000, 142.000000) scale(1, -1) translate(-108.000000, -142.000000) translate(96.000000, 130.000000)">
            <mask id="mask-4" fill="white">
                <use xlink:href="#path-3"></use>
            </mask>
            <g id="Mask"></g>
            <polygon id="Path-143" stroke="#50565F" fill="#51565E" fill-rule="nonzero" mask="url(#mask-4)" points="6.64644661 10.3535534 11.6464466 15.3535534 12 15.7071068 12.3535534 15.3535534 17.3535534 10.3535534 16.6464466 9.64644661 11.6464466 14.6464466 12.3535534 14.6464466 7.35355339 9.64644661"></polygon>
        </g>
    </g>
</svg>