<svg width="220" height="584" viewBox="0 0 220 584" fill="none" xmlns="http://www.w3.org/2000/svg">
<path d="M163.044 400.853V397H148.416V400.853H136V426.969H146.695V426.052H136.922V410.945L140.057 413.269C140.733 413.82 141.655 414.064 142.515 414.064H152.78L153.579 415.777H157.942L158.741 414.064H168.944C169.805 414.064 170.665 413.758 171.403 413.269L174.538 410.945V426.052H167.039V426.969H175.398V400.853H163.044ZM149.338 397.917H162.183V400.853H149.338V397.917ZM158.311 412.78L157.328 414.859H154.132L153.148 412.78V411.862H158.25V412.78H158.311ZM170.85 412.535C170.297 412.963 169.621 413.147 168.944 413.147H159.11L159.172 412.963V410.884H152.226V412.963L152.288 413.147H142.515C141.839 413.147 141.163 412.902 140.61 412.535L136.922 409.783V401.771H174.538V409.783L170.85 412.535Z" fill="#1179EF" stroke="#1179EF" stroke-width="0.7"/>
<path d="M160.794 435.997H164.657V423.42H160.794V435.997ZM161.622 424.244H163.829V435.173H161.622V424.244Z" fill="#1179EF" stroke="#1179EF" stroke-width="0.3"/>
<path d="M155.992 435.997H159.855V426.166H155.992V435.997ZM156.82 426.99H159.027V435.173H156.82V426.99Z" fill="#1179EF" stroke="#1179EF" stroke-width="0.3"/>
<path d="M151.191 435.997H155.054V429.022H151.191V435.997ZM152.019 429.846H154.227V435.228H152.019V429.846Z" fill="#1179EF" stroke="#1179EF" stroke-width="0.3"/>
<path d="M146.388 435.997H150.251V431.493H146.388V435.997ZM147.216 432.317H149.423V435.173H147.216V432.317Z" fill="#1179EF" stroke="#1179EF" stroke-width="0.3"/>
<path d="M148.485 428.637L162.117 420.124L161.731 421.992L162.559 422.102L163.166 418.971L159.965 418.367L159.799 419.136L161.565 419.465L148.043 427.923L148.485 428.637Z" fill="#1179EF" stroke="#1179EF" stroke-width="0.3"/>
<path d="M153.307 324.335C162.866 324.335 170.615 332.046 170.615 341.557C170.615 351.069 162.866 358.78 153.307 358.78C143.749 358.78 136 351.069 136 341.557C136 340.289 137.936 340.289 137.936 341.557C137.936 350.005 144.818 356.853 153.307 356.853C161.797 356.853 168.678 350.005 168.678 341.557C168.678 333.11 161.797 326.262 153.307 326.262C151.561 326.262 149.874 326.544 148.262 327.102L150.052 328.294C151.107 328.998 150.033 330.593 148.978 329.89L145.75 327.739C145.336 327.507 145.146 327 145.326 326.547L146.89 322.606C147.358 321.427 149.158 322.134 148.69 323.314L147.95 325.179C149.666 324.624 151.478 324.335 153.307 324.335V324.335ZM146.543 345.523C146.543 344.255 148.479 344.255 148.479 345.523C148.479 347.891 150.375 348.525 152.339 348.525V342.521C144.527 342.521 144.527 332.663 152.339 332.663V330.959C152.339 329.691 154.276 329.691 154.276 330.959V332.663C157.371 332.663 160.072 334.149 160.072 337.592C160.072 338.86 158.136 338.86 158.136 337.592C158.136 335.223 156.241 334.59 154.276 334.59V340.594C162.088 340.594 162.088 350.452 154.276 350.452V352.156C154.276 353.424 152.339 353.424 152.339 352.156V350.452C149.244 350.452 146.543 348.966 146.543 345.523V345.523ZM152.339 340.594V334.59C147.09 334.59 147.09 340.594 152.339 340.594ZM154.276 342.521V348.525C159.525 348.525 159.525 342.521 154.276 342.521V342.521Z" fill="#1179EF"/>
<path d="M191.406 184.689C187.706 186.152 184.781 189.335 183.663 190.626C183.491 190.884 183.232 190.884 183.06 190.884C182.802 190.884 182.63 190.798 182.458 190.626L175.317 180.302C175.231 180.216 175.231 180.044 175.231 179.872C175.317 179.613 175.489 179.269 175.834 179.097C176.092 178.925 176.522 178.753 177.038 178.495C177.726 178.151 178.587 177.807 179.619 177.291L179.017 176.172C178.07 176.688 177.21 177.032 176.522 177.377C175.92 177.635 175.489 177.893 175.145 178.065C174.543 178.495 174.027 179.011 173.941 179.699C173.941 179.872 173.941 180.044 173.941 180.216H153.895C153.895 180.044 153.895 179.872 153.895 179.699C153.723 179.097 153.293 178.495 152.691 178.065C152.346 177.893 151.916 177.635 151.314 177.377C150.54 177.032 149.593 176.602 148.389 176L147.787 177.118C148.991 177.807 150.023 178.237 150.798 178.581C151.314 178.839 151.83 179.011 152.002 179.183C152.346 179.355 152.604 179.699 152.604 179.958C152.604 180.13 152.604 180.216 152.518 180.388L145.378 190.712C145.292 190.884 145.034 190.97 144.775 190.97C144.603 190.97 144.345 190.97 144.087 190.712C142.969 189.421 140.044 186.238 136.344 184.775L136 185.894C139.527 187.356 142.453 190.54 143.227 191.486C143.657 192.002 144.173 192.26 144.861 192.26H144.947C145.55 192.26 146.066 192.002 146.41 191.572C146.84 192.002 147.528 192.604 147.787 193.207C147.873 193.465 147.959 193.551 148.045 193.723C148.045 193.809 148.131 193.895 148.131 193.981C147.873 194.153 147.615 194.325 147.442 194.583C147.012 195.185 146.84 195.96 146.926 196.648C147.012 197.422 147.442 198.025 148.045 198.455L148.131 198.541C148.647 198.885 149.163 199.057 149.765 199.057C149.937 199.057 150.11 199.057 150.282 198.971C150.282 199.143 150.282 199.229 150.282 199.401C150.368 200.175 150.798 200.864 151.4 201.294C151.916 201.638 152.518 201.896 153.121 201.896C153.379 201.896 153.637 201.896 153.809 201.81C153.809 201.896 153.809 201.982 153.809 202.068C153.895 202.842 154.325 203.531 154.927 203.961C155.444 204.305 156.046 204.563 156.648 204.563C156.906 204.563 157.164 204.477 157.422 204.391C157.422 204.477 157.422 204.477 157.422 204.563C157.508 205.251 157.853 205.854 158.455 206.284C158.885 206.628 159.401 206.8 160.003 206.8C160.778 206.8 161.466 206.456 161.982 205.854C162.498 206.112 163.015 206.284 163.531 206.284C163.703 206.284 163.875 206.284 164.047 206.198C164.821 206.026 165.51 205.596 165.94 204.993C166.284 204.477 166.456 203.875 166.456 203.359L167.144 203.875C167.66 204.219 168.263 204.391 168.779 204.391C169.725 204.391 170.672 203.961 171.188 203.101C171.532 202.584 171.704 201.982 171.704 201.466L171.876 201.552C172.392 201.896 172.994 202.068 173.511 202.068C173.683 202.068 173.855 202.068 174.027 201.982C174.801 201.81 175.489 201.38 175.92 200.778C176.264 200.261 176.436 199.659 176.436 199.057L176.78 199.315C177.296 199.659 177.898 199.831 178.415 199.831C179.361 199.831 180.307 199.401 180.823 198.541C181.254 197.853 181.426 197.078 181.254 196.304C181.082 195.53 180.651 194.841 180.049 194.411L170.413 187.873H168.521C165.423 187.873 164.993 185.55 164.993 185.292L165.251 184.603H158.713L158.627 185.12C158.369 186.668 157.853 187.701 157.078 188.131C156.648 188.389 156.218 188.475 155.874 188.475V184.173L160.864 181.42H161.638H174.629L181.426 191.4C181.77 191.916 182.372 192.174 182.974 192.26H183.06C183.663 192.26 184.265 192.002 184.695 191.486C185.469 190.54 188.394 187.356 191.922 185.894L191.406 184.689ZM148.905 197.422L148.819 197.336C148.475 197.078 148.303 196.734 148.217 196.39C148.131 195.96 148.217 195.616 148.475 195.272C148.733 194.927 149.163 194.669 149.679 194.669C150.023 194.669 150.282 194.755 150.54 194.927L150.626 195.013C151.228 195.444 151.4 196.218 151.142 196.82L150.798 197.25V197.336C150.282 197.766 149.507 197.853 148.905 197.422ZM152.174 200.261C151.83 200.003 151.658 199.659 151.572 199.229C151.486 198.885 151.572 198.455 151.83 198.111C151.916 198.025 152.002 197.939 152.002 197.853C152.088 197.766 152.777 196.734 152.777 196.734C153.035 196.304 153.551 196.132 154.067 196.132C154.411 196.132 154.755 196.218 155.013 196.476C155.702 196.992 155.874 197.939 155.358 198.627L154.411 199.917C153.895 200.606 152.863 200.692 152.174 200.261ZM155.788 202.842C155.444 202.584 155.272 202.24 155.185 201.81C155.099 201.38 155.185 200.95 155.444 200.692L156.39 199.401L157.25 198.197C157.508 197.766 158.025 197.594 158.541 197.594C158.885 197.594 159.229 197.68 159.487 197.939C159.831 198.197 160.003 198.541 160.089 198.971C160.175 199.401 160.089 199.831 159.831 200.089L158.025 202.584C157.422 203.187 156.39 203.359 155.788 202.842ZM161.294 204.477L161.036 204.821C160.606 205.337 159.831 205.509 159.229 205.079C158.971 204.907 158.799 204.563 158.713 204.219C158.627 203.875 158.713 203.531 158.971 203.273L159.229 202.928C159.487 202.584 159.831 202.412 160.261 202.412C160.52 202.412 160.778 202.498 161.036 202.67C161.638 203.101 161.724 203.961 161.294 204.477ZM154.497 183.399V189.507L154.927 189.679C155.013 189.679 156.304 190.109 157.594 189.335C158.627 188.733 159.315 187.615 159.659 185.894H164.047C164.477 187.184 165.768 189.077 168.779 189.077H170.241L179.533 195.358C179.877 195.616 180.135 195.96 180.221 196.39C180.307 196.82 180.221 197.25 179.963 197.594C179.447 198.369 178.415 198.541 177.64 198.025L168.607 191.83L167.832 192.863L174.457 197.422C175.231 197.939 175.403 198.971 174.887 199.745C174.629 200.089 174.285 200.347 173.855 200.434C173.425 200.52 172.994 200.434 172.564 200.175L170.413 198.713L167.144 196.476L166.628 197.766L170.069 200.089C170.672 200.606 170.844 201.552 170.327 202.24C169.811 203.015 168.779 203.187 168.004 202.67L163.703 199.659L162.928 200.692L164.477 201.81V201.896C165.251 202.412 165.423 203.445 164.907 204.219C164.649 204.563 164.305 204.821 163.875 204.907C163.445 204.993 163.015 204.907 162.67 204.649C163.015 203.617 162.756 202.412 161.81 201.724C161.466 201.466 160.95 201.294 160.52 201.294L160.778 200.95C161.724 199.659 161.466 197.853 160.175 196.992C159.659 196.648 159.057 196.39 158.455 196.39C157.853 196.39 157.25 196.562 156.734 196.992C156.562 196.39 156.218 195.874 155.702 195.53C154.755 194.841 153.293 194.841 152.346 195.53C152.174 195.013 151.83 194.497 151.4 194.153L151.314 194.067C150.712 193.637 150.023 193.465 149.335 193.551C149.249 193.465 149.249 193.379 149.163 193.207C149.077 193.035 148.991 192.863 148.905 192.604C148.475 191.744 147.615 190.97 147.098 190.54L153.293 181.42H158.111L154.497 183.399Z" fill="#1179EF" stroke="#1179EF" stroke-width="0.3"/>
<path d="M138.465 248H176.774V274.044H138.465V248Z" fill="white" stroke="#1179EF" stroke-width="1.5"/>
<path d="M136 282.186H180.025Z" fill="white"/>
<path d="M136 282.186H180.025" stroke="#1179EF" stroke-width="1.5"/>
<path d="M166.151 265.905H162.842C161.536 265.905 160.23 267.126 160.23 268.917V274.858L168.937 278.114V268.917C168.937 267.126 167.37 265.905 166.151 265.905Z" fill="white" stroke="#1179EF" stroke-width="1.5"/>
<path d="M168.937 278.114V268.917C168.937 267.208 167.37 265.905 166.151 265.905H162.842C161.536 265.905 160.23 267.126 160.23 268.917V274.858" fill="white"/>
<path d="M168.937 278.114V268.917C168.937 267.208 167.37 265.905 166.151 265.905H162.842C161.536 265.905 160.23 267.126 160.23 268.917V274.858" stroke="#1179EF" stroke-width="1.5"/>
<path d="M164.584 263.464C163.191 263.464 161.972 262.568 161.972 261.51V259.72C161.972 258.662 163.191 257.767 164.584 257.767C165.977 257.767 167.196 258.662 167.196 259.72V261.51C167.196 262.568 165.977 263.464 164.584 263.464Z" fill="white" stroke="#1179EF" stroke-width="1.5"/>
<path d="M170.679 277.3V276.567C170.679 274.288 168.763 273.23 166.326 273.23C163.888 273.23 161.972 274.288 161.972 276.567C161.972 274.288 160.057 273.23 157.619 273.23C155.181 273.23 153.266 274.288 153.266 276.567C153.266 274.288 151.35 273.23 148.912 273.23C146.474 273.23 144.559 274.288 144.559 276.567V277.3C142.121 277.3 140.206 278.358 140.206 280.637V281.369H148.912H157.619H166.326H175.032V280.637C175.032 278.358 173.117 277.3 170.679 277.3Z" fill="white" stroke="#1179EF" stroke-width="1.5"/>
<path d="M153.265 277.3V276.567C153.265 274.288 151.349 273.23 148.911 273.23C146.473 273.23 144.558 274.288 144.558 276.567V277.3" fill="white"/>
<path d="M153.265 277.3V276.567C153.265 274.288 151.349 273.23 148.911 273.23C146.473 273.23 144.558 274.288 144.558 276.567V277.3" stroke="#1179EF" stroke-width="1.5"/>
<path d="M161.972 277.3V276.567C161.972 274.288 160.056 273.23 157.618 273.23C155.18 273.23 153.265 274.288 153.265 276.567V277.3" fill="white"/>
<path d="M161.972 277.3V276.567C161.972 274.288 160.056 273.23 157.618 273.23C155.18 273.23 153.265 274.288 153.265 276.567V277.3" stroke="#1179EF" stroke-width="1.5"/>
<path d="M170.679 277.3V276.567C170.679 274.288 168.763 273.23 166.326 273.23C163.888 273.23 161.972 274.288 161.972 276.567V277.3" fill="white"/>
<path d="M170.679 277.3V276.567C170.679 274.288 168.763 273.23 166.326 273.23C163.888 273.23 161.972 274.288 161.972 276.567V277.3" stroke="#1179EF" stroke-width="1.5"/>
<path d="M148.912 281.369V280.637C148.912 278.358 146.997 277.3 144.559 277.3C142.121 277.3 140.206 278.358 140.206 280.637V281.369" fill="white"/>
<path d="M148.912 281.369V280.637C148.912 278.358 146.997 277.3 144.559 277.3C142.121 277.3 140.206 278.358 140.206 280.637V281.369" stroke="#1179EF" stroke-width="1.5"/>
<path d="M157.619 281.369V280.637C157.619 278.358 155.703 277.3 153.265 277.3C150.828 277.3 148.912 278.358 148.912 280.637V281.369" fill="white"/>
<path d="M157.619 281.369V280.637C157.619 278.358 155.703 277.3 153.265 277.3C150.828 277.3 148.912 278.358 148.912 280.637V281.369" stroke="#1179EF" stroke-width="1.5"/>
<path d="M166.325 281.369V280.637C166.325 278.358 164.41 277.3 161.972 277.3C159.534 277.3 157.619 278.358 157.619 280.637V281.369" fill="white"/>
<path d="M166.325 281.369V280.637C166.325 278.358 164.41 277.3 161.972 277.3C159.534 277.3 157.619 278.358 157.619 280.637V281.369" stroke="#1179EF" stroke-width="1.5"/>
<path d="M175.032 281.369V280.637C175.032 278.358 173.116 277.3 170.679 277.3C168.241 277.3 166.325 278.358 166.325 280.637V281.369" fill="white"/>
<path d="M175.032 281.369V280.637C175.032 278.358 173.116 277.3 170.679 277.3C168.241 277.3 166.325 278.358 166.325 280.637V281.369" stroke="#1179EF" stroke-width="1.5"/>
<path fill-rule="evenodd" clip-rule="evenodd" d="M168.949 121.386H167.052L167.051 119.931C167.051 119.767 166.991 119.603 166.87 119.475C163.911 116.328 158.389 115.853 154.633 118.032V118.025C150.909 115.861 145.431 116.333 142.446 119.423C142.315 119.559 142.212 119.728 142.212 119.931L142.213 121.386H140.318C139.941 121.386 139.615 121.695 139.631 122.07L140.209 136.059C140.225 136.434 140.524 136.804 140.897 136.743L153.959 134.632H155.308L168.37 136.743C168.743 136.804 169.042 136.435 169.058 136.059L169.636 122.07C169.652 121.694 169.326 121.386 168.949 121.386ZM141.585 135.375L141.006 122.755H142.213L142.216 133.449C142.216 133.628 142.287 133.806 142.428 133.937C142.699 134.19 143.124 134.175 143.378 133.906C145.936 131.186 150.808 131.477 153.959 133.283L141.585 135.375ZM153.959 131.781C150.74 130.281 146.489 129.917 143.562 131.984V120.2C146.143 117.686 150.816 117.351 153.959 119.183V131.781ZM155.308 119.182C158.455 117.348 163.128 117.69 165.705 120.2V131.984C162.778 129.917 158.527 130.281 155.308 131.781V119.182ZM167.683 135.375L155.308 133.283C158.443 131.487 163.275 131.184 165.846 133.86C165.969 134.019 166.163 134.121 166.38 134.121C166.753 134.121 167.055 133.82 167.055 133.449L167.052 122.755H168.261L167.683 135.375Z" fill="#1179EF"/>
<path fill-rule="evenodd" clip-rule="evenodd" d="M168.949 121.386H167.052L167.051 119.931C167.051 119.768 166.991 119.604 166.87 119.475C163.911 116.328 158.389 115.854 154.633 118.032V118.025C150.909 115.861 145.43 116.333 142.446 119.423C142.315 119.559 142.212 119.728 142.212 119.931L142.213 121.386H140.318C139.941 121.386 139.615 121.695 139.631 122.07L140.209 136.059C140.225 136.434 140.524 136.804 140.897 136.744L153.959 134.632H155.308L168.37 136.744C168.743 136.804 169.042 136.435 169.058 136.059L169.636 122.07C169.652 121.694 169.326 121.386 168.949 121.386ZM141.585 135.375L141.006 122.755H142.213L142.216 133.449C142.216 133.628 142.287 133.806 142.428 133.937C142.699 134.19 143.124 134.176 143.378 133.906C145.936 131.186 150.808 131.477 153.959 133.283L141.585 135.375ZM153.959 131.781C150.74 130.281 146.489 129.917 143.562 131.984V120.2C146.143 117.686 150.816 117.351 153.959 119.183V131.781ZM155.308 119.182C158.455 117.348 163.128 117.69 165.705 120.2V131.984C162.778 129.917 158.527 130.281 155.308 131.781V119.182ZM167.682 135.375L155.308 133.283C158.443 131.487 163.275 131.184 165.846 133.86C165.969 134.019 166.163 134.121 166.38 134.121C166.753 134.121 167.055 133.82 167.055 133.449L167.052 122.755H168.261L167.682 135.375Z" fill="#1179EF"/>
<path fill-rule="evenodd" clip-rule="evenodd" d="M170.362 116.69H167.752L168.699 109.714C168.937 109.74 169.177 109.74 169.415 109.714L170.362 116.69ZM168.019 108.08C168.019 107.511 168.485 107.047 169.057 107.047C169.629 107.047 170.095 107.511 170.095 108.08C170.095 108.646 169.636 109.107 169.068 109.113C169.061 109.113 169.053 109.113 169.046 109.113C168.478 109.107 168.019 108.646 168.019 108.08ZM164.585 104.093C161.194 102.79 157.43 102.11 153.693 102.125C150.106 102.14 146.49 102.797 143.223 104.028L138.343 102.43L153.332 96.8262L169.262 102.612L164.585 104.093ZM164.08 110.441C162.418 110.465 160.776 110.698 159.193 111.134C157.247 111.67 155.437 112.497 153.809 113.594C152.122 112.56 150.279 111.764 148.327 111.226C146.781 110.8 145.179 110.542 143.558 110.456V104.73C146.724 103.546 150.223 102.914 153.696 102.9C157.251 102.884 160.837 103.518 164.08 104.73V110.441ZM170.718 108.08C170.718 107.275 170.136 106.603 169.368 106.457V103.392L171.671 102.663L153.328 96L136 102.479L142.78 104.699V111.2L143.155 111.213C144.842 111.275 146.513 111.531 148.119 111.973C150.082 112.513 151.93 113.324 153.611 114.384L153.829 114.522L154.042 114.374C155.652 113.256 157.455 112.417 159.401 111.881C161.039 111.43 162.743 111.203 164.467 111.214L164.858 111.212V104.819L168.746 103.589V106.457C167.978 106.603 167.396 107.275 167.396 108.08C167.396 108.641 167.678 109.137 168.109 109.436L167.039 117.31H171.075L170.005 109.436C170.436 109.137 170.718 108.641 170.718 108.08Z" fill="#1179EF" stroke="#1179EF" stroke-width="0.7"/>
<path d="M179.209 47.016H160.575C160.086 47.016 159.68 46.6092 159.68 46.1209C159.68 45.6327 160.086 45.2258 160.575 45.2258H179.209C179.453 45.2258 179.616 45.0631 179.616 44.819V22.1971C179.616 21.953 179.453 21.7902 179.209 21.7902H150.077C149.833 21.7902 149.671 21.953 149.671 22.1971V27.2423C149.671 27.7305 149.264 28.1374 148.775 28.1374C148.287 28.1374 147.88 27.7305 147.88 27.2423V22.1971C147.88 20.9765 148.857 20 150.077 20H179.209C180.43 20 181.406 20.9765 181.406 22.1971V44.7376C181.406 45.9582 180.43 47.016 179.209 47.016Z" fill="#1179EF"/>
<path d="M157.076 56.1297H136.732C136.325 56.1297 136 55.8042 136 55.3973V48.3178C136 44.3305 140.557 43.354 142.022 43.1099C142.266 43.1099 142.429 43.1099 142.429 43.1099C142.998 43.1099 143.405 42.9472 143.649 42.703C143.893 42.3775 143.893 41.8893 143.812 41.5638C143.812 41.4824 143.812 41.4824 143.812 41.4011C143.812 40.9942 144.137 40.6687 144.544 40.6687C144.87 40.6687 145.195 40.9128 145.277 41.3197C145.358 41.9707 145.439 42.8658 144.788 43.5981C144.3 44.1678 143.568 44.4933 142.591 44.5746V44.5746C142.591 44.5746 142.429 44.5746 142.266 44.656C141.127 44.8188 137.465 45.5511 137.465 48.4806V54.8277H156.425V48.4806C156.425 45.6325 152.763 44.8188 151.705 44.656C151.461 44.656 151.38 44.5746 151.298 44.5746C150.322 44.4933 149.589 44.1678 149.101 43.5981C148.613 43.0285 148.532 42.2148 148.694 41.3197C148.776 40.9128 149.183 40.6687 149.508 40.7501C149.915 40.8314 150.159 41.2383 150.078 41.5638C149.996 41.8079 149.996 42.3775 150.24 42.703C150.403 42.9472 150.81 43.1099 151.38 43.1099C151.38 43.1099 151.542 43.1099 151.868 43.1913C153.251 43.354 157.808 44.3305 157.808 48.3992V55.4787C157.808 55.8042 157.483 56.1297 157.076 56.1297Z" fill="#1179EF"/>
<path d="M146.904 56.1298V56.1298C146.578 56.1298 146.334 55.967 146.253 55.7229L141.37 44.1679C141.208 43.8424 141.37 43.3541 141.777 43.1914C142.103 43.0286 142.591 43.1914 142.754 43.5983L146.904 53.6072L151.054 43.5983C151.216 43.2728 151.623 43.0286 152.03 43.1914C152.356 43.3541 152.6 43.761 152.437 44.1679L147.636 55.7229C147.473 55.967 147.229 56.1298 146.904 56.1298Z" fill="#1179EF"/>
<path d="M148.45 52.4681C148.124 52.4681 147.799 52.2239 147.718 51.8171L146.822 45.3885C146.741 44.9817 147.067 44.6562 147.473 44.5748C147.88 44.4934 148.206 44.8189 148.287 45.2258L149.182 51.6543C149.264 52.0612 148.938 52.3867 148.531 52.4681H148.45Z" fill="#1179EF"/>
<path d="M145.358 52.4694H145.276C144.87 52.388 144.625 52.0625 144.625 51.6557L145.521 45.2272C145.602 44.8203 145.927 44.5762 146.334 44.5762C146.741 44.6575 146.985 44.983 146.985 45.3899L146.09 51.8184C146.009 52.2253 145.765 52.4694 145.358 52.4694Z" fill="#1179EF"/>
<path d="M148.288 46.0394H145.522C145.115 46.0394 144.789 45.7139 144.789 45.3071C144.789 44.9002 145.115 44.5747 145.522 44.5747H148.288C148.695 44.5747 149.021 44.9002 149.021 45.3071C149.021 45.7139 148.695 46.0394 148.288 46.0394Z" fill="#1179EF"/>
<path d="M153.414 56.1297C153.007 56.1297 152.682 55.8042 152.682 55.3973V52.9561C152.682 52.5492 153.007 52.2238 153.414 52.2238C153.821 52.2238 154.146 52.5492 154.146 52.9561V55.3973C154.146 55.8042 153.821 56.1297 153.414 56.1297Z" fill="#1179EF"/>
<path d="M140.394 56.1297C139.988 56.1297 139.662 55.8042 139.662 55.3973V52.9561C139.662 52.5492 139.988 52.2238 140.394 52.2238C140.801 52.2238 141.127 52.5492 141.127 52.9561V55.3973C141.127 55.8042 140.801 56.1297 140.394 56.1297Z" fill="#1179EF"/>
<path fill-rule="evenodd" clip-rule="evenodd" d="M141.127 35.6236C141.127 39.1227 143.487 42.9472 146.904 42.9472C150.322 42.9472 152.682 39.1227 152.682 35.6236C152.682 32.0432 150.241 29.4392 146.904 29.4392C143.568 29.4392 141.127 32.0432 141.127 35.6236ZM142.592 35.6236C142.592 32.8569 144.382 30.9039 146.904 30.9039C149.427 30.9039 151.217 32.9382 151.217 35.6236C151.217 38.6344 149.102 41.4825 146.904 41.4825C144.707 41.4825 142.592 38.6344 142.592 35.6236Z" fill="#1179EF"/>
<path d="M159.68 41.4013C159.192 41.4013 158.785 40.9944 158.785 40.5061V35.3796C158.785 34.8914 159.192 34.4845 159.68 34.4845C160.168 34.4845 160.575 34.8914 160.575 35.3796V40.5061C160.575 40.9944 160.168 41.4013 159.68 41.4013Z" fill="#1179EF"/>
<path d="M164.236 41.4012C163.748 41.4012 163.341 40.9943 163.341 40.5061V31.0667C163.341 30.5785 163.748 30.1716 164.236 30.1716C164.724 30.1716 165.131 30.5785 165.131 31.0667V40.4247C165.131 40.9943 164.724 41.4012 164.236 41.4012Z" fill="#1179EF"/>
<path d="M168.712 41.4012C168.224 41.4012 167.817 40.9943 167.817 40.5061V28.5442C167.817 28.0559 168.224 27.649 168.712 27.649C169.201 27.649 169.607 28.0559 169.607 28.5442V40.5061C169.689 40.9943 169.282 41.4012 168.712 41.4012Z" fill="#1179EF"/>
<path d="M173.269 41.4013C172.78 41.4013 172.373 40.9945 172.373 40.5062V25.6148C172.373 25.1266 172.78 24.7197 173.269 24.7197C173.757 24.7197 174.164 25.1266 174.164 25.6148V40.5062C174.164 40.9945 173.757 41.4013 173.269 41.4013Z" fill="#1179EF"/>
<path d="M37.1328 485.978C37.1328 487.455 37.1328 488.927 37.1328 490.404C37.1328 490.729 37.1328 491.055 37.1328 491.381C37.1328 491.455 37.1328 491.533 37.1328 491.607C37.1328 491.615 37.1328 491.624 37.1328 491.633C37.1328 491.663 37.1415 491.863 37.1197 491.876C37.1284 491.872 37.1546 491.689 37.1284 491.824C37.1153 491.88 37.1066 491.941 37.0891 491.998C37.0717 492.072 37.0455 492.145 37.0193 492.219C36.9669 492.384 37.0411 492.167 37.0411 492.171C37.0455 492.18 36.9975 492.258 36.9931 492.276C36.9582 492.345 36.9189 492.41 36.8796 492.475C36.8534 492.515 36.8185 492.554 36.8011 492.593C36.7574 492.684 36.9189 492.462 36.8142 492.575C36.7705 492.619 36.5479 492.91 36.4868 492.892C36.4912 492.892 36.6396 492.788 36.5261 492.858C36.4868 492.884 36.4475 492.91 36.4082 492.936C36.334 492.979 36.2598 493.018 36.1813 493.057C36.0285 493.136 36.2293 493.036 36.2293 493.04C36.2293 493.044 36.1333 493.075 36.1202 493.079C36.0372 493.105 35.95 493.131 35.867 493.149C35.8277 493.157 35.7885 493.162 35.7492 493.17C35.6313 493.192 35.9238 493.157 35.8016 493.162C35.7317 493.162 35.6575 493.17 35.5877 493.17C35.5659 493.17 35.544 493.17 35.5222 493.17C34.2957 493.175 33.0736 493.17 31.8471 493.17C29.9398 493.17 28.0324 493.17 26.125 493.17C25.431 493.17 24.7327 493.17 24.0387 493.17C23.8466 493.17 23.659 493.17 23.4669 493.17C23.4233 493.17 23.3752 493.17 23.3316 493.17C23.3229 493.17 23.3141 493.17 23.3054 493.17H23.301C23.2618 493.17 23.2181 493.17 23.1788 493.166C23.1483 493.166 23.1177 493.162 23.0872 493.162C23.0173 493.157 23.0479 493.162 23.1701 493.175C23.109 493.223 22.786 493.084 22.7162 493.062C22.5503 493.01 22.7686 493.084 22.7642 493.084C22.7555 493.088 22.6769 493.04 22.6594 493.036C22.5721 492.992 22.4892 492.945 22.4107 492.892C22.415 492.897 22.3146 492.836 22.3146 492.827C22.3146 492.827 22.4543 492.949 22.3583 492.858C22.3015 492.806 22.2448 492.758 22.1924 492.701C22.1706 492.68 22.0353 492.558 22.0397 492.532C22.0309 492.558 22.1444 492.688 22.0571 492.549C22.0309 492.51 22.0047 492.471 21.9785 492.428C21.9393 492.363 21.9043 492.293 21.8694 492.224C21.7909 492.072 21.8913 492.271 21.8869 492.271C21.8825 492.271 21.852 492.176 21.8476 492.163C21.8214 492.08 21.7952 491.993 21.7778 491.911C21.769 491.872 21.7647 491.833 21.7559 491.794C21.7341 491.685 21.769 491.98 21.7603 491.815C21.7559 491.741 21.7516 491.668 21.7516 491.589C21.7516 491.172 21.7516 490.751 21.7516 490.334C21.7516 488.545 21.7516 486.755 21.7516 484.966C21.7516 483.507 21.7516 482.047 21.7516 480.592C21.7516 480.505 21.7516 480.418 21.7516 480.332C21.7516 480.271 21.7559 480.21 21.7603 480.149C21.7647 480.015 21.7385 480.188 21.7472 480.201C21.7429 480.193 21.769 480.084 21.769 480.084C21.7865 480.006 21.804 479.932 21.8258 479.858C21.8389 479.819 21.852 479.784 21.8607 479.75C21.9174 479.563 21.7734 479.915 21.8607 479.745C21.8869 479.697 22.0397 479.35 22.0964 479.354C22.0964 479.354 21.9742 479.493 22.0658 479.398C22.092 479.372 22.1139 479.341 22.14 479.311C22.2055 479.241 22.2753 479.181 22.3452 479.115C22.4412 479.024 22.3015 479.146 22.3015 479.146C22.3015 479.137 22.3976 479.076 22.3976 479.081C22.463 479.037 22.5285 478.998 22.594 478.963C22.6289 478.946 22.6638 478.929 22.6987 478.911C22.8515 478.833 22.6507 478.933 22.6507 478.929C22.6551 478.903 22.8951 478.851 22.93 478.842C22.9693 478.833 23.1308 478.772 23.1614 478.794C23.1483 478.785 22.9737 478.811 23.109 478.807C23.1483 478.807 23.1919 478.803 23.2312 478.803C23.2618 478.803 23.288 478.803 23.3185 478.803C23.5193 478.803 23.7201 478.803 23.9208 478.803C25.6274 478.803 27.3297 478.803 29.0363 478.803C29.1716 478.803 29.3025 478.803 29.4378 478.803C29.8961 478.803 30.3326 478.403 30.3108 477.934C30.2889 477.465 29.9267 477.065 29.4378 477.065C27.9364 477.065 26.4393 477.065 24.9378 477.065C24.3922 477.065 23.8423 477.061 23.2967 477.065C21.5508 477.083 20.1454 478.434 20.0144 480.153C19.9882 480.51 20.0057 480.874 20.0057 481.231C20.0057 482.004 20.0057 482.777 20.0057 483.546C20.0057 485.474 20.0057 487.407 20.0057 489.335C20.0057 489.974 20.0057 490.612 20.0057 491.251C20.0057 492.015 20.093 492.771 20.5426 493.427C21.206 494.4 22.2535 494.912 23.4233 494.912C23.9121 494.912 24.401 494.912 24.8898 494.912C26.7579 494.912 28.6303 494.912 30.4984 494.912C32.0523 494.912 33.6061 494.912 35.1556 494.912C35.8714 494.912 36.561 494.847 37.2026 494.486C37.9359 494.074 38.4815 493.375 38.7259 492.58C38.8394 492.215 38.8612 491.828 38.8612 491.446C38.8612 489.778 38.8612 488.11 38.8612 486.443C38.8612 486.291 38.8612 486.143 38.8612 485.991C38.8612 485.535 38.4597 485.101 37.9883 485.122C37.5343 485.131 37.1328 485.491 37.1328 485.978Z" fill="#1179EF"/>
<path d="M32.5062 478.737C33.8768 478.737 35.2429 478.737 36.6135 478.737C36.7182 478.737 36.823 478.737 36.9234 478.737C36.9495 478.737 36.9757 478.737 36.9976 478.737C37.0019 478.737 37.0063 478.737 37.0106 478.737C37.1809 478.729 36.8492 478.703 37.0063 478.737C37.1372 478.768 36.9408 478.746 36.9539 478.711C36.9495 478.72 37.063 478.755 37.0499 478.768C37.0368 478.781 36.8928 478.62 36.9976 478.742C36.9976 478.742 36.8972 478.594 36.9452 478.672C36.9495 478.681 36.9539 478.69 36.9583 478.694C36.9932 478.759 36.9932 478.759 36.9626 478.69C36.9539 478.672 36.9495 478.655 36.9408 478.637C36.9495 478.663 36.9583 478.69 36.967 478.72C36.9321 478.807 36.9714 478.611 36.9583 478.629C36.9408 478.655 36.9626 478.668 36.9583 478.69C36.9583 478.742 36.9583 478.794 36.9583 478.85C36.9583 479.602 36.9583 480.353 36.9583 481.104C36.9583 481.765 36.9583 482.425 36.9583 483.089C36.9583 483.545 37.3598 483.98 37.8312 483.958C38.3026 483.936 38.7042 483.576 38.7042 483.089C38.7042 481.699 38.7042 480.31 38.7042 478.915C38.7042 478.498 38.6605 478.081 38.3986 477.73C38.0233 477.226 37.4995 477 36.8841 477C36.1246 477 35.3651 477 34.6057 477C33.9073 477 33.2046 477 32.5062 477C32.0479 477 31.6115 477.4 31.6333 477.869C31.6551 478.338 32.0174 478.737 32.5062 478.737Z" fill="#1179EF"/>
<path d="M36.932 477.56C35.6837 478.802 34.4398 480.04 33.1915 481.282C32.157 482.312 31.1182 483.337 30.0882 484.375C29.3462 485.122 28.6085 485.869 27.8665 486.616C27.5435 486.942 27.5174 487.524 27.8665 487.845C28.2113 488.162 28.7569 488.193 29.1017 487.845C30.0969 486.838 31.0877 485.826 32.0916 484.827C33.6192 483.306 35.1512 481.782 36.6789 480.262C37.1721 479.771 37.6653 479.28 38.1629 478.785C38.4859 478.464 38.5121 477.873 38.1629 477.556C37.8181 477.243 37.2768 477.217 36.932 477.56Z" fill="#1179EF"/>
<path d="M53.8049 401.817V397H35.5195V401.817H20V434.462H33.3683V433.315H21.1524V414.431L25.0707 417.336C25.9159 418.024 27.0683 418.33 28.1439 418.33H40.9744L41.9732 420.471H47.4281L48.4268 418.33H61.1805C62.2561 418.33 63.3317 417.948 64.2537 417.336L68.172 414.431V433.315H58.7988V434.462H69.2476V401.817H53.8049ZM36.672 398.147H52.7293V401.817H36.672V398.147ZM47.889 416.725L46.6598 419.324H42.6646L41.4354 416.725V415.578H47.8122V416.725H47.889ZM63.5622 416.419C62.8708 416.954 62.0256 417.183 61.1805 417.183H48.8878L48.9647 416.954V414.355H40.2829V416.954L40.3598 417.183H28.1439C27.2988 417.183 26.4537 416.878 25.7622 416.419L21.1524 412.979V402.963H68.172V412.979L63.5622 416.419Z" fill="#1179EF" stroke="#1179EF"/>
<path d="M53.0376 447H58.4157V429.492H53.0376V447ZM54.19 430.639H57.2632V445.853H54.19V430.639Z" fill="#1179EF" stroke="#1179EF" stroke-width="0.5"/>
<path d="M46.3538 447H51.7318V433.315H46.3538V447ZM47.5062 434.462H50.5794V445.853H47.5062V434.462Z" fill="#1179EF" stroke="#1179EF" stroke-width="0.5"/>
<path d="M39.6699 447H45.048V437.291H39.6699V447ZM40.8224 438.437H43.8955V445.93H40.8224V438.437Z" fill="#1179EF" stroke="#1179EF" stroke-width="0.5"/>
<path d="M32.9854 447H38.3634V440.731H32.9854V447ZM34.1378 441.878H37.211V445.853H34.1378V441.878Z" fill="#1179EF" stroke="#1179EF" stroke-width="0.5"/>
<path d="M35.9047 436.755L54.8815 424.905L54.3437 427.505L55.4962 427.658L56.3413 423.3L51.8852 422.459L51.6547 423.529L54.1132 423.988L35.29 435.762L35.9047 436.755Z" fill="#1179EF" stroke="#1179EF" stroke-width="0.5"/>
<path d="M41.0716 324.843C52.7092 324.843 62.1432 334.231 62.1432 345.811C62.1432 357.391 52.7092 366.779 41.0716 366.779C29.434 366.779 20 357.391 20 345.811C20 344.267 22.3576 344.267 22.3576 345.811C22.3576 356.096 30.736 364.433 41.0716 364.433C51.4072 364.433 59.7856 356.096 59.7856 345.811C59.7856 335.526 51.4072 327.189 41.0716 327.189C38.9455 327.189 36.8914 327.532 34.9293 328.211L37.1079 329.663C38.3924 330.52 37.0854 332.462 35.8003 331.606L31.871 328.988C31.3661 328.705 31.1352 328.087 31.3542 327.536L33.2581 322.738C33.8281 321.302 36.0199 322.164 35.4505 323.599L34.5489 325.871C36.6387 325.195 38.8448 324.843 41.0716 324.843V324.843ZM32.8358 350.639C32.8358 349.095 35.1933 349.095 35.1933 350.639C35.1933 353.522 37.5008 354.294 39.8928 354.294V346.984C30.3813 346.984 30.3813 334.982 39.8928 334.982V332.907C39.8928 331.363 42.2504 331.363 42.2504 332.907V334.982C46.0188 334.982 49.3074 336.791 49.3074 340.983C49.3074 342.527 46.9498 342.527 46.9498 340.983C46.9498 338.099 44.643 337.328 42.2504 337.328V344.638C51.7619 344.638 51.7619 356.64 42.2504 356.64V358.715C42.2504 360.259 39.8928 360.259 39.8928 358.715V356.64C36.1244 356.64 32.8358 354.831 32.8358 350.639V350.639ZM39.8928 344.638V337.328C33.5015 337.328 33.5015 344.638 39.8928 344.638ZM42.2504 346.984V354.294C48.6417 354.294 48.6417 346.984 42.2504 346.984V346.984Z" fill="#1179EF"/>
<path d="M23.0978 249C23.0978 248.448 23.5456 248 24.0978 248H70.2623C70.8145 248 71.2623 248.448 71.2623 249V279.744C71.2623 280.296 70.8145 280.744 70.2623 280.744H24.0978C23.5456 280.744 23.0978 280.296 23.0978 279.744V249Z" fill="white" stroke="#1179EF" stroke-width="2"/>
<path d="M20 290.98H75.35Z" fill="white"/>
<path d="M20 290.98H75.35" stroke="#1179EF" stroke-width="2"/>
<path d="M57.9076 270.512H53.7479C52.106 270.512 50.464 272.047 50.464 274.298V281.767L61.4104 285.86V274.298C61.4104 272.047 59.4401 270.512 57.9076 270.512Z" fill="white" stroke="#1179EF" stroke-width="2"/>
<path d="M61.4104 285.86V274.298C61.4104 272.149 59.4401 270.512 57.9076 270.512H53.7479C52.106 270.512 50.464 272.047 50.464 274.298V281.767" fill="white"/>
<path d="M61.4104 285.86V274.298C61.4104 272.149 59.4401 270.512 57.9076 270.512H53.7479C52.106 270.512 50.464 272.047 50.464 274.298V281.767" stroke="#1179EF" stroke-width="2"/>
<path d="M55.9372 267.442C54.1857 267.442 52.6532 266.316 52.6532 264.986V262.735C52.6532 261.405 54.1857 260.279 55.9372 260.279C57.6886 260.279 59.2211 261.405 59.2211 262.735V264.986C59.2211 266.316 57.6886 267.442 55.9372 267.442Z" fill="white" stroke="#1179EF" stroke-width="2"/>
<path d="M63.5997 284.837V283.916C63.5997 281.051 61.1915 279.721 58.1265 279.721C55.0615 279.721 52.6533 281.051 52.6533 283.916C52.6533 281.051 50.245 279.721 47.18 279.721C44.115 279.721 41.7068 281.051 41.7068 283.916C41.7068 281.051 39.2986 279.721 36.2336 279.721C33.1686 279.721 30.7603 281.051 30.7603 283.916V284.837C27.6953 284.837 25.2871 286.167 25.2871 289.033V289.954H36.2336H47.18H58.1265H69.0729V289.033C69.0729 286.167 66.6647 284.837 63.5997 284.837Z" fill="white" stroke="#1179EF" stroke-width="2"/>
<path d="M41.7068 284.837V283.916C41.7068 281.051 39.2986 279.721 36.2335 279.721C33.1685 279.721 30.7603 281.051 30.7603 283.916V284.837" fill="white"/>
<path d="M41.7068 284.837V283.916C41.7068 281.051 39.2986 279.721 36.2335 279.721C33.1685 279.721 30.7603 281.051 30.7603 283.916V284.837" stroke="#1179EF" stroke-width="2"/>
<path d="M52.6532 284.837V283.916C52.6532 281.051 50.245 279.721 47.18 279.721C44.115 279.721 41.7068 281.051 41.7068 283.916V284.837" fill="white"/>
<path d="M52.6532 284.837V283.916C52.6532 281.051 50.245 279.721 47.18 279.721C44.115 279.721 41.7068 281.051 41.7068 283.916V284.837" stroke="#1179EF" stroke-width="2"/>
<path d="M63.5997 284.837V283.916C63.5997 281.051 61.1915 279.721 58.1265 279.721C55.0614 279.721 52.6532 281.051 52.6532 283.916V284.837" fill="white"/>
<path d="M63.5997 284.837V283.916C63.5997 281.051 61.1915 279.721 58.1265 279.721C55.0614 279.721 52.6532 281.051 52.6532 283.916V284.837" stroke="#1179EF" stroke-width="2"/>
<path d="M36.2336 289.953V289.033C36.2336 286.167 33.8253 284.837 30.7603 284.837C27.6953 284.837 25.2871 286.167 25.2871 289.033V289.953" fill="white"/>
<path d="M36.2336 289.953V289.033C36.2336 286.167 33.8253 284.837 30.7603 284.837C27.6953 284.837 25.2871 286.167 25.2871 289.033V289.953" stroke="#1179EF" stroke-width="2"/>
<path d="M47.18 289.953V289.033C47.18 286.167 44.7718 284.837 41.7068 284.837C38.6418 284.837 36.2336 286.167 36.2336 289.033V289.953" fill="white"/>
<path d="M47.18 289.953V289.033C47.18 286.167 44.7718 284.837 41.7068 284.837C38.6418 284.837 36.2336 286.167 36.2336 289.033V289.953" stroke="#1179EF" stroke-width="2"/>
<path d="M58.1265 289.953V289.033C58.1265 286.167 55.7183 284.837 52.6533 284.837C49.5883 284.837 47.1801 286.167 47.1801 289.033V289.953" fill="white"/>
<path d="M58.1265 289.953V289.033C58.1265 286.167 55.7183 284.837 52.6533 284.837C49.5883 284.837 47.1801 286.167 47.1801 289.033V289.953" stroke="#1179EF" stroke-width="2"/>
<path d="M69.0729 289.953V289.033C69.0729 286.167 66.6647 284.837 63.5997 284.837C60.5347 284.837 58.1265 286.167 58.1265 289.033V289.953" fill="white"/>
<path d="M69.0729 289.953V289.033C69.0729 286.167 66.6647 284.837 63.5997 284.837C60.5347 284.837 58.1265 286.167 58.1265 289.033V289.953" stroke="#1179EF" stroke-width="2"/>
<path d="M95.1933 187.793C90.1726 189.778 86.2028 194.098 84.6849 195.849C84.4514 196.199 84.1011 196.199 83.8676 196.199C83.5173 196.199 83.2838 196.083 83.0503 195.849L73.3592 181.838C73.2425 181.721 73.2425 181.488 73.2425 181.254C73.3592 180.904 73.5927 180.437 74.0598 180.203C74.4101 179.97 74.9939 179.736 75.6944 179.386C76.6285 178.919 77.7961 178.452 79.1972 177.751L78.3799 176.234C77.0955 176.934 75.9279 177.401 74.9939 177.868C74.1765 178.218 73.5927 178.569 73.1257 178.802C72.3084 179.386 71.6078 180.087 71.4911 181.021C71.4911 181.254 71.4911 181.488 71.4911 181.721H44.286C44.286 181.488 44.286 181.254 44.286 181.021C44.0525 180.203 43.4687 179.386 42.6514 178.802C42.1844 178.569 41.6006 178.218 40.7832 177.868C39.7324 177.401 38.448 176.817 36.8134 176L35.9961 177.518C37.6307 178.452 39.0318 179.036 40.0827 179.503C40.7832 179.853 41.4838 180.087 41.7173 180.32C42.1844 180.554 42.5346 181.021 42.5346 181.371C42.5346 181.604 42.5346 181.721 42.4179 181.955L32.7268 195.966C32.6101 196.199 32.2598 196.316 31.9095 196.316C31.676 196.316 31.3257 196.316 30.9754 195.966C29.4575 194.215 25.4877 189.894 20.467 187.909L20 189.427C24.7872 191.412 28.757 195.732 29.8078 197.017C30.3916 197.717 31.0922 198.068 32.0263 198.068H32.143C32.9603 198.068 33.6609 197.717 34.1279 197.134C34.7117 197.717 35.6458 198.535 35.9961 199.352C36.1129 199.702 36.2296 199.819 36.3464 200.053C36.3464 200.169 36.4631 200.286 36.4631 200.403C36.1129 200.636 35.7626 200.87 35.5291 201.22C34.9453 202.037 34.7117 203.088 34.8285 204.022C34.9453 205.073 35.5291 205.891 36.3464 206.474L36.4631 206.591C37.1637 207.058 37.8642 207.292 38.6816 207.292C38.9151 207.292 39.1486 207.292 39.3821 207.175C39.3821 207.408 39.3821 207.525 39.3821 207.759C39.4989 208.809 40.0827 209.744 40.9 210.327C41.6006 210.794 42.4179 211.145 43.2352 211.145C43.5855 211.145 43.9358 211.145 44.1693 211.028C44.1693 211.145 44.1693 211.261 44.1693 211.378C44.286 212.429 44.8698 213.363 45.6872 213.947C46.3877 214.414 47.205 214.764 48.0223 214.764C48.3726 214.764 48.7229 214.647 49.0732 214.531C49.0732 214.647 49.0732 214.647 49.0732 214.764C49.1899 215.698 49.657 216.516 50.4743 217.099C51.0581 217.566 51.7587 217.8 52.576 217.8C53.6268 217.8 54.5609 217.333 55.2615 216.516C55.962 216.866 56.6626 217.099 57.3631 217.099C57.5967 217.099 57.8302 217.099 58.0637 216.983C59.1145 216.749 60.0486 216.165 60.6324 215.348C61.0994 214.647 61.333 213.83 61.333 213.13L62.267 213.83C62.9676 214.297 63.7849 214.531 64.4855 214.531C65.7698 214.531 67.0542 213.947 67.7548 212.779C68.2218 212.079 68.4553 211.261 68.4553 210.561L68.6888 210.678C69.3894 211.145 70.2067 211.378 70.9073 211.378C71.1408 211.378 71.3743 211.378 71.6078 211.261C72.6587 211.028 73.5927 210.444 74.1765 209.627C74.6436 208.926 74.8771 208.109 74.8771 207.292L75.3441 207.642C76.0447 208.109 76.862 208.342 77.5626 208.342C78.8469 208.342 80.1313 207.759 80.8318 206.591C81.4156 205.657 81.6492 204.606 81.4156 203.555C81.1821 202.504 80.5983 201.57 79.781 200.987L66.7039 192.113H64.1352C59.9318 192.113 59.348 188.96 59.348 188.61L59.6983 187.676H50.8246L50.7078 188.377C50.3575 190.478 49.657 191.879 48.6061 192.463C48.0223 192.813 47.4386 192.93 46.9715 192.93V187.092L53.7436 183.356H54.7944H72.4251L81.6492 196.9C82.1162 197.601 82.9335 197.951 83.7508 198.068H83.8676C84.6849 198.068 85.5022 197.717 86.086 197.017C87.1369 195.732 91.1067 191.412 95.8939 189.427L95.1933 187.793ZM37.514 205.073L37.3972 204.956C36.9302 204.606 36.6966 204.139 36.5799 203.672C36.4631 203.088 36.5799 202.621 36.9302 202.154C37.2804 201.687 37.8642 201.337 38.5648 201.337C39.0318 201.337 39.3821 201.454 39.7324 201.687L39.8492 201.804C40.6665 202.388 40.9 203.439 40.5497 204.256L40.0827 204.84V204.956C39.3821 205.54 38.3313 205.657 37.514 205.073ZM41.9508 208.926C41.4838 208.576 41.2503 208.109 41.1335 207.525C41.0168 207.058 41.1335 206.474 41.4838 206.007C41.6006 205.891 41.7173 205.774 41.7173 205.657C41.8341 205.54 42.7682 204.139 42.7682 204.139C43.1184 203.555 43.819 203.322 44.5196 203.322C44.9866 203.322 45.4536 203.439 45.8039 203.789C46.738 204.489 46.9715 205.774 46.271 206.708L44.9866 208.459C44.286 209.393 42.8849 209.51 41.9508 208.926ZM46.8548 212.429C46.3877 212.079 46.1542 211.612 46.0374 211.028C45.9207 210.444 46.0374 209.86 46.3877 209.51L47.6721 207.759L48.8397 206.124C49.1899 205.54 49.8905 205.307 50.5911 205.307C51.0581 205.307 51.5251 205.423 51.8754 205.774C52.3425 206.124 52.576 206.591 52.6927 207.175C52.8095 207.759 52.6927 208.342 52.3425 208.693L49.8905 212.079C49.0732 212.896 47.6721 213.13 46.8548 212.429ZM54.3274 214.647L53.9771 215.115C53.3933 215.815 52.3425 216.049 51.5251 215.465C51.1749 215.231 50.9413 214.764 50.8246 214.297C50.7078 213.83 50.8246 213.363 51.1749 213.013L51.5251 212.546C51.8754 212.079 52.3425 211.845 52.9263 211.845C53.2765 211.845 53.6268 211.962 53.9771 212.196C54.7944 212.779 54.9112 213.947 54.3274 214.647ZM45.1034 186.041V194.331L45.6872 194.565C45.8039 194.565 47.5553 195.149 49.3067 194.098C50.7078 193.28 51.6419 191.763 52.1089 189.427H58.0637C58.6475 191.179 60.3989 193.747 64.4855 193.747H66.4704L79.0805 202.271C79.5475 202.621 79.8978 203.088 80.0145 203.672C80.1313 204.256 80.0145 204.84 79.6643 205.307C78.9637 206.358 77.5626 206.591 76.5117 205.891L64.252 197.484L63.2011 198.885L72.1916 205.073C73.2425 205.774 73.476 207.175 72.7754 208.226C72.4251 208.693 71.9581 209.043 71.3743 209.16C70.7905 209.277 70.2067 209.16 69.6229 208.809L66.7039 206.825L62.267 203.789L61.5665 205.54L66.2369 208.693C67.0542 209.393 67.2877 210.678 66.5872 211.612C65.8866 212.663 64.4855 212.896 63.4346 212.196L57.5967 208.109L56.5458 209.51L58.6475 211.028V211.145C59.6983 211.845 59.9318 213.246 59.2313 214.297C58.881 214.764 58.414 215.115 57.8302 215.231C57.2464 215.348 56.6626 215.231 56.1955 214.881C56.6626 213.48 56.3123 211.845 55.0279 210.911C54.5609 210.561 53.8603 210.327 53.2765 210.327L53.6268 209.86C54.9112 208.109 54.5609 205.657 52.8095 204.489C52.1089 204.022 51.2916 203.672 50.4743 203.672C49.657 203.672 48.8397 203.906 48.1391 204.489C47.9056 203.672 47.4385 202.972 46.738 202.504C45.4536 201.57 43.4687 201.57 42.1844 202.504C41.9508 201.804 41.4838 201.103 40.9 200.636L40.7832 200.52C39.9659 199.936 39.0318 199.702 38.0978 199.819C37.981 199.702 37.981 199.585 37.8642 199.352C37.7475 199.118 37.6307 198.885 37.514 198.535C36.9302 197.367 35.7626 196.316 35.062 195.732L43.4687 183.356H50.0073L45.1034 186.041Z" fill="#1179EF" stroke="#1179EF" stroke-width="0.3"/>
<path fill-rule="evenodd" clip-rule="evenodd" d="M60.2301 126.996H57.9137L57.9132 125.219C57.9134 125.02 57.8401 124.819 57.6922 124.662C54.0787 120.82 47.3374 120.241 42.7512 122.901V122.892C38.2041 120.25 31.5148 120.826 27.8706 124.599C27.7104 124.765 27.5853 124.972 27.5853 125.219L27.5858 126.996H25.2729C24.8122 126.996 24.4144 127.373 24.4333 127.831L25.1397 144.911C25.1586 145.369 25.5235 145.821 25.9793 145.747L41.9277 143.169H43.5753L59.5237 145.747C59.9793 145.821 60.3444 145.37 60.3633 144.911L61.0697 127.831C61.0886 127.372 60.6907 126.996 60.2301 126.996ZM26.819 144.076L26.1125 128.667H27.5862L27.5895 141.725C27.5895 141.943 27.6768 142.16 27.8493 142.321C28.18 142.629 28.6989 142.611 29.0084 142.282C32.1325 138.961 38.0809 139.317 41.9277 141.521L26.819 144.076ZM41.9277 139.688C37.9975 137.856 32.8072 137.412 29.2336 139.936V125.548C32.3848 122.478 38.0898 122.069 41.9277 124.305V139.688ZM43.5753 124.305C47.4173 122.065 53.1231 122.483 56.2694 125.548V139.936C52.6958 137.412 47.5054 137.856 43.5753 139.688V124.305ZM58.684 144.076L43.5753 141.521C47.4033 139.328 53.303 138.958 56.4414 142.227C56.5922 142.42 56.8283 142.545 57.0934 142.545C57.5486 142.545 57.9177 142.178 57.9177 141.725L57.9143 128.667H59.3905L58.684 144.076Z" fill="#1179EF" stroke="#1179EF" stroke-width="0.3"/>
<path fill-rule="evenodd" clip-rule="evenodd" d="M61.9556 121.262H58.7682L59.9254 112.745C60.2154 112.776 60.5083 112.776 60.7985 112.745L61.9556 121.262ZM59.0942 110.75C59.0942 110.054 59.6629 109.489 60.3619 109.489C61.0609 109.489 61.6295 110.054 61.6295 110.75C61.6295 111.441 61.0684 112.003 60.3759 112.011C60.3667 112.011 60.3574 112.011 60.3482 112.011C59.6555 112.003 59.0942 111.441 59.0942 110.75ZM54.9015 105.881C50.7617 104.291 46.165 103.461 41.6025 103.478C37.2226 103.496 32.8086 104.3 28.8188 105.802L22.8609 103.851L41.162 97.0088L60.6117 104.074L54.9015 105.881ZM54.2845 113.632C52.256 113.662 50.2511 113.946 48.3183 114.479C45.9418 115.133 43.7317 116.143 41.7441 117.481C39.6847 116.219 37.4344 115.247 35.0506 114.591C33.1634 114.071 31.2071 113.755 29.2287 113.65V106.659C33.094 105.214 37.366 104.442 41.6064 104.424C45.9469 104.406 50.326 105.179 54.2845 106.659V113.632ZM62.3901 110.75C62.3901 109.767 61.6793 108.946 60.7422 108.768V105.025L63.5538 104.135L41.1572 96L20 103.91L28.278 106.621V114.558L28.7359 114.575C30.7963 114.65 32.8356 114.962 34.7971 115.502C37.1941 116.162 39.45 117.153 41.5023 118.446L41.7694 118.615L42.0288 118.435C43.9941 117.069 46.1956 116.045 48.5719 115.391C50.5716 114.84 52.6531 114.563 54.7579 114.575L55.2352 114.574V106.768L59.9816 105.266V108.768C59.0445 108.946 58.3337 109.767 58.3337 110.75C58.3337 111.435 58.6786 112.04 59.204 112.405L57.8978 122.019H62.826L61.5199 112.405C62.0452 112.04 62.3901 111.435 62.3901 110.75Z" fill="#1179EF" stroke="#1179EF"/>
<path d="M73.973 53.7459H50.6965C50.0867 53.7459 49.5785 53.2376 49.5785 52.6278C49.5785 52.0179 50.0867 51.5097 50.6965 51.5097H73.973C74.278 51.5097 74.4813 51.3064 74.4813 51.0015V22.7444C74.4813 22.4395 74.278 22.2362 73.973 22.2362H37.5844C37.2795 22.2362 37.0762 22.4395 37.0762 22.7444V29.0463C37.0762 29.6562 36.568 30.1644 35.9581 30.1644C35.3483 30.1644 34.8401 29.6562 34.8401 29.0463V22.7444C34.8401 21.2197 36.0598 20 37.5844 20H73.973C75.4977 20 76.7174 21.2197 76.7174 22.7444V50.8998C76.7174 52.4245 75.4977 53.7459 73.973 53.7459Z" fill="#1179EF"/>
<path d="M46.3258 65.13H20.9148C20.4066 65.13 20 64.7234 20 64.2152V55.3722C20 50.3916 25.6921 49.1719 27.5217 48.867C27.8266 48.867 28.0299 48.867 28.0299 48.867C28.7414 48.867 29.2496 48.6637 29.5545 48.3587C29.8595 47.9522 29.8595 47.3423 29.7578 46.9357C29.7578 46.8341 29.7578 46.8341 29.7578 46.7324C29.7578 46.2242 30.1644 45.8176 30.6726 45.8176C31.0792 45.8176 31.4858 46.1226 31.5874 46.6308C31.6891 47.4439 31.7907 48.562 30.9776 49.4768C30.3677 50.1883 29.4529 50.5949 28.2332 50.6965V50.6965C28.2332 50.6965 28.0299 50.6965 27.8266 50.7982C26.4036 51.0015 21.8296 51.9163 21.8296 55.5755V63.5037H45.5127V55.5755C45.5127 52.0179 40.9387 51.0015 39.6173 50.7982C39.3124 50.7982 39.2107 50.6965 39.1091 50.6965C37.8894 50.5949 36.9746 50.1883 36.3647 49.4768C35.7548 48.7653 35.6532 47.7489 35.8565 46.6308C35.9581 46.1226 36.4664 45.8176 36.8729 45.9193C37.3811 46.0209 37.6861 46.5291 37.5844 46.9357C37.4828 47.2406 37.4828 47.9522 37.7877 48.3587C37.991 48.6637 38.4992 48.867 39.2107 48.867C39.2107 48.867 39.414 48.867 39.8206 48.9686C41.5486 49.1719 47.2406 50.3916 47.2406 55.4738V64.3169C47.2406 64.7234 46.8341 65.13 46.3258 65.13Z" fill="#1179EF"/>
<path d="M33.6203 65.1298V65.1298C33.2137 65.1298 32.9088 64.9265 32.8071 64.6216L26.7085 50.1881C26.5052 49.7816 26.7085 49.1717 27.2167 48.9684C27.6233 48.7651 28.2331 48.9684 28.4364 49.4766L33.6203 61.9789L38.8041 49.4766C39.0074 49.07 39.5156 48.7651 40.0239 48.9684C40.4304 49.1717 40.7354 49.6799 40.5321 50.1881L34.5351 64.6216C34.3318 64.9265 34.0269 65.1298 33.6203 65.1298Z" fill="#1179EF"/>
<path d="M35.5516 60.5559C35.145 60.5559 34.7384 60.251 34.6368 59.7428L33.5187 51.7129C33.417 51.2047 33.8236 50.7981 34.3318 50.6965C34.84 50.5948 35.2466 51.0014 35.3483 51.5096L36.4664 59.5395C36.568 60.0477 36.1614 60.4543 35.6532 60.5559H35.5516Z" fill="#1179EF"/>
<path d="M31.6891 60.5542H31.5874C31.0792 60.4525 30.7743 60.046 30.7743 59.5377L31.8924 51.5079C31.994 50.9996 32.4006 50.6947 32.9088 50.6947C33.417 50.7963 33.722 51.2029 33.722 51.7111L32.6039 59.741C32.5022 60.2493 32.1973 60.5542 31.6891 60.5542Z" fill="#1179EF"/>
<path d="M35.3483 52.5261H31.8924C31.3842 52.5261 30.9776 52.1196 30.9776 51.6113C30.9776 51.1031 31.3842 50.6965 31.8924 50.6965H35.3483C35.8565 50.6965 36.2631 51.1031 36.2631 51.6113C36.2631 52.1196 35.8565 52.5261 35.3483 52.5261Z" fill="#1179EF"/>
<path d="M41.7518 65.13C41.2436 65.13 40.837 64.7234 40.837 64.2152V61.1659C40.837 60.6577 41.2436 60.2511 41.7518 60.2511C42.2601 60.2511 42.6666 60.6577 42.6666 61.1659V64.2152C42.6666 64.7234 42.2601 65.13 41.7518 65.13Z" fill="#1179EF"/>
<path d="M25.4888 65.13C24.9806 65.13 24.574 64.7234 24.574 64.2152V61.1659C24.574 60.6577 24.9806 60.2511 25.4888 60.2511C25.997 60.2511 26.4036 60.6577 26.4036 61.1659V64.2152C26.4036 64.7234 25.997 65.13 25.4888 65.13Z" fill="#1179EF"/>
<path fill-rule="evenodd" clip-rule="evenodd" d="M26.4037 39.5156C26.4037 43.8863 29.3513 48.6636 33.6204 48.6636C37.8894 48.6636 40.8371 43.8863 40.8371 39.5156C40.8371 35.0433 37.7878 31.7906 33.6204 31.7906C29.453 31.7906 26.4037 35.0433 26.4037 39.5156ZM28.2332 39.5158C28.2332 36.0599 30.4694 33.6205 33.6203 33.6205C36.7713 33.6205 39.0075 36.1616 39.0075 39.5158C39.0075 43.2767 36.3647 46.8342 33.6203 46.8342C30.8759 46.8342 28.2332 43.2767 28.2332 39.5158Z" fill="#1179EF"/>
<path d="M49.5784 46.7323C48.9685 46.7323 48.4603 46.2241 48.4603 45.6142V39.2106C48.4603 38.6008 48.9685 38.0925 49.5784 38.0925C50.1883 38.0925 50.6965 38.6008 50.6965 39.2106V45.6142C50.6965 46.2241 50.1883 46.7323 49.5784 46.7323Z" fill="#1179EF"/>
<path d="M55.2705 46.7325C54.6606 46.7325 54.1524 46.2242 54.1524 45.6144V33.8237C54.1524 33.2138 54.6606 32.7056 55.2705 32.7056C55.8803 32.7056 56.3885 33.2138 56.3885 33.8237V45.5127C56.3885 46.2242 55.8803 46.7325 55.2705 46.7325Z" fill="#1179EF"/>
<path d="M60.8609 46.7324C60.251 46.7324 59.7428 46.2242 59.7428 45.6143V30.6727C59.7428 30.0628 60.251 29.5546 60.8609 29.5546C61.4707 29.5546 61.979 30.0628 61.979 30.6727V45.6143C62.0806 46.2242 61.5724 46.7324 60.8609 46.7324Z" fill="#1179EF"/>
<path d="M66.553 46.7324C65.9431 46.7324 65.4349 46.2242 65.4349 45.6144V27.0135C65.4349 26.4036 65.9431 25.8954 66.553 25.8954C67.1628 25.8954 67.671 26.4036 67.671 27.0135V45.6144C67.671 46.2242 67.1628 46.7324 66.553 46.7324Z" fill="#1179EF"/>
<path fill-rule="evenodd" clip-rule="evenodd" d="M30.55 548.713C30.94 548.454 40 542.364 40 534.951C40 529.455 35.5228 525 30 525C24.4772 525 20 529.455 20 534.951C20 542.364 29.06 548.454 29.45 548.713H30.55ZM30 526.99C34.4183 526.99 38 530.554 38 534.951C38 540.334 31.9 545.26 30 546.663C28.1 545.26 22 540.334 22 534.951C22 530.554 25.5817 526.99 30 526.99ZM30 529.438C32.9602 529.438 35.36 531.826 35.36 534.772C35.3545 537.715 32.958 540.1 30 540.106C27.0398 540.106 24.64 537.718 24.64 534.772C24.64 531.826 27.0398 529.438 30 529.438ZM26.64 534.772C26.64 532.925 28.1443 531.428 30 531.428C31.8557 531.428 33.36 532.925 33.36 534.772C33.36 536.618 31.8557 538.115 30 538.115C28.1466 538.11 26.6455 536.616 26.64 534.772ZM40 552.863V550.872H20V552.863H40Z" fill="#1179EF"/>
</svg>
