<svg width="136" height="88" viewBox="0 0 136 88" fill="none" xmlns="http://www.w3.org/2000/svg">
<g id="Group 2609120" opacity="0.2">
<circle id="Ellipse 299" cx="4" cy="4" r="4" fill="#61CAEC"/>
<circle id="Ellipse 308" cx="4" cy="20" r="4" fill="#61CAEC"/>
<circle id="Ellipse 317" cx="4" cy="36" r="4" fill="#61CAEC"/>
<circle id="Ellipse 326" cx="4" cy="52" r="4" fill="#61CAEC"/>
<circle id="Ellipse 335" cx="4" cy="68" r="4" fill="#61CAEC"/>
<circle id="Ellipse 344" cx="4" cy="84" r="4" fill="#61CAEC"/>
<circle id="Ellipse 300" cx="20" cy="4" r="4" fill="#61CAEC"/>
<circle id="Ellipse 309" cx="20" cy="20" r="4" fill="#61CAEC"/>
<circle id="Ellipse 318" cx="20" cy="36" r="4" fill="#61CAEC"/>
<circle id="Ellipse 327" cx="20" cy="52" r="4" fill="#61CAEC"/>
<circle id="Ellipse 336" cx="20" cy="68" r="4" fill="#61CAEC"/>
<circle id="Ellipse 345" cx="20" cy="84" r="4" fill="#61CAEC"/>
<circle id="Ellipse 301" cx="36" cy="4" r="4" fill="#61CAEC"/>
<circle id="Ellipse 310" cx="36" cy="20" r="4" fill="#61CAEC"/>
<circle id="Ellipse 319" cx="36" cy="36" r="4" fill="#61CAEC"/>
<circle id="Ellipse 328" cx="36" cy="52" r="4" fill="#61CAEC"/>
<circle id="Ellipse 337" cx="36" cy="68" r="4" fill="#61CAEC"/>
<circle id="Ellipse 346" cx="36" cy="84" r="4" fill="#61CAEC"/>
<circle id="Ellipse 302" cx="52" cy="4" r="4" fill="#61CAEC"/>
<circle id="Ellipse 311" cx="52" cy="20" r="4" fill="#61CAEC"/>
<circle id="Ellipse 320" cx="52" cy="36" r="4" fill="#61CAEC"/>
<circle id="Ellipse 329" cx="52" cy="52" r="4" fill="#61CAEC"/>
<circle id="Ellipse 338" cx="52" cy="68" r="4" fill="#61CAEC"/>
<circle id="Ellipse 347" cx="52" cy="84" r="4" fill="#61CAEC"/>
<circle id="Ellipse 303" cx="68" cy="4" r="4" fill="#61CAEC"/>
<circle id="Ellipse 312" cx="68" cy="20" r="4" fill="#61CAEC"/>
<circle id="Ellipse 321" cx="68" cy="36" r="4" fill="#61CAEC"/>
<circle id="Ellipse 330" cx="68" cy="52" r="4" fill="#61CAEC"/>
<circle id="Ellipse 339" cx="68" cy="68" r="4" fill="#61CAEC"/>
<circle id="Ellipse 348" cx="68" cy="84" r="4" fill="#61CAEC"/>
<circle id="Ellipse 304" cx="84" cy="4" r="4" fill="#61CAEC"/>
<circle id="Ellipse 313" cx="84" cy="20" r="4" fill="#61CAEC"/>
<circle id="Ellipse 322" cx="84" cy="36" r="4" fill="#61CAEC"/>
<circle id="Ellipse 331" cx="84" cy="52" r="4" fill="#61CAEC"/>
<circle id="Ellipse 340" cx="84" cy="68" r="4" fill="#61CAEC"/>
<circle id="Ellipse 349" cx="84" cy="84" r="4" fill="#61CAEC"/>
<circle id="Ellipse 305" cx="100" cy="4" r="4" fill="#61CAEC"/>
<circle id="Ellipse 314" cx="100" cy="20" r="4" fill="#61CAEC"/>
<circle id="Ellipse 323" cx="100" cy="36" r="4" fill="#61CAEC"/>
<circle id="Ellipse 332" cx="100" cy="52" r="4" fill="#61CAEC"/>
<circle id="Ellipse 341" cx="100" cy="68" r="4" fill="#61CAEC"/>
<circle id="Ellipse 350" cx="100" cy="84" r="4" fill="#61CAEC"/>
<circle id="Ellipse 306" cx="116" cy="4" r="4" fill="#61CAEC"/>
<circle id="Ellipse 315" cx="116" cy="20" r="4" fill="#61CAEC"/>
<circle id="Ellipse 324" cx="116" cy="36" r="4" fill="#61CAEC"/>
<circle id="Ellipse 333" cx="116" cy="52" r="4" fill="#61CAEC"/>
<circle id="Ellipse 342" cx="116" cy="68" r="4" fill="#61CAEC"/>
<circle id="Ellipse 351" cx="116" cy="84" r="4" fill="#61CAEC"/>
<circle id="Ellipse 307" cx="132" cy="4" r="4" fill="#61CAEC"/>
<circle id="Ellipse 316" cx="132" cy="20" r="4" fill="#61CAEC"/>
<circle id="Ellipse 325" cx="132" cy="36" r="4" fill="#61CAEC"/>
<circle id="Ellipse 334" cx="132" cy="52" r="4" fill="#61CAEC"/>
<circle id="Ellipse 343" cx="132" cy="68" r="4" fill="#61CAEC"/>
<circle id="Ellipse 352" cx="132" cy="84" r="4" fill="#61CAEC"/>
</g>
</svg>
