<svg width="62" height="22" viewBox="0 0 62 22" fill="none" xmlns="http://www.w3.org/2000/svg">
<path d="M10.3892 14.6666V15.2778H11.6114V14.6666V1.2222V0.611084H10.3892V1.2222V14.6666Z" fill="#1179EF"/>
<path d="M16.321 11.4321L16.7531 11L15.8889 10.1357L15.4568 10.5679L10.5679 15.4568L10.1357 15.8889L11 16.7531L11.4321 16.321L16.321 11.4321Z" fill="#1179EF"/>
<path d="M6.54343 10.5679L6.11131 10.1357L5.24707 11L5.67919 11.4321L10.5681 16.321L11.0002 16.7531L11.8644 15.8889L11.4323 15.4568L6.54343 10.5679Z" fill="#1179EF"/>
<path d="M0.611328 20.7778V21.3889H1.22244H20.778H21.3891V20.7778V17.1111H20.1669V20.7778L20.778 20.1666H1.22244L1.83355 20.7778V17.1111H0.611328V20.7778Z" fill="#1179EF"/>
<path d="M50.3892 14.6666V15.2778H51.6114V14.6666V1.2222V0.611084H50.3892V1.2222V14.6666Z" fill="white"/>
<path d="M56.321 11.4321L56.7531 11L55.8889 10.1357L55.4568 10.5679L50.5679 15.4568L50.1357 15.8889L51 16.7531L51.4321 16.321L56.321 11.4321Z" fill="white"/>
<path d="M46.5434 10.5679L46.1113 10.1357L45.2471 11L45.6792 11.4321L50.5681 16.321L51.0002 16.7531L51.8644 15.8889L51.4323 15.4568L46.5434 10.5679Z" fill="white"/>
<path d="M40.6113 20.7778V21.3889H41.2224H60.778H61.3891V20.7778V17.1111H60.1669V20.7778L60.778 20.1666H41.2224L41.8336 20.7778V17.1111H40.6113V20.7778Z" fill="white"/>
</svg>
