<svg xmlns="http://www.w3.org/2000/svg" width="666" height="625" xmlns:xlink="http://www.w3.org/1999/xlink"><title>Sprite Image - Dual Masters</title><desc>Created with Sketch.</desc><defs><linearGradient id="c" x1="15.284%" x2="77.125%" y1="13.409%" y2="88.255%"><stop stop-color="#27B1F8" offset="0%"/><stop stop-color="#1179EF" offset="100%"/></linearGradient><circle id="b" cx="30" cy="30" r="30"/><filter id="a" width="143.3%" height="143.3%" x="-21.7%" y="-18.3%" filterUnits="objectBoundingBox"><feOffset dy="2" in="SourceAlpha" result="shadowOffsetOuter1"/><feGaussianBlur stdDeviation="4" in="shadowOffsetOuter1" result="shadowBlurOuter1"/><feColorMatrix values="0 0 0 0 0 0 0 0 0 0 0 0 0 0 0 0 0 0 0.1 0" in="shadowBlurOuter1"/></filter><circle id="e" cx="30" cy="30" r="30"/><filter id="d" width="143.3%" height="143.3%" x="-21.7%" y="-18.3%" filterUnits="objectBoundingBox"><feOffset dy="2" in="SourceAlpha" result="shadowOffsetOuter1"/><feGaussianBlur stdDeviation="4" in="shadowOffsetOuter1" result="shadowBlurOuter1"/><feColorMatrix values="0 0 0 0 0 0 0 0 0 0 0 0 0 0 0 0 0 0 0.1 0" in="shadowBlurOuter1"/></filter><circle id="g" cx="30" cy="30" r="30"/><filter id="f" width="143.3%" height="143.3%" x="-21.7%" y="-18.3%" filterUnits="objectBoundingBox"><feOffset dy="2" in="SourceAlpha" result="shadowOffsetOuter1"/><feGaussianBlur stdDeviation="4" in="shadowOffsetOuter1" result="shadowBlurOuter1"/><feColorMatrix values="0 0 0 0 0 0 0 0 0 0 0 0 0 0 0 0 0 0 0.1 0" in="shadowBlurOuter1"/></filter><path id="h" d="M0 0h24v24H0z"/><path id="j" d="M0 0h24v24H0z"/><path id="l" d="M0 0h24v24H0z"/></defs><g fill="none"><g fill="#F1B006"><path id="Path" d="M94.58 47.64l3.97 2.2-.76-4.65 3.2-3.3-4.43-.68-2-4.22-1.97 4.22-4.43.68 3.2 3.3-.75 4.63zM110.58 47.64l3.97 2.2-.76-4.65 3.2-3.3-4.43-.68-2-4.22-1.97 4.22-4.43.68 3.2 3.3-.75 4.63zM126.58 47.64l3.97 2.2-.76-4.65 3.2-3.3-4.43-.68-2-4.22-1.97 4.22-4.43.68 3.2 3.3-.75 4.63z"/><path id="Path-Copy" d="M143.58 47.64l3.97 2.2-.76-4.65 3.2-3.3-4.43-.68-2-4.22-1.97 4.22-4.43.68 3.2 3.3-.75 4.63z"/><path id="Path-Copy-2" d="M159.58 47.64l3.97 2.2-.76-4.65 3.2-3.3-4.43-.68-2-4.22-1.97 4.22-4.43.68 3.2 3.3-.75 4.63z"/></g><g fill="#D2D6DE"><path id="Path" d="M94.58 69.64l3.97 2.2-.76-4.65 3.2-3.3-4.43-.68-2-4.22-1.97 4.22-4.43.68 3.2 3.3-.75 4.63zM110.58 69.64l3.97 2.2-.76-4.65 3.2-3.3-4.43-.68-2-4.22-1.97 4.22-4.43.68 3.2 3.3-.75 4.63zM126.58 69.64l3.97 2.2-.76-4.65 3.2-3.3-4.43-.68-2-4.22-1.97 4.22-4.43.68 3.2 3.3-.75 4.63z"/><path id="Path-Copy" d="M143.58 69.64l3.97 2.2-.76-4.65 3.2-3.3-4.43-.68-2-4.22-1.97 4.22-4.43.68 3.2 3.3-.75 4.63z"/><path id="Path-Copy-2" d="M159.58 69.64l3.97 2.2-.76-4.65 3.2-3.3-4.43-.68-2-4.22-1.97 4.22-4.43.68 3.2 3.3-.75 4.63z"/></g><g fill-rule="nonzero"><path fill="#F5AB40" d="M34 69.06l-11.4-6.63V50.6L34 44l11.65 6.62v3.3l2.6-1.47V49.1L33.98 41 20 49.1v14.83l13.98 8.13 14.27-8.13v-5.65l-2.6 1.5v2.64z"/><path fill="#00A7DC" d="M41.12 33l11.53 6.62v11.8L41 58.06l-11.4-6.63v-3.1L27 49.78v3.13l13.98 8.13 14.27-8.13V38.1L41.12 30 27 38.1v5.15l2.6-1.6v-2.03L41.12 33zm11.53 19.18l.66-1.13-.65.37v.76z"/></g><g transform="translate(20 99)"><circle cx="50" cy="50" r="50" fill="#1179EF" fill-opacity=".12"/><ellipse id="Oval-6" cx="49.855" cy="49.936" fill="#1179EF" rx="29.855" ry="29.936"/><path id="Path-56" fill="#fff" d="M45.47 39.56v21.17l13.2-10.58z"/></g><g><path id="Rectangle" d="M59 219h24v24H59z"/><path id="Oval" stroke="#1179EF" stroke-width="1.5" d="M71 239.85c4.9 0 8.85-3.96 8.85-8.85 0-4.9-3.96-8.85-8.85-8.85-4.9 0-8.85 3.96-8.85 8.85 0 4.9 3.96 8.85 8.85 8.85z"/><path stroke="#1179EF" stroke-width="1.5" d="M66.2 231l3.2 3.2 6.4-6.4"/></g><g id="Group" transform="translate(20 287)"><circle id="Oval-Copy-11" cx="45" cy="45" r="45" fill="#fff"/><g fill="#18AFAA" fill-rule="nonzero"><path id="Path" d="M65.16 62.02h-2.84V34.14c0-.64-.52-1.17-1.17-1.17-.64 0-1.16.53-1.16 1.17v27.88H54.9V38.3c0-.66-.52-1.18-1.16-1.18-.64 0-1.16.52-1.16 1.17V62h-5.08V42.44c0-.64-.52-1.17-1.16-1.17-.64 0-1.16.53-1.16 1.17v19.58h-5.08V46.6c0-.65-.52-1.18-1.16-1.18-.64 0-1.16.53-1.16 1.17V62h-5.07V50.74c0-.64-.52-1.17-1.17-1.17-.64 0-1.16.53-1.16 1.17v11.28h-5.07V54.9c0-.65-.52-1.18-1.16-1.18-.64 0-1.16.53-1.16 1.17V62h-2.84c-.64 0-1.16.53-1.16 1.17 0 .64.52 1.17 1.16 1.17h45c.64 0 1.16-.53 1.16-1.18 0-.65-.52-1.18-1.16-1.18zM22.7 46.3c.17 0 .34-.04.5-.1 17.85-8.28 26.72-13.54 35.82-20.03l-1.27 4.14c-.2.63.15 1.28.76 1.47.12.04.24.06.35.06.5 0 .96-.33 1.1-.83l2.3-7.47c.02-.02.02-.04.02-.06 0-.03.02-.05.02-.08s0-.05 0-.07c0-.03 0-.06 0-.1 0 0 .02-.03.02-.05 0 0 0 0 0-.02s0-.04 0-.06c0-.03-.02-.06-.02-.1 0-.02 0-.05 0-.07-.02-.02-.02-.03-.03-.05 0-.03-.02-.06-.03-.1 0-.02 0-.05-.03-.07 0 0 0-.02 0-.03-.02-.03-.04-.06-.05-.1-.02 0-.03-.04-.05-.06 0-.02-.02-.02-.02-.03-.02-.02-.05-.05-.07-.07 0-.02-.03-.05-.05-.07 0 0-.02-.02-.03-.03-.02-.02-.05-.04-.07-.05-.03-.02-.05-.04-.08-.06 0 0-.02-.02-.03-.03-.03-.02-.05-.03-.08-.04-.03 0-.06-.03-.08-.04-.02-.02-.04-.02-.05-.03 0 0-.02 0-.03 0-.02-.02-.04-.02-.05-.02-.03 0-.06-.02-.1-.02 0 0-.03 0-.05 0-.03 0-.06-.02-.1-.02 0 0-.03 0-.04 0H53c-.64 0-1.16.52-1.16 1.17 0 .65.52 1.17 1.16 1.18h4.54c-8.93 6.36-17.72 11.56-35.3 19.7-.6.28-.85.97-.58 1.56.2.44.6.7 1.05.7z"/></g></g><g id="Group-2" transform="translate(140 287)"><circle cx="45" cy="45" r="45" fill="#fff"/><g fill="#6B61E6" fill-rule="nonzero"><path id="Shape" d="M34.8 54.74l.04 6.07c0 .1.02.17.04.24-.02.08-.04.15-.04.23 0 .53.43.95.95.95h19.4c.53 0 .96-.42.96-.95 0-.1-.02-.18-.05-.27.03-.06.03-.13.03-.2l.04-6.07c0-4.65-2.7-8.2-7.88-10.42 5.22-2.17 7.87-5.65 7.87-10.37v-6.2c0-.53-.44-.95-.96-.95H35.8s-.02 0-.02 0 0 0-.02 0c-.52 0-.94.44-.94.96l-.02 6.2c0 4.72 2.65 8.2 7.9 10.37-5.18 2.22-7.9 5.8-7.9 10.44zm1.9-20.8v-5.27h17.57v5.27c0 4.48-2.87 7.55-8.78 9.36-5.92-1.8-8.8-4.88-8.8-9.36zm8.78 11.35c5.83 1.83 8.8 5 8.8 9.43l-.04 5.6h-17.5l-.04-5.6c0-4.43 2.96-7.6 8.78-9.44z"/><path id="Path" d="M58.05 23h-25.1c-.53 0-.95.42-.95.95 0 .52.42.94.95.94h25.1c.53 0 .95-.43.95-.95 0-.53-.42-.95-.95-.95zM32 65.05c0 .53.42.95.95.95h25.1c.53 0 .95-.42.95-.95 0-.52-.42-.94-.95-.94h-25.1c-.53 0-.95.43-.95.95z"/></g></g><g><g fill="#01B3E4" fill-rule="nonzero" stroke="#01B3E4" stroke-width=".5"><path id="Shape" d="M365.77 145.77h-7.9v-1.6c0-1.74-1.42-3.17-3.17-3.17h-9.48c-1.74 0-3.16 1.43-3.16 3.18v1.6h-7.9c-1.74 0-3.16 1.4-3.16 3.17v20.66c0 1.76 1.42 3.2 3.16 3.2h31.6c1.75 0 3.17-1.44 3.17-3.2v-20.65c0-1.76-1.42-3.18-3.16-3.18zm-22.13-1.6c0-.87.7-1.58 1.58-1.58h9.48c.87 0 1.58.7 1.58 1.58v1.6h-12.64v-1.6zm23.7 25.44c0 .9-.7 1.6-1.57 1.6h-31.6c-.88 0-1.6-.7-1.6-1.6v-11.56c.48.28 1 .44 1.6.44h12.63v2.4c0 .43.36.78.8.78h4.73c.44 0 .8-.35.8-.8v-2.38h12.64c.57 0 1.1-.16 1.58-.44v11.57zm-18.96-9.53v-3.18h3.16v3.17h-3.16zm18.97-4.76c0 .88-.7 1.6-1.58 1.6h-12.65v-.8c0-.44-.35-.8-.8-.8h-4.73c-.44 0-.8.36-.8.8v.8h-12.64c-.87 0-1.58-.72-1.58-1.6v-6.35c0-.88.7-1.6 1.58-1.6h31.6c.88 0 1.6.72 1.6 1.6v6.36z"/></g></g><g><g fill="#D3669D" fill-rule="nonzero" stroke="#D3669D" stroke-width=".1"><path id="Path" d="M276.5 145.23c-.48-.33-1.14-.22-1.46.26-.33.47-.22 1.13.25 1.46 3.7 2.64 5.9 6.97 5.9 11.56 0 7.86-6.3 14.24-14.07 14.24-7.76 0-14.06-6.38-14.06-14.24 0-7.78 6.2-14.13 13.88-14.2v1.6c0 .5.55.78.94.53l4.24-2.65c.4-.25.4-.8 0-1.06l-4.25-2.64c-.4-.26-.95.03-.95.5v1.62c-8.8.1-15.95 7.38-15.95 16.3 0 9 7.2 16.33 16.13 16.33 8.92 0 16.14-7.3 16.14-16.33 0-5.25-2.54-10.2-6.78-13.3z"/><path id="Shape" d="M257.05 158.52c0 5.62 4.54 10.2 10.08 10.2 5.55 0 10.08-4.55 10.08-10.2 0-5.6-4.52-10.2-10.07-10.2-5.54 0-10.08 4.6-10.08 10.2zm18.1 0c0 4.48-3.6 8.1-8.02 8.1s-8-3.62-8-8.1c0-4.48 3.58-8.1 8-8.1 4.43 0 8.02 3.62 8.02 8.1z"/><path id="Path" d="M266.12 154.04v4.48c0 .6.47 1.03 1 1.03h3.78c.58 0 1.02-.48 1.02-1.03 0-.6-.47-1.03-1.02-1.03h-2.72v-3.46c0-.58-.47-1.02-1-1.02-.55 0-1.06.47-1.06 1.02z"/></g></g><g><g fill="#18AFAA" fill-rule="nonzero" stroke="#18AFAA" stroke-width=".3" transform="translate(166 132) translate(5 6)"><path id="Shape" d="M36.92 18.9h-1.84c-.9-2.6-2.6-4.82-4.86-6.38l.45-4.06c.03-.25-.07-.5-.26-.65-.17-.16-.43-.22-.68-.16l-7.48 1.8c-.87-.13-1.74-.18-2.62-.18-4.03-.06-7.96 1.23-11.16 3.66-1.64 1.27-2.96 2.9-3.84 4.78-1.34-.1-2.5-1-2.9-2.26-.43-1.26-.05-2.65.96-3.53.3-.27.32-.74.04-1.04-.27-.3-.74-.35-1.06-.1C.26 12-.34 13.94.2 15.73c.5 1.8 2 3.14 3.87 3.45-.28.96-.42 1.96-.42 2.95 0 3.67 1.9 7.1 5.26 9.55l-.67 1.16c-.3.56-.38 1.23-.17 1.84.2.6.6 1.1 1.13 1.43l1.57.9c.36.2.76.3 1.17.3.2 0 .4-.02.62-.08.6-.15 1.13-.56 1.43-1.1l.87-1.7c2.85.7 5.83.76 8.7.16l.23.84c.24 1.07 1.2 1.83 2.3 1.83.17 0 .34-.02.5-.06l1.8-.4c1.26-.32 2-1.6 1.7-2.84l-.4-1.86c1.9-1.22 3.5-2.9 4.6-4.88h2.62c1.27-.02 2.3-1.03 2.3-2.28v-3.72c0-1.27-1-2.3-2.3-2.32zm-7.9-9.53l-.25 2.2c-1-.56-2.07-1.02-3.18-1.38L29 9.36zM37.7 24.9c0 .43-.35.77-.78.77h-3.07c-.04 0-.07 0-.1 0-.07 0-.12 0-.18 0-.08.05-.17.1-.25.15-.03.05-.07.1-.1.14-.02.03-.04.06-.06.1-1.06 2.06-2.7 3.8-4.7 4.97-.06.03-.1.07-.14.1-.03.04-.06.07-.1.1-.03.1-.07.18-.1.27 0 .04 0 .1 0 .13 0 .06 0 .1 0 .17l.5 2.36c.14.43-.08.88-.5 1.04l-1.85.52c-.45.08-.88-.2-.97-.65l-.42-1.58c-.02-.05-.04-.08-.06-.12-.02-.05-.05-.1-.08-.15-.03-.03-.06-.06-.1-.08-.03-.04-.08-.08-.12-.1h-.1c-.06-.04-.12-.06-.18-.07h-.12c-.06 0-.12 0-.18 0-3.04.73-6.22.68-9.23-.16h-.38l-.13.04-.14.07-.1.1c-.05.03-.08.07-.1.1-.02.03-.04.05-.06.07l-1.14 2.22c-.1.18-.28.3-.48.36-.2.06-.43.03-.62-.08l-1.58-.9c-.2-.14-.36-.34-.43-.57-.1-.2-.1-.42 0-.62l1.03-1.75c0-.04.03-.08.04-.12.02-.05.03-.1.04-.14 0-.06 0-.1 0-.16.02-.1 0-.2-.04-.28-.02-.04-.04-.1-.06-.13-.04-.04-.07-.07-.1-.1-.04-.04-.07-.07-.1-.1-3.3-2.16-5.17-5.32-5.17-8.7 0-1.14.2-2.3.63-3.36v-.05c.77-1.8 2-3.37 3.56-4.56 2.92-2.22 6.52-3.4 10.2-3.33.86 0 1.7.06 2.56.18h.03c2.4.34 4.73 1.2 6.76 2.54 2.32 1.47 4.03 3.73 4.8 6.36 0 0 0 0 0 .05s.03.1.06.14c.07.1.18.2.3.28l.14.05h2.66c.43 0 .77.34.77.76v3.7z"/><path id="Path" d="M19.85 13.2c-1.98 0-3.9.66-5.44 1.88-.2.17-.3.44-.27.7.05.28.23.5.5.6.25.1.54.06.76-.12 2.8-2.18 6.82-1.98 9.4.46.2.2.5.26.76.18.26-.08.46-.3.53-.55.05-.27-.03-.54-.23-.73-1.62-1.55-3.77-2.4-6.02-2.42z"/><ellipse id="Oval" cx="30.44" cy="20.163" rx="1.069" ry="1.056"/><path id="Shape" d="M19.46 6.93c1.94 0 3.5-1.55 3.5-3.46 0-1.92-1.56-3.47-3.5-3.47-1.93 0-3.5 1.55-3.5 3.47 0 1.9 1.57 3.46 3.5 3.46zm0-5.4c1.1 0 1.97.86 1.97 1.94 0 1.07-.88 1.94-1.97 1.94-1.08 0-1.97-.86-1.97-1.93 0-1.08.88-1.95 1.96-1.95z"/></g></g><g><g transform="translate(110 397)"><use fill="#000" filter="url(#a)" xlink:href="#b"/><use fill="url(#c)" xlink:href="#b"/></g><g fill="#fff" fill-rule="nonzero"><path id="Shape" d="M128.4 423.23c1.55 0 2.86-1.3 2.86-2.92 0-1.6-1.3-2.9-2.87-2.9-1.58 0-2.9 1.25-2.9 2.9 0 1.62 1.27 2.93 2.9 2.93zm0-4.88c1 0 1.85.85 1.85 1.9 0 1.07-.86 1.92-1.86 1.92-1.02 0-1.88-.8-1.88-1.86 0-1.1.8-1.95 1.87-1.95zM139 419.86c1.58 0 2.9-1.3 2.9-2.92 0-1.62-1.32-2.93-2.9-2.93-1.55 0-2.86 1.32-2.86 2.94 0 1.6 1.26 2.92 2.87 2.92zm0-4.84c1.02 0 1.88.86 1.88 1.92 0 1.05-.86 1.9-1.87 1.9-1 0-1.85-.85-1.85-1.9 0-1.06.8-1.92 1.86-1.92zM156.24 432.2h-3.07v-13.4h3.07c.2 0 .36-.1.46-.3.1-.15.05-.4-.05-.56l-5.95-7.25c-.2-.26-.6-.26-.8 0l-5.9 7.24c-.1.15-.15.36-.05.56.1.15.25.3.45.3h3.08v13.4H145c-.3 0-.5.2-.5.5v2.92h-2.66c0-.1.05-.2.05-.3v-4.83h1.25c.3 0 .5-.22.5-.52v-7.05c0-1.66-1.16-2.97-2.62-2.97H137c-1.4 0-2.62 1.36-2.62 2.97v7.05c0 .3.2.5.5.5h1.26v4.84c0 .1 0 .2.05.3h-3.43c-.3 0-.5.2-.5.5v3.03h-1.06c.06-.15.1-.3.1-.45v-4.84h1.27c.3 0 .5-.2.5-.5v-7.06c0-1.66-1.16-2.97-2.62-2.97h-4.03c-1.4 0-2.62 1.36-2.62 2.97v7.06c0 .3.2.5.5.5h1.2v4.84c0 .15.07.3.12.45H124c-.3 0-.5.2-.5.5v3.58c0 .3.2.5.5.5h32.24c.3 0 .5-.2.5-.5V432.7c0-.3-.2-.5-.5-.5zm-8.26-14.4h-2.52l4.84-6 4.83 6h-2.5c-.32 0-.52.2-.52.5v13.9h-3.72v-13.9c.1-.3-.15-.5-.4-.5zm-10.83 17.52v-9.22c0-.3-.2-.5-.5-.5s-.5.2-.5.5v3.43h-.76v-6.55c0-1.1.7-1.96 1.6-1.96h4.03c.9 0 1.6.9 1.6 1.96v6.55h-.74v-3.43c0-.3-.22-.5-.52-.5-.3 0-.5.2-.5.5v9.22c0 .15-.1.3-.3.3h-1.06v-5.4c0-.3-.2-.5-.5-.5s-.5.2-.5.5v5.4h-1.07c-.2 0-.3-.15-.3-.3zm-12.4-2.47v-6.55c0-1.1.7-1.96 1.62-1.96h4.03c.9 0 1.6.9 1.6 1.96v6.55h-.74v-3.42c0-.3-.2-.5-.5-.5s-.5.2-.5.5v9.27c0 .15-.16.3-.3.3h-1.07v-5.4c0-.3-.2-.5-.5-.5-.32 0-.52.2-.52.5v5.4h-1.1c-.16 0-.26-.15-.26-.3v-9.27c0-.3-.2-.5-.5-.5s-.5.2-.5.5v3.42h-.76zm-.24 7.3h7.7v2.58h-7.7v-2.57zm8.72 2.58v-6.1h11.29v6.1h-11.28zm22.52 0H145.5v-9.52h10.24v9.53z"/></g></g><g><g id="Oval" transform="translate(20 397)"><use fill="#000" filter="url(#d)" xlink:href="#e"/><use fill="url(#c)" xlink:href="#e"/></g><g fill="#fff" fill-rule="nonzero" stroke="#fff" stroke-width=".3"><path id="Shape" d="M55.6 431.58l-.6.6c-.02.04-.04.1-.03.13l.14.87c.02.05 0 .1-.05.14-.04.04-.1.04-.14.02l-.78-.4c-.04 0-.1 0-.13 0l-.8.4c-.04.02-.1.02-.14 0-.04-.04-.07-.1-.06-.15l.14-.86c0-.03 0-.08-.03-.1l-.62-.62c-.04-.04-.05-.1-.03-.15 0-.05.06-.1.1-.1l.87-.12c.05 0 .1-.02.1-.06l.4-.8c.02-.04.07-.07.13-.07.05 0 .1.03.13.08l.4.8c0 .03.05.05.1.06l.86.14c.05 0 .1.04.1.1.03.05 0 .1-.03.14zm4.26-.24l-.87-.13c-.05 0-.1-.02-.1-.06l-.4-.8c-.03-.04-.08-.07-.13-.07-.06 0-.1.03-.13.08l-.4.8c-.02.03-.06.06-.1.06l-.86.14c-.05 0-.1.04-.12.1 0 .05 0 .1.04.14l.62.6c.03.04.05.1.04.13l-.15.87c0 .06.03.1.07.14.05.04.1.05.16.02l.78-.4c.05 0 .1 0 .14 0l.8.4c.03.02.1.02.13 0 .05-.04.07-.1.06-.15l-.14-.86c-.02-.03 0-.08.03-.1l.62-.62c.04-.04.05-.1.03-.15-.02-.05-.07-.1-.12-.1zm4.3 0l-.86-.13c-.04 0-.08-.02-.1-.06l-.4-.8c-.02-.04-.07-.07-.12-.07-.06 0-.1.03-.13.08l-.4.8c-.02.03-.06.06-.1.06l-.86.14c-.06 0-.1.04-.12.1-.02.05 0 .1.03.14l.63.6c.04.04.05.1.04.13l-.1.87c0 .05 0 .1.05.14.05.04.1.04.15.02l.8-.4c.03 0 .08 0 .12 0l.77.4c.05.02.1.02.15 0 .04-.04.07-.1.06-.15l-.15-.86c0-.03 0-.08.04-.1l.63-.62c.04-.04.05-.1.02-.16-.02-.06-.08-.1-.15-.08zm-13.64-4c0 1.77-.68 3.47-1.9 4.77v.07h-.04c-2.33 2.43-6.06 2.86-8.88 1.03-2.83-1.83-3.95-5.4-2.7-8.53 1.27-3.12 4.57-4.9 7.87-4.25 3.3.65 5.68 3.56 5.67 6.92h-.02zm-2.74 4.52l-2.53-.97-1.78 1.23-1.77-1.24-2.75.75c1.14 1.2 2.7 1.9 4.36 1.94 1.66.03 3.26-.6 4.46-1.73h.02zm-6.7-5.63c.2 1.4 1.26 2.95 2.4 2.95 1.23 0 2.4-1.9 2.4-3.35 0-.3-.05-.58-.15-.86-1.43.78-3.02 1.22-4.64 1.26zm4.25-1.95c-.6-.74-1.58-1.04-2.5-.8-.9.26-1.6 1.03-1.74 1.97 1.48-.05 2.93-.45 4.23-1.16v-.02zm-3.1 6.02l1.24.88 1.26-.88-.2-.62c-.32.18-.7.28-1.06.28-.37 0-.73-.1-1.05-.28l-.18.62zm7.5-2.97c.03-2.73-1.7-5.16-4.3-6-2.58-.87-5.43.05-7.03 2.26-1.6 2.2-1.6 5.18.03 7.38l3.04-.84.28-.95c-.9-.9-1.42-2.1-1.48-3.37.06-1.73 1.48-3.1 3.2-3.1 1.72 0 3.14 1.37 3.2 3.1-.05 1.26-.57 2.45-1.45 3.36l.3.96 2.83 1.08c.9-1.1 1.4-2.5 1.4-3.9zm3.35-3.2h9.9c.2 0 .4-.18.4-.4 0-.2-.2-.4-.4-.4h-9.9c-.22 0-.4.2-.4.4 0 .22.18.4.4.4zm7.6 2.93h-7.6c-.22 0-.4.18-.4.4 0 .2.18.38.4.38h7.6c.22 0 .4-.17.4-.4 0-.2-.18-.38-.4-.38zm6.44-7.3v15.15c0 1.8-1.46 3.27-3.27 3.27H36.77c-1.8 0-3.27-1.46-3.27-3.26v-15.15c0-1.8 1.46-3.26 3.27-3.27h11.4v-.98c0-.27.23-.5.5-.5h3.27c.27 0 .5.23.5.5v.98h11.4c1.82 0 3.28 1.47 3.28 3.27zm-18.16-1.37h2.7v-2.62h-2.7v2.6zm17.38 1.35c0-1.37-1.12-2.48-2.5-2.48h-11.4v1.4c0 .14-.05.27-.15.36-.1.1-.23.15-.36.15h-3.26c-.13 0-.26-.05-.35-.15-.1-.1-.15-.22-.15-.35v-1.4h-11.4c-1.4 0-2.5 1.1-2.5 2.47v15.16c0 1.38 1.1 2.5 2.5 2.5h27.07c1.37 0 2.5-1.12 2.5-2.5v-15.15z"/></g></g><g fill="#848DA0" fill-rule="nonzero"><path id="Path" d="M29.27 229.6c2.5 0 4.56-3.17 4.56-5.83 0-2.67-2-4.77-4.56-4.77-2.55 0-4.56 2.15-4.56 4.77 0 2.6 2.07 5.82 4.57 5.82zM29 240.4c-7.03-.02-9-.1-9-1.04 0-4.75 4.04-8.6 9-8.6 4.98 0 9.02 3.85 9.02 8.6 0 .98-2.03 1.07-9 1.05z"/></g><g><g transform="translate(200 397)"><use fill="#000" filter="url(#f)" xlink:href="#g"/><use fill="url(#c)" xlink:href="#g"/></g><g fill="#fff" fill-rule="nonzero"><path id="Shape" d="M247.25 420.63c0-2.5-2.02-4.5-4.5-4.5s-4.5 2-4.5 4.5c0 1.34.6 2.54 1.53 3.37h-2.98l-3.78-3.77c-.22-.22-.57-.22-.8 0l-2.24 2.25c-.22.22-.22.57 0 .8l5.06 5.06c.1.1.25.16.4.16h4.5v3.94h-9.64l2.8-4.2-.94-.6-3.2 4.8h-1.4v-2.82c0-.3-.25-.56-.56-.56h-4.5v-2.25c0-1.17-.74-2.2-1.78-2.6 1.08-.82 1.78-2.12 1.78-3.58 0-2.48-2.02-4.5-4.5-4.5s-4.5 2.02-4.5 4.5c0 1.46.7 2.76 1.78 3.58-1.04.4-1.78 1.43-1.78 2.6v7.9c0 1.54 1.26 2.8 2.8 2.8v6.75h1.14v-6.75h3.93v6.2c0 .3.26.55.57.55h3.93c.32 0 .57-.25.57-.56v-8.45c0-.63-.2-1.22-.57-1.7H229.8v9.57h-2.24v1.13h5.63v-1.13h-2.26v-9.56h3.95c-.37.47-.6 1.05-.6 1.7v8.43c0 .3.26.55.57.55h3.94c.32 0 .57-.25.57-.56v-6.2h3.94v6.75h1.14v-6.75c1.55 0 2.8-1.26 2.8-2.8v-7.9c0-1.17-.73-2.2-1.77-2.6 1.08-.82 1.78-2.12 1.78-3.58zm-7.88 0c0-1.87 1.52-3.38 3.38-3.38 1.86 0 3.38 1.5 3.38 3.38 0 1.86-1.52 3.37-3.38 3.37-1.86 0-3.38-1.5-3.38-3.38zm-24.75 0c0-1.87 1.52-3.38 3.38-3.38 1.86 0 3.38 1.5 3.38 3.38 0 1.86-1.52 3.37-3.38 3.37-1.86 0-3.38-1.5-3.38-3.38zm4.5 11.8v-4.5H218V433c0 .3.25.56.56.56h5.06c.94 0 1.7.76 1.7 1.7v7.87h-2.82v-6.2c0-.3-.25-.56-.56-.56h-5.63c-.92 0-1.68-.75-1.68-1.68v-7.9c0-.92.76-1.68 1.7-1.68h3.37c.92 0 1.68.76 1.68 1.7v2.8c0 .32.25.57.56.57h4.5v2.24h-7.3zm25.32-7.3c.93 0 1.7.75 1.7 1.68v7.9c0 .92-.77 1.68-1.7 1.68h-5.63c-.3 0-.55.25-.55.56v6.2h-2.8v-7.9c0-.92.74-1.68 1.68-1.68h3.37c.3 0 .56-.25.56-.56v-5.06c0-.3-.25-.56-.56-.56h-4.83l-4.5-4.5 1.46-1.46 3.53 3.54c.1.1.25.16.4.16h7.88zM225.66 422.27c.07.03.14.04.2.04.16 0 .3-.04.4-.15l3.8-3.77H236c.93 0 1.7-.76 1.7-1.7v-4.5c0-.92-.77-1.68-1.7-1.68h-11.25c-.93 0-1.7.76-1.7 1.7v4.5c0 .92.77 1.68 1.7 1.68h.56v3.37c0 .23.15.43.36.52zm-.9-5.02c-.32 0-.57-.25-.57-.56v-4.5c0-.32.24-.57.55-.57H236c.3 0 .56.25.56.56v4.5c0 .3-.25.55-.56.55h-6.2c-.14 0-.28.06-.4.16l-2.96 3v-2.6c0-.3-.25-.55-.56-.55h-1.13z"/><path id="Rectangle" d="M225.3 412.75h3.4v1.13h-3.4zM225.3 415h10.14v1.13H225.3zM229.8 412.75h5.64v1.13h-5.63z"/></g></g><g fill="#272C37"><path id="Shape" d="M171 219l5.5 6.5 5.5-6.5z"/></g><g><path d="M202 219h24v24h-24z"/><path id="Shape" fill="#1179EF" d="M221 222h-14c-1.1 0-2 .9-2 2v14c0 1.1.9 2 2 2h14c1.1 0 2-.9 2-2v-14c0-1.1-.9-2-2-2zm-9 14l-5-4.8 1.4-1.35 3.6 3.46 7.6-7.3 1.4 1.35-9 8.65z"/></g><g id="Group-3" fill="#F1B006"><path id="Path" d="M198.5 47.12l3.4 1.88-.65-3.98L204 42.2l-3.8-.58-1.7-3.62-1.7 3.62-3.8.58 2.75 2.82-.65 3.98zM212.5 47.12l3.4 1.88-.65-3.98L218 42.2l-3.8-.58-1.7-3.62-1.7 3.62-3.8.58 2.75 2.82-.65 3.98zM226.5 47.12l3.4 1.88-.65-3.98L232 42.2l-3.8-.58-1.7-3.62-1.7 3.62-3.8.58 2.75 2.82-.65 3.98z"/><path id="Path-Copy" d="M240.5 47.12l3.4 1.88-.65-3.98L246 42.2l-3.8-.58-1.7-3.62-1.7 3.62-3.8.58 2.75 2.82-.65 3.98z"/><path id="Path-Copy-2" d="M254.5 47.12l3.4 1.88-.65-3.98L260 42.2l-3.8-.58-1.7-3.62-1.7 3.62-3.8.58 2.75 2.82-.65 3.98z"/></g><g fill="#D2D6DE"><path id="Path" d="M198.5 67.12l3.4 1.88-.65-3.98L204 62.2l-3.8-.58-1.7-3.62-1.7 3.62-3.8.58 2.75 2.82-.65 3.98zM212.5 67.12l3.4 1.88-.65-3.98L218 62.2l-3.8-.58-1.7-3.62-1.7 3.62-3.8.58 2.75 2.82-.65 3.98zM226.5 67.12l3.4 1.88-.65-3.98L232 62.2l-3.8-.58-1.7-3.62-1.7 3.62-3.8.58 2.75 2.82-.65 3.98z"/><path id="Path-Copy" d="M240.5 67.12l3.4 1.88-.65-3.98L246 62.2l-3.8-.58-1.7-3.62-1.7 3.62-3.8.58 2.75 2.82-.65 3.98z"/><path id="Path-Copy-2" d="M254.5 67.12l3.4 1.88-.65-3.98L260 62.2l-3.8-.58-1.7-3.62-1.7 3.62-3.8.58 2.75 2.82-.65 3.98z"/></g><g fill="#F1B006"><path id="Path" d="M293.12 46.47l5.02 2.77-.96-5.87 4.06-4.17-5.6-.85L293.1 33l-2.5 5.35-5.62.85 4.06 4.17-.96 5.87zM314.12 46.47l5.02 2.77-.96-5.87 4.06-4.17-5.6-.85L314.1 33l-2.5 5.35-5.62.85 4.06 4.17-.96 5.87zM334.12 46.47l5.02 2.77-.96-5.87 4.06-4.17-5.6-.85L334.1 33l-2.5 5.35-5.62.85 4.06 4.17-.96 5.87z"/><path id="Path-Copy" d="M355.12 46.47l5.02 2.77-.96-5.87 4.06-4.17-5.6-.85L355.1 33l-2.5 5.35-5.62.85 4.06 4.17-.96 5.87z"/><path id="Path-Copy-2" d="M376.12 46.47l5.02 2.77-.96-5.87 4.06-4.17-5.6-.85L376.1 33l-2.5 5.35-5.62.85 4.06 4.17-.96 5.87z"/></g><g fill="#D2D6DE"><path id="Path" d="M293.12 76.47l5.02 2.77-.96-5.87 4.06-4.17-5.6-.85L293.1 63l-2.5 5.35-5.62.85 4.06 4.17-.96 5.87zM314.12 76.47l5.02 2.77-.96-5.87 4.06-4.17-5.6-.85L314.1 63l-2.5 5.35-5.62.85 4.06 4.17-.96 5.87zM334.12 76.47l5.02 2.77-.96-5.87 4.06-4.17-5.6-.85L334.1 63l-2.5 5.35-5.62.85 4.06 4.17-.96 5.87z"/><path d="M355.12 76.47l5.02 2.77-.96-5.87 4.06-4.17-5.6-.85L355.1 63l-2.5 5.35-5.62.85 4.06 4.17-.96 5.87z"/><path d="M376.12 76.47l5.02 2.77-.96-5.87 4.06-4.17-5.6-.85L376.1 63l-2.5 5.35-5.62.85 4.06 4.17-.96 5.87z"/></g><g><path d="M246 219h24v24h-24z"/><path id="Shape" fill="#848DA0" d="M265 222h-14c-1.1 0-2 .9-2 2v14c0 1.1.9 2 2 2h14c1.1 0 2-.9 2-2v-14c0-1.1-.9-2-2-2zm-9 14l-5-5 1.4-1.4 3.6 3.57 7.6-7.6L265 227l-9 9z"/></g><g id="Oval-5-+-Path-143-Mask-Copy" transform="matrix(1 0 0 -1 465 243)"><mask id="i"><use xlink:href="#h"/></mask><path id="Path-143" fill="#51565E" fill-rule="nonzero" d="M6.65 10.35l5 5 .35.36.35-.35 5-5-.7-.7-5 5h.7l-5-5z" mask="url(#i)"/></g><g><path id="Mask" d="M553 243h24v-24h-24z"/><path id="Path-143" fill="#fff" fill-rule="nonzero" d="M559.65 232.65l5-5 .35-.36.35.35 5 5-.7.7-5-5h.7l-5 5z"/></g><g><path id="Mask" d="M509 219h24v24h-24z"/><path id="Path-143" fill="#fff" fill-rule="nonzero" d="M515.65 229.35l5 5 .35.36.35-.35 5-5-.7-.7-5 5h.7l-5-5z"/></g><g transform="translate(421 219)"><mask id="k"><use xlink:href="#j"/></mask><use fill="none" xlink:href="#j"/><path id="Path-143" fill="#51565E" fill-rule="nonzero" d="M6.65 10.35l5 5 .35.36.35-.35 5-5-.7-.7-5 5h.7l-5-5z" mask="url(#k)"/></g><g><g fill="#1179EF"><path d="M310.53 224.26c-.67.4-1.42.7-2.22.86-.62-.7-1.53-1.12-2.53-1.12-1.93 0-3.5 1.58-3.5 3.53 0 .28.04.55.1.8-2.9-.14-5.47-1.54-7.2-3.68-.3.52-.46 1.13-.46 1.77 0 1.23.63 2.3 1.56 2.95-.57-.02-1.1-.18-1.58-.45v.05c0 1.7 1.2 3.14 2.8 3.46-.3.1-.6.13-.92.13-.22 0-.44-.02-.65-.06.45 1.4 1.74 2.42 3.26 2.45-1.2.95-2.7 1.5-4.33 1.5-.28 0-.56 0-.83-.04 1.54 1 3.38 1.6 5.35 1.6 6.4 0 9.92-5.38 9.92-10.06 0-.15 0-.3 0-.45.67-.5 1.26-1.13 1.73-1.84-.62.28-1.3.47-2 .55.72-.42 1.27-1.12 1.53-1.94"/></g></g><g><g fill="#1179EF"><path d="M338.4 228.8h3.12V239h-3.12v-10.2zm11.64-.1c2.22 0 3.96 1.48 3.96 4.63V239h-3.54v-5.27c0-1.38-.55-2.33-1.77-2.33-.94 0-1.45.64-1.7 1.25-.08.22-.07.53-.07.84v5.5h-3.5s.04-9.34 0-10.2h3.5v1.6c.2-.7 1.33-1.7 3.1-1.7zM339.9 224c1.16 0 1.86.76 1.9 1.77 0 .98-.74 1.77-1.92 1.77h-.02c-1.13 0-1.86-.78-1.86-1.77 0-1 .75-1.77 1.9-1.77z"/></g></g><g><path id="Shape" d="M405 30h38v38h-38z"/><path id="Shape-Copy" fill="#D2D6DE" d="M435.57 47.27H417.8l4.5-4.5L420.5 41 413 48.52l7.52 7.53 1.77-1.77-4.5-4.5h17.77z"/></g><g><path id="Oval" fill="#DDE6ED" d="M602 68c10.5 0 19-8.5 19-19s-8.5-19-19-19-19 8.5-19 19 8.5 19 19 19z"/><path id="Shape" fill="#1179EF" d="M591 47.27h17.77l-4.5-4.5 1.78-1.77 7.52 7.52-7.52 7.53-1.77-1.77 4.5-4.5H591z"/></g><g><path id="Oval" fill="#DDE6ED" d="M464 153c-10.5 0-19-8.5-19-19s8.5-19 19-19 19 8.5 19 19-8.5 19-19 19z"/><path id="Shape" fill="#1179EF" d="M475 132.27h-17.77l4.5-4.5-1.78-1.77-7.52 7.52 7.52 7.53 1.77-1.77-4.5-4.5H475z"/></g><g id="Group-12" fill="#1179EF"><path id="Shape" d="M567 132.27h17.77l-4.5-4.5 1.78-1.77 7.52 7.52-7.52 7.53-1.77-1.77 4.5-4.5H567z"/></g><g fill="#1179EF"><path id="Shape" d="M532.57 132.27H514.8l4.5-4.5-1.78-1.77-7.52 7.52 7.52 7.53 1.77-1.77-4.5-4.5h17.77z"/></g><rect id="Rectangle" width="100" height="5" x="463" y="47" fill="#D2D6DE" rx="2.5"/><rect id="Rectangle" width="40" height="5" x="463" y="47" fill="#1179EF" rx="2.5"/><g transform="translate(477 85)"><rect id="Rectangle" width="80" height="4" fill="#D8D8D8" rx="2"/><rect id="Rectangle" width="36" height="4" fill="#1179EF" rx="2"/></g><g transform="translate(378 219)"><circle id="Oval" cx="11.5" cy="11.5" r="12.5" fill="#187FB8" stroke="#fff" stroke-width="2"/><path fill="#fff" d="M6.3 9.4h2.26v7.2H6.3V9.4zm8.47-.07c1.6 0 2.88 1.03 2.88 3.26v4h-2.58v-3.73c0-.98-.4-1.64-1.28-1.64-.7 0-1.07.45-1.24.88-.07.16-.06.38-.06.6v3.9H9.95s.03-6.6 0-7.2h2.55v1.13c.15-.5.97-1.2 2.27-1.2zM7.4 6c.82 0 1.34.54 1.36 1.25 0 .7-.54 1.25-1.4 1.25C6.52 8.5 6 7.95 6 7.25S6.55 6 7.4 6z"/></g><g transform="translate(103 219)"><ellipse id="Oval-6" cx="23.884" cy="23.949" stroke="#fff" stroke-opacity=".85" rx="23.384" ry="23.449"/><path id="Path-56" fill="#fff" d="M20.37 15.65V32.6l10.56-8.48z"/></g><g><g fill="#1179EF"><g fill-rule="nonzero"><path id="Path" d="M308.37 384.6c-.3-.3-.76-.3-1.05 0l-4.1 4.1c-.3.3-.3.77 0 1.06l4.1 4.1c.15.15.34.22.53.22.2 0 .38-.07.52-.22.3-.28.3-.75 0-1.04l-3.58-3.6 3.57-3.57c.3-.3.3-.76 0-1.05zM341.36 393.86c.15.15.34.22.52.22.2 0 .38-.07.53-.22l4.12-4.1c.3-.3.3-.76 0-1.05l-4.1-4.1c-.3-.3-.77-.3-1.06 0-.3.3-.3.76 0 1.05l3.58 3.58-3.58 3.6c-.3.28-.3.75 0 1.03zM329 397.4c.1.04.2.07.32.07.28 0 .54-.16.67-.42l7.37-14.98c.18-.37.03-.8-.34-1-.37-.18-.8-.02-1 .34l-7.37 15c-.18.37-.03.8.34 1z"/></g><g transform="translate(309 377)"><circle id="Oval" cx="9.284" cy="5.806" r="1.458" fill-rule="nonzero"/><circle id="Oval" cx="13.436" cy="2.131" r="2.131" fill-rule="nonzero"/><path id="Path" fill-rule="nonzero" d="M14.1 32.7c-2.7.15-6.78-3.07-7.7-2.07-.24.28-2.6 4.8-2.6 4.8-.6.8-.34 1.04.64 1.04h15.13c.34 0 .54-.33.36-.6L18.2 32.3c-.1-.15-.3-.2-.5-.15-.88.28-2.65.5-3.6.55z"/><path id="Shape" d="M8.02 8.7c-1.03 0-1.87.84-1.87 1.87 0 .98.78 1.8 1.75 1.87l.03 6.6C5.9 24.5 3.03 29.12 1.36 32.58.52 34.32-.07 35.74 0 37.03c.04.64.3 1.26.8 1.7.5.44 1.15.7 1.97.8.03 0 .06 0 .1 0h17.46c.03 0 .07 0 .1 0 .82-.1 1.48-.36 1.97-.8.5-.44.75-1.06.8-1.7.06-1.3-.53-2.7-1.37-4.45-1.67-3.46-4.52-8.08-6.57-13.54l.03-6.6c.96-.06 1.75-.9 1.75-1.87 0-1.03-.85-1.87-1.88-1.87H8.02zm0 1.4h7.15c.27 0 .47.2.47.47 0 .26-.2.47-.47.47h-.58c-.4 0-.7.3-.7.7l-.04 7.42c0 .1 0 .17.04.25 2.1 5.67 5.05 10.43 6.67 13.78.8 1.68 1.26 3.03 1.22 3.77-.03.37-.13.56-.33.74-.2.17-.57.34-1.2.43H2.93c-.62-.1-1-.26-1.2-.44-.2-.2-.3-.38-.3-.75-.05-.74.4-2.1 1.2-3.77 1.63-3.35 4.56-8.1 6.67-13.77.02-.07.04-.15.04-.24l-.05-7.42c0-.4-.32-.7-.7-.7H8c-.26 0-.47-.2-.47-.47 0-.26.2-.47.47-.47z"/><path id="Path" d="M10.95 11.57c-.4 0-.7.33-.7.72v5.83c0 .26.14.5.35.62.22.13.5.13.7 0 .23-.13.36-.36.36-.62V12.3c0-.2-.07-.4-.2-.52-.14-.13-.32-.2-.5-.2z"/></g></g></g><g><g><g><g id="Group-2"><path id="Rectangle" d="M306 298h39v39h-39z"/><g><path d="M306 298h39v39h-39z"/><path id="Shape" fill="#01B3E4" fill-rule="nonzero" stroke="#01B3E4" d="M343.76 309.2c-.13-.48-1.42-1.8-3.46-2.7v-1.47c0-.05 0-.1-.02-.13-.1-.42-.6-.56-1.12-.65-2.78-.5-9.86 0-13.57 4.5-2.1-2.66-5.02-4.12-8.34-4.12-4 .03-7.95 2.08-9.96 5.1-.05.07-.08.17-.08.27v20.66c0 .2.13.4.33.48.2.08.42.03.57-.12 2.4-2.47 8.14-2.95 12.32-2.15 2.43.47 4.18 1.36 4.57 2.32.05.05.05.06.06.07.03.05.04.06.06.08.08.07.1.08.1.1.1.03.12.04.14.04.04 0 .1 0 .14.02.25 0 .4-.1.5-.2 6-3.6 14.03-2.4 17.02-.93.17.07.36.06.5-.04.17-.1.26-.26.26-.44v-20.58c0-.05 0-.1-.02-.13zm-23.14 18.76c-4.47-.86-9.55-.27-12.3 1.67l-.17-.1.02-19.43c1.87-2.7 5.47-4.5 9-4.54 3.1-.02 5.87 1.2 8 4.23v19.8l-.18.1c-1.02-.83-2.6-1.4-4.38-1.74zm5.37 2.1l.02-20.33c2.9-3.95 10.1-5.5 13.26-4.52l.08.12v19.7l-.12.1c-2.82-.3-5.14 1.8-7.7 2.97-.22.1-2.2.78-2.1 1 .1.2.33.28.54.2 3.04-1.4 7.2-3.8 9.7-3.3.13.04.25 0 .35-.07.1-.08.15-.2.15-.32v-17.96l.17-.1c1.16.6 2.14 1.38 2.5 1.93v19.66l-.16.1c-4.58-1.74-11.57-1.7-16.54.92l-.17-.1z"/></g></g><path fill="#01B3E4" d="M339.58 306.42v18.75l-6.92 1.93-3.54 1.95 6.88-.85 6.85 1.5v-21.04z"/></g></g></g><g><g><g><path fill="#D3669D" fill-rule="nonzero" d="M400.67 316.67c2.6 0 4.33-1.95 4.33-4.28v-1.46c0-2.33-1.73-4.27-4.33-4.27s-4.34 1.94-4.34 4.27v1.45c0 2.42 1.74 4.27 4.34 4.27z"/><path stroke="#D3669D" stroke-width="1.8" d="M407.15 330v-5h6.47c3.23 0 5.38-2.8 5.38-5-1.72 0-18.52 0-20.46 0-5.06 0-7.54 1.5-7.54 6v4"/><path stroke="#D3669D" stroke-width="1.8" d="M413.67 317.07V307c0-1.66 1.34-3 3-3h20.66c1.66 0 3 1.34 3 3v16c0 1.66-1.34 3-3 3H418.7"/><path stroke="#D3669D" stroke-width="1.8" d="M421.67 320.24l9.1-3.76"/><path stroke="#D3669D" stroke-width="1.8" d="M395.33 325.72v3.9" stroke-linecap="square"/></g></g></g><g><g fill="#18AFAA" fill-rule="nonzero"><g><path id="Path" d="M519.1 309.16c-2.4-5.4-7.84-9.16-14.13-9.16-6.27 0-11.7 3.75-14.12 9.13-3.15.42-5.6 2.78-5.83 5.7 0 .14-.02.28-.02.44 0 .2 0 .4.03.58 0 0 0 0 0 .02.02.18.05.36.08.54.02.02.02.03.02.04.04.17.08.34.13.5 0 .02 0 .03 0 .04.06.17.12.33.2.5.84 2 2.8 3.52 5.16 3.9 2 4.43 6 7.76 10.86 8.8.28 1.65 1.7 2.9 3.4 2.9 1.9 0 3.46-1.56 3.46-3.46s-1.55-3.46-3.46-3.46c-1.53 0-2.83 1-3.28 2.4-4.47-1.06-8.1-4.28-9.74-8.5v-8.98c1.84-5.48 7.03-9.44 13.13-9.44 5.88 0 10.9 3.67 12.92 8.84v11c3.77 0 6.83-2.77 6.83-6.2 0-3.06-2.42-5.6-5.62-6.12z"/><path id="Shape" d="M505.06 305.76c-5.03 0-9.1 4.08-9.1 9.1 0 5.03 4.07 9.1 9.1 9.1 5.03 0 9.1-4.07 9.1-9.1 0-5.02-4.07-9.1-9.1-9.1zm0 16.57c-4.12 0-7.47-3.35-7.47-7.47 0-4.1 3.34-7.46 7.46-7.46s7.46 3.35 7.46 7.46c0 4.12-3.34 7.47-7.46 7.47z"/><path id="Path" d="M504.24 314.04h-3.57v1.64h5.2v-5.78h-1.63z"/></g></g></g><g><g fill="#6B61E6"><g transform="translate(471 367) translate(19 14)"><circle cx="16.5" cy="3.929" r="3.929"/><circle cx="29.071" cy="27.5" r="3.929"/><path fill-rule="nonzero" stroke="#6B61E6" stroke-width=".5" d="M3.97 28.3L17.1 3.7l-1.04-.55-13.13 24.6z"/><path fill-rule="nonzero" stroke="#6B61E6" stroke-width=".5" d="M29.43 28.3L15.9 3.7l1.03-.56 13.53 24.6z"/><path fill-rule="nonzero" stroke="#6B61E6" stroke-width=".5" d="M29.6 28.1H4v-1.17h25.6z"/><circle cx="3.929" cy="27.5" r="3.929"/></g></g></g><g><g fill="#F1B006"><g><g fill-rule="nonzero"><path id="Rectangle" d="M405.8 390.34h13.02v1.04H405.8zM405.8 392.43h13.02v1.04H405.8zM405.8 394.5h10.94v1.05H405.8zM409.96 388.25h8.86v1.05h-8.86z"/><path id="Shape" stroke="#F1B006" stroke-width=".4" d="M404.26 410.85c.08.2.27.34.5.34h24.5c.05 0 .1-.02.17-.05 0 0 .02 0 .03 0 .06-.03.1-.07.15-.1.02 0 .02-.02.03-.03.02-.02.03-.03.05-.05 0-.03.03-.05.04-.08 0-.02 0-.03 0-.03.03-.06.04-.12.05-.18 0-.02 0-.02 0-.03v-20.33c0-1.15-.93-2.1-2.1-2.1h-2.07c-1.15 0-2.1.95-2.1 2.1v1.04h-1.55v-7.3c0-1.15-.93-2.08-2.08-2.08h-17.2c-1.16 0-2.1.93-2.1 2.08v1.05c0 .3.24.52.53.52h1.57v12h-1.1c-.52 0-1 .24-1.3.66-.28.43-.35.97-.17 1.45l4.16 11.1zm19.78-18.43c.28 0 .52-.23.52-.52v-1.56c0-.58.46-1.04 1.04-1.04h2.08c.58 0 1.05.46 1.05 1.04v17.45l-3.43-9.15c-.23-.6-.8-1-1.46-1h-1.9v-5.23h2.1zm-22.42-8.34c0-.57.47-1.04 1.05-1.04h15.4c-.2.32-.3.68-.3 1.04v.53h-16.15v-.52zm2.1 1.57h14.58c.3 0 .52-.23.52-.52v-1.05c0-.57.47-1.04 1.05-1.04.57 0 1.04.47 1.04 1.04v13.56h-17.2v-12zm-2.58 13.25c.1-.14.25-.22.42-.22h22.28c.2 0 .4.13.48.34l4.18 11.13h-23.4l-4.02-10.77c-.07-.16-.04-.34.06-.48z"/><path id="Rectangle" d="M407.88 388.25h1.04v1.05h-1.04z"/></g><path d="M421.42 392.1v5.98h2.67l4.94 10.94v-18.68l-.98-1.56h-3.13l-.84 1.56v1.48z"/></g></g></g><g><g fill="#F1B006" fill-rule="nonzero"><g><path id="Path" d="M213.84 525.05c0 .48-.4.88-.88.88s-.88-.4-.88-.88c0-.5.4-.88.88-.88.5 0 .88.4.88.88zM202.15 510.1h5.54c.47 0 .87-.4.87-.87 0-.5-.4-.88-.88-.88h-5.55c-.48 0-.88.4-.88.88s.4.88.88.88zM218.5 508.35h-5.54c-.48 0-.88.4-.88.88s.4.88.88.88h5.54c.5 0 .88-.4.88-.87 0-.5-.4-.88-.88-.88zM202.15 515.38h5.54c.47 0 .87-.4.87-.88 0-.5-.4-.88-.88-.88h-5.55c-.48 0-.88.4-.88.88 0 .5.4.88.88.88zM209.45 524.17h-7.3c-.48 0-.88.4-.88.88s.4.88.88.88h7.3c.48 0 .88-.4.88-.88 0-.5-.4-.88-.88-.88zM218.5 513.62h-5.54c-.48 0-.88.4-.88.88 0 .5.4.88.88.88h5.54c.5 0 .88-.4.88-.88 0-.5-.4-.88-.88-.88zM202.15 520.65h5.54c.47 0 .87-.4.87-.88s-.4-.88-.88-.88h-5.55c-.48 0-.88.4-.88.87 0 .5.4.88.88.88zM218.5 518.9h-5.54c-.48 0-.88.4-.88.87 0 .5.4.88.88.88h5.54c.5 0 .88-.4.88-.88s-.4-.88-.88-.88zM223.77 510.1h5.28c.48 0 .88-.4.88-.87 0-.5-.4-.88-.88-.88h-5.28c-.48 0-.88.4-.88.88s.4.88.87.88z"/><path id="Shape" d="M235.2 517.03v-18.88c0-1.45-1.18-2.63-2.64-2.63h-2.63v-.88c0-1.46-1.18-2.64-2.64-2.64-1.46 0-2.65 1.18-2.65 2.64v.88h-7.3v-.88c0-1.46-1.17-2.64-2.63-2.64-1.45 0-2.64 1.18-2.64 2.64v.88h-7.3v-.88c0-1.46-1.17-2.64-2.63-2.64-1.45 0-2.63 1.18-2.63 2.64v.88h-.88c-1.46 0-2.64 1.18-2.64 2.63v28.65c0 1.46 1.18 2.64 2.64 2.64h21.7c1.33 4.48 5.44 7.56 10.1 7.56 5.83 0 10.56-4.73 10.56-10.55 0-4-2.26-7.63-5.8-9.42zm-8.8-22.4c0-.48.4-.87.9-.87.47 0 .87.4.87.88v3.5c0 .5-.4.9-.88.9-.5 0-.9-.4-.9-.9v-3.5zm-12.56 0c0-.48.4-.87.88-.87.5 0 .88.4.88.88v3.5c0 .5-.4.9-.88.9s-.88-.4-.88-.9v-3.5zm-12.57 0c0-.48.4-.87.88-.87.5 0 .88.4.88.88v3.5c0 .5-.4.9-.88.9s-.88-.4-.88-.9v-3.5zm-2.63 2.64h.88v.88c0 1.46 1.18 2.64 2.63 2.64 1.46 0 2.64-1.2 2.64-2.65v-.88h7.28v.88c0 1.46 1.2 2.64 2.64 2.64 1.45 0 2.64-1.2 2.64-2.65v-.88h7.3v.88c0 1.46 1.18 2.64 2.63 2.64 1.44 0 2.63-1.2 2.63-2.65v-.88h2.63c.5 0 .88.4.88.88v4.66h-35.68v-4.65c0-.48.4-.88.88-.88zm-.88 29.53v-22.23h35.68v11.77c-.96-.3-1.96-.43-3-.43-5.8 0-10.53 4.74-10.53 10.55 0 .4.03.83.08 1.23h-21.34c-.5 0-.88-.4-.88-.88zm32.7 8.44c-4.72 0-8.8-3.84-8.8-8.8 0-4.83 3.95-8.78 8.8-8.78 4.86 0 8.78 3.95 8.78 8.8 0 4.84-3.94 8.78-8.8 8.78z"/></g><g><path id="Path" d="M232.86 526.72c-.43-.25-.87-.46-1.34-.63-.3-.13-.6-.26-.88-.42-.42-.2-.65-.66-.58-1.12.03-.48.28-.83.7-.9.18-.04.36-.04.54-.02.37.02.7.27.8.62.07.15.1.3.14.46.02.15.1.24.24.25.42 0 .84 0 1.26 0 .07 0 .13-.02.17-.07.05-.04.07-.1.07-.16 0-1.18-.83-2.2-2-2.38-.08-.02-.1-.06-.1-.14 0-.3 0-.6 0-.9.02-.13-.05-.26-.18-.32h-1c-.12.07-.2.2-.17.35 0 .24 0 .5 0 .73 0 .25 0 .22-.2.27-.54.1-1.02.34-1.4.72-.52.52-.67 1.17-.63 1.88.03.7.4 1.34.98 1.72.48.3 1 .56 1.55.75.3.12.6.25.86.4.32.2.53.53.54.9.04.58-.26 1.02-.8 1.13-.18.03-.38.04-.57.03-.54 0-1-.38-1.1-.9-.03-.1-.03-.18-.05-.27-.02-.16-.08-.22-.24-.23-.42 0-.83 0-1.25 0-.16 0-.23.1-.23.26 0 .12 0 .24.03.37.06.6.38 1.15.88 1.5.34.25.7.42 1.1.52.18.04.35.06.53.1 0 .3 0 .62 0 .92-.02.14.05.28.17.34h1c.1-.05.2-.18.17-.32 0-.14 0-.28 0-.4v-.6l.26-.04c1.15-.28 1.82-1.1 1.86-2.24.06-.88-.38-1.72-1.14-2.16z"/></g></g></g><g><g fill="#01B3E4" fill-rule="nonzero" stroke="#01B3E4" stroke-width=".5"><path id="Path" d="M294.47 526.28c-9.3 0-16.93-7.6-16.93-16.87 0-9.27 7.62-16.87 16.93-16.87 9.32 0 16.94 7.6 16.94 16.88 0 .47.3.77.77.77.47 0 .77-.3.77-.76 0-10.12-8.3-18.4-18.47-18.4-10.16 0-18.47 8.28-18.47 18.4 0 10.13 8.3 18.4 18.47 18.4.46 0 .77-.3.77-.75 0-.46-.3-.77-.77-.77zM294.47 522.44c-7.23 0-13.08-5.82-13.08-13.03 0-7.2 5.84-13.03 13.07-13.03 7.24 0 13.1 5.83 13.1 13.04 0 .47.3.77.76.77s.77-.3.77-.76c0-8.05-6.55-14.57-14.63-14.57-8.08 0-14.62 6.52-14.62 14.58S286.4 524 294.47 524c.46 0 .77-.3.77-.77 0-.45-.3-.76-.77-.76zM294.47 503.58c1.4 0 2.54 1.15 2.54 2.53 0 .47.32.78.78.78s.77-.3.77-.77c0-2-1.46-3.6-3.3-3.98v-.84c0-.46-.32-.77-.78-.77s-.77.32-.77.78v.84c-1.84.38-3.3 2-3.3 4 0 2.2 1.84 4.05 4.07 4.05 1.4 0 2.54 1.15 2.54 2.53s-1.14 2.53-2.53 2.53c-1.38 0-2.54-1.15-2.54-2.53 0-.46-.3-.76-.77-.76-.46 0-.77.3-.77.76 0 2 1.46 3.6 3.3 4v.84c0 .46.3.76.77.76.46 0 .77-.3.77-.76v-.85c1.85-.4 3.3-2 3.3-4 0-2.22-1.84-4.06-4.07-4.06-1.38 0-2.54-1.15-2.54-2.53 0-1.37 1.16-2.52 2.54-2.52z"/><path id="Shape" d="M307.48 521.3l2.7-2.7c.15-.14.22-.45.22-.68-.07-.23-.23-.46-.53-.54l-9.78-3.22c-.32-.08-.62 0-.78.15-.23.24-.3.55-.15.78l3.23 9.74c.08.23.3.46.54.54.08 0 .15 0 .15 0 .22 0 .38-.08.53-.23l2.7-2.7 5.23 5.23c.15.15.38.23.54.23.23 0 .38-.1.54-.24.3-.3.3-.77 0-1.07l-5.16-5.3zm-4 1.83l-2.4-7.13 7.17 2.38-4.77 4.75z"/></g></g><g><g transform="translate(96 478) translate(4 13)"><path id="Rectangle" d="M9.34 8.37H48.6v24.2H9.33z"/><path id="Shape" d="M32.4 34.42h19V7.18c0-.88-.73-1.6-1.6-1.6H8.14c-.9 0-1.6.72-1.6 1.6v27.24H32.4zM8.63 32.6V7.87c0-.18.14-.32.3-.32H49c.17 0 .3.14.3.32V32.6c0 .17-.13.3-.3.3H8.93c-.17 0-.3-.13-.3-.3z"/><g><path id="Path" d="M32.22 34.6v1.46c0 .17-.14.3-.3.3h-6.83c-.18 0-.32-.13-.32-.3V34.6H.63v.55c0 1.95 1.6 3.54 3.55 3.54h48.64c1.96 0 3.55-1.6 3.55-3.55v-.54H32.22z"/><path id="Shape" fill="#18AFAA" fill-rule="nonzero" stroke="#18AFAA" d="M56.7 33.94h-5.32V6.86c0-1.22-1-2.2-2.2-2.2H7.82c-1.22 0-2.22.98-2.22 2.2v27.08H.3c-.16 0-.3.14-.3.3v.86c0 2.3 1.87 4.16 4.18 4.16h48.64c2.3 0 4.18-1.86 4.18-4.16v-.85c0-.17-.14-.3-.3-.3zM6.23 6.86c0-.87.72-1.6 1.6-1.6h41.33c.87 0 1.6.73 1.6 1.6v27.08H6.24V6.86zm46.58 31.78H4.18c-1.96 0-3.55-1.6-3.55-3.54v-.54H56.37v.54c0 1.95-1.6 3.54-3.55 3.54z"/></g><rect width="30.836" height="11.163" x="13.082" y="2.791" fill="#fff" rx="5.581"/><g fill="#18AFAA" fill-rule="nonzero" stroke="#18AFAA" stroke-width=".2"><path id="Shape" d="M23.5 25.75c-1.06-.5-2.05-1.15-2.94-1.9.88-.5 1.8-.9 2.73-1.24.27-.08.42-.38.32-.65-.1-.27-.4-.42-.66-.33-1.1.4-2.18.9-3.2 1.47-2.28-2.3-3.6-5.37-3.74-8.6h5.08c.05 2.02.37 4 .96 5.94.06.22.27.38.5.37h.15c.14-.03.26-.12.33-.24.06-.12.08-.27.03-.4-.56-1.83-.87-3.73-.9-5.64h6.36v.72c0 .3.24.52.53.52.28 0 .52-.23.52-.52v-.74h6.38c0 .23 0 .46 0 .7 0 .13.04.26.13.36.1.1.22.16.36.17.28 0 .5-.22.52-.5 0-.24 0-.5 0-.74h3.57c.3 0 .52-.24.52-.53 0-.28-.23-.52-.52-.52H37c-.06-2.48-.52-4.94-1.4-7.27.95-.36 1.87-.8 2.75-1.28 2.4 2.42 3.75 5.68 3.75 9.08 0 .3.23.52.52.52.3 0 .52-.23.52-.52 0-3.78-1.55-7.4-4.28-10.05-.04-.05-.1-.1-.16-.13C36.93 2.12 34.74.94 32.37.36h-.17c-2.06-.48-4.2-.48-6.26 0h-.17c-2.4.57-4.6 1.76-6.38 3.44-.07.03-.13.08-.17.13-3.32 3.2-4.85 7.83-4.1 12.38.78 4.55 3.73 8.43 7.92 10.38.07.04.15.06.23.06.25 0 .45-.18.5-.4.06-.25-.06-.5-.28-.6zm-1.35-12.3c.04-2.36.5-4.7 1.32-6.94 1.64.52 3.34.8 5.05.83v6.13h-6.37zM26.23 1.3c.75-.16 1.52-.25 2.3-.28V6.3c-1.6-.05-3.18-.3-4.7-.77.64-1.5 1.45-2.9 2.4-4.23zm-3.36 3.9c-.8-.3-1.57-.64-2.32-1.04 1.2-1.04 2.6-1.86 4.1-2.4-.68 1.1-1.3 2.25-1.78 3.44zm9-3.9c.95 1.32 1.75 2.74 2.4 4.23-1.52.46-3.1.72-4.68.76V1c.75.03 1.52.12 2.26.28zm4.08 12.16h-6.38V7.33c1.7-.04 3.4-.3 5.05-.82.83 2.24 1.28 4.6 1.33 6.96zm-2.52-11.7c1.5.54 2.9 1.34 4.1 2.38-.73.4-1.5.75-2.3 1.04-.5-1.2-1.1-2.33-1.8-3.42zm-13.7 3.12c.9.5 1.8.92 2.75 1.3-.87 2.32-1.33 4.78-1.38 7.26h-5.07c.12-3.2 1.44-6.26 3.7-8.55v-.02zM42.62 16.67H25.27c-.3 0-.52.23-.52.5v10.4c0 .3.23.53.52.53h17.35c.3 0 .52-.24.52-.52v-10.4c0-.28-.23-.5-.52-.5zm-3.55 10.4H28.8c-.16-1.6-1.4-2.88-3-3.07v-3.22c1.6-.2 2.87-1.5 3-3.12h10.27c.14 1.62 1.4 2.93 3.03 3.12V24c-1.6.2-2.86 1.45-3.03 3.05zm3.03-7.3c-1.05-.17-1.85-1.02-2-2.07h2v2.08zM27.76 17.7c-.12 1.06-.92 1.9-1.97 2.08V17.7h1.96zm-1.97 7.33c1.02.17 1.82 1 1.96 2.02H25.8v-2.02zm14.3 2.02c.16-1.03.97-1.85 2-2.02v2.02h-2zM33.94 20.03c-1.3.03-2.32 1.1-2.3 2.38 0 1.3 1.08 2.34 2.37 2.33 1.3 0 2.35-1.06 2.35-2.35 0-.63-.25-1.24-.7-1.68-.46-.44-1.07-.68-1.7-.67zm0 3.66c-.72-.04-1.28-.64-1.26-1.35.02-.72.6-1.3 1.33-1.28.73 0 1.3.6 1.3 1.3 0 .37-.14.7-.4.96-.25.24-.6.37-.96.36z"/><path d="M30.1 21.86h-.46c-.3 0-.52.23-.52.52 0 .3.24.52.52.52h.45c.28 0 .5-.23.5-.52 0-.14-.04-.27-.14-.37-.1-.08-.23-.14-.37-.14zM38.2 21.86h-.46c-.3 0-.52.23-.52.52 0 .3.24.52.52.52h.45c.28 0 .5-.23.5-.52 0-.14-.04-.27-.14-.37-.1-.08-.23-.14-.37-.14z"/></g></g></g><g><g fill="#D3669D" fill-rule="nonzero" stroke="#D3669D" stroke-width=".7"><path id="Shape" d="M66.58 496H37.5c-3.03 0-5.5 2.47-5.5 5.5v17.05c0 3.04 2.47 5.5 5.5 5.5H66.6c3.04 0 5.5-2.46 5.5-5.5V501.5c0-3.03-2.46-5.5-5.5-5.5zm0 27.06H37.5c-1.18 0-2.33-.48-3.18-1.32-.84-.85-1.32-2-1.32-3.2v-13.52h38.1v13.53c0 1.2-.5 2.34-1.33 3.2-.85.83-2 1.3-3.2 1.3zm4.5-19.04H33v-2.5c0-2.5 2.02-4.52 4.5-4.52H66.6c2.5 0 4.5 2.02 4.5 4.5v2.52zM50.87 512.54h15.15c.27 0 .5-.23.5-.5 0-.28-.23-.5-.5-.5H50.87c-.27 0-.5.22-.5.5 0 .27.23.5.5.5zM66.08 515.54h-15.2c-.28 0-.5.23-.5.5 0 .28.22.5.5.5h15.2c.27 0 .5-.22.5-.5 0-.27-.23-.5-.5-.5zM43.9 510.53h-2.5c-1.4 0-2.52 1.12-2.52 2.5v2c0 1.4 1.12 2.52 2.5 2.52h2.5c1.4 0 2.52-1.12 2.52-2.5v-2c0-1.4-1.12-2.52-2.5-2.52zm1.5 4.5c0 .84-.68 1.52-1.5 1.52h-2.5c-.84 0-1.52-.68-1.52-1.5v-2c0-.84.68-1.52 1.5-1.52h2.5c.84 0 1.5.68 1.5 1.5v2z"/></g></g><g transform="translate(357 477)"><ellipse id="Oval-6" cx="14.928" cy="14.968" fill="#1179EF" rx="14.928" ry="14.968"/><path id="Path-56" fill="#fff" d="M13 10v10.6l6.6-5.3z"/></g><g transform="translate(417 477)"><ellipse cx="14.928" cy="14.968" fill="#0A5DC9" rx="14.928" ry="14.968"/><path fill="#fff" d="M13 10v10.6l6.6-5.3z"/></g><g fill="#fff" fill-rule="nonzero"><path d="M497.4 491.67v.6h1.2V477.63h-1.2v.6zM503.32 488.43l.43-.43-.86-.86-.44.43-4.9 4.9-.42.42.86.85.43-.43zM493.54 487.57l-.43-.43-.85.86.43.43 4.9 4.9.42.42.86-.86-.43-.44z"/><path d="M487.6 497.78v.6h20.78v-4.27h-1.2v3.68l.6-.6h-19.56l.6.6v-3.67h-1.2z"/></g><path fill="#1179EF" d="M549 476.76l4.24 4.24-4.24 4.24-4.24-4.24z"/><g transform="matrix(0 1 1 0 571 481)"><mask id="m"><use xlink:href="#l"/></mask><path id="Path-143" fill="#51565E" fill-rule="nonzero" d="M6.65 10.35l5 5 .35.36.35-.35 5-5-.7-.7-5 5h.7l-5-5z" mask="url(#m)"/></g><g><path d="M20 557h40v40H20z"/><g fill="#848DA0" fill-rule="nonzero"><path d="M35 572.7l5 5 .35.36.36-.35 5-5-.7-.7-5 5h.7l-5-5z"/><path d="M35 582.05l5-5 .35-.35.36.35 5 5-.7.7-5-5h.7l-5 5z"/></g></g></g></svg>