<?xml version="1.0" encoding="UTF-8"?>
<svg width="666px" height="235px" viewBox="0 0 666 235" version="1.1" xmlns="http://www.w3.org/2000/svg" xmlns:xlink="http://www.w3.org/1999/xlink">
    <!-- Generator: Sketch 56.3 (81716) - https://sketch.com -->
    <title>Sprite Image - Payment section</title>
    <desc>Created with Sketch.</desc>
    <defs>
        <polygon id="path-1" points="0.000464996022 0.0595324073 10.6860736 0.0595324073 10.6860736 12.2157407 0.000464996022 12.2157407"></polygon>
        <polygon id="path-3" points="0 27.8333333 69.9214518 27.8333333 69.9214518 0 0 0"></polygon>
        <polygon id="path-5" points="0 27.8333333 69.9214518 27.8333333 69.9214518 0 0 0"></polygon>
        <polygon id="path-7" points="0.000398568019 0.0510277777 9.15949164 0.0510277777 9.15949164 10.4706349 0.000398568019 10.4706349"></polygon>
        <polygon id="path-9" points="0 23.8571429 59.932673 23.8571429 59.932673 0 0 0"></polygon>
        <polygon id="path-11" points="0 23.8571429 59.932673 23.8571429 59.932673 0 0 0"></polygon>
    </defs>
    <g id="Sprite-Image---Payment-section" stroke="none" stroke-width="1" fill="none" fill-rule="evenodd">
        <g id="Group-98-Copy" transform="translate(186.000000, 27.000000)">
            <rect id="Rectangle-Copy-32" fill="#FFFFFF" opacity="0" x="0" y="0" width="65" height="65"></rect>
            <g id="Group-59" transform="translate(10.000000, 10.000000)" fill="#F1B006" fill-rule="nonzero">
                <g id="Group-54">
                    <path d="M17.8417969,33.046875 C17.8417969,33.5323334 17.448349,33.9257813 16.9628906,33.9257813 C16.4774322,33.9257813 16.0839844,33.5323334 16.0839844,33.046875 C16.0839844,32.5614166 16.4774322,32.1679688 16.9628906,32.1679688 C17.448349,32.1679688 17.8417969,32.5614166 17.8417969,33.046875 Z" id="Path"></path>
                    <path d="M6.15234375,18.1054688 L11.6894531,18.1054688 C12.1749115,18.1054688 12.5683594,17.7120209 12.5683594,17.2265625 C12.5683594,16.7411041 12.1749115,16.3476562 11.6894531,16.3476562 L6.15234375,16.3476562 C5.66688533,16.3476562 5.2734375,16.7411041 5.2734375,17.2265625 C5.2734375,17.7120209 5.66688533,18.1054688 6.15234375,18.1054688 Z" id="Path"></path>
                    <path d="M22.5,16.3476562 L16.9628906,16.3476562 C16.4774322,16.3476562 16.0839844,16.7411041 16.0839844,17.2265625 C16.0839844,17.7120209 16.4774322,18.1054688 16.9628906,18.1054688 L22.5,18.1054688 C22.9854584,18.1054688 23.3789062,17.7120209 23.3789062,17.2265625 C23.3789062,16.7411041 22.9854584,16.3476562 22.5,16.3476562 Z" id="Path"></path>
                    <path d="M6.15234375,23.3789062 L11.6894531,23.3789062 C12.1749115,23.3789062 12.5683594,22.9854584 12.5683594,22.5 C12.5683594,22.0145416 12.1749115,21.6210938 11.6894531,21.6210938 L6.15234375,21.6210938 C5.66688533,21.6210938 5.2734375,22.0145416 5.2734375,22.5 C5.2734375,22.9854584 5.66688533,23.3789062 6.15234375,23.3789062 Z" id="Path"></path>
                    <path d="M13.4472656,32.1679688 L6.15234375,32.1679688 C5.66688533,32.1679688 5.2734375,32.5614166 5.2734375,33.046875 C5.2734375,33.5323334 5.66688533,33.9257813 6.15234375,33.9257813 L13.4472656,33.9257813 C13.932724,33.9257813 14.3261719,33.5323334 14.3261719,33.046875 C14.3261719,32.5614166 13.932724,32.1679688 13.4472656,32.1679688 Z" id="Path"></path>
                    <path d="M22.5,21.6210938 L16.9628906,21.6210938 C16.4774322,21.6210938 16.0839844,22.0145416 16.0839844,22.5 C16.0839844,22.9854584 16.4774322,23.3789062 16.9628906,23.3789062 L22.5,23.3789062 C22.9854584,23.3789062 23.3789062,22.9854584 23.3789062,22.5 C23.3789062,22.0145416 22.9854584,21.6210938 22.5,21.6210938 Z" id="Path"></path>
                    <path d="M6.15234375,28.6523438 L11.6894531,28.6523438 C12.1749115,28.6523438 12.5683594,28.2588959 12.5683594,27.7734375 C12.5683594,27.2879791 12.1749115,26.8945312 11.6894531,26.8945312 L6.15234375,26.8945312 C5.66688533,26.8945312 5.2734375,27.2879791 5.2734375,27.7734375 C5.2734375,28.2588959 5.66688533,28.6523438 6.15234375,28.6523438 Z" id="Path"></path>
                    <path d="M22.5,26.8945312 L16.9628906,26.8945312 C16.4774322,26.8945312 16.0839844,27.2879791 16.0839844,27.7734375 C16.0839844,28.2588959 16.4774322,28.6523438 16.9628906,28.6523438 L22.5,28.6523438 C22.9854584,28.6523438 23.3789062,28.2588959 23.3789062,27.7734375 C23.3789062,27.2879791 22.9854584,26.8945312 22.5,26.8945312 Z" id="Path"></path>
                    <path d="M27.7734375,18.1054688 L33.046875,18.1054688 C33.5323334,18.1054688 33.9257813,17.7120209 33.9257813,17.2265625 C33.9257813,16.7411041 33.5323334,16.3476562 33.046875,16.3476562 L27.7734375,16.3476562 C27.2879791,16.3476562 26.8945312,16.7411041 26.8945312,17.2265625 C26.8945312,17.7120209 27.2879791,18.1054688 27.7734375,18.1054688 Z" id="Path"></path>
                    <path d="M39.1992188,25.0344086 L39.1992188,6.15234375 C39.1992188,4.69837187 38.0164719,3.515625 36.5625,3.515625 L33.9257812,3.515625 L33.9257812,2.63671875 C33.9257812,1.18000028 32.745781,0 31.2890625,0 C29.8350906,0 28.6523438,1.18274687 28.6523438,2.63671875 L28.6523438,3.515625 L21.3574219,3.515625 L21.3574219,2.63671875 C21.3574219,1.18000028 20.1774216,0 18.7207031,0 C17.2667312,0 16.0839844,1.18274687 16.0839844,2.63671875 L16.0839844,3.515625 L8.7890625,3.515625 L8.7890625,2.63671875 C8.7890625,1.18000028 7.60906222,0 6.15234375,0 C4.69837187,0 3.515625,1.18274687 3.515625,2.63671875 L3.515625,3.515625 L2.63671875,3.515625 C1.18274687,3.515625 0,4.69837187 0,6.15234375 L0,34.8046875 C0,36.2586594 1.18274687,37.4414062 2.63671875,37.4414062 L24.3388367,37.4414062 C25.6650925,41.9227981 29.7798157,45 34.453125,45 C40.2686692,45 45,40.2686692 45,34.453125 C45,30.4541016 42.7409363,26.8196869 39.1992188,25.0344086 Z M30.4101562,2.63671875 C30.4101562,2.15194702 30.8042908,1.7578125 31.2890625,1.7578125 C31.7741775,1.7578125 32.1679687,2.15126033 32.1679687,2.63671875 L32.1679687,6.15234375 C32.1679687,6.63711548 31.7738342,7.03125 31.2890625,7.03125 C30.8042908,7.03125 30.4101562,6.63711548 30.4101562,6.15234375 L30.4101562,2.63671875 Z M17.8417969,2.63671875 C17.8417969,2.15194702 18.2359314,1.7578125 18.7207031,1.7578125 C19.2058182,1.7578125 19.5996094,2.15126033 19.5996094,2.63671875 L19.5996094,6.15234375 C19.5996094,6.63711548 19.2054749,7.03125 18.7207031,7.03125 C18.2359314,7.03125 17.8417969,6.63711548 17.8417969,6.15234375 L17.8417969,2.63671875 Z M5.2734375,2.63671875 C5.2734375,2.15194702 5.66757202,1.7578125 6.15234375,1.7578125 C6.63745878,1.7578125 7.03125,2.15126033 7.03125,2.63671875 L7.03125,6.15234375 C7.03125,6.63711548 6.63711548,7.03125 6.15234375,7.03125 C5.66757202,7.03125 5.2734375,6.63711548 5.2734375,6.15234375 L5.2734375,2.63671875 Z M2.63671875,5.2734375 L3.515625,5.2734375 L3.515625,6.15234375 C3.515625,7.60631563 4.69837187,8.7890625 6.15234375,8.7890625 C7.60631563,8.7890625 8.7890625,7.60631563 8.7890625,6.15234375 L8.7890625,5.2734375 L16.0839844,5.2734375 L16.0839844,6.15234375 C16.0839844,7.60631563 17.2667312,8.7890625 18.7207031,8.7890625 C20.174675,8.7890625 21.3574219,7.60631563 21.3574219,6.15234375 L21.3574219,5.2734375 L28.6523438,5.2734375 L28.6523438,6.15234375 C28.6523438,7.60631563 29.8350906,8.7890625 31.2890625,8.7890625 C32.7430344,8.7890625 33.9257812,7.60631563 33.9257812,6.15234375 L33.9257812,5.2734375 L36.5625,5.2734375 C37.0472717,5.2734375 37.4414062,5.66757202 37.4414062,6.15234375 L37.4414062,10.8105469 L1.7578125,10.8105469 L1.7578125,6.15234375 C1.7578125,5.66757202 2.15194702,5.2734375 2.63671875,5.2734375 Z M1.7578125,34.8046875 L1.7578125,12.5683594 L37.4414062,12.5683594 L37.4414062,24.3360901 C36.4770127,24.0507889 35.4765701,23.90625 34.453125,23.90625 C28.6375808,23.90625 23.90625,28.6375808 23.90625,34.453125 C23.90625,34.8644257 23.9309692,35.2757263 23.9783477,35.6835938 L2.63671875,35.6835938 C2.15194702,35.6835938 1.7578125,35.2894592 1.7578125,34.8046875 Z M34.453125,43.2421875 C29.7420502,43.2421875 25.6640625,39.4034958 25.6640625,34.453125 C25.6640625,29.606781 29.606781,25.6640625 34.453125,25.6640625 C39.3169785,25.6640625 43.2421875,29.6102143 43.2421875,34.453125 C43.2421875,39.299469 39.299469,43.2421875 34.453125,43.2421875 Z" id="Shape"></path>
                </g>
                <g id="Path-2" transform="translate(32.000000, 29.000000)">
                    <path d="M4.85624992,5.71525714 C4.43236646,5.46687648 3.98603768,5.25895934 3.52317292,5.09425854 C3.22119175,4.97408032 2.92671971,4.83583054 2.6413549,4.68025947 C2.2236337,4.47503155 1.98733128,4.02253755 2.05761622,3.56246199 C2.09280614,3.08222307 2.34327557,2.73446385 2.76555462,2.65787402 C2.94230653,2.62493754 3.12291813,2.61796412 3.30168342,2.63717407 C3.67111974,2.66438437 3.98912332,2.90837688 4.1110516,3.25817267 C4.16706738,3.40702307 4.20865822,3.56090916 4.23525132,3.71771164 C4.26423125,3.87089129 4.3304711,3.96404108 4.47744077,3.96611108 C4.89971982,3.96611108 5.32199887,3.96611108 5.74427792,3.96611108 C5.80583194,3.97082735 5.86627864,3.9478237 5.90912329,3.90337738 C5.95196795,3.85893106 5.97273863,3.79768116 5.96576743,3.7363416 C5.97839586,2.56231026 5.13597305,1.55315794 3.9785719,1.35584695 C3.8895621,1.335147 3.87507213,1.29995708 3.87507213,1.22129725 C3.87507213,0.923217923 3.87507213,0.623068598 3.87507213,0.324989269 C3.89402854,0.188081293 3.81959112,0.0552781674 3.69291254,1.42108547e-14 L2.69931477,1.42108547e-14 C2.57617408,0.068713678 2.50792169,0.206040781 2.52750516,0.345689222 C2.52750516,0.592018668 2.52750516,0.838348114 2.52750516,1.08467756 C2.52750516,1.33100701 2.52750516,1.30202707 2.32050563,1.34549697 C1.79248238,1.4383664 1.30517977,1.68959797 0.923258769,2.06585535 C0.407829928,2.59163417 0.256720268,3.23954271 0.302260166,3.95162111 C0.328475612,4.64822035 0.693245017,5.28811244 1.27929797,5.66557726 C1.76423907,5.97500264 2.28305516,6.22781262 2.82558449,6.41905556 C3.12484746,6.53623434 3.41538223,6.67458423 3.69498253,6.83305463 C4.02025983,7.013886 4.22572649,7.35318152 4.23525132,7.72522262 C4.27872122,8.30275132 3.98478188,8.74159034 3.45072308,8.84923009 C3.25945167,8.88269966 3.06478044,8.89243322 2.87112439,8.87821003 C2.33384059,8.87639915 1.87152338,8.49790394 1.76367688,7.97155207 C1.74297692,7.88668226 1.73676694,7.79560246 1.72434697,7.70659266 C1.69743703,7.54306303 1.63740716,7.47682318 1.47594753,7.47268319 C1.06194846,7.47268319 0.647949388,7.47268319 0.23395032,7.47268319 C0.0745606781,7.47268319 -0.0020291496,7.56376299 0,7.72729262 C0.0024916461,7.85057316 0.0121682271,7.97360397 0.0290207806,8.09575179 C0.0936717566,8.70237363 0.412661406,9.25308217 0.906698806,9.61098838 C1.23656905,9.85215654 1.61189165,10.023974 2.01000632,10.1160672 C2.17767595,10.1553972 2.35155556,10.1823071 2.52750516,10.215427 C2.52750516,10.5279963 2.52750516,10.8364256 2.52750516,11.1407149 C2.50999739,11.279463 2.57781165,11.4150915 2.69931477,11.4843342 L3.68670255,11.4843342 C3.8149134,11.4307621 3.89007355,11.2966696 3.86886214,11.1593449 C3.86886214,11.0206552 3.86886214,10.8819655 3.86886214,10.7453458 L3.86886214,10.1740271 L4.12968156,10.1160672 C5.28266896,9.83661787 5.94920746,9.03138968 5.99267737,7.88254227 C6.06311319,7.00149139 5.62101573,6.15836562 4.85624992,5.71525714 L4.85624992,5.71525714 Z" id="Path"></path>
                </g>
            </g>
        </g>
        <g id="Group-96-Copy" transform="translate(262.000000, 27.000000)">
            <rect id="Rectangle-Copy-33" fill="#FFFFFF" opacity="0" x="0" y="0" width="65" height="65"></rect>
            <g id="Group-77" transform="translate(14.000000, 14.000000)" fill="#01B3E4" fill-rule="nonzero" stroke="#01B3E4" stroke-width="0.5">
                <path d="M18.4722222,35.2786458 C9.15914352,35.2786458 1.53935185,27.6860677 1.53935185,18.40625 C1.53935185,9.12643229 9.15914352,1.53385417 18.4722222,1.53385417 C27.7853009,1.53385417 35.4050926,9.12643229 35.4050926,18.40625 C35.4050926,18.8664063 35.712963,19.1731771 36.1747685,19.1731771 C36.6365741,19.1731771 36.9444444,18.8664063 36.9444444,18.40625 C36.9444444,8.2828125 28.6319444,-1.77635684e-15 18.4722222,-1.77635684e-15 C8.3125,-1.77635684e-15 -5.32907052e-15,8.2828125 -5.32907052e-15,18.40625 C-5.32907052e-15,28.5296875 8.3125,36.8125 18.4722222,36.8125 C18.9340278,36.8125 19.2418981,36.5057292 19.2418981,36.0455729 C19.2418981,35.5854167 18.9340278,35.2786458 18.4722222,35.2786458 Z" id="Path"></path>
                <path d="M18.4722222,31.4440104 C11.2372685,31.4440104 5.38773148,25.6153646 5.38773148,18.40625 C5.38773148,11.1971354 11.2372685,5.36848958 18.4722222,5.36848958 C25.7071759,5.36848958 31.556713,11.1971354 31.556713,18.40625 C31.556713,18.8664062 31.8645833,19.1731771 32.3263889,19.1731771 C32.7881944,19.1731771 33.0960648,18.8664062 33.0960648,18.40625 C33.0960648,10.3535156 26.5538194,3.83463542 18.4722222,3.83463542 C10.390625,3.83463542 3.84837963,10.3535156 3.84837963,18.40625 C3.84837963,26.4589844 10.390625,32.9778646 18.4722222,32.9778646 C18.9340278,32.9778646 19.2418981,32.6710937 19.2418981,32.2109375 C19.2418981,31.7507812 18.9340278,31.4440104 18.4722222,31.4440104 Z" id="Path"></path>
                <path d="M18.4722222,12.5776042 C19.8576389,12.5776042 21.0121528,13.7279948 21.0121528,15.1084635 C21.0121528,15.5686198 21.3200231,15.8753906 21.7818287,15.8753906 C22.2436343,15.8753906 22.5515046,15.5686198 22.5515046,15.1084635 C22.5515046,13.1144531 21.0891204,11.5039062 19.2418981,11.1204427 L19.2418981,10.2768229 C19.2418981,9.81666667 18.9340278,9.50989583 18.4722222,9.50989583 C18.0104167,9.50989583 17.7025463,9.81666667 17.7025463,10.2768229 L17.7025463,11.1204427 C15.8553241,11.5039062 14.3929398,13.1144531 14.3929398,15.1084635 C14.3929398,17.3325521 16.240162,19.1731771 18.4722222,19.1731771 C19.8576389,19.1731771 21.0121528,20.3235677 21.0121528,21.7040365 C21.0121528,23.0845052 19.8576389,24.2348958 18.4722222,24.2348958 C17.0868056,24.2348958 15.9322917,23.0845052 15.9322917,21.7040365 C15.9322917,21.2438802 15.6244213,20.9371094 15.1626157,20.9371094 C14.7008102,20.9371094 14.3929398,21.2438802 14.3929398,21.7040365 C14.3929398,23.6980469 15.8553241,25.3085938 17.7025463,25.6920573 L17.7025463,26.5356771 C17.7025463,26.9958333 18.0104167,27.3026042 18.4722222,27.3026042 C18.9340278,27.3026042 19.2418981,26.9958333 19.2418981,26.5356771 L19.2418981,25.6920573 C21.0891204,25.3085938 22.5515046,23.6980469 22.5515046,21.7040365 C22.5515046,19.4799479 20.7042824,17.6393229 18.4722222,17.6393229 C17.0868056,17.6393229 15.9322917,16.4889323 15.9322917,15.1084635 C15.9322917,13.7279948 17.0868056,12.5776042 18.4722222,12.5776042 Z" id="Path"></path>
                <path d="M31.4797454,30.2936198 L34.1736111,27.609375 C34.3275463,27.4559896 34.4045139,27.1492188 34.4045139,26.9191406 C34.3275463,26.6890625 34.1736111,26.4589844 33.8657407,26.3822917 L24.0908565,23.1611979 C23.7829861,23.0845052 23.4751157,23.1611979 23.3211806,23.3145833 C23.0902778,23.5446615 23.0133102,23.8514323 23.1672454,24.0815104 L26.3998843,33.8214844 C26.4768519,34.0515625 26.7077546,34.2816406 26.9386574,34.3583333 C27.015625,34.3583333 27.0925926,34.3583333 27.0925926,34.3583333 C27.3234954,34.3583333 27.4774306,34.2816406 27.6313657,34.1282552 L30.3252315,31.4440104 L35.5590278,36.6591146 C35.712963,36.8125 35.9438657,36.8891927 36.0978009,36.8891927 C36.3287037,36.8891927 36.4826389,36.8125 36.6365741,36.6591146 C36.9444444,36.3523438 36.9444444,35.8921875 36.6365741,35.5854167 L31.4797454,30.2936198 Z M27.4774306,32.1342448 L25.0914352,25.0018229 L32.2494213,27.3792969 L27.4774306,32.1342448 Z" id="Shape"></path>
            </g>
        </g>
        <g id="Group-99-Copy" transform="translate(96.000000, 27.000000)">
            <rect id="Rectangle" fill="#FFFFFF" opacity="0" x="0" y="0" width="65" height="65"></rect>
            <g id="Group-78" transform="translate(4.000000, 13.000000)">
                <rect id="Rectangle" x="9.3442623" y="8.37209302" width="39.2459016" height="24.1860465"></rect>
                <path d="M32.4039533,34.4186047 L51.3934426,34.4186047 L51.3934426,7.17535776 C51.3934426,6.29623643 50.6736797,5.58139535 49.7892902,5.58139535 L8.14513603,5.58139535 C7.26074651,5.58139535 6.54098361,6.29623643 6.54098361,7.17535776 L6.54098361,34.4186047 L25.5298348,34.4186047 L32.4039533,34.4186047 Z M8.62561605,32.5969333 L8.62561605,7.86799881 C8.62561605,7.69483854 8.76663343,7.5540269 8.94146945,7.5540269 L48.9935949,7.5540269 C49.1677928,7.5540269 49.3094483,7.69420426 49.3094483,7.86799881 L49.3094483,32.5969333 C49.3094483,32.7700936 49.1684309,32.9109052 48.9935949,32.9109052 L8.94146945,32.9109052 C8.76663343,32.9109052 8.62561605,32.7707279 8.62561605,32.5969333 Z" id="Shape"></path>
                <g id="Group-43" transform="translate(0.000000, 4.651163)">
                    <path d="M32.224,29.9613023 L32.224,31.410801 C32.224,31.5829251 32.0840333,31.7228941 31.9105,31.7228941 L25.0888667,31.7228941 C24.9159667,31.7228941 24.7753667,31.5835556 24.7753667,31.410801 L24.7753667,29.9613023 L5.928,29.9613023 L0.626366667,29.9613023 L0.626366667,30.5016331 C0.626366667,32.4504806 2.21856667,34.0355349 4.1762,34.0355349 L52.8244333,34.0355349 C54.7814333,34.0355349 56.3736333,32.4504806 56.3736333,30.5016331 L56.3736333,29.9613023 L51.072,29.9613023 L32.224,29.9613023 Z" id="Path"></path>
                    <path d="M56.6865,29.2881964 L51.3848667,29.2881964 L51.3848667,2.20797933 C51.3848667,0.990501292 50.3899,3.55271368e-13 49.1663,3.55271368e-13 L7.83306667,3.55271368e-13 C6.6101,3.55271368e-13 5.6145,0.990501292 5.6145,2.20797933 L5.6145,29.2881964 L0.3135,29.2881964 C0.139966667,29.2881964 -1.0658141e-14,29.4275349 -1.0658141e-14,29.5996589 L-1.0658141e-14,30.4514522 C-1.0658141e-14,32.7432868 1.8734,34.6089096 4.1762,34.6089096 L52.8244333,34.6089096 C55.1266,34.6089096 57,32.7439173 57,30.4514522 L57,29.5996589 C57,29.4275349 56.8600333,29.2881964 56.6865,29.2881964 Z M6.2415,2.20797933 C6.2415,1.33411886 6.9559,0.623555556 7.8337,0.623555556 L49.1669333,0.623555556 C50.0447333,0.623555556 50.7591333,1.33411886 50.7591333,2.20797933 L50.7591333,29.2881964 L31.9111333,29.2881964 L25.0888667,29.2881964 L6.2415,29.2881964 L6.2415,2.20797933 Z M52.8244333,33.985354 L4.1762,33.985354 C2.21856667,33.985354 0.626366667,32.4002997 0.626366667,30.4514522 L0.626366667,29.9111214 L5.928,29.9111214 L51.0732667,29.9111214 L56.3749,29.9111214 L56.3749,30.4514522 C56.3736333,32.4002997 54.7814333,33.985354 52.8244333,33.985354 Z" id="Shape" stroke="#18AFAA" fill="#18AFAA" fill-rule="nonzero"></path>
                </g>
                <rect id="Rectangle" fill="#FFFFFF" x="13.0819672" y="2.79069767" width="30.8360656" height="11.1627907" rx="5.58139535"></rect>
                <g id="Group-63" transform="translate(14.950820, 0.000000)" fill="#18AFAA" fill-rule="nonzero" stroke="#18AFAA" stroke-width="0.2">
                    <path d="M8.55198555,25.748188 C7.48828021,25.2463175 6.49792799,24.6030304 5.60805144,23.835944 C6.48472887,23.3537594 7.39948123,22.9436208 8.3431959,22.6096136 C8.61706032,22.5177785 8.76428864,22.2223169 8.67203957,21.9496815 C8.57979051,21.6770463 8.28299688,21.5304787 8.00913245,21.6223137 C6.8992374,22.0150614 5.82669176,22.5054529 4.80421128,23.0876746 C2.5332307,20.7859423 1.20142147,17.7268994 1.06687649,14.5033617 L6.15090454,14.5033617 C6.19762806,16.5157799 6.52077009,18.5123669 7.11133694,20.4375538 C7.17317803,20.661393 7.37926227,20.8152624 7.61243211,20.8116885 L7.75858487,20.8116885 C7.89388129,20.7732481 8.00785961,20.6820612 8.07468203,20.5587989 C8.14150445,20.4355366 8.15551127,20.2906389 8.11352728,20.1569528 C7.55295915,18.3293197 7.24391899,16.4344556 7.19485281,14.524147 L13.5733767,14.524147 L13.5733767,15.2412385 C13.5733767,15.5282231 13.8070725,15.76087 14.0953508,15.76087 C14.3836292,15.76087 14.617325,15.5282231 14.617325,15.2412385 L14.617325,14.5033617 L20.9958489,14.5033617 C20.9958489,14.7319996 20.9958489,14.9606375 20.9958489,15.1892753 C20.987313,15.3261111 21.0345609,15.4605929 21.1269059,15.5623034 C21.219251,15.6640138 21.3488913,15.7243599 21.4865046,15.7296921 C21.764704,15.7247378 21.9921559,15.507364 22.0084787,15.2308458 C22.0084787,14.9918153 22.0084787,14.7423922 22.0084787,14.4929691 L25.5787817,14.4929691 C25.8670601,14.4929691 26.1007559,14.2603221 26.1007559,13.9733375 C26.1007559,13.6863529 25.8670601,13.453706 25.5787817,13.453706 L22.0397971,13.453706 C21.9939204,10.9689455 21.52807,8.50961397 20.6617854,6.17886457 C21.6028771,5.81806344 22.5169123,5.39088113 23.3969299,4.90057101 C25.799449,7.31852064 27.1462795,10.5827182 27.1447041,13.9837302 C27.1447041,14.2707148 27.3783999,14.5033617 27.6666783,14.5033617 C27.9549567,14.5033617 28.1886524,14.2707148 28.1886524,13.9837302 C28.1878761,10.1950354 26.6434046,6.56869105 23.9084645,3.93405636 C23.8696023,3.87566368 23.8154563,3.82894777 23.7518723,3.79895216 C21.9773763,2.1214136 19.7927274,0.935460645 17.4151063,0.358991422 L17.2480746,0.358991422 C15.1878592,-0.119663807 13.0446004,-0.119663807 10.984385,0.358991422 L10.8173533,0.358991422 C8.42502583,0.929169123 6.22532509,2.11547559 4.43882939,3.79895216 C4.37524539,3.82894777 4.3210994,3.87566368 4.28223715,3.93405636 C0.95876002,7.13849942 -0.57013147,11.7645365 0.192866663,16.3074521 C0.955864796,20.8503677 3.91325637,24.7296663 8.1030878,26.6835248 C8.17345062,26.7213742 8.25287243,26.7393436 8.33275641,26.7354879 C8.57453987,26.7317236 8.78207102,26.5631317 8.83426443,26.3280783 C8.88645786,26.0930249 8.76964684,25.8530581 8.55198555,25.748188 Z M7.19485281,13.4640986 C7.23959737,11.0886752 7.68786569,8.7379224 8.5206671,6.51142875 C10.1588166,7.01573614 11.8591686,7.29202734 13.5733767,7.33244657 L13.5733767,13.4640986 L7.19485281,13.4640986 Z M11.2766905,1.30472081 C12.0322755,1.14295759 12.8009224,1.04904702 13.5733767,1.02411978 L13.5733767,6.29318351 C11.9804123,6.25065932 10.4003863,5.99549432 8.87560951,5.53452147 C9.52099545,4.04280571 10.3260046,2.62468264 11.2766905,1.30472081 Z M7.91517711,5.20195729 C7.11906971,4.91021626 6.34462601,4.56293336 5.59761196,4.16269423 C6.80780621,3.11622507 8.20243397,2.30223225 9.71076812,1.76199656 C9.01487737,2.8556251 8.41416053,4.00646753 7.91517711,5.20195729 Z M16.9140112,1.30472081 C17.864697,2.62468264 18.6697062,4.04280571 19.3150922,5.53452147 C17.7970335,5.99366429 16.2241523,6.24880943 14.6382039,6.29318351 L14.6382039,1.02411978 C15.4036641,1.05028193 16.1652686,1.14418576 16.9140112,1.30472081 Z M20.9958489,13.4640986 L14.617325,13.4640986 L14.617325,7.33244657 C16.3315331,7.29202734 18.031885,7.01573614 19.6700346,6.51142875 C20.5028359,8.7379224 20.9511043,11.0886752 20.9958489,13.4640986 Z M18.4799335,1.76199656 C19.986698,2.29596245 21.3812201,3.10284652 22.5930897,4.14190897 C21.8460756,4.5421481 21.071632,4.889431 20.2755246,5.18117203 C19.7754689,3.99282125 19.1747729,2.84897219 18.4799335,1.76199656 Z M4.7937718,4.87978574 C5.6734922,5.37364969 6.58753425,5.80430826 7.52891625,6.16847194 C6.66263164,8.49922134 6.19678127,10.9585528 6.15090454,13.4433134 L1.07731597,13.4433134 C1.19798785,10.2298856 2.52400586,7.17815796 4.7937718,4.89017837 L4.7937718,4.87978574 Z" id="Shape"></path>
                    <path d="M27.6666783,16.6650289 L10.3162581,16.6650289 C10.0279797,16.6650289 9.79428398,16.8976758 9.79428398,17.1846604 L9.79428398,27.577291 C9.79428398,27.8642756 10.0279797,28.0969226 10.3162581,28.0969226 L27.6666783,28.0969226 C27.9549567,28.0969226 28.1886524,27.8642756 28.1886524,27.577291 L28.1886524,17.1846604 C28.1886524,16.8976758 27.9549567,16.6650289 27.6666783,16.6650289 Z M24.1172542,27.0576595 L13.8552427,27.0576595 C13.6909434,25.4621857 12.4378452,24.1931285 10.8382322,24.0022261 L10.8382322,20.7805106 C12.4589768,20.5842605 13.7187614,19.2823946 13.8552427,17.6627214 L24.1172542,17.6627214 C24.2585215,19.2840662 25.5217729,20.5850131 27.1447041,20.7805106 L27.1447041,24.0022261 C25.5463003,24.1913746 24.2907955,25.4541743 24.1172542,27.0472669 L24.1172542,27.0576595 Z M27.1447041,19.7828181 C26.0983127,19.5959277 25.2950628,18.7541961 25.1612024,17.7042919 L27.1447041,17.7042919 L27.1447041,19.7828181 Z M12.8112945,17.7042919 C12.6883831,18.7555859 11.8856324,19.6012452 10.8382322,19.7828181 L10.8382322,17.7042919 L12.8112945,17.7042919 Z M10.8382322,25.0310965 C11.8674417,25.2024446 12.6661003,26.0185525 12.8112945,27.0472669 L10.8382322,27.0472669 L10.8382322,25.0310965 Z M25.1612024,27.0472669 C25.3139049,26.0184537 26.1146581,25.204512 27.1447041,25.0310965 L27.1447041,27.0472669 L25.1612024,27.0472669 Z" id="Shape"></path>
                    <path d="M18.9914682,20.0322412 C17.6956325,20.0607885 16.6655839,21.1246559 16.6845964,22.414853 C16.7036089,23.70505 17.7645619,24.7383802 19.0606811,24.7290743 C20.3568003,24.7197683 21.4026714,23.6713115 21.4029888,22.3809757 C21.4031441,21.7489439 21.1474209,21.1435223 20.6936076,20.7015244 C20.2397944,20.2595266 19.6261939,20.0182582 18.9914682,20.0322412 Z M18.9914682,23.6904472 C18.2724954,23.662022 17.7098931,23.0637679 17.7287426,22.3477034 C17.7475921,21.6316389 18.3408972,21.0635402 19.0603787,21.0726414 C19.7798602,21.0817426 20.3584737,21.6646656 20.3590408,22.3809757 C20.3593225,22.7374627 20.2135966,23.0786556 19.9555084,23.325779 C19.6974202,23.5729026 19.3492803,23.7045936 18.9914682,23.6904472 Z" id="Shape"></path>
                    <path d="M15.1392991,21.8613442 L14.6904013,21.8613442 C14.402123,21.8613442 14.1684272,22.0939911 14.1684272,22.3809757 C14.1739811,22.6656387 14.404455,22.8950783 14.6904013,22.9006072 L15.1392991,22.9006072 C15.4275775,22.9006072 15.6612732,22.6679603 15.6612732,22.3809757 C15.6612732,22.2431609 15.6062797,22.1109906 15.5083906,22.0135407 C15.4105014,21.9160909 15.2777352,21.8613442 15.1392991,21.8613442 Z" id="Path"></path>
                    <path d="M23.2403376,21.8613442 L22.7914399,21.8613442 C22.5031615,21.8613442 22.2694657,22.0939911 22.2694657,22.3809757 C22.2750197,22.6656387 22.5054936,22.8950783 22.7914399,22.9006072 L23.2403376,22.9006072 C23.528616,22.9006072 23.7623118,22.6679603 23.7623118,22.3809757 C23.7623118,22.2431609 23.7073182,22.1109906 23.6094291,22.0135407 C23.5115399,21.9160909 23.3787737,21.8613442 23.2403376,21.8613442 Z" id="Path"></path>
                </g>
            </g>
        </g>
        <g id="Group-100-Copy" transform="translate(20.000000, 27.000000)">
            <rect id="Rectangle-Copy-31" fill="#FFFFFF" opacity="0" x="0" y="0" width="65" height="65"></rect>
            <g id="Group-37" transform="translate(12.000000, 18.000000)" fill="#D3669D" fill-rule="nonzero" stroke="#D3669D" stroke-width="0.7">
                <path d="M34.5766667,2.59348099e-13 L5.51222222,2.59348099e-13 C2.46790595,2.59348099e-13 -6.4659389e-13,2.46790595 -6.4659389e-13,5.51222222 L-6.4659389e-13,22.55 C-6.4659389e-13,25.5943163 2.46790595,28.0622222 5.51222222,28.0622222 L34.5766667,28.0622222 C37.6209829,28.0622222 40.0888889,25.5943163 40.0888889,22.55 L40.0888889,5.51222222 C40.0888889,2.46790595 37.6209829,2.59348099e-13 34.5766667,2.59348099e-13 Z M34.5766667,27.06 L5.51222222,27.06 C4.31609585,27.06 3.16895971,26.5848406 2.32317064,25.7390516 C1.47738157,24.8932625 1.00222222,23.7461264 1.00222222,22.55 L1.00222222,9.02 L39.0866667,9.02 L39.0866667,22.55 C39.0866667,23.7461264 38.6115073,24.8932625 37.7657182,25.7390516 C36.9199292,26.5848406 35.772793,27.06 34.5766667,27.06 Z M39.0866667,8.01777778 L1.00222222,8.01777778 L1.00222222,5.51222222 C1.00222222,3.021418 3.021418,1.00222222 5.51222222,1.00222222 L34.5766667,1.00222222 C37.0674709,1.00222222 39.0866667,3.021418 39.0866667,5.51222222 L39.0866667,8.01777778 Z" id="Shape"></path>
                <path d="M18.8718444,16.5366667 L34.0154222,16.5366667 C34.2921782,16.5366667 34.5165333,16.3123116 34.5165333,16.0355556 C34.5165333,15.7587995 34.2921782,15.5344444 34.0154222,15.5344444 L18.8718444,15.5344444 C18.5950884,15.5344444 18.3707333,15.7587995 18.3707333,16.0355556 C18.3707333,16.3123116 18.5950884,16.5366667 18.8718444,16.5366667 Z" id="Shape"></path>
                <path d="M34.0755556,19.5433333 L18.8718444,19.5433333 C18.5950884,19.5433333 18.3707333,19.7676884 18.3707333,20.0444444 C18.3707333,20.3212005 18.5950884,20.5455556 18.8718444,20.5455556 L34.0755556,20.5455556 C34.3523116,20.5455556 34.5766667,20.3212005 34.5766667,20.0444444 C34.5766667,19.7676884 34.3523116,19.5433333 34.0755556,19.5433333 Z" id="Shape"></path>
                <path d="M11.8913667,14.5322222 L9.38581111,14.5322222 C8.00203099,14.5322222 6.88025556,15.6539977 6.88025556,17.0377778 L6.88025556,19.0422222 C6.88025556,20.4260023 8.00203099,21.5477778 9.38581111,21.5477778 L11.8913667,21.5477778 C13.2751468,21.5477778 14.3969222,20.4260023 14.3969222,19.0422222 L14.3969222,17.0377778 C14.3969222,15.6539977 13.2751468,14.5322222 11.8913667,14.5322222 L11.8913667,14.5322222 Z M13.3947,19.0422222 C13.3947,19.8724903 12.7216347,20.5455556 11.8913667,20.5455556 L9.38581111,20.5455556 C8.55554304,20.5455556 7.88247778,19.8724903 7.88247778,19.0422222 L7.88247778,17.0377778 C7.88247778,16.2075097 8.55554304,15.5344444 9.38581111,15.5344444 L11.8913667,15.5344444 C12.7216347,15.5344444 13.3947,16.2075097 13.3947,17.0377778 L13.3947,19.0422222 Z" id="Shape"></path>
            </g>
        </g>
        <g id="Group-79" transform="translate(352.000000, 27.000000)">
            <rect id="Rectangle" fill="#FFFFFF" opacity="0" x="0" y="0" width="65" height="65"></rect>
            <g id="Shape-4" transform="translate(15.000000, 15.000000)" fill="#FF8000" fill-rule="nonzero">
                <path d="M33.2370718,7.85620333 C32.4884501,6.96793117 31.4829144,6.22943676 30.2441838,5.65617742 C29.9667487,4.94699883 29.5843093,4.30098275 29.0960662,3.72159377 C27.1441595,1.40537025 23.4394278,0.129861635 18.6635994,0.129861635 C17.2337824,0.129861635 11.5808752,0.0701637793 8.4003653,0.000605099988 C7.11019871,-0.026578745 5.97327433,0.86489145 5.69157509,2.12201101 L0.0666512054,27.4261731 C-0.114840919,28.2350258 0.0783776382,29.0702628 0.596736235,29.7176114 C1.11482834,30.3646935 1.88770237,30.7359395 2.7165431,30.7359395 L4.39128116,30.7359395 L4.20792346,31.5607827 C4.02643133,32.3696353 4.21964982,33.2048723 4.73800842,33.8522209 C5.25610052,34.499303 6.02897462,34.870549 6.85808184,34.870549 L13.6668355,34.870549 C14.9575351,34.870549 16.077403,33.951895 16.3300528,32.6865137 L17.5365358,26.6453039 L23.9103479,26.5720141 L23.96285,26.5661509 C24.3863318,26.5173799 26.6196712,26.1922398 29.0107835,24.573202 C30.3745064,23.6500173 31.5324849,22.4747157 32.452738,21.0798114 C33.5747379,19.379755 34.3441473,17.3481624 34.7391125,15.0420662 C35.2497424,12.0625035 34.7444427,9.64474038 33.2370718,7.85620333 L33.2370718,7.85620333 Z M2.19578594,28.4373056 C2.12089713,28.3437612 2.00443296,28.1462785 2.0657299,27.872308 L7.69065372,2.56894546 C7.76021243,2.26059532 8.0400461,2.04045951 8.3558584,2.04849631 C11.5480947,2.11827993 17.2265867,2.17824428 18.6635994,2.17824428 C22.7646288,2.17824428 25.9963083,3.22189072 27.5295304,5.04160929 C28.6296766,6.34723339 28.9828002,8.20452961 28.5790401,10.5612624 C27.9495475,14.2332136 26.3153187,16.9857111 23.7208606,18.7422672 C21.7966707,20.0452262 19.9545654,20.3463806 19.6336895,20.3903544 L13.3014527,20.4631112 C12.3358932,20.4631112 11.6021959,21.0185144 11.4329631,21.8761381 L10.1801077,28.1508092 C10.1180112,28.4618244 9.84270814,28.6875568 9.52556331,28.6875568 L2.7165431,28.6875568 C2.43777546,28.6875568 2.27040826,28.5305835 2.19578594,28.4373056 Z M32.7200458,14.6958719 C32.0908197,18.3678231 30.4565909,21.1203206 27.8621328,22.8768767 C25.937943,24.1798357 24.0958377,24.4809901 23.7749617,24.524964 L17.4427249,24.5977207 C16.4771653,24.5977207 15.743468,25.153124 15.5742353,26.0107477 L14.3213798,32.2854187 C14.2592834,32.5964338 13.9839804,32.8221664 13.6668355,32.8221664 L6.85808184,32.8221664 C6.57904772,32.8221664 6.411947,32.6654595 6.33705813,32.5719151 C6.26216931,32.4783707 6.14570521,32.280888 6.20700208,32.0069175 L6.48976742,30.7359395 L9.5258298,30.7359395 C10.8162629,30.7359395 11.9363972,29.8172855 12.1890471,28.5519041 L13.3952636,22.5104278 L19.7690757,22.4374046 L19.8215779,22.4315414 C20.2450595,22.3827703 22.4783989,22.0576302 24.8695113,20.4385924 C26.2332341,19.5151412 27.3912126,18.3398397 28.3117323,16.9452019 C29.4334656,15.2448789 30.202875,13.2135528 30.5978403,10.9071902 C30.7534811,9.99892994 30.8142451,9.14317182 30.7814645,8.34124834 C31.1209961,8.5981624 31.4184193,8.87666354 31.6708027,9.17595236 C32.7709489,10.4818429 33.1240723,12.3391392 32.7200458,14.6958719 L32.7200458,14.6958719 Z" id="Shape"></path>
            </g>
        </g>
        <g id="Group-98-Copy-2" transform="translate(186.000000, 137.000000)">
            <rect id="Rectangle-Copy-32" fill="#FFFFFF" opacity="0" x="0" y="0" width="50" height="50"></rect>
            <g id="Group-59" transform="translate(7.692308, 7.692308)" fill="#F1B006" fill-rule="nonzero">
                <g id="Group-54">
                    <path d="M13.7244591,25.4206731 C13.7244591,25.7941026 13.421807,26.0967548 13.0483774,26.0967548 C12.6749479,26.0967548 12.3722957,25.7941026 12.3722957,25.4206731 C12.3722957,25.0472435 12.6749479,24.7445913 13.0483774,24.7445913 C13.421807,24.7445913 13.7244591,25.0472435 13.7244591,25.4206731 Z" id="Path"></path>
                    <path d="M4.73257212,13.9272837 L8.99188702,13.9272837 C9.36531657,13.9272837 9.66796875,13.6246315 9.66796875,13.2512019 C9.66796875,12.8777724 9.36531657,12.5751202 8.99188702,12.5751202 L4.73257212,12.5751202 C4.35914256,12.5751202 4.05649038,12.8777724 4.05649038,13.2512019 C4.05649038,13.6246315 4.35914256,13.9272837 4.73257212,13.9272837 Z" id="Path"></path>
                    <path d="M17.3076923,12.5751202 L13.0483774,12.5751202 C12.6749479,12.5751202 12.3722957,12.8777724 12.3722957,13.2512019 C12.3722957,13.6246315 12.6749479,13.9272837 13.0483774,13.9272837 L17.3076923,13.9272837 C17.6811219,13.9272837 17.983774,13.6246315 17.983774,13.2512019 C17.983774,12.8777724 17.6811219,12.5751202 17.3076923,12.5751202 Z" id="Path"></path>
                    <path d="M4.73257212,17.983774 L8.99188702,17.983774 C9.36531657,17.983774 9.66796875,17.6811219 9.66796875,17.3076923 C9.66796875,16.9342628 9.36531657,16.6316106 8.99188702,16.6316106 L4.73257212,16.6316106 C4.35914256,16.6316106 4.05649038,16.9342628 4.05649038,17.3076923 C4.05649038,17.6811219 4.35914256,17.983774 4.73257212,17.983774 Z" id="Path"></path>
                    <path d="M10.3440505,24.7445913 L4.73257212,24.7445913 C4.35914256,24.7445913 4.05649038,25.0472435 4.05649038,25.4206731 C4.05649038,25.7941026 4.35914256,26.0967548 4.73257212,26.0967548 L10.3440505,26.0967548 C10.71748,26.0967548 11.0201322,25.7941026 11.0201322,25.4206731 C11.0201322,25.0472435 10.71748,24.7445913 10.3440505,24.7445913 Z" id="Path"></path>
                    <path d="M17.3076923,16.6316106 L13.0483774,16.6316106 C12.6749479,16.6316106 12.3722957,16.9342628 12.3722957,17.3076923 C12.3722957,17.6811219 12.6749479,17.983774 13.0483774,17.983774 L17.3076923,17.983774 C17.6811219,17.983774 17.983774,17.6811219 17.983774,17.3076923 C17.983774,16.9342628 17.6811219,16.6316106 17.3076923,16.6316106 Z" id="Path"></path>
                    <path d="M4.73257212,22.0402644 L8.99188702,22.0402644 C9.36531657,22.0402644 9.66796875,21.7376122 9.66796875,21.3641827 C9.66796875,20.9907531 9.36531657,20.688101 8.99188702,20.688101 L4.73257212,20.688101 C4.35914256,20.688101 4.05649038,20.9907531 4.05649038,21.3641827 C4.05649038,21.7376122 4.35914256,22.0402644 4.73257212,22.0402644 Z" id="Path"></path>
                    <path d="M17.3076923,20.688101 L13.0483774,20.688101 C12.6749479,20.688101 12.3722957,20.9907531 12.3722957,21.3641827 C12.3722957,21.7376122 12.6749479,22.0402644 13.0483774,22.0402644 L17.3076923,22.0402644 C17.6811219,22.0402644 17.983774,21.7376122 17.983774,21.3641827 C17.983774,20.9907531 17.6811219,20.688101 17.3076923,20.688101 Z" id="Path"></path>
                    <path d="M21.3641827,13.9272837 L25.4206731,13.9272837 C25.7941026,13.9272837 26.0967548,13.6246315 26.0967548,13.2512019 C26.0967548,12.8777724 25.7941026,12.5751202 25.4206731,12.5751202 L21.3641827,12.5751202 C20.9907531,12.5751202 20.688101,12.8777724 20.688101,13.2512019 C20.688101,13.6246315 20.9907531,13.9272837 21.3641827,13.9272837 Z" id="Path"></path>
                    <path d="M30.1532452,19.2572374 L30.1532452,4.73257212 C30.1532452,3.6141322 29.2434399,2.70432692 28.125,2.70432692 L26.0967548,2.70432692 L26.0967548,2.02824519 C26.0967548,0.907692526 25.1890623,0 24.0685096,0 C22.9500697,0 22.0402644,0.909805281 22.0402644,2.02824519 L22.0402644,2.70432692 L16.4287861,2.70432692 L16.4287861,2.02824519 C16.4287861,0.907692526 15.5210935,0 14.4005409,0 C13.282101,0 12.3722957,0.909805281 12.3722957,2.02824519 L12.3722957,2.70432692 L6.76081731,2.70432692 L6.76081731,2.02824519 C6.76081731,0.907692526 5.85312478,0 4.73257212,0 C3.6141322,0 2.70432692,0.909805281 2.70432692,2.02824519 L2.70432692,2.70432692 L2.02824519,2.70432692 C0.909805281,2.70432692 0,3.6141322 0,4.73257212 L0,26.7728365 C0,27.8912764 0.909805281,28.8010817 2.02824519,28.8010817 L18.7221821,28.8010817 C19.7423788,32.2483063 22.9075505,34.6153846 26.5024038,34.6153846 C30.9758993,34.6153846 34.6153846,30.9758993 34.6153846,26.5024038 C34.6153846,23.426232 32.8776433,20.6305284 30.1532452,19.2572374 Z M23.3924279,2.02824519 C23.3924279,1.65534386 23.6956083,1.35216346 24.0685096,1.35216346 C24.441675,1.35216346 24.7445913,1.65481564 24.7445913,2.02824519 L24.7445913,4.73257212 C24.7445913,5.10547345 24.4414109,5.40865385 24.0685096,5.40865385 C23.6956083,5.40865385 23.3924279,5.10547345 23.3924279,4.73257212 L23.3924279,2.02824519 Z M13.7244591,2.02824519 C13.7244591,1.65534386 14.0276395,1.35216346 14.4005409,1.35216346 C14.7737063,1.35216346 15.0766226,1.65481564 15.0766226,2.02824519 L15.0766226,4.73257212 C15.0766226,5.10547345 14.7734422,5.40865385 14.4005409,5.40865385 C14.0276395,5.40865385 13.7244591,5.10547345 13.7244591,4.73257212 L13.7244591,2.02824519 Z M4.05649038,2.02824519 C4.05649038,1.65534386 4.35967079,1.35216346 4.73257212,1.35216346 C5.10573752,1.35216346 5.40865385,1.65481564 5.40865385,2.02824519 L5.40865385,4.73257212 C5.40865385,5.10547345 5.10547345,5.40865385 4.73257212,5.40865385 C4.35967079,5.40865385 4.05649038,5.10547345 4.05649038,4.73257212 L4.05649038,2.02824519 Z M2.02824519,4.05649038 L2.70432692,4.05649038 L2.70432692,4.73257212 C2.70432692,5.85101203 3.6141322,6.76081731 4.73257212,6.76081731 C5.85101203,6.76081731 6.76081731,5.85101203 6.76081731,4.73257212 L6.76081731,4.05649038 L12.3722957,4.05649038 L12.3722957,4.73257212 C12.3722957,5.85101203 13.282101,6.76081731 14.4005409,6.76081731 C15.5189808,6.76081731 16.4287861,5.85101203 16.4287861,4.73257212 L16.4287861,4.05649038 L22.0402644,4.05649038 L22.0402644,4.73257212 C22.0402644,5.85101203 22.9500697,6.76081731 24.0685096,6.76081731 C25.1869495,6.76081731 26.0967548,5.85101203 26.0967548,4.73257212 L26.0967548,4.05649038 L28.125,4.05649038 C28.4979013,4.05649038 28.8010817,4.35967079 28.8010817,4.73257212 L28.8010817,8.31580529 L1.35216346,8.31580529 L1.35216346,4.73257212 C1.35216346,4.35967079 1.65534386,4.05649038 2.02824519,4.05649038 Z M1.35216346,26.7728365 L1.35216346,9.66796875 L28.8010817,9.66796875 L28.8010817,18.7200693 C28.0592405,18.5006068 27.2896693,18.3894231 26.5024038,18.3894231 C22.0289083,18.3894231 18.3894231,22.0289083 18.3894231,26.5024038 C18.3894231,26.818789 18.4084379,27.1351741 18.4448829,27.4489183 L2.02824519,27.4489183 C1.65534386,27.4489183 1.35216346,27.1457379 1.35216346,26.7728365 Z M26.5024038,33.2632212 C22.8785002,33.2632212 19.7415865,30.3103814 19.7415865,26.5024038 C19.7415865,22.7744469 22.7744469,19.7415865 26.5024038,19.7415865 C30.2438296,19.7415865 33.2632212,22.7770879 33.2632212,26.5024038 C33.2632212,30.2303608 30.2303608,33.2632212 26.5024038,33.2632212 Z" id="Shape"></path>
                </g>
                <g id="Path-2" transform="translate(24.615385, 22.307692)">
                    <path d="M3.73557686,4.39635165 C3.40951266,4.2052896 3.06618283,4.04535334 2.71013302,3.91866042 C2.47783981,3.82621563 2.25132285,3.71986965 2.03181146,3.60019959 C1.71048746,3.44233196 1.52871637,3.09425966 1.58278171,2.74035537 C1.60985088,2.37094082 1.80251967,2.10343373 2.12734971,2.04451848 C2.26331272,2.01918272 2.40224472,2.01381855 2.53975648,2.02859544 C2.82393826,2.04952644 3.0685564,2.23721299 3.16234738,2.50628667 C3.20543645,2.62078698 3.2374294,2.73916089 3.25788563,2.85977818 C3.28017789,2.97760869 3.33113162,3.04926237 3.44418521,3.05085468 C3.76901525,3.05085468 4.09384529,3.05085468 4.41867533,3.05085468 C4.46602457,3.05448258 4.51252203,3.03678747 4.54547946,3.00259799 C4.57843688,2.96840851 4.59441433,2.9212932 4.58905187,2.87410892 C4.59876604,1.97100789 3.9507485,1.19473687 3.06043992,1.04295919 C2.99197084,1.02703615 2.98082471,0.999966981 2.98082471,0.939459425 C2.98082471,0.710167633 2.98082471,0.479283537 2.98082471,0.249991745 C2.99540657,0.144677918 2.93814702,0.0425216672 2.84070195,1.42108547e-14 L2.07639598,1.42108547e-14 C1.98167237,0.0528566754 1.92917053,0.158492908 1.94423474,0.265914786 C1.94423474,0.455398976 1.94423474,0.644883165 1.94423474,0.834367354 C1.94423474,1.02385154 1.94423474,1.00155929 1.78500433,1.03499767 C1.3788326,1.10643569 1.00398444,1.29969074 0.710199053,1.5891195 C0.31371533,1.99356475 0.197477129,2.49195593 0.23250782,3.03970855 C0.252673548,3.57555411 0.533265398,4.0677788 0.98407536,4.35813635 C1.35710698,4.59615587 1.75619628,4.79062509 2.17352653,4.93773505 C2.40372882,5.02787257 2.6272171,5.13429557 2.84229426,5.25619587 C3.09250756,5.39529692 3.25055884,5.65629347 3.25788563,5.94247894 C3.29132402,6.38673179 3.06521683,6.72430026 2.65440237,6.80710007 C2.50727051,6.83284589 2.35752341,6.84033325 2.20855722,6.82939233 C1.79526199,6.82799935 1.43963337,6.53684918 1.35667452,6.13196313 C1.34075148,6.06667866 1.33597457,5.99661728 1.32642074,5.9281482 C1.30572079,5.80235618 1.25954397,5.75140245 1.13534425,5.74821784 C0.816883428,5.74821784 0.498422606,5.74821784 0.179961784,5.74821784 C0.0573543678,5.74821784 -0.00156088431,5.81827922 0,5.94407124 C0.00191665085,6.03890243 0.00936017472,6.13354152 0.0223236773,6.22750138 C0.0720551974,6.69413356 0.317431851,7.11775552 0.69746062,7.39306798 C0.951206961,7.57858195 1.23991665,7.71074924 1.54615871,7.78159019 C1.67513534,7.81184397 1.80888889,7.83254392 1.94423474,7.85802078 C1.94423474,8.09845871 1.94423474,8.33571202 1.94423474,8.56978072 C1.93076722,8.67651001 1.98293204,8.78083965 2.07639598,8.8341032 L2.83592504,8.8341032 C2.93454877,8.79289393 2.99236427,8.68974582 2.9760478,8.58411146 C2.9760478,8.47742708 2.9760478,8.37074271 2.9760478,8.26565064 L2.9760478,7.8261747 L3.17667812,7.78159019 C4.06359151,7.56662913 4.57631343,6.94722283 4.60975182,6.06349405 C4.66393323,5.38576261 4.32385825,4.73720432 3.73557686,4.39635165 L3.73557686,4.39635165 Z" id="Path"></path>
                </g>
            </g>
        </g>
        <g id="Group-96-Copy-2" transform="translate(262.000000, 137.000000)">
            <rect id="Rectangle-Copy-33" fill="#FFFFFF" opacity="0" x="0" y="0" width="50" height="50"></rect>
            <g id="Group-77" transform="translate(10.769231, 10.769231)" fill="#01B3E4" fill-rule="nonzero" stroke="#01B3E4" stroke-width="0.5">
                <path d="M14.2094017,27.1374199 C7.04549501,27.1374199 1.18411681,21.2969752 1.18411681,14.1586538 C1.18411681,7.02033253 7.04549501,1.17988782 14.2094017,1.17988782 C21.3733084,1.17988782 27.2346866,7.02033253 27.2346866,14.1586538 C27.2346866,14.5126202 27.47151,14.7485978 27.826745,14.7485978 C28.1819801,14.7485978 28.4188034,14.5126202 28.4188034,14.1586538 C28.4188034,6.37139423 22.0245726,-1.77635684e-15 14.2094017,-1.77635684e-15 C6.39423077,-1.77635684e-15 -5.32907052e-15,6.37139423 -5.32907052e-15,14.1586538 C-5.32907052e-15,21.9459135 6.39423077,28.3173077 14.2094017,28.3173077 C14.5646368,28.3173077 14.8014601,28.0813301 14.8014601,27.7273638 C14.8014601,27.3733974 14.5646368,27.1374199 14.2094017,27.1374199 Z" id="Path"></path>
                <path d="M14.2094017,24.1877003 C8.64405271,24.1877003 4.14440883,19.7041266 4.14440883,14.1586538 C4.14440883,8.61318109 8.64405271,4.12960737 14.2094017,4.12960737 C19.7747507,4.12960737 24.2743946,8.61318109 24.2743946,14.1586538 C24.2743946,14.5126202 24.5112179,14.7485978 24.866453,14.7485978 C25.221688,14.7485978 25.4585114,14.5126202 25.4585114,14.1586538 C25.4585114,7.96424279 20.426015,2.94971955 14.2094017,2.94971955 C7.99278846,2.94971955 2.96029202,7.96424279 2.96029202,14.1586538 C2.96029202,20.3530649 7.99278846,25.3675881 14.2094017,25.3675881 C14.5646368,25.3675881 14.8014601,25.1316106 14.8014601,24.7776442 C14.8014601,24.4236779 14.5646368,24.1877003 14.2094017,24.1877003 Z" id="Path"></path>
                <path d="M14.2094017,9.67508013 C15.2751068,9.67508013 16.1631944,10.559996 16.1631944,11.621895 C16.1631944,11.9758614 16.4000178,12.2118389 16.7552528,12.2118389 C17.1104879,12.2118389 17.3473113,11.9758614 17.3473113,11.621895 C17.3473113,10.0880409 16.2224003,8.84915865 14.8014601,8.5541867 L14.8014601,7.9052484 C14.8014601,7.55128205 14.5646368,7.31530449 14.2094017,7.31530449 C13.8541667,7.31530449 13.6173433,7.55128205 13.6173433,7.9052484 L13.6173433,8.5541867 C12.1964031,8.84915865 11.0714922,10.0880409 11.0714922,11.621895 C11.0714922,13.3327324 12.4924323,14.7485978 14.2094017,14.7485978 C15.2751068,14.7485978 16.1631944,15.6335136 16.1631944,16.6954127 C16.1631944,17.7573117 15.2751068,18.6422276 14.2094017,18.6422276 C13.1436966,18.6422276 12.255609,17.7573117 12.255609,16.6954127 C12.255609,16.3414463 12.0187856,16.1054687 11.6635506,16.1054687 C11.3083155,16.1054687 11.0714922,16.3414463 11.0714922,16.6954127 C11.0714922,18.2292668 12.1964031,19.468149 13.6173433,19.763121 L13.6173433,20.4120593 C13.6173433,20.7660256 13.8541667,21.0020032 14.2094017,21.0020032 C14.5646368,21.0020032 14.8014601,20.7660256 14.8014601,20.4120593 L14.8014601,19.763121 C16.2224003,19.468149 17.3473113,18.2292668 17.3473113,16.6954127 C17.3473113,14.9845753 15.9263711,13.5687099 14.2094017,13.5687099 C13.1436966,13.5687099 12.255609,12.6837941 12.255609,11.621895 C12.255609,10.559996 13.1436966,9.67508013 14.2094017,9.67508013 Z" id="Path"></path>
                <path d="M24.2151887,23.3027845 L26.2873932,21.2379808 C26.4058048,21.119992 26.4650107,20.8840144 26.4650107,20.7070313 C26.4058048,20.5300481 26.2873932,20.3530649 26.0505698,20.2940705 L18.5314281,17.8163061 C18.2946047,17.7573117 18.0577813,17.8163061 17.9393697,17.9342949 C17.7617521,18.111278 17.7025463,18.3472556 17.820958,18.5242388 L20.3076033,26.0165264 C20.3668091,26.1935096 20.5444266,26.3704928 20.7220442,26.4294872 C20.78125,26.4294872 20.8404558,26.4294872 20.8404558,26.4294872 C21.0180734,26.4294872 21.136485,26.3704928 21.2548967,26.252504 L23.3271011,24.1877003 L27.3530983,28.1993189 C27.47151,28.3173077 27.6491275,28.3763021 27.7675392,28.3763021 C27.9451567,28.3763021 28.0635684,28.3173077 28.1819801,28.1993189 C28.4188034,27.9633413 28.4188034,27.609375 28.1819801,27.3733974 L24.2151887,23.3027845 Z M21.136485,24.7186498 L19.301104,19.2321715 L24.8072472,21.0609976 L21.136485,24.7186498 Z" id="Shape"></path>
            </g>
        </g>
        <g id="Group-99-Copy-2" transform="translate(96.000000, 137.000000)">
            <rect id="Rectangle" fill="#FFFFFF" opacity="0" x="0" y="0" width="50" height="50"></rect>
            <g id="Group-78" transform="translate(3.076923, 10.000000)">
                <rect id="Rectangle" x="7.18789407" y="6.44007156" width="30.1891551" height="18.6046512"></rect>
                <path d="M24.926118,26.4758497 L39.5334174,26.4758497 L39.5334174,5.51950597 C39.5334174,4.84325879 38.9797536,4.29338104 38.299454,4.29338104 L6.26548925,4.29338104 C5.58518962,4.29338104 5.03152585,4.84325879 5.03152585,5.51950597 L5.03152585,26.4758497 L19.6383345,26.4758497 L24.926118,26.4758497 Z M6.63508927,25.0745641 L6.63508927,6.05230677 C6.63508927,5.91910657 6.74356417,5.81078992 6.87805342,5.81078992 L37.6873807,5.81078992 C37.8213791,5.81078992 37.9303448,5.91861866 37.9303448,6.05230677 L37.9303448,25.0745641 C37.9303448,25.2077643 37.8218699,25.3160809 37.6873807,25.3160809 L6.87805342,25.3160809 C6.74356417,25.3160809 6.63508927,25.2082522 6.63508927,25.0745641 Z" id="Shape"></path>
                <g id="Group-43" transform="translate(0.000000, 3.577818)">
                    <path d="M24.7876923,23.0471556 L24.7876923,24.1621546 C24.7876923,24.2945577 24.6800256,24.4022262 24.5465385,24.4022262 L19.2991282,24.4022262 C19.1661282,24.4022262 19.0579744,24.2950427 19.0579744,24.1621546 L19.0579744,23.0471556 L4.56,23.0471556 L0.481820513,23.0471556 L0.481820513,23.4627947 C0.481820513,24.9619082 1.70658974,26.1811807 3.21246154,26.1811807 L40.6341795,26.1811807 C42.1395641,26.1811807 43.3643333,24.9619082 43.3643333,23.4627947 L43.3643333,23.0471556 L39.2861538,23.0471556 L24.7876923,23.0471556 Z" id="Path"></path>
                    <path d="M43.605,22.5293818 L39.5268205,22.5293818 L39.5268205,1.69844564 C39.5268205,0.761924071 38.7614615,3.55271368e-13 37.8202308,3.55271368e-13 L6.0254359,3.55271368e-13 C5.08469231,3.55271368e-13 4.31884615,0.761924071 4.31884615,1.69844564 L4.31884615,22.5293818 L0.241153846,22.5293818 C0.107666667,22.5293818 -1.0658141e-14,22.6365653 -1.0658141e-14,22.7689684 L-1.0658141e-14,23.424194 C-1.0658141e-14,25.1871437 1.44107692,26.6222381 3.21246154,26.6222381 L40.6341795,26.6222381 C42.4050769,26.6222381 43.8461538,25.1876287 43.8461538,23.424194 L43.8461538,22.7689684 C43.8461538,22.6365653 43.7384872,22.5293818 43.605,22.5293818 Z M4.80115385,1.69844564 C4.80115385,1.02624528 5.35069231,0.47965812 6.02592308,0.47965812 L37.8207179,0.47965812 C38.4959487,0.47965812 39.0454872,1.02624528 39.0454872,1.69844564 L39.0454872,22.5293818 L24.5470256,22.5293818 L19.2991282,22.5293818 L4.80115385,22.5293818 L4.80115385,1.69844564 Z M40.6341795,26.14258 L3.21246154,26.14258 C1.70658974,26.14258 0.481820513,24.9233075 0.481820513,23.424194 L0.481820513,23.008555 L4.56,23.008555 L39.2871282,23.008555 L43.3653077,23.008555 L43.3653077,23.424194 C43.3643333,24.9233075 42.1395641,26.14258 40.6341795,26.14258 Z" id="Shape" stroke="#18AFAA" fill="#18AFAA" fill-rule="nonzero"></path>
                </g>
                <rect id="Rectangle" fill="#FFFFFF" x="10.0630517" y="2.14669052" width="23.7200504" height="8.58676208" rx="4.29338104"></rect>
                <g id="Group-63" transform="translate(11.500631, 0.000000)" fill="#18AFAA" fill-rule="nonzero" stroke="#18AFAA" stroke-width="0.2">
                    <path d="M6.57845042,19.8062985 C5.76021555,19.4202442 4.99840614,18.925408 4.31388573,18.3353415 C4.98825298,17.9644303 5.69190864,17.6489391 6.417843,17.3920105 C6.62850793,17.3213681 6.74176049,17.0940899 6.67079967,16.8843704 C6.59983885,16.674651 6.37153606,16.5619067 6.16087112,16.632549 C5.30710569,16.9346626 4.48207058,17.3118869 3.69554714,17.7597497 C1.948639,15.9891864 0.924170363,13.6360765 0.820674223,11.1564321 L4.73146503,11.1564321 C4.7674062,12.7044461 5.01597699,14.2402822 5.47025919,15.7211952 C5.51782925,15.8933792 5.67635559,16.0117403 5.85571701,16.0089911 L5.96814221,16.0089911 C6.07221638,15.9794216 6.15989201,15.9092779 6.21129387,15.8144607 C6.26269573,15.7196435 6.2734702,15.6081838 6.24117483,15.5053483 C5.80996858,14.0994767 5.57224538,12.6418889 5.53450216,11.1724207 L10.441059,11.1724207 L10.441059,11.7240296 C10.441059,11.944787 10.620825,12.1237462 10.8425776,12.1237462 C11.0643302,12.1237462 11.2440961,11.944787 11.2440961,11.7240296 L11.2440961,11.1564321 L16.150653,11.1564321 C16.150653,11.3323074 16.150653,11.5081827 16.150653,11.6840579 C16.1440869,11.7893163 16.1804314,11.8927638 16.2514661,11.9710026 C16.3225008,12.0492414 16.4222241,12.0956614 16.5280804,12.0997632 C16.74208,12.0959522 16.917043,11.9287416 16.929599,11.7160353 C16.929599,11.5321656 16.929599,11.3403017 16.929599,11.1484377 L19.675986,11.1484377 C19.8977386,11.1484377 20.0775045,10.9694786 20.0775045,10.7487212 C20.0775045,10.5279638 19.8977386,10.3490046 19.675986,10.3490046 L16.9536901,10.3490046 C16.9184003,8.43765036 16.5600538,6.5458569 15.8936811,4.75297275 C16.6175978,4.47543341 17.3207018,4.14683164 17.9976384,3.76967 C19.84573,5.62963126 20.8817534,8.14055247 20.8805417,10.7567155 C20.8805417,10.9774729 21.0603076,11.1564321 21.2820602,11.1564321 C21.5038128,11.1564321 21.6835788,10.9774729 21.6835788,10.7567155 C21.6829816,7.84233489 20.4949266,5.05283927 18.3911266,3.0261972 C18.3612325,2.98127975 18.3195817,2.94534444 18.270671,2.92227089 C16.9056741,1.63185662 15.2251749,0.719585112 13.3962356,0.276147248 L13.2677497,0.276147248 C11.6829686,-0.0920490825 10.034308,-0.0920490825 8.44952693,0.276147248 L8.32104099,0.276147248 C6.4807891,0.714745479 4.7887116,1.62728892 3.41448414,2.92227089 C3.36557338,2.94534444 3.32392262,2.98127975 3.29402857,3.0261972 C0.737507707,5.4911534 -0.43856267,9.04964343 0.148358972,12.5441939 C0.735280612,16.0387444 3.01019721,19.0228202 6.23314446,20.5257883 C6.28726971,20.5549033 6.34836341,20.5687259 6.40981263,20.56576 C6.5957999,20.5628643 6.75543924,20.4331782 6.79558802,20.2523679 C6.83573681,20.0715576 6.74588219,19.8869678 6.57845042,19.8062985 Z M5.53450216,10.356999 C5.56892105,8.52975017 5.91374284,6.72147877 6.55435931,5.00879135 C7.81447433,5.39672011 9.12243735,5.6092518 10.441059,5.64034352 L10.441059,10.356999 L5.53450216,10.356999 Z M8.67437732,1.00363139 C9.25559656,0.879198147 9.8468634,0.806959243 10.441059,0.787784448 L10.441059,4.84091039 C9.21570176,4.80819947 8.00029712,4.6119187 6.82739193,4.25732421 C7.32384265,3.10985054 7.94308048,2.01898665 8.67437732,1.00363139 Z M6.08859778,4.00150561 C5.47620747,3.77708943 4.88048155,3.50994874 4.30585535,3.20207249 C5.23677401,2.39709621 6.30956459,1.77094788 7.46982163,1.35538197 C6.93452105,2.19663469 6.47243118,3.0818981 6.08859778,4.00150561 Z M13.0107778,1.00363139 C13.7420746,2.01898665 14.3613125,3.10985054 14.8577632,4.25732421 C13.6900258,4.61051099 12.4801171,4.80677648 11.2601569,4.84091039 L11.2601569,0.787784448 C11.8489724,0.807909177 12.434822,0.880142893 13.0107778,1.00363139 Z M16.150653,10.356999 L11.2440961,10.356999 L11.2440961,5.64034352 C12.5627178,5.6092518 13.8706808,5.39672011 15.1307958,5.00879135 C15.7714123,6.72147877 16.1162341,8.52975017 16.150653,10.356999 Z M14.2153335,1.35538197 C15.3743831,1.76612496 16.4470924,2.38680501 17.3792998,3.18608382 C16.8046736,3.49396008 16.2089477,3.76110077 15.5965574,3.98551695 C15.2118991,3.07140096 14.7498253,2.19151707 14.2153335,1.35538197 Z M3.68751677,3.75368134 C4.36422477,4.13357669 5.06733404,4.46485251 5.79147404,4.74497842 C5.12510126,6.53786257 4.76675483,8.42965603 4.73146503,10.3410103 L0.828704595,10.3410103 C0.921529118,7.86914276 1.94154297,5.52165997 3.68751677,3.76167567 L3.68751677,3.75368134 Z" id="Shape"></path>
                    <path d="M21.2820602,12.819253 L7.93558317,12.819253 C7.71383057,12.819253 7.5340646,12.9982122 7.5340646,13.2189695 L7.5340646,21.2133008 C7.5340646,21.4340582 7.71383057,21.6130174 7.93558317,21.6130174 L21.2820602,21.6130174 C21.5038128,21.6130174 21.6835788,21.4340582 21.6835788,21.2133008 L21.6835788,13.2189695 C21.6835788,12.9982122 21.5038128,12.819253 21.2820602,12.819253 Z M18.551734,20.8135842 L10.657879,20.8135842 C10.531495,19.5862967 9.5675732,18.6100989 8.33710173,18.4632508 L8.33710173,15.9850082 C9.58382827,15.8340466 10.5528934,14.8326112 10.657879,13.5867088 L18.551734,13.5867088 C18.6604011,14.833897 19.632133,15.8346254 20.8805417,15.9850082 L20.8805417,18.4632508 C19.6510003,18.6087497 18.6852273,19.5801341 18.551734,20.8055899 L18.551734,20.8135842 Z M20.8805417,15.2175524 C20.0756252,15.0737905 19.4577406,14.4263047 19.3547711,13.6186861 L20.8805417,13.6186861 L20.8805417,15.2175524 Z M9.8548419,13.6186861 C9.76029472,14.4273738 9.14279418,15.0778809 8.33710173,15.2175524 L8.33710173,13.6186861 L9.8548419,13.6186861 Z M8.33710173,19.2546896 C9.12880134,19.3864959 9.74315405,20.0142712 9.8548419,20.8055899 L8.33710173,20.8055899 L8.33710173,19.2546896 Z M19.3547711,20.8055899 C19.4722346,20.0141952 20.0881986,19.3880862 20.8805417,19.2546896 L20.8805417,20.8055899 L19.3547711,20.8055899 Z" id="Shape"></path>
                    <path d="M14.6088217,15.4094163 C13.612025,15.4313758 12.8196799,16.2497353 12.8343049,17.2421946 C12.8489299,18.2346538 13.6650476,19.0295232 14.6620624,19.0223649 C15.6590772,19.0152064 16.4635934,18.2087012 16.4638375,17.2161352 C16.463957,16.7299569 16.2672468,16.2642479 15.9181597,15.9242496 C15.5690726,15.5842512 15.0970722,15.3986602 14.6088217,15.4094163 Z M14.6088217,18.2234209 C14.0557657,18.2015554 13.6229947,17.7413599 13.6374943,17.1905411 C13.651994,16.6397222 14.1083824,16.2027232 14.6618298,16.2097242 C15.2152771,16.216725 15.6603644,16.6651274 15.6608006,17.2161352 C15.6610173,17.4903559 15.5489205,17.752812 15.3503911,17.9429069 C15.1518617,18.133002 14.8840618,18.2343028 14.6088217,18.2234209 Z" id="Shape"></path>
                    <path d="M11.6456147,16.8164186 L11.3003087,16.8164186 C11.0785561,16.8164186 10.8987902,16.9953778 10.8987902,17.2161352 C10.9030624,17.4351067 11.08035,17.6115987 11.3003087,17.6158517 L11.6456147,17.6158517 C11.8673673,17.6158517 12.0471333,17.4368925 12.0471333,17.2161352 C12.0471333,17.1101238 12.0048305,17.0084543 11.9295312,16.9334929 C11.8542319,16.8585315 11.752104,16.8164186 11.6456147,16.8164186 Z" id="Path"></path>
                    <path d="M17.8771828,16.8164186 L17.5318768,16.8164186 C17.3101242,16.8164186 17.1303583,16.9953778 17.1303583,17.2161352 C17.1346305,17.4351067 17.3119181,17.6115987 17.5318768,17.6158517 L17.8771828,17.6158517 C18.0989354,17.6158517 18.2787014,17.4368925 18.2787014,17.2161352 C18.2787014,17.1101238 18.2363986,17.0084543 18.1610993,16.9334929 C18.0858,16.8585315 17.9836721,16.8164186 17.8771828,16.8164186 Z" id="Path"></path>
                </g>
            </g>
        </g>
        <g id="Group-100-Copy-2" transform="translate(20.000000, 137.000000)">
            <rect id="Rectangle-Copy-31" fill="#FFFFFF" opacity="0" x="0" y="0" width="50" height="50"></rect>
            <g id="Group-37" transform="translate(9.230769, 13.846154)" fill="#D3669D" fill-rule="nonzero" stroke="#D3669D" stroke-width="0.7">
                <path d="M26.5974359,2.59348099e-13 L4.24017094,2.59348099e-13 C1.89838919,2.59348099e-13 -6.4659389e-13,1.89838919 -6.4659389e-13,4.24017094 L-6.4659389e-13,17.3461538 C-6.4659389e-13,19.6879356 1.89838919,21.5863248 4.24017094,21.5863248 L26.5974359,21.5863248 C28.9392176,21.5863248 30.8376068,19.6879356 30.8376068,17.3461538 L30.8376068,4.24017094 C30.8376068,1.89838919 28.9392176,2.59348099e-13 26.5974359,2.59348099e-13 Z M26.5974359,20.8153846 L4.24017094,20.8153846 C3.32007373,20.8153846 2.43766131,20.4498774 1.78705434,19.7992704 C1.13644736,19.1486635 0.770940171,18.2662511 0.770940171,17.3461538 L0.770940171,6.93846154 L30.0666667,6.93846154 L30.0666667,17.3461538 C30.0666667,18.2662511 29.7011595,19.1486635 29.0505525,19.7992704 C28.3999455,20.4498774 27.5175331,20.8153846 26.5974359,20.8153846 Z M30.0666667,6.16752137 L0.770940171,6.16752137 L0.770940171,4.24017094 C0.770940171,2.32416769 2.32416769,0.770940171 4.24017094,0.770940171 L26.5974359,0.770940171 C28.5134391,0.770940171 30.0666667,2.32416769 30.0666667,4.24017094 L30.0666667,6.16752137 Z" id="Shape"></path>
                <path d="M14.5168034,12.7205128 L26.1657094,12.7205128 C26.3785987,12.7205128 26.5511795,12.547932 26.5511795,12.3350427 C26.5511795,12.1221535 26.3785987,11.9495726 26.1657094,11.9495726 L14.5168034,11.9495726 C14.3039142,11.9495726 14.1313333,12.1221535 14.1313333,12.3350427 C14.1313333,12.547932 14.3039142,12.7205128 14.5168034,12.7205128 Z" id="Shape"></path>
                <path d="M26.2119658,15.0333333 L14.5168034,15.0333333 C14.3039142,15.0333333 14.1313333,15.2059142 14.1313333,15.4188034 C14.1313333,15.6316927 14.3039142,15.8042735 14.5168034,15.8042735 L26.2119658,15.8042735 C26.4248551,15.8042735 26.5974359,15.6316927 26.5974359,15.4188034 C26.5974359,15.2059142 26.4248551,15.0333333 26.2119658,15.0333333 Z" id="Shape"></path>
                <path d="M9.14720513,11.1786325 L7.2198547,11.1786325 C6.15540845,11.1786325 5.29250427,12.0415367 5.29250427,13.1059829 L5.29250427,14.6478632 C5.29250427,15.7123095 6.15540845,16.5752137 7.2198547,16.5752137 L9.14720513,16.5752137 C10.2116514,16.5752137 11.0745556,15.7123095 11.0745556,14.6478632 L11.0745556,13.1059829 C11.0745556,12.0415367 10.2116514,11.1786325 9.14720513,11.1786325 L9.14720513,11.1786325 Z M10.3036154,14.6478632 C10.3036154,15.286531 9.78587288,15.8042735 9.14720513,15.8042735 L7.2198547,15.8042735 C6.58118695,15.8042735 6.06344444,15.286531 6.06344444,14.6478632 L6.06344444,13.1059829 C6.06344444,12.4673152 6.58118695,11.9495726 7.2198547,11.9495726 L9.14720513,11.9495726 C9.78587288,11.9495726 10.3036154,12.4673152 10.3036154,13.1059829 L10.3036154,14.6478632 Z" id="Shape"></path>
            </g>
        </g>
        <g id="Group-79-Copy" transform="translate(352.000000, 137.000000)">
            <rect id="Rectangle" fill="#FFFFFF" opacity="0" x="0" y="0" width="50" height="50"></rect>
            <g id="Shape-4" transform="translate(11.538462, 11.538462)" fill="#FF8000" fill-rule="nonzero">
                <path d="M25.5669783,6.04323333 C24.9911155,5.35994705 24.2176264,4.79187443 23.2647568,4.35090571 C23.0513451,3.80538371 22.757161,3.30844827 22.3815894,2.86276444 C20.8801227,1.08105404 18.0303291,0.0998935654 14.3566149,0.0998935654 C13.2567557,0.0998935654 8.90836554,0.0539721379 6.46181946,0.000465461529 C5.46938362,-0.0204451885 4.59482641,0.665301115 4.37813469,1.63231616 L0.051270158,21.0970563 C-0.0883391687,21.7192506 0.0602904909,22.3617406 0.459027873,22.8597011 C0.857560261,23.3574565 1.45207874,23.6430304 2.08964854,23.6430304 L3.37790858,23.6430304 L3.2368642,24.2775251 C3.09725487,24.8997194 3.24588448,25.5422094 3.64462186,26.0401699 C4.04315425,26.5379254 4.63767278,26.8234992 5.27544757,26.8234992 L10.5129504,26.8234992 C11.5057963,26.8234992 12.3672331,26.1168423 12.561579,25.1434721 L13.4896429,20.4963876 L18.3925753,20.4400108 L18.4329616,20.4355007 C18.7587167,20.3979845 20.4766701,20.1478768 22.3159873,18.902463 C23.3650049,18.192321 24.2557576,17.2882428 24.9636446,16.2152395 C25.8267214,14.9075038 26.4185748,13.3447403 26.7223943,11.5708201 C27.1151865,9.27884887 26.7264944,7.41903106 25.5669783,6.04323333 L25.5669783,6.04323333 Z M1.68906611,21.8748505 C1.63145933,21.8028932 1.54187151,21.6509835 1.589023,21.4402369 L5.91588748,1.97611189 C5.96939418,1.73891948 6.18465084,1.56958424 6.42758338,1.57576639 C8.88314974,1.6294461 13.2512205,1.67557252 14.3566149,1.67557252 C17.5112529,1.67557252 19.9971602,2.47837748 21.1765619,3.87816099 C22.0228282,4.88248722 22.2944617,6.31117662 21.983877,8.12404799 C21.4996519,10.9486258 20.2425528,13.0659316 18.2468158,14.4171286 C16.7666698,15.4194048 15.3496657,15.651062 15.1028381,15.684888 L10.2318867,15.7408548 C9.48914858,15.7408548 8.92476605,16.168088 8.79458699,16.8277986 L7.83085204,21.6544686 C7.78308552,21.893711 7.57131395,22.0673514 7.32735639,22.0673514 L2.08964854,22.0673514 C1.8752119,22.0673514 1.74646789,21.9466027 1.68906611,21.8748505 Z M25.169266,11.3045169 C24.6852459,14.1290947 23.4281469,16.2464005 21.4324098,17.5975975 C19.9522638,18.5998736 18.5352598,18.8315308 18.2884321,18.8653569 L13.4174807,18.9213236 C12.6747426,18.9213236 12.11036,19.3485569 11.980181,20.0082674 L11.016446,24.8349375 C10.9686796,25.0741799 10.756908,25.2478203 10.5129504,25.2478203 L5.27544757,25.2478203 C5.06080594,25.2478203 4.93226693,25.1272765 4.8746601,25.0553193 C4.81705332,24.983362 4.72746555,24.8314523 4.77461699,24.6207058 L4.99212879,23.6430304 L7.32756139,23.6430304 C8.32020222,23.6430304 9.18184401,22.9363734 9.37619006,21.9630032 L10.3040489,17.3157137 L15.2069813,17.259542 L15.2473676,17.2550318 C15.5731227,17.2175157 17.2910761,16.9674079 19.1303933,15.7219942 C20.1794109,15.0116471 21.0701635,14.107569 21.7782556,13.0347707 C22.6411274,11.72683 23.2329808,10.1642714 23.5368002,8.39014629 C23.6565239,7.69148457 23.7032654,7.03320909 23.6780497,6.41634488 C23.9392277,6.61397107 24.1680149,6.82820272 24.3621559,7.05842489 C25.2084222,8.06295606 25.4800556,9.49164551 25.169266,11.3045169 L25.169266,11.3045169 Z" id="Shape"></path>
            </g>
        </g>
        <g id="Group-13-Copy" transform="translate(442.000000, 45.000000)">
            <g id="Group-3" transform="translate(0.000000, 15.617593)">
                <g id="Fill-1-Clipped">
                    <mask id="mask-2" fill="white">
                        <use xlink:href="#path-1"></use>
                    </mask>
                    <g id="path-1"></g>
                    <path d="M4.58532578,9.81820833 C3.72043317,9.81820833 3.28953686,9.39452315 3.28953686,8.69405093 C3.28953686,7.39825463 4.74342442,6.9544676 7.39700173,6.67458797 C7.39700173,8.40798612 6.22211177,9.81820833 4.58532578,9.81820833 M5.72921599,0.0595324073 C3.83358221,0.0595324073 1.65120088,0.95174537 0.467011004,1.89343982 L1.54890175,4.16494907 C2.49904362,3.29747685 4.03508048,2.55680093 5.42076863,2.55680093 C6.73670738,2.55680093 7.46365115,2.99594907 7.46365115,3.87888427 C7.46365115,4.47575463 6.98160527,4.77573612 6.07021307,4.89325463 C2.66954217,5.33549537 0.000464996022,6.27100463 0.000464996022,8.88733797 C0.000464996022,10.9609213 1.48070233,12.2165139 3.79328256,12.2165139 C5.44246844,12.2165139 6.91185587,11.3011065 7.61089989,10.0934491 L7.61089989,11.877875 L10.6860736,11.877875 L10.6860736,4.4015324 C10.6860736,1.3135787 8.534692,0.0595324073 5.72921599,0.0595324073" id="Fill-1" fill="#060809" fill-rule="nonzero" mask="url(#mask-2)"></path>
                </g>
            </g>
            <path d="M36.6113068,16.0145268 L36.6113068,27.4957768 L39.9034786,27.4957768 L39.9034786,21.964675 C39.9034786,19.334425 41.4984151,18.5628232 42.6113068,18.5628232 C43.0453018,18.5628232 43.6311968,18.6880732 44.0186934,18.9772305 L44.6185383,15.9418509 C44.1101426,15.7253694 43.5784972,15.6774343 43.142951,15.6774343 C41.4503653,15.6774343 40.3870745,16.4258417 39.6849306,17.9443047 L39.6849306,16.0145268 L36.6113068,16.0145268 Z" id="Fill-4" fill="#060809" fill-rule="nonzero"></path>
            <path d="M59.8784678,15.6777435 C58.1378327,15.6777435 56.8373938,16.7044843 56.1600496,17.6941138 C55.5307549,16.4153268 54.1977663,15.6777435 52.60283,15.6777435 C50.862195,15.6777435 49.6578552,16.6426324 49.10141,17.7513268 L49.10141,16.0148361 L45.9285871,16.0148361 L45.9285871,27.4960862 L49.222309,27.4960862 L49.222309,21.5861417 C49.222309,19.4630768 50.3351994,18.4471602 51.3752405,18.4471602 C52.3160824,18.4471602 53.180975,19.0548547 53.180975,20.6212528 L53.180975,27.4960862 L56.470047,27.4960862 L56.470047,21.5861417 C56.470047,19.4398823 57.5581377,18.4471602 58.6462284,18.4471602 C59.5157709,18.4471602 60.433363,19.078049 60.433363,20.5980583 L60.433363,27.4960862 L63.7224349,27.4960862 L63.7224349,19.5604935 C63.7224349,16.979725 61.9817997,15.6777435 59.8784678,15.6777435" id="Fill-6" fill="#060809" fill-rule="nonzero"></path>
            <path d="M28.5988054,16.0145269 L25.6166308,16.0145269 L25.6166308,14.8470732 C25.6166308,13.3286102 26.4861735,12.8941009 27.236367,12.8941009 C28.0640599,12.8941009 28.7088544,13.2605732 28.7088544,13.2605732 L29.7240957,10.9457676 C29.7240957,10.9457676 28.6949045,10.274675 26.8240705,10.274675 C24.7207386,10.274675 22.327559,11.4575917 22.327559,15.1702491 L22.327559,16.0145269 L17.3350518,16.0145269 L17.3350518,14.8470732 C17.3350518,13.3286102 18.2045943,12.8941009 18.9532379,12.8941009 C19.3794843,12.8941009 19.9529793,12.9930639 20.4272752,13.2605732 L21.4425166,10.9457676 C20.8364718,10.5901195 19.86308,10.274675 18.5424915,10.274675 C16.4391594,10.274675 14.0459798,11.4575917 14.0459798,15.1702491 L14.0459798,16.0145269 L12.1363962,16.0145269 L12.1363962,18.5473602 L14.0459798,18.5473602 L14.0459798,27.4957768 L17.3350518,27.4957768 L17.3350518,18.5473602 L22.327559,18.5473602 L22.327559,27.4957768 L25.6166308,27.4957768 L25.6166308,18.5473602 L28.5988054,18.5473602 L28.5988054,16.0145269 Z" id="Fill-8" fill="#060809" fill-rule="nonzero"></path>
            <g id="Fill-10-Clipped">
                <mask id="mask-4" fill="white">
                    <use xlink:href="#path-3"></use>
                </mask>
                <g id="path-3"></g>
                <polygon id="Fill-10" fill="#060809" fill-rule="nonzero" mask="url(#mask-4)" points="30.5626385 27.4962407 33.8486104 27.4962407 33.8486104 16.0149907 30.5626385 16.0149907"></polygon>
            </g>
            <g id="Fill-12-Clipped">
                <mask id="mask-6" fill="white">
                    <use xlink:href="#path-5"></use>
                </mask>
                <g id="path-3"></g>
                <path d="M49.7331845,0.000463888888 C40.8486605,0.000463888888 32.9297782,6.15317685 30.6822976,14.0640287 L33.90317,14.0640287 C35.780204,8.17263982 42.1521994,3.001825 49.7331845,3.001825 C58.9478557,3.001825 66.9116875,10.000362 66.9116875,20.8955657 C66.9116875,23.3418065 66.5939403,25.546825 65.9925454,27.4951583 L69.1173187,27.4951583 L69.1483185,27.3884638 C69.659814,25.3782787 69.9202119,23.1949083 69.9202119,20.8955657 C69.9202119,8.74476945 61.0449879,0.000463888888 49.7331845,0.000463888888" id="Fill-12" fill="#0FA0EA" fill-rule="nonzero" mask="url(#mask-6)"></path>
            </g>
        </g>
        <g id="Group-13-Copy" transform="translate(447.000000, 150.000000)">
            <g id="Group-3" transform="translate(0.000000, 13.386508)">
                <g id="Fill-1-Clipped">
                    <mask id="mask-8" fill="white">
                        <use xlink:href="#path-7"></use>
                    </mask>
                    <g id="path-1"></g>
                    <path d="M3.93027924,8.41560714 C3.18894272,8.41560714 2.81960303,8.05244841 2.81960303,7.45204366 C2.81960303,6.34136111 4.06579236,5.96097223 6.34028719,5.7210754 C6.34028719,7.20684524 5.33323866,8.41560714 3.93027924,8.41560714 M4.91075656,0.0510277777 C3.28592761,0.0510277777 1.41531504,0.815781746 0.400295147,1.62294841 L1.32763007,3.56995634 C2.14203739,2.82640873 3.45864042,2.19154366 4.64637311,2.19154366 C5.77432061,2.19154366 6.39741527,2.56795634 6.39741527,3.32475794 C6.39741527,3.83636111 5.98423309,4.0934881 5.20303978,4.19421826 C2.288179,4.57328174 0.000398568019,5.37514683 0.000398568019,7.61771826 C0.000398568019,9.3950754 1.26917343,10.4712976 3.25138505,10.4712976 C4.66497295,10.4712976 5.92444789,9.6866627 6.52362848,8.65152777 L6.52362848,10.1810357 L9.15949164,10.1810357 L9.15949164,3.77274206 C9.15949164,1.1259246 7.31545028,0.0510277777 4.91075656,0.0510277777" id="Fill-1" fill="#060809" fill-rule="nonzero" mask="url(#mask-8)"></path>
                </g>
            </g>
            <path d="M31.3811201,13.7267373 L31.3811201,23.5678087 L34.2029817,23.5678087 L34.2029817,18.8268643 C34.2029817,16.5723643 35.5700701,15.9109913 36.5239761,15.9109913 C36.895973,15.9109913 37.3981687,16.0183484 37.7303086,16.2661976 L38.2444614,13.6644437 C37.8086937,13.4788881 37.3529976,13.4378008 36.9796723,13.4378008 C35.5288846,13.4378008 34.6174925,14.0792929 34.0156548,15.3808326 L34.0156548,13.7267373 L31.3811201,13.7267373 Z" id="Fill-4" fill="#060809" fill-rule="nonzero"></path>
            <path d="M51.324401,13.4380659 C49.8324281,13.4380659 48.7177661,14.3181294 48.1371853,15.1663833 C47.5977899,14.0702802 46.4552283,13.4380659 45.08814,13.4380659 C43.5961671,13.4380659 42.5638758,14.2651135 42.0869228,15.215423 L42.0869228,13.7270024 L39.3673604,13.7270024 L39.3673604,23.5680739 L42.1905505,23.5680739 L42.1905505,18.5024071 C42.1905505,16.6826373 43.1444566,15.8118516 44.0359204,15.8118516 C44.8423564,15.8118516 45.5836929,16.3327326 45.5836929,17.6753596 L45.5836929,23.5680739 L48.4028974,23.5680739 L48.4028974,18.5024071 C48.4028974,16.6627563 49.3355466,15.8118516 50.2681958,15.8118516 C51.0135179,15.8118516 51.8000254,16.3526134 51.8000254,17.6554786 L51.8000254,23.5680739 L54.6192299,23.5680739 L54.6192299,16.7661373 C54.6192299,14.55405 53.1272569,13.4380659 51.324401,13.4380659" id="Fill-6" fill="#060809" fill-rule="nonzero"></path>
            <path d="M24.5132618,13.7267373 L21.9571121,13.7267373 L21.9571121,12.7260627 C21.9571121,11.424523 22.7024344,11.0520865 23.3454574,11.0520865 C24.0549084,11.0520865 24.6075895,11.3662056 24.6075895,11.3662056 L25.4777963,9.38208651 C25.4777963,9.38208651 24.5956325,8.80686429 22.9920604,8.80686429 C21.1892045,8.80686429 19.1379077,9.82079286 19.1379077,13.0030706 L19.1379077,13.7267373 L14.8586158,13.7267373 L14.8586158,12.7260627 C14.8586158,11.424523 15.6039379,11.0520865 16.2456325,11.0520865 C16.6109865,11.0520865 17.1025537,11.1369119 17.509093,11.3662056 L18.3793,9.38208651 C17.859833,9.07724524 17.0254972,8.80686429 15.8935641,8.80686429 C14.090708,8.80686429 12.0394113,9.82079286 12.0394113,13.0030706 L12.0394113,13.7267373 L10.4026253,13.7267373 L10.4026253,15.8977373 L12.0394113,15.8977373 L12.0394113,23.5678087 L14.8586158,23.5678087 L14.8586158,15.8977373 L19.1379077,15.8977373 L19.1379077,23.5678087 L21.9571121,23.5678087 L21.9571121,15.8977373 L24.5132618,15.8977373 L24.5132618,13.7267373 Z" id="Fill-8" fill="#060809" fill-rule="nonzero"></path>
            <g id="Fill-10-Clipped">
                <mask id="mask-10" fill="white">
                    <use xlink:href="#path-9"></use>
                </mask>
                <g id="path-3"></g>
                <polygon id="Fill-10" fill="#060809" fill-rule="nonzero" mask="url(#mask-10)" points="26.1965473 23.5682063 29.0130947 23.5682063 29.0130947 13.7271349 26.1965473 13.7271349"></polygon>
            </g>
            <g id="Fill-12-Clipped">
                <mask id="mask-12" fill="white">
                    <use xlink:href="#path-11"></use>
                </mask>
                <g id="path-3"></g>
                <path d="M42.6284439,0.000397619047 C35.0131376,0.000397619047 28.2255242,5.27415159 26.2991122,12.0548817 L29.05986,12.0548817 C30.6687463,7.00511984 36.1304566,2.57299286 42.6284439,2.57299286 C50.5267335,2.57299286 57.352875,8.57173889 57.352875,17.9104849 C57.352875,20.0072627 57.0805203,21.8972786 56.5650389,23.5672786 L59.243416,23.5672786 L59.2699873,23.4758261 C59.708412,21.7528103 59.9316102,19.88135 59.9316102,17.9104849 C59.9316102,7.49551667 52.3242753,0.000397619047 42.6284439,0.000397619047" id="Fill-12" fill="#0FA0EA" fill-rule="nonzero" mask="url(#mask-12)"></path>
            </g>
        </g>
    </g>
</svg>