<?xml version="1.0" encoding="UTF-8"?>
<svg width="67px" height="67px" viewBox="0 0 67 67" version="1.1" xmlns="http://www.w3.org/2000/svg" xmlns:xlink="http://www.w3.org/1999/xlink">
    <title>Group 84</title>
    <g id="final" stroke="none" stroke-width="1" fill="none" fill-rule="evenodd">
        <g id="Group-84" fill="#F1B006" fill-rule="nonzero">
            <g id="Group-83" transform="translate(32.000000, 15.000000)">
                <path d="M2,29 C3.10448,29 4,28.3616938 4,26.3411064 L4,2.65889355 C4,0.638013465 3.10448,0 2,0 C0.89552,0 0,0.638013465 0,2.65889355 L0,26.3413992 C0,28.3619865 0.89552,29 2,29 Z" id="Path"></path>
                <path d="M2.0014319,32.4324211 C1.47482125,32.4324211 0.957654388,32.6453062 0.586305849,33.0182554 C0.213516733,33.3896039 0.000631578947,33.9050101 0.000631578947,34.4316207 C0.000631578947,34.9582314 0.213516733,35.4752382 0.586305849,35.8465867 C0.957654388,36.2195359 1.47482125,36.4324211 2.0014319,36.4324211 C2.52804254,36.4324211 3.04344871,36.2195359 3.41639789,35.8465867 C3.78758636,35.4752382 4.00223222,34.9582314 4.00223222,34.4316207 C4.00223222,33.9050101 3.78758636,33.3896039 3.41639789,33.0182554 C3.04344871,32.6453062 2.52804254,32.4324211 2.0014319,32.4324211 Z" id="Path"></path>
            </g>
            <path d="M33.5,0 C14.9984609,0 0,14.9984609 0,33.5 C0,52.0015391 14.9984609,67 33.5,67 C52.0015391,67 67,52.0015391 67,33.5 C67,14.9984609 52.0015391,0 33.5,0 Z M33.5,3 C50.3446849,3 64,16.6553151 64,33.5 C64,50.3446849 50.3446849,64 33.5,64 C16.6553151,64 3,50.3446849 3,33.5 C3,16.6553151 16.6553151,3 33.5,3 Z" id="Oval-Copy-8"></path>
        </g>
    </g>
</svg>