<svg width="24" height="24" viewBox="0 0 24 24" fill="none" xmlns="http://www.w3.org/2000/svg">
<path d="M12.6862 20L11.6154 19.3846L14.0769 15.0769H17.7692C18.0957 15.0769 18.4087 14.9473 18.6395 14.7164C18.8703 14.4856 19 14.1726 19 13.8462V6.46154C19 6.13512 18.8703 5.82207 18.6395 5.59125C18.4087 5.36044 18.0957 5.23077 17.7692 5.23077H5.46154C5.13512 5.23077 4.82207 5.36044 4.59125 5.59125C4.36044 5.82207 4.23077 6.13512 4.23077 6.46154V13.8462C4.23077 14.1726 4.36044 14.4856 4.59125 14.7164C4.82207 14.9473 5.13512 15.0769 5.46154 15.0769H11V16.3077H5.46154C4.8087 16.3077 4.1826 16.0484 3.72097 15.5867C3.25934 15.1251 3 14.499 3 13.8462V6.46154C3 5.8087 3.25934 5.1826 3.72097 4.72097C4.1826 4.25934 4.8087 4 5.46154 4H17.7692C18.4221 4 19.0482 4.25934 19.5098 4.72097C19.9714 5.1826 20.2308 5.8087 20.2308 6.46154V13.8462C20.2308 14.499 19.9714 15.1251 19.5098 15.5867C19.0482 16.0484 18.4221 16.3077 17.7692 16.3077H14.7908L12.6862 20Z" fill="#117AEF"/>
<path d="M6.69238 7.69226H16.5385V8.92303H6.69238V7.69226ZM6.69238 11.3846H12.8462V12.6153H6.69238V11.3846Z" fill="#117AEF"/>
</svg>
