<?xml version="1.0" encoding="UTF-8"?>
<svg width="171px" height="108px" viewBox="0 0 171 108" version="1.1" xmlns="http://www.w3.org/2000/svg" xmlns:xlink="http://www.w3.org/1999/xlink">
    <!-- Generator: Sketch 53 (72520) - https://sketchapp.com -->
    <title>Artboard</title>
    <desc>Created with Sketch.</desc>
    <g id="Artboard" stroke="none" stroke-width="1" fill="none" fill-rule="evenodd">
        <g id="insta" transform="translate(94.000000, 20.000000)" fill="#FFFFFF" fill-rule="nonzero">
            <path d="M12.8735929,17.1850796 L6.11530973,17.1850796 C3.11902655,17.1850796 0.677610619,14.7436637 0.677610619,11.7473805 L0.677610619,5.78810619 C0.677610619,2.79182301 3.11902655,0.35040708 6.11530973,0.35040708 L12.8735929,0.35040708 C15.8698761,0.35040708 18.311292,2.79182301 18.311292,5.78810619 L18.311292,11.7473805 C18.311292,14.7436637 15.8809735,17.1850796 12.8735929,17.1850796 Z M6.11530973,1.5600177 C3.78486726,1.5600177 1.88722124,3.45766372 1.88722124,5.78810619 L1.88722124,11.7473805 C1.88722124,14.077823 3.78486726,15.975469 6.11530973,15.975469 L12.8735929,15.975469 C15.2040354,15.975469 17.1016814,14.077823 17.1016814,11.7473805 L17.1016814,5.78810619 C17.1016814,3.45766372 15.2040354,1.5600177 12.8735929,1.5600177 L6.11530973,1.5600177 Z" id="Shape"></path>
            <path d="M9.5,13.6117345 C6.82553982,13.6117345 4.66155752,11.4366549 4.66155752,8.77329204 C4.66155752,6.09883186 6.83663717,3.93484956 9.5,3.93484956 C12.1744602,3.93484956 14.3384425,6.1099292 14.3384425,8.77329204 C14.3384425,11.4366549 12.1633628,13.6117345 9.5,13.6117345 Z M9.5,5.13336283 C7.49138053,5.13336283 5.87116814,6.76467257 5.87116814,8.76219469 C5.87116814,10.7597168 7.50247788,12.3910265 9.5,12.3910265 C11.5086195,12.3910265 13.1288319,10.7597168 13.1288319,8.76219469 C13.1288319,6.76467257 11.4975221,5.13336283 9.5,5.13336283 Z" id="Shape"></path>
            <circle id="Oval" cx="14.2718584" cy="4.07911504" r="1.00985841"></circle>
        </g>
        <path d="M139.629137,61.0341716 C140.014756,62.4869895 139.999924,65.5152988 139.999924,65.5152988 C139.999924,65.5152988 139.999924,68.5281676 139.629275,69.9811271 C139.421634,70.7763806 138.813818,71.4034891 138.042718,71.6175304 C136.63414,72 130.999962,72 130.999962,72 C130.999962,72 125.380479,72 123.957206,71.6023733 C123.186106,71.3881903 122.57829,70.7610818 122.37065,69.9658284 C122,68.5281676 122,65.5 122,65.5 C122,65.5 122,62.4869895 122.37065,61.0341716 C122.578153,60.2389182 123.200938,59.5965109 123.957069,59.3824696 C125.365647,59 130.999825,59 130.999825,59 C130.999825,59 136.63414,59 138.042718,59.3976267 C138.813681,59.6118097 139.421634,60.2387765 139.629137,61.0341716 Z M129.205902,68.2835287 L133.89114,65.5 L129.205902,62.7164713 L129.205902,68.2835287 Z" id="Combined-Shape" fill="#FFFFFF" fill-rule="nonzero"></path>
        <g id="Oval-1-path-2" transform="translate(84.000000, 59.000000)" fill="#FFFFFF">
            <path d="M8.65974838,3.98123126 L8.69840794,4.62855963 L8.0540814,4.54929494 C5.70873291,4.24544689 3.65977461,3.21500585 1.92009302,1.48439331 L1.06958201,0.625692433 L0.850511014,1.25980995 C0.386595908,2.67336373 0.682986099,4.1661822 1.64947587,5.17020168 C2.16493705,5.72505458 2.0489583,5.80431927 1.15978772,5.47404973 C0.850511014,5.3683634 0.579893862,5.28909871 0.554120742,5.32873113 C0.463915106,5.4212066 0.773191817,6.6233878 1.01803585,7.09897602 C1.35308568,7.75951517 2.03607178,8.40684347 2.78349047,8.78995621 L3.4149305,9.09380419 L2.66751172,9.10701497 C1.94586606,9.10701497 1.92009302,9.12022575 1.99741222,9.39765216 C2.25514285,10.2563531 3.2731787,11.1678971 4.40719339,11.5642206 L5.20615816,11.8416471 L4.51028554,12.2643921 C3.47936317,12.8720881 2.26802929,13.2155685 1.05669549,13.2419901 C0.476801626,13.2552008 1.40065737e-12,13.3080439 1.40065737e-12,13.3476763 C1.40065737e-12,13.4797841 1.57215667,14.219588 2.48710036,14.5102252 C5.23193128,15.368926 8.49222346,14.9990241 10.9406642,13.5326273 C12.6803458,12.4889754 14.4200274,10.4148825 15.2318788,8.40684347 C15.6700208,7.33677008 16.1081629,5.38157426 16.1081629,4.44360861 C16.1081629,3.83591266 16.1468224,3.75664797 16.8684681,3.03005491 C17.2937236,2.60730982 17.6932061,2.14493247 17.7705253,2.01282457 C17.8993905,1.76181972 17.8865041,1.76181972 17.229291,1.98640301 C16.1339359,2.38272654 15.9792975,2.32988341 16.5205318,1.73539816 C16.9200142,1.31265307 17.3968159,0.546427744 17.3968159,0.321844379 C17.3968159,0.282212034 17.2035179,0.348266021 16.9844469,0.467162976 C16.7524893,0.59927087 16.2370281,0.797432593 15.8504322,0.916329627 L15.1545596,1.14091291 L14.5231196,0.704957044 C14.1751832,0.467162976 13.6854952,0.202947345 13.4277646,0.123682656 C12.7705515,-0.0612682857 11.7654022,-0.0348467226 11.1726217,0.176525782 C9.56180547,0.77101103 8.54376954,2.30346185 8.65974838,3.98123126 C8.65974838,3.98123126 8.54376954,2.30346185 8.65974838,3.98123126 Z" id="Oval-1-path"></path>
        </g>
        <g id="Group-40" transform="translate(48.000000, 59.000000)">
            <g id="Group-39-Copy" transform="translate(5.072065, 2.219222)"></g>
            <polygon id="Oval-1-path" fill="#FFFFFF" points="0 4 0 14 2.95384615 13.9884473 2.95384615 4"></polygon>
            <path d="M1.48544381,-7.81597009e-13 C0.587224586,-7.81597009e-13 -1.16373577e-12,0.605316901 -1.16373577e-12,1.40005087 C-1.16373577e-12,2.17832314 0.569868443,2.80107004 1.45136078,2.80107004 L1.46814012,2.80107004 C2.38366308,2.80107004 2.95384615,2.17832314 2.95384615,1.40005087 C2.93680464,0.605316901 2.38366308,-7.81597009e-13 1.48544381,-7.81597009e-13 Z" id="Oval-1-path" fill="#FFFFFF"></path>
            <path d="M10.6938728,4 C9.10402563,4 8.39222419,4.89721526 7.99479229,5.52662796 L7.99479229,4 L5,4 C5.03946815,4.8673981 5,13.9884473 5,13.9884473 L7.99479229,13.9884473 L7.99479229,8.29864516 C7.99479229,8.02237602 8.0142274,7.74678173 8.0934028,7.54898205 C8.30981957,6.99705727 8.80257293,6.42562243 9.62984845,6.42562243 C10.713846,6.42562243 11.147158,7.27326506 11.147158,8.51546405 L11.147158,13.9884473 L14.1415916,13.9884473 L14.1415916,8.16078667 C14.1415916,5.32146605 12.6643481,4 10.6938728,4 Z" id="Oval-1-path" fill="#FFFFFF"></path>
        </g>
        <g id="Oval-1-path-3" transform="translate(20.000000, 59.000000)" fill="#FFFFFF">
            <path d="M5.85161576,17.8346667 L5.85161576,8.91628919 L8.45499592,8.91628919 L8.8,5.8429669 L5.85161576,5.8429669 L5.85603888,4.30473947 C5.85603888,3.5031697 5.93657672,3.07367031 7.15404304,3.07367031 L8.78157032,3.07367031 L8.78157032,8.78408457e-13 L6.17782152,8.78408457e-13 C3.05030056,8.78408457e-13 1.94949424,1.49089196 1.94949424,3.99810334 L1.94949424,5.843315 L4.3254289e-13,5.843315 L4.3254289e-13,8.91663721 L1.94949424,8.91663721 L1.94949424,17.8346667 L5.85161576,17.8346667 Z" id="Oval-1-path"></path>
        </g>
        <g id="Shape-2" transform="translate(58.000000, 20.000000)" fill="#FFFFFF" fill-rule="nonzero">
            <path d="M13.3602025,10.6267969 C13.335416,8.09394531 15.3891713,6.87921875 15.4809124,6.81886719 C14.3269555,5.09972656 12.5293536,4.86421875 11.8887781,4.83699219 C10.3589555,4.67929687 8.90372291,5.75394531 8.12732003,5.75394531 C7.35287399,5.75394531 6.15479245,4.8603125 4.88603466,4.88378906 C3.21858142,4.90902344 1.68108502,5.87085937 0.82249509,7.39121094 C-0.909955749,10.4517578 0.378830822,14.9857422 2.06738718,17.4678906 C2.8924807,18.6828906 3.87634641,20.0475 5.16812579,19.99875 C6.41209701,19.9482031 6.88250468,19.1792578 8.38646631,19.1792578 C9.89038957,19.1792578 10.3131809,19.99875 11.6295934,19.9735937 C12.9682217,19.9482812 13.8162984,18.7353516 14.6357133,17.5166406 C15.5832049,16.1071094 15.973344,14.7424609 15.9963656,14.6724219 C15.9666294,14.6585937 13.3860634,13.6521484 13.3602025,10.6267969 Z M10.8866102,3.19378906 C11.5722313,2.34695312 12.0350035,1.17207031 11.9087685,-8.52651283e-13 C10.9211809,0.0409375 9.72409701,0.669726562 9.01553106,1.51464844 C8.37975168,2.26417969 7.82320492,3.46046875 7.97234641,4.60910156 C9.07485001,4.69667969 10.2002601,4.03871094 10.8866102,3.19378906 Z" id="Shape"></path>
        </g>
        <g id="Group-41" transform="translate(130.000000, 20.000000)" fill="#FFFFFF" fill-rule="nonzero">
            <path d="M9.18863866,10.168 C9.01919328,9.94070588 8.83206723,9.72951261 8.62729412,9.53465546 C8.42255462,9.33956303 8.21778151,9.16194958 8.01314286,9.00205042 C7.80836975,8.84215126 7.6212437,8.68847059 7.45173109,8.5412437 C7.2822521,8.39421849 7.14467227,8.24057143 7.03912605,8.08067227 C6.93357983,7.92077311 6.88077311,7.75764706 6.88077311,7.59132773 C6.88077311,7.36090756 6.95438655,7.1450084 7.10151261,6.94346218 C7.24863866,6.74191597 7.42779832,6.54685714 7.63885714,6.35801681 C7.84994958,6.16921008 8.0610084,5.96295798 8.27226891,5.73902521 C8.48322689,5.5149916 8.66231933,5.21919328 8.80957983,4.85122689 C8.95657143,4.48336134 9.03018487,4.06272269 9.03018487,3.58931092 C9.03018487,3.02628571 8.90537815,2.48561345 8.65586555,1.96746218 C8.40635294,1.44921008 8.05452101,1.04605042 7.60023529,0.758184874 L8.89569748,0.758184874 L10.1912605,1.70530257e-13 L5.99768067,1.70530257e-13 C5.4027563,1.70530257e-13 4.80447059,0.0640672269 4.2032605,0.192268908 C3.31408403,0.390588235 2.56551261,0.843294118 1.95768067,1.55015126 C1.34994958,2.25714286 1.04601681,3.05848739 1.04601681,3.95418487 C1.04601681,4.90110924 1.38678992,5.68806723 2.06806723,6.31495798 C2.74937815,6.94181513 3.56672269,7.25539496 4.52,7.25539496 C4.71193277,7.25539496 4.93583193,7.23932773 5.19176471,7.20742857 C5.17895798,7.25855462 5.15670588,7.32732773 5.12463866,7.41368067 C5.09257143,7.50003361 5.0669916,7.56897479 5.04779832,7.62006723 C5.02863866,7.67119328 5.01260504,7.73351261 4.99989916,7.80715966 C4.98705882,7.88077311 4.98070588,7.956 4.98070588,8.03270588 C4.98070588,8.4549916 5.18527731,8.93166387 5.59485714,9.46265546 C5.10863866,9.47566387 4.62890756,9.51878992 4.15536134,9.59240336 C3.68194958,9.66601681 3.18618487,9.78117647 2.66789916,9.93794958 C2.14968067,10.0946218 1.68581513,10.3218151 1.27643697,10.6192941 C0.866957983,10.9169076 0.55989916,11.2702521 0.355159664,11.6797647 C0.118420168,12.1532437 1.16529009e-12,12.585042 1.16529009e-12,12.9753613 C1.16529009e-12,13.4039664 0.0960336134,13.7926387 0.28789916,14.1414118 C0.479764706,14.4899496 0.72605042,14.7747563 1.02678992,14.995395 C1.32746218,15.2162353 1.67462185,15.4015462 2.06806723,15.5521008 C2.46147899,15.7023529 2.85176471,15.8095462 3.23878992,15.8735126 C3.62588235,15.937479 4.00813445,15.9694454 4.38564706,15.9694454 C6.10016807,15.9694454 7.44383193,15.5504874 8.41620168,14.7124034 C9.31193277,13.9317983 9.75976471,13.0296471 9.75976471,12.0059496 C9.75976471,11.6410756 9.7069916,11.300605 9.60137815,10.9837983 C9.49579832,10.6667899 9.35831933,10.3950924 9.18863866,10.168 Z M5.48910924,6.67973109 C5.16282353,6.67973109 4.85257143,6.59653782 4.55821849,6.43011765 C4.26386555,6.26373109 4.01435294,6.04779832 3.80964706,5.78228571 C3.6050084,5.51680672 3.42584874,5.21771429 3.27226891,4.88497479 C3.1187563,4.55233613 3.0052437,4.21969748 2.93159664,3.88692437 C2.85798319,3.55431933 2.82121008,3.23757983 2.82121008,2.93684034 C2.82121008,2.32268908 2.98436975,1.79485714 3.31068908,1.35337815 C3.63690756,0.91189916 4.09761345,0.691159664 4.69260504,0.691159664 C5.11489076,0.691159664 5.49714286,0.822218487 5.83942857,1.08457143 C6.18171429,1.34689076 6.45042017,1.67956303 6.64561345,2.08262185 C6.84063866,2.48568067 6.99105882,2.90302521 7.09660504,3.33495798 C7.20215126,3.76678992 7.25495798,4.17472269 7.25495798,4.55858824 C7.25495798,5.19845378 7.11583193,5.71210084 6.83751261,6.09919328 C6.55912605,6.48618487 6.1097479,6.67973109 5.48910924,6.67973109 Z M8.14255462,13.8864874 C7.9667563,14.1872941 7.72847059,14.4222857 7.42769748,14.5917311 C7.1269916,14.7614118 6.80554622,14.8861176 6.46322689,14.9661849 C6.12094118,15.0463529 5.76107563,15.0862521 5.38356303,15.0862521 C4.97408403,15.0862521 4.56776471,15.0381513 4.16480672,14.9422521 C3.76178151,14.8464202 3.37626891,14.7006723 3.00840336,14.5055798 C2.64053782,14.3106218 2.34302521,14.0417815 2.11593277,13.6994622 C1.88880672,13.3571429 1.7752605,12.9685714 1.7752605,12.5334118 C1.7752605,12.1495798 1.86157983,11.8073277 2.03435294,11.506521 C2.20719328,11.2058487 2.42793277,10.9658824 2.69660504,10.7869244 C2.96531092,10.6076975 3.2787563,10.460437 3.63707563,10.3455462 C3.99539496,10.2301513 4.34084034,10.1503193 4.67347899,10.1055798 C5.00608403,10.0607059 5.3452437,10.038521 5.69068908,10.038521 C5.90188235,10.038521 6.06188235,10.0449412 6.17058824,10.0575798 C6.2090084,10.0833613 6.30648739,10.1503193 6.46329412,10.2591261 C6.62010084,10.3679328 6.72561345,10.4415798 6.78003361,10.4799664 C6.83431933,10.5181849 6.93354622,10.5917647 7.07751261,10.7005714 C7.22141176,10.8093782 7.32379832,10.8908571 7.38457143,10.9452437 C7.44517647,10.9996303 7.53317647,11.0812101 7.64840336,11.189916 C7.7634958,11.2987227 7.84833613,11.393042 7.90272269,11.4730084 C7.9570084,11.5529412 8.02426891,11.6504874 8.10426891,11.7655126 C8.18426891,11.8809076 8.24016807,11.9912269 8.27226891,12.0967731 C8.30413445,12.2023866 8.33458824,12.3175126 8.3632605,12.4422185 C8.392,12.5672605 8.40638655,12.6966387 8.40638655,12.8311261 C8.40655462,13.2340504 8.31855462,13.5859496 8.14255462,13.8864874 Z" id="Shape"></path>
            <polygon id="Path" points="13.5122017 6.45677311 13.5122017 4 12.2836639 4 12.2836639 6.45677311 9.82682353 6.45677311 9.82682353 7.6852437 12.2836639 7.6852437 12.2836639 10.1420168 13.5122017 10.1420168 13.5122017 7.6852437 15.9687731 7.6852437 15.9687731 6.45677311"></polygon>
        </g>
        <g id="Shape-3" transform="translate(20.000000, 20.000000)" fill="#FFFFFF" fill-rule="nonzero">
            <path d="M1.33156098,6.56793041 C0.596121951,6.56793041 1.44950718e-12,7.08167268 1.44950718e-12,7.71694072 L1.44950718e-12,12.6317345 C1.44950718e-12,13.2663531 0.596195122,13.7814665 1.33156098,13.7814665 C2.06626829,13.7814665 2.66312195,13.2664253 2.66312195,12.6317345 L2.66312195,7.71694072 C2.66319512,7.08232216 2.06634146,6.56793041 1.33156098,6.56793041 Z M11.4033659,1.76152835 L12.5670732,0.617064433 C12.7109268,0.475837629 12.7109268,0.247868557 12.5670732,0.105920103 C12.4232195,-0.035306701 12.1914146,-0.035306701 12.0474878,0.105920103 L10.6153902,1.51587887 C10.103122,1.39233247 9.56290244,1.32406443 9.00073171,1.32406443 C8.44521951,1.32406443 7.90960976,1.39175515 7.40334146,1.51198196 L5.97380488,0.105992268 C5.82995122,-0.0352345361 5.59741463,-0.0352345361 5.45421951,0.105992268 C5.31036585,0.247219072 5.31036585,0.475837629 5.45421951,0.617136598 L6.61192683,1.75568299 C4.68021951,2.48620876 3.33797561,4.07015722 3.33797561,5.91094072 C3.33797561,5.93331186 14.6620976,5.91223969 14.6620976,5.91094072 C14.6627561,4.07477577 13.3278293,2.49472423 11.4033659,1.76152835 Z M7.33470732,4.60035309 C6.96636585,4.60035309 6.66856098,4.3073634 6.66856098,3.94466237 C6.66856098,3.58268299 6.96629268,3.28897165 7.33470732,3.28897165 C7.70312195,3.28897165 8.00085366,3.58261082 8.00085366,3.94466237 C8.0015122,4.30664175 7.70173171,4.60035309 7.33470732,4.60035309 Z M10.6660244,4.60035309 C10.2976829,4.60035309 9.99987805,4.3073634 9.99987805,3.94466237 C9.99987805,3.58268299 10.2976098,3.28897165 10.6660244,3.28897165 C11.0343659,3.28897165 11.3321707,3.58261082 11.3321707,3.94466237 C11.3321707,4.30671392 11.0337073,4.60035309 10.6660244,4.60035309 Z M16.6544634,6.56793041 C15.9190244,6.56793041 15.3222439,7.08167268 15.3222439,7.71694072 L15.3222439,12.6317345 C15.3222439,13.2663531 15.9190976,13.7814665 16.6544634,13.7814665 C17.3898293,13.7814665 17.9853659,13.2657758 17.9853659,12.6317345 L17.9853659,7.71694072 C17.9853659,7.08232216 17.3885122,6.56793041 16.6544634,6.56793041 Z M3.33797561,14.4312397 C3.33797561,15.5152294 4.22926829,16.3929716 5.32968293,16.3968686 L5.32968293,19.8407242 C5.32968293,20.4759923 5.92587805,20.9904562 6.6612439,20.9904562 C7.39595122,20.9904562 7.99214634,20.4760644 7.99214634,19.8407242 L7.99214634,16.3968686 L9.99321951,16.3968686 L9.99321951,19.8407242 C9.99321951,20.4759923 10.5894146,20.9904562 11.3247805,20.9904562 C12.0594878,20.9904562 12.6556829,20.4760644 12.6556829,19.8407242 L12.6556829,16.3968686 L12.6643171,16.3968686 C13.7680976,16.3968686 14.6626829,15.5165284 14.6626829,14.4312397 L14.6626829,6.56598196 L3.33863415,6.56598196 L3.33863415,14.4312397 L3.33797561,14.4312397 Z" id="Shape"></path>
        </g>
    </g>
</svg>