<svg width="32" height="32" viewBox="0 0 32 32" fill="none" xmlns="http://www.w3.org/2000/svg">
<rect width="32" height="32" rx="16" fill="#227CF4"/>
<path d="M22.7391 24C20.9275 24 19.1377 23.6052 17.3696 22.8157C15.6014 22.0261 13.9928 20.9064 12.5435 19.4565C11.0942 18.0067 9.97478 16.398 9.18522 14.6304C8.39565 12.8629 8.00058 11.073 8 9.26087C8 9 8.08696 8.78261 8.26087 8.6087C8.43478 8.43478 8.65217 8.34783 8.91304 8.34783H12.4348C12.6377 8.34783 12.8188 8.41681 12.9783 8.55478C13.1377 8.69275 13.2319 8.85565 13.2609 9.04348L13.8261 12.087C13.8551 12.3188 13.8478 12.5145 13.8043 12.6739C13.7609 12.8333 13.6812 12.971 13.5652 13.087L11.4565 15.2174C11.7464 15.7536 12.0904 16.2716 12.4887 16.7713C12.887 17.271 13.3255 17.753 13.8043 18.2174C14.2536 18.6667 14.7246 19.0835 15.2174 19.4678C15.7101 19.8522 16.2319 20.2035 16.7826 20.5217L18.8261 18.4783C18.9565 18.3478 19.127 18.2501 19.3374 18.1852C19.5478 18.1203 19.7542 18.102 19.9565 18.1304L22.9565 18.7391C23.1594 18.7971 23.3261 18.9023 23.4565 19.0548C23.587 19.2072 23.6522 19.3774 23.6522 19.5652V23.087C23.6522 23.3478 23.5652 23.5652 23.3913 23.7391C23.2174 23.913 23 24 22.7391 24ZM16.6957 15.3043V10.087H18.4348V12.3478L22.7826 8L24 9.21739L19.6522 13.5652H21.913V15.3043H16.6957Z" fill="white"/>
</svg>
