<svg width="32" height="32" viewBox="0 0 32 32" fill="none" xmlns="http://www.w3.org/2000/svg">
<rect width="32" height="32" rx="16" fill="#227CF4"/>
<path d="M21.3335 15.3328H22.6668C22.6668 11.9128 20.0848 9.3335 16.6602 9.3335V10.6668C19.3682 10.6668 21.3335 12.6288 21.3335 15.3328Z" fill="white"/>
<path d="M16.6669 13.3333C18.0689 13.3333 18.6669 13.9313 18.6669 15.3333H20.0002C20.0002 13.1833 18.8169 12 16.6669 12V13.3333ZM18.9482 16.962C18.8202 16.8454 18.6518 16.7832 18.4787 16.7886C18.3056 16.7939 18.1414 16.8664 18.0209 16.9907L16.4255 18.6313C16.0415 18.558 15.2695 18.3173 14.4749 17.5247C13.6802 16.7293 13.4395 15.9553 13.3682 15.574L15.0075 13.978C15.1318 13.8574 15.2043 13.6932 15.2096 13.5201C15.215 13.3471 15.1528 13.1787 15.0362 13.0507L12.5729 10.342C12.4562 10.2136 12.2941 10.1357 12.121 10.1248C11.9478 10.114 11.7773 10.1711 11.6455 10.284L10.1989 11.5247C10.0836 11.6403 10.0148 11.7943 10.0055 11.9573C9.99552 12.124 9.80485 16.072 12.8662 19.1347C15.5369 21.8047 18.8822 22 19.8035 22C19.9382 22 20.0209 21.996 20.0429 21.9947C20.2057 21.985 20.3594 21.916 20.4749 21.8007L21.7149 20.3533C21.8278 20.2217 21.885 20.0512 21.8743 19.878C21.8636 19.7049 21.7859 19.5427 21.6575 19.426L18.9482 16.962Z" fill="white"/>
</svg>
