<svg width="32" height="32" viewBox="0 0 32 32" fill="none" xmlns="http://www.w3.org/2000/svg">
<rect width="32" height="32" rx="16" fill="white"/>
<path d="M9.33268 21H10.9993V24.4008L15.2502 21H19.3327C20.2518 21 20.9993 20.2525 20.9993 19.3333V12.6667C20.9993 11.7475 20.2518 11 19.3327 11H9.33268C8.41352 11 7.66602 11.7475 7.66602 12.6667V19.3333C7.66602 20.2525 8.41352 21 9.33268 21Z" fill="#0075EB"/>
<path d="M22.6667 7.6665H12.6667C11.7475 7.6665 11 8.414 11 9.33317H21C21.9192 9.33317 22.6667 10.0807 22.6667 10.9998V17.6665C23.5858 17.6665 24.3333 16.919 24.3333 15.9998V9.33317C24.3333 8.414 23.5858 7.6665 22.6667 7.6665Z" fill="#0075EB"/>
</svg>
