<svg width="271" height="476" viewBox="0 0 271 476" fill="none" xmlns="http://www.w3.org/2000/svg">
<path fill-rule="evenodd" clip-rule="evenodd" d="M27.9992 213.5L23.8847 215.663L24.6705 211.082L21.3418 207.837L25.9419 207.168L27.9992 203L30.0564 207.168L34.6566 207.837L31.3279 211.082L32.1137 215.663L27.9992 213.5Z" fill="#F4C150"/>
<path d="M194.5 310C208.583 310 220 298.583 220 284.5C220 270.417 208.583 259 194.5 259C180.417 259 169 270.417 169 284.5C169 298.583 180.417 310 194.5 310Z" fill="black"/>
<path d="M194.5 310C208.583 310 220 298.583 220 284.5C220 270.417 208.583 259 194.5 259C180.417 259 169 270.417 169 284.5C169 298.583 180.417 310 194.5 310Z" fill="white"/>
<path fill-rule="evenodd" clip-rule="evenodd" d="M201.54 285.456L190.703 295.019V275.894L201.54 285.456Z" fill="#1179EF"/>
<path fill-rule="evenodd" clip-rule="evenodd" d="M167.327 191.167C165.717 188.006 162.449 186 158.831 186C153.407 186 149 190.483 149 196C149 201.517 153.407 206 158.831 206C164.256 206 168.662 201.517 168.662 196C168.662 195.716 168.436 195.486 168.156 195.486H167.094L166.987 195.496C166.848 195.525 166.724 195.613 166.651 195.741C166.559 195.901 166.559 196.099 166.651 196.259C166.743 196.419 166.913 196.516 167.095 196.514H167.67L167.629 196.917C167.396 198.792 166.616 200.585 165.362 202.008L165.023 201.568L164.952 201.507C164.852 201.435 164.728 201.401 164.604 201.415C164.41 201.437 164.246 201.571 164.182 201.757C164.118 201.944 164.165 202.151 164.303 202.29L164.74 202.735L164.455 202.973C163.005 204.136 161.199 204.869 159.272 204.965L159.337 204.385L159.329 204.283C159.31 204.182 159.262 204.089 159.189 204.015C159.092 203.916 158.96 203.862 158.823 203.864C158.689 203.866 158.561 203.923 158.467 204.021C158.374 204.119 158.323 204.25 158.325 204.386V205.027L157.953 204.989C156.099 204.758 154.323 203.952 152.913 202.653L153.36 202.29L153.427 202.206C153.523 202.058 153.537 201.866 153.458 201.701C153.364 201.503 153.155 201.388 152.94 201.415C152.825 201.43 152.719 201.484 152.639 201.568L152.196 202.019L151.964 201.729C150.834 200.254 150.121 198.413 150.026 196.449L150.582 196.514L150.689 196.504C150.828 196.475 150.952 196.387 151.025 196.259C151.117 196.099 151.117 195.901 151.025 195.741C150.933 195.581 150.763 195.484 150.581 195.486H149.964L150.005 195.082C150.237 193.199 151.025 191.403 152.293 189.978L152.64 190.425L152.722 190.496C152.84 190.577 152.989 190.605 153.131 190.568C153.309 190.522 153.448 190.382 153.495 190.203C153.542 190.023 153.49 189.832 153.359 189.702L152.922 189.258L153.209 189.022C154.663 187.866 156.468 187.138 158.39 187.042L158.325 187.608L158.335 187.716C158.363 187.858 158.45 187.983 158.576 188.058C158.733 188.152 158.929 188.152 159.087 188.058C159.244 187.964 159.34 187.792 159.337 187.607V186.98L159.671 187.01C162.662 187.338 165.335 189.2 166.706 191.955L164.527 191.352L164.425 191.339C164.189 191.335 163.975 191.499 163.922 191.741C163.861 192.018 164.032 192.293 164.305 192.355L167.629 193.117L167.729 193.13C167.829 193.133 167.929 193.105 168.015 193.05C168.129 192.976 168.209 192.858 168.238 192.724L168.987 189.336L169 189.236C169.003 189.136 168.977 189.035 168.924 188.948C168.852 188.832 168.739 188.75 168.607 188.719C168.475 188.688 168.336 188.712 168.221 188.786C168.107 188.86 168.026 188.978 167.998 189.113L167.478 191.476L167.327 191.167ZM159.173 189.951C159.066 189.851 158.921 189.803 158.776 189.819L158.681 189.839C158.469 189.905 158.32 190.108 158.325 190.341V194.504L158.183 194.546C157.629 194.749 157.229 195.338 157.229 196C157.229 196.894 157.952 197.629 158.831 197.629C159.095 197.629 159.356 197.559 159.59 197.431L161.604 199.551L161.687 199.62C161.807 199.699 161.955 199.724 162.096 199.685C162.271 199.638 162.408 199.498 162.455 199.32C162.502 199.142 162.452 198.952 162.324 198.822L160.228 196.698L160.302 196.588C160.39 196.428 160.434 196.217 160.434 196C160.434 195.282 159.963 194.651 159.293 194.444L159.337 190.339L159.328 190.231C159.308 190.125 159.254 190.026 159.173 189.951Z" fill="#81868A"/>
<path fill-rule="evenodd" clip-rule="evenodd" d="M233.761 186.476C233.761 186.213 233.974 186 234.237 186C234.5 186 234.713 186.213 234.713 186.476V188.693C235.397 188.901 235.904 189.537 235.904 190.286C235.904 191.201 235.152 191.952 234.237 191.952C233.322 191.952 232.57 191.201 232.57 190.286C232.57 189.537 233.077 188.901 233.761 188.693V186.476ZM234.951 190.286C234.951 189.886 234.637 189.571 234.237 189.571C233.837 189.571 233.523 189.886 233.523 190.286C233.523 190.686 233.837 191 234.237 191C234.637 191 234.951 190.686 234.951 190.286Z" fill="#81868A"/>
<path fill-rule="evenodd" clip-rule="evenodd" d="M243.286 186.476C243.286 186.213 243.499 186 243.762 186C244.025 186 244.239 186.213 244.239 186.476V188.693C244.923 188.901 245.429 189.537 245.429 190.286C245.429 191.201 244.677 191.952 243.762 191.952C242.848 191.952 242.096 191.201 242.096 190.286C242.096 189.537 242.602 188.901 243.286 188.693V186.476ZM244.477 190.286C244.477 189.886 244.163 189.571 243.762 189.571C243.362 189.571 243.048 189.886 243.048 190.286C243.048 190.686 243.362 191 243.762 191C244.163 191 244.477 190.686 244.477 190.286Z" fill="#81868A"/>
<path fill-rule="evenodd" clip-rule="evenodd" d="M229 203.624V188.716C229 187.401 230.074 186.952 231.388 186.952H232.81C233.061 186.949 233.293 187.177 233.293 187.428C233.293 187.68 233.061 187.908 232.81 187.905H231.388C230.586 187.905 229.952 188.538 229.952 189.341V192.667H248.048V189.341C248.048 188.538 247.414 187.905 246.612 187.905H245.191C244.939 187.908 244.707 187.68 244.707 187.428C244.707 187.177 244.939 186.949 245.191 186.952H246.612C247.926 186.952 249 188.026 249 189.341V203.624C249 204.938 247.926 206.012 246.612 206.012H244.863H231.388C230.074 206.012 229 204.938 229 203.624ZM248.048 203.6V193.619H229.952V203.6C229.952 204.402 230.586 205.036 231.388 205.036H246.612C247.414 205.036 248.048 204.402 248.048 203.6Z" fill="#81868A"/>
<path d="M235.622 186.952C235.373 186.964 235.157 187.201 235.168 187.451C235.18 187.7 235.418 187.916 235.667 187.905H242.334C242.585 187.908 242.817 187.68 242.817 187.428C242.817 187.177 242.585 186.949 242.334 186.952H235.622Z" fill="#81868A"/>
<path d="M241.008 197.239C241.219 197.025 241.572 197.014 241.797 197.215C242.002 197.396 242.03 197.69 241.875 197.903L241.823 197.964L238.477 201.768C238.288 201.983 237.957 201.996 237.752 201.796L236.125 200.206C235.895 200.011 235.876 199.675 236.083 199.458C236.27 199.26 236.579 199.227 236.806 199.37L236.871 199.418L238.062 200.682L241.008 197.239Z" fill="#81868A"/>
<path fill-rule="evenodd" clip-rule="evenodd" d="M30.9518 260.457C36.1719 260.457 40.4036 256.214 40.4036 250.979C40.4036 245.744 36.1719 241.5 30.9518 241.5C25.7317 241.5 21.5 245.744 21.5 250.979C21.5 256.214 25.7317 260.457 30.9518 260.457Z" stroke="#848DA0"/>
<path fill-rule="evenodd" clip-rule="evenodd" d="M30 247.7V254.117L34 250.909L30 247.7Z" fill="#848DA0"/>
<path d="M73.3536 247.647L73.0001 247.293L72.6465 247.647L67.6465 252.647L68.3536 253.354L73.3536 248.354H72.6465L77.6465 253.354L78.3536 252.647L73.3536 247.647Z" fill="#81868A" stroke="#81868A" stroke-width="0.5" stroke-linejoin="round"/>
<path d="M117.354 254.353L117 254.707L116.646 254.353L111.646 249.353L112.354 248.646L117.354 253.646H116.646L121.646 248.646L122.354 249.353L117.354 254.353Z" fill="#81868A" stroke="#81868A" stroke-width="0.5" stroke-linejoin="round"/>
<path d="M165 142H141V166H165V142Z" fill="white"/>
<path fill-rule="evenodd" clip-rule="evenodd" d="M161.531 147.251C160.857 147.644 160.111 147.93 159.315 148.083C158.68 147.417 157.773 147 156.769 147C154.845 147 153.283 148.537 153.283 150.433C153.283 150.703 153.313 150.964 153.373 151.215C150.474 151.072 147.905 149.706 146.183 147.627C145.883 148.136 145.711 148.726 145.711 149.355C145.711 150.545 146.327 151.596 147.263 152.212C146.692 152.195 146.153 152.039 145.682 151.784V151.826C145.682 153.49 146.885 154.878 148.481 155.192C148.189 155.273 147.88 155.314 147.562 155.314C147.338 155.314 147.118 155.293 146.906 155.253C147.35 156.616 148.637 157.609 150.164 157.636C148.97 158.557 147.466 159.106 145.832 159.106C145.551 159.106 145.272 159.09 145 159.059C146.543 160.031 148.377 160.6 150.347 160.6C156.762 160.6 160.27 155.369 160.27 150.832C160.27 150.682 160.267 150.533 160.261 150.387C160.942 149.903 161.534 149.299 162 148.61C161.375 148.883 160.703 149.068 159.997 149.15C160.718 148.726 161.271 148.053 161.531 147.251Z" fill="#1179EF"/>
<path d="M209 142H185V166H209V142Z" fill="white"/>
<path fill-rule="evenodd" clip-rule="evenodd" d="M192.522 151.764V161.857H189.403V151.764H192.522ZM201.042 151.667C203.259 151.667 205 153.119 205 156.245V161.857H201.464V156.634C201.464 155.267 200.911 154.334 199.694 154.334C198.764 154.334 198.247 154.964 198.006 155.571C197.916 155.789 197.929 156.092 197.929 156.396V161.857H194.426L194.427 161.757C194.429 161.213 194.441 158.542 194.445 156.09L194.446 155.507C194.446 155.411 194.446 155.315 194.446 155.221V154.133C194.445 152.932 194.439 152.005 194.426 151.764H197.929V153.348C198.136 152.656 199.256 151.667 201.042 151.667ZM190.905 147C192.056 147 192.763 147.754 192.786 148.749C192.786 149.728 192.056 150.502 190.883 150.502H190.861C189.732 150.502 189 149.73 189 148.752C189 147.755 189.753 147 190.905 147Z" fill="#1179EF"/>
<path d="M47 212C73.8634 210.667 93.701 210 106.513 210C119.325 210 127.154 210.667 130 212" stroke="#F1B006" stroke-width="4"/>
<path d="M59 290C77.1247 289.333 90.5091 289 99.1533 289C107.797 289 113.08 289.333 115 290" stroke="#F1B006" stroke-width="4"/>
<path d="M59 321C79.0666 319.667 93.8851 319 103.455 319C113.026 319 118.874 319.667 121 321" stroke="#F1B006" stroke-width="4"/>
<path d="M190.6 20.7002H149.4C147.6 20.7002 146.1 22.2002 146.1 24.0002V52.8002C146.1 54.6002 147.6 56.2002 149.5 56.2002H163C163.3 56.2002 163.5 56.4002 163.5 56.7002C163.5 60.7002 162.1 62.2002 161.5 62.7002C161.4 62.8002 161.3 62.8002 161.2 62.8002H157.4C156.9 62.8002 156.5 63.2002 156.5 63.7002C156.5 64.2002 156.9 64.6002 157.4 64.6002H182.6C183.1 64.6002 183.5 64.2002 183.5 63.7002C183.5 63.2002 183.1 62.8002 182.6 62.8002H164.6C164.4 62.8002 164.3 62.7002 164.2 62.6002C164.1 62.5002 164.1 62.3002 164.2 62.1002C164.9 60.7002 165.3 58.9002 165.3 56.7002C165.3 56.4002 165.5 56.2002 165.8 56.2002H172.8C173.3 56.2002 173.7 55.8002 173.7 55.3002C173.7 54.8002 173.3 54.4002 172.8 54.4002H149.4C148.6 54.4002 147.9 53.7002 147.9 52.9002V24.0002C147.9 23.2002 148.6 22.5002 149.4 22.5002H190.6C191.4 22.5002 192.1 23.2002 192.1 24.0002V45.4002C192.1 45.9002 192.5 46.3002 193 46.3002C193.5 46.3002 193.9 45.9002 193.9 45.4002V24.0002C193.9 22.2002 192.4 20.7002 190.6 20.7002Z" fill="#1179EF"/>
<path d="M146.1 24.0001V45.4001C146.1 45.9001 146.5 46.3001 147 46.3001C147.5 46.3001 147.9 45.9001 147.9 45.4001V24.0001C147.9 23.2001 148.5 22.5001 149.4 22.5001H190.6C191.4 22.5001 192.1 23.1001 192.1 24.0001V52.8001C192.1 53.6001 191.5 54.3001 190.6 54.3001H167.2C166.7 54.3001 166.3 54.7001 166.3 55.2001C166.3 55.7001 166.7 56.1001 167.2 56.1001H174.2C174.5 56.1001 174.7 56.3001 174.7 56.6001C174.7 58.8001 175.1 60.6001 175.8 62.0001C175.9 62.1001 175.9 62.3001 175.8 62.5001C175.7 62.6001 175.6 62.7001 175.4 62.7001H157.4C156.9 62.7001 156.5 63.1001 156.5 63.6001C156.5 64.1001 156.9 64.5001 157.4 64.5001H182.6C183.1 64.5001 183.5 64.1001 183.5 63.6001C183.5 63.1001 183.1 62.7001 182.6 62.7001H178.8C178.7 62.7001 178.6 62.7001 178.5 62.6001C177.9 62.1001 176.5 60.6001 176.5 56.6001C176.5 56.3001 176.7 56.1001 177 56.1001H190.6C192.4 56.1001 194 54.6001 194 52.7001V24.0001C194 22.2001 192.5 20.6001 190.6 20.6001H149.4C147.6 20.7001 146.1 22.2001 146.1 24.0001Z" fill="#1179EF"/>
<path d="M153.299 39.1001L156.099 41.9001C156.099 41.9001 156.199 41.9001 156.199 42.0001C156.199 42.0001 156.299 42.0001 156.299 42.1001H156.399H156.499C156.599 42.1001 156.699 42.2001 156.799 42.2001C156.899 42.2001 156.999 42.2001 157.199 42.1001C157.199 42.1001 157.299 42.1001 157.299 42.0001C157.299 41.9001 157.399 42.0001 157.399 41.9001C157.399 41.9001 157.399 41.9001 157.499 41.9001C157.499 41.9001 157.499 41.8001 157.599 41.8001L157.699 41.7001L161.899 36.1001C162.099 35.9001 162.099 35.6001 162.099 35.4001C162.099 35.1001 161.899 34.9001 161.699 34.8001C161.499 34.7001 161.299 34.6001 161.099 34.6001C160.799 34.6001 160.499 34.7001 160.399 35.0001L156.999 39.4001C156.899 39.5001 156.799 39.6001 156.699 39.6001C156.599 39.6001 156.499 39.6001 156.399 39.5001L154.699 37.8001C154.499 37.6001 154.299 37.5001 153.999 37.5001C153.699 37.5001 153.499 37.6001 153.299 37.8001C152.999 38.1001 152.999 38.7001 153.299 39.1001Z" fill="#1179EF"/>
<path d="M172.299 39.7999C172.299 39.2999 171.899 38.8999 171.399 38.8999H167.199C166.699 38.8999 166.299 39.2999 166.299 39.7999C166.299 40.2999 166.699 40.6999 167.199 40.6999H171.399C171.899 40.7999 172.299 40.3999 172.299 39.7999Z" fill="#1179EF"/>
<path d="M174.998 39.7999C174.998 40.2999 175.398 40.6999 175.898 40.6999H184.298C184.798 40.6999 185.198 40.2999 185.198 39.7999C185.198 39.2999 184.798 38.8999 184.298 38.8999H175.998C175.398 38.8999 174.998 39.2999 174.998 39.7999Z" fill="#1179EF"/>
<path d="M156.1 33.5001C156.1 33.5001 156.2 33.5001 156.1 33.5001C156.2 33.6001 156.3 33.6001 156.3 33.6001H156.4H156.5C156.6 33.6001 156.7 33.7001 156.8 33.7001C156.9 33.7001 157 33.7001 157.2 33.6001C157.2 33.6001 157.3 33.6001 157.3 33.5001C157.3 33.5001 157.4 33.5001 157.4 33.4001C157.4 33.4001 157.4 33.4001 157.5 33.4001C157.5 33.4001 157.5 33.3001 157.6 33.3001L157.7 33.2001L161.9 27.6001C162.1 27.4001 162.1 27.1001 162.1 26.9001C162.1 26.6001 161.9 26.4001 161.7 26.3001C161.5 26.2001 161.3 26.1001 161.1 26.1001C160.8 26.1001 160.5 26.2001 160.4 26.5001L157 31.0001C156.9 31.1001 156.8 31.2001 156.7 31.2001C156.6 31.2001 156.5 31.2001 156.4 31.1001L154.7 29.4001C154.5 29.2001 154.3 29.1001 154 29.1001C153.7 29.1001 153.5 29.2001 153.3 29.4001C152.9 29.8001 152.9 30.4001 153.3 30.7001L156.1 33.5001Z" fill="#1179EF"/>
<path d="M176.501 31.4C176.501 30.9 176.101 30.5 175.601 30.5H167.201C166.701 30.5 166.301 30.9 166.301 31.4C166.301 31.9 166.701 32.3 167.201 32.3H175.601C176.101 32.4 176.501 32 176.501 31.4Z" fill="#1179EF"/>
<path d="M184.401 32.4001C184.901 32.4001 185.301 32.0001 185.301 31.5001C185.301 31.0001 184.901 30.6001 184.401 30.6001H180.201C179.701 30.6001 179.301 31.0001 179.301 31.5001C179.301 32.0001 179.701 32.4001 180.201 32.4001H184.401Z" fill="#1179EF"/>
<path d="M154 47.8H184.4C184.9 47.8 185.3 47.4 185.3 46.9C185.3 46.4 184.9 46 184.4 46H154C153.5 46 153.1 46.4 153.1 46.9C153.1 47.4 153.5 47.8 154 47.8Z" fill="#1179EF"/>
<path d="M246.703 21H227.84C225.728 21 224 22.7279 224 24.8397V63.1603C224 65.2721 225.728 67 227.84 67H246.703C248.814 67 250.542 65.2721 250.542 63.1603V24.8397C250.542 22.7279 248.814 21 246.703 21ZM227.84 22.7655H246.703C247.846 22.7655 248.777 23.696 248.777 24.8397V27.1089H225.765V24.8397C225.765 23.696 226.696 22.7655 227.84 22.7655ZM248.777 28.8744V57.7608H225.765V28.8744H248.777ZM246.703 65.2345H227.84C226.696 65.2345 225.765 64.304 225.765 63.1603V59.5263H248.777V63.1603C248.777 64.304 247.846 65.2345 246.703 65.2345Z" fill="#1179EF"/>
<path d="M237.271 60.1836C236.086 60.1836 235.121 61.148 235.121 62.3334C235.121 63.5188 236.086 64.4833 237.271 64.4833C238.456 64.4833 239.421 63.5188 239.421 62.3334C239.421 61.148 238.456 60.1836 237.271 60.1836ZM237.271 62.7178C237.059 62.7178 236.887 62.5454 236.887 62.3334C236.887 62.1215 237.059 61.9491 237.271 61.9491C237.483 61.9491 237.655 62.1215 237.655 62.3334C237.655 62.5454 237.483 62.7178 237.271 62.7178Z" fill="#1179EF"/>
<path d="M237.271 26.0015C237.824 26.0015 238.271 25.5537 238.271 25.0015C238.271 24.4492 237.824 24.0015 237.271 24.0015C236.719 24.0015 236.271 24.4492 236.271 25.0015C236.271 25.5537 236.719 26.0015 237.271 26.0015Z" fill="#1179EF"/>
<path d="M237.271 54.1204C242.86 54.1204 247.391 49.5894 247.391 44.0001C247.391 38.4109 242.86 33.8799 237.271 33.8799C231.681 33.8799 227.15 38.4109 227.15 44.0001C227.15 49.5894 231.681 54.1204 237.271 54.1204ZM237.271 35.6453C241.877 35.6453 245.625 39.3933 245.625 44.0001C245.625 48.607 241.877 52.3549 237.271 52.3549C232.664 52.3549 228.916 48.607 228.916 44.0001C228.916 39.3933 232.664 35.6453 237.271 35.6453Z" fill="#1179EF"/>
<path d="M244.091 43.1171H237.865V37.2202H236.1V44.8825H244.091V43.1171Z" fill="#1179EF"/>
<path d="M122.421 61.4638H95.5789C93.6105 61.4638 92 59.9447 92 58.0681V30.7234C92 30.1872 92.4474 29.7404 92.9842 29.7404C93.5211 29.7404 93.9684 30.1872 93.9684 30.7234V58.0681C93.9684 58.783 94.6842 59.4085 95.4895 59.4085H122.332C123.226 59.4085 123.853 58.783 123.853 58.0681V23.3957C123.853 22.6808 123.137 22.0553 122.332 22.0553H102.647C102.111 22.0553 101.663 21.6085 101.663 21.0723C101.663 20.5362 102.111 20.0894 102.647 20.0894H122.332C124.3 20.0894 125.911 21.6085 125.911 23.4851V58.1574C126 59.9447 124.389 61.4638 122.421 61.4638Z" fill="#1179EF"/>
<path d="M100.142 31.7066H92.9839C92.5366 31.7066 92.1787 31.4385 92.0892 31.081C91.9102 30.7236 91.9997 30.2768 92.2681 30.0087L101.931 20.3576C102.2 20.0896 102.647 20.0002 103.005 20.1789C103.363 20.3576 103.631 20.7151 103.631 21.0725V28.4002C103.721 30.2768 102.11 31.7066 100.142 31.7066ZM95.3997 29.7406H100.142C101.037 29.7406 101.663 29.1151 101.663 28.4002V23.4853L95.3997 29.7406Z" fill="#1179EF"/>
<path d="M109.447 49.7577L115.531 43.6811C115.889 43.3236 115.889 42.6087 115.531 42.2513C115.352 42.0726 115.084 41.9832 114.816 41.9832C114.547 41.9832 114.279 42.0726 114.1 42.2513L110.521 45.8257V31.9747C110.521 31.4385 110.073 30.9917 109.537 30.9917C109 30.9917 108.552 31.4385 108.552 31.9747V45.8257L104.973 42.2513C104.794 42.0726 104.526 41.9832 104.258 41.9832C103.989 41.9832 103.721 42.0726 103.542 42.2513C103.184 42.6087 103.184 43.3236 103.542 43.6811L109.447 49.7577Z" fill="#1179EF"/>
<path d="M118.484 53.4215H100.41C99.8731 53.4215 99.4258 52.9747 99.4258 52.4385C99.4258 51.9024 99.8731 51.4556 100.41 51.4556H118.484C119.021 51.4556 119.468 51.9024 119.468 52.4385C119.468 52.9747 119.021 53.4215 118.484 53.4215Z" fill="#1179EF"/>
<path d="M69.0852 50.0077H48.3871C47.8448 50.0077 47.3929 49.5558 47.3929 49.0135C47.3929 48.4712 47.8448 48.0192 48.3871 48.0192H69.0852C69.3563 48.0192 69.5371 47.8385 69.5371 47.5673V22.4404C69.5371 22.1692 69.3563 21.9885 69.0852 21.9885H36.7275C36.4563 21.9885 36.2756 22.1692 36.2756 22.4404V28.0442C36.2756 28.5865 35.8236 29.0385 35.2813 29.0385C34.739 29.0385 34.2871 28.5865 34.2871 28.0442V22.4404C34.2871 21.0846 35.3717 20 36.7275 20H69.0852C70.441 20 71.5256 21.0846 71.5256 22.4404V47.4769C71.5256 48.8327 70.441 50.0077 69.0852 50.0077Z" fill="#1179EF"/>
<path d="M44.5004 60.1306H21.9043C21.4524 60.1306 21.0908 59.7691 21.0908 59.3171V51.4537C21.0908 47.0248 26.1524 45.9402 27.7793 45.6691C28.0504 45.6691 28.2312 45.6691 28.2312 45.6691C28.8639 45.6691 29.3158 45.4883 29.587 45.2171C29.8581 44.8556 29.8581 44.3133 29.7677 43.9518C29.7677 43.8614 29.7677 43.8614 29.7677 43.771C29.7677 43.3191 30.1293 42.9575 30.5812 42.9575C30.9427 42.9575 31.3043 43.2287 31.3947 43.6806C31.4851 44.4037 31.5754 45.3979 30.8524 46.2114C30.3101 46.8441 29.4966 47.2056 28.412 47.296C28.412 47.296 28.2312 47.296 28.0504 47.3864C26.7851 47.5671 22.7177 48.3806 22.7177 51.6344V58.6844H43.7774V51.6344C43.7774 48.471 39.71 47.5671 38.535 47.3864C38.2639 47.3864 38.1735 47.296 38.0831 47.296C36.9985 47.2056 36.1851 46.8441 35.6427 46.2114C35.1004 45.5787 35.0101 44.6748 35.1908 43.6806C35.2812 43.2287 35.7331 42.9575 36.0947 43.0479C36.5466 43.1383 36.8177 43.5902 36.7274 43.9518C36.637 44.2229 36.637 44.8556 36.9081 45.2171C37.0889 45.4883 37.5408 45.6691 38.1735 45.6691C38.1735 45.6691 38.3543 45.6691 38.7158 45.7594C40.2524 45.9402 45.3139 47.0248 45.3139 51.5441V59.4075C45.3139 59.7691 44.9524 60.1306 44.5004 60.1306Z" fill="#1179EF"/>
<path d="M33.2027 60.1304C32.8412 60.1304 32.57 59.9496 32.4797 59.6784L27.0566 46.8438C26.8758 46.4823 27.0566 45.94 27.5085 45.7592C27.87 45.5784 28.4123 45.7592 28.5931 46.2111L33.2027 57.3284L37.8123 46.2111C37.9931 45.8496 38.445 45.5784 38.897 45.7592C39.2585 45.94 39.5297 46.3919 39.3489 46.8438L34.0162 59.6784C33.8354 59.9496 33.5643 60.1304 33.2027 60.1304Z" fill="#1179EF"/>
<path d="M34.9203 56.0635C34.5587 56.0635 34.1972 55.7923 34.1068 55.3404L33.1126 48.2C33.0222 47.7481 33.3837 47.3866 33.8357 47.2962C34.2876 47.2058 34.6491 47.5673 34.7395 48.0192L35.7337 55.1596C35.8241 55.6116 35.4626 55.9731 35.0107 56.0635H34.9203Z" fill="#1179EF"/>
<path d="M31.4853 56.0637H31.395C30.943 55.9733 30.6719 55.6118 30.6719 55.1598L31.6661 48.0195C31.7565 47.5675 32.118 47.2964 32.57 47.2964C33.0219 47.3868 33.293 47.7483 33.293 48.2002L32.2988 55.3406C32.2084 55.7925 31.9373 56.0637 31.4853 56.0637Z" fill="#1179EF"/>
<path d="M34.7391 48.9233H31.666C31.2141 48.9233 30.8525 48.5618 30.8525 48.1098C30.8525 47.6579 31.2141 47.2964 31.666 47.2964H34.7391C35.191 47.2964 35.5525 47.6579 35.5525 48.1098C35.5525 48.5618 35.191 48.9233 34.7391 48.9233Z" fill="#1179EF"/>
<path d="M40.4336 60.1305C39.9817 60.1305 39.6201 59.7689 39.6201 59.317V56.6055C39.6201 56.1535 39.9817 55.792 40.4336 55.792C40.8855 55.792 41.247 56.1535 41.247 56.6055V59.317C41.247 59.7689 40.8855 60.1305 40.4336 60.1305Z" fill="#1179EF"/>
<path d="M25.9717 60.1305C25.5197 60.1305 25.1582 59.7689 25.1582 59.317V56.6055C25.1582 56.1535 25.5197 55.792 25.9717 55.792C26.4236 55.792 26.7851 56.1535 26.7851 56.6055V59.317C26.7851 59.7689 26.4236 60.1305 25.9717 60.1305Z" fill="#1179EF"/>
<path d="M33.2025 45.4882C29.4063 45.4882 26.7852 41.2401 26.7852 37.3536C26.7852 33.3767 29.4967 30.4844 33.2025 30.4844C36.9082 30.4844 39.6198 33.3767 39.6198 37.3536C39.6198 41.2401 36.9986 45.4882 33.2025 45.4882ZM33.2025 32.1113C30.4005 32.1113 28.4121 34.2805 28.4121 37.3536C28.4121 40.6978 30.7621 43.8613 33.2025 43.8613C35.6428 43.8613 37.9928 40.6978 37.9928 37.3536C37.9928 34.3709 36.0044 32.1113 33.2025 32.1113Z" fill="#1179EF"/>
<path d="M47.3927 43.7711C46.8504 43.7711 46.3984 43.3191 46.3984 42.7768V37.0826C46.3984 36.5403 46.8504 36.0884 47.3927 36.0884C47.935 36.0884 48.3869 36.5403 48.3869 37.0826V42.7768C48.3869 43.3191 47.935 43.7711 47.3927 43.7711Z" fill="#1179EF"/>
<path d="M52.4542 43.7709C51.9119 43.7709 51.46 43.319 51.46 42.7767V32.2921C51.46 31.7498 51.9119 31.2979 52.4542 31.2979C52.9965 31.2979 53.4484 31.7498 53.4484 32.2921V42.6863C53.4484 43.319 52.9965 43.7709 52.4542 43.7709Z" fill="#1179EF"/>
<path d="M57.4259 43.7711C56.8836 43.7711 56.4316 43.3192 56.4316 42.7769V29.4903C56.4316 28.948 56.8836 28.4961 57.4259 28.4961C57.9682 28.4961 58.4201 28.948 58.4201 29.4903V42.7769C58.5105 43.3192 58.0586 43.7711 57.4259 43.7711Z" fill="#1179EF"/>
<path d="M62.4874 43.771C61.9451 43.771 61.4932 43.3191 61.4932 42.7768V26.2364C61.4932 25.6941 61.9451 25.2422 62.4874 25.2422C63.0297 25.2422 63.4816 25.6941 63.4816 26.2364V42.7768C63.4816 43.3191 63.0297 43.771 62.4874 43.771Z" fill="#1179EF"/>
<path d="M239 153.5H229V154.5H239V153.5Z" fill="#1179EF"/>
<path d="M235.029 159.384L240.029 154.384L240.383 154.03L240.029 153.677L235.029 148.677L234.322 149.384L239.322 154.384V153.677L234.322 158.677L235.029 159.384Z" fill="#1179EF"/>
<path fill-rule="evenodd" clip-rule="evenodd" d="M71 177.25H89.1061L84.5317 172.762L86.3333 171L94 178.5L86.3333 186L84.5317 184.238L89.1061 179.75H71V177.25Z" fill="#1179EF"/>
<path fill-rule="evenodd" clip-rule="evenodd" d="M51 177.25H32.8939L37.4683 172.762L35.6667 171L28 178.5L35.6667 186L37.4683 184.238L32.8939 179.75H51V177.25Z" fill="#1179EF"/>
<path fill-rule="evenodd" clip-rule="evenodd" d="M52 102.25H33.8939L38.4683 97.7625L36.6667 96L29 103.5L36.6667 111L38.4683 109.238L33.8939 104.75H52V102.25Z" fill="#CEDBE9"/>
<path fill-rule="evenodd" clip-rule="evenodd" d="M218 123C228.493 123 237 114.493 237 104C237 93.5066 228.493 85 218 85C207.507 85 199 93.5066 199 104C199 114.493 207.507 123 218 123Z" fill="#E2EDF9"/>
<path d="M176.5 102H81.5C80.1193 102 79 103.119 79 104.5C79 105.881 80.1193 107 81.5 107H176.5C177.881 107 179 105.881 179 104.5C179 103.119 177.881 102 176.5 102Z" fill="#CEDBE9"/>
<path d="M116.5 102H81.5C80.1193 102 79 103.119 79 104.5C79 105.881 80.1193 107 81.5 107H116.5C117.881 107 119 105.881 119 104.5C119 103.119 117.881 102 116.5 102Z" fill="#1179EF"/>
<path d="M105 148H29C27.8954 148 27 148.895 27 150C27 151.105 27.8954 152 29 152H105C106.105 152 107 151.105 107 150C107 148.895 106.105 148 105 148Z" fill="#CEDBE9"/>
<path d="M61 148H29C27.8954 148 27 148.895 27 150C27 151.105 27.8954 152 29 152H61C62.1046 152 63 151.105 63 150C63 148.895 62.1046 148 61 148Z" fill="#1179EF"/>
<path fill-rule="evenodd" clip-rule="evenodd" d="M207 102.25H225.106L220.532 97.7625L222.333 96L230 103.5L222.333 111L220.532 109.238L225.106 104.75H207V102.25Z" fill="#1179EF"/>
<path d="M202.259 186H189.5V207.617H208V191.741L202.259 186ZM202.489 187.344L206.656 191.511H202.489V187.344ZM190.287 206.83V186.787H201.702V192.298H207.213V206.83H190.287Z" fill="#81868A"/>
<path d="M202.604 197.527L199 201.132L195.396 197.527L196.059 196.864L198.531 199.337V191H199.469V199.337L201.941 196.864L202.604 197.527ZM205 202.062H193V203H205V202.062Z" fill="#81868A"/>
<path d="M20.2002 288L23.4002 291.2L29.8002 284.8" stroke="#1179EF" stroke-width="1.5"/>
<path fill-rule="evenodd" clip-rule="evenodd" d="M39.6574 349.5L35.5429 351.663L36.3287 347.082L33 343.837L37.6001 343.168L39.6574 339L41.7146 343.168L46.3148 343.837L42.9861 347.082L43.7719 351.663L39.6574 349.5Z" fill="#F4C150"/>
<path fill-rule="evenodd" clip-rule="evenodd" d="M55.6574 349.5L51.5429 351.663L52.3287 347.082L49 343.837L53.6001 343.168L55.6574 339L57.7146 343.168L62.3148 343.837L58.9861 347.082L59.7719 351.663L55.6574 349.5Z" fill="#F4C150"/>
<path fill-rule="evenodd" clip-rule="evenodd" d="M71.6574 349.5L67.5429 351.663L68.3287 347.082L65 343.837L69.6001 343.168L71.6574 339L73.7146 343.168L78.3148 343.837L74.9861 347.082L75.7719 351.663L71.6574 349.5Z" fill="#F4C150"/>
<path fill-rule="evenodd" clip-rule="evenodd" d="M87.6574 349.5L83.5429 351.663L84.3287 347.082L81 343.837L85.6001 343.168L87.6574 339L89.7146 343.168L94.3148 343.837L90.9861 347.082L91.7719 351.663L87.6574 349.5Z" fill="#F4C150"/>
<path fill-rule="evenodd" clip-rule="evenodd" d="M103.657 349.5L99.5429 351.663L100.329 347.082L97 343.837L101.6 343.168L103.657 339L105.715 343.168L110.315 343.837L106.986 347.082L107.772 351.663L103.657 349.5Z" fill="#F4C150"/>
<path fill-rule="evenodd" clip-rule="evenodd" d="M139.657 349.5L135.543 351.663L136.329 347.082L133 343.837L137.6 343.168L139.657 339L141.715 343.168L146.315 343.837L142.986 347.082L143.772 351.663L139.657 349.5Z" fill="#DDE6ED"/>
<path fill-rule="evenodd" clip-rule="evenodd" d="M155.657 349.5L151.543 351.663L152.329 347.082L149 343.837L153.6 343.168L155.657 339L157.715 343.168L162.315 343.837L158.986 347.082L159.772 351.663L155.657 349.5Z" fill="#DDE6ED"/>
<path fill-rule="evenodd" clip-rule="evenodd" d="M171.657 349.5L167.543 351.663L168.329 347.082L165 343.837L169.6 343.168L171.657 339L173.715 343.168L178.315 343.837L174.986 347.082L175.772 351.663L171.657 349.5Z" fill="#DDE6ED"/>
<path fill-rule="evenodd" clip-rule="evenodd" d="M187.657 349.5L183.543 351.663L184.329 347.082L181 343.837L185.6 343.168L187.657 339L189.715 343.168L194.315 343.837L190.986 347.082L191.772 351.663L187.657 349.5Z" fill="#DDE6ED"/>
<path fill-rule="evenodd" clip-rule="evenodd" d="M203.657 349.5L199.543 351.663L200.329 347.082L197 343.837L201.6 343.168L203.657 339L205.715 343.168L210.315 343.837L206.986 347.082L207.772 351.663L203.657 349.5Z" fill="#DDE6ED"/>
<path fill-rule="evenodd" clip-rule="evenodd" d="M140 374.75C142.002 374.75 143.815 375.561 145.127 376.873C146.439 378.185 147.25 379.998 147.25 382C147.25 384.002 146.439 385.815 145.127 387.127C143.815 388.439 142.002 389.25 140 389.25C137.998 389.25 136.185 388.439 134.873 387.127C133.561 385.815 132.75 384.002 132.75 382C132.75 379.998 133.561 378.185 134.873 376.873C136.185 375.561 137.998 374.75 140 374.75Z" stroke="#1179EF" stroke-width="1.5"/>
<path d="M136 382L138.667 384.667L144 379.333" stroke="#1179EF" stroke-width="1.5"/>
<path opacity="0.35" d="M65 462C89.8528 462 110 441.853 110 417C110 392.147 89.8528 372 65 372C40.1472 372 20 392.147 20 417C20 441.853 40.1472 462 65 462Z" fill="#1179EF"/>
<path d="M65.5 443C79.5833 443 91 431.583 91 417.5C91 403.417 79.5833 392 65.5 392C51.4167 392 40 403.417 40 417.5C40 431.583 51.4167 443 65.5 443Z" fill="white"/>
<path fill-rule="evenodd" clip-rule="evenodd" d="M72.5421 418.456L61.7041 428.019V408.894L72.5421 418.456Z" fill="#1179EF"/>
<path d="M172.6 221H149.4C149.179 221 149 221.179 149 221.4V237.4C149 237.621 149.179 237.8 149.4 237.8H156.623C156.635 237.933 156.654 238.064 156.678 238.194L154.484 240.809C154.342 240.978 154.364 241.231 154.533 241.373C154.581 241.413 154.637 241.441 154.698 241.456L157.113 242.032L158.1 244.312C158.188 244.515 158.424 244.608 158.626 244.521C158.684 244.496 158.734 244.458 158.774 244.41L160.964 241.8C160.976 241.8 160.988 241.8 161 241.8C161.012 241.8 161.024 241.8 161.036 241.8L163.226 244.41C163.368 244.58 163.62 244.602 163.79 244.46C163.837 244.42 163.875 244.37 163.9 244.312L164.887 242.032L167.302 241.456C167.517 241.404 167.65 241.189 167.599 240.974C167.584 240.913 167.556 240.857 167.516 240.809L165.322 238.194C165.346 238.064 165.365 237.933 165.377 237.8H172.6C172.821 237.8 173 237.621 173 237.4V221.4C173 221.179 172.821 221 172.6 221ZM158.577 243.4L157.767 241.532C157.717 241.417 157.616 241.331 157.493 241.302L155.513 240.829L156.949 239.117C156.957 239.135 156.967 239.151 156.974 239.168C157.026 239.288 157.083 239.402 157.145 239.516C157.171 239.563 157.198 239.609 157.225 239.655C157.28 239.747 157.338 239.836 157.4 239.924C157.442 239.985 157.487 240.044 157.533 240.104C157.587 240.172 157.642 240.238 157.7 240.304C157.758 240.37 157.826 240.442 157.892 240.508C157.942 240.558 157.992 240.605 158.044 240.652C158.088 240.692 158.126 240.734 158.172 240.772C158.217 240.81 158.259 240.836 158.302 240.869C158.322 240.884 158.339 240.902 158.359 240.917C158.395 240.944 158.433 240.968 158.47 240.994C158.527 241.034 158.584 241.077 158.644 241.114C158.757 241.186 158.874 241.253 158.993 241.314C159.039 241.337 159.085 241.358 159.132 241.38C159.238 241.43 159.346 241.475 159.454 241.516C159.485 241.528 159.516 241.541 159.547 241.552C159.698 241.605 159.853 241.65 160.009 241.686L160.014 241.687L158.577 243.4ZM161.751 240.915C161.568 240.954 161.382 240.978 161.194 240.988H161.189C161.126 240.992 161.063 240.996 160.999 240.996C160.936 240.996 160.872 240.992 160.809 240.988H160.804C160.617 240.978 160.431 240.954 160.248 240.916L160.215 240.909C160.144 240.893 160.073 240.874 160.004 240.854C159.974 240.846 159.945 240.838 159.916 240.829C159.866 240.813 159.817 240.795 159.768 240.777C159.718 240.76 159.672 240.742 159.624 240.723C159.595 240.71 159.566 240.697 159.538 240.683C159.472 240.653 159.407 240.623 159.343 240.59L159.311 240.572C159.146 240.484 158.988 240.383 158.839 240.271C158.756 240.209 158.679 240.14 158.604 240.073C158.514 239.993 158.429 239.909 158.348 239.82C158.316 239.786 158.282 239.753 158.251 239.718C158.14 239.586 158.038 239.447 157.946 239.3C157.933 239.279 157.921 239.256 157.906 239.234C157.821 239.092 157.746 238.944 157.682 238.791C157.677 238.777 157.67 238.764 157.665 238.751C157.594 238.576 157.537 238.396 157.495 238.212C157.495 238.204 157.489 238.199 157.487 238.192C157.429 237.932 157.4 237.666 157.4 237.4C157.399 235.412 159.01 233.799 160.998 233.798C162.986 233.797 164.599 235.407 164.6 237.396C164.6 237.665 164.57 237.933 164.51 238.196C164.508 238.203 164.504 238.209 164.503 238.216C164.46 238.399 164.403 238.579 164.333 238.754C164.327 238.768 164.321 238.782 164.315 238.794C164.251 238.946 164.176 239.093 164.092 239.234C164.078 239.257 164.066 239.28 164.052 239.303C163.96 239.449 163.859 239.588 163.747 239.72C163.717 239.755 163.683 239.787 163.652 239.821C163.57 239.91 163.483 239.995 163.393 240.076C163.317 240.144 163.241 240.212 163.158 240.274C163.076 240.335 163.002 240.387 162.921 240.439L162.916 240.442C162.844 240.488 162.77 240.53 162.694 240.57C162.68 240.578 162.665 240.586 162.65 240.594C162.59 240.626 162.53 240.654 162.467 240.682C162.435 240.696 162.403 240.711 162.371 240.724C162.326 240.743 162.28 240.759 162.235 240.776C162.189 240.792 162.133 240.813 162.081 240.829C162.053 240.838 162.025 240.846 161.997 240.854C161.926 240.874 161.855 240.894 161.783 240.909L161.751 240.915ZM166.487 240.828L164.507 241.301C164.384 241.33 164.283 241.415 164.233 241.531L163.423 243.4L161.986 241.688H161.99C162.147 241.653 162.302 241.608 162.454 241.554C162.484 241.544 162.513 241.531 162.543 241.52C162.654 241.478 162.764 241.432 162.872 241.38C162.916 241.36 162.96 241.34 163.004 241.318C163.124 241.255 163.244 241.188 163.359 241.114C163.414 241.078 163.468 241.039 163.522 241.001C163.562 240.973 163.602 240.948 163.642 240.919C163.663 240.903 163.682 240.884 163.702 240.868C163.742 240.835 163.789 240.807 163.83 240.773C163.87 240.738 163.912 240.693 163.954 240.655C164.007 240.607 164.059 240.559 164.11 240.509C164.175 240.443 164.239 240.375 164.301 240.306C164.359 240.24 164.414 240.174 164.468 240.106C164.514 240.047 164.559 239.986 164.602 239.926C164.663 239.838 164.722 239.749 164.776 239.658C164.804 239.611 164.831 239.564 164.856 239.517C164.918 239.404 164.974 239.289 165.026 239.171C165.033 239.15 165.043 239.134 165.051 239.116L166.487 240.828ZM172.2 237H165.38C165.163 234.581 163.026 232.796 160.607 233.013C158.488 233.203 156.81 234.882 156.62 237H149.8V221.8H172.2V237Z" fill="#81868A"/>
<path d="M151 222.6C150.779 222.6 150.6 222.779 150.6 223V224.6H151.4V223.4H152.6V222.6H151Z" fill="#81868A"/>
<path d="M171 222.6H169.4V223.4H170.6V224.6H171.4V223C171.4 222.779 171.221 222.6 171 222.6Z" fill="#81868A"/>
<path d="M170.6 234.2V235.4H169.4V236.2H171C171.221 236.2 171.4 236.021 171.4 235.8V234.2H170.6Z" fill="#81868A"/>
<path d="M151.4 235.4V234.2H150.6V235.8C150.6 236.021 150.779 236.2 151 236.2H152.6V235.4H151.4Z" fill="#81868A"/>
<path d="M165.799 225.4H156.199V226.2H165.799V225.4Z" fill="#81868A"/>
<path d="M168.201 227.8H153.801V228.6H168.201V227.8Z" fill="#81868A"/>
<path d="M160.999 234.6C159.453 234.6 158.199 235.854 158.199 237.4C158.201 238.946 159.454 240.198 160.999 240.2C162.546 240.2 163.799 238.946 163.799 237.4C163.799 235.854 162.546 234.6 160.999 234.6ZM160.999 239.4C159.895 239.4 158.999 238.505 158.999 237.4C159.001 236.296 159.895 235.401 160.999 235.4C162.104 235.4 162.999 236.296 162.999 237.4C162.999 238.505 162.104 239.4 160.999 239.4Z" fill="#81868A"/>
</svg>
