<?xml version="1.0" encoding="UTF-8"?>
<svg width="359px" height="484px" viewBox="0 0 359 484" version="1.1" xmlns="http://www.w3.org/2000/svg" xmlns:xlink="http://www.w3.org/1999/xlink">
    <!-- Generator: Sketch 53.2 (72643) - https://sketchapp.com -->
    <title>sprite v1</title>
    <desc>Created with Sketch.</desc>
    <g id="sprite-v1" stroke="none" stroke-width="1" fill="none" fill-rule="evenodd">
        <g id="Group-22" transform="translate(81.000000, 138.000000)">
            <path d="M19,38 C29.4934107,38 38,29.4934107 38,19 C38,8.50658926 29.4934107,0 19,0 C8.50658926,0 0,8.50658926 0,19 C0,29.4934107 8.50658926,38 19,38 Z" id="Oval-1-path" fill="#1179EF"></path>
            <path d="M18.7585141,15.6212661 L18.7947574,16.2458368 L18.1907013,16.1693588 C15.9919371,15.8761929 14.0710387,14.8819783 12.4400872,13.2122076 L11.6427331,12.3836954 L11.4373541,12.9955198 C11.0024337,14.3593783 11.2802995,15.7997149 12.1863836,16.7684368 C12.6696285,17.3037831 12.5608984,17.3802612 11.727301,17.0616027 C11.4373541,16.9596319 11.1836505,16.8831538 11.1594882,16.9213929 C11.0749204,17.0106173 11.3648673,18.1705343 11.5944086,18.6294026 C11.9085178,19.2667197 12.5488173,19.8912904 13.2495223,20.2609343 L13.8414973,20.5541001 L13.1407922,20.5668465 C12.4642494,20.5668465 12.4400872,20.5795928 12.512574,20.847266 C12.7541964,21.6757782 13.708605,22.5552757 14.7717438,22.9376659 L15.5207733,23.2053392 L14.8683927,23.613222 C13.901903,24.1995538 12.7662775,24.5309587 11.630652,24.5564514 C11.0870015,24.5691976 10.64,24.620183 10.64,24.6584221 C10.64,24.7858854 12.1138969,25.4996806 12.9716566,25.7801001 C15.5449356,26.6086122 18.6014595,26.2517146 20.8968727,24.8368708 C22.5278242,23.8299098 24.1587757,21.8287343 24.9198864,19.8912904 C25.3306445,18.8588368 25.7414027,16.9723783 25.7414027,16.067388 C25.7414027,15.4810564 25.777646,15.4045783 26.4541888,14.7035295 C26.8528659,14.2956466 27.2273807,13.8495247 27.2998674,13.7220612 C27.4206786,13.4798808 27.4085976,13.4798808 26.7924603,13.6965685 C25.7655649,14.0789588 25.6205914,14.0279734 26.1279986,13.4543881 C26.5025134,13.0465051 26.9495149,12.3072174 26.9495149,12.0905295 C26.9495149,12.0522905 26.768298,12.1160223 26.562919,12.2307393 C26.3454587,12.3582028 25.8622139,12.5493979 25.4997802,12.6641149 L24.8473996,12.8808027 L24.2554246,12.4601734 C23.9292343,12.2307393 23.4701517,11.9758125 23.2285293,11.8993344 C22.612392,11.7208857 21.6700645,11.7463784 21.1143328,11.9503198 C19.6041926,12.5239052 18.6497839,14.0024808 18.7585141,15.6212661 C18.7585141,15.6212661 18.6497839,14.0024808 18.7585141,15.6212661 Z" id="Oval-1-path" fill="#FFFFFF"></path>
        </g>
        <g id="Group-17" transform="translate(81.000000, 251.000000)">
            <g id="Group-39-Copy" transform="translate(17.000000, 15.000000)"></g>
            <path d="M19,38 C29.4934108,38 38,29.4934108 38,19 C38,8.50658923 29.4934108,0 19,0 C8.50658923,0 0,8.50658923 0,19 C0,29.4934108 8.50658923,38 19,38 Z" id="Oval-1-path" fill="#1179EF"></path>
            <polygon id="Oval-1-path" fill="#FFFFFF" points="11.78 16.1059566 11.78 25.490503 14.82 25.490503 14.82 16.1059566"></polygon>
            <path d="M13.3087693,12.7160507 C12.384352,12.7160507 11.78,13.3390227 11.78,14.1569364 C11.78,14.9579083 12.3664896,15.5988187 13.2736921,15.5988187 L13.2909609,15.5988187 C14.2331866,15.5988187 14.82,14.9579083 14.82,14.1569364 C14.8024614,13.3390227 14.2331866,12.7160507 13.3087693,12.7160507 Z" id="Oval-1-path" fill="#FFFFFF"></path>
            <path d="M23.4317228,15.7228572 C21.795505,15.7228572 21.0629427,16.6462413 20.6539191,17.2940118 L20.6539191,15.946505 L17.5717787,15.946505 C17.612398,16.8392023 17.5717787,25.46 17.5717787,25.46 L20.6539191,25.46 L20.6539191,20.1468795 C20.6539191,19.8625525 20.673921,19.5789201 20.7554057,19.3753513 C20.9781346,18.8073287 21.48526,18.219227 22.3366644,18.219227 C23.4522785,18.219227 23.8982288,19.0915925 23.8982288,20.3700223 L23.8982288,25.4597474 L26.9798769,25.4597474 L26.98,20.0050002 C26.98,17.082866 25.4596702,15.7228572 23.4317228,15.7228572 Z" id="Oval-1-path" fill="#FFFFFF"></path>
        </g>
        <g id="Group-21" transform="translate(81.000000, 192.000000)">
            <path d="M19,38 C29.4934107,38 38,29.4934107 38,19 C38,8.50658926 29.4934107,0 19,0 C8.50658926,0 0,8.50658926 0,19 C0,29.4934107 8.50658926,38 19,38 Z" id="Oval-1-path" fill="#1179EF"></path>
            <path d="M20.379035,27.36 L20.379035,18.9990211 L22.8522461,18.9990211 L23.18,16.1177815 L20.379035,16.1177815 L20.3832369,14.6756933 C20.3832369,13.9242216 20.4597479,13.5215659 21.6163409,13.5215659 L23.1624918,13.5215659 L23.1624918,10.64 L20.6889304,10.64 C17.7177855,10.64 16.6720195,12.0377112 16.6720195,14.3882219 L16.6720195,16.1181078 L14.82,16.1181078 L14.82,18.9993474 L16.6720195,18.9993474 L16.6720195,27.36 L20.379035,27.36 Z" id="Oval-1-path" fill="#FFFFFF"></path>
        </g>
        <g id="Group-37-Copy" transform="translate(15.000000, 138.000000)">
            <circle id="Oval-5-Copy-3" fill="#FFFFFF" cx="18.62" cy="18.62" r="17.86"></circle>
            <path d="M19,38 C8.50658926,38 0,29.4934107 0,19 C0,8.50658926 8.50658926,0 19,0 C29.4934107,0 38,8.50658926 38,19 C38,29.4934107 29.4934107,38 19,38 Z M19,35.72 C28.2342015,35.72 35.72,28.2342015 35.72,19 C35.72,9.76579852 28.2342015,2.28 19,2.28 C9.76579852,2.28 2.28,9.76579852 2.28,19 C2.28,28.2342015 9.76579852,35.72 19,35.72 Z M18.7585141,15.6212661 L18.7947574,16.2458368 L18.1907013,16.1693588 C15.9919371,15.8761929 14.0710387,14.8819783 12.4400872,13.2122076 L11.6427331,12.3836954 L11.4373541,12.9955198 C11.0024337,14.3593783 11.2802995,15.7997149 12.1863836,16.7684368 C12.6696285,17.3037831 12.5608984,17.3802612 11.727301,17.0616027 C11.4373541,16.9596319 11.1836505,16.8831538 11.1594882,16.9213929 C11.0749204,17.0106173 11.3648673,18.1705343 11.5944086,18.6294026 C11.9085178,19.2667197 12.5488173,19.8912904 13.2495223,20.2609343 L13.8414973,20.5541001 L13.1407922,20.5668465 C12.4642494,20.5668465 12.4400872,20.5795928 12.512574,20.847266 C12.7541964,21.6757782 13.708605,22.5552757 14.7717438,22.9376659 L15.5207733,23.2053392 L14.8683927,23.613222 C13.901903,24.1995538 12.7662775,24.5309587 11.630652,24.5564514 C11.0870015,24.5691976 10.64,24.620183 10.64,24.6584221 C10.64,24.7858854 12.1138969,25.4996806 12.9716566,25.7801001 C15.5449356,26.6086122 18.6014595,26.2517146 20.8968727,24.8368708 C22.5278242,23.8299098 24.1587757,21.8287343 24.9198864,19.8912904 C25.3306445,18.8588368 25.7414027,16.9723783 25.7414027,16.067388 C25.7414027,15.4810564 25.777646,15.4045783 26.4541888,14.7035295 C26.8528659,14.2956466 27.2273807,13.8495247 27.2998674,13.7220612 C27.4206786,13.4798808 27.4085976,13.4798808 26.7924603,13.6965685 C25.7655649,14.0789588 25.6205914,14.0279734 26.1279986,13.4543881 C26.5025134,13.0465051 26.9495149,12.3072174 26.9495149,12.0905295 C26.9495149,12.0522905 26.768298,12.1160223 26.562919,12.2307393 C26.3454587,12.3582028 25.8622139,12.5493979 25.4997802,12.6641149 L24.8473996,12.8808027 L24.2554246,12.4601734 C23.9292343,12.2307393 23.4701517,11.9758125 23.2285293,11.8993344 C22.612392,11.7208857 21.6700645,11.7463784 21.1143328,11.9503198 C19.6041926,12.5239052 18.6497839,14.0024808 18.7585141,15.6212661 C18.7585141,15.6212661 18.6497839,14.0024808 18.7585141,15.6212661 Z" id="Oval-1" fill="#848DA0" fill-rule="nonzero"></path>
        </g>
        <g id="Group-38-Copy" transform="translate(15.000000, 192.000000)">
            <circle id="Oval-5" fill="#FFFFFF" cx="18.62" cy="19.38" r="17.86"></circle>
            <path d="M19,38 C8.50658926,38 0,29.4934107 0,19 C0,8.50658926 8.50658926,0 19,0 C29.4934107,0 38,8.50658926 38,19 C38,29.4934107 29.4934107,38 19,38 Z M19,35.72 C28.2342015,35.72 35.72,28.2342015 35.72,19 C35.72,9.76579852 28.2342015,2.28 19,2.28 C9.76579852,2.28 2.28,9.76579852 2.28,19 C2.28,28.2342015 9.76579852,35.72 19,35.72 Z M20.379035,27.36 L20.379035,18.9990211 L22.8522461,18.9990211 L23.18,16.1177815 L20.379035,16.1177815 L20.3832369,14.6756933 C20.3832369,13.9242216 20.4597479,13.5215659 21.6163409,13.5215659 L23.1624918,13.5215659 L23.1624918,10.64 L20.6889304,10.64 C17.7177855,10.64 16.6720195,12.0377112 16.6720195,14.3882219 L16.6720195,16.1181078 L14.82,16.1181078 L14.82,18.9993474 L16.6720195,18.9993474 L16.6720195,27.36 L20.379035,27.36 Z" id="Oval-1" fill="#848DA0" fill-rule="nonzero"></path>
        </g>
        <g id="Group-27-Copy" transform="translate(15.000000, 251.000000)">
            <circle id="Oval-5-Copy" fill="#FFFFFF" cx="19.38" cy="19.38" r="17.86"></circle>
            <path d="M19,38 C8.50658926,38 0,29.4934107 0,19 C0,8.50658926 8.50658926,0 19,0 C29.4934107,0 38,8.50658926 38,19 C38,29.4934107 29.4934107,38 19,38 Z M19,35.72 C28.2342015,35.72 35.72,28.2342015 35.72,19 C35.72,9.76579852 28.2342015,2.28 19,2.28 C9.76579852,2.28 2.28,9.76579852 2.28,19 C2.28,28.2342015 9.76579852,35.72 19,35.72 Z M11.78,16.1059566 L11.78,25.490503 L14.82,25.490503 L14.82,16.1059566 L11.78,16.1059566 Z M13.3087693,12.7160507 C12.384352,12.7160507 11.78,13.3390227 11.78,14.1569364 C11.78,14.9579083 12.3664896,15.5988187 13.2736921,15.5988187 L13.2909609,15.5988187 C14.2331866,15.5988187 14.82,14.9579083 14.82,14.1569364 C14.8024614,13.3390227 14.2331866,12.7160507 13.3087693,12.7160507 Z M23.4317228,15.7228572 C21.795505,15.7228572 21.0629427,16.6462413 20.6539191,17.2940118 L20.6539191,15.946505 L17.5717787,15.946505 C17.612398,16.8392023 17.5717787,25.46 17.5717787,25.46 L20.6539191,25.46 L20.6539191,20.1468795 C20.6539191,19.8625525 20.673921,19.5789201 20.7554057,19.3753513 C20.9781346,18.8073287 21.48526,18.219227 22.3366644,18.219227 C23.4522785,18.219227 23.8982288,19.0915925 23.8982288,20.3700223 L23.8982288,25.4597474 L26.9798769,25.4597474 L26.98,20.0050002 C26.98,17.082866 25.4596702,15.7228572 23.4317228,15.7228572 Z" id="Oval-1" fill="#848DA0" fill-rule="nonzero"></path>
        </g>
        <g id="Group-30" transform="translate(48.000000, 18.000000)">
            <polygon id="Shape" points="0 0 24 0 24 24 0 24"></polygon>
            <path d="M2.55652694,3.11111111 L21.4434731,3.11111111 L21.0049892,2.21447744 L13.2280113,12.2144774 C13.1521716,12.3119957 13.1109968,12.4320134 13.1109968,12.5555556 L13.1109968,21.4444444 L13.9746303,20.9821943 L10.6416398,18.7599721 L10.8890032,19.2222222 L10.8890032,12.5555556 C10.8890032,12.4320134 10.8478284,12.3119957 10.7719887,12.2144774 L2.99501085,2.21447744 L2.55652694,3.11111111 L2.55652694,3.11111111 Z M2.55652694,2 C2.09426995,2 1.83424469,2.53171256 2.11804303,2.89663367 L9.89502085,12.8966337 L9.77800634,12.5555556 L9.77800634,19.2222222 C9.77800634,19.407974 9.87083075,19.5814358 10.0253697,19.6844724 L13.3583602,21.9066946 C13.7275193,22.152826 14.2219937,21.8881641 14.2219937,21.4444444 L14.2219937,12.5555556 L14.1049792,12.8966337 L21.881957,2.89663367 C22.1657553,2.53171256 21.9057301,2 21.4434731,2 L2.55652694,2 L2.55652694,2 Z" id="Path-643" fill="#848DA0" fill-rule="nonzero"></path>
        </g>
        <g id="Group-30-Copy" transform="translate(81.000000, 85.000000)">
            <polygon id="Shape" points="0 0 24 0 24 24 0 24"></polygon>
            <path d="M2.55652694,3.11111111 L21.4434731,3.11111111 L21.0049892,2.21447744 L13.2280113,12.2144774 C13.1521716,12.3119957 13.1109968,12.4320134 13.1109968,12.5555556 L13.1109968,21.4444444 L13.9746303,20.9821943 L10.6416398,18.7599721 L10.8890032,19.2222222 L10.8890032,12.5555556 C10.8890032,12.4320134 10.8478284,12.3119957 10.7719887,12.2144774 L2.99501085,2.21447744 L2.55652694,3.11111111 L2.55652694,3.11111111 Z M2.55652694,2 C2.09426995,2 1.83424469,2.53171256 2.11804303,2.89663367 L9.89502085,12.8966337 L9.77800634,12.5555556 L9.77800634,19.2222222 C9.77800634,19.407974 9.87083075,19.5814358 10.0253697,19.6844724 L13.3583602,21.9066946 C13.7275193,22.152826 14.2219937,21.8881641 14.2219937,21.4444444 L14.2219937,12.5555556 L14.1049792,12.8966337 L21.881957,2.89663367 C22.1657553,2.53171256 21.9057301,2 21.4434731,2 L2.55652694,2 L2.55652694,2 Z" id="Path-643" fill="#FFFFFF" fill-rule="nonzero"></path>
        </g>
        <g id="Group-6-Copy-3" transform="translate(180.000000, 18.000000)">
            <rect id="Rectangle-27" x="0" y="0" width="24" height="24"></rect>
            <polygon id="Triangle" fill="#272C37" transform="translate(12.500000, 12.000000) scale(1, -1) translate(-12.500000, -12.000000) " points="12.5 10 16 14 9 14"></polygon>
        </g>
        <g id="Group-6-Copy-4" transform="translate(210.000000, 18.000000)">
            <rect id="Rectangle-27" x="0" y="0" width="24" height="24"></rect>
            <polygon id="Triangle" fill="#272C37" points="12.5 10 16 14 9 14"></polygon>
        </g>
        <g id="Group-3" transform="translate(15.000000, 18.000000)">
            <polygon id="Rectangle-5" points="0 0 24 0 24 24 0 24"></polygon>
            <g id="Group" transform="translate(3.000000, 6.000000)" fill="#848DA0" fill-rule="nonzero">
                <path d="M9.00054495,0 C5.41348308,0 2.19561502,2.12846291 0,5.5 C2.19561502,8.8715721 5.41351824,11 9.00054495,11 C12.5870443,11 15.8049475,8.87160712 18,5.5 C15.8049123,2.12846291 12.5870091,0 9.00054495,0 Z M9.00054495,8.93716294 C7.09769032,8.93716294 5.55028273,7.39530553 5.55028273,5.49996498 C5.55028273,3.60462444 7.09769032,2.06280204 9.00054495,2.06280204 C10.9022745,2.06280204 12.4508072,3.60462444 12.4508072,5.49996498 C12.4508072,7.39530553 10.9022394,8.93716294 9.00054495,8.93716294 Z" id="Shape"></path>
                <path d="M9,3.5 C7.89703085,3.5 7,4.39720864 7,5.49972833 C7,6.60228199 7.89703085,7.5 9,7.5 C10.1023916,7.5 11,6.60221407 11,5.49972833 C11,4.3972426 10.1023916,3.5 9,3.5 Z" id="Shape"></path>
            </g>
        </g>
        <g id="Group-11" transform="translate(81.000000, 18.000000)">
            <polygon id="Rectangle-5" points="0 0 24 0 24 24 0 24"></polygon>
            <g id="Group" transform="translate(4.000000, 4.000000)" fill="#848DA0" fill-rule="nonzero">
                <path d="M7.20238576,15.2879128 C7.20238576,15.7346284 6.84591725,16.0484206 6.41101963,15.9772111 C6.41101963,15.9772111 6.66629171,16.0293115 6.404842,15.9759581 C2.75084536,15.2302965 0,11.9732236 0,8.06818065 C0,3.61224752 3.581722,0 8,0 C12.418278,0 16,3.61224752 16,8.06818065 C16,11.9688814 13.2552689,15.2230523 9.60734384,15.9734614 C9.34205227,16.0280341 9.58824149,15.9773208 9.58824149,15.9773208 C9.15171872,16.043274 8.79784709,15.7342693 8.79784709,15.2878918 L8.79784709,7.66106474 C8.79784709,7.36369463 8.96682824,7.29418816 9.17518696,7.50572626 L10.6237518,8.97280217 C11.3760119,9.73337826 12.504003,8.59224515 11.7520089,7.83166906 L8.54509059,4.54096178 C8.23610771,4.2228208 7.73685504,4.22335774 7.4274748,4.54476213 L4.24795803,7.83166906 C3.49596392,8.59224515 4.62422099,9.73337826 5.37621509,8.97280217 L6.82496824,7.50572626 C7.03341019,7.2941472 7.20238576,7.36492887 7.20238576,7.66106474 L7.20238576,15.2879128 Z" id="Shape" transform="translate(8.000000, 8.000000) rotate(-180.000000) translate(-8.000000, -8.000000) "></path>
            </g>
        </g>
        <g id="Group-2" transform="translate(147.000000, 18.000000)">
            <polygon id="Rectangle-5-Copy" points="0 0 24 0 24 24 0 24"></polygon>
            <path d="M17.8536585,5 L6.14634146,5 C4.96094981,5 4,5.96094981 4,7.14634146 L4,14.7560976 C4,15.9414892 4.96094981,16.902439 6.14634146,16.902439 L12.7414634,16.902439 L15.0731707,18.8946341 C15.2496174,19.0464667 15.4745377,19.1302062 15.7073171,19.1307317 C15.8489397,19.1302659 15.9887631,19.0989721 16.1170732,19.0390244 C16.4622402,18.8792819 16.6831078,18.53351 16.6829268,18.1531707 L16.6829268,16.902439 L17.8536585,16.902439 C19.0390502,16.902439 20,15.9414892 20,14.7560976 L20,7.14634146 C20,6.57709631 19.7738682,6.03116596 19.3713511,5.62864886 C18.968834,5.22613175 18.4229037,5 17.8536585,5 Z M8.48780488,12.2702439 C7.78734617,12.2702439 7.2195122,11.7024099 7.2195122,11.0019512 C7.2195122,10.3014925 7.78734617,9.73365854 8.48780488,9.73365854 C9.18826359,9.73365854 9.75609756,10.3014925 9.75609756,11.0019512 C9.75558796,11.3401997 9.62019163,11.6642758 9.37991726,11.9023525 C9.13964289,12.1404293 8.81433646,12.2728422 8.47609756,12.2702439 L8.48780488,12.2702439 Z M12.0117073,12.2702439 C11.3112486,12.2702439 10.7434146,11.7024099 10.7434146,11.0019512 C10.7434146,10.3014925 11.3112486,9.73365854 12.0117073,9.73365854 C12.712166,9.73365854 13.28,10.3014925 13.28,11.0019512 C13.2794904,11.3401997 13.1440941,11.6642758 12.9038197,11.9023525 C12.6635453,12.1404293 12.3382389,12.2728422 12,12.2702439 L12.0117073,12.2702439 Z M15.5356098,12.2702439 C14.835151,12.2702439 14.2673171,11.7024099 14.2673171,11.0019512 C14.2673171,10.3014925 14.835151,9.73365854 15.5356098,9.73365854 C16.2360685,9.73365854 16.8039024,10.3014925 16.8039024,11.0019512 C16.8033928,11.3401997 16.6679965,11.6642758 16.4277221,11.9023525 C16.1874478,12.1404293 15.8621413,12.2728422 15.5239024,12.2702439 L15.5356098,12.2702439 Z" id="Shape" fill="#848DA0" fill-rule="nonzero"></path>
        </g>
        <g id="Group-2" transform="translate(114.000000, 18.000000)">
            <polygon id="Shape" points="0 0 24 0 24 24 0 24"></polygon>
            <path d="M4,20.0049107 C4,20.5548349 4.44525903,21 4.99508929,21 L19.0049107,21 C19.5548349,21 20,20.554741 20,20.0049107 L20,5.99508929 C20,5.44516513 19.554741,5 19.0049107,5 L4.99508929,5 C4.44516513,5 4,5.44525903 4,5.99508929 L4,20.0049107 Z M4.99508929,4 L19.0049107,4 C20.1067681,4 21,4.8926228 21,5.99508929 L21,20.0049107 C21,21.1067681 20.1073772,22 19.0049107,22 L4.99508929,22 C3.8932319,22 3,21.1073772 3,20.0049107 L3,5.99508929 C3,4.8932319 3.8926228,4 4.99508929,4 Z" id="Rectangle-8" fill="#848DA0" fill-rule="nonzero"></path>
            <rect id="Rectangle-9" fill="#848DA0" x="6" y="2" width="2" height="2"></rect>
            <rect id="Rectangle-9-Copy" fill="#848DA0" x="16" y="2" width="2" height="2"></rect>
            <polygon id="Path-165" fill="#848DA0" fill-rule="nonzero" points="20.5 9 20.5 4.75 3.5 4.75 3.5 9"></polygon>
            <path d="M7.392,16.724 L9.32,15.084 C9.51200096,14.9186658 9.674666,14.7706673 9.808,14.64 C9.941334,14.5093327 10.0493329,14.3866672 10.132,14.272 C10.2146671,14.1573328 10.2746665,14.0440006 10.312,13.932 C10.3493335,13.8199994 10.368,13.7000006 10.368,13.572 C10.368,13.2946653 10.2813342,13.0800008 10.108,12.928 C9.9346658,12.7759992 9.72000128,12.7 9.464,12.7 C9.20799872,12.7 8.98266764,12.7693326 8.788,12.908 C8.59333236,13.0466674 8.3893344,13.2573319 8.176,13.54 L7.472,12.988 C7.605334,12.8013324 7.74133264,12.6360007 7.88,12.492 C8.01866736,12.3479993 8.16933252,12.2253338 8.332,12.124 C8.49466748,12.0226662 8.67333236,11.9466669 8.868,11.896 C9.06266764,11.8453331 9.28533208,11.82 9.536,11.82 C9.80800136,11.82 10.0573322,11.8599996 10.284,11.94 C10.5106678,12.0200004 10.7053325,12.1333326 10.868,12.28 C11.0306675,12.4266674 11.1573329,12.6026656 11.248,12.808 C11.3386671,13.0133344 11.384,13.2413321 11.384,13.492 L11.384,13.508 C11.384,13.7266678 11.354667,13.9253324 11.296,14.104 C11.237333,14.2826676 11.1480006,14.4546658 11.028,14.62 C10.9079994,14.7853342 10.7560009,14.9519992 10.572,15.12 C10.3879991,15.2880008 10.1733346,15.4733323 9.928,15.676 L8.776,16.636 L11.44,16.636 L11.44,17.5 L7.392,17.5 L7.392,16.724 Z M14.424,17.58 C14.1199985,17.58 13.8373346,17.5413337 13.576,17.464 C13.3146654,17.3866663 13.088001,17.2786674 12.896,17.14 C12.703999,17.0013326 12.5546672,16.832001 12.448,16.632 C12.3413328,16.431999 12.288,16.2120012 12.288,15.972 L12.288,15.956 C12.288,15.6199983 12.3759991,15.3426678 12.552,15.124 C12.7280009,14.9053322 12.9759984,14.729334 13.296,14.596 C13.0559988,14.4733327 12.8600008,14.3133343 12.708,14.116 C12.5559992,13.9186657 12.48,13.6626682 12.48,13.348 L12.48,13.332 C12.48,13.1186656 12.5293328,12.9200009 12.628,12.736 C12.7266672,12.5519991 12.8613325,12.3920007 13.032,12.256 C13.2026675,12.1199993 13.4066655,12.0133337 13.644,11.936 C13.8813345,11.8586663 14.1413319,11.82 14.424,11.82 C14.7013347,11.82 14.9599988,11.8586663 15.2,11.936 C15.4400012,12.0133337 15.6453325,12.118666 15.816,12.252 C15.9866675,12.385334 16.1213328,12.5453324 16.22,12.732 C16.3186672,12.9186676 16.368,13.1186656 16.368,13.332 L16.368,13.348 C16.368,13.6626682 16.2920008,13.9186657 16.14,14.116 C15.9879992,14.3133343 15.7920012,14.4733327 15.552,14.596 C15.8613349,14.7346674 16.1066658,14.9093323 16.288,15.12 C16.4693342,15.3306677 16.56,15.6039983 16.56,15.94 L16.56,15.956 C16.56,16.2066679 16.5066672,16.431999 16.4,16.632 C16.2933328,16.832001 16.144001,17.002666 15.952,17.144 C15.759999,17.285334 15.5333346,17.393333 15.272,17.468 C15.0106654,17.542667 14.7280015,17.58 14.424,17.58 L14.424,17.58 Z M14.424,14.268 C14.7120014,14.268 14.9506657,14.1906674 15.14,14.036 C15.3293343,13.8813326 15.424,13.6840012 15.424,13.444 L15.424,13.428 C15.424,13.2093322 15.3333342,13.0240008 15.152,12.872 C14.9706658,12.7199992 14.7280015,12.644 14.424,12.644 C14.1199985,12.644 13.8773342,12.7199992 13.696,12.872 C13.5146658,13.0240008 13.424,13.2066656 13.424,13.42 L13.424,13.436 C13.424,13.6813346 13.5186657,13.8813326 13.708,14.036 C13.8973343,14.1906674 14.1359986,14.268 14.424,14.268 L14.424,14.268 Z M14.424,16.756 C14.7920018,16.756 15.079999,16.6746675 15.288,16.512 C15.496001,16.3493325 15.6,16.1506678 15.6,15.916 L15.6,15.9 C15.6,15.7719994 15.5693336,15.6560005 15.508,15.552 C15.4466664,15.4479995 15.3640005,15.358667 15.26,15.284 C15.1559995,15.209333 15.0320007,15.1520002 14.888,15.112 C14.7439993,15.0719998 14.5893342,15.052 14.424,15.052 C14.2586658,15.052 14.1040007,15.0719998 13.96,15.112 C13.8159993,15.1520002 13.6920005,15.209333 13.588,15.284 C13.4839995,15.358667 13.402667,15.4479995 13.344,15.552 C13.285333,15.6560005 13.256,15.7719994 13.256,15.9 L13.256,15.916 C13.256,16.1453345 13.3586656,16.3426658 13.564,16.508 C13.7693344,16.6733342 14.0559982,16.756 14.424,16.756 L14.424,16.756 Z" id="28" fill="#848DA0"></path>
        </g>
        <g id="Group-2-Copy" transform="translate(114.000000, 48.000000)">
            <polygon id="Shape" points="0 0 24 0 24 24 0 24"></polygon>
            <path d="M4,20.0049107 C4,20.5548349 4.44525903,21 4.99508929,21 L19.0049107,21 C19.5548349,21 20,20.554741 20,20.0049107 L20,5.99508929 C20,5.44516513 19.554741,5 19.0049107,5 L4.99508929,5 C4.44516513,5 4,5.44525903 4,5.99508929 L4,20.0049107 Z M4.99508929,4 L19.0049107,4 C20.1067681,4 21,4.8926228 21,5.99508929 L21,20.0049107 C21,21.1067681 20.1073772,22 19.0049107,22 L4.99508929,22 C3.8932319,22 3,21.1073772 3,20.0049107 L3,5.99508929 C3,4.8932319 3.8926228,4 4.99508929,4 Z" id="Rectangle-8" fill="#272C37" fill-rule="nonzero"></path>
            <rect id="Rectangle-9" fill="#272C37" x="6" y="2" width="2" height="2"></rect>
            <rect id="Rectangle-9-Copy" fill="#272C37" x="16" y="2" width="2" height="2"></rect>
            <polygon id="Path-165" fill="#272C37" fill-rule="nonzero" points="20.5 9 20.5 4.75 3.5 4.75 3.5 9"></polygon>
            <path d="M7.392,16.724 L9.32,15.084 C9.51200096,14.9186658 9.674666,14.7706673 9.808,14.64 C9.941334,14.5093327 10.0493329,14.3866672 10.132,14.272 C10.2146671,14.1573328 10.2746665,14.0440006 10.312,13.932 C10.3493335,13.8199994 10.368,13.7000006 10.368,13.572 C10.368,13.2946653 10.2813342,13.0800008 10.108,12.928 C9.9346658,12.7759992 9.72000128,12.7 9.464,12.7 C9.20799872,12.7 8.98266764,12.7693326 8.788,12.908 C8.59333236,13.0466674 8.3893344,13.2573319 8.176,13.54 L7.472,12.988 C7.605334,12.8013324 7.74133264,12.6360007 7.88,12.492 C8.01866736,12.3479993 8.16933252,12.2253338 8.332,12.124 C8.49466748,12.0226662 8.67333236,11.9466669 8.868,11.896 C9.06266764,11.8453331 9.28533208,11.82 9.536,11.82 C9.80800136,11.82 10.0573322,11.8599996 10.284,11.94 C10.5106678,12.0200004 10.7053325,12.1333326 10.868,12.28 C11.0306675,12.4266674 11.1573329,12.6026656 11.248,12.808 C11.3386671,13.0133344 11.384,13.2413321 11.384,13.492 L11.384,13.508 C11.384,13.7266678 11.354667,13.9253324 11.296,14.104 C11.237333,14.2826676 11.1480006,14.4546658 11.028,14.62 C10.9079994,14.7853342 10.7560009,14.9519992 10.572,15.12 C10.3879991,15.2880008 10.1733346,15.4733323 9.928,15.676 L8.776,16.636 L11.44,16.636 L11.44,17.5 L7.392,17.5 L7.392,16.724 Z M14.424,17.58 C14.1199985,17.58 13.8373346,17.5413337 13.576,17.464 C13.3146654,17.3866663 13.088001,17.2786674 12.896,17.14 C12.703999,17.0013326 12.5546672,16.832001 12.448,16.632 C12.3413328,16.431999 12.288,16.2120012 12.288,15.972 L12.288,15.956 C12.288,15.6199983 12.3759991,15.3426678 12.552,15.124 C12.7280009,14.9053322 12.9759984,14.729334 13.296,14.596 C13.0559988,14.4733327 12.8600008,14.3133343 12.708,14.116 C12.5559992,13.9186657 12.48,13.6626682 12.48,13.348 L12.48,13.332 C12.48,13.1186656 12.5293328,12.9200009 12.628,12.736 C12.7266672,12.5519991 12.8613325,12.3920007 13.032,12.256 C13.2026675,12.1199993 13.4066655,12.0133337 13.644,11.936 C13.8813345,11.8586663 14.1413319,11.82 14.424,11.82 C14.7013347,11.82 14.9599988,11.8586663 15.2,11.936 C15.4400012,12.0133337 15.6453325,12.118666 15.816,12.252 C15.9866675,12.385334 16.1213328,12.5453324 16.22,12.732 C16.3186672,12.9186676 16.368,13.1186656 16.368,13.332 L16.368,13.348 C16.368,13.6626682 16.2920008,13.9186657 16.14,14.116 C15.9879992,14.3133343 15.7920012,14.4733327 15.552,14.596 C15.8613349,14.7346674 16.1066658,14.9093323 16.288,15.12 C16.4693342,15.3306677 16.56,15.6039983 16.56,15.94 L16.56,15.956 C16.56,16.2066679 16.5066672,16.431999 16.4,16.632 C16.2933328,16.832001 16.144001,17.002666 15.952,17.144 C15.759999,17.285334 15.5333346,17.393333 15.272,17.468 C15.0106654,17.542667 14.7280015,17.58 14.424,17.58 L14.424,17.58 Z M14.424,14.268 C14.7120014,14.268 14.9506657,14.1906674 15.14,14.036 C15.3293343,13.8813326 15.424,13.6840012 15.424,13.444 L15.424,13.428 C15.424,13.2093322 15.3333342,13.0240008 15.152,12.872 C14.9706658,12.7199992 14.7280015,12.644 14.424,12.644 C14.1199985,12.644 13.8773342,12.7199992 13.696,12.872 C13.5146658,13.0240008 13.424,13.2066656 13.424,13.42 L13.424,13.436 C13.424,13.6813346 13.5186657,13.8813326 13.708,14.036 C13.8973343,14.1906674 14.1359986,14.268 14.424,14.268 L14.424,14.268 Z M14.424,16.756 C14.7920018,16.756 15.079999,16.6746675 15.288,16.512 C15.496001,16.3493325 15.6,16.1506678 15.6,15.916 L15.6,15.9 C15.6,15.7719994 15.5693336,15.6560005 15.508,15.552 C15.4466664,15.4479995 15.3640005,15.358667 15.26,15.284 C15.1559995,15.209333 15.0320007,15.1520002 14.888,15.112 C14.7439993,15.0719998 14.5893342,15.052 14.424,15.052 C14.2586658,15.052 14.1040007,15.0719998 13.96,15.112 C13.8159993,15.1520002 13.6920005,15.209333 13.588,15.284 C13.4839995,15.358667 13.402667,15.4479995 13.344,15.552 C13.285333,15.6560005 13.256,15.7719994 13.256,15.9 L13.256,15.916 C13.256,16.1453345 13.3586656,16.3426658 13.564,16.508 C13.7693344,16.6733342 14.0559982,16.756 14.424,16.756 L14.424,16.756 Z" id="28" fill="#272C37"></path>
        </g>
        <g id="Group-4" transform="translate(254.000000, 24.000000)">
            <circle id="Oval-2" fill="#1179EF" cx="6" cy="6" r="6"></circle>
            <circle id="Oval-3" fill="#D2D6DE" cx="28" cy="6" r="4"></circle>
            <circle id="Oval-3-Copy" fill="#D2D6DE" cx="48" cy="6" r="4"></circle>
            <circle id="Oval-3-Copy-2" fill="#D2D6DE" cx="68" cy="6" r="4"></circle>
        </g>
        <g id="Group-4" transform="translate(266.000000, 55.000000)">
            <circle id="Oval-2" fill="#1179EF" cx="5" cy="5" r="5"></circle>
            <circle id="Oval-3" fill="#D8D8D8" cx="23.5" cy="5.5" r="3.5"></circle>
            <circle id="Oval-3-Copy" fill="#D8D8D8" cx="40.5" cy="5.5" r="3.5"></circle>
            <circle id="Oval-3-Copy-2" fill="#D8D8D8" cx="56.5" cy="5.5" r="3.5"></circle>
        </g>
        <g id="Group-12" transform="translate(15.000000, 48.000000)">
            <polygon id="Shape" points="0 0 24 0 24 24 0 24"></polygon>
            <polygon id="Path-143" fill="#FFFFFF" fill-rule="nonzero" points="7 7.70710678 12 12.7071068 12.3535534 13.0606602 12.7071068 12.7071068 17.7071068 7.70710678 17 7 12 12 12.7071068 12 7.70710678 7"></polygon>
            <polygon id="Path-143-Copy" fill="#FFFFFF" fill-rule="nonzero" transform="translate(12.353553, 14.730281) scale(1, -1) translate(-12.353553, -14.730281) " points="7 12.407058 12 17.407058 12.3535534 17.7606113 12.7071068 17.407058 17.7071068 12.407058 17 11.6999512 12 16.6999512 12.7071068 16.6999512 7.70710678 11.6999512"></polygon>
        </g>
        <g id="Group-12-Copy" transform="translate(55.000000, 48.000000)">
            <polygon id="Shape" points="0 0 24 0 24 24 0 24"></polygon>
            <polygon id="Path-143" stroke="#272C37" stroke-width="0.3" fill="#272C37" fill-rule="nonzero" points="7 7.70710678 12 12.7071068 12.3535534 13.0606602 12.7071068 12.7071068 17.7071068 7.70710678 17 7 12 12 12.7071068 12 7.70710678 7"></polygon>
            <polygon id="Path-143-Copy" stroke="#272C37" stroke-width="0.3" fill="#272C37" fill-rule="nonzero" transform="translate(12.353553, 14.730281) scale(1, -1) translate(-12.353553, -14.730281) " points="7 12.407058 12 17.407058 12.3535534 17.7606113 12.7071068 17.407058 17.7071068 12.407058 17 11.6999512 12 16.6999512 12.7071068 16.6999512 7.70710678 11.6999512"></polygon>
        </g>
        <g id="Group" transform="translate(148.000000, 125.000000)" stroke="#7ED497" stroke-width="3">
            <circle id="Oval" cx="32" cy="32" r="32"></circle>
            <path d="M28.5,41.5 L47.0067555,22.9932445" id="Line-2" stroke-linecap="square"></path>
            <path d="M27.5,41.5 L16.8933983,30.8933983" id="Line-3" stroke-linecap="square"></path>
        </g>
        <g id="Group-22" transform="translate(234.000000, 125.000000)" stroke="#7ED497" stroke-width="1.2">
            <circle id="Oval" cx="10" cy="10" r="10"></circle>
            <path d="M8.90625,12.96875 L14.6896111,7.1853889" id="Line-2" stroke-linecap="square"></path>
            <path d="M8.59375,12.96875 L5.27918696,9.65418696" id="Line-3" stroke-linecap="square"></path>
        </g>
        <g id="Group-22" transform="translate(152.000000, 203.000000)" fill="#FF9001">
            <polygon id="Star" points="5.5 8.25 2.26718111 9.94959347 2.88459458 6.34979673 0.26918916 3.80040653 3.88359056 3.27520327 5.5 0 7.11640944 3.27520327 10.7308108 3.80040653 8.11540542 6.34979673 8.73281889 9.94959347"></polygon>
            <polygon id="Star-Copy" points="16.5 8.25 13.2671811 9.94959347 13.8845946 6.34979673 11.2691892 3.80040653 14.8835906 3.27520327 16.5 0 18.1164094 3.27520327 21.7308108 3.80040653 19.1154054 6.34979673 19.7328189 9.94959347"></polygon>
            <polygon id="Star-Copy-2" points="27.5 8.25 24.2671811 9.94959347 24.8845946 6.34979673 22.2691892 3.80040653 25.8835906 3.27520327 27.5 0 29.1164094 3.27520327 32.7308108 3.80040653 30.1154054 6.34979673 30.7328189 9.94959347"></polygon>
            <polygon id="Star-Copy-3" points="38.5 8.25 35.2671811 9.94959347 35.8845946 6.34979673 33.2691892 3.80040653 36.8835906 3.27520327 38.5 0 40.1164094 3.27520327 43.7308108 3.80040653 41.1154054 6.34979673 41.7328189 9.94959347"></polygon>
            <polygon id="Star-Copy-4" points="49.5 8.25 46.2671811 9.94959347 46.8845946 6.34979673 44.2691892 3.80040653 47.8835906 3.27520327 49.5 0 51.1164094 3.27520327 54.7308108 3.80040653 52.1154054 6.34979673 52.7328189 9.94959347"></polygon>
        </g>
        <g id="Group-23" transform="translate(152.000000, 216.000000)" fill="#CDCCCB">
            <polygon id="Star" points="5.5 8.25 2.26718111 9.94959347 2.88459458 6.34979673 0.26918916 3.80040653 3.88359056 3.27520327 5.5 0 7.11640944 3.27520327 10.7308108 3.80040653 8.11540542 6.34979673 8.73281889 9.94959347"></polygon>
            <polygon id="Star-Copy" points="16.5 8.25 13.2671811 9.94959347 13.8845946 6.34979673 11.2691892 3.80040653 14.8835906 3.27520327 16.5 0 18.1164094 3.27520327 21.7308108 3.80040653 19.1154054 6.34979673 19.7328189 9.94959347"></polygon>
            <polygon id="Star-Copy-2" points="27.5 8.25 24.2671811 9.94959347 24.8845946 6.34979673 22.2691892 3.80040653 25.8835906 3.27520327 27.5 0 29.1164094 3.27520327 32.7308108 3.80040653 30.1154054 6.34979673 30.7328189 9.94959347"></polygon>
            <polygon id="Star-Copy-3" points="38.5 8.25 35.2671811 9.94959347 35.8845946 6.34979673 33.2691892 3.80040653 36.8835906 3.27520327 38.5 0 40.1164094 3.27520327 43.7308108 3.80040653 41.1154054 6.34979673 41.7328189 9.94959347"></polygon>
            <polygon id="Star-Copy-4" points="49.5 8.25 46.2671811 9.94959347 46.8845946 6.34979673 44.2691892 3.80040653 47.8835906 3.27520327 49.5 0 51.1164094 3.27520327 54.7308108 3.80040653 52.1154054 6.34979673 52.7328189 9.94959347"></polygon>
        </g>
        <g id="Group" transform="translate(222.000000, 157.000000)" stroke="#7ED497" stroke-width="3">
            <circle id="Oval" cx="27" cy="27" r="27"></circle>
            <path d="M24.046875,35.015625 L39.66195,19.40055" id="Line-2" stroke-linecap="square"></path>
            <path d="M23.203125,35.015625 L14.2538048,26.0663048" id="Line-3" stroke-linecap="square"></path>
        </g>
        <circle id="Oval" stroke="#EE5D5D" stroke-width="3" cx="320" cy="107" r="32"></circle>
        <circle id="Oval" stroke="#EE5D5D" stroke-width="3" cx="319" cy="184" r="27"></circle>
        <g id="Group-5" transform="translate(154.000000, 48.000000)">
            <rect id="Mask" x="0" y="0" width="24" height="24"></rect>
            <g id="Group-4" transform="translate(2.000000, 2.000000)" fill="#272C37" fill-rule="nonzero">
                <path d="M9.63636364,19.2727273 C4.31434696,19.2727273 -1.47792889e-12,14.9583803 -1.47792889e-12,9.63636364 C-1.47792889e-12,4.31434696 4.31434696,-1.47792889e-12 9.63636364,-1.47792889e-12 C14.9583803,-1.47792889e-12 19.2727273,4.31434696 19.2727273,9.63636364 C19.2727273,14.9583803 14.9583803,19.2727273 9.63636364,19.2727273 Z M9.63636364,18.1818182 C14.3558879,18.1818182 18.1818182,14.3558879 18.1818182,9.63636364 C18.1818182,4.91683941 14.3558879,1.09090909 9.63636364,1.09090909 C4.91683941,1.09090909 1.09090909,4.91683941 1.09090909,9.63636364 C1.09090909,14.3558879 4.91683941,18.1818182 9.63636364,18.1818182 Z" id="Oval"></path>
                <polygon id="Path-3" points="14.5292017 13.7560818 13.8433267 14.6044084 9.09090909 10.7620623 9.09090909 5.09090909 10.1818182 5.09090909 10.1818182 10.2412071"></polygon>
            </g>
        </g>
        <g id="Group-7-Copy" transform="translate(153.000000, 259.000000)" fill="#FFFFFF" fill-rule="nonzero">
            <path d="M20,40 C8.954305,40 -5.68434189e-14,31.045695 -5.68434189e-14,20 C-5.68434189e-14,8.954305 8.954305,0 20,0 C31.045695,0 40,8.954305 40,20 C40,31.045695 31.045695,40 20,40 Z M20,38.4 C30.1620394,38.4 38.4,30.1620394 38.4,20 C38.4,9.8379606 30.1620394,1.6 20,1.6 C9.8379606,1.6 1.6,9.8379606 1.6,20 C1.6,30.1620394 9.8379606,38.4 20,38.4 Z" id="Oval"></path>
            <polygon id="Shape" points="14.6666667 19.7543661 14.6666667 28.0420656 21.9808002 23.8982159 29.2920187 19.7543661 21.9808002 15.6105164 14.6666667 11.4666667"></polygon>
        </g>
        <g id="Group-11-Copy-2" transform="translate(214.000000, 259.000000)" fill="#FFFFFF" fill-rule="nonzero">
            <circle id="Oval" fill-opacity="0.41" cx="20" cy="20" r="20"></circle>
            <polygon id="Shape" points="14.6666667 19.7543661 14.6666667 28.0420656 21.9808002 23.8982159 29.2920187 19.7543661 21.9808002 15.6105164 14.6666667 11.4666667"></polygon>
        </g>
        <g id="Group-11" transform="translate(13.000000, 319.000000)" fill="#FFFFFF" fill-rule="nonzero">
            <circle id="Oval" fill-opacity="0.41" cx="32" cy="32" r="32"></circle>
            <polygon id="Shape" points="23.4666667 31.6069858 23.4666667 44.867305 35.1692804 38.2371454 46.8672299 31.6069858 35.1692804 24.9768262 23.4666667 18.3466667"></polygon>
        </g>
        <g id="Group-7" transform="translate(98.000000, 319.000000)" fill="#FFFFFF" fill-rule="nonzero">
            <path d="M32,64 C14.326888,64 -5.68434189e-14,49.673112 -5.68434189e-14,32 C-5.68434189e-14,14.326888 14.326888,0 32,0 C49.673112,0 64,14.326888 64,32 C64,49.673112 49.673112,64 32,64 Z M32,61.44 C48.259263,61.44 61.44,48.259263 61.44,32 C61.44,15.740737 48.259263,2.56 32,2.56 C15.740737,2.56 2.56,15.740737 2.56,32 C2.56,48.259263 15.740737,61.44 32,61.44 Z" id="Oval"></path>
            <polygon id="Shape" points="23.4666667 31.6069858 23.4666667 44.867305 35.1692804 38.2371454 46.8672299 31.6069858 35.1692804 24.9768262 23.4666667 18.3466667"></polygon>
        </g>
        <g id="Group-11" transform="translate(183.000000, 319.000000)" fill="#FFFFFF" fill-rule="nonzero">
            <circle id="Oval" fill-opacity="0.41" cx="37.5" cy="37.5" r="37.5"></circle>
            <polygon id="Shape" points="27.5 37.0394365 27.5 52.578873 41.2140005 44.8091548 54.922535 37.0394365 41.2140005 29.2697183 27.5 21.5"></polygon>
        </g>
        <g id="Group-5" transform="translate(268.000000, 319.000000)" fill="#FFFFFF" fill-rule="nonzero">
            <path d="M37.5,75 C16.7893219,75 -5.68434189e-14,58.2106781 -5.68434189e-14,37.5 C-5.68434189e-14,16.7893219 16.7893219,0 37.5,0 C58.2106781,0 75,16.7893219 75,37.5 C75,58.2106781 58.2106781,75 37.5,75 Z M37.5,72 C56.5538239,72 72,56.5538239 72,37.5 C72,18.4461761 56.5538239,3 37.5,3 C18.4461761,3 3,18.4461761 3,37.5 C3,56.5538239 18.4461761,72 37.5,72 Z" id="Oval"></path>
            <polygon id="Shape" points="27.5 37.0394365 27.5 52.578873 41.2140005 44.8091548 54.922535 37.0394365 41.2140005 29.2697183 27.5 21.5"></polygon>
        </g>
        <g id="Group-21" transform="translate(152.000000, 85.000000)">
            <polygon id="Shape" points="0 0 24 0 24 24 0 24"></polygon>
            <g id="Group" transform="translate(2.000000, 2.000000)" fill="#272C37" fill-rule="nonzero">
                <path d="M6.84210526,13.6842105 C10.6208957,13.6842105 13.6842105,10.6208957 13.6842105,6.84210526 C13.6842105,3.06331487 10.6208957,0 6.84210526,0 C3.06331487,0 0,3.06331487 0,6.84210526 C0,10.6208957 3.06331487,13.6842105 6.84210526,13.6842105 L6.84210526,13.6842105 Z M6.84210526,12.6315789 C3.64466724,12.6315789 1.05263158,10.0395433 1.05263158,6.84210526 C1.05263158,3.64466724 3.64466724,1.05263158 6.84210526,1.05263158 C10.0395433,1.05263158 12.6315789,3.64466724 12.6315789,6.84210526 C12.6315789,10.0395433 10.0395433,12.6315789 6.84210526,12.6315789 L6.84210526,12.6315789 Z" id="Oval-3"></path>
                <path d="M12.6957562,13.4400791 L12.6957562,13.4400791 L12.6957562,13.4400791 L17.9053679,18.6496908 C17.6999195,18.4442424 17.3703392,18.4410453 17.1579372,18.6534473 L18.6534473,17.1579372 C18.4458263,17.3655582 18.4489788,17.7046559 18.6496908,17.9053679 L13.4400791,12.6957562 C13.6455275,12.9012045 13.9751077,12.9044016 14.1875097,12.6919997 L12.6919997,14.1875097 C12.8996207,13.9798887 12.8964681,13.640791 12.6957562,13.4400791 L12.6957562,13.4400791 Z M11.9514332,14.184402 C11.745715,13.9786838 11.739537,13.6513265 11.9476767,13.4431868 L13.4431868,11.9476767 C13.6468304,11.7440331 13.9837035,11.7507347 14.184402,11.9514332 L19.3940137,17.1610449 C19.599732,17.3667632 19.60591,17.6941204 19.3977702,17.9022602 L17.9022602,19.3977702 C17.6986166,19.6014138 17.3617434,19.5947122 17.1610449,19.3940137 L11.9514332,14.184402 L11.9514332,14.184402 Z" id="Rectangle-8"></path>
                <polygon id="Path-109" points="10.6730845 11.4321503 12.9060533 13.665119 13.6503762 12.9207961 11.4174075 10.6878273"></polygon>
            </g>
        </g>
        <g id="Group-21-Copy" transform="translate(188.000000, 85.000000)">
            <polygon id="Shape" points="0 0 24 0 24 24 0 24"></polygon>
            <g id="Group" transform="translate(2.000000, 2.000000)" fill="#848DA0" fill-rule="nonzero">
                <path d="M6.84210526,13.6842105 C10.6208957,13.6842105 13.6842105,10.6208957 13.6842105,6.84210526 C13.6842105,3.06331487 10.6208957,0 6.84210526,0 C3.06331487,0 0,3.06331487 0,6.84210526 C0,10.6208957 3.06331487,13.6842105 6.84210526,13.6842105 L6.84210526,13.6842105 Z M6.84210526,12.6315789 C3.64466724,12.6315789 1.05263158,10.0395433 1.05263158,6.84210526 C1.05263158,3.64466724 3.64466724,1.05263158 6.84210526,1.05263158 C10.0395433,1.05263158 12.6315789,3.64466724 12.6315789,6.84210526 C12.6315789,10.0395433 10.0395433,12.6315789 6.84210526,12.6315789 L6.84210526,12.6315789 Z" id="Oval-3"></path>
                <path d="M12.6957562,13.4400791 L12.6957562,13.4400791 L12.6957562,13.4400791 L17.9053679,18.6496908 C17.6999195,18.4442424 17.3703392,18.4410453 17.1579372,18.6534473 L18.6534473,17.1579372 C18.4458263,17.3655582 18.4489788,17.7046559 18.6496908,17.9053679 L13.4400791,12.6957562 C13.6455275,12.9012045 13.9751077,12.9044016 14.1875097,12.6919997 L12.6919997,14.1875097 C12.8996207,13.9798887 12.8964681,13.640791 12.6957562,13.4400791 L12.6957562,13.4400791 Z M11.9514332,14.184402 C11.745715,13.9786838 11.739537,13.6513265 11.9476767,13.4431868 L13.4431868,11.9476767 C13.6468304,11.7440331 13.9837035,11.7507347 14.184402,11.9514332 L19.3940137,17.1610449 C19.599732,17.3667632 19.60591,17.6941204 19.3977702,17.9022602 L17.9022602,19.3977702 C17.6986166,19.6014138 17.3617434,19.5947122 17.1610449,19.3940137 L11.9514332,14.184402 L11.9514332,14.184402 Z" id="Rectangle-8"></path>
                <polygon id="Path-109" points="10.6730845 11.4321503 12.9060533 13.665119 13.6503762 12.9207961 11.4174075 10.6878273"></polygon>
            </g>
        </g>
        <g id="Group-7" transform="translate(116.000000, 85.000000)">
            <rect id="Rectangle" x="0" y="0" width="24" height="24"></rect>
            <circle id="Oval-2" stroke="#848DA0" stroke-width="1.2" cx="11.8855835" cy="11.8855835" r="9.88558352"></circle>
            <polygon id="Path" fill="#848DA0" fill-rule="nonzero" transform="translate(12.100000, 12.000000) rotate(45.000000) translate(-12.100000, -12.000000) " points="11.5 6 12.7 6 12.7 18 11.5 18"></polygon>
            <polygon id="Path" fill="#848DA0" fill-rule="nonzero" transform="translate(12.000000, 12.100000) rotate(45.000000) translate(-12.000000, -12.100000) " points="6 12.7 6 11.5 18 11.5 18 12.7"></polygon>
        </g>
        <g id="Group-5" transform="translate(27.000000, 97.000000) rotate(90.000000) translate(-27.000000, -97.000000) translate(15.000000, 85.000000)">
            <polygon id="Shape" points="0 0 24 0 24 24 0 24"></polygon>
            <g id="Group-4" transform="translate(2.000000, 2.000000)" fill="#848DA0" fill-rule="nonzero">
                <polygon id="Line" points="2.10877896 10.1381907 19.4028966 10.1381907 20.0205437 10.1381907 20.0205437 8.90289661 19.4028966 8.90289661 2.10877896 8.90289661 1.49113191 8.90289661 1.49113191 10.1381907"></polygon>
                <polygon id="Line" points="1.31022727 9.95728609 9.95728609 1.31022727 10.3940285 0.873484847 9.52054367 -1.69908532e-12 9.08380125 0.436742424 0.436742424 9.08380125 1.19904087e-13 9.52054367 0.873484847 10.3940285"></polygon>
                <polygon id="Line" points="9.95728609 17.7308601 1.31022727 9.08380125 0.873484847 8.64705882 1.19904087e-13 9.52054367 0.436742424 9.95728609 9.08380125 18.6043449 9.52054367 19.0410873 10.3940285 18.1676025"></polygon>
            </g>
        </g>
        <g id="Group-5-Copy" transform="translate(57.000000, 97.000000) scale(1, -1) rotate(90.000000) translate(-57.000000, -97.000000) translate(45.000000, 85.000000)">
            <polygon id="Shape" points="0 0 24 0 24 24 0 24"></polygon>
            <g id="Group-4" transform="translate(2.000000, 2.000000)" fill="#848DA0" fill-rule="nonzero">
                <polygon id="Line" points="2.10877896 10.1381907 19.4028966 10.1381907 20.0205437 10.1381907 20.0205437 8.90289661 19.4028966 8.90289661 2.10877896 8.90289661 1.49113191 8.90289661 1.49113191 10.1381907"></polygon>
                <polygon id="Line" points="1.31022727 9.95728609 9.95728609 1.31022727 10.3940285 0.873484847 9.52054367 -1.69908532e-12 9.08380125 0.436742424 0.436742424 9.08380125 1.19904087e-13 9.52054367 0.873484847 10.3940285"></polygon>
                <polygon id="Line" points="9.95728609 17.7308601 1.31022727 9.08380125 0.873484847 8.64705882 1.19904087e-13 9.52054367 0.436742424 9.95728609 9.08380125 18.6043449 9.52054367 19.0410873 10.3940285 18.1676025"></polygon>
            </g>
        </g>
        <g id="Group-6" transform="translate(307.000000, 94.000000)" fill="#EE5D5D" fill-rule="nonzero" stroke="#EE5D5D" stroke-width="0.3">
            <polygon id="Path-143" points="3.78186371e-12 1.79990817 12.7272727 14.5271809 13.6272268 15.427135 14.5271809 14.5271809 27.2544536 1.79990817 25.4545455 -1.687539e-14 12.7272727 12.7272727 14.5271809 12.7272727 1.79990817 -1.687539e-14"></polygon>
            <polygon id="Path-143-Copy" transform="translate(13.627227, 19.677080) scale(1, -1) translate(-13.627227, -19.677080) " points="3.78186371e-12 13.7634202 12.7272727 26.490693 13.6272268 27.3906471 14.5271809 26.490693 27.2544536 13.7634202 25.4545455 11.9635121 12.7272727 24.6907848 14.5271809 24.6907848 1.79990817 11.9635121"></polygon>
        </g>
        <g id="Group-8" transform="translate(308.000000, 173.000000)" fill="#EE5D5D" fill-rule="nonzero" stroke="#EE5D5D" stroke-width="0.7">
            <polygon id="Path-143" points="-1.70707892e-12 1.41421356 10 11.4142136 10.7071068 12.1213203 11.4142136 11.4142136 21.4142136 1.41421356 20 1.80300219e-13 10 10 11.4142136 10 1.41421356 1.80300219e-13"></polygon>
            <polygon id="Path-143-Copy" transform="translate(10.707107, 15.460563) scale(1, -1) translate(-10.707107, -15.460563) " points="-1.70707892e-12 10.8141159 10 20.8141159 10.7071068 21.5212227 11.4142136 20.8141159 21.4142136 10.8141159 20 9.39990234 10 19.3999023 11.4142136 19.3999023 1.41421356 9.39990234"></polygon>
        </g>
    </g>
</svg>