<?xml version="1.0" encoding="UTF-8"?>
<svg width="348px" height="197px" viewBox="0 0 348 197" version="1.1" xmlns="http://www.w3.org/2000/svg" xmlns:xlink="http://www.w3.org/1999/xlink">
    <!-- Generator: Sketch 60.1 (88133) - https://sketch.com -->
    <title>FSD - Sprint 1</title>
    <desc>Created with Sketch.</desc>
    <g id="FSD---Sprint-1" stroke="none" stroke-width="1" fill="none" fill-rule="evenodd">
        <g id="Group" transform="translate(85.000000, 121.000000)" fill="#1179EF" fill-rule="nonzero">
            <polygon id="Line" points="10.3888889 14.6666667 10.3888889 15.2777778 11.6111111 15.2777778 11.6111111 14.6666667 11.6111111 1.22222222 11.6111111 0.611111111 10.3888889 0.611111111 10.3888889 1.22222222"></polygon>
            <polygon id="Line" points="16.3210097 11.4321208 16.7531305 11 15.8888889 10.1357584 15.4567681 10.5678792 10.5678792 15.4567681 10.1357584 15.8888889 11 16.7531305 11.4321208 16.3210097"></polygon>
            <polygon id="Line" points="6.54323192 10.5678792 6.11111111 10.1357584 5.24686949 11 5.6789903 11.4321208 10.5678792 16.3210097 11 16.7531305 11.8642416 15.8888889 11.4321208 15.4567681"></polygon>
            <polygon id="Path-4" points="0.611111111 20.7777778 0.611111111 21.3888889 1.22222222 21.3888889 20.7777778 21.3888889 21.3888889 21.3888889 21.3888889 20.7777778 21.3888889 17.1111111 20.1666667 17.1111111 20.1666667 20.7777778 20.7777778 20.1666667 1.22222222 20.1666667 1.83333333 20.7777778 1.83333333 17.1111111 0.611111111 17.1111111"></polygon>
        </g>
        <g id="Group-Copy" transform="translate(135.000000, 121.000000)" fill="#FFFFFF" fill-rule="nonzero">
            <polygon id="Line" points="10.3888889 14.6666667 10.3888889 15.2777778 11.6111111 15.2777778 11.6111111 14.6666667 11.6111111 1.22222222 11.6111111 0.611111111 10.3888889 0.611111111 10.3888889 1.22222222"></polygon>
            <polygon id="Line" points="16.3210097 11.4321208 16.7531305 11 15.8888889 10.1357584 15.4567681 10.5678792 10.5678792 15.4567681 10.1357584 15.8888889 11 16.7531305 11.4321208 16.3210097"></polygon>
            <polygon id="Line" points="6.54323192 10.5678792 6.11111111 10.1357584 5.24686949 11 5.6789903 11.4321208 10.5678792 16.3210097 11 16.7531305 11.8642416 15.8888889 11.4321208 15.4567681"></polygon>
            <polygon id="Path-4" points="0.611111111 20.7777778 0.611111111 21.3888889 1.22222222 21.3888889 20.7777778 21.3888889 21.3888889 21.3888889 21.3888889 20.7777778 21.3888889 17.1111111 20.1666667 17.1111111 20.1666667 20.7777778 20.7777778 20.1666667 1.22222222 20.1666667 1.83333333 20.7777778 1.83333333 17.1111111 0.611111111 17.1111111"></polygon>
        </g>
        <g id="Group-25" transform="translate(20.000000, 126.000000)">
            <circle id="Oval-6" stroke="#1179EF" cx="6" cy="6" r="5.5"></circle>
            <polygon id="Path-56" fill="#1179EF" points="5 4 5 8 8 6"></polygon>
        </g>
        <g id="Group-25-Copy" transform="translate(50.000000, 126.000000)">
            <circle id="Oval-6" fill="#1179EF" cx="6" cy="6" r="6"></circle>
            <polygon id="Path-56" fill="#FFFFFF" points="5 4 5 8 8 6"></polygon>
        </g>
        <g id="Group-25" transform="translate(110.000000, 20.000000)">
            <rect id="Rectangle-Copy-10" fill="#FFFFFF" opacity="0" x="0" y="0" width="70" height="70"></rect>
            <g id="Group-21" transform="translate(2.000000, 2.000000)" fill="#1179EF" fill-rule="nonzero">
                <path d="M32.7446244,26.6046512 C40.091296,26.6046512 46.04695,20.6489971 46.04695,13.3023256 C46.04695,5.95565403 40.091296,0 32.7446244,0 C25.3979529,0 19.4422988,5.95565403 19.4422988,13.3023256 C19.4422988,20.6489971 25.3979529,26.6046512 32.7446244,26.6046512 Z M32.7446244,2.04651163 C38.9610388,2.04651163 44.0004384,7.08591119 44.0004384,13.3023256 C44.0004384,19.51874 38.9610388,24.5581395 32.7446244,24.5581395 C26.52821,24.5581395 21.4888105,19.51874 21.4888105,13.3023256 C21.4888105,7.08591119 26.52821,2.04651163 32.7446244,2.04651163 Z" id="Shape"></path>
                <path d="M9.20974071,40.7255814 C9.20974071,32.6572093 15.4106709,26.0930233 23.0236942,26.0930233 L24.2618337,26.0930233 C23.3878334,25.5119409 22.5752709,24.8433768 21.8367174,24.0976744 C13.6967174,24.7372093 7.24508954,31.864186 7.16322908,40.572093 L9.20974071,40.7972093 L9.20974071,40.7255814 Z" id="Path"></path>
                <path d="M64.1995081,47.0697674 L64.1995081,47.0697674 C63.9156433,47.361396 63.6167893,47.6380494 63.3041593,47.8986047 C63.4016866,48.5557188 63.4478728,49.2194322 63.4422988,49.8837209 C63.4422988,53.0302326 62.419043,54.8823256 61.9074151,55.2251163 C61.3957872,54.8823256 60.3725314,53.0302326 60.3725314,49.8837209 C60.3725314,49.8223256 60.3725314,49.7660465 60.3725314,49.7097674 C59.7119515,49.9905323 59.0268779,50.2097558 58.3260198,50.3646512 C58.3300689,52.2563018 58.8160546,54.1157254 59.7381128,55.7674419 L38.3725314,53.5827907 C38.3725314,53.46 38.3725314,53.332093 38.3725314,53.2093023 L38.3725314,47.0697674 C38.3725314,46.9981395 38.3725314,46.9316279 38.3725314,46.8651163 L46.4050895,45.9902326 C45.9465621,45.3871595 45.5473449,44.7412157 45.2129965,44.0613953 L37.7381128,44.88 C36.987587,43.6947977 35.6823601,42.9765367 34.2795081,42.9767442 L30.1864849,42.9767442 C28.8221437,42.9781295 27.5481901,43.6592342 26.7892756,44.7930233 L5.11671745,42.4037209 C2.61997326,42.1274419 1.35113605,44.1227907 0.655322101,46.1948837 C0.213258847,47.5508778 -0.00785879379,48.9691402 0.000213268599,50.3953488 C0.000213268599,52.3651163 0.32788024,54.4883721 1.39206629,56.2023256 C2.19362509,57.4497331 3.64882545,58.1153674 5.11671745,57.9060465 L14.5306709,56.9288372 L13.9832291,57.7883721 C12.7911361,59.6455814 13.2618337,61.2009302 15.0320663,61.2623256 L18.234857,61.3748837 L19.4422988,64.3576744 C19.7543919,65.1148837 20.2404384,65.4883721 20.7929965,65.4883721 C21.4376477,65.4883721 22.1743919,64.9767442 22.8395081,63.9534884 L27.6283454,56.4172093 C28.355993,56.9938425 29.2580648,57.3059594 30.1864849,57.3023256 L34.2795081,57.3023256 C35.5055529,57.2997974 36.6658962,56.7477894 37.4413686,55.7981395 L42.6804384,63.984186 C43.3199733,65.0074419 44.0567174,65.5190698 44.72695,65.5190698 C45.2795081,65.5190698 45.7502058,65.1455814 46.0776477,64.3883721 L47.274857,61.3953488 L50.4776477,61.2827907 C52.2478802,61.2213953 52.7185779,59.6660465 51.5264849,57.8088372 L50.9841593,56.9646512 L60.3725314,57.9060465 C60.5105805,57.9131151 60.6489009,57.9131151 60.78695,57.9060465 C62.3614956,57.9303619 63.7671906,56.9233278 64.2506709,55.4246512 C65.1028433,53.7040737 65.5275602,51.8033779 65.4888105,49.8837209 C65.4873866,48.6264351 65.3152721,47.375163 64.9771826,46.164186 C64.7331178,46.4787416 64.473573,46.7809747 64.1995081,47.0697674 L64.1995081,47.0697674 Z M3.58183373,55.7367442 C3.07020582,55.3939535 2.04695001,53.5418605 2.04695001,50.3953488 C2.04695001,47.2488372 3.07020582,45.3967442 3.58183373,45.0539535 C4.09346164,45.3967442 5.11671745,47.2488372 5.11671745,50.3953488 C5.11671745,53.5418605 4.09346164,55.3939535 3.58183373,55.7367442 Z M21.0846244,62.8739535 L21.059043,62.9148837 L19.6060198,59.3488372 L15.5129965,59.2055814 C15.559043,59.1083721 17.134857,56.6474419 17.134857,56.6474419 L25.6329965,55.7674419 L21.0846244,62.8739535 Z M6.0581128,55.7674419 C6.82833383,54.0834675 7.20620192,52.2466088 7.16322908,50.3953488 C7.16322908,48.0111628 6.61578722,45.8930233 5.77160117,44.5372093 L26.0934616,46.7730233 C26.0934616,46.8702326 26.0934616,46.9674419 26.0934616,47.0697674 L26.0934616,53.2093023 C26.0935193,53.3614427 26.1020597,53.5134616 26.119043,53.6646512 L6.0581128,55.7674419 Z M36.3260198,53.2093023 C36.3260198,54.3395595 35.4097653,55.255814 34.2795081,55.255814 L30.1864849,55.255814 C29.0562277,55.255814 28.1399733,54.3395595 28.1399733,53.2093023 L28.1399733,47.0697674 C28.1399733,45.9395103 29.0562277,45.0232558 30.1864849,45.0232558 L34.2795081,45.0232558 C35.4097653,45.0232558 36.3260198,45.9395103 36.3260198,47.0697674 L36.3260198,53.2093023 Z M45.8832291,59.3488372 L44.4353221,62.9302326 L44.4097407,62.8893023 L39.8767174,55.8134884 L48.3902058,56.6883721 L49.8125314,58.9037209 C49.882437,59.0123267 49.9456551,59.1250941 50.0018337,59.2413953 L45.8832291,59.3488372 Z" id="Shape"></path>
                <path d="M41.2171826,26.0930233 L42.4655547,26.0930233 C45.2180877,26.0957537 47.9010762,26.9578873 50.1399733,28.5590698 C50.8200477,28.178226 51.5364746,27.8662889 52.2785779,27.627907 C49.8358707,25.5835328 46.8176304,24.3497734 43.6422988,24.0976744 C42.9037454,24.8433768 42.0911828,25.5119409 41.2171826,26.0930233 Z" id="Path"></path>
                <path d="M46.04695,38.8837209 C46.04695,44.2524425 50.3991587,48.6046512 55.7678802,48.6046512 C61.1366018,48.6046512 65.4888105,44.2524425 65.4888105,38.8837209 C65.4888105,33.5149994 61.1366018,29.1627907 55.7678802,29.1627907 C50.3991587,29.1627907 46.04695,33.5149994 46.04695,38.8837209 Z M55.7678802,31.2093023 C60.0063446,31.2093023 63.4422988,34.6452566 63.4422988,38.8837209 C63.4422988,43.1221853 60.0063446,46.5581395 55.7678802,46.5581395 C51.5294159,46.5581395 48.0934616,43.1221853 48.0934616,38.8837209 C48.0934616,34.6452566 51.5294159,31.2093023 55.7678802,31.2093023 Z" id="Shape"></path>
                <path d="M38.3264849,34.0334884 C38.2088096,33.6534874 37.8815643,33.3761271 37.4874151,33.3223256 L34.82695,32.9590698 L33.6502058,30.7283721 C33.4732914,30.3920914 33.1246027,30.181535 32.7446244,30.181535 C32.3646462,30.181535 32.0159575,30.3920914 31.839043,30.7283721 L30.6622988,32.9590698 L28.0018337,33.3223256 C27.6078649,33.3754868 27.2803428,33.6520184 27.1618916,34.0315008 C27.0434405,34.4109832 27.1555013,34.8247257 27.4492756,35.0925581 L29.3320663,36.8065116 L28.8920663,39.2111628 C28.8212318,39.5918674 28.9713738,39.9799436 29.279991,40.2138429 C29.5886082,40.4477423 30.002823,40.4873891 30.3502058,40.3162791 L32.7446244,39.1395349 L35.139043,40.3162791 C35.4864259,40.4873891 35.9006407,40.4477423 36.2092579,40.2138429 C36.5178751,39.9799436 36.668017,39.5918674 36.5971826,39.2111628 L36.1571826,36.8065116 L38.0399733,35.0925581 C38.3326569,34.8248952 38.4443026,34.4122048 38.3264849,34.0334884 Z M34.3562523,35.6809302 C34.0950697,35.9189128 33.9751491,36.2748063 34.039043,36.6223256 L34.2129965,37.584186 L33.1897407,37.0725581 C32.9057166,36.9333923 32.5732997,36.9333923 32.2892756,37.0725581 L31.2660198,37.584186 L31.4399733,36.6223256 C31.5038672,36.2748063 31.3839466,35.9189128 31.122764,35.6809302 L30.4422988,35.0567442 L31.4655547,34.9186047 C31.788084,34.8795637 32.072909,34.6896804 32.2329965,34.4069767 L32.7446244,33.4246512 L33.2562523,34.4069767 C33.4163398,34.6896804 33.7011649,34.8795637 34.0236942,34.9186047 L35.04695,35.0567442 L34.3562523,35.6809302 Z" id="Shape"></path>
                <path d="M53.4809035,41.2986047 C53.8162579,41.7332654 54.4348661,41.8258308 54.882764,41.5083721 L59.9376477,37.9269767 C60.3677436,37.5903311 60.4576285,36.975243 60.1418511,36.5296004 C59.8260736,36.0839577 59.215965,35.9648773 58.7557872,36.2590698 L54.499043,39.2725581 L52.994857,37.3232558 C52.6501285,36.8753914 52.0076051,36.7917832 51.5597407,37.1365117 C51.1118763,37.4812401 51.0282681,38.1237635 51.3729965,38.5716279 L53.4809035,41.2986047 Z" id="Path"></path>
            </g>
        </g>
        <g id="Group-38" transform="translate(20.000000, 20.000000)">
            <rect id="Rectangle" fill="#FFFFFF" opacity="0" x="0" y="0" width="70" height="70"></rect>
            <g id="Group-7" transform="translate(9.000000, 9.000000)" fill="#1179EF" fill-rule="nonzero">
                <path d="M40.0833333,52 C33.5118333,52 28.1666667,46.6526667 28.1666667,40.0833333 C28.1666667,33.514 33.5118333,28.1666667 40.0833333,28.1666667 C46.6548333,28.1666667 52,33.514 52,40.0833333 C52,46.6526667 46.6548333,52 40.0833333,52 Z M40.0833333,30.3333333 C34.7078333,30.3333333 30.3333333,34.7078333 30.3333333,40.0833333 C30.3333333,45.4588333 34.7078333,49.8333333 40.0833333,49.8333333 C45.4588333,49.8333333 49.8333333,45.4588333 49.8333333,40.0833333 C49.8333333,34.7078333 45.4588333,30.3333333 40.0833333,30.3333333 Z" id="Shape"></path>
                <path d="M37.9166667,45.5 C37.6393333,45.5 37.362,45.3938333 37.1496667,45.1836667 L32.8163333,40.8503333 C32.3938333,40.4278333 32.3938333,39.741 32.8163333,39.3185 C33.2388333,38.896 33.9256667,38.896 34.3481667,39.3185 L37.9145,42.8848333 L45.8141667,34.9851667 C46.2366667,34.5626667 46.9235,34.5626667 47.346,34.9851667 C47.7685,35.4076667 47.7685,36.0945 47.346,36.517 L38.6793333,45.1836667 C38.4713333,45.3938333 38.194,45.5 37.9166667,45.5 Z" id="Path"></path>
                <path d="M29.4775,52 L1.08333333,52 C0.485333333,52 0,51.5146667 0,50.9166667 L0,45.7123333 C0,45.6235 0.0108333333,45.5346667 0.0325,45.4501667 C0.598,43.1881667 1.48416667,40.976 4.12533333,40.0941667 L13.741,36.8896667 C16.0008333,35.945 17.0581667,32.2053333 17.2856667,30.7861667 C15.6281667,29.263 14.0833333,26.9728333 14.0833333,24.9166667 C14.0833333,24.1496667 13.8558333,23.8333333 13.7345,23.7748333 C13.3965,23.6903333 13.2058333,23.4758333 13.0758333,23.153 C12.9588333,22.8561667 11.9166667,20.1976667 11.9166667,18.4166667 C11.9166667,18.3278333 11.9275,18.239 11.9491667,18.1545 C12.0683333,17.6778333 12.3998333,16.9845 13,16.5771667 L13,10.8333333 C13,6.30933333 17.121,0 23.8333333,0 C30.4633333,0 32.266,3.3995 32.4783333,5.08083333 C33.6006667,5.91283333 34.6666667,7.34283333 34.6666667,10.8333333 L34.6666667,16.5771667 C35.2668333,16.9845 35.5983333,17.6778333 35.7175,18.1545 C35.7391667,18.239 35.75,18.3278333 35.75,18.4166667 C35.75,20.1976667 34.7078333,22.8561667 34.5886667,23.153 C34.4586667,23.4758333 34.1813333,23.7185 33.8455,23.803 C33.8108333,23.8333333 33.5833333,24.1496667 33.5833333,24.9166667 C33.5833333,25.8591667 33.2626667,26.8926667 32.6321667,27.9933333 C32.3331667,28.5111667 31.6701667,28.6888333 31.1523333,28.3941667 C30.6345,28.0951667 30.4546667,27.4343333 30.7515,26.9143333 C31.187,26.156 31.4166667,25.467 31.4166667,24.9166667 C31.4166667,23.2981667 32.0861667,22.4011667 32.7188333,21.9765 C33.0308333,21.1271667 33.527,19.5845 33.579,18.5813333 C33.5421667,18.4968333 33.4901667,18.408 33.4555,18.3776667 C32.8575,18.3755 32.5,17.9313333 32.5,17.3333333 L32.5,10.8333333 C32.5,7.644 31.4751667,6.99616667 31.0375,6.71666667 C30.7753333,6.54766667 30.3333333,6.27033333 30.2683333,5.6745 C30.2553333,5.5445 30.2726667,5.39933333 30.316,5.252 C30.1621667,4.39183333 28.8621667,2.16666667 23.8333333,2.16666667 C18.5423333,2.16666667 15.1666667,7.2995 15.1666667,10.8333333 L15.1666667,17.3333333 C15.1666667,17.9313333 14.6813333,18.4166667 14.0833333,18.4166667 C14.1353333,18.4166667 14.1158333,18.4903333 14.0876667,18.5726667 C14.1375,19.5823333 14.6358333,21.1271667 14.9478333,21.9743333 C15.5805,22.399 16.25,23.2981667 16.25,24.9166667 C16.25,26.3748333 17.6865,28.3248333 19.1056667,29.497 C19.357,29.705 19.5,30.0105 19.5,30.3333333 C19.5,31.7091667 18.2498333,37.3533333 14.4993333,38.9176667 L4.81,42.1503333 C3.276,42.6616667 2.66716667,43.8945 2.16666667,45.8466667 L2.16666667,49.8333333 L29.4775,49.8333333 C30.0755,49.8333333 30.5608333,50.3186667 30.5608333,50.9166667 C30.5608333,51.5146667 30.0776667,52 29.4775,52 Z" id="Path"></path>
            </g>
        </g>
        <g id="Group-25" transform="translate(200.000000, 20.000000)">
            <rect id="Rectangle-Copy-10" fill="#FFFFFF" opacity="0" x="0" y="0" width="50" height="50"></rect>
            <g id="Group-21" transform="translate(1.428571, 1.428571)" fill="#1179EF" fill-rule="nonzero">
                <path d="M23.3890174,19.0033223 C28.63664,19.0033223 32.8906786,14.7492837 32.8906786,9.50166113 C32.8906786,4.25403859 28.63664,0 23.3890174,0 C18.1413949,0 13.8873563,4.25403859 13.8873563,9.50166113 C13.8873563,14.7492837 18.1413949,19.0033223 23.3890174,19.0033223 Z M23.3890174,1.46179402 C27.8293134,1.46179402 31.4288846,5.06136513 31.4288846,9.50166113 C31.4288846,13.9419571 27.8293134,17.5415282 23.3890174,17.5415282 C18.9487215,17.5415282 15.3491503,13.9419571 15.3491503,9.50166113 C15.3491503,5.06136513 18.9487215,1.46179402 23.3890174,1.46179402 Z" id="Shape"></path>
                <path d="M6.57838622,29.089701 C6.57838622,23.3265781 11.0076221,18.6378738 16.4454959,18.6378738 L17.3298812,18.6378738 C16.7055953,18.2228149 16.1251935,17.7452691 15.5976553,17.2126246 C9.78336961,17.6694352 5.17506396,22.7601329 5.1165922,28.9800664 L6.57838622,29.1408638 L6.57838622,29.089701 Z" id="Path"></path>
                <path d="M45.8567915,33.6212625 L45.8567915,33.6212625 C45.6540309,33.8295686 45.4405638,34.0271782 45.2172566,34.213289 C45.286919,34.6826563 45.3199092,35.1567373 45.3159277,35.6312292 C45.3159277,37.8787375 44.5850307,39.2016611 44.2195822,39.4465116 C43.8541337,39.2016611 43.1232367,37.8787375 43.1232367,35.6312292 C43.1232367,35.5873754 43.1232367,35.5471761 43.1232367,35.5069767 C42.6513939,35.707523 42.1620556,35.8641113 41.6614427,35.9747508 C41.6643349,37.3259298 42.0114676,38.6540896 42.6700806,39.833887 L27.408951,38.2734219 C27.408951,38.1857143 27.408951,38.0943522 27.408951,38.0066445 L27.408951,33.6212625 C27.408951,33.5700997 27.408951,33.5225914 27.408951,33.4750831 L33.1464925,32.8501661 C32.8189729,32.4193996 32.5338178,31.9580112 32.2949975,31.4724252 L26.9557949,32.0571429 C26.419705,31.2105698 25.4874,30.6975262 24.485363,30.6976744 L21.5617749,30.6976744 C20.5872455,30.6986639 19.6772786,31.1851673 19.1351968,31.9950166 L3.65479818,30.2883721 C1.87140947,30.0910299 0.965097181,31.5162791 0.468087215,32.9963455 C0.152327748,33.9649127 -0.00561342413,34.9779573 0.000152334714,35.9966777 C0.000152334714,37.4036545 0.234200172,38.9202658 0.994333062,40.1445183 C1.56687507,41.0355237 2.6063039,41.5109767 3.65479818,41.3614618 L10.3790507,40.6634551 L9.98802077,41.2774086 C9.13652575,42.6039867 9.47273838,43.7149502 10.7371902,43.758804 L13.0248978,43.8392027 L13.8873563,45.9697674 C14.1102799,46.5106312 14.457456,46.7774086 14.8521404,46.7774086 C15.3126055,46.7774086 15.8388513,46.4119601 16.3139344,45.6810631 L19.7345324,40.2980066 C20.2542807,40.7098875 20.8986177,40.9328281 21.5617749,40.9302326 L24.485363,40.9302326 C25.3611092,40.9284267 26.1899259,40.5341353 26.7438347,39.855814 L30.4860274,45.70299 C30.942838,46.433887 31.4690839,46.7993355 31.9478214,46.7993355 C32.3425058,46.7993355 32.6787184,46.5325581 32.9126055,45.9916944 L33.767755,43.8538206 L36.0554626,43.7734219 C37.3199145,43.7295681 37.6561271,42.6186047 36.8046321,41.2920266 L36.4172566,40.6890365 L43.1232367,41.3614618 C43.2218432,41.3665108 43.3206435,41.3665108 43.41925,41.3614618 C44.5439254,41.3788299 45.5479933,40.6595199 45.8933364,39.5890365 C46.5020309,38.3600526 46.8054001,37.0024128 46.7777218,35.6312292 C46.7767047,34.7331679 46.6537658,33.8394021 46.4122733,32.9744186 C46.2379413,33.1991011 46.0525521,33.4149819 45.8567915,33.6212625 L45.8567915,33.6212625 Z M2.55845266,39.8119601 C2.19300416,39.5671096 1.46210715,38.244186 1.46210715,35.9966777 C1.46210715,33.7491694 2.19300416,32.4262458 2.55845266,32.1813953 C2.92390117,32.4262458 3.65479818,33.7491694 3.65479818,35.9966777 C3.65479818,38.244186 2.92390117,39.5671096 2.55845266,39.8119601 Z M15.060446,44.9099668 L15.0421736,44.9392027 L14.0042998,42.3920266 L11.0807118,42.289701 C11.1136022,42.2202658 12.2391836,40.4624585 12.2391836,40.4624585 L18.3092832,39.833887 L15.060446,44.9099668 Z M4.32722343,39.833887 C4.87738131,38.6310482 5.14728708,37.3190063 5.1165922,35.9966777 C5.1165922,34.2936877 4.7255623,32.7807309 4.12257226,31.8122924 L18.6381869,33.4093023 C18.6381869,33.4787375 18.6381869,33.5481728 18.6381869,33.6212625 L18.6381869,38.0066445 C18.6382281,38.1153162 18.6443284,38.2239012 18.6564593,38.3318937 L4.32722343,39.833887 Z M25.947157,38.0066445 C25.947157,38.8139711 25.2926895,39.4684385 24.485363,39.4684385 L21.5617749,39.4684385 C20.7544484,39.4684385 20.0999809,38.8139711 20.0999809,38.0066445 L20.0999809,33.6212625 C20.0999809,32.8139359 20.7544484,32.1594684 21.5617749,32.1594684 L24.485363,32.1594684 C25.2926895,32.1594684 25.947157,32.8139359 25.947157,33.6212625 L25.947157,38.0066445 Z M32.7737351,42.3920266 L31.7395158,44.9501661 L31.7212434,44.9209302 L28.4833696,39.8667774 L34.5644327,40.4916944 L35.5803796,42.0740864 C35.6303122,42.1516619 35.6754679,42.2322101 35.7155955,42.3152824 L32.7737351,42.3920266 Z" id="Shape"></path>
                <path d="M29.4408447,18.6378738 L30.332539,18.6378738 C32.298634,18.6398241 34.2150544,19.2556338 35.8142666,20.3993355 C36.3000341,20.1273043 36.8117676,19.9044921 37.3418414,19.7342193 C35.5970505,18.273952 33.4411646,17.3926953 31.1730706,17.2126246 C30.6455324,17.7452691 30.0651306,18.2228149 29.4408447,18.6378738 Z" id="Path"></path>
                <path d="M32.8906786,27.7740864 C32.8906786,31.6088875 35.9993991,34.717608 39.8342002,34.717608 C43.6690013,34.717608 46.7777218,31.6088875 46.7777218,27.7740864 C46.7777218,23.9392853 43.6690013,20.8305648 39.8342002,20.8305648 C35.9993991,20.8305648 32.8906786,23.9392853 32.8906786,27.7740864 Z M39.8342002,22.2923588 C42.8616747,22.2923588 45.3159277,24.7466118 45.3159277,27.7740864 C45.3159277,30.8015609 42.8616747,33.255814 39.8342002,33.255814 C36.8067256,33.255814 34.3524726,30.8015609 34.3524726,27.7740864 C34.3524726,24.7466118 36.8067256,22.2923588 39.8342002,22.2923588 Z" id="Shape"></path>
                <path d="M27.3760606,24.3096346 C27.2920069,24.0382053 27.0582602,23.8400908 26.7767251,23.8016611 L24.8763929,23.5421927 L24.0358613,21.9488372 C23.9094938,21.7086367 23.6604305,21.5582393 23.3890174,21.5582393 C23.1176044,21.5582393 22.8685411,21.7086367 22.7421736,21.9488372 L21.901642,23.5421927 L20.0013098,23.8016611 C19.7199035,23.8396334 19.4859591,24.037156 19.4013512,24.3082149 C19.3167432,24.5792737 19.3967867,24.8748041 19.6066254,25.066113 L20.9514759,26.2903654 L20.6371902,28.0079734 C20.5865942,28.2799053 20.6938384,28.5571026 20.9142793,28.7241735 C21.1347201,28.8912445 21.4305878,28.9195636 21.6787184,28.7973422 L23.3890174,27.9568106 L25.0993165,28.7973422 C25.3474471,28.9195636 25.6433148,28.8912445 25.8637556,28.7241735 C26.0841965,28.5571026 26.1914407,28.2799053 26.1408447,28.0079734 L25.826559,26.2903654 L27.1714095,25.066113 C27.3804692,24.8749252 27.4602161,24.5801463 27.3760606,24.3096346 Z M24.5401802,25.4863787 C24.3536212,25.6563663 24.2679636,25.9105759 24.3136022,26.158804 L24.4378547,26.8458472 L23.7069576,26.4803987 C23.5040833,26.3809945 23.2666426,26.3809945 23.0637683,26.4803987 L22.3328713,26.8458472 L22.4571238,26.158804 C22.5027623,25.9105759 22.4171047,25.6563663 22.2305457,25.4863787 L21.7444992,25.0405316 L22.4753962,24.9418605 C22.7057743,24.9139741 22.9092207,24.7783431 23.0235689,24.576412 L23.3890174,23.8747508 L23.754466,24.576412 C23.8688142,24.7783431 24.0722606,24.9139741 24.3026387,24.9418605 L25.0335357,25.0405316 L24.5401802,25.4863787 Z" id="Shape"></path>
                <path d="M38.2006454,29.4990033 C38.4401842,29.8094753 38.8820472,29.8755934 39.2019743,29.6488372 L42.8126055,27.0906977 C43.1198169,26.8502365 43.1840204,26.4108879 42.958465,26.0925717 C42.7329097,25.7742555 42.2971178,25.6891981 41.9684194,25.8993355 L38.9278879,28.0518272 L37.8534693,26.6594684 C37.6072347,26.3395653 37.1482894,26.2798452 36.8283862,26.5260798 C36.5084831,26.7723143 36.4487629,27.2312596 36.6949975,27.5511628 L38.2006454,29.4990033 Z" id="Path"></path>
            </g>
        </g>
        <g id="Group-38" transform="translate(270.000000, 20.000000)">
            <rect id="Rectangle" fill="#FFFFFF" opacity="0" x="0" y="0" width="50" height="50"></rect>
            <g id="Group-7" transform="translate(6.428571, 6.428571)" fill="#1179EF" fill-rule="nonzero">
                <path d="M28.6309524,37.1428571 C23.9370238,37.1428571 20.1190476,33.3233333 20.1190476,28.6309524 C20.1190476,23.9385714 23.9370238,20.1190476 28.6309524,20.1190476 C33.324881,20.1190476 37.1428571,23.9385714 37.1428571,28.6309524 C37.1428571,33.3233333 33.324881,37.1428571 28.6309524,37.1428571 Z M28.6309524,21.6666667 C24.7913095,21.6666667 21.6666667,24.7913095 21.6666667,28.6309524 C21.6666667,32.4705952 24.7913095,35.5952381 28.6309524,35.5952381 C32.4705952,35.5952381 35.5952381,32.4705952 35.5952381,28.6309524 C35.5952381,24.7913095 32.4705952,21.6666667 28.6309524,21.6666667 Z" id="Shape"></path>
                <path d="M27.0833333,32.5 C26.8852381,32.5 26.6871429,32.4241667 26.5354762,32.2740476 L23.4402381,29.1788095 C23.1384524,28.8770238 23.1384524,28.3864286 23.4402381,28.0846429 C23.7420238,27.7828571 24.232619,27.7828571 24.5344048,28.0846429 L27.0817857,30.6320238 L32.7244048,24.9894048 C33.0261905,24.687619 33.5167857,24.687619 33.8185714,24.9894048 C34.1203571,25.2911905 34.1203571,25.7817857 33.8185714,26.0835714 L27.6280952,32.2740476 C27.4795238,32.4241667 27.2814286,32.5 27.0833333,32.5 Z" id="Path"></path>
                <path d="M21.0553571,37.1428571 L0.773809524,37.1428571 C0.346666667,37.1428571 0,36.7961905 0,36.3690476 L0,32.6516667 C0,32.5882143 0.00773809524,32.5247619 0.0232142857,32.4644048 C0.427142857,30.8486905 1.06011905,29.2685714 2.94666667,28.6386905 L9.815,26.3497619 C11.4291667,25.675 12.1844048,23.0038095 12.3469048,21.990119 C11.1629762,20.9021429 10.0595238,19.2663095 10.0595238,17.797619 C10.0595238,17.2497619 9.89702381,17.0238095 9.81035714,16.9820238 C9.56892857,16.9216667 9.4327381,16.7684524 9.33988095,16.5378571 C9.25630952,16.3258333 8.51190476,14.4269048 8.51190476,13.1547619 C8.51190476,13.0913095 8.51964286,13.0278571 8.53511905,12.9675 C8.6202381,12.6270238 8.85702381,12.1317857 9.28571429,11.8408333 L9.28571429,7.73809524 C9.28571429,4.50666667 12.2292857,0 17.0238095,0 C21.7595238,0 23.0471429,2.42821429 23.1988095,3.62916667 C24.0004762,4.22345238 24.7619048,5.24488095 24.7619048,7.73809524 L24.7619048,11.8408333 C25.1905952,12.1317857 25.427381,12.6270238 25.5125,12.9675 C25.5279762,13.0278571 25.5357143,13.0913095 25.5357143,13.1547619 C25.5357143,14.4269048 24.7913095,16.3258333 24.7061905,16.5378571 C24.6133333,16.7684524 24.4152381,16.9417857 24.1753571,17.0021429 C24.1505952,17.0238095 23.9880952,17.2497619 23.9880952,17.797619 C23.9880952,18.4708333 23.7590476,19.2090476 23.3086905,19.9952381 C23.095119,20.365119 22.6215476,20.4920238 22.2516667,20.2815476 C21.8817857,20.0679762 21.7533333,19.5959524 21.9653571,19.2245238 C22.2764286,18.6828571 22.4404762,18.1907143 22.4404762,17.797619 C22.4404762,16.6415476 22.9186905,16.0008333 23.3705952,15.6975 C23.5934524,15.0908333 23.9478571,13.9889286 23.985,13.272381 C23.9586905,13.2120238 23.9215476,13.1485714 23.8967857,13.1269048 C23.4696429,13.1253571 23.2142857,12.8080952 23.2142857,12.3809524 L23.2142857,7.73809524 C23.2142857,5.46 22.4822619,4.9972619 22.1696429,4.79761905 C21.982381,4.67690476 21.6666667,4.47880952 21.6202381,4.05321429 C21.6109524,3.96035714 21.6233333,3.85666667 21.6542857,3.75142857 C21.5444048,3.13702381 20.6158333,1.54761905 17.0238095,1.54761905 C13.2445238,1.54761905 10.8333333,5.21392857 10.8333333,7.73809524 L10.8333333,12.3809524 C10.8333333,12.8080952 10.4866667,13.1547619 10.0595238,13.1547619 C10.0966667,13.1547619 10.0827381,13.207381 10.062619,13.2661905 C10.0982143,13.987381 10.4541667,15.0908333 10.6770238,15.6959524 C11.1289286,15.9992857 11.6071429,16.6415476 11.6071429,17.797619 C11.6071429,18.8391667 12.6332143,20.2320238 13.6469048,21.0692857 C13.8264286,21.2178571 13.9285714,21.4360714 13.9285714,21.6666667 C13.9285714,22.6494048 13.0355952,26.6809524 10.3566667,27.7983333 L3.43571429,30.107381 C2.34,30.472619 1.90511905,31.3532143 1.54761905,32.747619 L1.54761905,35.5952381 L21.0553571,35.5952381 C21.4825,35.5952381 21.8291667,35.9419048 21.8291667,36.3690476 C21.8291667,36.7961905 21.4840476,37.1428571 21.0553571,37.1428571 Z" id="Path"></path>
            </g>
        </g>
    </g>
</svg>