<svg width="179" height="77" viewBox="0 0 179 77" fill="none" xmlns="http://www.w3.org/2000/svg">
<g opacity="0.5">
<circle cx="67.7715" cy="30.8693" r="1.82618" fill="white" fill-opacity="0.2"/>
<circle cx="67.7715" cy="1.82618" r="1.82618" fill="white" fill-opacity="0.2"/>
<circle cx="125.974" cy="30.8692" r="1.82618" fill="white" fill-opacity="0.2"/>
<circle cx="176.645" cy="30.8692" r="1.82618" fill="white" fill-opacity="0.2"/>
<circle cx="125.974" cy="1.82618" r="1.82618" fill="white" fill-opacity="0.2"/>
<circle cx="176.645" cy="1.82618" r="1.82618" fill="white" fill-opacity="0.2"/>
<circle cx="75.0761" cy="30.8693" r="1.82618" fill="white" fill-opacity="0.2"/>
<circle cx="75.0761" cy="1.82618" r="1.82618" fill="white" fill-opacity="0.2"/>
<circle cx="82.3839" cy="30.8693" r="1.82618" fill="white" fill-opacity="0.2"/>
<circle cx="133.055" cy="30.8692" r="1.82618" fill="white" fill-opacity="0.2"/>
<circle cx="82.3839" cy="1.82618" r="1.82618" fill="white" fill-opacity="0.2"/>
<circle cx="133.055" cy="1.82618" r="1.82618" fill="white" fill-opacity="0.2"/>
<circle cx="89.6857" cy="30.8693" r="1.82618" fill="white" fill-opacity="0.2"/>
<circle cx="140.356" cy="30.8692" r="1.82618" fill="white" fill-opacity="0.2"/>
<circle cx="89.6857" cy="1.82618" r="1.82618" fill="white" fill-opacity="0.2"/>
<circle cx="140.356" cy="1.82618" r="1.82618" fill="white" fill-opacity="0.2"/>
<circle cx="96.9902" cy="30.8692" r="1.82618" fill="white" fill-opacity="0.2"/>
<circle cx="147.661" cy="30.8693" r="1.82618" fill="white" fill-opacity="0.2"/>
<circle cx="96.9902" cy="1.82618" r="1.82618" fill="white" fill-opacity="0.2"/>
<circle cx="147.661" cy="1.82618" r="1.82618" fill="white" fill-opacity="0.2"/>
<circle cx="104.293" cy="30.8693" r="1.82618" fill="white" fill-opacity="0.2"/>
<circle cx="154.964" cy="30.8693" r="1.82618" fill="white" fill-opacity="0.2"/>
<circle cx="104.293" cy="1.82618" r="1.82618" fill="white" fill-opacity="0.2"/>
<circle cx="154.964" cy="1.82618" r="1.82618" fill="white" fill-opacity="0.2"/>
<circle cx="111.603" cy="30.8693" r="1.82618" fill="white" fill-opacity="0.2"/>
<circle cx="162.273" cy="30.8692" r="1.82618" fill="white" fill-opacity="0.2"/>
<circle cx="111.603" cy="1.82618" r="1.82618" fill="white" fill-opacity="0.2"/>
<circle cx="162.273" cy="1.82618" r="1.82618" fill="white" fill-opacity="0.2"/>
<circle cx="118.906" cy="30.8693" r="1.82618" fill="white" fill-opacity="0.2"/>
<circle cx="169.577" cy="30.8693" r="1.82618" fill="white" fill-opacity="0.2"/>
<circle cx="118.906" cy="1.82618" r="1.82618" fill="white" fill-opacity="0.2"/>
<circle cx="169.577" cy="1.82618" r="1.82618" fill="white" fill-opacity="0.2"/>
<circle cx="67.7715" cy="38.1738" r="1.82618" fill="white" fill-opacity="0.2"/>
<circle cx="67.7715" cy="9.13087" r="1.82618" fill="white" fill-opacity="0.2"/>
<circle cx="125.974" cy="38.1738" r="1.82618" fill="white" fill-opacity="0.2"/>
<circle cx="176.645" cy="38.1738" r="1.82618" fill="white" fill-opacity="0.2"/>
<circle cx="125.974" cy="9.13087" r="1.82618" fill="white" fill-opacity="0.2"/>
<circle cx="176.645" cy="9.13087" r="1.82618" fill="white" fill-opacity="0.2"/>
<circle cx="75.0762" cy="38.1738" r="1.82618" fill="white" fill-opacity="0.2"/>
<circle cx="75.0762" cy="9.13087" r="1.82618" fill="white" fill-opacity="0.2"/>
<circle cx="82.3838" cy="38.1738" r="1.82618" fill="white" fill-opacity="0.2"/>
<circle cx="133.055" cy="38.1738" r="1.82618" fill="white" fill-opacity="0.2"/>
<circle cx="82.3838" cy="9.13087" r="1.82618" fill="white" fill-opacity="0.2"/>
<circle cx="133.055" cy="9.13087" r="1.82618" fill="white" fill-opacity="0.2"/>
<circle cx="89.6856" cy="38.1738" r="1.82618" fill="white" fill-opacity="0.2"/>
<circle cx="140.356" cy="38.1738" r="1.82618" fill="white" fill-opacity="0.2"/>
<circle cx="89.6856" cy="9.13087" r="1.82618" fill="white" fill-opacity="0.2"/>
<circle cx="140.356" cy="9.13087" r="1.82618" fill="white" fill-opacity="0.2"/>
<circle cx="96.9902" cy="38.1738" r="1.82618" fill="white" fill-opacity="0.2"/>
<circle cx="147.661" cy="38.1738" r="1.82618" fill="white" fill-opacity="0.2"/>
<circle cx="96.9902" cy="9.13087" r="1.82618" fill="white" fill-opacity="0.2"/>
<circle cx="147.661" cy="9.13087" r="1.82618" fill="white" fill-opacity="0.2"/>
<circle cx="104.293" cy="38.1738" r="1.82618" fill="white" fill-opacity="0.2"/>
<circle cx="154.964" cy="38.1738" r="1.82618" fill="white" fill-opacity="0.2"/>
<circle cx="104.293" cy="9.13087" r="1.82618" fill="white" fill-opacity="0.2"/>
<circle cx="154.964" cy="9.13087" r="1.82618" fill="white" fill-opacity="0.2"/>
<circle cx="111.602" cy="38.1738" r="1.82618" fill="white" fill-opacity="0.2"/>
<circle cx="162.273" cy="38.1738" r="1.82618" fill="white" fill-opacity="0.2"/>
<circle cx="111.602" cy="9.13087" r="1.82618" fill="white" fill-opacity="0.2"/>
<circle cx="162.273" cy="9.13087" r="1.82618" fill="white" fill-opacity="0.2"/>
<circle cx="118.906" cy="38.1738" r="1.82618" fill="white" fill-opacity="0.2"/>
<circle cx="169.577" cy="38.1738" r="1.82618" fill="white" fill-opacity="0.2"/>
<circle cx="118.906" cy="9.13087" r="1.82618" fill="white" fill-opacity="0.2"/>
<circle cx="169.577" cy="9.13087" r="1.82618" fill="white" fill-opacity="0.2"/>
<circle cx="67.7715" cy="45.4787" r="1.82618" fill="white" fill-opacity="0.2"/>
<circle cx="67.7715" cy="16.4356" r="1.82618" fill="white" fill-opacity="0.2"/>
<circle cx="125.974" cy="45.4785" r="1.82618" fill="white" fill-opacity="0.2"/>
<circle cx="176.645" cy="45.4785" r="1.82618" fill="white" fill-opacity="0.2"/>
<circle cx="125.974" cy="16.4356" r="1.82618" fill="white" fill-opacity="0.2"/>
<circle cx="176.645" cy="16.4356" r="1.82618" fill="white" fill-opacity="0.2"/>
<circle cx="75.0761" cy="45.4787" r="1.82618" fill="white" fill-opacity="0.2"/>
<circle cx="75.0761" cy="16.4356" r="1.82618" fill="white" fill-opacity="0.2"/>
<circle cx="82.3839" cy="45.4787" r="1.82618" fill="white" fill-opacity="0.2"/>
<circle cx="133.055" cy="45.4785" r="1.82618" fill="white" fill-opacity="0.2"/>
<circle cx="82.3839" cy="16.4356" r="1.82618" fill="white" fill-opacity="0.2"/>
<circle cx="133.055" cy="16.4356" r="1.82618" fill="white" fill-opacity="0.2"/>
<circle cx="89.6857" cy="45.4787" r="1.82618" fill="white" fill-opacity="0.2"/>
<circle cx="140.356" cy="45.4785" r="1.82618" fill="white" fill-opacity="0.2"/>
<circle cx="89.6857" cy="16.4356" r="1.82618" fill="white" fill-opacity="0.2"/>
<circle cx="140.356" cy="16.4356" r="1.82618" fill="white" fill-opacity="0.2"/>
<circle cx="96.9902" cy="45.4785" r="1.82618" fill="white" fill-opacity="0.2"/>
<circle cx="147.661" cy="45.4787" r="1.82618" fill="white" fill-opacity="0.2"/>
<circle cx="96.9902" cy="16.4356" r="1.82618" fill="white" fill-opacity="0.2"/>
<circle cx="147.661" cy="16.4356" r="1.82618" fill="white" fill-opacity="0.2"/>
<circle cx="104.293" cy="45.4787" r="1.82618" fill="white" fill-opacity="0.2"/>
<circle cx="154.964" cy="45.4787" r="1.82618" fill="white" fill-opacity="0.2"/>
<circle cx="104.293" cy="16.4356" r="1.82618" fill="white" fill-opacity="0.2"/>
<circle cx="154.964" cy="16.4356" r="1.82618" fill="white" fill-opacity="0.2"/>
<circle cx="111.603" cy="45.4787" r="1.82618" fill="white" fill-opacity="0.2"/>
<circle cx="162.273" cy="45.4785" r="1.82618" fill="white" fill-opacity="0.2"/>
<circle cx="111.603" cy="16.4356" r="1.82618" fill="white" fill-opacity="0.2"/>
<circle cx="162.273" cy="16.4356" r="1.82618" fill="white" fill-opacity="0.2"/>
<circle cx="118.906" cy="45.4787" r="1.82618" fill="white" fill-opacity="0.2"/>
<circle cx="169.577" cy="45.4787" r="1.82618" fill="white" fill-opacity="0.2"/>
<circle cx="118.906" cy="16.4356" r="1.82618" fill="white" fill-opacity="0.2"/>
<circle cx="169.577" cy="16.4356" r="1.82618" fill="white" fill-opacity="0.2"/>
<circle cx="67.7715" cy="52.7832" r="1.82618" fill="white" fill-opacity="0.2"/>
<circle cx="67.7715" cy="23.7401" r="1.82618" fill="white" fill-opacity="0.2"/>
<circle cx="125.974" cy="52.7832" r="1.82618" fill="white" fill-opacity="0.2"/>
<circle cx="176.645" cy="52.7832" r="1.82618" fill="white" fill-opacity="0.2"/>
<circle cx="125.974" cy="23.7402" r="1.82618" fill="white" fill-opacity="0.2"/>
<circle cx="176.645" cy="23.7402" r="1.82618" fill="white" fill-opacity="0.2"/>
<circle cx="75.0761" cy="52.7832" r="1.82618" fill="white" fill-opacity="0.2"/>
<circle cx="75.0761" cy="23.7401" r="1.82618" fill="white" fill-opacity="0.2"/>
<circle cx="82.3839" cy="52.7832" r="1.82618" fill="white" fill-opacity="0.2"/>
<circle cx="133.055" cy="52.7832" r="1.82618" fill="white" fill-opacity="0.2"/>
<circle cx="82.3839" cy="23.7401" r="1.82618" fill="white" fill-opacity="0.2"/>
<circle cx="133.055" cy="23.7402" r="1.82618" fill="white" fill-opacity="0.2"/>
<circle cx="89.6857" cy="52.7832" r="1.82618" fill="white" fill-opacity="0.2"/>
<circle cx="140.356" cy="52.7832" r="1.82618" fill="white" fill-opacity="0.2"/>
<circle cx="89.6857" cy="23.7401" r="1.82618" fill="white" fill-opacity="0.2"/>
<circle cx="140.356" cy="23.7402" r="1.82618" fill="white" fill-opacity="0.2"/>
<circle cx="96.9902" cy="52.7832" r="1.82618" fill="white" fill-opacity="0.2"/>
<circle cx="147.661" cy="52.7832" r="1.82618" fill="white" fill-opacity="0.2"/>
<circle cx="96.9902" cy="23.7402" r="1.82618" fill="white" fill-opacity="0.2"/>
<circle cx="147.661" cy="23.7401" r="1.82618" fill="white" fill-opacity="0.2"/>
<circle cx="104.293" cy="52.7832" r="1.82618" fill="white" fill-opacity="0.2"/>
<circle cx="154.964" cy="52.7832" r="1.82618" fill="white" fill-opacity="0.2"/>
<circle cx="104.293" cy="23.7401" r="1.82618" fill="white" fill-opacity="0.2"/>
<circle cx="154.964" cy="23.7401" r="1.82618" fill="white" fill-opacity="0.2"/>
<circle cx="111.603" cy="52.7832" r="1.82618" fill="white" fill-opacity="0.2"/>
<circle cx="162.273" cy="52.7832" r="1.82618" fill="white" fill-opacity="0.2"/>
<circle cx="111.603" cy="23.7401" r="1.82618" fill="white" fill-opacity="0.2"/>
<circle cx="162.273" cy="23.7402" r="1.82618" fill="white" fill-opacity="0.2"/>
<circle cx="118.906" cy="52.7832" r="1.82618" fill="white" fill-opacity="0.2"/>
<circle cx="169.577" cy="52.7832" r="1.82618" fill="white" fill-opacity="0.2"/>
<circle cx="118.906" cy="23.7401" r="1.82618" fill="white" fill-opacity="0.2"/>
<circle cx="169.577" cy="23.7401" r="1.82618" fill="white" fill-opacity="0.2"/>
<circle cx="67.7715" cy="60.0879" r="1.82618" fill="white" fill-opacity="0.2"/>
<circle cx="125.974" cy="60.0879" r="1.82618" fill="white" fill-opacity="0.2"/>
<circle cx="176.645" cy="60.0879" r="1.82618" fill="white" fill-opacity="0.2"/>
<circle cx="75.0762" cy="60.0879" r="1.82618" fill="white" fill-opacity="0.2"/>
<circle cx="82.3838" cy="60.0879" r="1.82618" fill="white" fill-opacity="0.2"/>
<circle cx="133.055" cy="60.0879" r="1.82618" fill="white" fill-opacity="0.2"/>
<circle cx="89.6856" cy="60.0879" r="1.82618" fill="white" fill-opacity="0.2"/>
<circle cx="140.356" cy="60.0879" r="1.82618" fill="white" fill-opacity="0.2"/>
<circle cx="96.9902" cy="60.0879" r="1.82618" fill="white" fill-opacity="0.2"/>
<circle cx="147.661" cy="60.0879" r="1.82618" fill="white" fill-opacity="0.2"/>
<circle cx="104.293" cy="60.0879" r="1.82618" fill="white" fill-opacity="0.2"/>
<circle cx="154.964" cy="60.0879" r="1.82618" fill="white" fill-opacity="0.2"/>
<circle cx="111.602" cy="60.0879" r="1.82618" fill="white" fill-opacity="0.2"/>
<circle cx="162.273" cy="60.0879" r="1.82618" fill="white" fill-opacity="0.2"/>
<circle cx="118.906" cy="60.0879" r="1.82618" fill="white" fill-opacity="0.2"/>
<circle cx="169.577" cy="60.0879" r="1.82618" fill="white" fill-opacity="0.2"/>
<circle cx="67.7715" cy="67.3926" r="1.82618" fill="white" fill-opacity="0.2"/>
<circle cx="67.7715" cy="74.1251" r="1.82618" fill="white" fill-opacity="0.2"/>
<circle cx="125.974" cy="67.3926" r="1.82618" fill="white" fill-opacity="0.2"/>
<circle cx="176.645" cy="67.3926" r="1.82618" fill="white" fill-opacity="0.2"/>
<circle cx="125.974" cy="74.1895" r="1.82618" fill="white" fill-opacity="0.2"/>
<circle cx="176.645" cy="74.1895" r="1.82618" fill="white" fill-opacity="0.2"/>
<circle cx="75.0762" cy="67.3926" r="1.82618" fill="white" fill-opacity="0.2"/>
<circle cx="75.0761" cy="74.125" r="1.82618" fill="white" fill-opacity="0.2"/>
<circle cx="82.3838" cy="67.3926" r="1.82618" fill="white" fill-opacity="0.2"/>
<circle cx="133.055" cy="67.3926" r="1.82618" fill="white" fill-opacity="0.2"/>
<circle cx="82.3839" cy="74.125" r="1.82618" fill="white" fill-opacity="0.2"/>
<circle cx="133.055" cy="74.125" r="1.82618" fill="white" fill-opacity="0.2"/>
<circle cx="89.6856" cy="67.3926" r="1.82618" fill="white" fill-opacity="0.2"/>
<circle cx="140.356" cy="67.3926" r="1.82618" fill="white" fill-opacity="0.2"/>
<circle cx="89.6857" cy="74.125" r="1.82618" fill="white" fill-opacity="0.2"/>
<circle cx="140.356" cy="74.125" r="1.82618" fill="white" fill-opacity="0.2"/>
<circle cx="96.9902" cy="67.3926" r="1.82618" fill="white" fill-opacity="0.2"/>
<circle cx="147.661" cy="67.3926" r="1.82618" fill="white" fill-opacity="0.2"/>
<circle cx="96.9902" cy="74.125" r="1.82618" fill="white" fill-opacity="0.2"/>
<circle cx="147.661" cy="74.125" r="1.82618" fill="white" fill-opacity="0.2"/>
<circle cx="104.293" cy="67.3926" r="1.82618" fill="white" fill-opacity="0.2"/>
<circle cx="154.964" cy="67.3926" r="1.82618" fill="white" fill-opacity="0.2"/>
<circle cx="104.293" cy="74.125" r="1.82618" fill="white" fill-opacity="0.2"/>
<circle cx="154.964" cy="74.125" r="1.82618" fill="white" fill-opacity="0.2"/>
<circle cx="111.602" cy="67.3926" r="1.82618" fill="white" fill-opacity="0.2"/>
<circle cx="162.273" cy="67.3926" r="1.82618" fill="white" fill-opacity="0.2"/>
<circle cx="111.603" cy="74.1251" r="1.82618" fill="white" fill-opacity="0.2"/>
<circle cx="162.273" cy="74.125" r="1.82618" fill="white" fill-opacity="0.2"/>
<circle cx="118.906" cy="67.3926" r="1.82618" fill="white" fill-opacity="0.2"/>
<circle cx="169.577" cy="67.3926" r="1.82618" fill="white" fill-opacity="0.2"/>
<circle cx="118.906" cy="74.125" r="1.82618" fill="white" fill-opacity="0.2"/>
<circle cx="169.577" cy="74.125" r="1.82618" fill="white" fill-opacity="0.2"/>
<circle cx="1.82618" cy="30.8693" r="1.82618" fill="white" fill-opacity="0.01"/>
<circle cx="1.82618" cy="1.82618" r="1.82618" fill="white" fill-opacity="0.01"/>
<circle cx="60.0303" cy="30.8693" r="1.82618" fill="white" fill-opacity="0.2"/>
<circle cx="60.0303" cy="1.82618" r="1.82618" fill="white" fill-opacity="0.2"/>
<circle cx="9.13478" cy="30.8693" r="1.82618" fill="white" fill-opacity="0.02"/>
<circle cx="9.13478" cy="1.82618" r="1.82618" fill="white" fill-opacity="0.02"/>
<circle cx="16.4382" cy="30.8693" r="1.82618" fill="white" fill-opacity="0.03"/>
<circle cx="16.4382" cy="1.82618" r="1.82618" fill="white" fill-opacity="0.03"/>
<circle cx="23.7401" cy="30.8693" r="1.82618" fill="white" fill-opacity="0.04"/>
<circle cx="23.7401" cy="1.82618" r="1.82618" fill="white" fill-opacity="0.04"/>
<circle cx="31.0479" cy="30.8693" r="1.82618" fill="white" fill-opacity="0.07"/>
<circle cx="31.0479" cy="1.82618" r="1.82618" fill="white" fill-opacity="0.07"/>
<circle cx="38.3526" cy="30.8693" r="1.82618" fill="white" fill-opacity="0.09"/>
<circle cx="38.3526" cy="1.82618" r="1.82618" fill="white" fill-opacity="0.09"/>
<circle cx="45.6564" cy="30.8693" r="1.82618" fill="white" fill-opacity="0.12"/>
<circle cx="45.6564" cy="1.82618" r="1.82618" fill="white" fill-opacity="0.12"/>
<circle cx="52.9609" cy="30.8693" r="1.82618" fill="white" fill-opacity="0.2"/>
<circle cx="52.9609" cy="1.82618" r="1.82618" fill="white" fill-opacity="0.2"/>
<circle cx="1.82618" cy="38.1738" r="1.82618" fill="white" fill-opacity="0.01"/>
<circle cx="1.82618" cy="9.13087" r="1.82618" fill="white" fill-opacity="0.01"/>
<circle cx="60.0313" cy="38.1738" r="1.82618" fill="white" fill-opacity="0.2"/>
<circle cx="60.0313" cy="9.13087" r="1.82618" fill="white" fill-opacity="0.2"/>
<circle cx="9.13478" cy="38.1738" r="1.82618" fill="white" fill-opacity="0.02"/>
<circle cx="9.13478" cy="9.13087" r="1.82618" fill="white" fill-opacity="0.02"/>
<circle cx="16.4385" cy="38.1738" r="1.82618" fill="white" fill-opacity="0.03"/>
<circle cx="16.4385" cy="9.13087" r="1.82618" fill="white" fill-opacity="0.03"/>
<circle cx="23.7402" cy="38.1738" r="1.82618" fill="white" fill-opacity="0.04"/>
<circle cx="23.7402" cy="9.13087" r="1.82618" fill="white" fill-opacity="0.04"/>
<circle cx="31.0479" cy="38.1738" r="1.82618" fill="white" fill-opacity="0.07"/>
<circle cx="31.0479" cy="9.13087" r="1.82618" fill="white" fill-opacity="0.07"/>
<circle cx="38.3516" cy="38.1738" r="1.82618" fill="white" fill-opacity="0.09"/>
<circle cx="38.3516" cy="9.13087" r="1.82618" fill="white" fill-opacity="0.09"/>
<circle cx="45.6563" cy="38.1738" r="1.82618" fill="white" fill-opacity="0.12"/>
<circle cx="45.6563" cy="9.13087" r="1.82618" fill="white" fill-opacity="0.12"/>
<circle cx="52.9609" cy="38.1738" r="1.82618" fill="white" fill-opacity="0.2"/>
<circle cx="52.9609" cy="9.13087" r="1.82618" fill="white" fill-opacity="0.2"/>
<circle cx="1.82618" cy="45.4787" r="1.82618" fill="white" fill-opacity="0.01"/>
<circle cx="1.82618" cy="16.4356" r="1.82618" fill="white" fill-opacity="0.01"/>
<circle cx="60.0303" cy="45.4787" r="1.82618" fill="white" fill-opacity="0.2"/>
<circle cx="60.0303" cy="16.4356" r="1.82618" fill="white" fill-opacity="0.2"/>
<circle cx="9.13478" cy="45.4787" r="1.82618" fill="white" fill-opacity="0.02"/>
<circle cx="9.13478" cy="16.4356" r="1.82618" fill="white" fill-opacity="0.02"/>
<circle cx="16.4382" cy="45.4787" r="1.82618" fill="white" fill-opacity="0.03"/>
<circle cx="16.4382" cy="16.4356" r="1.82618" fill="white" fill-opacity="0.03"/>
<circle cx="23.7401" cy="45.4787" r="1.82618" fill="white" fill-opacity="0.04"/>
<circle cx="23.7401" cy="16.4356" r="1.82618" fill="white" fill-opacity="0.04"/>
<circle cx="31.0479" cy="45.4787" r="1.82618" fill="white" fill-opacity="0.07"/>
<circle cx="31.0479" cy="16.4356" r="1.82618" fill="white" fill-opacity="0.07"/>
<circle cx="38.3526" cy="45.4787" r="1.82618" fill="white" fill-opacity="0.09"/>
<circle cx="38.3526" cy="16.4356" r="1.82618" fill="white" fill-opacity="0.09"/>
<circle cx="45.6564" cy="45.4787" r="1.82618" fill="white" fill-opacity="0.12"/>
<circle cx="45.6564" cy="16.4356" r="1.82618" fill="white" fill-opacity="0.12"/>
<circle cx="52.9609" cy="45.4787" r="1.82618" fill="white" fill-opacity="0.2"/>
<circle cx="52.9609" cy="16.4356" r="1.82618" fill="white" fill-opacity="0.2"/>
<circle cx="1.82618" cy="52.7832" r="1.82618" fill="white" fill-opacity="0.01"/>
<circle cx="1.82618" cy="23.7401" r="1.82618" fill="white" fill-opacity="0.01"/>
<circle cx="60.0303" cy="52.7832" r="1.82618" fill="white" fill-opacity="0.2"/>
<circle cx="60.0303" cy="23.7401" r="1.82618" fill="white" fill-opacity="0.2"/>
<circle cx="9.13478" cy="52.7832" r="1.82618" fill="white" fill-opacity="0.02"/>
<circle cx="9.13478" cy="23.7401" r="1.82618" fill="white" fill-opacity="0.02"/>
<circle cx="16.4382" cy="52.7832" r="1.82618" fill="white" fill-opacity="0.03"/>
<circle cx="16.4382" cy="23.7401" r="1.82618" fill="white" fill-opacity="0.03"/>
<circle cx="23.7401" cy="52.7832" r="1.82618" fill="white" fill-opacity="0.04"/>
<circle cx="23.7401" cy="23.7401" r="1.82618" fill="white" fill-opacity="0.04"/>
<circle cx="31.0479" cy="52.7832" r="1.82618" fill="white" fill-opacity="0.07"/>
<circle cx="31.0479" cy="23.7401" r="1.82618" fill="white" fill-opacity="0.07"/>
<circle cx="38.3526" cy="52.7832" r="1.82618" fill="white" fill-opacity="0.09"/>
<circle cx="38.3526" cy="23.7401" r="1.82618" fill="white" fill-opacity="0.09"/>
<circle cx="45.6564" cy="52.7832" r="1.82618" fill="white" fill-opacity="0.12"/>
<circle cx="45.6564" cy="23.7401" r="1.82618" fill="white" fill-opacity="0.12"/>
<circle cx="52.9609" cy="52.7832" r="1.82618" fill="white" fill-opacity="0.2"/>
<circle cx="52.9609" cy="23.7401" r="1.82618" fill="white" fill-opacity="0.2"/>
<circle cx="1.82618" cy="60.0879" r="1.82618" fill="white" fill-opacity="0.01"/>
<circle cx="60.0313" cy="60.0879" r="1.82618" fill="white" fill-opacity="0.2"/>
<circle cx="9.13478" cy="60.0879" r="1.82618" fill="white" fill-opacity="0.02"/>
<circle cx="16.4385" cy="60.0879" r="1.82618" fill="white" fill-opacity="0.03"/>
<circle cx="23.7402" cy="60.0879" r="1.82618" fill="white" fill-opacity="0.04"/>
<circle cx="31.0479" cy="60.0879" r="1.82618" fill="white" fill-opacity="0.07"/>
<circle cx="38.3516" cy="60.0879" r="1.82618" fill="white" fill-opacity="0.09"/>
<circle cx="45.6563" cy="60.0879" r="1.82618" fill="white" fill-opacity="0.12"/>
<circle cx="52.9609" cy="60.0879" r="1.82618" fill="white" fill-opacity="0.2"/>
<circle cx="1.82618" cy="67.3926" r="1.82618" fill="white" fill-opacity="0.01"/>
<circle cx="1.82618" cy="74.125" r="1.82618" fill="white" fill-opacity="0.01"/>
<circle cx="60.0313" cy="67.3926" r="1.82618" fill="white" fill-opacity="0.2"/>
<circle cx="60.0303" cy="74.1251" r="1.82618" fill="white" fill-opacity="0.2"/>
<circle cx="9.13478" cy="67.3926" r="1.82618" fill="white" fill-opacity="0.02"/>
<circle cx="9.13478" cy="74.1251" r="1.82618" fill="white" fill-opacity="0.02"/>
<circle cx="16.4385" cy="67.3926" r="1.82618" fill="white" fill-opacity="0.03"/>
<circle cx="16.4382" cy="74.125" r="1.82618" fill="white" fill-opacity="0.03"/>
<circle cx="23.7402" cy="67.3926" r="1.82618" fill="white" fill-opacity="0.04"/>
<circle cx="23.7401" cy="74.125" r="1.82618" fill="white" fill-opacity="0.04"/>
<circle cx="31.0479" cy="67.3926" r="1.82618" fill="white" fill-opacity="0.07"/>
<circle cx="31.0479" cy="74.125" r="1.82618" fill="white" fill-opacity="0.07"/>
<circle cx="38.3516" cy="67.3926" r="1.82618" fill="white" fill-opacity="0.09"/>
<circle cx="38.3526" cy="74.1251" r="1.82618" fill="white" fill-opacity="0.09"/>
<circle cx="45.6563" cy="67.3926" r="1.82618" fill="white" fill-opacity="0.12"/>
<circle cx="45.6564" cy="74.125" r="1.82618" fill="white" fill-opacity="0.12"/>
<circle cx="52.9609" cy="67.3926" r="1.82618" fill="white" fill-opacity="0.2"/>
<circle cx="52.9609" cy="74.1251" r="1.82618" fill="white" fill-opacity="0.2"/>
</g>
</svg>
