<svg width="378" height="212" viewBox="0 0 378 212" fill="none" xmlns="http://www.w3.org/2000/svg">
<path d="M46 59C46 59 104.743 57 132.76 57C160.776 57 167 59 167 59" stroke="#F5A623" stroke-width="3" stroke-linecap="round"/>
<path d="M62.675 120.817C61.65 120.817 60.6583 120.65 59.7333 120.35C59.4417 120.25 59.1167 120.325 58.8917 120.55L57.5833 122.192C55.225 121.067 53.0167 118.942 51.8417 116.5L53.4667 115.117C53.6917 114.883 53.7583 114.558 53.6667 114.267C53.3583 113.342 53.2 112.35 53.2 111.325C53.2 110.875 52.825 110.5 52.375 110.5H49.4917C49.0417 110.5 48.5 110.7 48.5 111.325C48.5 119.067 54.9417 125.5 62.675 125.5C63.2667 125.5 63.5 124.975 63.5 124.517V121.642C63.5 121.192 63.125 120.817 62.675 120.817Z" fill="#1179EF"/>
<path d="M115.992 109.667C111.392 109.667 107.667 113.4 107.667 118C107.667 122.6 111.392 126.333 115.992 126.333C120.6 126.333 124.333 122.6 124.333 118C124.333 113.4 120.6 109.667 115.992 109.667ZM116 124.667C112.317 124.667 109.333 121.683 109.333 118C109.333 114.317 112.317 111.333 116 111.333C119.683 111.333 122.667 114.317 122.667 118C122.667 121.683 119.683 124.667 116 124.667Z" fill="#1179EF"/>
<path d="M116.417 113.833H115.167V118.833L119.542 121.458L120.167 120.433L116.417 118.208V113.833Z" fill="#1179EF"/>
<path d="M175 107L183 113L191 107" stroke="#F5AB40" stroke-width="2"/>
<path d="M175 115L183 121L191 115" stroke="#F5AB40" stroke-width="2"/>
<path d="M175 123L183 129L191 123" stroke="#F5AB40" stroke-width="2"/>
<path d="M215 61C215 61 254.81 59 273.796 59C292.782 59 297 61 297 61" stroke="#F5A623" stroke-width="3" stroke-linecap="round"/>
</svg>
