<?xml version="1.0" encoding="UTF-8"?>
<svg width="161px" height="66px" viewBox="0 0 161 66" version="1.1" xmlns="http://www.w3.org/2000/svg" xmlns:xlink="http://www.w3.org/1999/xlink">
    <!-- Generator: Sketch 52.3 (67297) - http://www.bohemiancoding.com/sketch -->
    <title>sprite</title>
    <desc>Created with Sketch.</desc>
    <g id="sprite" stroke="none" stroke-width="1" fill="none" fill-rule="evenodd">
        <g id="ic_apps" transform="translate(108.000000, 20.000000)">
            <g id="Icon-24px">
                <polygon id="Shape" points="0 0 24 0 24 23 0 23"></polygon>
                <path d="M4,7.66666667 L8,7.66666667 L8,3.83333333 L4,3.83333333 L4,7.66666667 L4,7.66666667 Z M10,19.1666667 L14,19.1666667 L14,15.3333333 L10,15.3333333 L10,19.1666667 L10,19.1666667 Z M4,19.1666667 L8,19.1666667 L8,15.3333333 L4,15.3333333 L4,19.1666667 L4,19.1666667 Z M4,13.4166667 L8,13.4166667 L8,9.58333333 L4,9.58333333 L4,13.4166667 L4,13.4166667 Z M10,13.4166667 L14,13.4166667 L14,9.58333333 L10,9.58333333 L10,13.4166667 L10,13.4166667 Z M16,3.83333333 L16,7.66666667 L20,7.66666667 L20,3.83333333 L16,3.83333333 L16,3.83333333 Z M10,7.66666667 L14,7.66666667 L14,3.83333333 L10,3.83333333 L10,7.66666667 L10,7.66666667 Z M16,13.4166667 L20,13.4166667 L20,9.58333333 L16,9.58333333 L16,13.4166667 L16,13.4166667 Z M16,19.1666667 L20,19.1666667 L20,15.3333333 L16,15.3333333 L16,19.1666667 L16,19.1666667 Z" id="Shape" fill="#FFFFFF"></path>
            </g>
        </g>
        <g id="menu-copy" transform="translate(20.000000, 20.000000)">
            <rect id="bounds" x="0" y="0" width="24" height="24"></rect>
            <path d="M3,18 L21,18 L21,16 L3,16 L3,18 L3,18 Z M3,13 L21,13 L21,11 L3,11 L3,13 L3,13 Z M3,6 L3,8 L21,8 L21,6 L3,6 L3,6 Z" id="Shape" fill="#118AEF"></path>
        </g>
        <g id="Group-2-Copy" transform="translate(64.000000, 20.000000)">
            <polygon id="Shape" points="0 0 24 0 24 24 0 24"></polygon>
            <g id="Group" transform="translate(3.000000, 3.000000)" fill="#118AEF" fill-rule="nonzero">
                <path d="M6.15789474,12.3157895 C9.55880609,12.3157895 12.3157895,9.55880609 12.3157895,6.15789474 C12.3157895,2.75698338 9.55880609,0 6.15789474,0 C2.75698338,0 0,2.75698338 0,6.15789474 C0,9.55880609 2.75698338,12.3157895 6.15789474,12.3157895 L6.15789474,12.3157895 Z M6.15789474,11.3684211 C3.28020051,11.3684211 0.947368421,9.03558896 0.947368421,6.15789474 C0.947368421,3.28020051 3.28020051,0.947368421 6.15789474,0.947368421 C9.03558896,0.947368421 11.3684211,3.28020051 11.3684211,6.15789474 C11.3684211,9.03558896 9.03558896,11.3684211 6.15789474,11.3684211 L6.15789474,11.3684211 Z" id="Oval-3"></path>
                <path d="M11.4261805,12.0960712 L11.4261805,12.0960712 L11.4261805,12.0960712 L16.1148311,16.7847217 C15.9299275,16.5998182 15.6333053,16.5969408 15.4421435,16.7881025 L16.7881025,15.4421435 C16.6012436,15.6290024 16.604081,15.9341903 16.7847217,16.1148311 L12.0960712,11.4261805 C12.2809747,11.6110841 12.577597,11.6139615 12.7687587,11.4227997 L11.4227997,12.7687587 C11.6096586,12.5818998 11.6068213,12.2767119 11.4261805,12.0960712 L11.4261805,12.0960712 Z M10.7562899,12.7659618 C10.5711435,12.5808154 10.5655833,12.2861939 10.7529091,12.0988681 L12.0988681,10.7529091 C12.2821473,10.5696298 12.5853332,10.5756613 12.7659618,10.7562899 L17.4546123,15.4449404 C17.6397588,15.6300869 17.645319,15.9247084 17.4579932,16.1120342 L16.1120342,17.4579932 C15.9287549,17.6412724 15.6255691,17.635241 15.4449404,17.4546123 L10.7562899,12.7659618 L10.7562899,12.7659618 Z" id="Rectangle-8"></path>
                <polygon id="Path-109" points="9.60577608 10.2889352 11.615448 12.2986071 12.2853386 11.6287165 10.2756667 9.6190446"></polygon>
            </g>
        </g>
    </g>
</svg>