<svg width="200" height="80" viewBox="0 0 200 80" fill="none" xmlns="http://www.w3.org/2000/svg">
<g clip-path="url(#clip0_1279_9146)">
<path fill-rule="evenodd" clip-rule="evenodd" d="M14 13C14 13.5523 13.5523 14 13 14C12.4477 14 12 13.5523 12 13C12 12.4477 12.4477 12 13 12C13.5523 12 14 12.4477 14 13ZM20 14C20.5523 14 21 13.5523 21 13C21 12.4477 20.5523 12 20 12C19.4477 12 19 12.4477 19 13C19 13.5523 19.4477 14 20 14ZM20 21C20.5523 21 21 20.5523 21 20C21 19.4477 20.5523 19 20 19C19.4477 19 19 19.4477 19 20C19 20.5523 19.4477 21 20 21ZM21 27C21 27.5523 20.5523 28 20 28C19.4477 28 19 27.5523 19 27C19 26.4477 19.4477 26 20 26C20.5523 26 21 26.4477 21 27ZM27 14C27.5523 14 28 13.5523 28 13C28 12.4477 27.5523 12 27 12C26.4477 12 26 12.4477 26 13C26 13.5523 26.4477 14 27 14ZM28 20C28 20.5523 27.5523 21 27 21C26.4477 21 26 20.5523 26 20C26 19.4477 26.4477 19 27 19C27.5523 19 28 19.4477 28 20ZM27 28C27.5523 28 28 27.5523 28 27C28 26.4477 27.5523 26 27 26C26.4477 26 26 26.4477 26 27C26 27.5523 26.4477 28 27 28ZM13 21C13.5523 21 14 20.5523 14 20C14 19.4477 13.5523 19 13 19C12.4477 19 12 19.4477 12 20C12 20.5523 12.4477 21 13 21ZM14 27C14 27.5523 13.5523 28 13 28C12.4477 28 12 27.5523 12 27C12 26.4477 12.4477 26 13 26C13.5523 26 14 26.4477 14 27Z" fill="white"/>
<path d="M13 14.75C13.9665 14.75 14.75 13.9665 14.75 13H13.25C13.25 13.1381 13.1381 13.25 13 13.25V14.75ZM11.25 13C11.25 13.9665 12.0335 14.75 13 14.75V13.25C12.8619 13.25 12.75 13.1381 12.75 13H11.25ZM13 11.25C12.0335 11.25 11.25 12.0335 11.25 13H12.75C12.75 12.8619 12.8619 12.75 13 12.75V11.25ZM14.75 13C14.75 12.0335 13.9665 11.25 13 11.25V12.75C13.1381 12.75 13.25 12.8619 13.25 13H14.75ZM20.25 13C20.25 13.1381 20.1381 13.25 20 13.25V14.75C20.9665 14.75 21.75 13.9665 21.75 13H20.25ZM20 12.75C20.1381 12.75 20.25 12.8619 20.25 13H21.75C21.75 12.0335 20.9665 11.25 20 11.25V12.75ZM19.75 13C19.75 12.8619 19.8619 12.75 20 12.75V11.25C19.0335 11.25 18.25 12.0335 18.25 13H19.75ZM20 13.25C19.8619 13.25 19.75 13.1381 19.75 13H18.25C18.25 13.9665 19.0335 14.75 20 14.75V13.25ZM20.25 20C20.25 20.1381 20.1381 20.25 20 20.25V21.75C20.9665 21.75 21.75 20.9665 21.75 20H20.25ZM20 19.75C20.1381 19.75 20.25 19.8619 20.25 20H21.75C21.75 19.0335 20.9665 18.25 20 18.25V19.75ZM19.75 20C19.75 19.8619 19.8619 19.75 20 19.75V18.25C19.0335 18.25 18.25 19.0335 18.25 20H19.75ZM20 20.25C19.8619 20.25 19.75 20.1381 19.75 20H18.25C18.25 20.9665 19.0335 21.75 20 21.75V20.25ZM20 28.75C20.9665 28.75 21.75 27.9665 21.75 27H20.25C20.25 27.1381 20.1381 27.25 20 27.25V28.75ZM18.25 27C18.25 27.9665 19.0335 28.75 20 28.75V27.25C19.8619 27.25 19.75 27.1381 19.75 27H18.25ZM20 25.25C19.0335 25.25 18.25 26.0335 18.25 27H19.75C19.75 26.8619 19.8619 26.75 20 26.75V25.25ZM21.75 27C21.75 26.0335 20.9665 25.25 20 25.25V26.75C20.1381 26.75 20.25 26.8619 20.25 27H21.75ZM27.25 13C27.25 13.1381 27.1381 13.25 27 13.25V14.75C27.9665 14.75 28.75 13.9665 28.75 13H27.25ZM27 12.75C27.1381 12.75 27.25 12.8619 27.25 13H28.75C28.75 12.0335 27.9665 11.25 27 11.25V12.75ZM26.75 13C26.75 12.8619 26.8619 12.75 27 12.75V11.25C26.0335 11.25 25.25 12.0335 25.25 13H26.75ZM27 13.25C26.8619 13.25 26.75 13.1381 26.75 13H25.25C25.25 13.9665 26.0335 14.75 27 14.75V13.25ZM27 21.75C27.9665 21.75 28.75 20.9665 28.75 20H27.25C27.25 20.1381 27.1381 20.25 27 20.25V21.75ZM25.25 20C25.25 20.9665 26.0335 21.75 27 21.75V20.25C26.8619 20.25 26.75 20.1381 26.75 20H25.25ZM27 18.25C26.0335 18.25 25.25 19.0335 25.25 20H26.75C26.75 19.8619 26.8619 19.75 27 19.75V18.25ZM28.75 20C28.75 19.0335 27.9665 18.25 27 18.25V19.75C27.1381 19.75 27.25 19.8619 27.25 20H28.75ZM27.25 27C27.25 27.1381 27.1381 27.25 27 27.25V28.75C27.9665 28.75 28.75 27.9665 28.75 27H27.25ZM27 26.75C27.1381 26.75 27.25 26.8619 27.25 27H28.75C28.75 26.0335 27.9665 25.25 27 25.25V26.75ZM26.75 27C26.75 26.8619 26.8619 26.75 27 26.75V25.25C26.0335 25.25 25.25 26.0335 25.25 27H26.75ZM27 27.25C26.8619 27.25 26.75 27.1381 26.75 27H25.25C25.25 27.9665 26.0335 28.75 27 28.75V27.25ZM13.25 20C13.25 20.1381 13.1381 20.25 13 20.25V21.75C13.9665 21.75 14.75 20.9665 14.75 20H13.25ZM13 19.75C13.1381 19.75 13.25 19.8619 13.25 20H14.75C14.75 19.0335 13.9665 18.25 13 18.25V19.75ZM12.75 20C12.75 19.8619 12.8619 19.75 13 19.75V18.25C12.0335 18.25 11.25 19.0335 11.25 20H12.75ZM13 20.25C12.8619 20.25 12.75 20.1381 12.75 20H11.25C11.25 20.9665 12.0335 21.75 13 21.75V20.25ZM13 28.75C13.9665 28.75 14.75 27.9665 14.75 27H13.25C13.25 27.1381 13.1381 27.25 13 27.25V28.75ZM11.25 27C11.25 27.9665 12.0335 28.75 13 28.75V27.25C12.8619 27.25 12.75 27.1381 12.75 27H11.25ZM13 25.25C12.0335 25.25 11.25 26.0335 11.25 27H12.75C12.75 26.8619 12.8619 26.75 13 26.75V25.25ZM14.75 27C14.75 26.0335 13.9665 25.25 13 25.25V26.75C13.1381 26.75 13.25 26.8619 13.25 27H14.75Z" fill="white"/>
<path d="M65 25L70 30M67.5 18.75C67.5 23.5825 63.5825 27.5 58.75 27.5C53.9175 27.5 50 23.5825 50 18.75C50 13.9175 53.9175 10 58.75 10C63.5825 10 67.5 13.9175 67.5 18.75Z" stroke="#6B7280" stroke-width="1.5" stroke-linecap="round" stroke-linejoin="round"/>
<path d="M105 25L110 30M107.5 18.75C107.5 23.5825 103.582 27.5 98.75 27.5C93.9175 27.5 90 23.5825 90 18.75C90 13.9175 93.9175 10 98.75 10C103.582 10 107.5 13.9175 107.5 18.75Z" stroke="#0075EB" stroke-width="1.5" stroke-linecap="round" stroke-linejoin="round"/>
<path d="M9 60H30.3333M9 52H30.3333M9 68H30.3333" stroke="#0075EB" stroke-width="2.66667" stroke-linecap="round" stroke-linejoin="round"/>
<path d="M52.2996 50.4143C52.0481 50.1714 51.7113 50.0371 51.3617 50.0401C51.0121 50.0431 50.6777 50.1834 50.4305 50.4306C50.1833 50.6778 50.043 51.0122 50.04 51.3618C50.037 51.7114 50.1714 52.0482 50.4142 52.2997L58.1142 59.9997L50.4129 67.6997C50.2856 67.8227 50.184 67.9698 50.1141 68.1325C50.0442 68.2951 50.0074 68.4701 50.0059 68.6471C50.0044 68.8242 50.0381 68.9997 50.1051 69.1636C50.1722 69.3275 50.2712 69.4763 50.3964 69.6015C50.5216 69.7267 50.6704 69.8257 50.8343 69.8927C50.9982 69.9598 51.1737 69.9935 51.3508 69.992C51.5278 69.9905 51.7028 69.9537 51.8654 69.8838C52.0281 69.8139 52.1752 69.7123 52.2982 69.585L59.9996 61.885L67.6996 69.585C67.951 69.8279 68.2878 69.9623 68.6374 69.9592C68.987 69.9562 69.3215 69.816 69.5687 69.5687C69.8159 69.3215 69.9561 68.9871 69.9591 68.6375C69.9622 68.2879 69.8278 67.9511 69.5849 67.6997L61.8849 59.9997L69.5849 52.2997C69.8278 52.0482 69.9622 51.7114 69.9591 51.3618C69.9561 51.0122 69.8159 50.6778 69.5687 50.4306C69.3215 50.1834 68.987 50.0431 68.6374 50.0401C68.2878 50.0371 67.951 50.1714 67.6996 50.4143L59.9996 58.1143L52.2996 50.4143Z" fill="#0075EB"/>
<path d="M95 57.5L100 62.5L105 57.5" stroke="#1F2937" stroke-width="1.5" stroke-linecap="round" stroke-linejoin="round"/>
<path d="M135 62.5L140 57.5L145 62.5" stroke="#0075EB" stroke-width="1.5" stroke-linecap="round" stroke-linejoin="round"/>
<path d="M136 18L140 22L144 18H136Z" fill="#4B5568"/>
<path d="M184.281 17.2194C184.35 17.289 184.406 17.3717 184.443 17.4628C184.481 17.5538 184.501 17.6514 184.501 17.75C184.501 17.8486 184.481 17.9462 184.443 18.0372C184.406 18.1283 184.35 18.211 184.281 18.2806L179.031 23.5306C178.961 23.6004 178.878 23.6557 178.787 23.6934C178.696 23.7312 178.599 23.7506 178.5 23.7506C178.401 23.7506 178.304 23.7312 178.213 23.6934C178.122 23.6557 178.039 23.6004 177.969 23.5306L175.719 21.2806C175.579 21.1399 175.5 20.949 175.5 20.75C175.5 20.551 175.579 20.3601 175.719 20.2194C175.86 20.0786 176.051 19.9996 176.25 19.9996C176.449 19.9996 176.64 20.0786 176.781 20.2194L178.5 21.9397L183.219 17.2194C183.289 17.1496 183.372 17.0943 183.463 17.0566C183.554 17.0188 183.651 16.9994 183.75 16.9994C183.849 16.9994 183.946 17.0188 184.037 17.0566C184.128 17.0943 184.211 17.1496 184.281 17.2194ZM189.75 20C189.75 21.9284 189.178 23.8134 188.107 25.4168C187.035 27.0202 185.513 28.2699 183.731 29.0078C181.95 29.7458 179.989 29.9389 178.098 29.5627C176.207 29.1865 174.469 28.2579 173.106 26.8943C171.742 25.5307 170.814 23.7934 170.437 21.9021C170.061 20.0108 170.254 18.0504 170.992 16.2688C171.73 14.4873 172.98 12.9645 174.583 11.8932C176.187 10.8218 178.072 10.25 180 10.25C182.585 10.2527 185.063 11.2808 186.891 13.1087C188.719 14.9366 189.747 17.415 189.75 20ZM188.25 20C188.25 18.3683 187.766 16.7733 186.86 15.4165C185.953 14.0598 184.665 13.0024 183.157 12.378C181.65 11.7536 179.991 11.5902 178.391 11.9085C176.79 12.2268 175.32 13.0126 174.166 14.1664C173.013 15.3202 172.227 16.7902 171.909 18.3905C171.59 19.9908 171.754 21.6496 172.378 23.1571C173.002 24.6646 174.06 25.9531 175.417 26.8596C176.773 27.7661 178.368 28.25 180 28.25C182.187 28.2475 184.284 27.3775 185.831 25.8309C187.378 24.2843 188.248 22.1873 188.25 20Z" fill="#111827"/>
<path d="M184.281 57.2194C184.35 57.289 184.406 57.3717 184.443 57.4628C184.481 57.5538 184.501 57.6514 184.501 57.75C184.501 57.8486 184.481 57.9462 184.443 58.0372C184.406 58.1283 184.35 58.211 184.281 58.2806L179.031 63.5306C178.961 63.6004 178.878 63.6557 178.787 63.6934C178.696 63.7312 178.599 63.7506 178.5 63.7506C178.401 63.7506 178.304 63.7312 178.213 63.6934C178.122 63.6557 178.039 63.6004 177.969 63.5306L175.719 61.2806C175.579 61.1399 175.5 60.949 175.5 60.75C175.5 60.551 175.579 60.3601 175.719 60.2194C175.86 60.0786 176.051 59.9996 176.25 59.9996C176.449 59.9996 176.64 60.0786 176.781 60.2194L178.5 61.9397L183.219 57.2194C183.289 57.1496 183.372 57.0943 183.463 57.0566C183.554 57.0188 183.651 56.9994 183.75 56.9994C183.849 56.9994 183.946 57.0188 184.037 57.0566C184.128 57.0943 184.211 57.1496 184.281 57.2194ZM189.75 60C189.75 61.9284 189.178 63.8134 188.107 65.4168C187.035 67.0202 185.513 68.2699 183.731 69.0078C181.95 69.7458 179.989 69.9389 178.098 69.5627C176.207 69.1865 174.469 68.2579 173.106 66.8943C171.742 65.5307 170.814 63.7934 170.437 61.9021C170.061 60.0108 170.254 58.0504 170.992 56.2688C171.73 54.4873 172.98 52.9645 174.583 51.8932C176.187 50.8218 178.072 50.25 180 50.25C182.585 50.2527 185.063 51.2808 186.891 53.1087C188.719 54.9366 189.747 57.415 189.75 60ZM188.25 60C188.25 58.3683 187.766 56.7733 186.86 55.4165C185.953 54.0598 184.665 53.0024 183.157 52.378C181.65 51.7536 179.991 51.5902 178.391 51.9085C176.79 52.2268 175.32 53.0126 174.166 54.1664C173.013 55.3202 172.227 56.7902 171.909 58.3905C171.59 59.9908 171.754 61.6496 172.378 63.1571C173.002 64.6646 174.06 65.9531 175.417 66.8596C176.773 67.7661 178.368 68.25 180 68.25C182.187 68.2475 184.284 67.3775 185.831 65.8309C187.378 64.2843 188.248 62.1873 188.25 60Z" fill="#6B7280"/>
</g>
<defs>
<clipPath id="clip0_1279_9146">
<rect width="200" height="80" fill="white"/>
</clipPath>
</defs>
</svg>
