<svg width="401" height="97" viewBox="0 0 401 97" fill="none" xmlns="http://www.w3.org/2000/svg">
<mask id="mask0" mask-type="alpha" maskUnits="userSpaceOnUse" x="0" y="0" width="401" height="97">
<rect width="401" height="97" fill="white"/>
</mask>
<g mask="url(#mask0)">
<path d="M223.183 146.762L223.143 146.842H191.239L175.287 119.208L191.239 91.5747H223.143L223.183 91.6544V91.3118H191.088L191.048 91.3755L174.976 119.208L175.016 119.272L191.088 147.105H223.183V146.762Z" fill="#CAC8C7"/>
<path d="M118.076 147.041L134.139 119.208V119.136L118.076 91.3118H85.8207L85.7808 91.3755L69.7171 119.208V119.272L85.7808 147.105H117.996L118.076 147.041ZM133.837 119.208L117.9 146.842H86.0279L70.0916 119.208L86.0279 91.5747H117.9L133.837 119.208Z" fill="#CAC8C7"/>
<path d="M125.024 38.9607L117.853 51.3989H75.2151L68.0358 38.9607H67.6294L75.0079 51.7495H118.052L118.1 51.6619L125.43 38.9607H125.024Z" fill="#CAC8C7"/>
<path d="M118.147 132.419L139.606 95.2317L139.558 95.144L118.092 57.9568H75.0638L75.008 58.0365L53.4861 95.2317L53.5339 95.3193L75.0478 132.507H118.076L118.147 132.419ZM139.199 95.2317L117.892 132.156H75.2152L53.9004 95.2317L75.2152 58.3154H117.853L139.199 95.2317Z" fill="#CAC8C7"/>
<path d="M200.386 38.9607H199.972L209.151 54.8571L187.829 91.7734H145.207L123.884 54.8571L133.064 38.9607H132.657L123.478 54.8571L123.526 54.9448L145 92.132H188.036L188.092 92.0364L209.558 54.8571L209.502 54.7695L200.386 38.9607Z" fill="#CAC8C7"/>
<path d="M68.8566 54.7615L59.7331 38.9607H59.3267L68.506 54.8571L47.1833 91.7734H5V92.132H47.3904L47.4462 92.0364L68.9123 54.8571L68.8566 54.7615Z" fill="#CAC8C7"/>
<path d="M77.6454 118.555L88.6653 99.4711V99.4233L77.6454 80.2998H55.5258V80.3476L44.5059 99.4711V99.5189L55.5258 118.595H77.6135L77.6454 118.555ZM88.4501 99.4711L77.5099 118.419H55.6294L44.6972 99.4711L55.6294 80.5229H77.5099L88.4501 99.4711Z" fill="#CAC8C7"/>
<path d="M113.558 97.8375L124.57 78.7538V78.706L113.55 59.5825H91.4461V59.6303L80.4341 78.7538L91.4541 97.8773H113.526L113.558 97.8375ZM124.362 78.7538L113.422 97.702H91.5497L80.6094 78.7538L91.5497 59.8056H113.422L124.362 78.7538Z" fill="#CAC8C7"/>
<path d="M41.3825 97.8375L52.3944 78.7538V78.706L41.3745 59.5825H19.2709V59.6303L8.25897 78.7538L19.2789 97.8773H41.3506L41.3825 97.8375ZM52.1873 78.7538L41.247 97.702H19.3426L8.43427 78.7538L19.3426 59.8056H41.247L52.1873 78.7538Z" fill="#CAC8C7"/>
<path d="M267.39 120.865L278.402 101.742V101.694L267.383 82.6104H245.271V82.6582L234.251 101.742V101.782L245.271 120.865H267.359H267.39ZM278.195 101.742L267.255 120.69H245.375L234.482 101.782L245.375 82.8494H267.255L278.195 101.742Z" fill="#CAC8C7"/>
<path d="M303.303 100.14L314.315 81.0566V81.0088L303.295 61.9331H281.191L270.179 81.0566V81.1044L281.199 100.188H303.279L303.303 100.14ZM314.108 81.0566L303.167 100.005H281.295L270.339 81.0566L281.295 62.1323H303.167L314.108 81.0566Z" fill="#CAC8C7"/>
<path d="M231.127 100.14L242.147 81.0566V81.0088L231.127 61.9331H208.984L197.972 81.0566V81.1044L208.984 100.188H231.064L231.127 100.14ZM241.932 81.0566L230.992 100.005H209.119L198.179 81.0566L209.119 62.1323H230.992L241.932 81.0566Z" fill="#CAC8C7"/>
<path d="M314.466 56.0447L307.287 68.4829H264.657L257.478 56.0447H257.064L264.45 68.8335H307.486L307.542 68.7459L314.873 56.0447H314.466Z" fill="#CAC8C7"/>
<path d="M307.542 149.503L329.008 112.331L328.96 112.244L307.486 75.0405H264.458L264.402 75.1202L242.928 112.331L242.976 112.419L264.45 149.606H307.478L307.542 149.503ZM328.602 112.331L307.287 149.248H264.657L243.335 112.331L264.657 75.4071H307.287L328.602 112.331Z" fill="#CAC8C7"/>
<path d="M389.821 56.0447H389.414L398.594 71.9411L377.263 108.857H334.641L313.327 71.9411L322.498 56.0447H322.092L312.912 71.9411L312.96 72.0208L334.434 109.208H377.478L377.526 109.12L399 71.9411L398.944 71.8455L389.821 56.0447Z" fill="#CAC8C7"/>
<path d="M258.299 71.8455L249.175 56.0447H248.769L257.94 71.9411L236.625 108.857H194.442V109.208H236.825L236.88 109.12L258.347 71.9411L258.299 71.8455Z" fill="#CAC8C7"/>
<path d="M197.032 94.6982L208.044 75.6225V75.5747L197.024 56.4512H174.944V56.499L163.924 75.6225L174.944 94.746H197.032V94.6982ZM207.837 75.6225L196.928 94.5627H175.048L164.116 75.6225L175.048 56.6743H196.928L207.837 75.6225Z" fill="#CAC8C7"/>
<path d="M160.801 73.9811L171.813 54.8576V54.8098L160.801 35.6863H138.689V35.7341L127.669 54.8576V54.9054L138.689 73.9811H160.769H160.801ZM171.606 54.8576L160.665 73.8456H138.793L127.853 54.8974L138.793 35.9492H160.665L171.606 54.8576Z" fill="#CAC8C7"/>
<path d="M160.801 115.423L171.813 96.3395V96.2917L160.793 77.1682H138.689V77.216L127.669 96.3395V96.3873L138.689 115.463H160.769L160.801 115.423ZM171.606 96.3395L160.665 115.288H138.793L127.853 96.3395L138.793 77.3913H160.665L171.606 96.3395Z" fill="#CAC8C7"/>
<path d="M276.984 47.6778L293.048 19.8531V19.7814L276.952 -8.05127H244.737L244.697 -7.97956L228.633 19.8531V19.9169L244.705 47.7416H276.952L276.984 47.6778ZM292.745 19.8531L276.809 47.4866H244.936L228.904 19.8531L244.841 -7.78035H276.713L292.745 19.8531Z" fill="#CAC8C7"/>
<path d="M224.124 17.463L240.171 -10.3777L240.132 -10.4494L224.06 -38.2661H191.853L191.813 -38.2024L175.749 -10.3777V-10.3139L191.853 17.5108H224.06L224.124 17.463ZM239.869 -10.3777L223.932 17.2558H192.004L176.052 -10.3777L191.988 -38.0111H223.9L239.869 -10.3777Z" fill="#CAC8C7"/>
<path d="M177.701 53.463H178.012L176.052 50.0685L192.004 22.443H223.916L239.869 50.0685L237.908 53.463H238.211L240.171 50.0685L240.132 49.9968L224.068 22.1721H191.853L191.813 22.2438L175.749 50.0685L175.781 50.1323L177.701 53.463Z" fill="#CAC8C7"/>
<path d="M356.474 13.0565L347.359 -2.73633H346.944L356.123 13.1521L334.809 50.0685H292.617V50.427H335.008L335.064 50.3394L356.53 13.1521L356.474 13.0565Z" fill="#CAC8C7"/>
</g>
</svg>
