<svg width="135" height="81" viewBox="0 0 135 81" fill="none" xmlns="http://www.w3.org/2000/svg">
<circle cx="4.49908" cy="76.5001" r="4.49994" transform="rotate(180 4.49908 76.5001)" fill="white" fill-opacity="0.2"/>
<circle cx="129.912" cy="76.5001" r="4.49994" transform="rotate(180 129.912 76.5001)" fill="white" fill-opacity="0.02"/>
<circle cx="111.917" cy="76.5001" r="4.49994" transform="rotate(180 111.917 76.5001)" fill="white" fill-opacity="0.03"/>
<circle cx="93.9239" cy="76.5001" r="4.49994" transform="rotate(180 93.9239 76.5001)" fill="white" fill-opacity="0.04"/>
<circle cx="75.9171" cy="76.5001" r="4.49994" transform="rotate(180 75.9171 76.5001)" fill="white" fill-opacity="0.07"/>
<circle cx="57.918" cy="76.5001" r="4.49994" transform="rotate(180 57.918 76.5001)" fill="white" fill-opacity="0.09"/>
<circle cx="39.92" cy="76.5001" r="4.49994" transform="rotate(180 39.92 76.5001)" fill="white" fill-opacity="0.12"/>
<circle cx="21.921" cy="76.5001" r="4.49994" transform="rotate(180 21.921 76.5001)" fill="white" fill-opacity="0.2"/>
<circle cx="4.49908" cy="58.5025" r="4.49994" transform="rotate(180 4.49908 58.5025)" fill="white" fill-opacity="0.2"/>
<circle cx="129.912" cy="58.5025" r="4.49994" transform="rotate(180 129.912 58.5025)" fill="white" fill-opacity="0.02"/>
<circle cx="111.917" cy="58.5025" r="4.49994" transform="rotate(180 111.917 58.5025)" fill="white" fill-opacity="0.03"/>
<circle cx="93.9239" cy="58.5025" r="4.49994" transform="rotate(180 93.9239 58.5025)" fill="white" fill-opacity="0.04"/>
<circle cx="75.9171" cy="58.5025" r="4.49994" transform="rotate(180 75.9171 58.5025)" fill="white" fill-opacity="0.07"/>
<circle cx="57.918" cy="58.5025" r="4.49994" transform="rotate(180 57.918 58.5025)" fill="white" fill-opacity="0.09"/>
<circle cx="39.92" cy="58.5025" r="4.49994" transform="rotate(180 39.92 58.5025)" fill="white" fill-opacity="0.12"/>
<circle cx="21.921" cy="58.5025" r="4.49994" transform="rotate(180 21.921 58.5025)" fill="white" fill-opacity="0.2"/>
<circle cx="4.49908" cy="40.5005" r="4.49994" transform="rotate(180 4.49908 40.5005)" fill="white" fill-opacity="0.2"/>
<circle cx="129.912" cy="40.5005" r="4.49994" transform="rotate(180 129.912 40.5005)" fill="white" fill-opacity="0.02"/>
<circle cx="111.917" cy="40.5005" r="4.49994" transform="rotate(180 111.917 40.5005)" fill="white" fill-opacity="0.03"/>
<circle cx="93.9239" cy="40.5005" r="4.49994" transform="rotate(180 93.9239 40.5005)" fill="white" fill-opacity="0.04"/>
<circle cx="75.9171" cy="40.5005" r="4.49994" transform="rotate(180 75.9171 40.5005)" fill="white" fill-opacity="0.07"/>
<circle cx="57.918" cy="40.5005" r="4.49994" transform="rotate(180 57.918 40.5005)" fill="white" fill-opacity="0.09"/>
<circle cx="39.92" cy="40.5005" r="4.49994" transform="rotate(180 39.92 40.5005)" fill="white" fill-opacity="0.12"/>
<circle cx="21.921" cy="40.5005" r="4.49994" transform="rotate(180 21.921 40.5005)" fill="white" fill-opacity="0.2"/>
<circle cx="4.49908" cy="22.5015" r="4.49994" transform="rotate(180 4.49908 22.5015)" fill="white" fill-opacity="0.2"/>
<circle cx="129.912" cy="22.5015" r="4.49994" transform="rotate(180 129.912 22.5015)" fill="white" fill-opacity="0.02"/>
<circle cx="111.917" cy="22.5015" r="4.49994" transform="rotate(180 111.917 22.5015)" fill="white" fill-opacity="0.03"/>
<circle cx="93.9239" cy="22.5015" r="4.49994" transform="rotate(180 93.9239 22.5015)" fill="white" fill-opacity="0.04"/>
<circle cx="75.9171" cy="22.5015" r="4.49994" transform="rotate(180 75.9171 22.5015)" fill="white" fill-opacity="0.07"/>
<circle cx="57.918" cy="22.5015" r="4.49994" transform="rotate(180 57.918 22.5015)" fill="white" fill-opacity="0.09"/>
<circle cx="39.92" cy="22.5015" r="4.49994" transform="rotate(180 39.92 22.5015)" fill="white" fill-opacity="0.12"/>
<circle cx="21.921" cy="22.5015" r="4.49994" transform="rotate(180 21.921 22.5015)" fill="white" fill-opacity="0.2"/>
<circle cx="4.49908" cy="4.50006" r="4.49994" transform="rotate(180 4.49908 4.50006)" fill="white" fill-opacity="0.2"/>
<circle cx="129.912" cy="4.50006" r="4.49994" transform="rotate(180 129.912 4.50006)" fill="white" fill-opacity="0.02"/>
<circle cx="111.917" cy="4.50006" r="4.49994" transform="rotate(180 111.917 4.50006)" fill="white" fill-opacity="0.03"/>
<circle cx="93.9239" cy="4.50006" r="4.49994" transform="rotate(180 93.9239 4.50006)" fill="white" fill-opacity="0.04"/>
<circle cx="75.9171" cy="4.50006" r="4.49994" transform="rotate(180 75.9171 4.50006)" fill="white" fill-opacity="0.07"/>
<circle cx="57.918" cy="4.50006" r="4.49994" transform="rotate(180 57.918 4.50006)" fill="white" fill-opacity="0.09"/>
<circle cx="39.92" cy="4.50006" r="4.49994" transform="rotate(180 39.92 4.50006)" fill="white" fill-opacity="0.12"/>
<circle cx="21.921" cy="4.50006" r="4.49994" transform="rotate(180 21.921 4.50006)" fill="white" fill-opacity="0.2"/>
</svg>
