<svg width="20" height="20" viewBox="0 0 20 20" fill="none" xmlns="http://www.w3.org/2000/svg">
<circle cx="10" cy="10" r="10" fill="#00B67A"/>
<path d="M13.0138 6.99012L13.926 7.90233L10.8346 10.9937L8.75046 8.90956C8.5034 8.6625 8.10431 8.6625 7.85726 8.90956L4.05639 12.7168C3.80933 12.9638 3.80933 13.3629 4.05639 13.61C4.30344 13.857 4.70253 13.857 4.94959 13.61L8.30069 10.2525L10.3848 12.3367C10.6319 12.5837 11.031 12.5837 11.278 12.3367L14.8192 8.80186L15.7314 9.71407C15.9278 9.91045 16.2698 9.77109 16.2698 9.49236V6.7684C16.2762 6.59103 16.1368 6.45166 15.9594 6.45166H13.2418C12.9568 6.45166 12.8174 6.79374 13.0138 6.99012Z" fill="white"/>
</svg>
