<svg width="96" height="48" viewBox="0 0 96 48" fill="none" xmlns="http://www.w3.org/2000/svg">
<g clip-path="url(#clip0_3077_529)">
<g clip-path="url(#clip1_3077_529)">
<path d="M30.155 23.8645V20.7203C30.155 20.0985 30.3394 19.4906 30.6849 18.9736C31.0304 18.4565 31.5214 18.0535 32.096 17.8156C32.6705 17.5776 33.3026 17.5153 33.9125 17.6366C34.5224 17.758 35.0827 18.0574 35.5224 18.4971C35.9621 18.9368 36.2616 19.4971 36.3829 20.107C36.5042 20.7169 36.4419 21.349 36.204 21.9236C35.966 22.4981 35.563 22.9891 35.0459 23.3346C34.5289 23.6801 33.921 23.8645 33.2992 23.8645H30.155ZM30.155 23.8645H23.8668M30.155 23.8645V12.336C30.155 11.5021 29.8238 10.7024 29.2341 10.1128C28.6445 9.52315 27.8448 9.19189 27.0109 9.19189C26.177 9.19189 25.3773 9.52315 24.7877 10.1128C24.198 10.7024 23.8668 11.5021 23.8668 12.336V23.8645M23.8668 23.8645V17.5762M23.8668 23.8645H12.3383C11.5045 23.8645 10.7047 23.5332 10.1151 22.9436C9.52547 22.3539 9.19421 21.5542 9.19421 20.7203C9.19421 19.8865 9.52547 19.0868 10.1151 18.4971C10.7047 17.9075 11.5045 17.5762 12.3383 17.5762H23.8668M23.8668 23.8645H35.3952C36.2291 23.8645 37.0288 24.1957 37.6185 24.7854C38.2081 25.375 38.5394 26.1747 38.5394 27.0086C38.5394 27.8425 38.2081 28.6422 37.6185 29.2318C37.0288 29.8215 36.2291 30.1527 35.3952 30.1527H23.8668M23.8668 23.8645V30.1527M23.8668 23.8645H17.5785M23.8668 23.8645V35.3929C23.8668 36.2268 23.5355 37.0265 22.9459 37.6162C22.3563 38.2058 21.5565 38.537 20.7227 38.537C19.8888 38.537 19.0891 38.2058 18.4994 37.6162C17.9098 37.0265 17.5785 36.2268 17.5785 35.3929V23.8645M23.8668 17.5762V14.4321C23.8668 13.8103 23.6824 13.2024 23.3369 12.6853C22.9914 12.1683 22.5004 11.7653 21.9259 11.5273C21.3514 11.2893 20.7192 11.2271 20.1093 11.3484C19.4994 11.4697 18.9391 11.7692 18.4994 12.2089C18.0597 12.6486 17.7603 13.2088 17.639 13.8187C17.5176 14.4286 17.5799 15.0608 17.8179 15.6353C18.0558 16.2098 18.4588 16.7009 18.9759 17.0463C19.4929 17.3918 20.1008 17.5762 20.7227 17.5762H23.8668ZM23.8668 30.1527H27.0109C27.6328 30.1527 28.2406 30.3371 28.7577 30.6826C29.2747 31.0281 29.6777 31.5191 29.9157 32.0936C30.1537 32.6681 30.2159 33.3003 30.0946 33.9102C29.9733 34.5201 29.6739 35.0804 29.2341 35.5201C28.7944 35.9598 28.2342 36.2592 27.6243 36.3806C27.0144 36.5019 26.3822 36.4396 25.8077 36.2016C25.2332 35.9637 24.7422 35.5607 24.3967 35.0436C24.0512 34.5266 23.8668 33.9187 23.8668 33.2968V30.1527ZM17.5785 23.8645V27.0086C17.5785 27.6304 17.3941 28.2383 17.0487 28.7554C16.7032 29.2724 16.2121 29.6754 15.6376 29.9134C15.0631 30.1514 14.4309 30.2136 13.821 30.0923C13.2111 29.971 12.6509 29.6715 12.2112 29.2318C11.7715 28.7921 11.472 28.2319 11.3507 27.622C11.2294 27.0121 11.2917 26.3799 11.5296 25.8054C11.7676 25.2309 12.1706 24.7398 12.6876 24.3944C13.2047 24.0489 13.8126 23.8645 14.4344 23.8645H17.5785Z" stroke="#1179EF" stroke-width="2.09608"/>
</g>
<g clip-path="url(#clip2_3077_529)">
<path d="M78.155 23.8645V20.7203C78.155 20.0985 78.3394 19.4906 78.6849 18.9736C79.0304 18.4565 79.5214 18.0535 80.096 17.8156C80.6705 17.5776 81.3026 17.5153 81.9125 17.6366C82.5224 17.758 83.0827 18.0574 83.5224 18.4971C83.9621 18.9368 84.2616 19.4971 84.3829 20.107C84.5042 20.7169 84.4419 21.349 84.204 21.9236C83.966 22.4981 83.563 22.9891 83.0459 23.3346C82.5289 23.6801 81.921 23.8645 81.2992 23.8645H78.155ZM78.155 23.8645H71.8668M78.155 23.8645V12.336C78.155 11.5021 77.8238 10.7024 77.2341 10.1128C76.6445 9.52315 75.8448 9.19189 75.0109 9.19189C74.177 9.19189 73.3773 9.52315 72.7877 10.1128C72.198 10.7024 71.8668 11.5021 71.8668 12.336V23.8645M71.8668 23.8645V17.5762M71.8668 23.8645H60.3383C59.5045 23.8645 58.7047 23.5332 58.1151 22.9436C57.5255 22.3539 57.1942 21.5542 57.1942 20.7203C57.1942 19.8865 57.5255 19.0868 58.1151 18.4971C58.7047 17.9075 59.5045 17.5762 60.3383 17.5762H71.8668M71.8668 23.8645H83.3952C84.2291 23.8645 85.0288 24.1957 85.6185 24.7854C86.2081 25.375 86.5394 26.1747 86.5394 27.0086C86.5394 27.8425 86.2081 28.6422 85.6185 29.2318C85.0288 29.8215 84.2291 30.1527 83.3952 30.1527H71.8668M71.8668 23.8645V30.1527M71.8668 23.8645H65.5785M71.8668 23.8645V35.3929C71.8668 36.2268 71.5355 37.0265 70.9459 37.6162C70.3563 38.2058 69.5565 38.537 68.7227 38.537C67.8888 38.537 67.0891 38.2058 66.4994 37.6162C65.9098 37.0265 65.5785 36.2268 65.5785 35.3929V23.8645M71.8668 17.5762V14.4321C71.8668 13.8103 71.6824 13.2024 71.3369 12.6853C70.9914 12.1683 70.5004 11.7653 69.9259 11.5273C69.3514 11.2893 68.7192 11.2271 68.1093 11.3484C67.4994 11.4697 66.9391 11.7692 66.4994 12.2089C66.0597 12.6486 65.7603 13.2088 65.639 13.8187C65.5176 14.4286 65.5799 15.0608 65.8179 15.6353C66.0558 16.2098 66.4588 16.7009 66.9759 17.0463C67.4929 17.3918 68.1008 17.5762 68.7227 17.5762H71.8668ZM71.8668 30.1527H75.0109C75.6328 30.1527 76.2406 30.3371 76.7577 30.6826C77.2747 31.0281 77.6777 31.5191 77.9157 32.0936C78.1537 32.6681 78.2159 33.3003 78.0946 33.9102C77.9733 34.5201 77.6739 35.0804 77.2341 35.5201C76.7944 35.9598 76.2342 36.2592 75.6243 36.3806C75.0144 36.5019 74.3822 36.4396 73.8077 36.2016C73.2332 35.9637 72.7422 35.5607 72.3967 35.0436C72.0512 34.5266 71.8668 33.9187 71.8668 33.2968V30.1527ZM65.5785 23.8645V27.0086C65.5785 27.6304 65.3941 28.2383 65.0487 28.7554C64.7032 29.2724 64.2121 29.6754 63.6376 29.9134C63.0631 30.1514 62.4309 30.2136 61.821 30.0923C61.2111 29.971 60.6509 29.6715 60.2112 29.2318C59.7715 28.7921 59.472 28.2319 59.3507 27.622C59.2294 27.0121 59.2917 26.3799 59.5296 25.8054C59.7676 25.2309 60.1706 24.7398 60.6876 24.3944C61.2047 24.0489 61.8126 23.8645 62.4344 23.8645H65.5785Z" stroke="white" stroke-width="2.09608"/>
</g>
</g>
<defs>
<clipPath id="clip0_3077_529">
<rect width="96" height="48" fill="white"/>
</clipPath>
<clipPath id="clip1_3077_529">
<rect width="31.4412" height="31.4412" fill="white" transform="translate(8.14417 8.1441)"/>
</clipPath>
<clipPath id="clip2_3077_529">
<rect width="31.4412" height="31.4412" fill="white" transform="translate(56.1442 8.1441)"/>
</clipPath>
</defs>
</svg>
