<svg width="96" height="48" viewBox="0 0 96 48" fill="none" xmlns="http://www.w3.org/2000/svg">
<g clip-path="url(#clip0_3077_593)">
<path d="M33.8711 13.6013L33.2313 14.2411" stroke="#1179EF" stroke-width="1.77778" stroke-linecap="round"/>
<path d="M14.2399 33.2408L13.6001 33.8806" stroke="#1179EF" stroke-width="1.77778" stroke-linecap="round"/>
<path d="M33.8711 34.3304L33.2313 33.6907" stroke="#1179EF" stroke-width="1.77778" stroke-linecap="round"/>
<path d="M14.2305 14.6918L13.5907 14.052" stroke="#1179EF" stroke-width="1.77778" stroke-linecap="round"/>
<path fill-rule="evenodd" clip-rule="evenodd" d="M20.6229 20.1416C20.6373 20.0205 20.6798 19.9044 20.7469 19.8026C20.8141 19.7008 20.904 19.6161 21.0097 19.5551C21.1153 19.4942 21.2337 19.4587 21.3554 19.4515C21.4772 19.4444 21.5989 19.4657 21.7109 19.5139C22.2773 19.756 23.5467 20.3315 25.1573 21.261C26.7685 22.1912 27.9019 23.0034 28.3941 23.372C28.8144 23.6872 28.8155 24.3122 28.3947 24.6285C27.9072 24.9949 26.7877 25.7965 25.1573 26.7383C23.5253 27.6802 22.2709 28.2487 21.7099 28.4876C21.2267 28.694 20.6859 28.381 20.6229 27.8599C20.5493 27.2509 20.4117 25.8679 20.4117 24.0002C20.4117 22.1336 20.5488 20.7512 20.6229 20.1416Z" fill="#1179EF"/>
<path d="M38.243 23.8066L37.3382 23.8066" stroke="#1179EF" stroke-width="1.77778" stroke-linecap="round"/>
<path d="M10.4696 23.8065L9.5648 23.8065" stroke="#1179EF" stroke-width="1.77778" stroke-linecap="round"/>
<path d="M23.5767 10.6917L23.5767 9.78685" stroke="#1179EF" stroke-width="1.77778" stroke-linecap="round"/>
<mask id="path-9-inside-1_3077_593" fill="white">
<path d="M44 23.9994C44 20.0439 42.827 16.1771 40.6294 12.8881C38.4318 9.59919 35.3082 7.03577 31.6537 5.52203C27.9991 4.00829 23.9778 3.61223 20.0982 4.38392C16.2186 5.15562 12.6549 7.06042 9.85786 9.85744C7.06081 12.6545 5.156 16.2181 4.38429 20.0977C3.61259 23.9773 4.00866 27.9985 5.52241 31.653C7.03616 35.3075 9.59961 38.4311 12.8886 40.6287C16.1776 42.8263 20.0444 43.9992 24 43.9992V41.3211C20.5741 41.3211 17.2251 40.3052 14.3765 38.4018C11.528 36.4985 9.3078 33.7932 7.99675 30.6281C6.68571 27.463 6.34268 23.9802 7.01104 20.6202C7.67941 17.2601 9.32915 14.1737 11.7516 11.7512C14.1741 9.32873 17.2606 7.67901 20.6207 7.01065C23.9808 6.34229 27.4636 6.68532 30.6288 7.99635C33.7939 9.30738 36.4992 11.5275 38.4025 14.3761C40.3059 17.2246 41.3218 20.5735 41.3218 23.9994H44Z"/>
</mask>
<path d="M44 23.9994C44 20.0439 42.827 16.1771 40.6294 12.8881C38.4318 9.59919 35.3082 7.03577 31.6537 5.52203C27.9991 4.00829 23.9778 3.61223 20.0982 4.38392C16.2186 5.15562 12.6549 7.06042 9.85786 9.85744C7.06081 12.6545 5.156 16.2181 4.38429 20.0977C3.61259 23.9773 4.00866 27.9985 5.52241 31.653C7.03616 35.3075 9.59961 38.4311 12.8886 40.6287C16.1776 42.8263 20.0444 43.9992 24 43.9992V41.3211C20.5741 41.3211 17.2251 40.3052 14.3765 38.4018C11.528 36.4985 9.3078 33.7932 7.99675 30.6281C6.68571 27.463 6.34268 23.9802 7.01104 20.6202C7.67941 17.2601 9.32915 14.1737 11.7516 11.7512C14.1741 9.32873 17.2606 7.67901 20.6207 7.01065C23.9808 6.34229 27.4636 6.68532 30.6288 7.99635C33.7939 9.30738 36.4992 11.5275 38.4025 14.3761C40.3059 17.2246 41.3218 20.5735 41.3218 23.9994H44Z" stroke="#1179EF" stroke-width="3.55554" mask="url(#path-9-inside-1_3077_593)"/>
<path d="M24.0016 44.0003V38.4608C24.0016 36.911 25.8464 36.1033 26.9852 37.1544L31.0605 40.9162C32.2496 42.0139 31.473 44.0003 29.8546 44.0003H24.0016Z" fill="#1179EF"/>
<path d="M81.8711 13.6013L81.2313 14.2411" stroke="white" stroke-width="1.77778" stroke-linecap="round"/>
<path d="M62.2399 33.2408L61.6001 33.8806" stroke="white" stroke-width="1.77778" stroke-linecap="round"/>
<path d="M81.8711 34.3304L81.2313 33.6907" stroke="white" stroke-width="1.77778" stroke-linecap="round"/>
<path d="M62.2305 14.6918L61.5907 14.052" stroke="white" stroke-width="1.77778" stroke-linecap="round"/>
<path fill-rule="evenodd" clip-rule="evenodd" d="M68.6229 20.1416C68.6373 20.0205 68.6798 19.9044 68.7469 19.8026C68.8141 19.7008 68.904 19.6161 69.0097 19.5551C69.1153 19.4942 69.2337 19.4587 69.3554 19.4515C69.4772 19.4444 69.5989 19.4657 69.7109 19.5139C70.2773 19.756 71.5467 20.3315 73.1573 21.261C74.7685 22.1912 75.9019 23.0034 76.3941 23.372C76.8144 23.6872 76.8155 24.3122 76.3947 24.6285C75.9072 24.9949 74.7877 25.7965 73.1573 26.7383C71.5253 27.6802 70.2709 28.2487 69.7099 28.4876C69.2267 28.694 68.6859 28.381 68.6229 27.8599C68.5493 27.2509 68.4117 25.8679 68.4117 24.0002C68.4117 22.1336 68.5488 20.7512 68.6229 20.1416Z" fill="white"/>
<path d="M86.243 23.8066L85.3382 23.8066" stroke="white" stroke-width="1.77778" stroke-linecap="round"/>
<path d="M58.4696 23.8065L57.5648 23.8065" stroke="white" stroke-width="1.77778" stroke-linecap="round"/>
<path d="M71.5767 10.6917L71.5767 9.78685" stroke="white" stroke-width="1.77778" stroke-linecap="round"/>
<mask id="path-19-inside-2_3077_593" fill="white">
<path d="M92 23.9994C92 20.0439 90.827 16.1771 88.6294 12.8881C86.4318 9.59919 83.3082 7.03577 79.6537 5.52203C75.9991 4.00829 71.9778 3.61223 68.0982 4.38392C64.2186 5.15562 60.6549 7.06042 57.8579 9.85744C55.0608 12.6545 53.156 16.2181 52.3843 20.0977C51.6126 23.9773 52.0087 27.9985 53.5224 31.653C55.0362 35.3075 57.5996 38.4311 60.8886 40.6287C64.1776 42.8263 68.0444 43.9992 72 43.9992V41.3211C68.5741 41.3211 65.2251 40.3052 62.3765 38.4018C59.528 36.4985 57.3078 33.7932 55.9968 30.6281C54.6857 27.463 54.3427 23.9802 55.011 20.6202C55.6794 17.2601 57.3292 14.1737 59.7516 11.7512C62.1741 9.32873 65.2606 7.67901 68.6207 7.01065C71.9808 6.34229 75.4636 6.68532 78.6288 7.99635C81.7939 9.30738 84.4992 11.5275 86.4025 14.3761C88.3059 17.2246 89.3218 20.5735 89.3218 23.9994H92Z"/>
</mask>
<path d="M92 23.9994C92 20.0439 90.827 16.1771 88.6294 12.8881C86.4318 9.59919 83.3082 7.03577 79.6537 5.52203C75.9991 4.00829 71.9778 3.61223 68.0982 4.38392C64.2186 5.15562 60.6549 7.06042 57.8579 9.85744C55.0608 12.6545 53.156 16.2181 52.3843 20.0977C51.6126 23.9773 52.0087 27.9985 53.5224 31.653C55.0362 35.3075 57.5996 38.4311 60.8886 40.6287C64.1776 42.8263 68.0444 43.9992 72 43.9992V41.3211C68.5741 41.3211 65.2251 40.3052 62.3765 38.4018C59.528 36.4985 57.3078 33.7932 55.9968 30.6281C54.6857 27.463 54.3427 23.9802 55.011 20.6202C55.6794 17.2601 57.3292 14.1737 59.7516 11.7512C62.1741 9.32873 65.2606 7.67901 68.6207 7.01065C71.9808 6.34229 75.4636 6.68532 78.6288 7.99635C81.7939 9.30738 84.4992 11.5275 86.4025 14.3761C88.3059 17.2246 89.3218 20.5735 89.3218 23.9994H92Z" stroke="white" stroke-width="3.55554" mask="url(#path-19-inside-2_3077_593)"/>
<path d="M72.0016 44.0003V38.4608C72.0016 36.911 73.8464 36.1033 74.9852 37.1544L79.0605 40.9162C80.2496 42.0139 79.473 44.0003 77.8546 44.0003H72.0016Z" fill="white"/>
</g>
<defs>
<clipPath id="clip0_3077_593">
<rect width="96" height="48" fill="white"/>
</clipPath>
</defs>
</svg>
