<svg width="96" height="48" viewBox="0 0 96 48" fill="none" xmlns="http://www.w3.org/2000/svg">
<g clip-path="url(#clip0_3077_602)">
<path d="M23.9998 40.6666L20.6665 30.6666H7.33313L10.6665 40.6666H23.9998ZM23.9998 40.6666H30.6665M23.9998 25.6666V24.8333C23.9998 21.69 23.9998 20.12 23.0231 19.1433C22.0465 18.1666 20.4765 18.1666 17.3331 18.1666C14.1898 18.1666 12.6198 18.1666 11.6431 19.1433C10.6665 20.12 10.6665 21.69 10.6665 24.8333V25.6666M27.3331 33.1666H37.3331C38.2172 33.1666 39.065 33.5178 39.6902 34.143C40.3153 34.7681 40.6665 35.6159 40.6665 36.5V37.3333C40.6665 38.2174 40.3153 39.0652 39.6902 39.6903C39.065 40.3155 38.2172 40.6666 37.3331 40.6666H35.6665M35.6665 25.6666C35.6665 26.5507 35.3153 27.3985 34.6902 28.0237C34.065 28.6488 33.2172 29 32.3331 29C31.4491 29 30.6012 28.6488 29.9761 28.0237C29.351 27.3985 28.9998 26.5507 28.9998 25.6666C28.9998 24.7826 29.351 23.9347 29.9761 23.3096C30.6012 22.6845 31.4491 22.3333 32.3331 22.3333C33.2172 22.3333 34.065 22.6845 34.6902 23.3096C35.3153 23.9347 35.6665 24.7826 35.6665 25.6666ZM20.6665 10.6666C20.6665 11.5507 20.3153 12.3985 19.6902 13.0237C19.065 13.6488 18.2172 14 17.3331 14C16.4491 14 15.6012 13.6488 14.9761 13.0237C14.351 12.3985 13.9998 11.5507 13.9998 10.6666C13.9998 9.78259 14.351 8.93474 14.9761 8.30962C15.6012 7.6845 16.4491 7.33331 17.3331 7.33331C18.2172 7.33331 19.065 7.6845 19.6902 8.30962C20.3153 8.93474 20.6665 9.78259 20.6665 10.6666Z" stroke="#1179EF" stroke-width="2.5" stroke-linecap="round" stroke-linejoin="round"/>
<path d="M71.9998 40.6666L68.6665 30.6666H55.3331L58.6665 40.6666H71.9998ZM71.9998 40.6666H78.6665M71.9998 25.6666V24.8333C71.9998 21.69 71.9998 20.12 71.0231 19.1433C70.0465 18.1666 68.4765 18.1666 65.3331 18.1666C62.1898 18.1666 60.6198 18.1666 59.6431 19.1433C58.6665 20.12 58.6665 21.69 58.6665 24.8333V25.6666M75.3331 33.1666H85.3331C86.2172 33.1666 87.065 33.5178 87.6902 34.143C88.3153 34.7681 88.6665 35.6159 88.6665 36.5V37.3333C88.6665 38.2174 88.3153 39.0652 87.6902 39.6903C87.065 40.3155 86.2172 40.6666 85.3331 40.6666H83.6665M83.6665 25.6666C83.6665 26.5507 83.3153 27.3985 82.6902 28.0237C82.065 28.6488 81.2172 29 80.3331 29C79.4491 29 78.6012 28.6488 77.9761 28.0237C77.351 27.3985 76.9998 26.5507 76.9998 25.6666C76.9998 24.7826 77.351 23.9347 77.9761 23.3096C78.6012 22.6845 79.4491 22.3333 80.3331 22.3333C81.2172 22.3333 82.065 22.6845 82.6902 23.3096C83.3153 23.9347 83.6665 24.7826 83.6665 25.6666ZM68.6665 10.6666C68.6665 11.5507 68.3153 12.3985 67.6902 13.0237C67.065 13.6488 66.2172 14 65.3331 14C64.4491 14 63.6012 13.6488 62.9761 13.0237C62.351 12.3985 61.9998 11.5507 61.9998 10.6666C61.9998 9.78259 62.351 8.93474 62.9761 8.30962C63.6012 7.6845 64.4491 7.33331 65.3331 7.33331C66.2172 7.33331 67.065 7.6845 67.6902 8.30962C68.3153 8.93474 68.6665 9.78259 68.6665 10.6666Z" stroke="white" stroke-width="2.5" stroke-linecap="round" stroke-linejoin="round"/>
</g>
<defs>
<clipPath id="clip0_3077_602">
<rect width="96" height="48" fill="white"/>
</clipPath>
</defs>
</svg>
