<svg width="96" height="48" viewBox="0 0 96 48" fill="none" xmlns="http://www.w3.org/2000/svg">
<g clip-path="url(#clip0_3077_611)">
<path d="M36.8341 10.8951H10.8951C10.2697 10.8951 9.66988 11.1436 9.22766 11.5858C8.78543 12.028 8.53699 12.6278 8.53699 13.2532V34.4761C8.53699 35.1015 8.78543 35.7013 9.22766 36.1435C9.66988 36.5857 10.2697 36.8342 10.8951 36.8342H12.8685C13.0917 36.8342 13.3102 36.771 13.4989 36.6518C13.6875 36.5325 13.8384 36.3622 13.9341 36.1606C14.5074 34.9502 15.4126 33.9273 16.5444 33.2111C17.6762 32.4948 18.9881 32.1146 20.3275 32.1146C21.6668 32.1146 22.9787 32.4948 24.1105 33.2111C25.2423 33.9273 26.1475 34.9502 26.7208 36.1606C26.8165 36.3622 26.9674 36.5325 27.156 36.6518C27.3447 36.771 27.5632 36.8342 27.7864 36.8342H36.8341C37.4595 36.8342 38.0593 36.5857 38.5015 36.1435C38.9438 35.7013 39.1922 35.1015 39.1922 34.4761V13.2532C39.1922 12.6278 38.9438 12.028 38.5015 11.5858C38.0593 11.1436 37.4595 10.8951 36.8341 10.8951ZM16.7903 26.2227C16.7903 25.5232 16.9978 24.8393 17.3864 24.2576C17.7751 23.6759 18.3275 23.2226 18.9738 22.9549C19.6202 22.6871 20.3314 22.6171 21.0175 22.7536C21.7037 22.8901 22.3339 23.2269 22.8286 23.7216C23.3233 24.2163 23.6601 24.8465 23.7966 25.5327C23.9331 26.2188 23.8631 26.93 23.5953 27.5763C23.3276 28.2227 22.8743 28.7751 22.2926 29.1638C21.7109 29.5524 21.027 29.7599 20.3275 29.7599C19.3893 29.7599 18.4897 29.3872 17.8263 28.7239C17.163 28.0605 16.7903 27.1609 16.7903 26.2227ZM36.8341 34.4761H28.4968C27.5121 32.7833 26.0279 31.4366 24.2478 30.6206C25.1403 29.8259 25.7702 28.7787 26.054 27.6178C26.3378 26.4569 26.2621 25.2372 25.837 24.1204C25.4118 23.0035 24.6572 22.0422 23.6733 21.364C22.6893 20.6857 21.5225 20.3225 20.3275 20.3225C19.1324 20.3225 17.9656 20.6857 16.9816 21.364C15.9977 22.0422 15.2431 23.0035 14.8179 24.1204C14.3928 25.2372 14.3171 26.4569 14.6009 27.6178C14.8847 28.7787 15.5146 29.8259 16.4071 30.6206C14.627 31.4366 13.1428 32.7833 12.1581 34.4761H10.8951V13.2532H36.8341V34.4761ZM13.2532 19.1485V16.7904C13.2532 16.4777 13.3774 16.1778 13.5985 15.9567C13.8196 15.7355 14.1195 15.6113 14.4322 15.6113H33.297C33.6097 15.6113 33.9096 15.7355 34.1307 15.9567C34.3518 16.1778 34.476 16.4777 34.476 16.7904V30.9389C34.476 31.2516 34.3518 31.5515 34.1307 31.7726C33.9096 31.9938 33.6097 32.118 33.297 32.118H30.9389C30.6262 32.118 30.3263 31.9938 30.1052 31.7726C29.884 31.5515 29.7598 31.2516 29.7598 30.9389C29.7598 30.6262 29.884 30.3263 30.1052 30.1052C30.3263 29.8841 30.6262 29.7599 30.9389 29.7599H32.1179V17.9694H15.6113V19.1485C15.6113 19.4612 15.487 19.7611 15.2659 19.9822C15.0448 20.2033 14.7449 20.3275 14.4322 20.3275C14.1195 20.3275 13.8196 20.2033 13.5985 19.9822C13.3774 19.7611 13.2532 19.4612 13.2532 19.1485Z" fill="#1179EF"/>
<path d="M84.8341 10.8951H58.8951C58.2697 10.8951 57.6699 11.1436 57.2277 11.5858C56.7854 12.028 56.537 12.6278 56.537 13.2532V34.4761C56.537 35.1015 56.7854 35.7013 57.2277 36.1435C57.6699 36.5857 58.2697 36.8342 58.8951 36.8342H60.8685C61.0917 36.8342 61.3102 36.771 61.4989 36.6518C61.6875 36.5325 61.8384 36.3622 61.9341 36.1606C62.5074 34.9502 63.4126 33.9273 64.5444 33.2111C65.6762 32.4948 66.9881 32.1146 68.3275 32.1146C69.6668 32.1146 70.9787 32.4948 72.1105 33.2111C73.2423 33.9273 74.1475 34.9502 74.7208 36.1606C74.8165 36.3622 74.9674 36.5325 75.156 36.6518C75.3447 36.771 75.5632 36.8342 75.7864 36.8342H84.8341C85.4595 36.8342 86.0593 36.5857 86.5015 36.1435C86.9438 35.7013 87.1922 35.1015 87.1922 34.4761V13.2532C87.1922 12.6278 86.9438 12.028 86.5015 11.5858C86.0593 11.1436 85.4595 10.8951 84.8341 10.8951ZM64.7903 26.2227C64.7903 25.5232 64.9978 24.8393 65.3864 24.2576C65.7751 23.6759 66.3275 23.2226 66.9738 22.9549C67.6202 22.6871 68.3314 22.6171 69.0175 22.7536C69.7037 22.8901 70.3339 23.2269 70.8286 23.7216C71.3233 24.2163 71.6601 24.8465 71.7966 25.5327C71.9331 26.2188 71.8631 26.93 71.5953 27.5763C71.3276 28.2227 70.8743 28.7751 70.2926 29.1638C69.7109 29.5524 69.027 29.7599 68.3275 29.7599C67.3893 29.7599 66.4897 29.3872 65.8263 28.7239C65.163 28.0605 64.7903 27.1609 64.7903 26.2227ZM84.8341 34.4761H76.4968C75.5121 32.7833 74.0279 31.4366 72.2478 30.6206C73.1403 29.8259 73.7702 28.7787 74.054 27.6178C74.3378 26.4569 74.2621 25.2372 73.837 24.1204C73.4118 23.0035 72.6572 22.0422 71.6733 21.364C70.6893 20.6857 69.5225 20.3225 68.3275 20.3225C67.1324 20.3225 65.9656 20.6857 64.9816 21.364C63.9977 22.0422 63.2431 23.0035 62.8179 24.1204C62.3928 25.2372 62.3171 26.4569 62.6009 27.6178C62.8847 28.7787 63.5146 29.8259 64.4071 30.6206C62.627 31.4366 61.1428 32.7833 60.1581 34.4761H58.8951V13.2532H84.8341V34.4761ZM61.2532 19.1485V16.7904C61.2532 16.4777 61.3774 16.1778 61.5985 15.9567C61.8196 15.7355 62.1195 15.6113 62.4322 15.6113H81.297C81.6097 15.6113 81.9096 15.7355 82.1307 15.9567C82.3518 16.1778 82.476 16.4777 82.476 16.7904V30.9389C82.476 31.2516 82.3518 31.5515 82.1307 31.7726C81.9096 31.9938 81.6097 32.118 81.297 32.118H78.9389C78.6262 32.118 78.3263 31.9938 78.1052 31.7726C77.884 31.5515 77.7598 31.2516 77.7598 30.9389C77.7598 30.6262 77.884 30.3263 78.1052 30.1052C78.3263 29.8841 78.6262 29.7599 78.9389 29.7599H80.1179V17.9694H63.6113V19.1485C63.6113 19.4612 63.487 19.7611 63.2659 19.9822C63.0448 20.2033 62.7449 20.3275 62.4322 20.3275C62.1195 20.3275 61.8196 20.2033 61.5985 19.9822C61.3774 19.7611 61.2532 19.4612 61.2532 19.1485Z" fill="white"/>
</g>
<defs>
<clipPath id="clip0_3077_611">
<rect width="96" height="48" fill="white"/>
</clipPath>
</defs>
</svg>
