<svg width="32" height="33" viewBox="0 0 32 33" fill="none" xmlns="http://www.w3.org/2000/svg">
<g id="ion:book-outline">
<path id="Vector" d="M16 10.5C17 6.55251 20.7769 4.53688 29 4.50001C29.1315 4.49951 29.2617 4.52504 29.3833 4.57512C29.5048 4.6252 29.6153 4.69884 29.7082 4.79179C29.8012 4.88475 29.8748 4.99519 29.9249 5.11674C29.975 5.23829 30.0005 5.36855 30 5.50001V23.5C30 23.7652 29.8947 24.0196 29.7071 24.2071C29.5196 24.3947 29.2652 24.5 29 24.5C21 24.5 17.9094 26.1131 16 28.5M16 10.5C15 6.55251 11.2231 4.53688 3.00001 4.50001C2.86855 4.49951 2.73829 4.52504 2.61674 4.57512C2.49519 4.6252 2.38475 4.69884 2.29179 4.79179C2.19884 4.88475 2.1252 4.99519 2.07512 5.11674C2.02504 5.23829 1.99951 5.36855 2.00001 5.50001V23.3794C2.00001 23.9969 2.38251 24.5 3.00001 24.5C11 24.5 14.1019 26.125 16 28.5M16 10.5V28.5" stroke="#4F4F4F" stroke-width="2" stroke-linecap="round" stroke-linejoin="round"/>
</g>
</svg>
