<svg width="45" height="45" viewBox="0 0 45 45" fill="none" xmlns="http://www.w3.org/2000/svg">
<path d="M38.6615 25.3333C38.6615 19.0483 38.6615 15.905 36.7081 13.9533C35.4581 12.7033 33.7198 12.2533 30.9798 12.09C29.4415 12 27.5881 12 25.3281 12H18.6615C16.4015 12 14.5481 12 13.0115 12.09C10.2698 12.2517 8.53146 12.7017 7.28146 13.9533C5.32812 15.905 5.32812 19.0483 5.32812 25.3333C5.32812 31.6183 5.32812 34.7617 7.28146 36.7133C9.23312 38.6667 12.3765 38.6667 18.6615 38.6667H25.3281C31.6131 38.6667 34.7565 38.6667 36.7081 36.7133C37.7981 35.625 38.2798 34.1667 38.4915 32" stroke="#2F80ED" stroke-width="2.5" stroke-linecap="round"/>
<path d="M13.0078 12.09C14.3795 12.0567 15.5911 11.09 16.0578 9.8L16.1161 9.62833L16.1578 9.5C16.2278 9.28833 16.2645 9.18333 16.3011 9.09C16.5366 8.50469 16.9333 7.99821 17.4452 7.62942C17.957 7.26063 18.5631 7.04468 19.1928 7.00667C19.2911 7 19.4045 7 19.6245 7H24.3545C24.5761 7 24.6878 7 24.7878 7.00667C25.4176 7.04468 26.0236 7.26063 26.5355 7.62942C27.0473 7.99821 27.444 8.50469 27.6795 9.09C27.7178 9.18333 27.7528 9.29 27.8228 9.5L27.8661 9.62833C27.8961 9.71667 27.9095 9.76167 27.9245 9.8C28.3911 11.0917 29.6028 12.0567 30.9745 12.09" stroke="#2F80ED" stroke-width="2.5"/>
<path d="M38.0973 16.5352C33.0806 19.7952 30.5723 21.4252 27.929 22.2468C24.064 23.4477 19.9256 23.4477 16.0606 22.2468C13.4156 21.4252 10.9073 19.7968 5.89062 16.5352M15.3273 20.3352V23.6685M28.6606 20.3352V23.6685" stroke="#2F80ED" stroke-width="2.5" stroke-linecap="round"/>
</svg>
