<svg width="126" height="24" viewBox="0 0 126 24" fill="none" xmlns="http://www.w3.org/2000/svg">
<path d="M0 0.5H126L114.052 23.5H0V0.5Z" fill="url(#paint0_linear_2045_196)"/>
<path d="M14.2461 14.6289V16H9.95117V14.6289H14.2461ZM10.5195 7.46875V16H8.76172V7.46875H10.5195ZM16.9297 9.66016V16H15.2363V9.66016H16.9297ZM15.1309 8.00781C15.1309 7.76172 15.2168 7.55859 15.3887 7.39844C15.5605 7.23828 15.791 7.1582 16.0801 7.1582C16.3652 7.1582 16.5938 7.23828 16.7656 7.39844C16.9414 7.55859 17.0293 7.76172 17.0293 8.00781C17.0293 8.25391 16.9414 8.45703 16.7656 8.61719C16.5938 8.77734 16.3652 8.85742 16.0801 8.85742C15.791 8.85742 15.5605 8.77734 15.3887 8.61719C15.2168 8.45703 15.1309 8.25391 15.1309 8.00781ZM20.0117 10.9727V16H18.3184V9.66016H19.9062L20.0117 10.9727ZM19.7773 12.6074H19.3086C19.3086 12.166 19.3613 11.7598 19.4668 11.3887C19.5762 11.0137 19.7344 10.6895 19.9414 10.416C20.1523 10.1387 20.4121 9.92383 20.7207 9.77148C21.0293 9.61914 21.3867 9.54297 21.793 9.54297C22.0742 9.54297 22.332 9.58594 22.5664 9.67188C22.8008 9.75391 23.002 9.88477 23.1699 10.0645C23.3418 10.2402 23.4746 10.4707 23.5684 10.7559C23.6621 11.0371 23.709 11.375 23.709 11.7695V16H22.0215V11.957C22.0215 11.668 21.9824 11.4453 21.9043 11.2891C21.8262 11.1328 21.7148 11.0234 21.5703 10.9609C21.4297 10.8984 21.2598 10.8672 21.0605 10.8672C20.8418 10.8672 20.6504 10.9121 20.4863 11.002C20.3262 11.0918 20.1934 11.2168 20.0879 11.377C19.9824 11.5332 19.9043 11.7168 19.8535 11.9277C19.8027 12.1387 19.7773 12.3652 19.7773 12.6074ZM23.5508 12.4141L22.9473 12.4902C22.9473 12.0762 22.998 11.6914 23.0996 11.3359C23.2051 10.9805 23.3594 10.668 23.5625 10.3984C23.7695 10.1289 24.0254 9.91992 24.3301 9.77148C24.6348 9.61914 24.9863 9.54297 25.3848 9.54297C25.6895 9.54297 25.9668 9.58789 26.2168 9.67773C26.4668 9.76367 26.6797 9.90234 26.8555 10.0938C27.0352 10.2812 27.1719 10.5273 27.2656 10.832C27.3633 11.1367 27.4121 11.5098 27.4121 11.9512V16H25.7188V11.9512C25.7188 11.6582 25.6797 11.4355 25.6016 11.2832C25.5273 11.127 25.418 11.0195 25.2734 10.9609C25.1328 10.8984 24.9648 10.8672 24.7695 10.8672C24.5664 10.8672 24.3887 10.9082 24.2363 10.9902C24.084 11.0684 23.957 11.1777 23.8555 11.3184C23.7539 11.459 23.6777 11.623 23.627 11.8105C23.5762 11.9941 23.5508 12.1953 23.5508 12.4141ZM30.5 9.66016V16H28.8066V9.66016H30.5ZM28.7012 8.00781C28.7012 7.76172 28.7871 7.55859 28.959 7.39844C29.1309 7.23828 29.3613 7.1582 29.6504 7.1582C29.9355 7.1582 30.1641 7.23828 30.3359 7.39844C30.5117 7.55859 30.5996 7.76172 30.5996 8.00781C30.5996 8.25391 30.5117 8.45703 30.3359 8.61719C30.1641 8.77734 29.9355 8.85742 29.6504 8.85742C29.3613 8.85742 29.1309 8.77734 28.959 8.61719C28.7871 8.45703 28.7012 8.25391 28.7012 8.00781ZM35 9.66016V10.8555H31.3086V9.66016H35ZM32.2227 8.0957H33.9102V14.0898C33.9102 14.2734 33.9336 14.4141 33.9805 14.5117C34.0312 14.6094 34.1055 14.6777 34.2031 14.7168C34.3008 14.752 34.4238 14.7695 34.5723 14.7695C34.6777 14.7695 34.7715 14.7656 34.8535 14.7578C34.9395 14.7461 35.0117 14.7344 35.0703 14.7227L35.0762 15.9648C34.9316 16.0117 34.7754 16.0488 34.6074 16.0762C34.4395 16.1035 34.2539 16.1172 34.0508 16.1172C33.6797 16.1172 33.3555 16.0566 33.0781 15.9355C32.8047 15.8105 32.5938 15.6113 32.4453 15.3379C32.2969 15.0645 32.2227 14.7051 32.2227 14.2598V8.0957ZM38.8789 16.1172C38.3867 16.1172 37.9453 16.0391 37.5547 15.8828C37.1641 15.7227 36.832 15.502 36.5586 15.2207C36.2891 14.9395 36.082 14.6133 35.9375 14.2422C35.793 13.8672 35.7207 13.4688 35.7207 13.0469V12.8125C35.7207 12.332 35.7891 11.8926 35.9258 11.4941C36.0625 11.0957 36.2578 10.75 36.5117 10.457C36.7695 10.1641 37.082 9.93945 37.4492 9.7832C37.8164 9.62305 38.2305 9.54297 38.6914 9.54297C39.1406 9.54297 39.5391 9.61719 39.8867 9.76562C40.2344 9.91406 40.5254 10.125 40.7598 10.3984C40.998 10.6719 41.1777 11 41.2988 11.3828C41.4199 11.7617 41.4805 12.1836 41.4805 12.6484V13.3516H36.4414V12.2266H39.8223V12.0977C39.8223 11.8633 39.7793 11.6543 39.6934 11.4707C39.6113 11.2832 39.4863 11.1348 39.3184 11.0254C39.1504 10.916 38.9355 10.8613 38.6738 10.8613C38.4512 10.8613 38.2598 10.9102 38.0996 11.0078C37.9395 11.1055 37.8086 11.2422 37.707 11.418C37.6094 11.5938 37.5352 11.8008 37.4844 12.0391C37.4375 12.2734 37.4141 12.5312 37.4141 12.8125V13.0469C37.4141 13.3008 37.4492 13.5352 37.5195 13.75C37.5938 13.9648 37.6973 14.1504 37.8301 14.3066C37.9668 14.4629 38.1309 14.584 38.3223 14.6699C38.5176 14.7559 38.7383 14.7988 38.9844 14.7988C39.2891 14.7988 39.5723 14.7402 39.834 14.623C40.0996 14.502 40.3281 14.3203 40.5195 14.0781L41.3398 14.9688C41.207 15.1602 41.0254 15.3438 40.7949 15.5195C40.5684 15.6953 40.2949 15.8398 39.9746 15.9531C39.6543 16.0625 39.2891 16.1172 38.8789 16.1172ZM46.1855 14.6172V7H47.8848V16H46.3555L46.1855 14.6172ZM42.1777 12.9062V12.7832C42.1777 12.2988 42.2324 11.8594 42.3418 11.4648C42.4512 11.0664 42.6113 10.7246 42.8223 10.4395C43.0332 10.1543 43.293 9.93359 43.6016 9.77734C43.9102 9.62109 44.2617 9.54297 44.6562 9.54297C45.0273 9.54297 45.3516 9.62109 45.6289 9.77734C45.9102 9.93359 46.1484 10.1562 46.3438 10.4453C46.543 10.7305 46.7031 11.0684 46.8242 11.459C46.9453 11.8457 47.0332 12.2695 47.0879 12.7305V13C47.0332 13.4414 46.9453 13.8516 46.8242 14.2305C46.7031 14.6094 46.543 14.9414 46.3438 15.2266C46.1484 15.5078 45.9102 15.7266 45.6289 15.8828C45.3477 16.0391 45.0195 16.1172 44.6445 16.1172C44.25 16.1172 43.8984 16.0371 43.5898 15.877C43.2852 15.7168 43.0273 15.4922 42.8164 15.2031C42.6094 14.9141 42.4512 14.5742 42.3418 14.1836C42.2324 13.793 42.1777 13.3672 42.1777 12.9062ZM43.8652 12.7832V12.9062C43.8652 13.168 43.8848 13.4121 43.9238 13.6387C43.9668 13.8652 44.0352 14.0664 44.1289 14.2422C44.2266 14.4141 44.3516 14.5488 44.5039 14.6465C44.6602 14.7402 44.8496 14.7871 45.0723 14.7871C45.3613 14.7871 45.5996 14.7227 45.7871 14.5938C45.9746 14.4609 46.1172 14.2793 46.2148 14.0488C46.3164 13.8184 46.375 13.5527 46.3906 13.252V12.4844C46.3789 12.2383 46.3438 12.0176 46.2852 11.8223C46.2305 11.623 46.1484 11.4531 46.0391 11.3125C45.9336 11.1719 45.8008 11.0625 45.6406 10.9844C45.4844 10.9062 45.2988 10.8672 45.084 10.8672C44.8652 10.8672 44.6777 10.918 44.5215 11.0195C44.3652 11.1172 44.2383 11.252 44.1406 11.4238C44.0469 11.5957 43.9766 11.7988 43.9297 12.0332C43.8867 12.2637 43.8652 12.5137 43.8652 12.7832ZM56.7383 13.7676C56.7383 13.6152 56.7148 13.4785 56.668 13.3574C56.625 13.2324 56.543 13.1191 56.4219 13.0176C56.3008 12.9121 56.1309 12.8086 55.9121 12.707C55.6934 12.6055 55.4102 12.5 55.0625 12.3906C54.6758 12.2656 54.3086 12.125 53.9609 11.9688C53.6172 11.8125 53.3125 11.6309 53.0469 11.4238C52.7852 11.2129 52.5781 10.9688 52.4258 10.6914C52.2773 10.4141 52.2031 10.0918 52.2031 9.72461C52.2031 9.36914 52.2812 9.04688 52.4375 8.75781C52.5938 8.46484 52.8125 8.21484 53.0938 8.00781C53.375 7.79688 53.707 7.63477 54.0898 7.52148C54.4766 7.4082 54.9004 7.35156 55.3613 7.35156C55.9902 7.35156 56.5391 7.46484 57.0078 7.69141C57.4766 7.91797 57.8398 8.22852 58.0977 8.62305C58.3594 9.01758 58.4902 9.46875 58.4902 9.97656H56.7441C56.7441 9.72656 56.6914 9.50781 56.5859 9.32031C56.4844 9.12891 56.3281 8.97852 56.1172 8.86914C55.9102 8.75977 55.6484 8.70508 55.332 8.70508C55.0273 8.70508 54.7734 8.75195 54.5703 8.8457C54.3672 8.93555 54.2148 9.05859 54.1133 9.21484C54.0117 9.36719 53.9609 9.53906 53.9609 9.73047C53.9609 9.875 53.9961 10.0059 54.0664 10.123C54.1406 10.2402 54.25 10.3496 54.3945 10.4512C54.5391 10.5527 54.7168 10.6484 54.9277 10.7383C55.1387 10.8281 55.3828 10.916 55.6602 11.002C56.125 11.1426 56.5332 11.3008 56.8848 11.4766C57.2402 11.6523 57.5371 11.8496 57.7754 12.0684C58.0137 12.2871 58.1934 12.5352 58.3145 12.8125C58.4355 13.0898 58.4961 13.4043 58.4961 13.7559C58.4961 14.127 58.4238 14.459 58.2793 14.752C58.1348 15.0449 57.9258 15.293 57.6523 15.4961C57.3789 15.6992 57.0527 15.8535 56.6738 15.959C56.2949 16.0645 55.8711 16.1172 55.4023 16.1172C54.9805 16.1172 54.5645 16.0625 54.1543 15.9531C53.7441 15.8398 53.3711 15.6699 53.0352 15.4434C52.7031 15.2168 52.4375 14.9277 52.2383 14.5762C52.0391 14.2246 51.9395 13.8086 51.9395 13.3281H53.7031C53.7031 13.5938 53.7441 13.8184 53.8262 14.002C53.9082 14.1855 54.0234 14.334 54.1719 14.4473C54.3242 14.5605 54.5039 14.6426 54.7109 14.6934C54.9219 14.7441 55.1523 14.7695 55.4023 14.7695C55.707 14.7695 55.957 14.7266 56.1523 14.6406C56.3516 14.5547 56.498 14.4355 56.5918 14.2832C56.6895 14.1309 56.7383 13.959 56.7383 13.7676ZM62.5039 16.1172C62.0117 16.1172 61.5703 16.0391 61.1797 15.8828C60.7891 15.7227 60.457 15.502 60.1836 15.2207C59.9141 14.9395 59.707 14.6133 59.5625 14.2422C59.418 13.8672 59.3457 13.4688 59.3457 13.0469V12.8125C59.3457 12.332 59.4141 11.8926 59.5508 11.4941C59.6875 11.0957 59.8828 10.75 60.1367 10.457C60.3945 10.1641 60.707 9.93945 61.0742 9.7832C61.4414 9.62305 61.8555 9.54297 62.3164 9.54297C62.7656 9.54297 63.1641 9.61719 63.5117 9.76562C63.8594 9.91406 64.1504 10.125 64.3848 10.3984C64.623 10.6719 64.8027 11 64.9238 11.3828C65.0449 11.7617 65.1055 12.1836 65.1055 12.6484V13.3516H60.0664V12.2266H63.4473V12.0977C63.4473 11.8633 63.4043 11.6543 63.3184 11.4707C63.2363 11.2832 63.1113 11.1348 62.9434 11.0254C62.7754 10.916 62.5605 10.8613 62.2988 10.8613C62.0762 10.8613 61.8848 10.9102 61.7246 11.0078C61.5645 11.1055 61.4336 11.2422 61.332 11.418C61.2344 11.5938 61.1602 11.8008 61.1094 12.0391C61.0625 12.2734 61.0391 12.5312 61.0391 12.8125V13.0469C61.0391 13.3008 61.0742 13.5352 61.1445 13.75C61.2188 13.9648 61.3223 14.1504 61.4551 14.3066C61.5918 14.4629 61.7559 14.584 61.9473 14.6699C62.1426 14.7559 62.3633 14.7988 62.6094 14.7988C62.9141 14.7988 63.1973 14.7402 63.459 14.623C63.7246 14.502 63.9531 14.3203 64.1445 14.0781L64.9648 14.9688C64.832 15.1602 64.6504 15.3438 64.4199 15.5195C64.1934 15.6953 63.9199 15.8398 63.5996 15.9531C63.2793 16.0625 62.9141 16.1172 62.5039 16.1172ZM69.4883 14.5703V11.7461C69.4883 11.543 69.4551 11.3691 69.3887 11.2246C69.3223 11.0762 69.2188 10.9609 69.0781 10.8789C68.9414 10.7969 68.7637 10.7559 68.5449 10.7559C68.3574 10.7559 68.1953 10.7891 68.0586 10.8555C67.9219 10.918 67.8164 11.0098 67.7422 11.1309C67.668 11.248 67.6309 11.3867 67.6309 11.5469H65.9434C65.9434 11.2773 66.0059 11.0215 66.1309 10.7793C66.2559 10.5371 66.4375 10.3242 66.6758 10.1406C66.9141 9.95312 67.1973 9.80664 67.5254 9.70117C67.8574 9.5957 68.2285 9.54297 68.6387 9.54297C69.1309 9.54297 69.5684 9.625 69.9512 9.78906C70.334 9.95312 70.6348 10.1992 70.8535 10.5273C71.0762 10.8555 71.1875 11.2656 71.1875 11.7578V14.4707C71.1875 14.8184 71.209 15.1035 71.252 15.3262C71.2949 15.5449 71.3574 15.7363 71.4395 15.9004V16H69.7344C69.6523 15.8281 69.5898 15.6133 69.5469 15.3555C69.5078 15.0938 69.4883 14.832 69.4883 14.5703ZM69.7109 12.1387L69.7227 13.0938H68.7793C68.5566 13.0938 68.3633 13.1191 68.1992 13.1699C68.0352 13.2207 67.9004 13.293 67.7949 13.3867C67.6895 13.4766 67.6113 13.582 67.5605 13.7031C67.5137 13.8242 67.4902 13.957 67.4902 14.1016C67.4902 14.2461 67.5234 14.377 67.5898 14.4941C67.6562 14.6074 67.752 14.6973 67.877 14.7637C68.002 14.8262 68.1484 14.8574 68.3164 14.8574C68.5703 14.8574 68.791 14.8066 68.9785 14.7051C69.166 14.6035 69.3105 14.4785 69.4121 14.3301C69.5176 14.1816 69.5723 14.041 69.5762 13.9082L70.0215 14.623C69.959 14.7832 69.873 14.9492 69.7637 15.1211C69.6582 15.293 69.5234 15.4551 69.3594 15.6074C69.1953 15.7559 68.998 15.8789 68.7676 15.9766C68.5371 16.0703 68.2637 16.1172 67.9473 16.1172C67.5449 16.1172 67.1797 16.0371 66.8516 15.877C66.5273 15.7129 66.2695 15.4883 66.0781 15.2031C65.8906 14.9141 65.7969 14.5859 65.7969 14.2188C65.7969 13.8867 65.8594 13.5918 65.9844 13.334C66.1094 13.0762 66.293 12.8594 66.5352 12.6836C66.7812 12.5039 67.0879 12.3691 67.4551 12.2793C67.8223 12.1855 68.248 12.1387 68.7324 12.1387H69.7109ZM75.5938 9.66016V10.8555H71.9023V9.66016H75.5938ZM72.8164 8.0957H74.5039V14.0898C74.5039 14.2734 74.5273 14.4141 74.5742 14.5117C74.625 14.6094 74.6992 14.6777 74.7969 14.7168C74.8945 14.752 75.0176 14.7695 75.166 14.7695C75.2715 14.7695 75.3652 14.7656 75.4473 14.7578C75.5332 14.7461 75.6055 14.7344 75.6641 14.7227L75.6699 15.9648C75.5254 16.0117 75.3691 16.0488 75.2012 16.0762C75.0332 16.1035 74.8477 16.1172 74.6445 16.1172C74.2734 16.1172 73.9492 16.0566 73.6719 15.9355C73.3984 15.8105 73.1875 15.6113 73.0391 15.3379C72.8906 15.0645 72.8164 14.7051 72.8164 14.2598V8.0957ZM79.9824 14.248C79.9824 14.127 79.9473 14.0176 79.877 13.9199C79.8066 13.8223 79.6758 13.7324 79.4844 13.6504C79.2969 13.5645 79.0254 13.4863 78.6699 13.416C78.3496 13.3457 78.0508 13.2578 77.7734 13.1523C77.5 13.043 77.2617 12.9121 77.0586 12.7598C76.8594 12.6074 76.7031 12.4277 76.5898 12.2207C76.4766 12.0098 76.4199 11.7695 76.4199 11.5C76.4199 11.2344 76.4766 10.9844 76.5898 10.75C76.707 10.5156 76.873 10.3086 77.0879 10.1289C77.3066 9.94531 77.5723 9.80273 77.8848 9.70117C78.2012 9.5957 78.5566 9.54297 78.9512 9.54297C79.502 9.54297 79.9746 9.63086 80.3691 9.80664C80.7676 9.98242 81.0723 10.2246 81.2832 10.5332C81.498 10.8379 81.6055 11.1855 81.6055 11.5762H79.918C79.918 11.4121 79.8828 11.2656 79.8125 11.1367C79.7461 11.0039 79.6406 10.9004 79.4961 10.8262C79.3555 10.748 79.1719 10.709 78.9453 10.709C78.7578 10.709 78.5957 10.7422 78.459 10.8086C78.3223 10.8711 78.2168 10.957 78.1426 11.0664C78.0723 11.1719 78.0371 11.2891 78.0371 11.418C78.0371 11.5156 78.0566 11.6035 78.0957 11.6816C78.1387 11.7559 78.207 11.8242 78.3008 11.8867C78.3945 11.9492 78.5156 12.0078 78.6641 12.0625C78.8164 12.1133 79.0039 12.1602 79.2266 12.2031C79.6836 12.2969 80.0918 12.4199 80.4512 12.5723C80.8105 12.7207 81.0957 12.9238 81.3066 13.1816C81.5176 13.4355 81.623 13.7695 81.623 14.1836C81.623 14.4648 81.5605 14.7227 81.4355 14.957C81.3105 15.1914 81.1309 15.3965 80.8965 15.5723C80.6621 15.7441 80.3809 15.8789 80.0527 15.9766C79.7285 16.0703 79.3633 16.1172 78.957 16.1172C78.3672 16.1172 77.8672 16.0117 77.457 15.8008C77.0508 15.5898 76.7422 15.3223 76.5312 14.998C76.3242 14.6699 76.2207 14.334 76.2207 13.9902H77.8203C77.8281 14.2207 77.8867 14.4062 77.9961 14.5469C78.1094 14.6875 78.252 14.7891 78.4238 14.8516C78.5996 14.9141 78.7891 14.9453 78.9922 14.9453C79.2109 14.9453 79.3926 14.916 79.5371 14.8574C79.6816 14.7949 79.791 14.7129 79.8652 14.6113C79.9434 14.5059 79.9824 14.3848 79.9824 14.248ZM91.2969 14.6289V16H87.002V14.6289H91.2969ZM87.5703 7.46875V16H85.8125V7.46875H87.5703ZM95.1172 16.1172C94.625 16.1172 94.1836 16.0391 93.793 15.8828C93.4023 15.7227 93.0703 15.502 92.7969 15.2207C92.5273 14.9395 92.3203 14.6133 92.1758 14.2422C92.0312 13.8672 91.959 13.4688 91.959 13.0469V12.8125C91.959 12.332 92.0273 11.8926 92.1641 11.4941C92.3008 11.0957 92.4961 10.75 92.75 10.457C93.0078 10.1641 93.3203 9.93945 93.6875 9.7832C94.0547 9.62305 94.4688 9.54297 94.9297 9.54297C95.3789 9.54297 95.7773 9.61719 96.125 9.76562C96.4727 9.91406 96.7637 10.125 96.998 10.3984C97.2363 10.6719 97.416 11 97.5371 11.3828C97.6582 11.7617 97.7188 12.1836 97.7188 12.6484V13.3516H92.6797V12.2266H96.0605V12.0977C96.0605 11.8633 96.0176 11.6543 95.9316 11.4707C95.8496 11.2832 95.7246 11.1348 95.5566 11.0254C95.3887 10.916 95.1738 10.8613 94.9121 10.8613C94.6895 10.8613 94.498 10.9102 94.3379 11.0078C94.1777 11.1055 94.0469 11.2422 93.9453 11.418C93.8477 11.5938 93.7734 11.8008 93.7227 12.0391C93.6758 12.2734 93.6523 12.5312 93.6523 12.8125V13.0469C93.6523 13.3008 93.6875 13.5352 93.7578 13.75C93.832 13.9648 93.9355 14.1504 94.0684 14.3066C94.2051 14.4629 94.3691 14.584 94.5605 14.6699C94.7559 14.7559 94.9766 14.7988 95.2227 14.7988C95.5273 14.7988 95.8105 14.7402 96.0723 14.623C96.3379 14.502 96.5664 14.3203 96.7578 14.0781L97.5781 14.9688C97.4453 15.1602 97.2637 15.3438 97.0332 15.5195C96.8066 15.6953 96.5332 15.8398 96.2129 15.9531C95.8926 16.0625 95.5273 16.1172 95.1172 16.1172ZM100.83 16H99.1309V9.09766C99.1309 8.61719 99.2246 8.21289 99.4121 7.88477C99.6035 7.55273 99.8711 7.30273 100.215 7.13477C100.562 6.96289 100.975 6.87695 101.451 6.87695C101.607 6.87695 101.758 6.88867 101.902 6.91211C102.047 6.93164 102.188 6.95703 102.324 6.98828L102.307 8.25977C102.232 8.24023 102.154 8.22656 102.072 8.21875C101.99 8.21094 101.895 8.20703 101.785 8.20703C101.582 8.20703 101.408 8.24219 101.264 8.3125C101.123 8.37891 101.016 8.47852 100.941 8.61133C100.867 8.74414 100.83 8.90625 100.83 9.09766V16ZM102.096 9.66016V10.8555H98.1875V9.66016H102.096ZM106.086 9.66016V10.8555H102.395V9.66016H106.086ZM103.309 8.0957H104.996V14.0898C104.996 14.2734 105.02 14.4141 105.066 14.5117C105.117 14.6094 105.191 14.6777 105.289 14.7168C105.387 14.752 105.51 14.7695 105.658 14.7695C105.764 14.7695 105.857 14.7656 105.939 14.7578C106.025 14.7461 106.098 14.7344 106.156 14.7227L106.162 15.9648C106.018 16.0117 105.861 16.0488 105.693 16.0762C105.525 16.1035 105.34 16.1172 105.137 16.1172C104.766 16.1172 104.441 16.0566 104.164 15.9355C103.891 15.8105 103.68 15.6113 103.531 15.3379C103.383 15.0645 103.309 14.7051 103.309 14.2598V8.0957Z" fill="white"/>
<defs>
<linearGradient id="paint0_linear_2045_196" x1="-4.5" y1="12" x2="123" y2="12" gradientUnits="userSpaceOnUse">
<stop offset="0.208333" stop-color="#FE8F1F"/>
<stop offset="0.614583" stop-color="#FE8F1F" stop-opacity="0.9"/>
<stop offset="1" stop-color="#FE8F1F" stop-opacity="0.8"/>
</linearGradient>
</defs>
</svg>
