<svg width="32" height="32" viewBox="0 0 32 32" fill="none" xmlns="http://www.w3.org/2000/svg">
<path fill-rule="evenodd" clip-rule="evenodd" d="M10.6224 13.4134V27H6.52941V13.4134H10.6224ZM21.8055 13.2828C24.7144 13.2828 27 15.2371 27 19.4457V27H22.3588V19.9693C22.3588 18.1289 21.633 16.873 20.0362 16.873C18.8152 16.873 18.1361 17.7204 17.8201 18.5375C17.7412 18.7331 17.723 18.9798 17.7196 19.2436L17.7199 27H13.122L13.1228 26.8301C13.1266 26.0001 13.1429 22.2768 13.1473 18.9503L13.148 18.2913C13.1481 18.1827 13.1481 18.0747 13.1482 17.9676L13.148 16.7285C13.1465 15.0499 13.1394 13.7454 13.122 13.4134H17.7199V15.546C17.9915 14.6133 19.4607 13.2828 21.8055 13.2828ZM8.50019 7C10.0104 7 10.9389 8.01443 10.9685 9.35508C10.9685 10.6719 10.0104 11.7143 8.47173 11.7143H8.44213C6.96091 11.7143 6 10.6755 6 9.35866C6 8.01682 6.9888 7 8.50019 7Z" fill="#0376B7"/>
</svg>
