<svg width="332" height="195" viewBox="0 0 332 195" fill="none" xmlns="http://www.w3.org/2000/svg">
<g clip-path="url(#clip0_2561_17681)">
<path d="M66.4447 145.25V169.468C66.4461 170.671 66.9251 171.823 67.7768 172.673C68.6285 173.523 69.7832 174.002 70.9876 174.003H123.469C124.673 174.002 125.828 173.523 126.68 172.673C127.531 171.823 128.01 170.671 128.012 169.468V158.647C128.012 157.445 127.533 156.291 126.681 155.441C125.829 154.591 124.674 154.113 123.469 154.113H108.725C107.63 154.113 106.579 153.679 105.805 152.905C105.03 152.132 104.595 151.084 104.595 149.991V132.661C104.595 131.568 105.03 130.52 105.805 129.747C106.579 128.973 107.63 128.539 108.725 128.539H155.992C157.087 128.539 158.138 128.973 158.912 129.747C159.687 130.52 160.122 131.568 160.122 132.661V170.793C160.123 171.995 160.602 173.147 161.454 173.998C162.306 174.848 163.46 175.326 164.665 175.327H184.612C185.817 175.326 186.972 174.848 187.823 173.998C188.675 173.147 189.154 171.995 189.155 170.793V152.165C189.155 151.072 189.59 150.023 190.365 149.25C191.139 148.477 192.19 148.043 193.285 148.043H226.66C226.712 148.462 226.921 148.846 227.247 149.117C227.572 149.387 227.989 149.524 228.411 149.498C228.834 149.472 229.231 149.287 229.521 148.979C229.811 148.671 229.973 148.264 229.973 147.842C229.973 147.419 229.811 147.013 229.521 146.705C229.231 146.397 228.834 146.211 228.411 146.186C227.989 146.16 227.572 146.296 227.247 146.567C226.921 146.837 226.712 147.221 226.66 147.641H193.306C192.101 147.641 190.946 148.119 190.094 148.969C189.242 149.819 188.763 150.973 188.763 152.175V170.793C188.763 171.886 188.328 172.935 187.553 173.708C186.779 174.481 185.728 174.915 184.633 174.915H164.675C163.58 174.915 162.529 174.481 161.755 173.708C160.98 172.935 160.545 171.886 160.545 170.793V132.661C160.544 131.459 160.065 130.307 159.213 129.457C158.361 128.606 157.207 128.128 156.002 128.127H108.725C107.52 128.128 106.366 128.606 105.514 129.457C104.662 130.307 104.183 131.459 104.182 132.661V149.97C104.183 151.172 104.662 152.325 105.514 153.175C106.366 154.025 107.52 154.503 108.725 154.504H123.469C124.564 154.504 125.615 154.939 126.389 155.712C127.164 156.485 127.599 157.533 127.599 158.627V169.448C127.599 170.541 127.164 171.59 126.389 172.363C125.615 173.136 124.564 173.57 123.469 173.57H70.9876C69.8923 173.57 68.8418 173.136 68.0673 172.363C67.2928 171.59 66.8577 170.541 66.8577 169.448V145.229C67.2791 145.178 67.6648 144.967 67.9361 144.641C68.2075 144.315 68.3441 143.898 68.3181 143.475C68.2921 143.053 68.1054 142.655 67.7962 142.365C67.4869 142.075 67.0783 141.913 66.6538 141.913C66.2292 141.913 65.8207 142.075 65.5114 142.365C65.2021 142.655 65.0155 143.053 64.9895 143.475C64.9635 143.898 65.1001 144.315 65.3714 144.641C65.6428 144.967 66.0285 145.178 66.4499 145.229L66.4447 145.25Z" fill="url(#paint0_linear_2561_17681)" style="mix-blend-mode:color-dodge"/>
<path d="M62.5527 107.891H92.9593C94.1637 107.889 95.3185 107.411 96.1701 106.561C97.0218 105.711 97.5009 104.559 97.5022 103.356V92.9527C97.5022 91.8594 97.9374 90.8108 98.7119 90.0378C99.4864 89.2647 100.537 88.8304 101.632 88.8304H113.506C113.557 89.2499 113.767 89.634 114.092 89.9045C114.417 90.1749 114.834 90.3112 115.257 90.2856C115.679 90.2599 116.076 90.0743 116.366 89.7665C116.657 89.4587 116.818 89.052 116.818 88.6294C116.818 88.2068 116.657 87.8001 116.366 87.4923C116.076 87.1845 115.679 86.9989 115.257 86.9732C114.834 86.9476 114.417 87.0839 114.092 87.3543C113.767 87.6247 113.557 88.0089 113.506 88.4284H101.632C100.428 88.4298 99.273 88.908 98.4213 89.7581C97.5697 90.6082 97.0906 91.7607 97.0892 92.963V103.367C97.0892 104.46 96.6541 105.508 95.8796 106.282C95.1051 107.055 94.0546 107.489 92.9593 107.489H62.5527C61.4574 107.489 60.4069 107.055 59.6324 106.282C58.8579 105.508 58.4228 104.46 58.4228 103.367V94.1275C58.4228 93.0342 58.8579 91.9857 59.6324 91.2126C60.4069 90.4395 61.4574 90.0052 62.5527 90.0052H74.4262C75.6307 90.0039 76.7854 89.5257 77.6371 88.6756C78.4887 87.8255 78.9678 86.6729 78.9692 85.4707V76.5253C78.9678 75.3231 78.4887 74.1705 77.6371 73.3204C76.7854 72.4703 75.6307 71.9922 74.4262 71.9908H63.7091C62.6137 71.9908 61.5633 71.5565 60.7888 70.7834C60.0143 70.0103 59.5791 68.9618 59.5791 67.8685V59.2168C59.5791 58.1235 60.0143 57.075 60.7888 56.3019C61.5633 55.5288 62.6137 55.0945 63.7091 55.0945H72.6607C73.8651 55.0932 75.0199 54.615 75.8715 53.7649C76.7232 52.9148 77.2023 51.7622 77.2036 50.56V47.4683C77.2036 46.375 77.6387 45.3265 78.4133 44.5534C79.1878 43.7803 80.2382 43.346 81.3336 43.346H95.8709C96.9662 43.346 98.0167 43.7803 98.7912 44.5534C99.5657 45.3265 100.001 46.375 100.001 47.4683V52.8582C99.5805 52.9094 99.1957 53.1187 98.9247 53.4435C98.6538 53.7683 98.5173 54.184 98.5429 54.6059C98.5686 55.0277 98.7546 55.4239 99.063 55.7135C99.3713 56.0031 99.7788 56.1644 100.202 56.1644C100.626 56.1644 101.033 56.0031 101.341 55.7135C101.65 55.4239 101.836 55.0277 101.861 54.6059C101.887 54.184 101.751 53.7683 101.48 53.4435C101.209 53.1187 100.824 52.9094 100.404 52.8582V47.4837C100.402 46.2815 99.9231 45.1289 99.0714 44.2789C98.2197 43.4288 97.065 42.9506 95.8606 42.9492H81.3387C80.1343 42.9506 78.9796 43.4288 78.1279 44.2789C77.2762 45.1289 76.7972 46.2815 76.7958 47.4837V50.5755C76.7958 51.6688 76.3607 52.7173 75.5862 53.4904C74.8117 54.2634 73.7612 54.6978 72.6659 54.6978H63.7091C62.5046 54.6991 61.3499 55.1773 60.4983 56.0274C59.6466 56.8775 59.1675 58.0301 59.1662 59.2323V67.8582C59.1662 69.0608 59.6448 70.2142 60.4967 71.0646C61.3487 71.915 62.5042 72.3927 63.7091 72.3927H74.4262C75.5216 72.3927 76.572 72.827 77.3466 73.6001C78.1211 74.3732 78.5562 75.4217 78.5562 76.515V85.4604C78.5562 86.5537 78.1211 87.6022 77.3466 88.3753C76.572 89.1484 75.5216 89.5827 74.4262 89.5827H62.5527C61.3483 89.584 60.1935 90.0622 59.3419 90.9123C58.4902 91.7624 58.0111 92.915 58.0098 94.1172V103.346C58.0091 103.942 58.1261 104.533 58.354 105.084C58.5819 105.635 58.9164 106.136 59.3382 106.558C59.7601 106.98 60.2611 107.315 60.8126 107.543C61.3641 107.772 61.9554 107.89 62.5527 107.891Z" fill="url(#paint1_linear_2561_17681)" style="mix-blend-mode:color-dodge"/>
<path d="M144.398 79.6637C144.449 80.0832 144.659 80.4674 144.984 80.7378C145.31 81.0083 145.726 81.1446 146.149 81.1189C146.572 81.0933 146.968 80.9076 147.259 80.5999C147.549 80.2921 147.71 79.8854 147.71 79.4628C147.71 79.0401 147.549 78.6334 147.259 78.3257C146.968 78.0179 146.572 77.8322 146.149 77.8066C145.726 77.7809 145.31 77.9173 144.984 78.1877C144.659 78.4581 144.449 78.8423 144.398 79.2618H128.911C127.815 79.2618 126.765 78.8275 125.991 78.0544C125.216 77.2813 124.781 76.2328 124.781 75.1395V34.5091C124.781 33.4158 125.216 32.3673 125.991 31.5942C126.765 30.8212 127.815 30.3868 128.911 30.3868H180.514C181.61 30.3868 182.66 30.8212 183.435 31.5942C184.209 32.3673 184.644 33.4158 184.644 34.5091V44.6964H168.677C167.472 44.6977 166.318 45.1759 165.466 46.026C164.614 46.8761 164.135 48.0287 164.134 49.2309V54.0076C164.135 55.2098 164.614 56.3624 165.466 57.2125C166.318 58.0626 167.472 58.5407 168.677 58.5421H180.514C181.719 58.5407 182.873 58.0626 183.725 57.2125C184.577 56.3624 185.056 55.2098 185.057 54.0076V45.0983H196.982C197.034 45.5178 197.243 45.902 197.569 46.1724C197.894 46.4428 198.311 46.5791 198.733 46.5535C199.156 46.5278 199.553 46.3422 199.843 46.0344C200.133 45.7266 200.295 45.3199 200.295 44.8973C200.295 44.4747 200.133 44.068 199.843 43.7602C199.553 43.4524 199.156 43.2668 198.733 43.2411C198.311 43.2155 197.894 43.3518 197.569 43.6222C197.243 43.8927 197.034 44.2768 196.982 44.6964H185.057V34.5091C185.056 33.3069 184.577 32.1543 183.725 31.3042C182.873 30.4542 181.719 29.976 180.514 29.9746H128.916C127.712 29.976 126.557 30.4542 125.705 31.3042C124.853 32.1543 124.374 33.3069 124.373 34.5091V75.1292C124.374 76.3314 124.853 77.484 125.705 78.3341C126.557 79.1842 127.712 79.6624 128.916 79.6637H144.398ZM184.665 54.0076C184.665 55.1009 184.23 56.1494 183.455 56.9225C182.681 57.6956 181.63 58.1299 180.535 58.1299H168.677C167.582 58.1299 166.531 57.6956 165.757 56.9225C164.982 56.1494 164.547 55.1009 164.547 54.0076V49.2309C164.547 48.1376 164.982 47.0891 165.757 46.316C166.531 45.5429 167.582 45.1086 168.677 45.1086H184.655L184.665 54.0076Z" fill="url(#paint2_linear_2561_17681)" style="mix-blend-mode:color-dodge"/>
<path d="M92.8974 157.329V105.388C92.8974 104.295 93.3326 103.246 94.1071 102.473C94.8816 101.7 95.9321 101.266 97.0274 101.266H118.307C119.402 101.266 120.453 101.7 121.227 102.473C122.002 103.246 122.437 104.295 122.437 105.388V132.662C122.438 133.864 122.917 135.017 123.769 135.867C124.621 136.717 125.775 137.195 126.98 137.197H141.285C142.38 137.197 143.431 137.631 144.205 138.404C144.98 139.177 145.415 140.226 145.415 141.319V148.636C144.994 148.687 144.61 148.897 144.339 149.221C144.068 149.546 143.931 149.962 143.957 150.384C143.982 150.806 144.168 151.202 144.477 151.491C144.785 151.781 145.193 151.942 145.616 151.942C146.039 151.942 146.447 151.781 146.755 151.491C147.064 151.202 147.25 150.806 147.275 150.384C147.301 149.962 147.164 149.546 146.893 149.221C146.623 148.897 146.238 148.687 145.817 148.636V141.319C145.816 140.117 145.337 138.964 144.485 138.114C143.634 137.264 142.479 136.786 141.274 136.784H126.959C125.864 136.784 124.813 136.35 124.039 135.577C123.264 134.804 122.829 133.755 122.829 132.662V105.388C122.828 104.186 122.349 103.033 121.497 102.183C120.645 101.333 119.491 100.855 118.286 100.854H97.0325C95.8281 100.855 94.6734 101.333 93.8217 102.183C92.9701 103.033 92.491 104.186 92.4896 105.388V157.329C92.4896 158.422 92.0545 159.471 91.28 160.244C90.5055 161.017 89.455 161.451 88.3597 161.451H63.2084C62.1131 161.451 61.0626 161.017 60.2881 160.244C59.5136 159.471 59.0785 158.422 59.0785 157.329V141.767C59.4988 141.716 59.8837 141.507 60.1546 141.182C60.4255 140.857 60.5621 140.441 60.5364 140.02C60.5107 139.598 60.3247 139.202 60.0163 138.912C59.708 138.622 59.3006 138.461 58.8771 138.461C58.4537 138.461 58.0463 138.622 57.7379 138.912C57.4296 139.202 57.2436 139.598 57.2179 140.02C57.1922 140.441 57.3288 140.857 57.5997 141.182C57.8706 141.507 58.2555 141.716 58.6758 141.767V157.329C58.6772 158.531 59.1562 159.684 60.0079 160.534C60.8596 161.384 62.0143 161.862 63.2187 161.863H88.3649C89.5675 161.859 90.7196 161.38 91.569 160.53C92.4184 159.68 92.8961 158.529 92.8974 157.329Z" fill="url(#paint3_linear_2561_17681)" style="mix-blend-mode:color-dodge"/>
<path d="M49.7957 108.442C50.2015 108.442 50.5932 108.294 50.8968 108.025C51.2003 107.756 51.3945 107.386 51.4425 106.984H74.5237C75.7281 106.982 76.8828 106.504 77.7345 105.654C78.5862 104.804 79.0652 103.651 79.0666 102.449V86.7071C79.0666 85.6138 79.5017 84.5653 80.2762 83.7922C81.0507 83.0191 82.1012 82.5848 83.1965 82.5848H113.655C114.859 82.5835 116.014 82.1053 116.866 81.2552C117.717 80.4051 118.196 79.2525 118.198 78.0503V73.1654C118.198 72.0721 118.633 71.0236 119.407 70.2505C120.182 69.4774 121.232 69.0431 122.328 69.0431H148.584C149.679 69.0431 150.729 69.4774 151.504 70.2505C152.278 71.0236 152.714 72.0721 152.714 73.1654V91.9888C152.715 93.191 153.194 94.3436 154.046 95.1937C154.897 96.0438 156.052 96.522 157.257 96.5233H184.54C184.591 96.9429 184.801 97.327 185.126 97.5975C185.452 97.8679 185.868 98.0042 186.291 97.9785C186.713 97.9529 187.11 97.7672 187.4 97.4595C187.691 97.1517 187.852 96.745 187.852 96.3224C187.852 95.8998 187.691 95.4931 187.4 95.1853C187.11 94.8775 186.713 94.6918 186.291 94.6662C185.868 94.6406 185.452 94.7769 185.126 95.0473C184.801 95.3177 184.591 95.7019 184.54 96.1214H157.267C156.172 96.1214 155.121 95.6871 154.347 94.914C153.572 94.1409 153.137 93.0924 153.137 91.9991V73.1654C153.136 71.9632 152.656 70.8106 151.805 69.9605C150.953 69.1104 149.798 68.6322 148.594 68.6309H122.328C121.123 68.6322 119.968 69.1104 119.117 69.9605C118.265 70.8106 117.786 71.9632 117.785 73.1654V78.04C117.785 79.1333 117.35 80.1818 116.575 80.9549C115.801 81.728 114.75 82.1623 113.655 82.1623H83.2017C81.9973 82.1637 80.8425 82.6418 79.9909 83.4919C79.1392 84.342 78.6601 85.4946 78.6588 86.6968V102.439C78.6588 103.532 78.2237 104.581 77.4491 105.354C76.6746 106.127 75.6242 106.561 74.5288 106.561H51.4425C51.3999 106.245 51.267 105.948 51.0597 105.706C50.8525 105.463 50.5797 105.286 50.2739 105.194C49.9681 105.102 49.6423 105.1 49.3354 105.188C49.0285 105.276 48.7536 105.451 48.5435 105.691C48.3333 105.931 48.1969 106.226 48.1505 106.541C48.1041 106.857 48.1496 107.179 48.2817 107.469C48.4138 107.759 48.6268 108.005 48.8953 108.178C49.1638 108.35 49.4764 108.442 49.7957 108.442Z" fill="url(#paint4_linear_2561_17681)" style="mix-blend-mode:color-dodge"/>
<path d="M100.238 1.45897C99.0338 1.46033 97.8791 1.93851 97.0274 2.78861C96.1757 3.6387 95.6967 4.79128 95.6953 5.99349V60.9591C95.6967 62.1614 96.1757 63.3139 97.0274 64.164C97.8791 65.0141 99.0338 65.4923 100.238 65.4937H146.184C147.388 65.4923 148.543 65.0141 149.395 64.164C150.246 63.3139 150.725 62.1614 150.727 60.9591V42.3573C150.727 41.264 151.162 40.2155 151.936 39.4424C152.711 38.6693 153.761 38.235 154.857 38.235H174.567C174.618 38.6545 174.828 39.0387 175.153 39.3091C175.478 39.5795 175.895 39.7158 176.318 39.6902C176.74 39.6646 177.137 39.4789 177.427 39.1711C177.717 38.8634 177.879 38.4567 177.879 38.034C177.879 37.6114 177.717 37.2047 177.427 36.8969C177.137 36.5892 176.74 36.4035 176.318 36.3779C175.895 36.3522 175.478 36.4885 175.153 36.759C174.828 37.0294 174.618 37.4136 174.567 37.8331H154.893C153.688 37.8344 152.534 38.3126 151.682 39.1627C150.83 40.0128 150.351 41.1654 150.35 42.3676V60.9694C150.35 62.0627 149.915 63.1113 149.14 63.8844C148.366 64.6574 147.315 65.0917 146.22 65.0917H100.238C99.1429 65.0917 98.0924 64.6574 97.3179 63.8844C96.5434 63.1113 96.1083 62.0627 96.1083 60.9694V5.99349C96.1083 4.90019 96.5434 3.85167 97.3179 3.07859C98.0924 2.30551 99.1429 1.8712 100.238 1.8712H151.176C151.224 2.27376 151.419 2.64448 151.724 2.91253C152.029 3.18058 152.422 3.32717 152.828 3.32431C153.269 3.32431 153.691 3.1495 154.003 2.83833C154.315 2.52717 154.49 2.10514 154.49 1.66508C154.49 1.22503 154.315 0.802999 154.003 0.491834C153.691 0.180669 153.269 0.00585938 152.828 0.00585938C152.423 0.0067947 152.032 0.155641 151.73 0.4243C151.427 0.692959 151.234 1.06284 151.186 1.46412L100.238 1.45897Z" fill="url(#paint5_linear_2561_17681)" style="mix-blend-mode:color-dodge"/>
<path d="M195.83 66.7918C195.426 66.7951 195.038 66.9449 194.736 67.2132C194.435 67.4815 194.242 67.8501 194.193 68.25H150.447C149.352 68.25 148.301 67.8157 147.527 67.0426C146.752 66.2696 146.317 65.221 146.317 64.1277V57.4857C146.316 56.2835 145.837 55.1309 144.985 54.2808C144.133 53.4307 142.979 52.9525 141.774 52.9512H110.361C109.156 52.9512 108.001 53.4289 107.149 54.2793C106.297 55.1297 105.818 56.2831 105.818 57.4857V73.9182C105.818 75.0115 105.383 76.06 104.608 76.8331C103.834 77.6062 102.783 78.0405 101.688 78.0405H63.8322C63.7803 77.6199 63.5696 77.2349 63.2431 76.964C62.9166 76.6932 62.4988 76.5568 62.0751 76.5828C61.6513 76.6087 61.2534 76.7951 60.9626 77.1038C60.6717 77.4124 60.5098 77.8203 60.5098 78.244C60.5098 78.6678 60.6717 79.0756 60.9626 79.3843C61.2534 79.693 61.6513 79.8793 62.0751 79.9053C62.4988 79.9312 62.9166 79.7949 63.2431 79.524C63.5696 79.2531 63.7803 78.8682 63.8322 78.4476H101.678C102.882 78.4462 104.037 77.968 104.889 77.1179C105.74 76.2678 106.219 75.1153 106.221 73.913V57.4857C106.221 56.3924 106.656 55.3439 107.43 54.5708C108.205 53.7977 109.255 53.3634 110.351 53.3634H141.759C142.854 53.3634 143.905 53.7977 144.679 54.5708C145.454 55.3439 145.889 56.3924 145.889 57.4857V64.1277C145.89 65.33 146.369 66.4825 147.221 67.3326C148.072 68.1827 149.227 68.6609 150.432 68.6623H194.193C194.232 68.9799 194.362 69.2795 194.568 69.525C194.773 69.7706 195.045 69.9516 195.352 70.0462C195.658 70.1409 195.985 70.1452 196.294 70.0586C196.602 69.9719 196.879 69.7981 197.091 69.558C197.303 69.318 197.441 69.0218 197.488 68.7054C197.535 68.3889 197.489 68.0656 197.357 67.7744C197.224 67.4831 197.01 67.2364 196.74 67.0639C196.47 66.8914 196.156 66.8005 195.835 66.8021L195.83 66.7918Z" fill="url(#paint6_linear_2561_17681)" style="mix-blend-mode:color-dodge"/>
<path d="M194.302 138.387C193.897 138.387 193.505 138.535 193.201 138.804C192.898 139.072 192.704 139.443 192.656 139.845H180.638C179.433 139.845 178.277 140.323 177.425 141.173C176.573 142.024 176.095 143.177 176.095 144.38V168.408C176.095 169.501 175.659 170.549 174.885 171.322C174.11 172.096 173.06 172.53 171.965 172.53H151.227C150.132 172.53 149.081 172.096 148.307 171.322C147.532 170.549 147.097 169.501 147.097 168.408V161.838C147.096 160.635 146.617 159.483 145.765 158.633C144.914 157.783 143.759 157.304 142.554 157.303H121.45C120.246 157.304 119.091 157.783 118.24 158.633C117.388 159.483 116.909 160.635 116.908 161.838V179.553C116.908 180.646 116.472 181.695 115.698 182.468C114.923 183.241 113.873 183.675 112.778 183.675H86.4493C85.3539 183.675 84.3035 183.241 83.529 182.468C82.7545 181.695 82.3193 180.646 82.3193 179.553V139.32C82.7393 139.268 83.1237 139.058 83.3941 138.733C83.6645 138.408 83.8006 137.993 83.7746 137.571C83.7486 137.149 83.5624 136.754 83.2542 136.464C82.9459 136.175 82.5386 136.014 82.1154 136.014C81.6922 136.014 81.285 136.175 80.9767 136.464C80.6684 136.754 80.4823 137.149 80.4563 137.571C80.4303 137.993 80.5663 138.408 80.8367 138.733C81.1071 139.058 81.4915 139.268 81.9115 139.32V179.553C81.9129 180.755 82.3919 181.908 83.2436 182.758C84.0953 183.608 85.25 184.086 86.4544 184.088H112.783C113.987 184.086 115.142 183.608 115.994 182.758C116.845 181.908 117.324 180.755 117.326 179.553V161.838C117.326 160.744 117.761 159.696 118.535 158.923C119.31 158.15 120.36 157.715 121.456 157.715H142.57C143.665 157.715 144.716 158.15 145.49 158.923C146.265 159.696 146.7 160.744 146.7 161.838V168.408C146.701 169.61 147.18 170.762 148.032 171.612C148.884 172.463 150.038 172.941 151.243 172.942H171.97C173.174 172.941 174.329 172.463 175.181 171.612C176.032 170.762 176.511 169.61 176.513 168.408V144.38C176.513 143.286 176.948 142.238 177.722 141.465C178.497 140.692 179.547 140.257 180.643 140.257H192.645C192.684 140.575 192.814 140.874 193.019 141.12C193.224 141.365 193.496 141.546 193.802 141.641C194.108 141.736 194.435 141.74 194.744 141.654C195.052 141.568 195.329 141.395 195.541 141.155C195.753 140.916 195.891 140.62 195.939 140.304C195.987 139.988 195.942 139.664 195.81 139.373C195.678 139.082 195.465 138.835 195.195 138.661C194.926 138.488 194.612 138.397 194.292 138.397L194.302 138.387Z" fill="url(#paint7_linear_2561_17681)" style="mix-blend-mode:color-dodge"/>
<path d="M223.8 125.931C223.395 125.931 223.003 126.079 222.701 126.348C222.398 126.617 222.205 126.987 222.158 127.389H193.553C192.458 127.389 191.407 126.955 190.633 126.182C189.858 125.409 189.423 124.36 189.423 123.267V119.778C189.422 118.576 188.943 117.423 188.091 116.573C187.239 115.723 186.085 115.245 184.88 115.244H156.89V95.972C156.888 94.7698 156.409 93.6172 155.558 92.7671C154.706 91.917 153.551 91.4389 152.347 91.4375H137.174C135.97 91.4389 134.815 91.917 133.964 92.7671C133.112 93.6172 132.633 94.7698 132.632 95.972V111.116C132.633 112.319 133.112 113.471 133.964 114.321C134.815 115.171 135.97 115.649 137.174 115.651H156.508V157.435C156.508 158.529 156.073 159.577 155.298 160.35C154.524 161.123 153.473 161.558 152.378 161.558H113.35C112.255 161.558 111.204 161.123 110.43 160.35C109.655 159.577 109.22 158.529 109.22 157.435V131.058C109.219 129.856 108.74 128.703 107.888 127.853C107.036 127.003 105.882 126.525 104.677 126.523H61.7103C60.615 126.523 59.5645 126.089 58.79 125.316C58.0155 124.543 57.5804 123.494 57.5804 122.401V105.531C58.0017 105.479 58.3874 105.268 58.6588 104.943C58.9302 104.617 59.0668 104.2 59.0408 103.777C59.0148 103.354 58.8281 102.957 58.5188 102.666C58.2096 102.376 57.801 102.214 57.3764 102.214C56.9519 102.214 56.5433 102.376 56.2341 102.666C55.9248 102.957 55.7381 103.354 55.7121 103.777C55.6861 104.2 55.8227 104.617 56.0941 104.943C56.3655 105.268 56.7512 105.479 57.1725 105.531V122.391C57.1739 123.593 57.653 124.746 58.5046 125.596C59.3563 126.446 60.511 126.924 61.7155 126.925H104.646C105.741 126.925 106.792 127.36 107.566 128.133C108.341 128.906 108.776 129.954 108.776 131.048V157.446C108.777 158.648 109.256 159.801 110.108 160.651C110.96 161.501 112.115 161.979 113.319 161.98H152.347C153.551 161.979 154.706 161.501 155.558 160.651C156.409 159.801 156.888 158.648 156.89 157.446V115.656H184.901C185.996 115.656 187.047 116.09 187.821 116.863C188.596 117.636 189.031 118.685 189.031 119.778V123.236C189.032 124.438 189.511 125.591 190.363 126.441C191.215 127.291 192.369 127.769 193.574 127.77H222.179C222.219 128.086 222.349 128.384 222.554 128.628C222.759 128.872 223.031 129.051 223.335 129.145C223.64 129.239 223.966 129.243 224.273 129.156C224.58 129.07 224.856 128.897 225.066 128.658C225.277 128.419 225.415 128.124 225.462 127.809C225.509 127.494 225.464 127.172 225.333 126.882C225.201 126.592 224.988 126.346 224.72 126.174C224.452 126.001 224.139 125.91 223.82 125.91L223.8 125.931ZM156.508 115.264H137.174C136.079 115.264 135.029 114.83 134.254 114.057C133.48 113.284 133.045 112.235 133.045 111.142V95.9926C133.045 94.8993 133.48 93.8508 134.254 93.0777C135.029 92.3047 136.079 91.8703 137.174 91.8703H152.347C153.442 91.8703 154.493 92.3047 155.267 93.0777C156.042 93.8508 156.477 94.8993 156.477 95.9926L156.508 115.264Z" fill="url(#paint8_linear_2561_17681)" style="mix-blend-mode:color-dodge"/>
<path d="M17.6964 54.6627V31.2583C17.6964 30.0962 18.1585 28.9816 18.9813 28.1594C19.8041 27.3372 20.9202 26.8746 22.0844 26.8732H72.7845C73.9488 26.8746 75.0649 27.3372 75.8876 28.1594C76.7104 28.9816 77.1726 30.0962 77.1726 31.2583V41.7083C77.1712 42.8696 76.7084 43.9828 75.8858 44.8039C75.0632 45.625 73.9479 46.0869 72.7845 46.0883H58.5414C57.4812 46.0897 56.4649 46.511 55.7157 47.2598C54.9665 48.0085 54.5457 49.0235 54.5457 50.0818V66.808C54.5471 67.8653 54.9685 68.879 55.7175 69.6266C56.4666 70.3743 57.4821 70.7949 58.5414 70.7963H104.213C105.273 70.7963 106.29 70.3763 107.04 69.6285C107.791 68.8806 108.213 67.8662 108.214 66.808V30.001C108.216 28.8398 108.678 27.7266 109.501 26.9055C110.324 26.0844 111.439 25.6225 112.602 25.6211H131.873C133.037 25.6225 134.152 26.0844 134.975 26.9055C135.797 27.7266 136.26 28.8398 136.262 30.001V47.9845C136.263 49.0428 136.685 50.0572 137.435 50.805C138.185 51.5528 139.202 51.9729 140.262 51.9729H172.512C172.562 51.5679 172.765 51.1972 173.079 50.9363C173.394 50.6755 173.796 50.5442 174.204 50.5691C174.612 50.5941 174.995 50.7735 175.275 51.0707C175.555 51.368 175.711 51.7606 175.711 52.1687C175.711 52.5767 175.555 52.9694 175.275 53.2666C174.995 53.5638 174.612 53.7432 174.204 53.7682C173.796 53.7932 173.394 53.6619 173.079 53.401C172.765 53.1402 172.562 52.7695 172.512 52.3645H140.262C139.099 52.3631 137.984 51.9012 137.161 51.0801C136.338 50.259 135.876 49.1458 135.874 47.9845V30.001C135.876 29.4757 135.773 28.9553 135.573 28.4696C135.372 27.9839 135.078 27.5425 134.706 27.1706C134.335 26.7986 133.893 26.5036 133.407 26.3022C132.921 26.1009 132.4 25.9973 131.873 25.9973H112.628C111.569 25.9986 110.553 26.4193 109.804 27.1669C109.055 27.9146 108.634 28.9282 108.632 29.9856V66.808C108.631 67.9701 108.167 69.0841 107.344 69.9054C106.52 70.7266 105.403 71.1879 104.239 71.1879H58.5414C57.378 71.1865 56.2627 70.7247 55.4401 69.9036C54.6175 69.0824 54.1547 67.9692 54.1533 66.808V50.0818C54.1533 48.9197 54.6155 47.8051 55.4383 46.9829C56.261 46.1606 57.3771 45.698 58.5414 45.6967H72.7845C73.8447 45.6967 74.8616 45.2766 75.6117 44.5288C76.3619 43.781 76.784 42.7666 76.7854 41.7083V31.2583C76.784 30.1996 76.362 29.1847 75.612 28.436C74.862 27.6874 73.8452 27.2662 72.7845 27.2649H22.0844C21.0238 27.2662 20.0069 27.6874 19.2569 28.436C18.5069 29.1847 18.0849 30.1996 18.0836 31.2583V54.6627C18.491 54.7119 18.8642 54.9145 19.127 55.2291C19.3898 55.5437 19.5224 55.9466 19.4977 56.3555C19.473 56.7644 19.2929 57.1484 18.9941 57.4292C18.6953 57.71 18.3004 57.8664 17.89 57.8664C17.4796 57.8664 17.0847 57.71 16.7859 57.4292C16.4871 57.1484 16.3069 56.7644 16.2822 56.3555C16.2575 55.9466 16.3901 55.5437 16.6529 55.2291C16.9157 54.9145 17.289 54.7119 17.6964 54.6627Z" fill="url(#paint9_linear_2561_17681)" style="mix-blend-mode:color-dodge"/>
<path d="M13.9115 90.7578H43.2908C44.4542 90.7592 45.5695 91.2211 46.3921 92.0422C47.2147 92.8633 47.6775 93.9765 47.6788 95.1378V105.191C47.6802 106.248 48.1016 107.262 48.8507 108.01C49.5997 108.757 50.6152 109.178 51.6745 109.179H63.1248C63.1747 108.774 63.3776 108.404 63.6919 108.143C64.0063 107.882 64.4085 107.751 64.8165 107.776C65.2246 107.801 65.6077 107.98 65.8878 108.277C66.1678 108.574 66.3238 108.967 66.3238 109.375C66.3238 109.783 66.1678 110.176 65.8878 110.473C65.6077 110.77 65.2246 110.95 64.8165 110.975C64.4085 111 64.0063 110.868 63.6919 110.607C63.3776 110.347 63.1747 109.976 63.1248 109.571H51.6745C50.5112 109.57 49.3959 109.108 48.5732 108.287C47.7506 107.465 47.2879 106.352 47.2865 105.191V95.1378C47.2851 94.0804 46.8637 93.0667 46.1147 92.3191C45.3656 91.5714 44.3501 91.1508 43.2908 91.1494H13.9115C13.3852 91.1474 12.8637 91.249 12.3769 91.4485C11.89 91.6479 11.4473 91.9413 11.0743 92.3118C10.7012 92.6823 10.405 93.1226 10.2026 93.6075C10.0003 94.0924 9.89581 94.6125 9.89513 95.1378V104.057C9.8965 105.116 10.3186 106.13 11.0688 106.878C11.8189 107.626 12.8358 108.046 13.896 108.046H25.3824C26.5466 108.046 27.6633 108.507 28.487 109.328C29.3108 110.149 29.7742 111.264 29.7756 112.426V121.062C29.7756 122.225 29.3127 123.34 28.4888 124.163C27.665 124.985 26.5475 125.447 25.3824 125.447H15.0575C13.9969 125.448 12.98 125.869 12.23 126.618C11.48 127.367 11.058 128.382 11.0567 129.44V137.788C11.0594 138.846 11.482 139.86 12.2318 140.607C12.9817 141.355 13.9978 141.775 15.0575 141.776H23.6943C24.8585 141.776 25.9752 142.238 26.7989 143.059C27.6227 143.88 28.0861 144.994 28.0875 146.156V149.119C28.0875 149.644 28.1911 150.164 28.3925 150.649C28.5939 151.133 28.8891 151.574 29.2611 151.945C29.6332 152.316 30.0749 152.61 30.5609 152.81C31.0469 153.011 31.5677 153.113 32.0935 153.113H46.1301C47.1903 153.111 48.2066 152.69 48.9558 151.941C49.705 151.192 50.1258 150.177 50.1258 149.119V143.93C49.7201 143.88 49.3487 143.678 49.0874 143.364C48.826 143.05 48.6945 142.649 48.7195 142.242C48.7445 141.834 48.9242 141.452 49.222 141.172C49.5198 140.893 49.9132 140.737 50.322 140.737C50.7308 140.737 51.1242 140.893 51.422 141.172C51.7197 141.452 51.8995 141.834 51.9245 142.242C51.9495 142.649 51.8179 143.05 51.5566 143.364C51.2953 143.678 50.9239 143.88 50.5182 143.93V149.119C50.5168 150.28 50.0541 151.394 49.2314 152.215C48.4088 153.036 47.2935 153.498 46.1301 153.499H32.0935C30.9301 153.498 29.8148 153.036 28.9922 152.215C28.1696 151.394 27.7068 150.28 27.7055 149.119V146.156C27.7041 145.098 27.2821 144.083 26.5321 143.334C25.7821 142.585 24.7653 142.164 23.7046 142.163H15.0575C13.8942 142.161 12.7789 141.7 11.9562 140.878C11.1336 140.057 10.6709 138.944 10.6695 137.783V129.435C10.6695 128.273 11.1316 127.159 11.9544 126.336C12.7772 125.514 13.8933 125.052 15.0575 125.05H25.3824C26.4426 125.05 27.4594 124.63 28.2096 123.882C28.9598 123.135 29.3819 122.12 29.3832 121.062V112.426C29.3805 111.368 28.9578 110.355 28.2078 109.608C27.4578 108.862 26.4417 108.442 25.3824 108.442H13.9115C12.7481 108.441 11.6328 107.979 10.8102 107.158C9.98755 106.337 9.5248 105.224 9.52344 104.063V95.1378C9.5248 93.9765 9.98755 92.8633 10.8102 92.0422C11.6328 91.2211 12.7481 90.7592 13.9115 90.7578Z" fill="url(#paint10_linear_2561_17681)" style="mix-blend-mode:color-dodge"/>
<path d="M78.0404 118.028C76.877 118.029 75.7617 118.491 74.9391 119.312C74.1165 120.133 73.6537 121.247 73.6523 122.408V161.657C73.6523 162.819 74.1145 163.934 74.9373 164.756C75.76 165.578 76.8761 166.041 78.0404 166.042H127.894C129.059 166.041 130.175 165.578 130.999 164.756C131.822 163.934 132.286 162.82 132.287 161.657V151.815H143.81C143.86 152.22 144.062 152.591 144.377 152.852C144.691 153.113 145.093 153.244 145.501 153.219C145.909 153.194 146.292 153.015 146.573 152.717C146.853 152.42 147.009 152.027 147.009 151.619C147.009 151.211 146.853 150.819 146.573 150.521C146.292 150.224 145.909 150.045 145.501 150.02C145.093 149.995 144.691 150.126 144.377 150.387C144.062 150.648 143.86 151.019 143.81 151.424H132.297V142.818C132.296 141.656 131.833 140.542 131.009 139.721C130.185 138.9 129.068 138.438 127.904 138.438H116.464C115.301 138.44 114.186 138.902 113.363 139.723C112.54 140.544 112.078 141.657 112.076 142.818V147.456C112.078 148.617 112.54 149.73 113.363 150.551C114.186 151.373 115.301 151.834 116.464 151.836H131.905V161.678C131.904 162.736 131.482 163.751 130.732 164.5C129.982 165.249 128.965 165.67 127.904 165.671H78.0404C76.9802 165.67 75.9639 165.249 75.2147 164.5C74.4655 163.751 74.0447 162.736 74.0447 161.678V122.408C74.0461 121.35 74.4675 120.337 75.2165 119.589C75.9656 118.841 76.9811 118.421 78.0404 118.419H93.0114C93.0613 118.824 93.2642 119.195 93.5785 119.456C93.8929 119.717 94.2951 119.848 94.7031 119.823C95.1112 119.798 95.4943 119.619 95.7744 119.322C96.0544 119.024 96.2104 118.632 96.2104 118.224C96.2104 117.816 96.0544 117.423 95.7744 117.126C95.4943 116.828 95.1112 116.649 94.7031 116.624C94.2951 116.599 93.8929 116.73 93.5785 116.991C93.2642 117.252 93.0613 117.623 93.0114 118.028H78.0404ZM131.895 151.424H116.464C115.405 151.422 114.389 151.002 113.64 150.254C112.891 149.506 112.47 148.493 112.469 147.435V142.798C112.47 141.74 112.891 140.727 113.64 139.979C114.389 139.231 115.405 138.811 116.464 138.809H127.904C128.964 138.809 129.981 139.229 130.731 139.977C131.482 140.725 131.904 141.739 131.905 142.798L131.895 151.424Z" fill="url(#paint11_linear_2561_17681)" style="mix-blend-mode:color-dodge"/>
<path d="M43.2499 43.001V93.1848C43.2499 94.2431 43.6707 95.258 44.4199 96.0068C45.1691 96.7556 46.1854 97.1769 47.2456 97.1783H67.7713C68.832 97.1769 69.8488 96.7558 70.5989 96.0071C71.3489 95.2585 71.7708 94.2435 71.7722 93.1848V66.833C71.7736 65.6718 72.2363 64.5586 73.0589 63.7375C73.8816 62.9164 74.9969 62.4545 76.1602 62.4531H89.98C91.0407 62.4517 92.0575 62.0306 92.8076 61.2819C93.5576 60.5333 93.9795 59.5184 93.9809 58.4596V51.3693C93.5735 51.3201 93.2003 51.1174 92.9374 50.8028C92.6746 50.4882 92.542 50.0853 92.5667 49.6765C92.5914 49.2676 92.7716 48.8835 93.0704 48.6027C93.3692 48.3219 93.7641 48.1656 94.1745 48.1656C94.5849 48.1656 94.9798 48.3219 95.2786 48.6027C95.5774 48.8835 95.7575 49.2676 95.7822 49.6765C95.8069 50.0853 95.6743 50.4882 95.4115 50.8028C95.1487 51.1174 94.7755 51.3201 94.3681 51.3693V58.4596C94.3667 59.6209 93.904 60.7341 93.0813 61.5552C92.2587 62.3763 91.1434 62.8382 89.98 62.8396H76.1602C75.0996 62.8409 74.0827 63.2621 73.3327 64.0107C72.5827 64.7594 72.1607 65.7743 72.1594 66.833V93.1745C72.158 94.3357 71.6953 95.449 70.8726 96.2701C70.05 97.0912 68.9347 97.5531 67.7713 97.5545H47.2456C46.0822 97.5531 44.9669 97.0912 44.1442 96.2701C43.3216 95.449 42.8589 94.3357 42.8575 93.1745V43.001C42.8561 41.9437 42.4347 40.93 41.6857 40.1824C40.9366 39.4347 39.9211 39.0141 38.8618 39.0127H14.5417C13.4859 39.0195 12.4757 39.4425 11.7311 40.1896C10.9865 40.9367 10.568 41.9472 10.5666 43.001V58.0268C10.9737 58.0767 11.3464 58.2797 11.6087 58.5944C11.871 58.9092 12.0031 59.312 11.9781 59.7206C11.9531 60.1293 11.7728 60.513 11.4741 60.7935C11.1753 61.074 10.7806 61.2302 10.3704 61.2302C9.96028 61.2302 9.56556 61.074 9.26681 60.7935C8.96807 60.513 8.78779 60.1293 8.76277 59.7206C8.73774 59.312 8.86985 58.9092 9.13215 58.5944C9.39444 58.2797 9.76716 58.0767 10.1743 58.0268V43.001C10.1756 41.8398 10.6384 40.7266 11.461 39.9055C12.2836 39.0844 13.399 38.6225 14.5623 38.6211H38.8618C40.0252 38.6225 41.1405 39.0844 41.9631 39.9055C42.7857 40.7266 43.2485 41.8398 43.2499 43.001Z" fill="url(#paint12_linear_2561_17681)" style="mix-blend-mode:color-dodge"/>
<path d="M1.63606 90.2227C2.02014 90.2334 2.38763 90.3812 2.6718 90.6393C2.95598 90.8974 3.13799 91.2487 3.18479 91.6294H25.4864C26.6507 91.6308 27.7668 92.0934 28.5896 92.9156C29.4123 93.7378 29.8745 94.8524 29.8745 96.0145V111.226C29.8758 112.284 30.298 113.298 31.0481 114.046C31.7983 114.794 32.8151 115.214 33.8753 115.214H63.3011C64.4654 115.215 65.5815 115.678 66.4042 116.5C67.227 117.322 67.6892 118.437 67.6892 119.599V124.309C67.6905 125.367 68.1126 126.382 68.8628 127.129C69.613 127.877 70.6298 128.297 71.69 128.297H97.053C98.1132 128.297 99.13 127.877 99.8802 127.129C100.63 126.382 101.052 125.367 101.054 124.309V106.119C101.055 104.958 101.518 103.845 102.341 103.024C103.163 102.203 104.279 101.741 105.442 101.739H131.77C131.82 101.334 132.023 100.964 132.337 100.703C132.652 100.442 133.054 100.311 133.462 100.336C133.87 100.361 134.253 100.54 134.533 100.837C134.813 101.134 134.969 101.527 134.969 101.935C134.969 102.343 134.813 102.736 134.533 103.033C134.253 103.33 133.87 103.51 133.462 103.535C133.054 103.56 132.652 103.428 132.337 103.167C132.023 102.907 131.82 102.536 131.77 102.131H105.442C104.383 102.132 103.367 102.553 102.618 103.301C101.869 104.048 101.448 105.062 101.446 106.119V124.309C101.445 125.471 100.981 126.585 100.158 127.406C99.3339 128.228 98.2172 128.689 97.053 128.689H71.69C70.5258 128.689 69.4091 128.228 68.5854 127.406C67.7616 126.585 67.2982 125.471 67.2968 124.309V119.599C67.2968 118.541 66.876 117.526 66.1268 116.777C65.3776 116.028 64.3613 115.607 63.3011 115.606H33.8753C32.7165 115.598 31.6077 115.133 30.7907 114.312C29.9736 113.492 29.5144 112.383 29.5131 111.226V96.0145C29.5131 94.9562 29.0923 93.9413 28.3431 93.1925C27.5939 92.4437 26.5776 92.0224 25.5174 92.021H3.18479C3.13914 92.4026 2.95762 92.7551 2.67334 93.0143C2.38905 93.2734 2.02092 93.422 1.63606 93.4329C1.20889 93.4329 0.799206 93.2635 0.497146 92.962C0.195086 92.6605 0.0253906 92.2516 0.0253906 91.8252C0.0267569 91.3997 0.197055 90.9921 0.498967 90.6917C0.800879 90.3913 1.20978 90.2227 1.63606 90.2227Z" fill="url(#paint13_linear_2561_17681)" style="mix-blend-mode:color-dodge"/>
<path d="M50.3529 193.589C49.1895 193.588 48.0742 193.126 47.2516 192.305C46.429 191.484 45.9662 190.371 45.9648 189.209V136.099C45.9662 134.937 46.429 133.824 47.2516 133.003C48.0742 132.182 49.1895 131.72 50.3529 131.719H94.7496C95.9139 131.719 97.0306 132.18 97.8543 133.001C98.678 133.823 99.1415 134.937 99.1429 136.099V154.077C99.1442 155.134 99.5656 156.148 100.315 156.896C101.064 157.643 102.079 158.064 103.139 158.065H122.183C122.233 157.659 122.436 157.287 122.751 157.025C123.067 156.763 123.47 156.631 123.88 156.656C124.289 156.681 124.674 156.861 124.955 157.16C125.236 157.458 125.392 157.852 125.392 158.261C125.392 158.671 125.236 159.065 124.955 159.363C124.674 159.661 124.289 159.841 123.88 159.866C123.47 159.891 123.067 159.759 122.751 159.497C122.436 159.235 122.233 158.863 122.183 158.457H103.149C101.986 158.456 100.87 157.994 100.048 157.173C99.225 156.352 98.7622 155.238 98.7608 154.077V136.099C98.7595 135.04 98.3374 134.026 97.5872 133.278C96.837 132.53 95.8202 132.11 94.76 132.11H50.3632C49.3039 132.112 48.2884 132.532 47.5393 133.28C46.7903 134.028 46.3689 135.041 46.3675 136.099V189.209C46.3689 190.267 46.7903 191.28 47.5393 192.028C48.2884 192.776 49.3039 193.196 50.3632 193.198H99.5662C99.6161 192.791 99.8195 192.419 100.135 192.157C100.45 191.896 100.854 191.764 101.263 191.789C101.673 191.814 102.057 191.994 102.338 192.292C102.619 192.59 102.776 192.984 102.776 193.393C102.776 193.803 102.619 194.197 102.338 194.495C102.057 194.793 101.673 194.973 101.263 194.998C100.854 195.023 100.45 194.891 100.135 194.629C99.8195 194.368 99.6161 193.996 99.5662 193.589H50.3529Z" fill="url(#paint14_linear_2561_17681)" style="mix-blend-mode:color-dodge"/>
<path d="M142.705 130.466C142.314 130.466 141.936 130.323 141.644 130.063C141.352 129.804 141.165 129.447 141.12 129.059H98.855C97.7957 129.06 96.7801 129.481 96.0311 130.229C95.282 130.976 94.8606 131.99 94.8593 133.047V139.457C94.8593 140.62 94.3971 141.734 93.5744 142.556C92.7516 143.379 91.6355 143.841 90.4712 143.843H60.1214C58.9571 143.841 57.841 143.379 57.0182 142.556C56.1955 141.734 55.7333 140.62 55.7333 139.457V123.571C55.732 122.514 55.3105 121.5 54.5615 120.752C53.8125 120.005 52.7969 119.584 51.7376 119.583H15.1722C15.1223 119.989 14.9189 120.361 14.6036 120.623C14.2882 120.885 13.8847 121.017 13.4753 120.992C13.0659 120.967 12.6815 120.787 12.4004 120.489C12.1194 120.19 11.9629 119.796 11.9629 119.387C11.9629 118.978 12.1194 118.584 12.4004 118.285C12.6815 117.987 13.0659 117.807 13.4753 117.782C13.8847 117.757 14.2882 117.889 14.6036 118.151C14.9189 118.413 15.1223 118.785 15.1722 119.191H51.7376C52.901 119.193 54.0163 119.654 54.8389 120.476C55.6616 121.297 56.1243 122.41 56.1257 123.571V139.457C56.1257 140.516 56.5465 141.531 57.2957 142.279C58.0449 143.028 59.0612 143.45 60.1214 143.451H90.4712C91.5314 143.45 92.5477 143.028 93.2969 142.279C94.0461 141.531 94.4669 140.516 94.4669 139.457V133.047C94.4683 131.886 94.931 130.773 95.7537 129.952C96.5763 129.131 97.6916 128.669 98.855 128.667H141.12C141.157 128.361 141.283 128.071 141.482 127.835C141.681 127.598 141.944 127.423 142.239 127.332C142.535 127.241 142.851 127.237 143.149 127.321C143.447 127.405 143.714 127.573 143.919 127.805C144.123 128.037 144.256 128.323 144.301 128.628C144.347 128.934 144.303 129.246 144.174 129.527C144.046 129.809 143.839 130.047 143.578 130.213C143.317 130.38 143.014 130.467 142.705 130.466Z" fill="url(#paint15_linear_2561_17681)" style="mix-blend-mode:color-dodge"/>
<path d="M141.223 61.2948C140.832 61.2939 140.455 61.1503 140.163 60.8912C139.871 60.632 139.685 60.2753 139.638 59.8881H128.023C126.858 59.8867 125.742 59.4241 124.919 58.6019C124.097 57.7797 123.634 56.6651 123.634 55.503V32.2842C123.633 31.226 123.211 30.2115 122.461 29.4637C121.711 28.7159 120.694 28.2959 119.634 28.2959H99.6086C99.0823 28.2938 98.5608 28.3955 98.074 28.5949C97.5871 28.7944 97.1445 29.0878 96.7714 29.4582C96.3983 29.8287 96.1021 30.269 95.8997 30.754C95.6974 31.2389 95.5929 31.7589 95.5922 32.2842V38.6325C95.5909 39.7937 95.1281 40.907 94.3055 41.7281C93.4829 42.5492 92.3675 43.0111 91.2042 43.0125H70.8385C69.6751 43.0111 68.5598 42.5492 67.7372 41.7281C66.9145 40.907 66.4518 39.7937 66.4504 38.6325V21.5199C66.4504 20.4616 66.0296 19.4466 65.2804 18.6979C64.5312 17.9491 63.5149 17.5277 62.4547 17.5264H37.035C35.9743 17.5277 34.9575 17.9489 34.2074 18.6976C33.4574 19.4462 33.0355 20.4611 33.0341 21.5199V60.3931C33.4398 60.4429 33.8112 60.6454 34.0726 60.9592C34.3339 61.273 34.4655 61.6744 34.4404 62.0817C34.4154 62.489 34.2357 62.8714 33.9379 63.151C33.6401 63.4305 33.2467 63.5862 32.8379 63.5862C32.4291 63.5862 32.0357 63.4305 31.738 63.151C31.4402 62.8714 31.2605 62.489 31.2354 62.0817C31.2104 61.6744 31.342 61.273 31.6033 60.9592C31.8646 60.6454 32.236 60.4429 32.6418 60.3931V21.5199C32.6431 20.3573 33.1064 19.2427 33.93 18.4206C34.7536 17.5986 35.8702 17.1361 37.035 17.1348H62.4547C63.6185 17.1375 64.7339 17.6005 65.5563 18.4225C66.3788 19.2444 66.8414 20.3582 66.8428 21.5199V38.6325C66.8428 39.6908 67.2636 40.7058 68.0128 41.4545C68.7619 42.2033 69.7783 42.6246 70.8385 42.626H91.2248C92.285 42.6246 93.3013 42.2033 94.0505 41.4545C94.7997 40.7058 95.2205 39.6908 95.2205 38.6325V32.2842C95.2219 31.123 95.6847 30.0097 96.5073 29.1886C97.3299 28.3675 98.4452 27.9056 99.6086 27.9043H119.634C120.797 27.9056 121.912 28.3675 122.735 29.1886C123.558 30.0097 124.02 31.123 124.022 32.2842V55.503C124.024 56.5608 124.447 57.5745 125.197 58.322C125.947 59.0695 126.963 59.49 128.023 59.4913H139.638C139.676 59.1847 139.802 58.8955 140 58.6586C140.199 58.4217 140.462 58.2471 140.758 58.156C141.054 58.0648 141.369 58.0609 141.667 58.1448C141.965 58.2287 142.232 58.3967 142.437 58.6287C142.641 58.8607 142.774 59.1467 142.82 59.4524C142.865 59.758 142.821 60.0702 142.693 60.3514C142.564 60.6325 142.357 60.8707 142.097 61.0372C141.836 61.2037 141.532 61.2914 141.223 61.2897V61.2948Z" fill="url(#paint16_linear_2561_17681)" style="mix-blend-mode:color-dodge"/>
<path d="M171.335 71.7243C171.329 71.3206 171.17 70.9342 170.891 70.6422C170.612 70.3503 170.232 70.1744 169.828 70.1496C169.425 70.1249 169.027 70.2531 168.713 70.5088C168.4 70.7644 168.196 71.1286 168.14 71.5285H140.505C139.342 71.5298 138.227 71.9917 137.404 72.8128C136.582 73.6339 136.119 74.7472 136.117 75.9084V79.2526C136.116 80.3109 135.694 81.3253 134.944 82.0731C134.194 82.8209 133.177 83.2409 132.117 83.2409H105.081V42.8682C105.08 41.707 104.617 40.5937 103.794 39.7726C102.972 38.9515 101.856 38.4896 100.693 38.4883H63.0073C61.843 38.4883 60.7264 38.9496 59.9026 39.7708C59.0789 40.5921 58.6154 41.7061 58.6141 42.8682V68.3749C58.6147 68.9011 58.5113 69.4222 58.3095 69.9083C58.1078 70.3944 57.8118 70.836 57.4386 71.2075C57.0654 71.5791 56.6223 71.8734 56.1347 72.0735C55.6472 72.2736 55.1248 72.3756 54.5977 72.3735H13.1177C11.9543 72.3749 10.839 72.8368 10.0164 73.6579C9.19377 74.479 8.73102 75.5923 8.72965 76.7535V93.0365C8.32392 93.0864 7.95252 93.2889 7.6912 93.6027C7.42987 93.9164 7.2983 94.3179 7.32333 94.7252C7.34835 95.1324 7.52807 95.5149 7.82585 95.7944C8.12363 96.074 8.51703 96.2296 8.92583 96.2296C9.33462 96.2296 9.72802 96.074 10.0258 95.7944C10.3236 95.5149 10.5033 95.1324 10.5283 94.7252C10.5533 94.3179 10.4218 93.9164 10.1605 93.6027C9.89913 93.2889 9.52773 93.0864 9.122 93.0365V76.7483C9.122 75.6901 9.54281 74.6751 10.292 73.9263C11.0412 73.1776 12.0575 72.7562 13.1177 72.7549H54.5977C55.7611 72.7535 56.8764 72.2916 57.699 71.4705C58.5216 70.6494 58.9844 69.5361 58.9858 68.3749V42.8682C58.9871 41.81 59.4092 40.7955 60.1594 40.0477C60.9096 39.2999 61.9264 38.8799 62.9866 38.8799H100.672C101.732 38.8813 102.747 39.3019 103.496 40.0496C104.245 40.7972 104.667 41.8109 104.668 42.8682V83.2409H86.0316C84.8683 83.2423 83.753 83.7042 82.9303 84.5253C82.1077 85.3464 81.645 86.4597 81.6436 87.6209V102.26C81.645 103.421 82.1077 104.535 82.9303 105.356C83.753 106.177 84.8683 106.639 86.0316 106.64H100.693C101.856 106.639 102.972 106.177 103.794 105.356C104.617 104.535 105.08 103.421 105.081 102.26V83.6326H132.117C133.28 83.6312 134.396 83.1695 135.22 82.3485C136.043 81.5276 136.507 80.4143 136.51 79.2526V75.9084C136.511 74.8511 136.933 73.8374 137.682 73.0898C138.431 72.3421 139.446 71.9215 140.505 71.9201H168.14C168.196 72.32 168.4 72.6841 168.713 72.9398C169.027 73.1954 169.425 73.3237 169.828 73.299C170.232 73.2742 170.612 73.0983 170.891 72.8064C171.17 72.5144 171.329 72.128 171.335 71.7243ZM104.689 102.26C104.687 103.318 104.266 104.331 103.517 105.079C102.768 105.826 101.752 106.247 100.693 106.249H86.0316C84.9723 106.247 83.9568 105.826 83.2078 105.079C82.4587 104.331 82.0373 103.318 82.0359 102.26V87.626C82.0373 86.5687 82.4587 85.555 83.2078 84.8074C83.9568 84.0597 84.9723 83.6391 86.0316 83.6377H104.689V102.26Z" fill="url(#paint17_linear_2561_17681)" style="mix-blend-mode:color-dodge"/>
</g>
<defs>
<linearGradient id="paint0_linear_2561_17681" x1="64.9837" y1="151.727" x2="229.985" y2="151.727" gradientUnits="userSpaceOnUse">
<stop offset="0.56" stop-color="white"/>
<stop offset="1" stop-color="white" stop-opacity="0"/>
</linearGradient>
<linearGradient id="paint1_linear_2561_17681" x1="57.9891" y1="75.4174" x2="116.774" y2="75.4174" gradientUnits="userSpaceOnUse">
<stop offset="0.56" stop-color="white"/>
<stop offset="1" stop-color="white" stop-opacity="0"/>
</linearGradient>
<linearGradient id="paint2_linear_2561_17681" x1="124.373" y1="55.5483" x2="200.292" y2="55.5483" gradientUnits="userSpaceOnUse">
<stop offset="0.56" stop-color="white"/>
<stop offset="1" stop-color="white" stop-opacity="0"/>
</linearGradient>
<linearGradient id="paint3_linear_2561_17681" x1="57.2045" y1="131.358" x2="147.268" y2="131.358" gradientUnits="userSpaceOnUse">
<stop offset="0.56" stop-color="white"/>
<stop offset="1" stop-color="white" stop-opacity="0"/>
</linearGradient>
<linearGradient id="paint4_linear_2561_17681" x1="48.1334" y1="88.5364" x2="187.844" y2="88.5364" gradientUnits="userSpaceOnUse">
<stop offset="0.56" stop-color="white"/>
<stop offset="1" stop-color="white" stop-opacity="0"/>
</linearGradient>
<linearGradient id="paint5_linear_2561_17681" x1="95.7056" y1="32.7472" x2="177.912" y2="32.7472" gradientUnits="userSpaceOnUse">
<stop offset="0.56" stop-color="white"/>
<stop offset="1" stop-color="white" stop-opacity="0"/>
</linearGradient>
<linearGradient id="paint6_linear_2561_17681" x1="60.5282" y1="66.4362" x2="197.497" y2="66.4362" gradientUnits="userSpaceOnUse">
<stop offset="0.56" stop-color="white"/>
<stop offset="1" stop-color="white" stop-opacity="0"/>
</linearGradient>
<linearGradient id="paint7_linear_2561_17681" x1="80.4609" y1="160.055" x2="195.965" y2="160.055" gradientUnits="userSpaceOnUse">
<stop offset="0.56" stop-color="white"/>
<stop offset="1" stop-color="white" stop-opacity="0"/>
</linearGradient>
<linearGradient id="paint8_linear_2561_17681" x1="55.7064" y1="126.724" x2="225.462" y2="126.724" gradientUnits="userSpaceOnUse">
<stop offset="0.56" stop-color="white"/>
<stop offset="1" stop-color="white" stop-opacity="0"/>
</linearGradient>
<linearGradient id="paint9_linear_2561_17681" x1="16.2819" y1="48.4071" x2="175.702" y2="48.4071" gradientUnits="userSpaceOnUse">
<stop offset="0.56" stop-color="white"/>
<stop offset="1" stop-color="#FEFEFE" stop-opacity="0"/>
</linearGradient>
<linearGradient id="paint10_linear_2561_17681" x1="9.52344" y1="122.128" x2="66.3152" y2="122.128" gradientUnits="userSpaceOnUse">
<stop offset="0.56" stop-color="white"/>
<stop offset="1" stop-color="white" stop-opacity="0"/>
</linearGradient>
<linearGradient id="paint11_linear_2561_17681" x1="73.6627" y1="141.329" x2="147.01" y2="141.329" gradientUnits="userSpaceOnUse">
<stop offset="0.56" stop-color="white"/>
<stop offset="1" stop-color="white" stop-opacity="0"/>
</linearGradient>
<linearGradient id="paint12_linear_2561_17681" x1="8.75977" y1="68.0852" x2="95.7826" y2="68.0852" gradientUnits="userSpaceOnUse">
<stop offset="0.56" stop-color="white"/>
<stop offset="1" stop-color="white" stop-opacity="0"/>
</linearGradient>
<linearGradient id="paint13_linear_2561_17681" x1="-0.000421445" y1="109.458" x2="134.986" y2="109.458" gradientUnits="userSpaceOnUse">
<stop offset="0.56" stop-color="white"/>
<stop offset="1" stop-color="white" stop-opacity="0"/>
</linearGradient>
<linearGradient id="paint14_linear_2561_17681" x1="45.9648" y1="163.363" x2="125.389" y2="163.363" gradientUnits="userSpaceOnUse">
<stop offset="0.56" stop-color="white"/>
<stop offset="1" stop-color="white" stop-opacity="0"/>
</linearGradient>
<linearGradient id="paint15_linear_2561_17681" x1="11.9767" y1="130.811" x2="144.315" y2="130.811" gradientUnits="userSpaceOnUse">
<stop offset="0.56" stop-color="white"/>
<stop offset="1" stop-color="white" stop-opacity="0"/>
</linearGradient>
<linearGradient id="paint16_linear_2561_17681" x1="31.2324" y1="40.3587" x2="142.833" y2="40.3587" gradientUnits="userSpaceOnUse">
<stop offset="0.56" stop-color="white"/>
<stop offset="1" stop-color="white" stop-opacity="0"/>
</linearGradient>
<linearGradient id="paint17_linear_2561_17681" x1="7.32031" y1="72.5642" x2="171.335" y2="72.5642" gradientUnits="userSpaceOnUse">
<stop offset="0.56" stop-color="white"/>
<stop offset="1" stop-color="white" stop-opacity="0"/>
</linearGradient>
<clipPath id="clip0_2561_17681">
<rect width="332" height="195" fill="white"/>
</clipPath>
</defs>
</svg>
