<svg width="203" height="151" viewBox="0 0 203 151" fill="none" xmlns="http://www.w3.org/2000/svg">
<path d="M71.35 26.5272C68.207 26.5272 65.685 29.1222 65.685 32.2682C65.685 35.4542 68.245 38.0102 71.35 38.0102C74.494 38.0102 77.016 35.4142 77.016 32.2682C77.016 29.1222 74.494 26.5272 71.35 26.5272ZM71.777 33.7632L70.497 35.0602L69.216 33.7632L67.974 32.5042L69.254 31.2062L70.497 32.4652L73.446 29.4762L74.726 30.7742L71.777 33.7632ZM82.682 30.6562C82.178 30.1842 81.984 29.4362 82.255 28.8082L82.488 28.2182C82.876 27.3132 82.372 26.2912 81.44 26.0162L80.82 25.8582C80.495 25.7606 80.2083 25.5644 79.9996 25.2967C79.7909 25.0291 79.6705 24.7032 79.655 24.3642V23.6952C79.616 22.7122 78.724 22.0052 77.792 22.1622L77.172 22.2802C76.472 22.3982 75.813 22.0832 75.502 21.4542L75.192 20.9042C75.0863 20.7038 74.9389 20.5283 74.7597 20.3895C74.5805 20.2508 74.3737 20.152 74.1532 20.0998C73.9327 20.0476 73.7035 20.0432 73.4811 20.0869C73.2588 20.1306 73.0484 20.2214 72.864 20.3532L72.359 20.7072C72.0864 20.899 71.7613 21.0019 71.428 21.0019C71.0947 21.0019 70.7696 20.899 70.497 20.7072L69.992 20.3142C69.216 19.7242 68.091 19.9992 67.625 20.8642L67.315 21.4142C66.965 22.0442 66.305 22.3582 65.607 22.2402L64.986 22.1222C64.016 21.9652 63.162 22.6732 63.084 23.6562L63.046 24.2862C63.0305 24.6252 62.9101 24.9511 62.7014 25.2187C62.4927 25.4864 62.206 25.6826 61.881 25.7802L61.261 25.9762C60.329 26.2522 59.825 27.2742 60.213 28.1782L60.446 28.7682C60.717 29.3982 60.523 30.1452 60.019 30.6172L59.553 31.0492C58.816 31.6792 58.816 32.8592 59.553 33.4872L60.019 33.9202C60.523 34.3922 60.717 35.1392 60.446 35.7682L60.213 36.3582C59.825 37.2622 60.329 38.2852 61.261 38.5602L61.881 38.7172C62.541 38.9142 63.007 39.5042 63.046 40.2122L63.084 40.8412C63.124 41.8242 64.016 42.5322 64.947 42.3752L65.568 42.2572C66.267 42.1392 66.926 42.4532 67.237 43.0822L67.547 43.6332C67.6528 43.8337 67.8003 44.0093 67.9796 44.148C68.1589 44.2867 68.3658 44.3855 68.5865 44.4376C68.8071 44.4897 69.0364 44.494 69.2588 44.4501C69.4812 44.4062 69.6917 44.3152 69.876 44.1832L70.38 43.8302C70.6527 43.6382 70.978 43.5352 71.3115 43.5352C71.645 43.5352 71.9703 43.6382 72.243 43.8302L72.747 44.2232C73.524 44.8132 74.649 44.5382 75.115 43.6732L75.425 43.1222C75.5854 42.8213 75.8373 42.5792 76.1443 42.4307C76.4513 42.2822 76.7975 42.2351 77.133 42.2962L77.753 42.4142C78.723 42.5712 79.578 41.8642 79.655 40.8802L79.694 40.2512C79.7094 39.9123 79.8297 39.5866 80.0382 39.3189C80.2467 39.0513 80.5331 38.855 80.858 38.7572L81.479 38.5992C82.41 38.3242 82.915 37.3022 82.527 36.3972L82.294 35.8072C82.022 35.1782 82.216 34.4312 82.721 33.9592L83.187 33.5272C83.924 32.8972 83.924 31.7172 83.187 31.0882L82.682 30.6562ZM71.35 40.2502C67.004 40.2502 63.511 36.6722 63.511 32.3072C63.511 27.9022 67.043 24.3632 71.351 24.3632C75.697 24.3632 79.189 27.9422 79.189 32.3072C79.189 36.6722 75.697 40.2502 71.35 40.2502ZM59.165 54.0932L62.968 44.4592C63.4894 44.7092 64.0588 44.8432 64.637 44.8522C64.87 44.8522 65.102 44.8122 65.335 44.7732H65.413L65.452 44.8532C66.112 46.1102 67.47 46.8972 68.944 46.8972C69.332 46.8972 69.759 46.8182 70.109 46.7002L66.11 56.8852C66.0859 56.9564 66.0411 57.0187 65.9813 57.0642C65.9215 57.1097 65.8495 57.1364 65.7745 57.1407C65.6995 57.145 65.6249 57.1267 65.5603 57.0884C65.4957 57.05 65.4441 56.9932 65.412 56.9252L63.51 53.5432C63.433 53.4252 63.316 53.3862 63.2 53.4252L59.63 54.5652C59.5643 54.5909 59.4924 54.5968 59.4234 54.5821C59.3544 54.5675 59.2912 54.5329 59.2416 54.4827C59.192 54.4324 59.1582 54.3688 59.1444 54.2996C59.1306 54.2303 59.1374 54.1586 59.164 54.0932H59.165ZM76.589 57.0032L72.553 46.7802C72.941 46.8982 73.33 46.9772 73.718 46.9772C74.4349 46.9812 75.1392 46.7891 75.7547 46.4216C76.3702 46.0541 76.8735 45.5252 77.21 44.8922L77.25 44.8142H77.327C77.56 44.8542 77.792 44.8922 78.025 44.8922C78.646 44.8922 79.189 44.7352 79.733 44.4992L83.536 54.2122C83.652 54.5272 83.381 54.8422 83.07 54.7242L79.5 53.5842C79.383 53.5442 79.267 53.5842 79.19 53.7012L77.288 57.0832C77.133 57.3192 76.706 57.2802 76.589 57.0042V57.0032Z" fill="#1179EF"/>
<path d="M29.7005 40.4986C34.9464 40.4071 39.1209 35.8564 39.0245 30.3344C38.9282 24.8124 34.5974 20.4101 29.3515 20.5017C24.1056 20.5933 19.931 25.144 20.0274 30.666C20.1238 36.188 24.4546 40.5902 29.7005 40.4986Z" fill="white"/>
<path d="M29.3861 24.9812C26.9971 24.9812 25.0801 26.9612 25.0801 29.3632C25.0801 31.7932 27.0271 33.7442 29.3861 33.7442C31.7761 33.7442 33.6921 31.7642 33.6921 29.3632C33.6921 26.9622 31.7751 24.9812 29.3861 24.9812ZM29.7111 30.5032L28.7371 31.4932L27.7641 30.5032L26.8201 29.5432L27.7941 28.5532L28.7371 29.5132L30.9791 27.2322L31.9521 28.2222L29.7111 30.5032ZM37.9981 28.1332C37.6151 27.7722 37.4681 27.2022 37.6741 26.7222L37.8511 26.2722C37.9197 26.1104 37.9533 25.936 37.9497 25.7604C37.9461 25.5848 37.9053 25.4119 37.8302 25.2531C37.755 25.0943 37.647 24.9533 37.5135 24.8392C37.3799 24.7251 37.2236 24.6406 37.0551 24.5912L36.5831 24.4712C36.3358 24.396 36.1179 24.246 35.9594 24.0418C35.8009 23.8376 35.7096 23.5894 35.6981 23.3312V22.8212C35.6924 22.6475 35.6499 22.4771 35.5733 22.3211C35.4968 22.1651 35.3879 22.0272 35.254 21.9165C35.1201 21.8057 34.9642 21.7247 34.7967 21.6788C34.6291 21.6329 34.4537 21.6232 34.2821 21.6502L33.8101 21.7402C33.2801 21.8302 32.7781 21.5902 32.5421 21.1102L32.3061 20.6902C32.2261 20.5374 32.1142 20.4036 31.978 20.2978C31.8419 20.1919 31.6846 20.1166 31.5168 20.0768C31.349 20.0369 31.1746 20.0336 31.0054 20.067C30.8362 20.1003 30.6762 20.1696 30.5361 20.2702L30.1531 20.5402C29.7401 20.8402 29.1501 20.8402 28.7371 20.5402L28.3541 20.2402C27.7641 19.7902 26.9091 20.0002 26.5541 20.6602L26.3191 21.0802C26.0541 21.5602 25.5521 21.8002 25.0211 21.7102L24.5491 21.6202C23.8121 21.5002 23.1631 22.0402 23.1041 22.7902L23.0741 23.2702C23.0451 23.8102 22.6911 24.2602 22.1901 24.4102L21.7181 24.5602C21.0101 24.7702 20.6271 25.5512 20.9221 26.2412L21.0991 26.6912C21.3051 27.1712 21.1581 27.7422 20.7741 28.1022L20.4201 28.4322C20.2881 28.5485 20.1824 28.6916 20.1101 28.852C20.0377 29.0123 20.0002 29.1862 20.0002 29.3622C20.0002 29.5381 20.0377 29.712 20.1101 29.8724C20.1824 30.0327 20.2881 30.1758 20.4201 30.2922L20.7741 30.6232C21.1581 30.9832 21.3051 31.5532 21.0991 32.0332L20.9221 32.4832C20.6271 33.1742 21.0101 33.9542 21.7181 34.1642L22.1901 34.2842C22.6911 34.4342 23.0451 34.8842 23.0751 35.4242L23.1051 35.9052C23.1341 36.6552 23.8121 37.1952 24.5201 37.0752L24.9921 36.9852C25.5221 36.8952 26.0241 37.1352 26.2601 37.6152L26.4961 38.0352C26.8501 38.6962 27.6761 38.8762 28.2661 38.4552L28.6491 38.1852C29.0621 37.8852 29.6521 37.8852 30.0651 38.1852L30.4481 38.4852C31.0381 38.9362 31.8931 38.7262 32.2481 38.0652L32.4831 37.6452C32.7491 37.1652 33.2501 36.9252 33.7811 37.0152L34.2531 37.1052C34.9901 37.2252 35.6391 36.6852 35.6981 35.9352L35.7281 35.4552C35.7571 34.9152 36.1111 34.4652 36.6121 34.3152L37.0841 34.1952C37.7921 33.9852 38.1751 33.2042 37.8801 32.5142L37.7031 32.0642C37.4971 31.5842 37.6441 31.0142 38.0281 30.6542L38.3821 30.3232C38.9421 29.8432 38.9421 28.9432 38.3821 28.4632L37.9981 28.1332ZM29.3861 35.4552C26.0831 35.4552 23.4291 32.7242 23.4291 29.3932C23.4291 26.0312 26.1131 23.3302 29.3861 23.3302C32.6901 23.3302 35.3441 26.0612 35.3441 29.3932C35.3441 32.7232 32.6901 35.4552 29.3861 35.4552ZM20.1261 46.0192L23.0161 38.6662C23.3991 38.8462 23.8421 38.9662 24.2841 38.9662C24.4611 38.9662 24.6381 38.9362 24.8141 38.9062H24.8741L24.9041 38.9662C25.4041 39.9262 26.4371 40.5262 27.5581 40.5262C27.8531 40.5262 28.1781 40.4662 28.4431 40.3762L25.4051 48.1492C25.387 48.2036 25.353 48.2513 25.3075 48.2862C25.2619 48.321 25.207 48.3414 25.1498 48.3446C25.0925 48.3479 25.0356 48.3338 24.9865 48.3043C24.9373 48.2748 24.8981 48.2312 24.8741 48.1792L23.4291 45.5992C23.3691 45.5092 23.2811 45.4792 23.1931 45.5092L20.4791 46.3792C20.2431 46.4692 20.0371 46.2292 20.1251 46.0192H20.1261ZM33.3681 48.2392L30.3001 40.4372C30.5951 40.5272 30.8901 40.5872 31.1841 40.5872C32.3051 40.5872 33.3081 39.9872 33.8391 38.9972L33.8691 38.9372H33.9271C34.1041 38.9672 34.2811 38.9972 34.4581 38.9972C34.9301 38.9972 35.3431 38.8762 35.7561 38.6962L38.6461 46.1092C38.7351 46.3492 38.5281 46.5892 38.2921 46.4992L35.5791 45.6292C35.4901 45.5992 35.4021 45.6292 35.3431 45.7192L33.8981 48.2992C33.7801 48.4792 33.4551 48.4492 33.3671 48.2392H33.3681Z" fill="#1179EF"/>
<path fill-rule="evenodd" clip-rule="evenodd" d="M106.25 31.034L110.216 33.226L109.458 28.583L112.667 25.294L108.233 24.617L106.25 20.392L104.267 24.617L99.833 25.294L103.042 28.583L102.284 33.226L106.25 31.034ZM122.583 31.034L126.549 33.226L125.792 28.583L129 25.294L124.566 24.617L122.583 20.392L120.6 24.617L116.167 25.294L119.375 28.583L118.618 33.226L122.583 31.034ZM138.917 30.641L142.882 32.833L142.125 28.19L145.333 24.902L140.9 24.224L138.917 20L136.934 24.224L132.5 24.902L135.708 28.19L134.951 32.833L138.917 30.641ZM155.25 30.641L159.216 32.833L158.458 28.19L161.667 24.902L157.233 24.224L155.25 20L153.267 24.224L148.833 24.902L152.042 28.19L151.284 32.833L155.25 30.641ZM171.583 30.641L175.549 32.833L174.792 28.19L178 24.902L173.566 24.224L171.583 20L169.6 24.224L165.167 24.902L168.375 28.19L167.618 32.833L171.583 30.641Z" fill="#D2D6DE"/>
<path fill-rule="evenodd" clip-rule="evenodd" d="M106.25 55.034L110.216 57.226L109.458 52.583L112.667 49.294L108.233 48.617L106.25 44.392L104.267 48.617L99.833 49.294L103.042 52.583L102.284 57.226L106.25 55.034ZM122.583 55.034L126.549 57.226L125.792 52.583L129 49.294L124.566 48.617L122.583 44.392L120.6 48.617L116.167 49.294L119.375 52.583L118.618 57.226L122.583 55.034ZM138.917 54.641L142.882 56.833L142.125 52.19L145.333 48.902L140.9 48.224L138.917 44L136.934 48.224L132.5 48.902L135.708 52.19L134.951 56.833L138.917 54.641ZM155.25 54.641L159.216 56.833L158.458 52.19L161.667 48.902L157.233 48.224L155.25 44L153.267 48.224L148.833 48.902L152.042 52.19L151.284 56.833L155.25 54.641ZM171.583 54.641L175.549 56.833L174.792 52.19L178 48.902L173.566 48.224L171.583 44L169.6 48.224L165.167 48.902L168.375 52.19L167.618 56.833L171.583 54.641Z" fill="#F1B006"/>
<path d="M23.4041 111.194C23.4041 111.194 23.5951 110.94 23.8171 110.559C23.9131 110.369 24.0401 110.146 24.1351 109.892C24.2301 109.638 24.3251 109.352 24.3571 109.066C24.3891 108.907 24.3891 108.78 24.3891 108.653V108.24C24.3571 107.986 24.3261 107.732 24.2621 107.541C24.1991 107.351 24.1671 107.16 24.1351 107.033C24.1031 106.906 24.0711 106.843 24.0711 106.843C24.0711 106.843 23.8171 107.033 23.5631 107.383C23.5311 107.414 23.5001 107.478 23.4681 107.509C23.4361 107.573 23.4041 107.605 23.3731 107.669C23.3031 107.782 23.2397 107.898 23.1831 108.018C23.0551 108.272 22.9601 108.558 22.9281 108.875L23.4041 111.195V111.194ZM23.1501 111.258C23.1501 111.258 22.7371 111.098 22.1661 110.718C22.0391 110.622 21.8801 110.528 21.7211 110.4C21.5649 110.271 21.4163 110.133 21.2761 109.987C21.1214 109.832 20.983 109.662 20.8631 109.479L20.6731 109.193C20.6072 109.094 20.5534 108.987 20.5131 108.875C20.0691 107.985 19.9731 107.033 20.0061 106.302C20.0371 105.572 20.1641 105.095 20.1641 105.095C20.1641 105.095 20.5461 105.381 21.0221 105.858C21.2761 106.112 21.4991 106.398 21.7841 106.715C21.9111 106.875 22.0391 107.065 22.1661 107.255C22.2931 107.445 22.3881 107.636 22.4831 107.859L23.1501 111.258ZM25.6601 116.944C25.6601 116.944 25.6911 116.88 25.7231 116.753C25.7871 116.626 25.8501 116.435 25.8831 116.245C25.9461 116.022 26.0091 115.768 26.0091 115.515C26.0091 115.451 26.0091 115.387 26.0411 115.324V114.656C25.9771 114.085 25.7871 113.545 25.5641 113.196C25.5306 113.161 25.5086 113.116 25.5011 113.068C25.4691 113.036 25.4691 112.973 25.4371 112.941C25.4061 112.878 25.3421 112.814 25.3101 112.751C25.2471 112.655 25.1831 112.591 25.1831 112.591C25.1831 112.591 24.9931 112.846 24.8331 113.259C24.7391 113.449 24.6751 113.704 24.6111 113.989C24.5801 114.116 24.5801 114.275 24.5481 114.402V114.847L25.6601 116.944ZM25.4371 117.07H25.3421C25.2791 117.07 25.2151 117.039 25.1201 117.039C24.8482 116.993 24.5821 116.918 24.3261 116.816C23.5241 116.527 22.8044 116.048 22.2291 115.419C22.0734 115.23 21.9352 115.028 21.8161 114.815C21.7531 114.72 21.6891 114.625 21.6261 114.498C21.5621 114.402 21.5301 114.275 21.4661 114.18C21.3711 113.99 21.3081 113.767 21.2441 113.576C21.1768 113.39 21.1239 113.199 21.0861 113.005C21.0221 112.655 20.9591 112.338 20.9591 112.147C20.9591 112.052 20.9591 111.957 20.9271 111.893V111.798C20.9271 111.798 20.9591 111.798 20.9901 111.829C21.0541 111.861 21.1171 111.893 21.2131 111.925C21.4031 112.02 21.6571 112.147 21.9431 112.338C22.2291 112.528 22.5471 112.751 22.8961 113.005C23.0551 113.132 23.2141 113.291 23.3731 113.418C23.4361 113.481 23.5311 113.576 23.5951 113.672C23.6591 113.767 23.7541 113.831 23.8171 113.926L25.4371 117.071V117.07ZM29.3131 121.93C29.3131 121.93 29.3131 121.867 29.3441 121.708C29.3441 121.581 29.3761 121.391 29.3761 121.168C29.3761 120.946 29.3761 120.692 29.3441 120.406C29.3131 120.279 29.3131 120.12 29.2811 119.993C29.2491 119.866 29.2171 119.707 29.1541 119.58C29.0591 119.294 28.9001 119.072 28.7731 118.85C28.6507 118.64 28.5011 118.448 28.3281 118.278C28.2108 118.151 28.0833 118.034 27.9471 117.928C27.9002 117.878 27.8463 117.835 27.7871 117.801C27.7871 117.801 27.7571 117.865 27.7241 117.991C27.6931 118.119 27.6291 118.309 27.5971 118.531C27.5661 118.754 27.5661 119.008 27.5661 119.294C27.5661 119.421 27.5971 119.58 27.6291 119.739C27.6611 119.898 27.6931 120.025 27.7561 120.184L29.3131 121.931V121.93ZM29.1221 122.121C29.1221 122.121 28.9951 122.153 28.8041 122.153H28.4551C28.3281 122.153 28.1691 122.153 28.0101 122.121C27.6227 122.084 27.2399 122.01 26.8671 121.899C26.4541 121.772 26.0411 121.549 25.6271 121.295C25.2151 121.009 24.8971 120.66 24.5801 120.311C24.3202 119.987 24.0965 119.635 23.9131 119.262C23.7531 118.945 23.6591 118.659 23.5631 118.436C23.5277 118.331 23.4961 118.226 23.4681 118.119C23.4681 118.119 23.9441 118.182 24.5801 118.373C24.7391 118.436 24.8971 118.468 25.0881 118.563C25.2781 118.627 25.4691 118.691 25.6601 118.786L26.2311 119.072C26.4221 119.167 26.6131 119.294 26.8031 119.422L29.1231 122.122L29.1221 122.121ZM34.0771 125.87C34.0771 125.87 34.0461 125.552 33.9501 125.139C33.8871 124.916 33.8231 124.662 33.7281 124.409C33.6281 124.136 33.4889 123.879 33.3151 123.646C33.1561 123.392 32.9651 123.201 32.7751 123.011C32.7111 122.979 32.6801 122.915 32.6161 122.884C32.5531 122.852 32.5211 122.788 32.4891 122.756L32.2031 122.566C32.0131 122.439 31.8531 122.376 31.7591 122.312L31.5681 122.216V122.439C31.5681 122.566 31.5681 122.756 31.6001 122.979C31.6311 123.201 31.6631 123.455 31.7591 123.709C31.7901 123.836 31.8541 123.964 31.9171 124.122C31.9811 124.249 32.0441 124.376 32.1401 124.504L34.0771 125.869V125.87ZM33.9501 126.124L33.6641 126.219C33.4741 126.282 33.1881 126.346 32.8701 126.409C32.5531 126.473 32.1401 126.473 31.7271 126.473C31.6311 126.473 31.5041 126.473 31.4091 126.441C31.3141 126.441 31.1871 126.409 31.0591 126.378C30.8275 126.311 30.5948 126.247 30.3611 126.188C30.2341 126.155 30.1391 126.092 30.0111 126.06C29.9161 125.996 29.7891 125.965 29.6941 125.901C29.5041 125.774 29.2811 125.647 29.1221 125.52C28.9321 125.393 28.7721 125.234 28.6141 125.107C28.4551 124.98 28.3281 124.821 28.2011 124.694C27.9471 124.44 27.7881 124.186 27.6611 123.995L27.4711 123.709C27.4711 123.709 27.9471 123.646 28.6141 123.678C28.9641 123.678 29.3441 123.709 29.7571 123.805C30.1701 123.868 30.6151 123.964 31.0271 124.155L33.9501 126.124ZM39.6361 128.506C39.6361 128.506 39.5411 128.188 39.3191 127.807C39.0961 127.426 38.8101 126.917 38.3341 126.537C38.2071 126.441 38.1111 126.346 37.9841 126.282C37.8571 126.219 37.7621 126.124 37.6351 126.06C37.5081 125.996 37.4131 125.965 37.2851 125.901C37.1591 125.869 37.0631 125.806 36.9681 125.774C36.5871 125.647 36.2691 125.584 36.2691 125.584C36.2691 125.584 36.3011 125.901 36.4591 126.314C36.5231 126.504 36.6501 126.759 36.7771 126.981C36.9371 127.204 37.1271 127.458 37.3491 127.648L39.6361 128.506ZM39.5731 128.76C39.5731 128.76 39.2231 129.046 38.5881 129.332C38.5054 129.369 38.4206 129.401 38.3341 129.427C38.2391 129.459 38.1751 129.491 38.0801 129.522C37.8901 129.586 37.6991 129.618 37.4761 129.682C37.2541 129.712 37.0311 129.745 36.8091 129.776C36.5871 129.776 36.3331 129.776 36.0791 129.745C35.833 129.718 35.5888 129.676 35.3481 129.618C35.1261 129.554 34.9031 129.458 34.6811 129.395C34.4842 129.312 34.2931 129.217 34.1091 129.109C33.9191 129.014 33.7591 128.887 33.6011 128.792C33.3523 128.633 33.1183 128.453 32.9021 128.252L32.6481 127.998C32.6481 127.998 32.7751 127.966 32.9661 127.902C33.1561 127.839 33.4421 127.775 33.7601 127.712C34.1101 127.648 34.4901 127.585 34.9031 127.552C35.3161 127.522 35.7611 127.489 36.2371 127.552L39.5731 128.76ZM39.8901 81.3669C39.8901 81.3669 39.9541 81.3989 40.0801 81.4939C40.1441 81.5259 40.2081 81.5579 40.3031 81.6209C40.3991 81.6529 40.4631 81.7159 40.5891 81.7799C40.7791 81.8749 41.0341 81.9699 41.2881 82.0659C41.4151 82.0979 41.5421 82.1289 41.7011 82.1609C41.8281 82.1929 41.9871 82.2249 42.1461 82.2249C42.4311 82.2559 42.7171 82.2249 42.9711 82.1929C43.2261 82.1609 43.4801 82.0979 43.6711 82.0339C43.8611 81.9709 44.0201 81.9069 44.1471 81.8439L44.3371 81.7479L44.1791 81.5889C44.0537 81.4682 43.9151 81.3618 43.7661 81.2719C43.5579 81.1301 43.3341 81.0126 43.0991 80.9219C42.9679 80.8608 42.8289 80.8181 42.6861 80.7949C42.5261 80.7639 42.4001 80.7319 42.2411 80.7319L39.8911 81.3669H39.8901Z" fill="white"/>
<path d="M39.8901 81.462C39.8901 81.462 39.9221 81.335 39.9861 81.176C40.0491 80.986 40.1761 80.732 40.3351 80.446C40.4941 80.16 40.7481 79.842 41.0341 79.525C41.3201 79.207 41.7011 78.921 42.1141 78.667C42.5591 78.445 43.0041 78.254 43.4481 78.159C43.8931 78.064 44.3061 78.032 44.6551 78C45.0051 78 45.3221 78.032 45.5451 78.032C45.7671 78.064 45.8941 78.064 45.8941 78.064C45.8941 78.064 45.6401 78.476 45.1641 78.953C44.9411 79.207 44.6551 79.493 44.3371 79.747C44.1791 79.874 43.9871 80.065 43.5751 80.351L39.8901 81.462ZM34.1101 84.258C34.1101 84.258 34.1731 84.289 34.3001 84.321C34.4271 84.353 34.6171 84.416 34.8401 84.448C35.0621 84.48 35.3161 84.544 35.5701 84.544C35.8561 84.575 36.1101 84.544 36.4281 84.512C36.7141 84.48 37.0001 84.385 37.2221 84.258C37.4761 84.162 37.6671 84.035 37.8571 83.94C38.0471 83.845 38.1751 83.718 38.2701 83.654C38.3661 83.591 38.4301 83.527 38.4301 83.527L38.2391 83.432C38.1111 83.368 37.9531 83.305 37.7301 83.209C37.5081 83.146 37.2861 83.082 37.0001 83.051C36.8731 83.019 36.7141 83.019 36.5551 83.019C36.3961 83.019 36.2691 83.051 36.1101 83.051L34.1101 84.258ZM33.9501 84.035C33.9501 84.035 33.9501 83.908 33.9821 83.718C34.0141 83.528 34.0461 83.241 34.1411 82.924C34.2361 82.606 34.3631 82.224 34.5861 81.844C34.7761 81.462 35.0621 81.081 35.4111 80.732L35.5391 80.605C35.5701 80.573 35.6341 80.541 35.6661 80.478C35.7611 80.414 35.8561 80.318 35.9511 80.255C36.1421 80.128 36.3331 80.001 36.5551 79.875C36.9681 79.652 37.3491 79.525 37.6991 79.429C37.8571 79.366 38.0481 79.334 38.1751 79.302C38.3341 79.271 38.4611 79.239 38.5561 79.239C38.7791 79.207 38.9061 79.207 38.9061 79.207C38.9061 79.207 38.7461 79.652 38.4291 80.255C38.3971 80.319 38.3341 80.415 38.3021 80.478C38.2701 80.573 38.2071 80.636 38.1751 80.732C38.0801 80.891 37.9531 81.082 37.8571 81.24C37.7301 81.399 37.6031 81.59 37.4771 81.748C37.3375 81.9251 37.1886 82.0947 37.0311 82.256L33.9511 84.036L33.9501 84.035ZM29.3441 88.196C29.3441 88.196 29.6621 88.228 30.1071 88.196C30.2021 88.196 30.3291 88.165 30.4571 88.165C30.5831 88.165 30.7101 88.133 30.8371 88.101C31.0911 88.038 31.3771 87.974 31.6631 87.847C32.2031 87.625 32.6161 87.244 32.9031 86.957C33.1881 86.672 33.3471 86.386 33.3471 86.386C33.3471 86.386 33.0611 86.291 32.6171 86.259C32.3637 86.2271 32.1074 86.2271 31.8541 86.259C31.5681 86.291 31.2821 86.386 30.9961 86.481L29.3441 88.196ZM29.1221 88.006C29.1221 88.006 29.0271 87.561 29.0271 86.894C29.0271 86.544 29.0901 86.164 29.1861 85.751C29.2811 85.338 29.4711 84.893 29.7261 84.48C29.9801 84.035 30.2971 83.686 30.6461 83.4C30.7421 83.336 30.8061 83.241 30.9011 83.178C30.9961 83.114 31.0601 83.051 31.1551 82.988C31.3141 82.86 31.4731 82.765 31.6311 82.669C31.7911 82.574 31.9171 82.479 32.0761 82.415C32.2031 82.352 32.3301 82.288 32.4261 82.256C32.6161 82.161 32.7431 82.129 32.7431 82.129C32.7431 82.129 32.7431 82.256 32.7111 82.447C32.6801 82.637 32.6161 82.924 32.5531 83.273C32.4891 83.623 32.3631 84.003 32.2351 84.385C32.2031 84.48 32.1711 84.575 32.1081 84.671C32.0761 84.766 32.0131 84.861 31.9811 84.988C31.8861 85.178 31.7911 85.401 31.6631 85.592L29.1231 88.006H29.1221ZM25.6911 93.184C25.6911 93.184 26.0091 93.152 26.4221 93.024C26.6634 92.9509 26.8974 92.8555 27.1211 92.739C27.3751 92.612 27.6291 92.485 27.8511 92.294C28.0741 92.104 28.2961 91.913 28.4551 91.691C28.5467 91.5985 28.6218 91.4909 28.6771 91.373L28.8671 91.087C29.0901 90.737 29.1861 90.452 29.1861 90.452C29.1861 90.452 28.8681 90.42 28.4551 90.515C27.9123 90.5998 27.3992 90.8184 26.9621 91.151L25.6921 93.184H25.6911ZM25.4371 93.056C25.4371 93.056 25.2151 92.644 25.0871 91.976C25.0571 91.818 25.0241 91.627 24.9931 91.436C24.9611 91.246 24.9611 91.056 24.9611 90.833C24.9611 90.611 24.9611 90.388 24.9931 90.166C25.0241 89.944 25.0881 89.689 25.1511 89.467C25.2167 89.2378 25.3021 89.0146 25.4061 88.8C25.5011 88.578 25.6281 88.387 25.7551 88.196C25.8821 88.006 26.0091 87.847 26.1361 87.656C26.2631 87.498 26.3901 87.371 26.5491 87.244C26.7527 87.0326 26.9761 86.841 27.2161 86.672C27.3751 86.545 27.5021 86.482 27.5021 86.482C27.5021 86.482 27.5341 86.608 27.5341 86.799C27.5341 86.894 27.5661 87.021 27.5661 87.149C27.5661 87.275 27.5971 87.434 27.5971 87.625C27.5971 87.975 27.5971 88.355 27.5341 88.768C27.4926 89.2096 27.4075 89.6461 27.2801 90.071L25.4371 93.056ZM23.4041 98.933C23.4041 98.933 23.6901 98.806 24.0711 98.583C24.2621 98.456 24.4841 98.329 24.6751 98.139C24.8651 97.949 25.0881 97.758 25.2791 97.535C25.3741 97.408 25.4371 97.281 25.5011 97.185C25.5641 97.059 25.6281 96.932 25.6911 96.836C25.7871 96.614 25.8821 96.36 25.9141 96.169C25.9771 95.979 26.0091 95.789 26.0411 95.661C26.0731 95.534 26.0731 95.471 26.0731 95.471C26.0731 95.471 25.7551 95.534 25.3731 95.693C25.1484 95.7963 24.9358 95.9241 24.7391 96.074C24.5161 96.233 24.2941 96.424 24.1031 96.678L23.4041 98.933ZM23.1501 98.87L23.0871 98.806C23.0551 98.774 22.9911 98.711 22.9601 98.616C22.8331 98.456 22.7061 98.234 22.5471 97.916C22.361 97.5764 22.222 97.2131 22.1341 96.836C22.0736 96.6175 22.0311 96.3944 22.0071 96.169C22.0071 96.042 21.9751 95.947 21.9751 95.82V95.47C22.0071 94.486 22.3881 93.565 22.7691 92.961C22.9591 92.644 23.1501 92.389 23.2771 92.231C23.3411 92.135 23.4041 92.071 23.4371 92.04C23.4671 92.008 23.5001 91.976 23.5001 91.976C23.5001 91.976 23.5001 92.008 23.5311 92.04C23.5631 92.104 23.5951 92.167 23.6271 92.262C23.6901 92.452 23.7861 92.739 23.8811 93.056C24.0401 93.724 24.2311 94.581 24.1991 95.502L23.1501 98.87ZM22.6421 105.064C22.6421 105.064 22.8961 104.873 23.2141 104.555C23.3731 104.396 23.5311 104.205 23.6901 103.984C23.8501 103.761 24.0081 103.507 24.1031 103.253C24.3261 102.713 24.3891 102.173 24.3891 101.728C24.3891 101.506 24.3891 101.348 24.3571 101.22C24.3571 101.093 24.3261 101.03 24.3261 101.03C24.3261 101.03 24.0401 101.156 23.6901 101.442C23.5311 101.569 23.3401 101.76 23.1501 101.982C23.0551 102.078 22.9911 102.205 22.8961 102.332C22.8331 102.459 22.7371 102.586 22.6741 102.745L22.6421 105.064ZM22.3561 105.064C22.3561 105.064 21.9751 104.809 21.5301 104.301C21.268 104.013 21.0439 103.693 20.8631 103.348C20.7681 103.158 20.6731 102.968 20.5771 102.745C20.4841 102.518 20.4099 102.284 20.3551 102.045C20.2911 101.792 20.2911 101.569 20.2601 101.315C20.2601 101.093 20.2281 100.839 20.2601 100.616C20.2911 100.172 20.3871 99.759 20.4821 99.409C20.6034 99.018 20.7521 98.6361 20.9271 98.266C20.9271 98.266 21.2441 98.647 21.5621 99.219C21.6571 99.378 21.7211 99.536 21.8161 99.695C21.9111 99.855 22.0061 100.045 22.0701 100.235C22.1661 100.425 22.2301 100.616 22.2931 100.839C22.3241 100.934 22.3561 101.061 22.3881 101.156C22.4201 101.252 22.4511 101.379 22.4831 101.506L22.3561 105.064Z" fill="white"/>
<path d="M46.211 133.493C46.116 133.493 46.053 133.461 45.989 133.366C44.433 130.729 42.019 129.586 40.271 129.078C29.662 125.996 22.229 116.118 22.229 105.032C22.229 99.2819 24.23 93.6919 27.851 89.2449C31.409 84.8609 36.396 81.7799 41.891 80.6049C42.019 80.5729 42.177 80.6679 42.177 80.7949C42.209 80.9219 42.114 81.0809 41.987 81.0809C30.837 83.5269 22.737 93.5959 22.737 105.031C22.737 115.864 30.011 125.551 40.399 128.569C43.035 129.332 45.131 130.889 46.402 133.08C46.466 133.207 46.434 133.366 46.307 133.43C46.307 133.493 46.243 133.493 46.211 133.493ZM70.29 111.194C70.29 111.194 70.099 110.94 69.876 110.559C69.781 110.369 69.654 110.146 69.559 109.892C69.4513 109.627 69.3764 109.349 69.336 109.066C69.304 108.907 69.304 108.78 69.304 108.653V108.24C69.336 107.986 69.368 107.732 69.431 107.541C69.495 107.351 69.527 107.16 69.559 107.033C69.59 106.906 69.622 106.843 69.622 106.843C69.622 106.843 69.876 107.033 70.13 107.383C70.162 107.414 70.194 107.478 70.226 107.509C70.257 107.573 70.289 107.605 70.321 107.669C70.384 107.764 70.448 107.891 70.511 108.018C70.639 108.272 70.734 108.558 70.766 108.875L70.289 111.195L70.29 111.194ZM70.543 111.258C70.543 111.258 70.956 111.098 71.528 110.718C71.655 110.622 71.814 110.528 71.973 110.4C72.131 110.273 72.259 110.146 72.417 109.987C72.577 109.828 72.703 109.669 72.83 109.479L73.02 109.193C73.084 109.098 73.148 108.971 73.18 108.875C73.624 107.985 73.72 107.033 73.688 106.302C73.656 105.572 73.529 105.095 73.529 105.095C73.529 105.095 73.148 105.381 72.671 105.858C72.417 106.112 72.195 106.398 71.909 106.715C71.782 106.875 71.655 107.065 71.528 107.255C71.401 107.445 71.306 107.636 71.21 107.859L70.543 111.258ZM68.034 116.944C68.034 116.944 68.002 116.88 67.97 116.753C67.8937 116.592 67.8401 116.421 67.811 116.245C67.7354 116.009 67.6927 115.763 67.684 115.515C67.684 115.451 67.684 115.387 67.653 115.324V114.656C67.716 114.085 67.907 113.545 68.129 113.196C68.1629 113.161 68.1852 113.116 68.193 113.068C68.224 113.036 68.224 112.973 68.256 112.941C68.288 112.878 68.351 112.814 68.383 112.751C68.447 112.655 68.51 112.591 68.51 112.591C68.51 112.591 68.7 112.846 68.86 113.259C68.955 113.449 69.019 113.704 69.082 113.989C69.114 114.116 69.114 114.275 69.146 114.402V114.847L68.034 116.944ZM68.256 117.07H68.351C68.415 117.07 68.479 117.039 68.574 117.039C68.764 117.007 69.05 116.944 69.368 116.816C70.1696 116.527 70.8889 116.048 71.464 115.419C71.624 115.229 71.75 115.038 71.877 114.815C71.941 114.72 72.004 114.625 72.067 114.498C72.131 114.402 72.163 114.275 72.227 114.18C72.322 113.99 72.386 113.767 72.449 113.576C72.5166 113.39 72.5698 113.199 72.608 113.005C72.671 112.655 72.735 112.338 72.735 112.147C72.735 112.052 72.735 111.957 72.767 111.893V111.798C72.767 111.798 72.735 111.798 72.703 111.829C72.64 111.861 72.576 111.893 72.481 111.925C72.291 112.02 72.036 112.147 71.751 112.338C71.464 112.528 71.147 112.751 70.797 113.005C70.639 113.132 70.48 113.291 70.321 113.418C70.257 113.481 70.162 113.576 70.099 113.672C70.035 113.767 69.939 113.831 69.876 113.926L68.256 117.071V117.07ZM64.38 121.93C64.38 121.93 64.38 121.867 64.35 121.708C64.35 121.581 64.317 121.391 64.317 121.168C64.317 120.946 64.317 120.692 64.349 120.406C64.381 120.279 64.381 120.12 64.413 119.993C64.444 119.866 64.476 119.707 64.54 119.58C64.635 119.294 64.794 119.072 64.92 118.85C65.048 118.627 65.207 118.436 65.366 118.278C65.524 118.118 65.651 117.992 65.746 117.928C65.7929 117.878 65.8468 117.835 65.906 117.801C65.906 117.801 65.937 117.865 65.969 117.991C66.001 118.119 66.064 118.309 66.096 118.531C66.128 118.754 66.128 119.008 66.128 119.294C66.128 119.421 66.096 119.58 66.064 119.739C66.0365 119.891 65.9939 120.04 65.937 120.184L64.381 121.931L64.38 121.93ZM64.571 122.121C64.571 122.121 64.699 122.153 64.889 122.153H65.239C65.366 122.153 65.524 122.153 65.683 122.121C66.001 122.089 66.413 122.026 66.827 121.899C67.24 121.772 67.653 121.549 68.066 121.295C68.479 121.009 68.796 120.66 69.114 120.311C69.4 119.961 69.622 119.58 69.781 119.262C69.94 118.945 70.035 118.659 70.131 118.436C70.194 118.246 70.226 118.119 70.226 118.119C70.226 118.119 69.749 118.182 69.114 118.373C68.955 118.436 68.796 118.468 68.606 118.563C68.415 118.627 68.224 118.691 68.034 118.786L67.462 119.072C67.272 119.167 67.081 119.294 66.89 119.422L64.571 122.122V122.121ZM59.616 125.87C59.616 125.87 59.648 125.552 59.743 125.139C59.807 124.916 59.87 124.662 59.966 124.409C60.061 124.154 60.188 123.9 60.379 123.646C60.537 123.392 60.728 123.201 60.919 123.011C60.982 122.979 61.014 122.915 61.077 122.884C61.141 122.852 61.173 122.788 61.204 122.756L61.49 122.566C61.68 122.439 61.84 122.376 61.935 122.312L62.125 122.216V122.439C62.125 122.566 62.125 122.756 62.094 122.979C62.062 123.201 62.03 123.455 61.935 123.709C61.903 123.836 61.84 123.964 61.776 124.122C61.7141 124.256 61.6397 124.384 61.554 124.504L59.616 125.869V125.87ZM59.743 126.124L60.029 126.219C60.219 126.282 60.506 126.346 60.823 126.409C61.141 126.473 61.553 126.473 61.967 126.473C62.062 126.473 62.189 126.473 62.284 126.441C62.38 126.441 62.507 126.409 62.634 126.378C62.856 126.314 63.079 126.251 63.333 126.188C63.46 126.155 63.555 126.092 63.683 126.06C63.777 125.996 63.904 125.965 64 125.901C64.19 125.774 64.413 125.647 64.571 125.52C64.762 125.393 64.921 125.234 65.08 125.107C65.239 124.98 65.366 124.821 65.493 124.694C65.747 124.44 65.906 124.186 66.033 123.995L66.223 123.709C66.223 123.709 65.747 123.646 65.08 123.678C64.73 123.678 64.35 123.709 63.936 123.805C63.523 123.868 63.079 123.964 62.666 124.155L59.743 126.124ZM54.057 128.506C54.057 128.506 54.153 128.188 54.375 127.807C54.597 127.426 54.883 126.917 55.36 126.537C55.487 126.441 55.582 126.346 55.71 126.282C55.836 126.219 55.931 126.124 56.059 126.06C56.186 125.996 56.281 125.965 56.408 125.901C56.535 125.869 56.63 125.806 56.726 125.774C57.106 125.647 57.424 125.584 57.424 125.584C57.424 125.584 57.393 125.901 57.234 126.314C57.17 126.504 57.044 126.759 56.916 126.981C56.757 127.204 56.566 127.458 56.344 127.648L54.057 128.506ZM54.12 128.76C54.12 128.76 54.47 129.046 55.106 129.332C55.169 129.364 55.264 129.395 55.36 129.427C55.455 129.459 55.519 129.491 55.614 129.522C55.804 129.586 55.995 129.618 56.217 129.682C56.44 129.712 56.662 129.745 56.884 129.776C57.107 129.776 57.361 129.776 57.615 129.745C57.869 129.713 58.091 129.681 58.345 129.618C58.568 129.554 58.79 129.458 59.013 129.395C59.235 129.3 59.426 129.205 59.584 129.109C59.775 129.014 59.934 128.887 60.093 128.792C60.379 128.602 60.633 128.411 60.791 128.252L61.046 127.998C61.046 127.998 60.919 127.966 60.728 127.902C60.467 127.824 60.202 127.761 59.934 127.712C59.584 127.648 59.204 127.585 58.79 127.552C58.377 127.522 57.933 127.489 57.456 127.552L54.121 128.76H54.12ZM53.803 81.3669C53.803 81.3669 53.74 81.3989 53.613 81.4939C53.5358 81.5309 53.4613 81.5734 53.39 81.6209C53.295 81.6529 53.231 81.7159 53.104 81.7799C52.914 81.8749 52.66 81.9699 52.406 82.0659C52.2692 82.101 52.1315 82.1327 51.993 82.1609C51.8478 82.2 51.6984 82.2215 51.548 82.2249C51.262 82.2559 50.976 82.2249 50.722 82.1929C50.4845 82.1621 50.2505 82.1088 50.023 82.0339C49.8601 81.9816 49.7011 81.9182 49.547 81.8439L49.357 81.7479L49.515 81.5889C49.6404 81.4681 49.7789 81.3618 49.928 81.2719C50.118 81.1449 50.341 81.0179 50.595 80.9219C50.722 80.8589 50.849 80.8269 51.008 80.7949C51.167 80.7639 51.294 80.7319 51.453 80.7319L53.803 81.3669Z" fill="white"/>
<path d="M53.8031 81.462C53.8031 81.462 53.7711 81.335 53.7081 81.176C53.6121 80.9233 53.495 80.6791 53.3581 80.446C53.2001 80.16 52.9461 79.842 52.6601 79.525C52.3741 79.207 51.9931 78.921 51.5801 78.667C51.1351 78.445 50.6901 78.254 50.2461 78.159C49.8011 78.064 49.3881 78.032 49.0391 78C48.6891 78 48.3711 78.032 48.1491 78.032C47.9271 78.064 47.7991 78.064 47.7991 78.064C47.7991 78.064 48.0541 78.476 48.5301 78.953C48.7531 79.207 49.0391 79.493 49.3561 79.747C49.5151 79.874 49.7061 80.065 50.1191 80.351L53.8031 81.462ZM59.5841 84.258C59.5841 84.258 59.5211 84.289 59.3941 84.321C59.2671 84.353 59.0761 84.416 58.8541 84.448C58.6311 84.48 58.3771 84.544 58.1241 84.544C57.8371 84.575 57.5841 84.544 57.2661 84.512C56.9869 84.4808 56.7167 84.3944 56.4711 84.258C56.2171 84.162 56.0271 84.035 55.8361 83.94C55.6461 83.845 55.5191 83.718 55.4231 83.654C55.3281 83.591 55.2641 83.527 55.2641 83.527L55.4551 83.432C55.5821 83.368 55.7411 83.305 55.9631 83.209C56.1861 83.146 56.4081 83.082 56.6931 83.051C56.8211 83.019 56.9801 83.019 57.1391 83.019C57.2971 83.019 57.4241 83.051 57.5831 83.051L59.5841 84.258ZM59.7431 84.035C59.7431 84.035 59.7431 83.908 59.7111 83.718C59.6801 83.528 59.6481 83.241 59.5531 82.924C59.4486 82.5474 59.2992 82.1848 59.1081 81.844C58.8934 81.4319 58.6145 81.0566 58.2821 80.732L58.1551 80.605C58.1231 80.573 58.0601 80.541 58.0281 80.478C57.9331 80.414 57.8381 80.318 57.7421 80.255C57.5521 80.128 57.3611 80.001 57.1391 79.875C56.7765 79.6822 56.3925 79.5325 55.9951 79.429C55.8361 79.366 55.6451 79.334 55.5191 79.302C55.3591 79.271 55.2331 79.239 55.1371 79.239C54.9151 79.207 54.7871 79.207 54.7871 79.207C54.7871 79.207 54.9471 79.652 55.2641 80.255C55.2961 80.319 55.3601 80.415 55.3911 80.478C55.4231 80.573 55.4871 80.636 55.5191 80.732C55.6141 80.891 55.7411 81.082 55.8361 81.24C55.9631 81.399 56.0901 81.59 56.2171 81.748C56.3441 81.908 56.5031 82.098 56.6621 82.256L59.7431 84.036V84.035ZM64.3501 88.196C64.3501 88.196 64.0311 88.228 63.5871 88.196C63.4911 88.196 63.3641 88.165 63.2371 88.165C63.1101 88.165 62.9831 88.133 62.8571 88.101C62.6021 88.038 62.3171 87.974 62.0301 87.847C61.4901 87.625 61.0771 87.244 60.7911 86.957C60.5061 86.672 60.3471 86.386 60.3471 86.386C60.3471 86.386 60.6331 86.291 61.0771 86.259C61.3304 86.2271 61.5867 86.2271 61.8401 86.259C62.1261 86.291 62.4111 86.386 62.6971 86.481L64.3491 88.196H64.3501ZM64.5711 88.006C64.5711 88.006 64.6671 87.561 64.6671 86.894C64.6671 86.544 64.6031 86.164 64.5071 85.751C64.3956 85.3014 64.2133 84.8724 63.9671 84.48C63.7299 84.0662 63.4179 83.7 63.0471 83.4C62.9511 83.336 62.8871 83.241 62.7931 83.178C62.6971 83.114 62.6331 83.051 62.5391 82.988C62.3876 82.8708 62.2283 82.7642 62.0621 82.669C61.9031 82.574 61.7761 82.479 61.6171 82.415C61.4901 82.352 61.3631 82.288 61.2671 82.256C61.1658 82.2033 61.0597 82.1608 60.9501 82.129C60.9501 82.129 60.9501 82.256 60.9821 82.447C61.0141 82.637 61.0771 82.924 61.1411 83.273C61.2041 83.623 61.3311 84.003 61.4591 84.385C61.4901 84.48 61.5221 84.575 61.5861 84.671C61.6171 84.766 61.6811 84.861 61.7131 84.988C61.8081 85.178 61.9031 85.401 62.0301 85.592L64.5711 88.006ZM68.0021 93.184C68.0021 93.184 67.6841 93.152 67.2721 93.024C67.0304 92.951 66.796 92.8556 66.5721 92.739C66.3191 92.612 66.0641 92.485 65.8421 92.294C65.6201 92.104 65.3971 91.913 65.2391 91.691C65.1471 91.5985 65.0717 91.491 65.0161 91.373L64.8261 91.087C64.6969 90.8877 64.5903 90.6748 64.5081 90.452C64.5081 90.452 64.8261 90.42 65.2381 90.515C65.6831 90.579 66.2231 90.769 66.7311 91.151L68.0021 93.184ZM68.2561 93.056C68.2561 93.056 68.4791 92.644 68.6061 91.976C68.6371 91.818 68.6691 91.627 68.7011 91.436C68.7331 91.246 68.7331 91.056 68.7331 90.833C68.7331 90.611 68.7331 90.388 68.7011 90.166C68.6632 89.9298 68.6101 89.6963 68.5421 89.467C68.4767 89.2378 68.3917 89.0146 68.2881 88.8C68.1905 88.5882 68.0733 88.386 67.9381 88.196C67.8111 88.006 67.6841 87.847 67.5581 87.656C67.4364 87.5032 67.2975 87.365 67.1441 87.244C66.9404 87.0326 66.7171 86.841 66.4771 86.672C66.3191 86.545 66.1911 86.482 66.1911 86.482C66.1911 86.482 66.1601 86.608 66.1601 86.799C66.1601 86.894 66.1281 87.021 66.1281 87.149C66.1281 87.275 66.0961 87.434 66.0961 87.625C66.0961 87.975 66.0961 88.355 66.1601 88.768C66.1911 89.181 66.2871 89.626 66.4141 90.071L68.2561 93.056ZM70.2901 98.933C70.2901 98.933 70.0031 98.806 69.6221 98.583C69.4321 98.456 69.2091 98.329 69.0191 98.139C68.8281 97.949 68.6061 97.758 68.4151 97.535C68.3201 97.408 68.2561 97.281 68.1931 97.185C68.1365 97.0651 68.073 96.9486 68.0031 96.836C67.9051 96.6223 67.8303 96.3987 67.7801 96.169C67.7161 95.979 67.6841 95.789 67.6531 95.661C67.6211 95.534 67.6211 95.471 67.6211 95.471C67.6211 95.471 67.9391 95.534 68.3201 95.693C68.5421 95.788 68.7331 95.915 68.9551 96.074C69.1771 96.233 69.4001 96.424 69.5901 96.678L70.2901 98.933ZM70.5431 98.87L70.6071 98.806C70.6391 98.774 70.7021 98.711 70.7341 98.616C70.8611 98.456 70.9881 98.234 71.1471 97.916C71.3061 97.631 71.4641 97.249 71.5601 96.836C71.6231 96.614 71.6551 96.424 71.6871 96.169C71.6871 96.042 71.7191 95.947 71.7191 95.82V95.47C71.6871 94.486 71.3061 93.565 70.9241 92.961C70.771 92.7067 70.6013 92.4629 70.4161 92.231C70.3531 92.135 70.2891 92.071 70.2571 92.04L70.1941 91.976C70.1941 91.976 70.1941 92.008 70.1621 92.04C70.1301 92.104 70.0991 92.167 70.0671 92.262C70.0031 92.452 69.9071 92.739 69.8131 93.056C69.6531 93.724 69.4631 94.581 69.4951 95.502L70.5431 98.869V98.87ZM71.0511 105.064C71.0511 105.064 70.7971 104.873 70.4801 104.555C70.3057 104.378 70.1462 104.187 70.0031 103.984C69.8351 103.759 69.6963 103.513 69.5901 103.253C69.3964 102.768 69.2993 102.25 69.3041 101.728C69.3041 101.506 69.3041 101.348 69.3361 101.22C69.3361 101.093 69.3681 101.03 69.3681 101.03C69.3681 101.03 69.6541 101.156 70.0031 101.442C70.1631 101.569 70.3531 101.76 70.5431 101.982C70.6391 102.078 70.7031 102.205 70.7971 102.332C70.8611 102.459 70.9571 102.586 71.0201 102.745L71.0511 105.064ZM71.3371 105.064C71.3371 105.064 71.7191 104.809 72.1631 104.301C72.3861 104.047 72.6401 103.729 72.8301 103.348C72.9261 103.158 73.0201 102.968 73.1161 102.745C73.2111 102.522 73.2751 102.3 73.3391 102.045C73.4021 101.792 73.4021 101.569 73.4341 101.315C73.4341 101.093 73.4661 100.839 73.4341 100.616C73.3992 100.207 73.3245 99.8031 73.2111 99.409C72.9891 98.711 72.7671 98.266 72.7671 98.266C72.7671 98.266 72.4491 98.647 72.1311 99.219C72.0361 99.378 71.9731 99.536 71.8771 99.695C71.7821 99.855 71.6871 100.045 71.6231 100.235C71.5281 100.425 71.4641 100.616 71.4011 100.839C71.3691 100.934 71.3371 101.061 71.3061 101.156C71.27 101.272 71.238 101.388 71.2101 101.506L71.3371 105.064Z" fill="white"/>
<path d="M47.4821 133.493C47.4501 133.493 47.3871 133.493 47.3551 133.461C47.2281 133.398 47.1961 133.239 47.2601 133.111C48.5621 130.92 50.6271 129.364 53.2631 128.601C63.6831 125.584 70.9241 115.895 70.9241 105.064C70.9241 93.6281 62.8241 83.5591 51.6751 81.1131C51.5481 81.0811 51.4531 80.9541 51.4851 80.8271C51.5161 80.7001 51.6431 80.6051 51.7701 80.6371C57.2661 81.8441 62.2531 84.9251 65.8101 89.2771C69.4414 93.7377 71.4269 99.3123 71.4331 105.064C71.4331 116.118 64.0311 126.028 53.3901 129.109C51.6431 129.618 49.2301 130.761 47.6731 133.398C47.6411 133.461 47.5771 133.493 47.4831 133.493H47.4821Z" fill="white"/>
<path d="M29.3761 106.112H64.3491V107.112H29.3761V106.112Z" fill="#D0D2D3"/>
<path d="M32.6161 104.746V102.173L31.5041 103.856H31.4731L30.3611 102.173V104.746H29.5031V100.776H30.4561L31.5041 102.459L32.5531 100.775H33.5061V104.745L32.6161 104.746ZM38.5561 104.746L38.2061 103.856H36.5231L36.1731 104.746H35.2841L36.9681 100.744H37.7621L39.4461 104.746H38.5561ZM37.3491 101.792L36.809 103.062H37.857L37.3491 101.792ZM42.7171 104.81C42.098 104.807 41.5008 104.581 41.0341 104.174L41.5421 103.571C41.8921 103.856 42.2721 104.047 42.7171 104.047C43.0671 104.047 43.2891 103.92 43.2891 103.666C43.2891 103.444 43.1621 103.316 42.4951 103.158C41.7011 102.968 41.1931 102.745 41.1931 101.951C41.1931 101.22 41.7641 100.744 42.5901 100.744C43.1621 100.744 43.6701 100.934 44.0511 101.252L43.607 101.919C43.257 101.665 42.9071 101.538 42.5901 101.538C42.2731 101.538 42.0821 101.696 42.0821 101.888C42.0821 102.141 42.241 102.236 42.9401 102.395C43.734 102.618 44.2101 102.904 44.2101 103.571C44.1791 104.365 43.5751 104.809 42.7171 104.809V104.81ZM47.927 101.57V104.746H47.0691V101.569H45.8621V100.775H49.1341V101.569L47.927 101.57ZM50.9441 104.746V100.776H53.9301V101.538H51.802V102.332H53.6761V103.094H51.802V103.92H53.9621V104.682H50.9441V104.746ZM58.4401 104.746L57.5831 103.476H56.8841V104.746H56.0271V100.776H57.8371C58.7591 100.776 59.3301 101.284 59.3301 102.078C59.3301 102.713 58.9801 103.126 58.4731 103.316L59.4261 104.746H58.4411H58.4401ZM58.4401 102.141C58.4401 101.76 58.1871 101.569 57.7421 101.569H56.8841V102.713H57.774C58.219 102.713 58.4411 102.491 58.4411 102.141H58.4401ZM62.73 104.81C62.1106 104.807 61.513 104.581 61.0461 104.174L61.5541 103.571C61.9041 103.856 62.284 104.047 62.729 104.047C63.079 104.047 63.301 103.92 63.301 103.666C63.301 103.444 63.174 103.316 62.507 103.158C61.7131 102.968 61.2041 102.745 61.2041 101.951C61.2041 101.22 61.7761 100.744 62.6021 100.744C63.174 100.744 63.6821 100.934 64.0631 101.252L63.619 101.919C63.2691 101.665 62.9191 101.538 62.6021 101.538C62.2521 101.538 62.0941 101.696 62.0941 101.888C62.0941 102.141 62.253 102.236 62.951 102.395C63.746 102.618 64.2221 102.904 64.2221 103.571C64.1901 104.365 63.5871 104.809 62.729 104.809L62.73 104.81Z" fill="white"/>
<path d="M31.0281 110.464H30.3611V111.639H29.5031V107.669H31.1231C32.0761 107.669 32.6481 108.24 32.6481 109.034C32.6481 109.987 31.9181 110.464 31.0281 110.464ZM31.7581 109.066C31.7581 108.685 31.4731 108.462 31.0601 108.462H30.3931V109.669H31.0911C31.5041 109.669 31.7591 109.415 31.7591 109.066H31.7581ZM36.5231 111.639L35.6661 110.369H34.9661V111.639H34.1091V107.669H35.9191C36.8411 107.669 37.413 108.176 37.413 108.971C37.413 109.606 37.0631 110.019 36.5551 110.209L37.5081 111.639H36.5231ZM36.5231 109.034C36.5231 108.653 36.2691 108.462 35.8241 108.462H34.9671V109.606H35.857C36.2691 109.606 36.5231 109.384 36.5231 109.034ZM40.9071 111.702C39.6671 111.702 38.8101 110.782 38.8101 109.669C38.8101 108.558 39.7001 107.605 40.9391 107.605C42.1771 107.605 43.0351 108.525 43.0351 109.638C43.0031 110.781 42.1141 111.702 40.9071 111.702ZM42.114 109.669C42.114 109.002 41.6061 108.431 40.9071 108.431C40.2071 108.431 39.7311 108.971 39.7311 109.669C39.7311 110.336 40.2401 110.909 40.9391 110.909C41.6061 110.909 42.114 110.369 42.114 109.669ZM46.4971 111.702C45.2591 111.702 44.4011 110.845 44.4011 109.669C44.4005 109.398 44.4536 109.129 44.5572 108.878C44.6608 108.628 44.8129 108.4 45.0048 108.208C45.1966 108.016 45.4245 107.864 45.6753 107.761C45.926 107.657 46.1948 107.604 46.4661 107.605C47.1641 107.605 47.6091 107.795 48.0221 108.145L47.482 108.812C47.164 108.558 46.91 108.399 46.434 108.399C45.799 108.399 45.2901 108.971 45.2901 109.638C45.2901 110.368 45.7991 110.908 46.4971 110.908C46.8151 110.908 47.1011 110.813 47.3231 110.686V110.114H46.4331V109.352H48.149V111.067C47.799 111.448 47.2281 111.702 46.4971 111.702ZM52.3101 111.639L51.4531 110.369H50.753V111.639H49.8961V107.669H51.7061C52.6281 107.669 53.2001 108.176 53.2001 108.971C53.2001 109.606 52.85 110.019 52.3421 110.209L53.295 111.639H52.3101ZM52.3421 109.034C52.3421 108.653 52.0881 108.462 51.6431 108.462H50.7861V109.606H51.6751C52.0881 109.606 52.3421 109.384 52.3421 109.034ZM57.8701 111.639L57.5201 110.749H55.8361L55.4861 111.639H54.5971L56.3131 107.636H57.107L58.7901 111.639H57.8701ZM56.6621 108.716L56.1221 109.987H57.17L56.6621 108.717V108.716ZM63.3 111.639V109.066L62.19 110.749H62.1571L61.0461 109.066V111.639H60.1881V107.669H61.1411L62.189 109.352L63.2371 107.668H64.1901V111.638L63.3 111.639Z" fill="white"/>
<path d="M36.4911 114.784L36.9361 116.149H38.3971L37.2221 117.039L37.6671 118.469L36.4911 117.611L35.3161 118.468L35.7611 117.038L34.5861 116.149H36.0461L36.4911 114.784ZM41.6701 114.784L42.1141 116.149H43.5751L42.4001 117.039L42.8441 118.469L41.6691 117.611L40.4621 118.468L40.9391 117.038L39.7311 116.149H41.1931L41.6701 114.784ZM46.8151 114.784L47.2911 116.149H48.7531L47.5771 117.039L48.0221 118.469L46.8151 117.611L45.6401 118.468L46.0841 117.038L44.9091 116.149H46.3701L46.8151 114.784ZM51.9931 114.784L52.4371 116.149H53.9301L52.7231 117.039L53.1681 118.469L51.9931 117.611L50.8171 118.468L51.2621 117.038L50.0871 116.149H51.5471L51.9931 114.784ZM57.1701 114.784L57.6151 116.149H59.0761L57.9011 117.039L58.3461 118.469L57.1701 117.611L55.9951 118.468L56.4401 117.038L55.2331 116.149H56.7261L57.1701 114.784Z" fill="white"/>
<path d="M46.6881 95.3752C49.1021 95.3752 51.1351 95.5022 51.8021 95.6612L53.0721 89.1812C53.0721 89.1812 50.1821 91.7222 49.3881 91.7222C48.5621 91.7222 46.6881 89.9442 46.6881 89.9442C46.6881 89.9442 44.8781 91.7222 44.1151 91.7222C43.3211 91.7222 40.3351 89.1822 40.3351 89.1822L41.6051 95.6622C42.2411 95.5022 44.2741 95.3752 46.6881 95.3752ZM46.6881 96.1702C43.7341 96.1702 41.3201 96.3602 41.3201 96.5502H52.0241C52.0241 96.3282 49.6421 96.1702 46.6881 96.1702Z" fill="white"/>
<path d="M113.5 99.8999C113.633 99.8999 113.76 99.9526 113.854 100.046C113.947 100.14 114 100.267 114 100.4V102.9C114 103.165 114.105 103.419 114.293 103.607C114.48 103.795 114.735 103.9 115 103.9H127C127.265 103.9 127.52 103.795 127.707 103.607C127.895 103.419 128 103.165 128 102.9V100.4C128 100.267 128.053 100.14 128.146 100.046C128.24 99.9526 128.367 99.8999 128.5 99.8999C128.633 99.8999 128.76 99.9526 128.854 100.046C128.947 100.14 129 100.267 129 100.4V102.9C129 103.43 128.789 103.939 128.414 104.314C128.039 104.689 127.53 104.9 127 104.9H115C114.47 104.9 113.961 104.689 113.586 104.314C113.211 103.939 113 103.43 113 102.9V100.4C113 100.267 113.053 100.14 113.146 100.046C113.24 99.9526 113.367 99.8999 113.5 99.8999Z" fill="white"/>
<path d="M120.646 101.854C120.692 101.901 120.748 101.938 120.808 101.963C120.869 101.988 120.934 102.001 121 102.001C121.066 102.001 121.131 101.988 121.192 101.963C121.252 101.938 121.308 101.901 121.354 101.854L124.354 98.854C124.448 98.7601 124.501 98.6328 124.501 98.5C124.501 98.3672 124.448 98.2399 124.354 98.146C124.26 98.0521 124.133 97.9994 124 97.9994C123.867 97.9994 123.74 98.0521 123.646 98.146L121.5 100.293V91.5C121.5 91.3674 121.447 91.2402 121.354 91.1464C121.26 91.0527 121.133 91 121 91C120.867 91 120.74 91.0527 120.646 91.1464C120.553 91.2402 120.5 91.3674 120.5 91.5V100.293L118.354 98.146C118.26 98.0521 118.133 97.9994 118 97.9994C117.867 97.9994 117.74 98.0521 117.646 98.146C117.552 98.2399 117.499 98.3672 117.499 98.5C117.499 98.6328 117.552 98.7601 117.646 98.854L120.646 101.854Z" fill="white"/>
</svg>
