<?xml version="1.0" encoding="UTF-8"?>
<svg width="191px" height="99px" viewBox="0 0 191 99" version="1.1" xmlns="http://www.w3.org/2000/svg" xmlns:xlink="http://www.w3.org/1999/xlink">
    <title>Sprite image</title>
    <g id="Sprite-image" stroke="none" stroke-width="1" fill="none" fill-rule="evenodd">
        <g id="Group-9-Copy" transform="translate(56.000000, 20.000000)" fill="#1179EF" fill-rule="nonzero">
            <path d="M14.073085,0.353553391 L20.7071068,6.98757518 L20.7071068,6.98757518 L14.073085,13.621597 C13.8778228,13.8168591 13.5612404,13.8168591 13.3659782,13.621597 C13.170717,13.4263358 13.170717,13.1097548 13.3659782,12.9144935 C13.3659788,12.914493 13.3659793,12.9144924 13.3659799,12.9144919 L19.293,6.98752779 L19.293,6.98752779 L13.3659825,1.06065583 C13.1707204,0.86539848 13.1707165,0.548819876 13.3659739,0.35355773 C13.3659753,0.353556284 13.3659768,0.353554837 13.3659782,0.353553391 C13.5612404,0.158291245 13.8778228,0.158291245 14.073085,0.353553391 Z" id="Path-5"></path>
            <path d="M19.2700916,6.99452779 C19.2700916,7.27067017 19.046234,7.49452779 18.7700916,7.49452779 L0.5,7.49452779 C0.223857625,7.49452779 -9.09460884e-13,7.27067017 -9.09494702e-13,6.99452779 C-9.09528519e-13,6.71838542 0.223857625,6.49452779 0.5,6.49452779 L18.7700916,6.49452779 C19.046234,6.49452779 19.2700916,6.71838542 19.2700916,6.99452779 Z" id="Path-6"></path>
        </g>
        <g id="Group-9-Copy-2" transform="translate(56.000000, 54.000000)" fill="#FFFFFF" fill-rule="nonzero">
            <path d="M14.073085,0.353553391 L20.7071068,6.98757518 L20.7071068,6.98757518 L14.073085,13.621597 C13.8778228,13.8168591 13.5612404,13.8168591 13.3659782,13.621597 C13.170717,13.4263358 13.170717,13.1097548 13.3659782,12.9144935 C13.3659788,12.914493 13.3659793,12.9144924 13.3659799,12.9144919 L19.293,6.98752779 L19.293,6.98752779 L13.3659825,1.06065583 C13.1707204,0.86539848 13.1707165,0.548819876 13.3659739,0.35355773 C13.3659753,0.353556284 13.3659768,0.353554837 13.3659782,0.353553391 C13.5612404,0.158291245 13.8778228,0.158291245 14.073085,0.353553391 Z" id="Path-5"></path>
            <path d="M19.2700916,6.99452779 C19.2700916,7.27067017 19.046234,7.49452779 18.7700916,7.49452779 L0.5,7.49452779 C0.223857625,7.49452779 -9.09460884e-13,7.27067017 -9.09494702e-13,6.99452779 C-9.09528519e-13,6.71838542 0.223857625,6.49452779 0.5,6.49452779 L18.7700916,6.49452779 C19.046234,6.49452779 19.2700916,6.71838542 19.2700916,6.99452779 Z" id="Path-6"></path>
        </g>
        <g id="Group-16" transform="translate(15.000000, 20.000000)" fill="#51565E" fill-rule="nonzero">
            <path d="M1.06066017,0.353553391 L7.69468196,6.98757518 L7.69468196,6.98757518 L1.06066017,13.621597 C0.865398026,13.8168591 0.548815536,13.8168591 0.353553391,13.621597 C0.158292168,13.4263358 0.158292168,13.1097548 0.353553391,12.9144935 C0.353553948,12.914493 0.353554505,12.9144924 0.353555062,12.9144919 L6.28057518,6.98752779 L6.28057518,6.98752779 L0.35355773,1.06065583 C0.158295584,0.86539848 0.158291699,0.548819876 0.353549051,0.35355773 C0.353550498,0.353556284 0.353551944,0.353554837 0.353553391,0.353553391 C0.548815536,0.158291245 0.865398026,0.158291245 1.06066017,0.353553391 Z" id="Path-5" transform="translate(3.847341, 6.987575) scale(-1, 1) translate(-3.847341, -6.987575) "></path>
            <path d="M20.7071068,6.99452779 C20.7071068,7.27067017 20.4832492,7.49452779 20.2071068,7.49452779 L1.93701519,7.49452779 C1.66087282,7.49452779 1.43701519,7.27067017 1.43701519,6.99452779 C1.43701519,6.71838542 1.66087282,6.49452779 1.93701519,6.49452779 L20.2071068,6.49452779 C20.4832492,6.49452779 20.7071068,6.71838542 20.7071068,6.99452779 Z" id="Path-6" transform="translate(11.072061, 6.994528) scale(-1, 1) translate(-11.072061, -6.994528) "></path>
        </g>
        <g id="Path-7" transform="translate(138.000000, 20.000000)" fill="#51565E" fill-rule="nonzero">
            <path d="M1.06066017,0.353553391 L7.69468196,6.98757518 L7.69468196,6.98757518 L1.06066017,13.621597 C0.865398026,13.8168591 0.548815536,13.8168591 0.353553391,13.621597 C0.158292168,13.4263358 0.158292168,13.1097548 0.353553391,12.9144935 C0.353553948,12.914493 0.353554505,12.9144924 0.353555062,12.9144919 L6.28057518,6.98752779 L6.28057518,6.98752779 L0.35355773,1.06065583 C0.158295584,0.86539848 0.158291699,0.548819876 0.353549051,0.35355773 C0.353550498,0.353556284 0.353551944,0.353554837 0.353553391,0.353553391 C0.548815536,0.158291245 0.865398026,0.158291245 1.06066017,0.353553391 Z" id="Path-5"></path>
        </g>
        <g id="Group-12" transform="translate(94.000000, 15.000000)">
            <polygon id="Shape" points="0 0 24 0 24 24 0 24"></polygon>
            <polygon id="Path-143" fill="#51565E" fill-rule="nonzero" points="7 7.70710678 12 12.7071068 12.3535534 13.0606602 12.7071068 12.7071068 17.7071068 7.70710678 17 7 12 12 12.7071068 12 7.70710678 7"></polygon>
            <polygon id="Path-143-Copy" fill="#51565E" fill-rule="nonzero" transform="translate(12.353553, 14.730281) scale(1, -1) translate(-12.353553, -14.730281) " points="7 12.407058 12 17.407058 12.3535534 17.7606113 12.7071068 17.407058 17.7071068 12.407058 17 11.6999512 12 16.6999512 12.7071068 16.6999512 7.70710678 11.6999512"></polygon>
        </g>
    </g>
</svg>