<?xml version="1.0" encoding="UTF-8"?>
<svg width="464px" height="144px" viewBox="0 0 464 144" version="1.1" xmlns="http://www.w3.org/2000/svg" xmlns:xlink="http://www.w3.org/1999/xlink">
    <!-- Generator: Sketch 62 (91390) - https://sketch.com -->
    <title>MQL - Sprint image</title>
    <desc>Created with Sketch.</desc>
    <g id="MQL---Sprint-image" stroke="none" stroke-width="1" fill="none" fill-rule="evenodd">
        <g id="Group-8-Copy" transform="translate(80.000000, 20.000000)" stroke="#1179EF" stroke-linecap="round" stroke-linejoin="round">
            <path d="M39.8134292,30.7308985 C39.8134292,31.6747187 39.0044404,32.4837074 38.0606202,32.4837074 L5.97073255,32.4837074 C5.02691233,32.4837074 4.21792356,31.6747187 4.21792356,30.7308985 L4.21792356,9.78707824 C4.21792356,8.79831419 5.02691233,8.03426925 5.97073255,8.03426925 L12.9370247,8.03426925" id="Path"></path>
            <path d="M31.1842157,7.98932543 L38.0606202,7.98932543 C39.0493842,7.98932543 39.8134292,8.79831419 39.8134292,9.74213442 L39.8134292,30.6859546 C39.8134292,31.6747187 39.0044404,32.4387636 38.0606202,32.4387636 L5.97073255,32.4387636 C5.02691233,32.4387636 4.21792356,31.6297749 4.21792356,30.6859546" id="Path"></path>
            <line x1="39.5437663" y1="32.6185389" x2="44.0381483" y2="38.9556176" id="Path"></line>
            <path d="M44.0381483,38.9556176 C44.2628674,39.2252805 43.7235415,39.5398872 43.363991,39.5398872" id="Path"></path>
            <path d="M43.4089348,39.5398872 L0.712305585,39.5398872 C0.352755023,39.5398872 -0.141626999,39.2252805 0.0381482819,38.9556176 L4.5325303,32.6185389" id="Path"></path>
            <path d="M26.869609,11.0005614 C26.105564,13.7870782 23.9932045,15.8095501 22.0156764,15.8994378 C20.0381483,15.8095501 17.9257887,13.7421344 17.1617438,10.9556176 L16.8021932,11.0005614 C16.3976988,11.090449 15.9932045,10.7758423 15.9033168,10.3264041 L15.5437663,7.85449397 C15.4988224,7.40505576 15.7684854,7.00056138 16.2179236,6.91067374 L16.4875865,6.86572992 C16.352755,6.46123554 16.3078112,6.05674116 16.3078112,5.65224678 L16.3078112,4.75337037 C16.3078112,2.50617936 18.0606202,0.708426551 20.2179236,0.708426551 L20.6673618,0.708426551 C20.6673618,0.61853891 20.6673618,0.57359509 20.7123056,0.48370745 C20.9370247,-0.190449854 22.5550022,-0.145506033 24.2628674,0.52865127 C24.6224179,0.663482731 24.9819685,0.843258012 25.2965752,1.02303329 C26.6898337,1.65224678 27.6785977,3.09044902 27.6785977,4.75337037 L27.6785977,5.65224678 C27.6785977,6.10168498 27.6336539,6.50617936 27.4988224,6.86572992 L27.7684854,6.91067374 C28.1729797,7.00056138 28.4875865,7.40505576 28.4426427,7.85449397 L28.0830921,10.3264041 C28.0381483,10.7758423 27.6336539,11.090449 27.1842157,11.0005614 L26.869609,11.0005614 L26.869609,11.0005614 Z" id="Path"></path>
            <path d="M8.3078112,31.5398872 L7.58871008,23.5398872 L7.58871008,22.8657299 C7.58871008,21.33764 9.07185615,20.4387636 10.3302831,20.1691007 C11.4538786,19.9443816 15.7684854,18.9556176 17.1617438,17.9668535 L17.2516314,17.9668535" id="Path"></path>
            <polyline id="Path" points="19.7684854 31.5398872 21.2516314 22.0567412 19.9932045 18.6410108 24.0830921 18.6410108 22.8246651 22.0567412 24.3078112 31.5398872"></polyline>
            <path d="M26.8246651,17.9219097 L26.9145528,17.9219097 C28.3078112,18.9106737 32.5774741,19.8994378 33.7460135,20.1241569 C35.0044404,20.3938198 36.4875865,21.2926962 36.4875865,22.8207861 L36.4875865,23.4949434 L35.7684854,31.4949434" id="Path"></path>
            <line x1="19.9932045" y1="7.71966251" x2="19.9932045" y2="8.34887599" id="Path"></line>
            <line x1="24.0830921" y1="7.71966251" x2="24.0830921" y2="8.34887599" id="Path"></line>
            <path d="M23.1392719,12.2589883 C22.4651146,12.7983142 21.4763505,12.7983142 20.8920809,12.2589883" id="Path"></path>
            <path d="M27.8134292,6.95561756 C27.6785977,6.10168498 26.3302831,3.85449397 24.6224179,3.4949434 C21.7460135,6.91067374 17.2066876,2.32640408 16.2179236,6.596067" id="Path"></path>
        </g>
        <g id="Group-14-Copy" transform="translate(264.000000, 20.000000)">
            <path d="M39.3488372,9.39534884 L31.3953488,9.39534884 C30.6046512,9.39534884 29.9534884,8.74418605 29.9534884,7.95348837 L29.9534884,3.05533376e-13 L39.3488372,9.39534884 L39.3488372,9.39534884 Z" id="Path" stroke="#1179EF" stroke-linecap="round" stroke-linejoin="round"></path>
            <path d="M29.9069767,4.68958206e-13 L1.39534884,4.68958206e-13 C0.651162791,4.68958206e-13 -4.4408921e-13,0.604651163 -4.4408921e-13,1.39534884 L-4.4408921e-13,26.5116279 C-4.4408921e-13,27.255814 0.604651163,27.9069767 1.39534884,27.9069767 L19.4883721,27.9069767" id="Path" stroke="#1179EF" stroke-linecap="round" stroke-linejoin="round"></path>
            <path d="M39.3023256,9.39534884 L39.3023256,25.7674419 C39.3023256,26.8372093 38.4651163,27.6744186 37.3953488,27.6744186 L33.627907,27.6744186" id="Path" stroke="#1179EF" stroke-linecap="round" stroke-linejoin="round"></path>
            <circle id="Oval" stroke="#1179EF" stroke-linecap="round" stroke-linejoin="round" cx="26.4651163" cy="26.6046512" r="3.39534884"></circle>
            <circle id="Oval" stroke="#1179EF" stroke-linecap="round" stroke-linejoin="round" cx="26.4186047" cy="26.5581395" r="7.11627907"></circle>
            <polyline id="Path" stroke="#1179EF" stroke-linecap="round" stroke-linejoin="round" points="19.9069767 30.2325581 16.6976744 36.0930233 23.1162791 39.255814 26.5581395 34.1395349 29.9534884 39.255814 35.9069767 36.2790698 32.7906977 30"></polyline>
            <path d="M25.2093023,11.755814 C25.4854447,11.755814 25.7093023,11.9796716 25.7093023,12.255814 C25.7093023,12.5012738 25.5324272,12.7054223 25.299178,12.7477583 L25.2093023,12.755814 L5.44186047,12.755814 C5.16571809,12.755814 4.94186047,12.5319563 4.94186047,12.255814 C4.94186047,12.0103541 5.11873563,11.8062056 5.35198483,11.7638696 L5.44186047,11.755814 L25.2093023,11.755814 Z" id="Path" fill="#1179EF" fill-rule="nonzero"></path>
            <path d="M25.2093023,16.3139535 C25.4854447,16.3139535 25.7093023,16.5378111 25.7093023,16.8139535 C25.7093023,17.0594134 25.5324272,17.2635619 25.299178,17.3058978 L25.2093023,17.3139535 L5.44186047,17.3139535 C5.16571809,17.3139535 4.94186047,17.0900959 4.94186047,16.8139535 C4.94186047,16.5684936 5.11873563,16.3643451 5.35198483,16.3220092 L5.44186047,16.3139535 L25.2093023,16.3139535 Z" id="Path" fill="#1179EF" fill-rule="nonzero"></path>
            <polygon id="Path" stroke="#1179EF" stroke-width="0.25" fill="#1179EF" fill-rule="nonzero" points="5.55555556 4.05555556 5.55555556 8.55555556 5 8.55555556 5 4.05555556"></polygon>
            <path d="M6.55555556,4.11111111 C6.83333333,4.05555556 7.22222222,4 7.61111111,4 C8.16666667,4 8.55555556,4.11111111 8.83333333,4.33333333 C9.05555556,4.5 9.22222222,4.77777778 9.22222222,5.11111111 C9.22222222,5.55555556 8.94444444,5.94444444 8.44444444,6.11111111 L8.44444444,6.11111111 C8.88888889,6.22222222 9.38888889,6.55555556 9.38888889,7.22222222 C9.38888889,7.61111111 9.22222222,7.88888889 9,8.11111111 C8.66666667,8.38888889 8.16666667,8.55555556 7.44444444,8.55555556 C7.05555556,8.55555556 6.72222222,8.55555556 6.55555556,8.5 L6.55555556,4.11111111 L6.55555556,4.11111111 Z M7.11111111,5.94444444 L7.66666667,5.94444444 C8.27777778,5.94444444 8.66666667,5.61111111 8.66666667,5.16666667 C8.66666667,4.61111111 8.27777778,4.44444444 7.66666667,4.44444444 C7.38888889,4.44444444 7.22222222,4.44444444 7.16666667,4.5 L7.16666667,5.94444444 L7.11111111,5.94444444 Z M7.11111111,8.11111111 C7.22222222,8.11111111 7.38888889,8.11111111 7.61111111,8.11111111 C8.22222222,8.11111111 8.77777778,7.88888889 8.77777778,7.22222222 C8.77777778,6.61111111 8.22222222,6.33333333 7.61111111,6.33333333 L7.11111111,6.33333333 L7.11111111,8.11111111 Z" id="Shape" stroke="#1179EF" stroke-width="0.25" fill="#1179EF" fill-rule="nonzero"></path>
            <path d="M14,6.55555556 C13.9444444,5.94444444 13.9444444,5.16666667 13.9444444,4.61111111 L13.9444444,4.61111111 C13.7777778,5.11111111 13.6111111,5.72222222 13.3888889,6.33333333 L12.6111111,8.5 L12.1666667,8.5 L11.4444444,6.33333333 C11.2222222,5.72222222 11.0555556,5.11111111 10.9444444,4.61111111 L10.9444444,4.61111111 C10.9444444,5.16666667 10.8888889,5.94444444 10.8333333,6.61111111 L10.7222222,8.55555556 L10.1666667,8.55555556 L10.5,4.05555556 L11.2222222,4.05555556 L12,6.22222222 C12.1666667,6.77777778 12.3333333,7.27777778 12.4444444,7.72222222 L12.4444444,7.72222222 C12.5555556,7.27777778 12.7222222,6.77777778 12.9444444,6.22222222 L13.7222222,4.05555556 L14.4444444,4.05555556 L14.7222222,8.55555556 L14.1666667,8.55555556 L14,6.55555556 Z" id="Path" stroke="#1179EF" stroke-width="0.25" fill="#1179EF" fill-rule="nonzero"></path>
        </g>
        <g id="Group-16-Copy" transform="translate(324.000000, 21.000000)">
            <line x1="31.525824" y1="8.20243902" x2="31.8510273" y2="29.9829268" id="Path" stroke="#1179EF" stroke-linecap="round" stroke-linejoin="round"></line>
            <path d="M7.08912252,30.5390244 L6.67100405,1.52926829 C6.67100405,0.834146341 7.22849534,0.231707317 7.92535946,0.231707317 L23.0705395,-6.41264819e-14" id="Path" stroke="#1179EF" stroke-linecap="round" stroke-linejoin="round"></path>
            <path d="M31.525824,8.20243902 L24.4642677,8.29512195 C23.7674036,8.29512195 23.1634547,7.73902439 23.1634547,7.04390244 L23.0705395,-3.11350945e-13 L31.525824,8.20243902 L31.525824,8.20243902 Z" id="Path" stroke="#1179EF" stroke-linecap="round" stroke-linejoin="round"></path>
            <path d="M35.0566022,15.5243902 L35.2424326,29.3341463 C35.2424326,30.1682927 34.5455685,30.9097561 33.7093316,30.9097561 L5.23081822,31.3268293 C4.39458129,31.3268293 3.65125957,30.6317073 3.65125957,29.797561 L3.37251393,12.4195122 C3.37251393,11.5853659 4.06937804,10.8439024 4.90561497,10.8439024 L6.20642798,10.8439024" id="Path" stroke="#1179EF" stroke-linecap="round" stroke-linejoin="round"></path>
            <path d="M3.46542914,15.9878049 L3.65125957,29.797561 C3.65125957,30.6317073 4.39458129,31.3268293 5.23081822,31.3268293 L33.7093316,30.9097561 C34.5455685,30.9097561 35.2424326,30.1682927 35.2424326,29.3341463 L34.963687,11.9560976 C34.963687,11.1219512 34.2203653,10.4268293 33.3841283,10.4268293 L32.1297729,10.4268293" id="Path" stroke="#1179EF" stroke-linecap="round" stroke-linejoin="round"></path>
            <line x1="35.0101446" y1="31.002439" x2="39.098414" y2="36.5634146" id="Path" stroke="#1179EF" stroke-linecap="round" stroke-linejoin="round"></line>
            <path d="M39.098414,36.5634146 C39.2842445,36.795122 38.8196684,37.1195122 38.5409228,37.1195122" id="Path" stroke="#1179EF" stroke-linecap="round" stroke-linejoin="round"></path>
            <path d="M38.5409228,37.0731707 L0.631515089,37.6292683 C0.306311837,37.6292683 -0.11180663,37.3512195 0.027566192,37.1195122 L3.93000522,31.4658537" id="Path" stroke="#1179EF" stroke-linecap="round" stroke-linejoin="round"></path>
            <polyline id="Path" stroke="#1179EF" stroke-linecap="round" stroke-linejoin="round" points="11.40968 13.0682927 12.7569506 14.7829268 15.3585766 11.2609756"></polyline>
            <path d="M27.0117566,12.6860374 C27.2747152,12.6818067 27.4913234,12.8910142 27.4956279,13.1533153 C27.4993347,13.3864719 27.3340396,13.5830976 27.1125766,13.626885 L27.0271156,13.6359138 L18.3860006,13.7749382 C18.1230421,13.7791689 17.9064338,13.5699614 17.9021294,13.3076603 C17.8984226,13.0745037 18.0637177,12.8778781 18.2851807,12.8340906 L18.3706416,12.8250618 L27.0117566,12.6860374 Z" id="Path" fill="#1179EF" fill-rule="nonzero"></path>
            <polyline id="Path" stroke="#1179EF" stroke-linecap="round" stroke-linejoin="round" points="11.5025952 18.5365854 12.8034082 20.2512195 15.4514919 16.7292683"></polyline>
            <path d="M27.1046718,18.1543301 C27.3676304,18.1500994 27.5842386,18.3593069 27.5885431,18.621608 C27.5922499,18.8547646 27.4269548,19.0513902 27.2054918,19.0951777 L27.1200308,19.1042065 L18.4789158,19.2432309 C18.2159573,19.2474616 17.9993491,19.0382541 17.9950446,18.775953 C17.9913378,18.5427964 18.1566329,18.3461707 18.3780959,18.3023833 L18.4635569,18.2933545 L27.1046718,18.1543301 Z" id="Path" fill="#1179EF" fill-rule="nonzero"></path>
            <polyline id="Path" stroke="#1179EF" stroke-linecap="round" stroke-linejoin="round" points="11.5490528 24.004878 12.8498658 25.6731707 15.4979495 22.1512195"></polyline>
            <path d="M27.1536889,23.6225884 C27.4166664,23.6197678 27.6321442,23.8301337 27.635,24.0924537 C27.6374854,24.3256272 27.4711331,24.5213637 27.2494374,24.563963 L27.163929,24.5725335 L18.522814,24.6652164 C18.2598364,24.6680371 18.0443587,24.4576712 18.0415029,24.1953511 C18.0390175,23.9621777 18.2053698,23.7664412 18.4270655,23.7238418 L18.5125739,23.7152714 L27.1536889,23.6225884 Z" id="Path" fill="#1179EF" fill-rule="nonzero"></path>
        </g>
        <g id="Group-22" transform="translate(384.000000, 21.000000)">
            <path d="M35.9730094,30.7476383 C35.9730094,31.611336 35.2388664,32.3022942 34.4183536,32.3022942 L4.18893387,32.3022942 L4.18893387,10.4075574 L16.7989204,10.4075574" id="Path" stroke="#1179EF" stroke-linecap="round" stroke-linejoin="round"></path>
            <path d="M35.9730094,18.7422402 L35.9730094,32.3022942 L5.74358974,32.3022942 C4.87989204,32.3022942 4.18893387,31.5681511 4.18893387,30.7476383" id="Path" stroke="#1179EF" stroke-linecap="round" stroke-linejoin="round"></path>
            <line x1="35.7139001" y1="32.4318489" x2="39.7300945" y2="38.0890688" id="Path" stroke="#1179EF" stroke-linecap="round" stroke-linejoin="round"></line>
            <path d="M39.7300945,38.0890688 C39.902834,38.3049933 39.4709852,38.6072874 39.1255061,38.6072874" id="Path" stroke="#1179EF" stroke-linecap="round" stroke-linejoin="round"></path>
            <polyline id="Path" stroke="#1179EF" stroke-linecap="round" stroke-linejoin="round" points="39.168691 38.6072874 -3.01980663e-13 38.6072874 4.4048583 32.4318489"></polyline>
            <path d="M18.3535762,20.7287449 C17.9217274,22.3265857 16.6693657,23.5357625 15.5465587,23.5789474 C14.3805668,23.5357625 13.17139,22.3265857 12.6963563,20.7287449 L12.4804318,20.7719298 C12.2213225,20.8151147 12.0053981,20.6423752 11.9622132,20.3832659 L11.7462888,18.9581646 C11.7031039,18.6990553 11.8758435,18.439946 12.1349528,18.3967611 L12.3076923,18.3535762 C12.2213225,18.1376518 12.2213225,17.8785425 12.2213225,17.6194332 L12.2213225,17.1012146 C12.2213225,15.805668 13.2577598,14.7260459 14.4669366,14.7260459 L14.7260459,14.7260459 C14.7260459,14.682861 14.7260459,14.6396761 14.7260459,14.5964912 C14.8556005,14.2078273 15.805668,14.2078273 16.7989204,14.6396761 C17.0148448,14.7260459 17.2307692,14.8124157 17.4035088,14.8987854 C18.2240216,15.2442645 18.7854251,16.1079622 18.7854251,17.0580297 L18.7854251,17.5762483 C18.7854251,17.8353576 18.7422402,18.0512821 18.6990553,18.3103914 L18.8717949,18.3535762 C19.1309042,18.3967611 19.3036437,18.6558704 19.2604588,18.9149798 L19.0445344,20.340081 C19.0013495,20.5991903 18.7854251,20.7719298 18.5263158,20.7287449 L18.3535762,20.7287449 L18.3535762,20.7287449 Z" id="Path" stroke="#1179EF" stroke-linecap="round" stroke-linejoin="round"></path>
            <path d="M7.55735493,31.7408907 L7.16869096,27.9838057 L7.16869096,27.5951417 C7.16869096,26.6882591 8.03238866,26.1700405 8.76653171,26.0404858 C9.41430499,25.9109312 11.9190283,25.3495277 12.7395412,24.7449393 L12.782726,24.7449393" id="Path" stroke="#1179EF" stroke-linecap="round" stroke-linejoin="round"></path>
            <path d="M18.3535762,24.7449393 L18.3967611,24.7449393 C19.217274,25.3063428 21.6788124,25.8677463 22.3697706,26.0404858 C23.1039136,26.2132254 23.9676113,26.731444 23.9676113,27.5951417 L23.9676113,27.9838057 L23.5789474,31.7408907" id="Path" stroke="#1179EF" stroke-linecap="round" stroke-linejoin="round"></path>
            <path d="M29.6248313,-3.21520588e-13 C35.2388664,-3.21520588e-13 39.7732794,3.84345479 39.7732794,8.55060729 C39.7732794,13.3009447 35.2388664,17.1012146 29.6248313,17.1012146 C28.5020243,17.1012146 27.4224022,16.928475 26.4291498,16.6693657 C25.3063428,17.705803 24.6585695,18.0512821 22.585695,19.0445344 L22.585695,14.682861 C20.6855601,13.1282051 19.4763833,10.925776 19.4763833,8.5074224 C19.4763833,3.84345479 24.0539811,-3.21520588e-13 29.6248313,-3.21520588e-13 L29.6248313,-3.21520588e-13 Z" id="Path" stroke="#1179EF" stroke-linecap="round" stroke-linejoin="round"></path>
            <path d="M35.3684211,6.62550607 C35.6445634,6.62550607 35.8684211,6.8493637 35.8684211,7.12550607 C35.8684211,7.37096596 35.6915459,7.57511444 35.4582967,7.6174504 L35.3684211,7.62550607 L23.9244265,7.62550607 C23.6482841,7.62550607 23.4244265,7.40164845 23.4244265,7.12550607 C23.4244265,6.88004618 23.6013016,6.6758977 23.8345508,6.63356174 L23.9244265,6.62550607 L35.3684211,6.62550607 Z" id="Path" fill="#1179EF" fill-rule="nonzero"></path>
            <path d="M31.9136302,9.95074224 C32.1897726,9.95074224 32.4136302,10.1745999 32.4136302,10.4507422 C32.4136302,10.6962021 32.2367551,10.9003506 32.0035059,10.9426866 L31.9136302,10.9507422 L23.9244265,10.9507422 C23.6482841,10.9507422 23.4244265,10.7268846 23.4244265,10.4507422 C23.4244265,10.2052824 23.6013016,10.0011339 23.8345508,9.95879791 L23.9244265,9.95074224 L31.9136302,9.95074224 Z" id="Path" fill="#1179EF" fill-rule="nonzero"></path>
        </g>
        <g id="Group-17-Copy" transform="translate(20.000000, 20.000000)" fill="#1179EF" fill-rule="nonzero">
            <g id="Group-10">
                <path d="M38.3426966,33.8089888 L1.21910112,33.8089888 C0.538464367,33.8089888 1.42108547e-14,34.3474531 1.42108547e-14,35.0280899 L1.42108547e-14,37.994382 C1.42108547e-14,38.6750188 0.538464367,39.2134831 1.21910112,39.2134831 L38.3426966,39.2134831 C39.0233334,39.2134831 39.5617978,38.6750188 39.5617978,37.994382 L39.5617978,35.0280899 C39.5617978,34.3474531 39.0233334,33.8089888 38.3426966,33.8089888 Z M1.21910112,34.8089888 L38.3426966,34.8089888 C38.4710486,34.8089888 38.5617978,34.8997379 38.5617978,35.0280899 L38.5617978,37.994382 C38.5617978,38.122734 38.4710486,38.2134831 38.3426966,38.2134831 L1.21910112,38.2134831 C1.09074912,38.2134831 1,38.122734 1,37.994382 L1,35.0280899 C1,34.8997379 1.09074912,34.8089888 1.21910112,34.8089888 Z" id="Path"></path>
                <path d="M38.3302816,10.8240625 L20.3976973,0.172377133 C20.014637,-0.0574590442 19.5471607,-0.0574590442 19.1641004,0.172377133 L1.23341999,10.822926 C0.881029805,10.9573862 0.629213483,11.3694493 0.629213483,11.8370787 L0.629213483,14.3089888 C0.629213483,14.9896255 1.16767785,15.5280899 1.84831461,15.5280899 L37.6685393,15.5280899 C38.3285953,15.5280899 38.8564078,15.0222696 38.9295261,14.3642045 L38.9325843,11.8370787 C38.9325843,11.4279921 38.6985468,11.0450216 38.3302816,10.8240625 Z M19.8832016,1.02987006 L37.8176897,11.682692 C37.8930164,11.7278938 37.9325843,11.7926412 37.9325843,11.8370787 L37.9325843,14.3089888 C37.917243,14.4193675 37.8037936,14.5280899 37.6685393,14.5280899 L1.84831461,14.5280899 C1.7199626,14.5280899 1.62921348,14.4373408 1.62921348,14.3089888 L1.62921348,11.8370787 C1.62921348,11.7612964 1.65036478,11.7266852 1.67445938,11.7170473 L19.6766924,1.03100662 C19.7449741,0.990043314 19.8168237,0.990043314 19.8832016,1.02987006 Z" id="Path"></path>
                <path d="M33.8932584,11.1573034 C34.1694008,11.1573034 34.3932584,11.381161 34.3932584,11.6573034 C34.3932584,11.9027633 34.2163833,12.1069117 33.9831341,12.1492477 L33.8932584,12.1573034 L5.30898876,12.1573034 C5.03284639,12.1573034 4.80898876,11.9334457 4.80898876,11.6573034 C4.80898876,11.4118435 4.98586392,11.207695 5.21911313,11.165359 L5.30898876,11.1573034 L33.8932584,11.1573034 Z" id="Path"></path>
                <path d="M13.0393258,16.9213483 C13.3154682,16.9213483 13.5393258,17.1452059 13.5393258,17.4213483 C13.5393258,17.6668082 13.3624507,17.8709567 13.1292015,17.9132926 L13.0393258,17.9213483 L3.73595506,17.9213483 C3.45981268,17.9213483 3.23595506,17.6974907 3.23595506,17.4213483 C3.23595506,17.1758884 3.41283022,16.9717399 3.64607942,16.929404 L3.73595506,16.9213483 L13.0393258,16.9213483 Z" id="Path"></path>
                <path d="M24.4550562,16.9213483 C24.7311986,16.9213483 24.9550562,17.1452059 24.9550562,17.4213483 C24.9550562,17.6668082 24.778181,17.8709567 24.5449318,17.9132926 L24.4550562,17.9213483 L15.1516854,17.9213483 C14.875543,17.9213483 14.6516854,17.6974907 14.6516854,17.4213483 C14.6516854,17.1758884 14.8285606,16.9717399 15.0618098,16.929404 L15.1516854,16.9213483 L24.4550562,16.9213483 Z" id="Path"></path>
                <path d="M35.8258427,16.9213483 C36.1019851,16.9213483 36.3258427,17.1452059 36.3258427,17.4213483 C36.3258427,17.6668082 36.1489675,17.8709567 35.9157183,17.9132926 L35.8258427,17.9213483 L26.5224719,17.9213483 C26.2463295,17.9213483 26.0224719,17.6974907 26.0224719,17.4213483 C26.0224719,17.1758884 26.1993471,16.9717399 26.4325963,16.929404 L26.5224719,16.9213483 L35.8258427,16.9213483 Z" id="Path"></path>
                <path d="M13.0393258,31.4157303 C13.3154682,31.4157303 13.5393258,31.639588 13.5393258,31.9157303 C13.5393258,32.1611902 13.3624507,32.3653387 13.1292015,32.4076747 L13.0393258,32.4157303 L3.73595506,32.4157303 C3.45981268,32.4157303 3.23595506,32.1918727 3.23595506,31.9157303 C3.23595506,31.6702704 3.41283022,31.466122 3.64607942,31.423786 L3.73595506,31.4157303 L13.0393258,31.4157303 Z" id="Path"></path>
                <path d="M24.4550562,31.4157303 C24.7311986,31.4157303 24.9550562,31.639588 24.9550562,31.9157303 C24.9550562,32.1611902 24.778181,32.3653387 24.5449318,32.4076747 L24.4550562,32.4157303 L15.1516854,32.4157303 C14.875543,32.4157303 14.6516854,32.1918727 14.6516854,31.9157303 C14.6516854,31.6702704 14.8285606,31.466122 15.0618098,31.423786 L15.1516854,31.4157303 L24.4550562,31.4157303 Z" id="Path"></path>
                <path d="M35.8258427,31.4157303 C36.1019851,31.4157303 36.3258427,31.639588 36.3258427,31.9157303 C36.3258427,32.1611902 36.1489675,32.3653387 35.9157183,32.4076747 L35.8258427,32.4157303 L26.5224719,32.4157303 C26.2463295,32.4157303 26.0224719,32.1918727 26.0224719,31.9157303 C26.0224719,31.6702704 26.1993471,31.466122 26.4325963,31.423786 L26.5224719,31.4157303 L35.8258427,31.4157303 Z" id="Path"></path>
            </g>
            <polygon id="Line-2" points="35.5 17.5 35.5 31.5 34.5 31.5 34.5 17.5"></polygon>
            <polygon id="Line-2-Copy" points="28 17.5 28 31.5 27 31.5 27 17.5"></polygon>
            <polygon id="Line-2-Copy-3" points="24 17.5 24 31.5 23 31.5 23 17.5"></polygon>
            <polygon id="Line-2-Copy-2" points="16.5 17.5 16.5 31.5 15.5 31.5 15.5 17.5"></polygon>
            <polygon id="Line-2-Copy-5" points="12.5 17.5 12.5 31.5 11.5 31.5 11.5 17.5"></polygon>
            <polygon id="Line-2-Copy-4" points="5.5 17.5 5.5 31.5 4.5 31.5 4.5 17.5"></polygon>
        </g>
        <g id="Group-12-Copy" transform="translate(145.000000, 21.000000)">
            <path d="M15.5918367,9.54081633 C15.8679791,9.54081633 16.0918367,9.76467395 16.0918367,10.0408163 C16.0918367,10.2862762 15.9149616,10.4904247 15.6817124,10.5327607 L15.5918367,10.5408163 L7.3877551,10.5408163 C7.11161273,10.5408163 6.8877551,10.3169587 6.8877551,10.0408163 C6.8877551,9.79535644 7.06463026,9.59120796 7.29787947,9.548872 L7.3877551,9.54081633 L15.5918367,9.54081633 Z" id="Path" fill="#1179EF" fill-rule="nonzero"></path>
            <path d="M15.5918367,13.622449 C15.8679791,13.622449 16.0918367,13.8463066 16.0918367,14.122449 C16.0918367,14.3679089 15.9149616,14.5720573 15.6817124,14.6143933 L15.5918367,14.622449 L7.3877551,14.622449 C7.11161273,14.622449 6.8877551,14.3985914 6.8877551,14.122449 C6.8877551,13.8769891 7.06463026,13.6728406 7.29787947,13.6305046 L7.3877551,13.622449 L15.5918367,13.622449 Z" id="Path" fill="#1179EF" fill-rule="nonzero"></path>
            <path d="M15.5918367,17.6632653 C15.8679791,17.6632653 16.0918367,17.8871229 16.0918367,18.1632653 C16.0918367,18.4087252 15.9149616,18.6128737 15.6817124,18.6552096 L15.5918367,18.6632653 L7.3877551,18.6632653 C7.11161273,18.6632653 6.8877551,18.4394077 6.8877551,18.1632653 C6.8877551,17.9178054 7.06463026,17.7136569 7.29787947,17.671321 L7.3877551,17.6632653 L15.5918367,17.6632653 Z" id="Path" fill="#1179EF" fill-rule="nonzero"></path>
            <path d="M15.5918367,21.7040816 C15.8679791,21.7040816 16.0918367,21.9279393 16.0918367,22.2040816 C16.0918367,22.4495415 15.9149616,22.65369 15.6817124,22.696026 L15.5918367,22.7040816 L7.3877551,22.7040816 C7.11161273,22.7040816 6.8877551,22.480224 6.8877551,22.2040816 C6.8877551,21.9586217 7.06463026,21.7544733 7.29787947,21.7121373 L7.3877551,21.7040816 L15.5918367,21.7040816 Z" id="Path" fill="#1179EF" fill-rule="nonzero"></path>
            <path d="M3.46938776,5.95918367 C7.06122449,5.95918367 13.9183673,5.95918367 17.5102041,5.95918367 L19.4693878,7.95918367 C19.4693878,14.8979592 19.4693878,21.5102041 19.4693878,28.4489796 L17.5102041,26.4489796 C13.9183673,26.4489796 7.06122449,26.4489796 3.46938776,26.4489796 C3.46938776,19.4693878 3.46938776,12.8979592 3.46938776,5.95918367 L3.46938776,5.95918367 Z" id="Path" stroke="#1179EF" stroke-linecap="round" stroke-linejoin="round"></path>
            <line x1="21.5918367" y1="5.95918367" x2="19.6734694" y2="7.95918367" id="Path" stroke="#1179EF" stroke-linecap="round" stroke-linejoin="round"></line>
            <line x1="19.6734694" y1="28.4489796" x2="21.5918367" y2="26.4489796" id="Path" stroke="#1179EF" stroke-linecap="round" stroke-linejoin="round"></line>
            <path d="M21.5918367,26.4489796 C25.1836735,26.4489796 32.0408163,26.4489796 35.6326531,26.4489796 C35.6326531,19.5102041 35.6326531,12.8979592 35.6326531,5.95918367 C32.0408163,5.95918367 25.1836735,5.95918367 21.5918367,5.95918367" id="Path" stroke="#1179EF" stroke-linecap="round" stroke-linejoin="round"></path>
            <polyline id="Path" stroke="#1179EF" stroke-linecap="round" stroke-linejoin="round" points="35.6326531 9.18367347 38.7755102 9.18367347 38.7755102 29.6326531 5.93303184e-13 29.6326531 5.93303184e-13 9.10204082 3.46938776 9.10204082"></polyline>
            <path d="M31.755102,9.54081633 C32.0312444,9.54081633 32.255102,9.76467395 32.255102,10.0408163 C32.255102,10.2862762 32.0782269,10.4904247 31.8449777,10.5327607 L31.755102,10.5408163 L23.5510204,10.5408163 C23.274878,10.5408163 23.0510204,10.3169587 23.0510204,10.0408163 C23.0510204,9.79535644 23.2278956,9.59120796 23.4611448,9.548872 L23.5510204,9.54081633 L31.755102,9.54081633 Z" id="Path" fill="#1179EF" fill-rule="nonzero"></path>
            <path d="M31.755102,13.622449 C32.0312444,13.622449 32.255102,13.8463066 32.255102,14.122449 C32.255102,14.3679089 32.0782269,14.5720573 31.8449777,14.6143933 L31.755102,14.622449 L23.5510204,14.622449 C23.274878,14.622449 23.0510204,14.3985914 23.0510204,14.122449 C23.0510204,13.8769891 23.2278956,13.6728406 23.4611448,13.6305046 L23.5510204,13.622449 L31.755102,13.622449 Z" id="Path" fill="#1179EF" fill-rule="nonzero"></path>
            <path d="M31.755102,17.6632653 C32.0312444,17.6632653 32.255102,17.8871229 32.255102,18.1632653 C32.255102,18.4087252 32.0782269,18.6128737 31.8449777,18.6552096 L31.755102,18.6632653 L23.5510204,18.6632653 C23.274878,18.6632653 23.0510204,18.4394077 23.0510204,18.1632653 C23.0510204,17.9178054 23.2278956,17.7136569 23.4611448,17.671321 L23.5510204,17.6632653 L31.755102,17.6632653 Z" id="Path" fill="#1179EF" fill-rule="nonzero"></path>
            <path d="M11.2653061,5.3877551 C11.2653061,4.32653061 11.5102041,3.14285714 12.5714286,3.14285714 L25.9183673,3.14285714 C26.9795918,3.14285714 27.5510204,4.32653061 27.5510204,5.3877551" id="Path" stroke="#1179EF" stroke-linecap="round" stroke-linejoin="round"></path>
            <path d="M27.5510204,30.244898 C27.5510204,31.3061224 26.9795918,32.4897959 25.9183673,32.4897959 L12.5714286,32.4897959 C11.5102041,32.4897959 11.2653061,31.3061224 11.2653061,30.244898" id="Path" stroke="#1179EF" stroke-linecap="round" stroke-linejoin="round"></path>
            <line x1="21.3469388" y1="35.4693878" x2="17.4285714" y2="35.4693878" id="Path" stroke="#1179EF" stroke-linecap="round" stroke-linejoin="round"></line>
            <path d="M8.12244898,29.9591837 L8.12244898,35.4285714 C8.12244898,37.1428571 9.55102041,38.5714286 11.2653061,38.5714286 L27.5510204,38.5714286 C29.2653061,38.5714286 30.6938776,37.1428571 30.6938776,35.4285714 L30.6938776,30.2040816" id="Path" stroke="#1179EF" stroke-linecap="round" stroke-linejoin="round"></path>
            <path d="M30.6938776,5.26530612 L30.6938776,3.14285714 C30.6938776,1.42857143 29.2653061,5.42677014e-13 27.5510204,5.42677014e-13 L11.2653061,5.42677014e-13 C9.55102041,5.42677014e-13 8.12244898,1.42857143 8.12244898,3.14285714 L8.12244898,5.26530612" id="Path" stroke="#1179EF" stroke-linecap="round" stroke-linejoin="round"></path>
        </g>
        <g id="Group-13-Copy" transform="translate(204.000000, 22.000000)">
            <path d="M13.6868687,25.3629931 L13.6868687,23.5803975 C13.6868687,22.4217103 11.2177329,20.9065041 9.19753086,20.9065041 C7.17732884,20.9065041 4.70819304,22.4217103 4.70819304,23.5803975 L4.70819304,25.3629931" id="Path" stroke="#1179EF" stroke-linecap="round" stroke-linejoin="round"></path>
            <path d="M9.19753086,14.7119843 C7.80583614,14.7119843 6.50392817,15.7369768 6.50392817,16.9402288 L6.50392817,18.6782596 C6.50392817,19.9260765 7.80583614,20.9065041 9.19753086,20.9065041 C10.5892256,20.9065041 11.8911336,19.8815116 11.8911336,18.6782596 L11.8911336,16.9402288 C11.8911336,15.6924119 10.5892256,14.7119843 9.19753086,14.7119843 Z" id="Path" stroke="#1179EF" stroke-linecap="round" stroke-linejoin="round"></path>
            <path d="M39.5454545,9.02439024 L0.454545455,9.02439024 C0.203506932,9.02439024 0,9.2264081 0,9.47560976 L0,36.5487805 C0,36.7979821 0.203506932,37 0.454545455,37 L39.5454545,37 C39.7964931,37 40,36.7979821 40,36.5487805 L40,9.47560976 C40,9.2264081 39.7964931,9.02439024 39.5454545,9.02439024 Z M39.0909091,9.92682927 L39.0909091,36.097561 L0.909090909,36.097561 L0.909090909,9.92682927 L39.0909091,9.92682927 Z" id="Rectangle" fill="#1179EF" fill-rule="nonzero"></path>
            <path d="M37.7272727,4.51219512 C37.9504181,4.51219512 38.1360076,4.67181417 38.1744948,4.88230736 L38.1818182,4.96341463 L38.1818182,7.67073171 C38.1818182,7.91993336 37.9783112,8.12195122 37.7272727,8.12195122 C37.5041274,8.12195122 37.3185378,7.96233217 37.2800506,7.75183899 L37.2727273,7.67073171 L37.2727273,5.41463415 L3.63636364,5.41463415 L3.63636364,7.67073171 C3.63636364,7.89224429 3.47556804,8.07647585 3.2635233,8.11468147 L3.18181818,8.12195122 C2.95867283,8.12195122 2.7730833,7.96233217 2.73459606,7.75183899 L2.72727273,7.67073171 L2.72727273,4.96341463 C2.72727273,4.74190205 2.88806833,4.5576705 3.10011306,4.51946487 L3.18181818,4.51219512 L37.7272727,4.51219512 Z" id="Path" fill="#1179EF" fill-rule="nonzero"></path>
            <path d="M35,0 C35.2231454,0 35.4087349,0.159619047 35.4472221,0.370112234 L35.4545455,0.451219512 L35.4545455,3.15853659 C35.4545455,3.40773824 35.2510385,3.6097561 35,3.6097561 C34.7768546,3.6097561 34.5912651,3.45013705 34.5527779,3.23964386 L34.5454545,3.15853659 L34.5454545,0.902439024 L6.36363636,0.902439024 L6.36363636,3.15853659 C6.36363636,3.38004917 6.20284076,3.56428072 5.99079603,3.60248635 L5.90909091,3.6097561 C5.68594556,3.6097561 5.50035603,3.45013705 5.46186879,3.23964386 L5.45454545,3.15853659 L5.45454545,0.451219512 C5.45454545,0.22970693 5.61534106,0.0454753731 5.82738579,0.00726975045 L5.90909091,0 L35,0 Z" id="Path" fill="#1179EF" fill-rule="nonzero"></path>
            <path d="M35.4538031,28.4268293 C35.7048413,28.4264027 35.9086803,28.6381317 35.9090909,28.8997399 C35.9094547,29.1322805 35.7489624,29.3259577 35.5369808,29.3664263 L35.4552878,29.374197 L4.52936184,29.4268293 C4.27832366,29.4272558 4.07448465,29.2155268 4.07407406,28.9539186 C4.07371026,28.721378 4.23420256,28.5277008 4.44618416,28.4872322 L4.52787721,28.4794615 L35.4538031,28.4268293 Z" id="Path" fill="#1179EF" fill-rule="nonzero"></path>
            <polygon id="Path" stroke="#1179EF" stroke-width="0.25" fill="#1179EF" fill-rule="nonzero" points="18.030303 15.3358928 18.030303 18.9456489 17.5813692 18.9456489 17.5813692 15.3358928"></polygon>
            <polygon id="Path" stroke="#1179EF" stroke-width="0.25" fill="#1179EF" fill-rule="nonzero" points="19.2873176 15.3358928 19.2873176 18.9456489 18.8383838 18.9456489 18.8383838 15.3358928"></polygon>
            <path d="M23.1930415,17.3858777 C23.1481481,16.895664 23.1481481,16.2717555 23.1481481,15.8261066 L23.1481481,15.8261066 C23.013468,16.2271906 22.8787879,16.7174044 22.6992144,17.2076182 L22.0707071,18.9456489 L21.71156,18.9456489 L21.1279461,17.2076182 C20.9483726,16.7174044 20.8136925,16.2271906 20.7239057,15.8261066 L20.7239057,15.8261066 C20.7239057,16.2717555 20.6790123,16.895664 20.634119,17.4304426 L20.5443322,18.9902138 L20.0953984,18.9902138 L20.3647587,15.3804577 L20.9483726,15.3804577 L21.5768799,17.1184884 C21.71156,17.5641373 21.8462402,17.9652213 21.9360269,18.3217404 L21.9360269,18.3217404 C22.0258137,17.9652213 22.1604938,17.5641373 22.3400673,17.1184884 L22.9685746,15.3804577 L23.5521886,15.3804577 L23.7766554,18.9902138 L23.3277217,18.9902138 L23.1930415,17.3858777 Z" id="Path" stroke="#1179EF" stroke-width="0.25" fill="#1179EF" fill-rule="nonzero"></path>
            <path d="M26.3804714,15.3358928 L26.8294052,15.3358928 L26.8294052,17.7423969 C26.8294052,18.7228245 26.335578,18.9902138 25.7070707,18.9902138 C25.5274972,18.9902138 25.3030303,18.9456489 25.2132435,18.901084 L25.3030303,18.5 C25.3928171,18.5445649 25.5274972,18.5891298 25.7070707,18.5891298 C26.1111111,18.5891298 26.3804714,18.4108702 26.3804714,17.697832 L26.3804714,15.3358928 Z" id="Path" stroke="#1179EF" stroke-width="0.25" fill="#1179EF" fill-rule="nonzero"></path>
            <path d="M30.7351291,17.1184884 C30.7351291,18.3663053 29.9719416,19.0347787 29.0291807,19.0347787 C28.0864198,19.0347787 27.4130191,18.2771755 27.4130191,17.2076182 C27.4130191,16.048931 28.1313131,15.2913279 29.1189675,15.2913279 C30.0617284,15.2913279 30.7351291,16.048931 30.7351291,17.1184884 Z M27.9068462,17.1630533 C27.9068462,17.9206564 28.3108866,18.6336947 29.0740741,18.6336947 C29.8372615,18.6336947 30.2413019,17.9652213 30.2413019,17.1184884 C30.2413019,16.4054502 29.8821549,15.647847 29.0740741,15.647847 C28.2659933,15.6924119 27.9068462,16.4054502 27.9068462,17.1630533 Z" id="Shape" stroke="#1179EF" stroke-width="0.25" fill="#1179EF" fill-rule="nonzero"></path>
            <path d="M31.318743,15.3804577 C31.5432099,15.3358928 31.8574635,15.2913279 32.1717172,15.2913279 C32.620651,15.2913279 32.9349046,15.3804577 33.1593715,15.5587173 C33.338945,15.6924119 33.4736251,15.9152364 33.4736251,16.1826257 C33.4736251,16.5391448 33.2491582,16.8510991 32.8451178,16.9847937 L32.8451178,16.9847937 C33.2042649,17.0739235 33.6083053,17.3413129 33.6083053,17.8760915 C33.6083053,18.1880458 33.4736251,18.4108702 33.2940516,18.5891298 C33.0246914,18.8119542 32.620651,18.9456489 32.037037,18.9456489 C31.7227834,18.9456489 31.4534231,18.9456489 31.318743,18.901084 L31.318743,15.3804577 L31.318743,15.3804577 Z M31.8125701,16.895664 L32.2615039,16.895664 C32.7553311,16.895664 33.0695847,16.6282746 33.0695847,16.2717555 C33.0695847,15.8261066 32.7553311,15.6924119 32.2615039,15.6924119 C32.037037,15.6924119 31.9023569,15.6924119 31.8574635,15.7369768 L31.8574635,16.895664 L31.8125701,16.895664 Z M31.8125701,18.5891298 C31.9023569,18.5891298 32.037037,18.5891298 32.2166105,18.5891298 C32.7104377,18.5891298 33.1593715,18.4108702 33.1593715,17.8760915 C33.1593715,17.3858777 32.7104377,17.1630533 32.2166105,17.1630533 L31.8125701,17.1630533 L31.8125701,18.5891298 Z" id="Shape" stroke="#1179EF" stroke-width="0.25" fill="#1179EF" fill-rule="nonzero"></path>
            <path d="M34.1919192,18.4108702 C34.4163861,18.5445649 34.7306397,18.6336947 35.0448934,18.6336947 C35.5387205,18.6336947 35.8080808,18.3663053 35.8080808,18.0097862 C35.8080808,17.6532671 35.6285073,17.4750075 35.1346801,17.296748 C34.5510662,17.0739235 34.1919192,16.7619693 34.1919192,16.2717555 C34.1919192,15.6924119 34.640853,15.2913279 35.359147,15.2913279 C35.7182941,15.2913279 35.9876543,15.3804577 36.1672278,15.4695875 L36.0325477,15.8706715 C35.8978676,15.8261066 35.6734007,15.6924119 35.359147,15.6924119 C34.8653199,15.6924119 34.6857464,16.0043662 34.6857464,16.2271906 C34.6857464,16.5837097 34.9102132,16.7174044 35.4040404,16.9402288 C36.0325477,17.1630533 36.3468013,17.4750075 36.3468013,18.0097862 C36.3468013,18.5445649 35.9427609,19.0347787 35.0897868,19.0347787 C34.7306397,19.0347787 34.3714927,18.9456489 34.1470258,18.8119542 L34.1919192,18.4108702 Z" id="Path" stroke="#1179EF" stroke-width="0.25" fill="#1179EF" fill-rule="nonzero"></path>
            <path d="M35.4938272,24.0650407 C35.7448657,24.0650407 35.9483726,24.2888983 35.9483726,24.5650407 C35.9483726,24.8105005 35.787577,25.014649 35.5755323,25.056985 L35.4938272,25.0650407 L17.9854097,25.0650407 C17.7343711,25.0650407 17.5308642,24.841183 17.5308642,24.5650407 C17.5308642,24.3195808 17.6916598,24.1154323 17.9037045,24.0730963 L17.9854097,24.0650407 L35.4938272,24.0650407 Z" id="Path" fill="#1179EF" fill-rule="nonzero"></path>
        </g>
        <g id="Group-Copy" transform="translate(97.000000, 90.000000)" fill="#FFFFFF" fill-rule="nonzero">
            <polygon id="Line" points="10.3888889 14.6666667 10.3888889 15.2777778 11.6111111 15.2777778 11.6111111 14.6666667 11.6111111 1.22222222 11.6111111 0.611111111 10.3888889 0.611111111 10.3888889 1.22222222"></polygon>
            <polygon id="Line" points="16.3210097 11.4321208 16.7531305 11 15.8888889 10.1357584 15.4567681 10.5678792 10.5678792 15.4567681 10.1357584 15.8888889 11 16.7531305 11.4321208 16.3210097"></polygon>
            <polygon id="Line" points="6.54323192 10.5678792 6.11111111 10.1357584 5.24686949 11 5.6789903 11.4321208 10.5678792 16.3210097 11 16.7531305 11.8642416 15.8888889 11.4321208 15.4567681"></polygon>
            <polygon id="Path-4" points="0.611111111 20.7777778 0.611111111 21.3888889 1.22222222 21.3888889 20.7777778 21.3888889 21.3888889 21.3888889 21.3888889 20.7777778 21.3888889 17.1111111 20.1666667 17.1111111 20.1666667 20.7777778 20.7777778 20.1666667 1.22222222 20.1666667 1.83333333 20.7777778 1.83333333 17.1111111 0.611111111 17.1111111"></polygon>
        </g>
        <g id="Group-Copy" transform="translate(149.000000, 90.000000)" fill="#1179EF" fill-rule="nonzero">
            <polygon id="Line" points="10.3888889 14.6666667 10.3888889 15.2777778 11.6111111 15.2777778 11.6111111 14.6666667 11.6111111 1.22222222 11.6111111 0.611111111 10.3888889 0.611111111 10.3888889 1.22222222"></polygon>
            <polygon id="Line" points="16.3210097 11.4321208 16.7531305 11 15.8888889 10.1357584 15.4567681 10.5678792 10.5678792 15.4567681 10.1357584 15.8888889 11 16.7531305 11.4321208 16.3210097"></polygon>
            <polygon id="Line" points="6.54323192 10.5678792 6.11111111 10.1357584 5.24686949 11 5.6789903 11.4321208 10.5678792 16.3210097 11 16.7531305 11.8642416 15.8888889 11.4321208 15.4567681"></polygon>
            <polygon id="Path-4" points="0.611111111 20.7777778 0.611111111 21.3888889 1.22222222 21.3888889 20.7777778 21.3888889 21.3888889 21.3888889 21.3888889 20.7777778 21.3888889 17.1111111 20.1666667 17.1111111 20.1666667 20.7777778 20.7777778 20.1666667 1.22222222 20.1666667 1.83333333 20.7777778 1.83333333 17.1111111 0.611111111 17.1111111"></polygon>
        </g>
        <polygon id="Shape" fill="#FFFFFF" transform="translate(64.000000, 101.500000) rotate(90.000000) translate(-64.000000, -101.500000) " points="64 98 58 103.675676 59.4 105 64 100.648649 68.6 105 70 103.675676"></polygon>
        <polyline id="Path-2" stroke="#848DA0" stroke-width="1.5" points="20 99 25 104 30 99"></polyline>
    </g>
</svg>