<?xml version="1.0" encoding="UTF-8"?>
<svg width="327px" height="398px" viewBox="0 0 327 398" version="1.1" xmlns="http://www.w3.org/2000/svg" xmlns:xlink="http://www.w3.org/1999/xlink">
    <title>Sprite image blue</title>
    <defs>
        <ellipse id="path-1" cx="29.855352" cy="29.9358517" rx="29.855352" ry="29.9358517"></ellipse>
        <filter x="-102.2%" y="-98.5%" width="304.3%" height="303.8%" filterUnits="objectBoundingBox" id="filter-2">
            <feOffset dx="0" dy="2" in="SourceAlpha" result="shadowOffsetOuter1"></feOffset>
            <feGaussianBlur stdDeviation="20" in="shadowOffsetOuter1" result="shadowBlurOuter1"></feGaussianBlur>
            <feComposite in="shadowBlurOuter1" in2="SourceAlpha" operator="out" result="shadowBlurOuter1"></feComposite>
            <feColorMatrix values="0 0 0 0 0   0 0 0 0 0   0 0 0 0 0  0 0 0 0.75 0" type="matrix" in="shadowBlurOuter1"></feColorMatrix>
        </filter>
    </defs>
    <g id="Sprite-image-blue" stroke="none" stroke-width="1" fill="none" fill-rule="evenodd">
        <g id="Group" transform="translate(80.000000, 22.000000)">
            <polygon id="Shape" points="0 0 38 0 38 38 0 38"></polygon>
            <polygon id="Shape-Copy" fill="#D2D6DE" points="31 17.25 12.8938889 17.25 17.4683333 12.7625 15.6666667 11 8 18.5 15.6666667 26 17.4683333 24.2375 12.8938889 19.75 31 19.75"></polygon>
            <path d="M197,38 C207.49341,38 216,29.4934102 216,19 C216,8.50658975 207.49341,0 197,0 C186.50659,0 178,8.50658975 178,19 C178,29.4934102 186.50659,38 197,38 Z" id="Oval" fill="#DDE6ED"></path>
            <polygon id="Shape" fill="#1179EF" transform="translate(197.500000, 18.500000) scale(-1, 1) translate(-197.500000, -18.500000) " points="209 17.25 190.893889 17.25 195.468333 12.7625 193.666667 11 186 18.5 193.666667 26 195.468333 24.2375 190.893889 19.75 209 19.75"></polygon>
            <rect id="Rectangle" fill="#D2D6DE" x="58" y="17" width="100" height="5" rx="2.5"></rect>
            <rect id="Rectangle" fill="#1179EF" x="58" y="17" width="40" height="5" rx="2.5"></rect>
        </g>
        <polygon id="Shape-Copy-2" fill="#1179EF" transform="translate(231.500000, 115.500000) scale(-1, 1) translate(-231.500000, -115.500000) " points="243 114.25 224.893889 114.25 229.468333 109.7625 227.666667 108 220 115.5 227.666667 123 229.468333 121.2375 224.893889 116.75 243 116.75"></polygon>
        <g id="Icon-24px" transform="translate(263.000000, 152.000000)">
            <polygon id="Shape" points="0 0 24 0 24 24 0 24"></polygon>
            <path d="M15.5654716,15.3475769 C15.6916388,15.2214098 15.8804385,15.1775338 16.0432148,15.2333428 C17.1714451,15.6060932 18.3686438,15.7989474 19.5789474,15.7989474 C19.8383914,15.7989474 20.0526316,16.0131875 20.0526316,16.2726316 L20.0526316,19.5789474 C20.0526316,19.8383914 19.8383914,20.0526316 19.5789474,20.0526316 C10.9447665,20.0526316 3.94736842,13.0552335 3.94736842,4.42105263 C3.94736842,4.16160857 4.16160857,3.94736842 4.42105263,3.94736842 L7.73684211,3.94736842 C7.99628617,3.94736842 8.21052632,4.16160857 8.21052632,4.42105263 C8.21052632,5.6373763 8.40227075,6.8251957 8.77443426,7.9517447 C8.82724388,8.11994276 8.78453797,8.30241351 8.6524231,8.43452837 L6.56821258,10.5187389 L6.32500105,10.7619504 L6.48098414,11.0685005 C7.88695751,13.8316287 10.1535697,16.095697 12.930317,17.5184121 L13.237332,17.6757166 L13.4812611,17.4317874 L15.5654716,15.3475769 Z M13.3623146,16.6752721 C10.7625542,15.3432394 8.64052881,13.2235956 7.32533165,10.6388679 L7.23810321,11.1886295 L9.32231374,9.104419 C9.70677782,8.71995492 9.83572146,8.16901394 9.67610229,7.66113477 C9.33344583,6.62374438 9.15789474,5.53623956 9.15789474,4.42105263 C9.15789474,3.63839143 8.5195033,3 7.73684211,3 L4.42105263,3 C3.63839143,3 3,3.63839143 3,4.42105263 C3,13.5784507 10.4215493,21 19.5789474,21 C20.3616086,21 21,20.3616086 21,19.5789474 L21,16.2726316 C21,15.4899704 20.3616086,14.8515789 19.5789474,14.8515789 C18.4696748,14.8515789 17.3727968,14.6748852 16.3454289,14.3354869 C15.8452168,14.163954 15.2773424,14.2959248 14.895581,14.6776863 L12.8113705,16.7618968 L13.3623146,16.6752721 Z" id="Shape" fill="#FFFFFF" fill-rule="nonzero"></path>
        </g>
        <g id="Icon-24px" transform="translate(263.000000, 108.000000)">
            <polygon id="Shape" points="0 0 24 0 24 24 0 24"></polygon>
            <path d="M18.6666667,5.80952381 L18.1904762,5.80952381 L18.1904762,6.28571429 L18.1904762,14.8571429 L18.6666667,14.3809524 L6.28571429,14.3809524 L5.80952381,14.3809524 L5.80952381,14.8571429 L5.80952381,16.7619048 C5.80952381,17.548707 6.45129298,18.1904762 7.23809524,18.1904762 L17.7142857,18.1904762 L17.3775682,18.0510032 L21.187092,21.860527 L22,22.673435 L22,21.5238095 L22,7.23809524 C22,6.45129298 21.3582308,5.80952381 20.5714286,5.80952381 L18.6666667,5.80952381 Z M21.047619,7.23809524 L21.047619,21.5238095 L21.860527,21.187092 L18.0510032,17.3775682 L17.9115303,17.2380952 L17.7142857,17.2380952 L7.23809524,17.2380952 C6.97727845,17.2380952 6.76190476,17.0227215 6.76190476,16.7619048 L6.76190476,14.8571429 L6.28571429,15.3333333 L18.6666667,15.3333333 L19.1428571,15.3333333 L19.1428571,14.8571429 L19.1428571,6.28571429 L18.6666667,6.76190476 L20.5714286,6.76190476 C20.8322454,6.76190476 21.047619,6.97727845 21.047619,7.23809524 Z M17.2380952,3.42857143 C17.2380952,2.64176917 16.5963261,2 15.8095238,2 L3.42857143,2 C2.64176917,2 2,2.64176917 2,3.42857143 L2,16.7619048 L2,17.9115303 L2.81290799,17.0986223 L6.6224318,13.2890985 L6.28571429,13.4285714 L15.8095238,13.4285714 C16.5963261,13.4285714 17.2380952,12.7868023 17.2380952,12 L17.2380952,3.42857143 Z M15.8095238,12.4761905 L6.28571429,12.4761905 L6.08846973,12.4761905 L5.94899677,12.6156634 L2.13947296,16.4251872 L2.95238095,16.7619048 L2.95238095,3.42857143 C2.95238095,3.16775464 3.16775464,2.95238095 3.42857143,2.95238095 L15.8095238,2.95238095 C16.0703406,2.95238095 16.2857143,3.16775464 16.2857143,3.42857143 L16.2857143,12 C16.2857143,12.2608168 16.0703406,12.4761905 15.8095238,12.4761905 Z" id="Shape" fill="#FFFFFF" fill-rule="nonzero"></path>
        </g>
        <polygon id="Shape-Copy-3" fill="#1179EF" points="200 114.25 181.893889 114.25 186.468333 109.7625 184.666667 108 177 115.5 184.666667 123 186.468333 121.2375 181.893889 116.75 200 116.75"></polygon>
        <g id="Group-8" transform="translate(50.000000, 293.000000)">
            <g id="Oval-6">
                <use fill="black" fill-opacity="1" filter="url(#filter-2)" xlink:href="#path-1"></use>
                <ellipse stroke-opacity="0.85" stroke="#FFFFFF" stroke-width="1" stroke-linejoin="square" fill="#FFFFFF" fill-rule="evenodd" cx="29.855352" cy="29.9358517" rx="29.355352" ry="29.4358517"></ellipse>
            </g>
            <polygon id="Path-56" fill="#1179EF" points="25.4687103 19.5580898 25.4687103 40.733766 38.6679186 30.1459279"></polygon>
        </g>
        <polygon id="Path" fill="#F1B006" transform="translate(86.500000, 86.500000) scale(-1, 1) translate(-86.500000, -86.500000) " points="86.5 90.7793349 82.4827791 93 83.25 88.2965558 80 84.9655581 84.4913895 84.2793349 86.5 80 88.5086105 84.2793349 93 84.9655581 89.75 88.2965558 90.5172209 93"></polygon>
        <polygon id="Path" fill="#F1B006" transform="translate(102.500000, 86.500000) scale(-1, 1) translate(-102.500000, -86.500000) " points="102.5 90.7793349 98.4827791 93 99.25 88.2965558 96 84.9655581 100.49139 84.2793349 102.5 80 104.50861 84.2793349 109 84.9655581 105.75 88.2965558 106.517221 93"></polygon>
        <polygon id="Path" fill="#F1B006" transform="translate(119.500000, 86.500000) scale(-1, 1) translate(-119.500000, -86.500000) " points="119.5 90.7793349 115.482779 93 116.25 88.2965558 113 84.9655581 117.49139 84.2793349 119.5 80 121.50861 84.2793349 126 84.9655581 122.75 88.2965558 123.517221 93"></polygon>
        <polygon id="Path-Copy" fill="#F1B006" transform="translate(135.500000, 86.500000) scale(-1, 1) translate(-135.500000, -86.500000) " points="135.5 90.7793349 131.482779 93 132.25 88.2965558 129 84.9655581 133.49139 84.2793349 135.5 80 137.50861 84.2793349 142 84.9655581 138.75 88.2965558 139.517221 93"></polygon>
        <polygon id="Path-Copy-2" fill="#F1B006" transform="translate(151.500000, 86.500000) scale(-1, 1) translate(-151.500000, -86.500000) " points="151.5 90.7793349 147.482779 93 148.25 88.2965558 145 84.9655581 149.49139 84.2793349 151.5 80 153.50861 84.2793349 158 84.9655581 154.75 88.2965558 155.517221 93"></polygon>
        <polygon id="Path-Copy-7" fill="#E2EDF9" transform="translate(85.500000, 114.500000) scale(-1, 1) translate(-85.500000, -114.500000) " points="85.5 118.779335 81.4827791 121 82.25 116.296556 79 112.965558 83.4913895 112.279335 85.5 108 87.5086105 112.279335 92 112.965558 88.75 116.296556 89.5172209 121"></polygon>
        <polygon id="Path-Copy-6" fill="#E2EDF9" transform="translate(101.500000, 114.500000) scale(-1, 1) translate(-101.500000, -114.500000) " points="101.5 118.779335 97.4827791 121 98.25 116.296556 95 112.965558 99.4913895 112.279335 101.5 108 103.50861 112.279335 108 112.965558 104.75 116.296556 105.517221 121"></polygon>
        <polygon id="Path-Copy-5" fill="#E2EDF9" transform="translate(118.500000, 114.500000) scale(-1, 1) translate(-118.500000, -114.500000) " points="118.5 118.779335 114.482779 121 115.25 116.296556 112 112.965558 116.49139 112.279335 118.5 108 120.50861 112.279335 125 112.965558 121.75 116.296556 122.517221 121"></polygon>
        <polygon id="Path-Copy-4" fill="#E2EDF9" transform="translate(134.500000, 114.500000) scale(-1, 1) translate(-134.500000, -114.500000) " points="134.5 118.779335 130.482779 121 131.25 116.296556 128 112.965558 132.49139 112.279335 134.5 108 136.50861 112.279335 141 112.965558 137.75 116.296556 138.517221 121"></polygon>
        <polygon id="Path-Copy-3" fill="#E2EDF9" transform="translate(150.500000, 114.500000) scale(-1, 1) translate(-150.500000, -114.500000) " points="150.5 118.779335 146.482779 121 147.25 116.296556 144 112.965558 148.49139 112.279335 150.5 108 152.50861 112.279335 157 112.965558 153.75 116.296556 154.517221 121"></polygon>
        <g id="Group-42" transform="translate(96.000000, 153.000000)">
            <circle id="Oval" stroke="#FFFFFF" stroke-width="2" fill="#187FB8" cx="10" cy="10" r="11"></circle>
            <path d="M7.44713959,8.17043478 L7.44713959,14.4263616 L5.47276888,14.4263616 L5.47276888,8.17043478 L7.44713959,8.17043478 Z M12.8416476,8.11029748 C14.2448513,8.11029748 15.3473684,9.01016018 15.3473684,10.9480092 L15.3473684,10.9480092 L15.3473684,14.4263616 L13.1085584,14.4263616 L13.1085584,11.1891076 C13.1085584,10.3416934 12.7584439,9.76311213 11.9881922,9.76311213 C11.3991762,9.76311213 11.0715789,10.1535927 10.9191762,10.5297941 C10.8620595,10.664897 10.8708467,10.8529977 10.8708467,11.0410984 L10.8708467,11.0410984 L10.8708467,14.4263616 L8.65290618,14.4263616 L8.65290618,14.4263616 L8.65318519,14.3690625 C8.65489707,14.0132249 8.66395343,12.0677087 8.665403,10.4429717 L8.66546186,9.70487165 C8.66476432,8.92812998 8.66130569,8.3238067 8.65290618,8.17043478 L8.65290618,8.17043478 L10.8708467,8.17043478 L10.8708467,9.15240275 C11.0018307,8.72292906 11.7105721,8.11029748 12.8416476,8.11029748 Z M6.42343249,5.2173913 C7.15194508,5.2173913 7.59981693,5.68448513 7.61409611,6.3017849 C7.61409611,6.90782609 7.15194508,7.38782609 6.40970252,7.38782609 L6.40970252,7.38782609 L6.39542334,7.38782609 C5.68091533,7.38782609 5.2173913,6.90974828 5.2173913,6.30343249 C5.2173913,5.68558352 5.69437071,5.2173913 6.42343249,5.2173913 Z" id="Linkedin" fill="#FFFFFF"></path>
        </g>
        <rect id="Rectangle" fill="#D2D6DE" x="186" y="85" width="80" height="4" rx="2"></rect>
        <rect id="Rectangle" fill="#1179EF" x="186" y="85" width="36" height="4" rx="2"></rect>
        <g id="Group-3" transform="translate(159.000000, 152.000000)">
            <rect id="Rectangle" fill="#FFFFFF" opacity="0" x="0" y="0" width="32" height="32"></rect>
            <g id="Twitter-2" transform="translate(5.000000, 7.000000)" fill="#1179EF">
                <path d="M22.3656316,0.332767294 C21.4530745,0.852968505 20.4447174,1.23129666 19.3669666,1.43372529 C18.5084506,0.551344077 17.2814728,0 15.9230769,0 C13.3192802,0 11.2061517,2.03466726 11.2061517,4.54397488 C11.2061517,4.90038768 11.2466825,5.24584281 11.3277441,5.57861011 C7.40608229,5.38886931 3.92964516,3.58200634 1.60096654,0.829322995 C1.19443035,1.50293166 0.962299415,2.28438691 0.962299415,3.11659351 C0.962299415,4.69219186 1.7950231,6.08323988 3.0619176,6.89814488 C2.28937602,6.87622953 1.56043575,6.66976387 0.922996823,6.33180609 L0.922996823,6.38717119 C0.922996823,8.5896639 2.54975569,10.427093 4.71017008,10.8429079 C4.31468774,10.9496011 3.8970977,11.003236 3.46661149,11.003236 C3.1626305,11.003236 2.86601874,10.9755535 2.57861854,10.9224953 C3.17921128,12.7270514 4.92080741,14.0413957 6.98603583,14.0765756 C5.37155902,15.2957611 3.33580755,16.022428 1.12565082,16.022428 C0.74490695,16.022428 0.368461805,16.0016661 -2.72374715e-15,15.9601423 C2.08795023,17.2473807 4.56954049,18 7.23351934,18 C15.9138654,18 20.6590393,11.0770562 20.6590393,5.07167345 C20.6590393,4.87385858 20.6553547,4.67662042 20.6473714,4.48284259 C21.56914,3.84210695 22.3699303,3.04219666 23,2.13097946 C22.1549943,2.49200602 21.2448936,2.7365352 20.2905775,2.84611195 C21.265159,2.28438691 22.0131365,1.39393163 22.3656316,0.332767294" id="Twitter"></path>
            </g>
        </g>
        <g id="Group-2" transform="translate(211.000000, 152.000000)">
            <rect id="Rectangle-Copy-7" fill="#FFFFFF" opacity="0" x="0" y="0" width="32" height="32"></rect>
            <g id="Fill-91" transform="translate(6.000000, 7.000000)" fill="#1179EF">
                <path d="M4.62239089,6.41340649 L4.62239089,20 L0.529411765,20 L0.529411765,6.41340649 L4.62239089,6.41340649 Z M15.8055028,6.28280057 C18.7144213,6.28280057 21,8.23711832 21,12.44573 L21,12.44573 L21,20 L16.3588235,20 L16.3588235,12.9693464 C16.3588235,11.1289361 15.6330171,9.87297233 14.0362429,9.87297233 C12.8151803,9.87297233 12.1360531,10.7204198 11.8201139,11.5374523 C11.7411765,11.733063 11.7229602,11.9798293 11.7195868,12.2436475 L11.7199241,20 L7.12201139,20 L7.12201139,20 L7.12279788,19.8300949 C7.1265847,19.0000667 7.14293356,15.276774 7.14726656,11.9503393 L7.14796566,11.2913187 C7.14805305,11.1826888 7.14812527,11.0747435 7.1481814,10.9676048 L7.14802483,9.72845199 C7.14654439,8.04992566 7.139364,6.74535034 7.12201139,6.41340649 L7.12201139,6.41340649 L11.7199241,6.41340649 L11.7199241,8.54604008 C11.9914611,7.61331107 13.4607211,6.28280057 15.8055028,6.28280057 Z M2.50018975,0 C4.01043643,0 4.93889943,1.01443225 4.96850095,2.35508111 C4.96850095,3.671875 4.01043643,4.71433683 2.47172676,4.71433683 L2.47172676,4.71433683 L2.44212524,4.71433683 C0.960910816,4.71433683 0,3.67545324 0,2.35865935 C0,1.01681775 0.988804554,0 2.50018975,0 Z" id="Fill-88"></path>
            </g>
        </g>
        <g id="Group-Copy" transform="translate(266.000000, 224.000000)" fill="#FFFFFF" fill-rule="nonzero">
            <polygon id="Line" points="10.3888889 14.6666667 10.3888889 15.2777778 11.6111111 15.2777778 11.6111111 14.6666667 11.6111111 1.22222222 11.6111111 0.611111111 10.3888889 0.611111111 10.3888889 1.22222222"></polygon>
            <polygon id="Line" points="16.3210097 11.4321208 16.7531305 11 15.8888889 10.1357584 15.4567681 10.5678792 10.5678792 15.4567681 10.1357584 15.8888889 11 16.7531305 11.4321208 16.3210097"></polygon>
            <polygon id="Line" points="6.54323192 10.5678792 6.11111111 10.1357584 5.24686949 11 5.6789903 11.4321208 10.5678792 16.3210097 11 16.7531305 11.8642416 15.8888889 11.4321208 15.4567681"></polygon>
            <polygon id="Path-4" points="0.611111111 20.7777778 0.611111111 21.3888889 1.22222222 21.3888889 20.7777778 21.3888889 21.3888889 21.3888889 21.3888889 20.7777778 21.3888889 17.1111111 20.1666667 17.1111111 20.1666667 20.7777778 20.7777778 20.1666667 1.22222222 20.1666667 1.83333333 20.7777778 1.83333333 17.1111111 0.611111111 17.1111111"></polygon>
        </g>
        <polygon id="Shape" fill="#FFFFFF" transform="translate(233.000000, 235.500000) rotate(90.000000) translate(-233.000000, -235.500000) " points="233 232 227 237.675676 228.4 239 233 234.648649 237.6 239 239 237.675676"></polygon>
        <polyline id="Path-2" stroke="#848DA0" stroke-width="1.5" points="189 233 194 238 199 233"></polyline>
        <g id="Group-25-Copy-26" transform="translate(93.000000, 224.000000)">
            <rect id="Rectangle" x="0" y="0" width="24" height="24"></rect>
            <path d="M12,3.15 C14.44386,3.15 16.65636,4.14056999 18.257895,5.74210499 C19.85943,7.34363998 20.85,9.55613998 20.85,12 C20.85,14.44386 19.85943,16.65636 18.257895,18.257895 C16.65636,19.85943 14.44386,20.85 12,20.85 C9.55613998,20.85 7.34363998,19.85943 5.74210499,18.257895 C4.14056999,16.65636 3.15,14.44386 3.15,12 C3.15,9.55613998 4.14056999,7.34363998 5.74210499,5.74210499 C7.34363998,4.14056999 9.55613998,3.15 12,3.15 Z" id="Oval" stroke="#1179EF" stroke-width="1.5"></path>
            <polyline id="Path-5" stroke="#1179EF" stroke-width="1.5" points="7.2 12 10.4 15.2 16.8 8.8"></polyline>
        </g>
        <g id="Group-12" transform="translate(20.000000, 140.000000)">
            <path d="M15.5918367,9.54081633 C15.8679791,9.54081633 16.0918367,9.76467395 16.0918367,10.0408163 C16.0918367,10.2862762 15.9149616,10.4904247 15.6817124,10.5327607 L15.5918367,10.5408163 L7.3877551,10.5408163 C7.11161273,10.5408163 6.8877551,10.3169587 6.8877551,10.0408163 C6.8877551,9.79535644 7.06463026,9.59120796 7.29787947,9.548872 L7.3877551,9.54081633 L15.5918367,9.54081633 Z" id="Path" fill="#1179EF" fill-rule="nonzero"></path>
            <path d="M15.5918367,13.622449 C15.8679791,13.622449 16.0918367,13.8463066 16.0918367,14.122449 C16.0918367,14.3679089 15.9149616,14.5720573 15.6817124,14.6143933 L15.5918367,14.622449 L7.3877551,14.622449 C7.11161273,14.622449 6.8877551,14.3985914 6.8877551,14.122449 C6.8877551,13.8769891 7.06463026,13.6728406 7.29787947,13.6305046 L7.3877551,13.622449 L15.5918367,13.622449 Z" id="Path" fill="#1179EF" fill-rule="nonzero"></path>
            <path d="M15.5918367,17.6632653 C15.8679791,17.6632653 16.0918367,17.8871229 16.0918367,18.1632653 C16.0918367,18.4087252 15.9149616,18.6128737 15.6817124,18.6552096 L15.5918367,18.6632653 L7.3877551,18.6632653 C7.11161273,18.6632653 6.8877551,18.4394077 6.8877551,18.1632653 C6.8877551,17.9178054 7.06463026,17.7136569 7.29787947,17.671321 L7.3877551,17.6632653 L15.5918367,17.6632653 Z" id="Path" fill="#1179EF" fill-rule="nonzero"></path>
            <path d="M15.5918367,21.7040816 C15.8679791,21.7040816 16.0918367,21.9279393 16.0918367,22.2040816 C16.0918367,22.4495415 15.9149616,22.65369 15.6817124,22.696026 L15.5918367,22.7040816 L7.3877551,22.7040816 C7.11161273,22.7040816 6.8877551,22.480224 6.8877551,22.2040816 C6.8877551,21.9586217 7.06463026,21.7544733 7.29787947,21.7121373 L7.3877551,21.7040816 L15.5918367,21.7040816 Z" id="Path" fill="#1179EF" fill-rule="nonzero"></path>
            <path d="M3.46938776,5.95918367 C7.06122449,5.95918367 13.9183673,5.95918367 17.5102041,5.95918367 L19.4693878,7.95918367 C19.4693878,14.8979592 19.4693878,21.5102041 19.4693878,28.4489796 L17.5102041,26.4489796 C13.9183673,26.4489796 7.06122449,26.4489796 3.46938776,26.4489796 C3.46938776,19.4693878 3.46938776,12.8979592 3.46938776,5.95918367 L3.46938776,5.95918367 Z" id="Path" stroke="#1179EF" stroke-linecap="round" stroke-linejoin="round"></path>
            <line x1="21.5918367" y1="5.95918367" x2="19.6734694" y2="7.95918367" id="Path" stroke="#1179EF" stroke-linecap="round" stroke-linejoin="round"></line>
            <line x1="19.6734694" y1="28.4489796" x2="21.5918367" y2="26.4489796" id="Path" stroke="#1179EF" stroke-linecap="round" stroke-linejoin="round"></line>
            <path d="M21.5918367,26.4489796 C25.1836735,26.4489796 32.0408163,26.4489796 35.6326531,26.4489796 C35.6326531,19.5102041 35.6326531,12.8979592 35.6326531,5.95918367 C32.0408163,5.95918367 25.1836735,5.95918367 21.5918367,5.95918367" id="Path" stroke="#1179EF" stroke-linecap="round" stroke-linejoin="round"></path>
            <polyline id="Path" stroke="#1179EF" stroke-linecap="round" stroke-linejoin="round" points="35.6326531 9.18367347 38.7755102 9.18367347 38.7755102 29.6326531 5.93303184e-13 29.6326531 5.93303184e-13 9.10204082 3.46938776 9.10204082"></polyline>
            <path d="M31.755102,9.54081633 C32.0312444,9.54081633 32.255102,9.76467395 32.255102,10.0408163 C32.255102,10.2862762 32.0782269,10.4904247 31.8449777,10.5327607 L31.755102,10.5408163 L23.5510204,10.5408163 C23.274878,10.5408163 23.0510204,10.3169587 23.0510204,10.0408163 C23.0510204,9.79535644 23.2278956,9.59120796 23.4611448,9.548872 L23.5510204,9.54081633 L31.755102,9.54081633 Z" id="Path" fill="#1179EF" fill-rule="nonzero"></path>
            <path d="M31.755102,13.622449 C32.0312444,13.622449 32.255102,13.8463066 32.255102,14.122449 C32.255102,14.3679089 32.0782269,14.5720573 31.8449777,14.6143933 L31.755102,14.622449 L23.5510204,14.622449 C23.274878,14.622449 23.0510204,14.3985914 23.0510204,14.122449 C23.0510204,13.8769891 23.2278956,13.6728406 23.4611448,13.6305046 L23.5510204,13.622449 L31.755102,13.622449 Z" id="Path" fill="#1179EF" fill-rule="nonzero"></path>
            <path d="M31.755102,17.6632653 C32.0312444,17.6632653 32.255102,17.8871229 32.255102,18.1632653 C32.255102,18.4087252 32.0782269,18.6128737 31.8449777,18.6552096 L31.755102,18.6632653 L23.5510204,18.6632653 C23.274878,18.6632653 23.0510204,18.4394077 23.0510204,18.1632653 C23.0510204,17.9178054 23.2278956,17.7136569 23.4611448,17.671321 L23.5510204,17.6632653 L31.755102,17.6632653 Z" id="Path" fill="#1179EF" fill-rule="nonzero"></path>
            <path d="M11.2653061,5.3877551 C11.2653061,4.32653061 11.5102041,3.14285714 12.5714286,3.14285714 L25.9183673,3.14285714 C26.9795918,3.14285714 27.5510204,4.32653061 27.5510204,5.3877551" id="Path" stroke="#1179EF" stroke-linecap="round" stroke-linejoin="round"></path>
            <path d="M27.5510204,30.244898 C27.5510204,31.3061224 26.9795918,32.4897959 25.9183673,32.4897959 L12.5714286,32.4897959 C11.5102041,32.4897959 11.2653061,31.3061224 11.2653061,30.244898" id="Path" stroke="#1179EF" stroke-linecap="round" stroke-linejoin="round"></path>
            <line x1="21.3469388" y1="35.4693878" x2="17.4285714" y2="35.4693878" id="Path" stroke="#1179EF" stroke-linecap="round" stroke-linejoin="round"></line>
            <path d="M8.12244898,29.9591837 L8.12244898,35.4285714 C8.12244898,37.1428571 9.55102041,38.5714286 11.2653061,38.5714286 L27.5510204,38.5714286 C29.2653061,38.5714286 30.6938776,37.1428571 30.6938776,35.4285714 L30.6938776,30.2040816" id="Path" stroke="#1179EF" stroke-linecap="round" stroke-linejoin="round"></path>
            <path d="M30.6938776,5.26530612 L30.6938776,3.14285714 C30.6938776,1.42857143 29.2653061,5.42677014e-13 27.5510204,5.42677014e-13 L11.2653061,5.42677014e-13 C9.55102041,5.42677014e-13 8.12244898,1.42857143 8.12244898,3.14285714 L8.12244898,5.26530612" id="Path" stroke="#1179EF" stroke-linecap="round" stroke-linejoin="round"></path>
        </g>
        <g id="Group-13" transform="translate(20.000000, 190.000000)">
            <path d="M13.6868687,25.3629931 L13.6868687,23.5803975 C13.6868687,22.4217103 11.2177329,20.9065041 9.19753086,20.9065041 C7.17732884,20.9065041 4.70819304,22.4217103 4.70819304,23.5803975 L4.70819304,25.3629931" id="Path" stroke="#1179EF" stroke-linecap="round" stroke-linejoin="round"></path>
            <path d="M9.19753086,14.7119843 C7.80583614,14.7119843 6.50392817,15.7369768 6.50392817,16.9402288 L6.50392817,18.6782596 C6.50392817,19.9260765 7.80583614,20.9065041 9.19753086,20.9065041 C10.5892256,20.9065041 11.8911336,19.8815116 11.8911336,18.6782596 L11.8911336,16.9402288 C11.8911336,15.6924119 10.5892256,14.7119843 9.19753086,14.7119843 Z" id="Path" stroke="#1179EF" stroke-linecap="round" stroke-linejoin="round"></path>
            <path d="M39.5454545,9.02439024 L0.454545455,9.02439024 C0.203506932,9.02439024 0,9.2264081 0,9.47560976 L0,36.5487805 C0,36.7979821 0.203506932,37 0.454545455,37 L39.5454545,37 C39.7964931,37 40,36.7979821 40,36.5487805 L40,9.47560976 C40,9.2264081 39.7964931,9.02439024 39.5454545,9.02439024 Z M39.0909091,9.92682927 L39.0909091,36.097561 L0.909090909,36.097561 L0.909090909,9.92682927 L39.0909091,9.92682927 Z" id="Rectangle" fill="#1179EF" fill-rule="nonzero"></path>
            <path d="M37.7272727,4.51219512 C37.9504181,4.51219512 38.1360076,4.67181417 38.1744948,4.88230736 L38.1818182,4.96341463 L38.1818182,7.67073171 C38.1818182,7.91993336 37.9783112,8.12195122 37.7272727,8.12195122 C37.5041274,8.12195122 37.3185378,7.96233217 37.2800506,7.75183899 L37.2727273,7.67073171 L37.2727273,5.41463415 L3.63636364,5.41463415 L3.63636364,7.67073171 C3.63636364,7.89224429 3.47556804,8.07647585 3.2635233,8.11468147 L3.18181818,8.12195122 C2.95867283,8.12195122 2.7730833,7.96233217 2.73459606,7.75183899 L2.72727273,7.67073171 L2.72727273,4.96341463 C2.72727273,4.74190205 2.88806833,4.5576705 3.10011306,4.51946487 L3.18181818,4.51219512 L37.7272727,4.51219512 Z" id="Path" fill="#1179EF" fill-rule="nonzero"></path>
            <path d="M35,0 C35.2231454,0 35.4087349,0.159619047 35.4472221,0.370112234 L35.4545455,0.451219512 L35.4545455,3.15853659 C35.4545455,3.40773824 35.2510385,3.6097561 35,3.6097561 C34.7768546,3.6097561 34.5912651,3.45013705 34.5527779,3.23964386 L34.5454545,3.15853659 L34.5454545,0.902439024 L6.36363636,0.902439024 L6.36363636,3.15853659 C6.36363636,3.38004917 6.20284076,3.56428072 5.99079603,3.60248635 L5.90909091,3.6097561 C5.68594556,3.6097561 5.50035603,3.45013705 5.46186879,3.23964386 L5.45454545,3.15853659 L5.45454545,0.451219512 C5.45454545,0.22970693 5.61534106,0.0454753731 5.82738579,0.00726975045 L5.90909091,0 L35,0 Z" id="Path" fill="#1179EF" fill-rule="nonzero"></path>
            <path d="M35.4538031,28.4268293 C35.7048413,28.4264027 35.9086803,28.6381317 35.9090909,28.8997399 C35.9094547,29.1322805 35.7489624,29.3259577 35.5369808,29.3664263 L35.4552878,29.374197 L4.52936184,29.4268293 C4.27832366,29.4272558 4.07448465,29.2155268 4.07407406,28.9539186 C4.07371026,28.721378 4.23420256,28.5277008 4.44618416,28.4872322 L4.52787721,28.4794615 L35.4538031,28.4268293 Z" id="Path" fill="#1179EF" fill-rule="nonzero"></path>
            <polygon id="Path" stroke="#1179EF" stroke-width="0.25" fill="#1179EF" fill-rule="nonzero" points="18.030303 15.3358928 18.030303 18.9456489 17.5813692 18.9456489 17.5813692 15.3358928"></polygon>
            <polygon id="Path" stroke="#1179EF" stroke-width="0.25" fill="#1179EF" fill-rule="nonzero" points="19.2873176 15.3358928 19.2873176 18.9456489 18.8383838 18.9456489 18.8383838 15.3358928"></polygon>
            <path d="M23.1930415,17.3858777 C23.1481481,16.895664 23.1481481,16.2717555 23.1481481,15.8261066 L23.1481481,15.8261066 C23.013468,16.2271906 22.8787879,16.7174044 22.6992144,17.2076182 L22.0707071,18.9456489 L21.71156,18.9456489 L21.1279461,17.2076182 C20.9483726,16.7174044 20.8136925,16.2271906 20.7239057,15.8261066 L20.7239057,15.8261066 C20.7239057,16.2717555 20.6790123,16.895664 20.634119,17.4304426 L20.5443322,18.9902138 L20.0953984,18.9902138 L20.3647587,15.3804577 L20.9483726,15.3804577 L21.5768799,17.1184884 C21.71156,17.5641373 21.8462402,17.9652213 21.9360269,18.3217404 L21.9360269,18.3217404 C22.0258137,17.9652213 22.1604938,17.5641373 22.3400673,17.1184884 L22.9685746,15.3804577 L23.5521886,15.3804577 L23.7766554,18.9902138 L23.3277217,18.9902138 L23.1930415,17.3858777 Z" id="Path" stroke="#1179EF" stroke-width="0.25" fill="#1179EF" fill-rule="nonzero"></path>
            <path d="M26.3804714,15.3358928 L26.8294052,15.3358928 L26.8294052,17.7423969 C26.8294052,18.7228245 26.335578,18.9902138 25.7070707,18.9902138 C25.5274972,18.9902138 25.3030303,18.9456489 25.2132435,18.901084 L25.3030303,18.5 C25.3928171,18.5445649 25.5274972,18.5891298 25.7070707,18.5891298 C26.1111111,18.5891298 26.3804714,18.4108702 26.3804714,17.697832 L26.3804714,15.3358928 Z" id="Path" stroke="#1179EF" stroke-width="0.25" fill="#1179EF" fill-rule="nonzero"></path>
            <path d="M30.7351291,17.1184884 C30.7351291,18.3663053 29.9719416,19.0347787 29.0291807,19.0347787 C28.0864198,19.0347787 27.4130191,18.2771755 27.4130191,17.2076182 C27.4130191,16.048931 28.1313131,15.2913279 29.1189675,15.2913279 C30.0617284,15.2913279 30.7351291,16.048931 30.7351291,17.1184884 Z M27.9068462,17.1630533 C27.9068462,17.9206564 28.3108866,18.6336947 29.0740741,18.6336947 C29.8372615,18.6336947 30.2413019,17.9652213 30.2413019,17.1184884 C30.2413019,16.4054502 29.8821549,15.647847 29.0740741,15.647847 C28.2659933,15.6924119 27.9068462,16.4054502 27.9068462,17.1630533 Z" id="Shape" stroke="#1179EF" stroke-width="0.25" fill="#1179EF" fill-rule="nonzero"></path>
            <path d="M31.318743,15.3804577 C31.5432099,15.3358928 31.8574635,15.2913279 32.1717172,15.2913279 C32.620651,15.2913279 32.9349046,15.3804577 33.1593715,15.5587173 C33.338945,15.6924119 33.4736251,15.9152364 33.4736251,16.1826257 C33.4736251,16.5391448 33.2491582,16.8510991 32.8451178,16.9847937 L32.8451178,16.9847937 C33.2042649,17.0739235 33.6083053,17.3413129 33.6083053,17.8760915 C33.6083053,18.1880458 33.4736251,18.4108702 33.2940516,18.5891298 C33.0246914,18.8119542 32.620651,18.9456489 32.037037,18.9456489 C31.7227834,18.9456489 31.4534231,18.9456489 31.318743,18.901084 L31.318743,15.3804577 L31.318743,15.3804577 Z M31.8125701,16.895664 L32.2615039,16.895664 C32.7553311,16.895664 33.0695847,16.6282746 33.0695847,16.2717555 C33.0695847,15.8261066 32.7553311,15.6924119 32.2615039,15.6924119 C32.037037,15.6924119 31.9023569,15.6924119 31.8574635,15.7369768 L31.8574635,16.895664 L31.8125701,16.895664 Z M31.8125701,18.5891298 C31.9023569,18.5891298 32.037037,18.5891298 32.2166105,18.5891298 C32.7104377,18.5891298 33.1593715,18.4108702 33.1593715,17.8760915 C33.1593715,17.3858777 32.7104377,17.1630533 32.2166105,17.1630533 L31.8125701,17.1630533 L31.8125701,18.5891298 Z" id="Shape" stroke="#1179EF" stroke-width="0.25" fill="#1179EF" fill-rule="nonzero"></path>
            <path d="M34.1919192,18.4108702 C34.4163861,18.5445649 34.7306397,18.6336947 35.0448934,18.6336947 C35.5387205,18.6336947 35.8080808,18.3663053 35.8080808,18.0097862 C35.8080808,17.6532671 35.6285073,17.4750075 35.1346801,17.296748 C34.5510662,17.0739235 34.1919192,16.7619693 34.1919192,16.2717555 C34.1919192,15.6924119 34.640853,15.2913279 35.359147,15.2913279 C35.7182941,15.2913279 35.9876543,15.3804577 36.1672278,15.4695875 L36.0325477,15.8706715 C35.8978676,15.8261066 35.6734007,15.6924119 35.359147,15.6924119 C34.8653199,15.6924119 34.6857464,16.0043662 34.6857464,16.2271906 C34.6857464,16.5837097 34.9102132,16.7174044 35.4040404,16.9402288 C36.0325477,17.1630533 36.3468013,17.4750075 36.3468013,18.0097862 C36.3468013,18.5445649 35.9427609,19.0347787 35.0897868,19.0347787 C34.7306397,19.0347787 34.3714927,18.9456489 34.1470258,18.8119542 L34.1919192,18.4108702 Z" id="Path" stroke="#1179EF" stroke-width="0.25" fill="#1179EF" fill-rule="nonzero"></path>
            <path d="M35.4938272,24.0650407 C35.7448657,24.0650407 35.9483726,24.2888983 35.9483726,24.5650407 C35.9483726,24.8105005 35.787577,25.014649 35.5755323,25.056985 L35.4938272,25.0650407 L17.9854097,25.0650407 C17.7343711,25.0650407 17.5308642,24.841183 17.5308642,24.5650407 C17.5308642,24.3195808 17.6916598,24.1154323 17.9037045,24.0730963 L17.9854097,24.0650407 L35.4938272,24.0650407 Z" id="Path" fill="#1179EF" fill-rule="nonzero"></path>
        </g>
        <g id="Group-14" transform="translate(20.000000, 80.000000)">
            <path d="M39.3488372,9.39534884 L31.3953488,9.39534884 C30.6046512,9.39534884 29.9534884,8.74418605 29.9534884,7.95348837 L29.9534884,3.05533376e-13 L39.3488372,9.39534884 L39.3488372,9.39534884 Z" id="Path" stroke="#1179EF" stroke-linecap="round" stroke-linejoin="round"></path>
            <path d="M29.9069767,4.68958206e-13 L1.39534884,4.68958206e-13 C0.651162791,4.68958206e-13 -4.4408921e-13,0.604651163 -4.4408921e-13,1.39534884 L-4.4408921e-13,26.5116279 C-4.4408921e-13,27.255814 0.604651163,27.9069767 1.39534884,27.9069767 L19.4883721,27.9069767" id="Path" stroke="#1179EF" stroke-linecap="round" stroke-linejoin="round"></path>
            <path d="M39.3023256,9.39534884 L39.3023256,25.7674419 C39.3023256,26.8372093 38.4651163,27.6744186 37.3953488,27.6744186 L33.627907,27.6744186" id="Path" stroke="#1179EF" stroke-linecap="round" stroke-linejoin="round"></path>
            <circle id="Oval" stroke="#1179EF" stroke-linecap="round" stroke-linejoin="round" cx="26.4651163" cy="26.6046512" r="3.39534884"></circle>
            <circle id="Oval" stroke="#1179EF" stroke-linecap="round" stroke-linejoin="round" cx="26.4186047" cy="26.5581395" r="7.11627907"></circle>
            <polyline id="Path" stroke="#1179EF" stroke-linecap="round" stroke-linejoin="round" points="19.9069767 30.2325581 16.6976744 36.0930233 23.1162791 39.255814 26.5581395 34.1395349 29.9534884 39.255814 35.9069767 36.2790698 32.7906977 30"></polyline>
            <path d="M25.2093023,11.755814 C25.4854447,11.755814 25.7093023,11.9796716 25.7093023,12.255814 C25.7093023,12.5012738 25.5324272,12.7054223 25.299178,12.7477583 L25.2093023,12.755814 L5.44186047,12.755814 C5.16571809,12.755814 4.94186047,12.5319563 4.94186047,12.255814 C4.94186047,12.0103541 5.11873563,11.8062056 5.35198483,11.7638696 L5.44186047,11.755814 L25.2093023,11.755814 Z" id="Path" fill="#1179EF" fill-rule="nonzero"></path>
            <path d="M25.2093023,16.3139535 C25.4854447,16.3139535 25.7093023,16.5378111 25.7093023,16.8139535 C25.7093023,17.0594134 25.5324272,17.2635619 25.299178,17.3058978 L25.2093023,17.3139535 L5.44186047,17.3139535 C5.16571809,17.3139535 4.94186047,17.0900959 4.94186047,16.8139535 C4.94186047,16.5684936 5.11873563,16.3643451 5.35198483,16.3220092 L5.44186047,16.3139535 L25.2093023,16.3139535 Z" id="Path" fill="#1179EF" fill-rule="nonzero"></path>
            <polygon id="Path" stroke="#1179EF" stroke-width="0.25" fill="#1179EF" fill-rule="nonzero" points="5.55555556 4.05555556 5.55555556 8.55555556 5 8.55555556 5 4.05555556"></polygon>
            <path d="M6.55555556,4.11111111 C6.83333333,4.05555556 7.22222222,4 7.61111111,4 C8.16666667,4 8.55555556,4.11111111 8.83333333,4.33333333 C9.05555556,4.5 9.22222222,4.77777778 9.22222222,5.11111111 C9.22222222,5.55555556 8.94444444,5.94444444 8.44444444,6.11111111 L8.44444444,6.11111111 C8.88888889,6.22222222 9.38888889,6.55555556 9.38888889,7.22222222 C9.38888889,7.61111111 9.22222222,7.88888889 9,8.11111111 C8.66666667,8.38888889 8.16666667,8.55555556 7.44444444,8.55555556 C7.05555556,8.55555556 6.72222222,8.55555556 6.55555556,8.5 L6.55555556,4.11111111 L6.55555556,4.11111111 Z M7.11111111,5.94444444 L7.66666667,5.94444444 C8.27777778,5.94444444 8.66666667,5.61111111 8.66666667,5.16666667 C8.66666667,4.61111111 8.27777778,4.44444444 7.66666667,4.44444444 C7.38888889,4.44444444 7.22222222,4.44444444 7.16666667,4.5 L7.16666667,5.94444444 L7.11111111,5.94444444 Z M7.11111111,8.11111111 C7.22222222,8.11111111 7.38888889,8.11111111 7.61111111,8.11111111 C8.22222222,8.11111111 8.77777778,7.88888889 8.77777778,7.22222222 C8.77777778,6.61111111 8.22222222,6.33333333 7.61111111,6.33333333 L7.11111111,6.33333333 L7.11111111,8.11111111 Z" id="Shape" stroke="#1179EF" stroke-width="0.25" fill="#1179EF" fill-rule="nonzero"></path>
            <path d="M14,6.55555556 C13.9444444,5.94444444 13.9444444,5.16666667 13.9444444,4.61111111 L13.9444444,4.61111111 C13.7777778,5.11111111 13.6111111,5.72222222 13.3888889,6.33333333 L12.6111111,8.5 L12.1666667,8.5 L11.4444444,6.33333333 C11.2222222,5.72222222 11.0555556,5.11111111 10.9444444,4.61111111 L10.9444444,4.61111111 C10.9444444,5.16666667 10.8888889,5.94444444 10.8333333,6.61111111 L10.7222222,8.55555556 L10.1666667,8.55555556 L10.5,4.05555556 L11.2222222,4.05555556 L12,6.22222222 C12.1666667,6.77777778 12.3333333,7.27777778 12.4444444,7.72222222 L12.4444444,7.72222222 C12.5555556,7.27777778 12.7222222,6.77777778 12.9444444,6.22222222 L13.7222222,4.05555556 L14.4444444,4.05555556 L14.7222222,8.55555556 L14.1666667,8.55555556 L14,6.55555556 Z" id="Path" stroke="#1179EF" stroke-width="0.25" fill="#1179EF" fill-rule="nonzero"></path>
        </g>
        <g id="Group-17-Copy" transform="translate(20.000000, 20.000000)" fill="#1179EF" fill-rule="nonzero">
            <g id="Group-10">
                <path d="M38.3426966,33.8089888 L1.21910112,33.8089888 C0.538464367,33.8089888 1.42108547e-14,34.3474531 1.42108547e-14,35.0280899 L1.42108547e-14,37.994382 C1.42108547e-14,38.6750188 0.538464367,39.2134831 1.21910112,39.2134831 L38.3426966,39.2134831 C39.0233334,39.2134831 39.5617978,38.6750188 39.5617978,37.994382 L39.5617978,35.0280899 C39.5617978,34.3474531 39.0233334,33.8089888 38.3426966,33.8089888 Z M1.21910112,34.8089888 L38.3426966,34.8089888 C38.4710486,34.8089888 38.5617978,34.8997379 38.5617978,35.0280899 L38.5617978,37.994382 C38.5617978,38.122734 38.4710486,38.2134831 38.3426966,38.2134831 L1.21910112,38.2134831 C1.09074912,38.2134831 1,38.122734 1,37.994382 L1,35.0280899 C1,34.8997379 1.09074912,34.8089888 1.21910112,34.8089888 Z" id="Path"></path>
                <path d="M38.3302816,10.8240625 L20.3976973,0.172377133 C20.014637,-0.0574590442 19.5471607,-0.0574590442 19.1641004,0.172377133 L1.23341999,10.822926 C0.881029805,10.9573862 0.629213483,11.3694493 0.629213483,11.8370787 L0.629213483,14.3089888 C0.629213483,14.9896255 1.16767785,15.5280899 1.84831461,15.5280899 L37.6685393,15.5280899 C38.3285953,15.5280899 38.8564078,15.0222696 38.9295261,14.3642045 L38.9325843,11.8370787 C38.9325843,11.4279921 38.6985468,11.0450216 38.3302816,10.8240625 Z M19.8832016,1.02987006 L37.8176897,11.682692 C37.8930164,11.7278938 37.9325843,11.7926412 37.9325843,11.8370787 L37.9325843,14.3089888 C37.917243,14.4193675 37.8037936,14.5280899 37.6685393,14.5280899 L1.84831461,14.5280899 C1.7199626,14.5280899 1.62921348,14.4373408 1.62921348,14.3089888 L1.62921348,11.8370787 C1.62921348,11.7612964 1.65036478,11.7266852 1.67445938,11.7170473 L19.6766924,1.03100662 C19.7449741,0.990043314 19.8168237,0.990043314 19.8832016,1.02987006 Z" id="Path"></path>
                <path d="M33.8932584,11.1573034 C34.1694008,11.1573034 34.3932584,11.381161 34.3932584,11.6573034 C34.3932584,11.9027633 34.2163833,12.1069117 33.9831341,12.1492477 L33.8932584,12.1573034 L5.30898876,12.1573034 C5.03284639,12.1573034 4.80898876,11.9334457 4.80898876,11.6573034 C4.80898876,11.4118435 4.98586392,11.207695 5.21911313,11.165359 L5.30898876,11.1573034 L33.8932584,11.1573034 Z" id="Path"></path>
                <path d="M13.0393258,16.9213483 C13.3154682,16.9213483 13.5393258,17.1452059 13.5393258,17.4213483 C13.5393258,17.6668082 13.3624507,17.8709567 13.1292015,17.9132926 L13.0393258,17.9213483 L3.73595506,17.9213483 C3.45981268,17.9213483 3.23595506,17.6974907 3.23595506,17.4213483 C3.23595506,17.1758884 3.41283022,16.9717399 3.64607942,16.929404 L3.73595506,16.9213483 L13.0393258,16.9213483 Z" id="Path"></path>
                <path d="M24.4550562,16.9213483 C24.7311986,16.9213483 24.9550562,17.1452059 24.9550562,17.4213483 C24.9550562,17.6668082 24.778181,17.8709567 24.5449318,17.9132926 L24.4550562,17.9213483 L15.1516854,17.9213483 C14.875543,17.9213483 14.6516854,17.6974907 14.6516854,17.4213483 C14.6516854,17.1758884 14.8285606,16.9717399 15.0618098,16.929404 L15.1516854,16.9213483 L24.4550562,16.9213483 Z" id="Path"></path>
                <path d="M35.8258427,16.9213483 C36.1019851,16.9213483 36.3258427,17.1452059 36.3258427,17.4213483 C36.3258427,17.6668082 36.1489675,17.8709567 35.9157183,17.9132926 L35.8258427,17.9213483 L26.5224719,17.9213483 C26.2463295,17.9213483 26.0224719,17.6974907 26.0224719,17.4213483 C26.0224719,17.1758884 26.1993471,16.9717399 26.4325963,16.929404 L26.5224719,16.9213483 L35.8258427,16.9213483 Z" id="Path"></path>
                <path d="M13.0393258,31.4157303 C13.3154682,31.4157303 13.5393258,31.639588 13.5393258,31.9157303 C13.5393258,32.1611902 13.3624507,32.3653387 13.1292015,32.4076747 L13.0393258,32.4157303 L3.73595506,32.4157303 C3.45981268,32.4157303 3.23595506,32.1918727 3.23595506,31.9157303 C3.23595506,31.6702704 3.41283022,31.466122 3.64607942,31.423786 L3.73595506,31.4157303 L13.0393258,31.4157303 Z" id="Path"></path>
                <path d="M24.4550562,31.4157303 C24.7311986,31.4157303 24.9550562,31.639588 24.9550562,31.9157303 C24.9550562,32.1611902 24.778181,32.3653387 24.5449318,32.4076747 L24.4550562,32.4157303 L15.1516854,32.4157303 C14.875543,32.4157303 14.6516854,32.1918727 14.6516854,31.9157303 C14.6516854,31.6702704 14.8285606,31.466122 15.0618098,31.423786 L15.1516854,31.4157303 L24.4550562,31.4157303 Z" id="Path"></path>
                <path d="M35.8258427,31.4157303 C36.1019851,31.4157303 36.3258427,31.639588 36.3258427,31.9157303 C36.3258427,32.1611902 36.1489675,32.3653387 35.9157183,32.4076747 L35.8258427,32.4157303 L26.5224719,32.4157303 C26.2463295,32.4157303 26.0224719,32.1918727 26.0224719,31.9157303 C26.0224719,31.6702704 26.1993471,31.466122 26.4325963,31.423786 L26.5224719,31.4157303 L35.8258427,31.4157303 Z" id="Path"></path>
            </g>
            <polygon id="Line-2" points="35.5 17.5 35.5 31.5 34.5 31.5 34.5 17.5"></polygon>
            <polygon id="Line-2-Copy" points="28 17.5 28 31.5 27 31.5 27 17.5"></polygon>
            <polygon id="Line-2-Copy-3" points="24 17.5 24 31.5 23 31.5 23 17.5"></polygon>
            <polygon id="Line-2-Copy-2" points="16.5 17.5 16.5 31.5 15.5 31.5 15.5 17.5"></polygon>
            <polygon id="Line-2-Copy-5" points="12.5 17.5 12.5 31.5 11.5 31.5 11.5 17.5"></polygon>
            <polygon id="Line-2-Copy-4" points="5.5 17.5 5.5 31.5 4.5 31.5 4.5 17.5"></polygon>
        </g>
    </g>
</svg>