<svg width="327" height="328" viewBox="0 0 327 328" fill="none" xmlns="http://www.w3.org/2000/svg">
<path d="M58.3427 53.8091H21.2191C20.5385 53.8091 20 54.3475 20 55.0282V57.9945C20 58.6751 20.5385 59.2136 21.2191 59.2136H58.3427C59.0233 59.2136 59.5618 58.6751 59.5618 57.9945V55.0282C59.5618 54.3475 59.0233 53.8091 58.3427 53.8091ZM21.2191 54.8091H58.3427C58.4711 54.8091 58.5618 54.8998 58.5618 55.0282V57.9945C58.5618 58.1228 58.4711 58.2136 58.3427 58.2136H21.2191C21.0907 58.2136 21 58.1228 21 57.9945V55.0282C21 54.8998 21.0907 54.8091 21.2191 54.8091Z" fill="#7A0019"/>
<path d="M58.3305 30.8241L40.3979 20.1724C40.0148 19.9425 39.5473 19.9425 39.1643 20.1724L21.2336 30.8229C20.8812 30.9574 20.6294 31.3694 20.6294 31.8371V34.309C20.6294 34.9896 21.1679 35.5281 21.8485 35.5281H57.6687C58.3288 35.5281 58.8566 35.0223 58.9297 34.3642L58.9328 31.8371C58.9328 31.428 58.6987 31.045 58.3305 30.8241ZM39.8834 21.0299L57.8179 31.6827C57.8932 31.7279 57.9328 31.7926 57.9328 31.8371V34.309C57.9174 34.4194 57.804 34.5281 57.6687 34.5281H21.8485C21.7201 34.5281 21.6294 34.4373 21.6294 34.309V31.8371C21.6294 31.7613 21.6505 31.7267 21.6746 31.717L39.6769 21.031C39.7452 20.99 39.817 20.99 39.8834 21.0299Z" fill="#7A0019"/>
<path d="M53.8934 31.1572C54.1695 31.1572 54.3934 31.3811 54.3934 31.6572C54.3934 31.9027 54.2165 32.1068 53.9832 32.1492L53.8934 32.1572H25.3091C25.0329 32.1572 24.8091 31.9334 24.8091 31.6572C24.8091 31.4118 24.986 31.2076 25.2192 31.1653L25.3091 31.1572H53.8934Z" fill="#7A0019"/>
<path d="M33.0392 36.9214C33.3154 36.9214 33.5392 37.1452 33.5392 37.4214C33.5392 37.6668 33.3623 37.871 33.1291 37.9133L33.0392 37.9214H23.7358C23.4597 37.9214 23.2358 37.6975 23.2358 37.4214C23.2358 37.1759 23.4127 36.9718 23.646 36.9294L23.7358 36.9214H33.0392Z" fill="#7A0019"/>
<path d="M44.4552 36.9214C44.7314 36.9214 44.9552 37.1452 44.9552 37.4214C44.9552 37.6668 44.7784 37.871 44.5451 37.9133L44.4552 37.9214H35.1519C34.8757 37.9214 34.6519 37.6975 34.6519 37.4214C34.6519 37.1759 34.8287 36.9718 35.062 36.9294L35.1519 36.9214H44.4552Z" fill="#7A0019"/>
<path d="M55.8258 36.9214C56.102 36.9214 56.3258 37.1452 56.3258 37.4214C56.3258 37.6668 56.149 37.871 55.9157 37.9133L55.8258 37.9214H46.5225C46.2463 37.9214 46.0225 37.6975 46.0225 37.4214C46.0225 37.1759 46.1993 36.9718 46.4326 36.9294L46.5225 36.9214H55.8258Z" fill="#7A0019"/>
<path d="M33.0392 51.416C33.3154 51.416 33.5392 51.6398 33.5392 51.916C33.5392 52.1614 33.3623 52.3656 33.1291 52.4079L33.0392 52.416H23.7358C23.4597 52.416 23.2358 52.1921 23.2358 51.916C23.2358 51.6705 23.4127 51.4664 23.646 51.424L23.7358 51.416H33.0392Z" fill="#7A0019"/>
<path d="M44.4552 51.416C44.7314 51.416 44.9552 51.6398 44.9552 51.916C44.9552 52.1614 44.7784 52.3656 44.5451 52.4079L44.4552 52.416H35.1519C34.8757 52.416 34.6519 52.1921 34.6519 51.916C34.6519 51.6705 34.8287 51.4664 35.062 51.424L35.1519 51.416H44.4552Z" fill="#7A0019"/>
<path d="M55.8258 51.416C56.102 51.416 56.3258 51.6398 56.3258 51.916C56.3258 52.1614 56.149 52.3656 55.9157 52.4079L55.8258 52.416H46.5225C46.2463 52.416 46.0225 52.1921 46.0225 51.916C46.0225 51.6705 46.1993 51.4664 46.4326 51.424L46.5225 51.416H55.8258Z" fill="#7A0019"/>
<path d="M55.5 37.5V51.5H54.5V37.5H55.5Z" fill="#7A0019"/>
<path d="M48 37.5V51.5H47V37.5H48Z" fill="#7A0019"/>
<path d="M44 37.5V51.5H43V37.5H44Z" fill="#7A0019"/>
<path d="M36.5 37.5V51.5H35.5V37.5H36.5Z" fill="#7A0019"/>
<path d="M32.5 37.5V51.5H31.5V37.5H32.5Z" fill="#7A0019"/>
<path d="M25.5 37.5V51.5H24.5V37.5H25.5Z" fill="#7A0019"/>
<path d="M35.5918 149.541C35.8679 149.541 36.0918 149.765 36.0918 150.041C36.0918 150.286 35.9149 150.49 35.6817 150.533L35.5918 150.541H27.3877C27.1116 150.541 26.8877 150.317 26.8877 150.041C26.8877 149.795 27.0646 149.591 27.2978 149.549L27.3877 149.541H35.5918Z" fill="#7A0019"/>
<path d="M35.5918 153.623C35.8679 153.623 36.0918 153.846 36.0918 154.123C36.0918 154.368 35.9149 154.572 35.6817 154.615L35.5918 154.623H27.3877C27.1116 154.623 26.8877 154.399 26.8877 154.123C26.8877 153.877 27.0646 153.673 27.2978 153.631L27.3877 153.623H35.5918Z" fill="#7A0019"/>
<path d="M35.5918 157.663C35.8679 157.663 36.0918 157.887 36.0918 158.163C36.0918 158.409 35.9149 158.613 35.6817 158.655L35.5918 158.663H27.3877C27.1116 158.663 26.8877 158.439 26.8877 158.163C26.8877 157.918 27.0646 157.714 27.2978 157.671L27.3877 157.663H35.5918Z" fill="#7A0019"/>
<path d="M35.5918 161.704C35.8679 161.704 36.0918 161.928 36.0918 162.204C36.0918 162.45 35.9149 162.654 35.6817 162.696L35.5918 162.704H27.3877C27.1116 162.704 26.8877 162.48 26.8877 162.204C26.8877 161.959 27.0646 161.754 27.2978 161.712L27.3877 161.704H35.5918Z" fill="#7A0019"/>
<path fill-rule="evenodd" clip-rule="evenodd" d="M23.4692 145.959C27.0611 145.959 33.9182 145.959 37.5101 145.959L39.4692 147.959C39.4692 154.898 39.4692 161.51 39.4692 168.449L37.5101 166.449C33.9182 166.449 27.0611 166.449 23.4692 166.449C23.4692 159.469 23.4692 152.898 23.4692 145.959Z" stroke="#7A0019" stroke-linecap="round" stroke-linejoin="round"/>
<path d="M41.5917 145.959L39.6733 147.959" stroke="#7A0019" stroke-linecap="round" stroke-linejoin="round"/>
<path d="M39.6733 168.449L41.5917 166.449" stroke="#7A0019" stroke-linecap="round" stroke-linejoin="round"/>
<path d="M41.5918 166.449C45.1836 166.449 52.0408 166.449 55.6326 166.449C55.6326 159.51 55.6326 152.898 55.6326 145.959C52.0408 145.959 45.1836 145.959 41.5918 145.959" stroke="#7A0019" stroke-linecap="round" stroke-linejoin="round"/>
<path d="M55.6327 149.184H58.7755V169.633H20V149.102H23.4694" stroke="#7A0019" stroke-linecap="round" stroke-linejoin="round"/>
<path d="M51.7549 149.541C52.031 149.541 52.2549 149.765 52.2549 150.041C52.2549 150.286 52.078 150.49 51.8447 150.533L51.7549 150.541H43.5508C43.2746 150.541 43.0508 150.317 43.0508 150.041C43.0508 149.795 43.2277 149.591 43.4609 149.549L43.5508 149.541H51.7549Z" fill="#7A0019"/>
<path d="M51.7549 153.623C52.031 153.623 52.2549 153.846 52.2549 154.123C52.2549 154.368 52.078 154.572 51.8447 154.615L51.7549 154.623H43.5508C43.2746 154.623 43.0508 154.399 43.0508 154.123C43.0508 153.877 43.2277 153.673 43.4609 153.631L43.5508 153.623H51.7549Z" fill="#7A0019"/>
<path d="M51.7549 157.663C52.031 157.663 52.2549 157.887 52.2549 158.163C52.2549 158.409 52.078 158.613 51.8447 158.655L51.7549 158.663H43.5508C43.2746 158.663 43.0508 158.439 43.0508 158.163C43.0508 157.918 43.2277 157.714 43.4609 157.671L43.5508 157.663H51.7549Z" fill="#7A0019"/>
<path d="M31.2651 145.388C31.2651 144.326 31.51 143.143 32.5713 143.143H45.9182C46.9794 143.143 47.5508 144.326 47.5508 145.388" stroke="#7A0019" stroke-linecap="round" stroke-linejoin="round"/>
<path d="M47.5508 170.245C47.5508 171.306 46.9794 172.49 45.9182 172.49H32.5713C31.51 172.49 31.2651 171.306 31.2651 170.245" stroke="#7A0019" stroke-linecap="round" stroke-linejoin="round"/>
<path d="M41.3471 175.469H37.4287" stroke="#7A0019" stroke-linecap="round" stroke-linejoin="round"/>
<path d="M28.1226 169.959V175.429C28.1226 177.143 29.5511 178.571 31.2654 178.571H47.5511C49.2654 178.571 50.694 177.143 50.694 175.429V170.204" stroke="#7A0019" stroke-linecap="round" stroke-linejoin="round"/>
<path d="M50.694 145.265V143.143C50.694 141.429 49.2654 140 47.5511 140H31.2654C29.5511 140 28.1226 141.429 28.1226 143.143V145.265" stroke="#7A0019" stroke-linecap="round" stroke-linejoin="round"/>
<path fill-rule="evenodd" clip-rule="evenodd" d="M111 39.25H92.8939L97.4683 34.7625L95.6667 33L88 40.5L95.6667 48L97.4683 46.2375L92.8939 41.75H111V39.25Z" fill="#D2D6DE"/>
<path fill-rule="evenodd" clip-rule="evenodd" d="M266 39.25H284.106L279.532 34.7625L281.333 33L289 40.5L281.333 48L279.532 46.2375L284.106 41.75H266V39.25Z" fill="#7A0019"/>
<path fill-rule="evenodd" clip-rule="evenodd" d="M220 114.25H238.106L233.532 109.762L235.333 108L243 115.5L235.333 123L233.532 121.238L238.106 116.75H220V114.25Z" fill="#7A0019"/>
<path d="M278.565 167.348C278.692 167.221 278.88 167.178 279.043 167.233C280.171 167.606 281.369 167.799 282.579 167.799C282.838 167.799 283.053 168.013 283.053 168.273V171.579C283.053 171.838 282.838 172.053 282.579 172.053C273.945 172.053 266.947 165.055 266.947 156.421C266.947 156.162 267.162 155.947 267.421 155.947H270.737C270.996 155.947 271.211 156.162 271.211 156.421C271.211 157.637 271.402 158.825 271.774 159.952C271.827 160.12 271.785 160.302 271.652 160.435L269.568 162.519L269.325 162.762L269.481 163.069C270.887 165.832 273.154 168.096 275.93 169.518L276.237 169.676L276.481 169.432L278.565 167.348ZM276.362 168.675C273.763 167.343 271.641 165.224 270.325 162.639L270.238 163.189L272.322 161.104C272.707 160.72 272.836 160.169 272.676 159.661C272.333 158.624 272.158 157.536 272.158 156.421C272.158 155.638 271.52 155 270.737 155H267.421C266.638 155 266 155.638 266 156.421C266 165.578 273.422 173 282.579 173C283.362 173 284 172.362 284 171.579V168.273C284 167.49 283.362 166.852 282.579 166.852C281.47 166.852 280.373 166.675 279.345 166.335C278.845 166.164 278.277 166.296 277.896 166.678L275.811 168.762L276.362 168.675Z" fill="white"/>
<path d="M281.667 113.81H281.19V114.286V122.857L281.667 122.381H269.286H268.81V122.857V124.762C268.81 125.549 269.451 126.19 270.238 126.19H280.714L280.378 126.051L284.187 129.861L285 130.673V129.524V115.238C285 114.451 284.358 113.81 283.571 113.81H281.667ZM284.048 115.238V129.524L284.861 129.187L281.051 125.378L280.912 125.238H280.714H270.238C269.977 125.238 269.762 125.023 269.762 124.762V122.857L269.286 123.333H281.667H282.143V122.857V114.286L281.667 114.762H283.571C283.832 114.762 284.048 114.977 284.048 115.238ZM280.238 111.429C280.238 110.642 279.596 110 278.81 110H266.429C265.642 110 265 110.642 265 111.429V124.762V125.912L265.813 125.099L269.622 121.289L269.286 121.429H278.81C279.596 121.429 280.238 120.787 280.238 120V111.429ZM278.81 120.476H269.286H269.088L268.949 120.616L265.139 124.425L265.952 124.762V111.429C265.952 111.168 266.168 110.952 266.429 110.952H278.81C279.07 110.952 279.286 111.168 279.286 111.429V120C279.286 120.261 279.07 120.476 278.81 120.476Z" fill="white"/>
<path fill-rule="evenodd" clip-rule="evenodd" d="M200 114.25H181.894L186.468 109.762L184.667 108L177 115.5L184.667 123L186.468 121.238L181.894 116.75H200V114.25Z" fill="#7A0019"/>
<path d="M235.5 39H140.5C139.119 39 138 40.1193 138 41.5C138 42.8807 139.119 44 140.5 44H235.5C236.881 44 238 42.8807 238 41.5C238 40.1193 236.881 39 235.5 39Z" fill="#D2D6DE"/>
<path d="M175.5 39H140.5C139.119 39 138 40.1193 138 41.5C138 42.8807 139.119 44 140.5 44H175.5C176.881 44 178 42.8807 178 41.5C178 40.1193 176.881 39 175.5 39Z" fill="#7A0019"/>
<path fill-rule="evenodd" clip-rule="evenodd" d="M86.5 90.7793L90.5172 93L89.75 88.2966L93 84.9656L88.5086 84.2793L86.5 80L84.4914 84.2793L80 84.9656L83.25 88.2966L82.4828 93L86.5 90.7793Z" fill="#F1B006"/>
<path fill-rule="evenodd" clip-rule="evenodd" d="M102.5 90.7793L106.517 93L105.75 88.2966L109 84.9656L104.509 84.2793L102.5 80L100.491 84.2793L96 84.9656L99.25 88.2966L98.4828 93L102.5 90.7793Z" fill="#F1B006"/>
<path fill-rule="evenodd" clip-rule="evenodd" d="M119.5 90.7793L123.517 93L122.75 88.2966L126 84.9656L121.509 84.2793L119.5 80L117.491 84.2793L113 84.9656L116.25 88.2966L115.483 93L119.5 90.7793Z" fill="#F1B006"/>
<path fill-rule="evenodd" clip-rule="evenodd" d="M135.5 90.7793L139.517 93L138.75 88.2966L142 84.9656L137.509 84.2793L135.5 80L133.491 84.2793L129 84.9656L132.25 88.2966L131.483 93L135.5 90.7793Z" fill="#F1B006"/>
<path fill-rule="evenodd" clip-rule="evenodd" d="M151.5 90.7793L155.517 93L154.75 88.2966L158 84.9656L153.509 84.2793L151.5 80L149.491 84.2793L145 84.9656L148.25 88.2966L147.483 93L151.5 90.7793Z" fill="#F1B006"/>
<path d="M264 85H188C186.895 85 186 85.8954 186 87C186 88.1046 186.895 89 188 89H264C265.105 89 266 88.1046 266 87C266 85.8954 265.105 85 264 85Z" fill="#D2D6DE"/>
<path d="M220 85H188C186.895 85 186 85.8954 186 87C186 88.1046 186.895 89 188 89H220C221.105 89 222 88.1046 222 87C222 85.8954 221.105 85 220 85Z" fill="#7A0019"/>
<path fill-rule="evenodd" clip-rule="evenodd" d="M186.366 159.333C185.453 159.853 184.445 160.231 183.367 160.434C182.508 159.551 181.281 159 179.923 159C177.319 159 175.206 161.035 175.206 163.544C175.206 163.9 175.247 164.246 175.328 164.579C171.406 164.389 167.93 162.582 165.601 159.829C165.194 160.503 164.962 161.284 164.962 162.117C164.962 163.692 165.795 165.083 167.062 165.898C166.289 165.876 165.56 165.67 164.923 165.332V165.387C164.923 167.59 166.55 169.427 168.71 169.843C168.315 169.95 167.897 170.003 167.467 170.003C167.163 170.003 166.866 169.976 166.579 169.922C167.179 171.727 168.921 173.041 170.986 173.077C169.372 174.296 167.336 175.022 165.126 175.022C164.745 175.022 164.368 175.002 164 174.96C166.088 176.247 168.57 177 171.234 177C179.914 177 184.659 170.077 184.659 164.072C184.659 163.874 184.655 163.677 184.647 163.483C185.569 162.842 186.37 162.042 187 161.131C186.155 161.492 185.245 161.737 184.291 161.846C185.265 161.284 186.013 160.394 186.366 159.333Z" fill="#1CA2F1"/>
<path fill-rule="evenodd" clip-rule="evenodd" d="M221.622 165.413V179H217.529V165.413H221.622ZM232.806 165.283C235.714 165.283 238 167.237 238 171.446V179H233.359V171.969C233.359 170.129 232.633 168.873 231.036 168.873C229.815 168.873 229.136 169.72 228.82 170.537C228.741 170.733 228.723 170.98 228.72 171.244V179H224.122L224.123 178.83C224.127 178 224.143 174.277 224.147 170.95L224.148 170.291C224.148 170.183 224.148 170.075 224.148 169.968V168.728C224.147 167.05 224.139 165.745 224.122 165.413H228.72V167.546C228.991 166.613 230.461 165.283 232.806 165.283ZM219.5 159C221.01 159 221.939 160.014 221.969 161.355C221.969 162.672 221.01 163.714 219.472 163.714H219.442C217.961 163.714 217 162.675 217 161.359C217 160.017 217.989 159 219.5 159Z" fill="#0376B7"/>
<path d="M276.389 238.667V239.278H277.611V238.667V225.222V224.611H276.389V225.222V238.667Z" fill="white"/>
<path d="M282.321 235.432L282.753 235L281.889 234.136L281.457 234.568L276.568 239.457L276.136 239.889L277 240.753L277.432 240.321L282.321 235.432Z" fill="white"/>
<path d="M272.543 234.568L272.111 234.136L271.247 235L271.679 235.432L276.568 240.321L277 240.753L277.864 239.889L277.432 239.457L272.543 234.568Z" fill="white"/>
<path d="M266.611 244.778V245.389H267.222H286.778H287.389V244.778V241.111H286.167V244.778L286.778 244.167H267.222L267.834 244.778V241.111H266.611V244.778Z" fill="white"/>
<path fill-rule="evenodd" clip-rule="evenodd" d="M236.5 235.5L230.824 229.5L229.5 230.9L233.851 235.5L229.5 240.1L230.824 241.5L236.5 235.5Z" fill="white"/>
<path d="M189 233L194 238L199 233" stroke="#848DA0" stroke-width="1.5"/>
<path fill-rule="evenodd" clip-rule="evenodd" d="M105 227.15C107.444 227.15 109.656 228.14 111.258 229.742C112.859 231.344 113.85 233.556 113.85 236C113.85 238.444 112.859 240.656 111.258 242.258C109.656 243.859 107.444 244.85 105 244.85C102.556 244.85 100.344 243.859 98.742 242.258C97.1405 240.656 96.1499 238.444 96.1499 236C96.1499 233.556 97.1405 231.344 98.742 229.742C100.344 228.14 102.556 227.15 105 227.15Z" stroke="#7A0019" stroke-width="1.5"/>
<path fill-rule="evenodd" clip-rule="evenodd" d="M132.85 227C135.294 227 137.506 227.99 139.108 229.592C140.709 231.194 141.7 233.406 141.7 235.85C141.7 238.294 140.709 240.506 139.108 242.108C137.506 243.709 135.294 244.7 132.85 244.7C130.406 244.7 128.194 243.709 126.592 242.108C124.991 240.506 124 238.294 124 235.85C124 233.406 124.991 231.194 126.592 229.592C128.194 227.99 130.406 227 132.85 227Z" stroke="white" stroke-width="1.5"/>
<path d="M100.2 236L103.4 239.2L109.8 232.8" stroke="#7A0019" stroke-width="1.5"/>
<path d="M128.05 235.85L131.25 239.05L137.65 232.65" stroke="white" stroke-width="1.5"/>
<path d="M33.6857 224.363V222.58C33.6857 221.422 31.2165 219.906 29.1963 219.906C27.1761 219.906 24.707 221.422 24.707 222.58V224.363" stroke="#7A0019" stroke-linecap="round" stroke-linejoin="round"/>
<path fill-rule="evenodd" clip-rule="evenodd" d="M29.1975 213.712C27.8058 213.712 26.5039 214.737 26.5039 215.94V217.678C26.5039 218.926 27.8058 219.906 29.1975 219.906C30.5892 219.906 31.8911 218.881 31.8911 217.678V215.94C31.8911 214.692 30.5892 213.712 29.1975 213.712Z" stroke="#7A0019" stroke-linecap="round" stroke-linejoin="round"/>
<path d="M59.5455 208.024H20.4545C20.2035 208.024 20 208.226 20 208.476V235.549C20 235.798 20.2035 236 20.4545 236H59.5455C59.7965 236 60 235.798 60 235.549V208.476C60 208.226 59.7965 208.024 59.5455 208.024ZM59.0909 208.927V235.098H20.9091V208.927H59.0909Z" fill="#7A0019"/>
<path d="M57.7266 203.512C57.9497 203.512 58.1353 203.672 58.1738 203.882L58.1811 203.963V206.671C58.1811 206.92 57.9776 207.122 57.7266 207.122C57.5034 207.122 57.3178 206.962 57.2793 206.752L57.272 206.671V204.415H23.6356V206.671C23.6356 206.892 23.4748 207.076 23.2628 207.115L23.1811 207.122C22.958 207.122 22.7724 206.962 22.7339 206.752L22.7266 206.671V203.963C22.7266 203.742 22.8873 203.558 23.0994 203.519L23.1811 203.512H57.7266Z" fill="#7A0019"/>
<path d="M55.0005 199C55.2237 199 55.4093 199.16 55.4478 199.37L55.4551 199.451V202.159C55.4551 202.408 55.2516 202.61 55.0005 202.61C54.7774 202.61 54.5918 202.45 54.5533 202.24L54.546 202.159V199.902H26.3642V202.159C26.3642 202.38 26.2034 202.564 25.9913 202.602L25.9096 202.61C25.6865 202.61 25.5009 202.45 25.4624 202.24L25.4551 202.159V199.451C25.4551 199.23 25.6159 199.045 25.8279 199.007L25.9096 199H55.0005Z" fill="#7A0019"/>
<path d="M55.4539 227.427C55.705 227.426 55.9088 227.638 55.9092 227.9C55.9096 228.132 55.7491 228.326 55.5371 228.366L55.4554 228.374L24.5295 228.427C24.2785 228.427 24.0746 228.215 24.0742 227.954C24.0739 227.721 24.2343 227.528 24.4463 227.487L24.528 227.479L55.4539 227.427Z" fill="#7A0019"/>
<path d="M38.031 214.336V217.946H37.582V214.336H38.031Z" fill="#7A0019" stroke="#7A0019" stroke-width="0.25"/>
<path d="M39.2868 214.336V217.946H38.8379V214.336H39.2868Z" fill="#7A0019" stroke="#7A0019" stroke-width="0.25"/>
<path d="M43.1934 216.386C43.1485 215.896 43.1485 215.272 43.1485 214.826C43.0138 215.227 42.8791 215.717 42.6995 216.208L42.071 217.946H41.7119L41.1283 216.208C40.9487 215.717 40.814 215.227 40.7242 214.826C40.7242 215.272 40.6793 215.896 40.6344 216.43L40.5446 217.99H40.0957L40.3651 214.38H40.9487L41.5772 216.118C41.7119 216.564 41.8466 216.965 41.9363 217.322C42.0261 216.965 42.1608 216.564 42.3404 216.118L42.9689 214.38H43.5525L43.777 217.99H43.328L43.1934 216.386Z" fill="#7A0019" stroke="#7A0019" stroke-width="0.25"/>
<path d="M46.3801 214.336H46.829V216.742C46.829 217.723 46.3352 217.99 45.7067 217.99C45.5271 217.99 45.3027 217.946 45.2129 217.901L45.3027 217.5C45.3925 217.545 45.5271 217.589 45.7067 217.589C46.1107 217.589 46.3801 217.411 46.3801 216.698V214.336Z" fill="#7A0019" stroke="#7A0019" stroke-width="0.25"/>
<path d="M50.7362 216.118C50.7362 217.366 49.973 218.035 49.0302 218.035C48.0875 218.035 47.4141 217.277 47.4141 216.208C47.4141 215.049 48.1324 214.291 49.12 214.291C50.0628 214.291 50.7362 215.049 50.7362 216.118ZM47.9079 216.163C47.9079 216.921 48.312 217.634 49.0751 217.634C49.8383 217.634 50.2424 216.965 50.2424 216.118C50.2424 215.405 49.8832 214.648 49.0751 214.648C48.2671 214.692 47.9079 215.405 47.9079 216.163Z" fill="#7A0019" stroke="#7A0019" stroke-width="0.25"/>
<path d="M51.3184 214.38C51.5429 214.336 51.8572 214.291 52.1714 214.291C52.6204 214.291 52.9346 214.38 53.1591 214.559C53.3386 214.692 53.4733 214.915 53.4733 215.183C53.4733 215.539 53.2489 215.851 52.8448 215.985C53.204 216.074 53.608 216.341 53.608 216.876C53.608 217.188 53.4733 217.411 53.2938 217.589C53.0244 217.812 52.6204 217.946 52.0367 217.946C51.7225 217.946 51.4531 217.946 51.3184 217.901V214.38ZM51.8123 215.896H52.2612C52.755 215.896 53.0693 215.628 53.0693 215.272C53.0693 214.826 52.755 214.692 52.2612 214.692C52.0367 214.692 51.9021 214.692 51.8572 214.737V215.896H51.8123ZM51.8123 217.589C51.9021 217.589 52.0367 217.589 52.2163 217.589C52.7101 217.589 53.1591 217.411 53.1591 216.876C53.1591 216.386 52.7101 216.163 52.2163 216.163H51.8123V217.589Z" fill="#7A0019" stroke="#7A0019" stroke-width="0.25"/>
<path d="M54.1914 217.411C54.4158 217.544 54.7301 217.634 55.0443 217.634C55.5382 217.634 55.8075 217.366 55.8075 217.01C55.8075 216.653 55.628 216.475 55.1341 216.297C54.5505 216.074 54.1914 215.762 54.1914 215.272C54.1914 214.692 54.6403 214.291 55.3586 214.291C55.7177 214.291 55.9871 214.38 56.1667 214.47L56.032 214.871C55.8973 214.826 55.6728 214.692 55.3586 214.692C54.8648 214.692 54.6852 215.004 54.6852 215.227C54.6852 215.584 54.9097 215.717 55.4035 215.94C56.032 216.163 56.3462 216.475 56.3462 217.01C56.3462 217.544 55.9422 218.035 55.0892 218.035C54.7301 218.035 54.3709 217.946 54.1465 217.812L54.1914 217.411Z" fill="#7A0019" stroke="#7A0019" stroke-width="0.25"/>
<path d="M55.4941 223.065C55.7452 223.065 55.9487 223.289 55.9487 223.565C55.9487 223.81 55.788 224.015 55.5759 224.057L55.4941 224.065H37.9857C37.7347 224.065 37.5312 223.841 37.5312 223.565C37.5312 223.319 37.692 223.115 37.904 223.073L37.9857 223.065H55.4941Z" fill="#7A0019"/>
<path d="M169 234L163.5 239L158 234" stroke="#7A0019" stroke-width="2"/>
<path d="M20 278L25 283.5L20 289" stroke="#7A0019" stroke-width="1.5"/>
<path d="M120 278L125 283.5L120 289" stroke="white" stroke-width="1.5"/>
<path d="M51 285L56.5 280L62 285" stroke="#7A0019" stroke-width="2"/>
<path d="M91 280L85.5 285L80 280" stroke="#7A0019" stroke-width="2"/>
<path fill-rule="evenodd" clip-rule="evenodd" d="M57 88H49.3812C48.6238 88 48 87.3762 48 86.6188V79L57 88V88Z" stroke="#7A0019" stroke-linecap="round" stroke-linejoin="round"/>
<path d="M48 79H19.3997C18.6532 79 18 79.6067 18 80.4V105.6C18 106.347 18.6065 107 19.3997 107H37.549" stroke="#7A0019" stroke-linecap="round" stroke-linejoin="round"/>
<path d="M57 89V105.122C57 106.176 56.1148 107 54.9836 107H51" stroke="#7A0019" stroke-linecap="round" stroke-linejoin="round"/>
<circle cx="44.5" cy="105.5" r="3.5" stroke="#7A0019" stroke-linecap="round" stroke-linejoin="round"/>
<circle cx="44" cy="106" r="7" stroke="#7A0019" stroke-linecap="round" stroke-linejoin="round"/>
<path d="M38.1743 109.226L35 114.925L41.3487 118L44.753 113.025L48.1114 118L54 115.106L50.9177 109" stroke="#7A0019" stroke-linecap="round" stroke-linejoin="round"/>
<path d="M43.4944 94C43.7736 94 44 94.2239 44 94.5C44 94.7455 43.8211 94.9496 43.5853 94.9919L43.4944 95H23.5056C23.2264 95 23 94.7761 23 94.5C23 94.2545 23.1789 94.0504 23.4147 94.0081L23.5056 94H43.4944Z" fill="#7A0019"/>
<path d="M35.687 98C35.8599 98 36 98.2239 36 98.5C36 98.7455 35.8893 98.9496 35.7433 98.9919L35.687 99H23.313C23.1401 99 23 98.7761 23 98.5C23 98.2545 23.1107 98.0504 23.2567 98.0081L23.313 98H35.687Z" fill="#7A0019"/>
<path fill-rule="evenodd" clip-rule="evenodd" d="M29.2678 84.2774C29.2678 85.5351 28.1972 86.5547 26.8766 86.5547C25.5566 86.5533 24.4869 85.5345 24.4854 84.2774C24.4854 83.0196 25.5559 82 26.8766 82C28.1972 82 29.2678 83.0196 29.2678 84.2774ZM28.7138 84.2772C28.7138 83.3108 27.8912 82.5273 26.8764 82.5273C25.862 82.5281 25.0398 83.3111 25.0391 84.2772C25.0391 85.2437 25.8617 86.0271 26.8764 86.0271C27.8912 86.0271 28.7138 85.2437 28.7138 84.2772Z" fill="#7A0019"/>
<path d="M26.8766 86.5547L26.8764 86.7547H26.8766V86.5547ZM24.4854 84.2774H24.2854L24.2854 84.2776L24.4854 84.2774ZM26.8764 82.5273V82.3273L26.8763 82.3273L26.8764 82.5273ZM25.0391 84.2772L24.8391 84.2771V84.2772H25.0391ZM26.8766 86.7547C28.2984 86.7547 29.4678 85.6547 29.4678 84.2774H29.0678C29.0678 85.4156 28.0961 86.3547 26.8766 86.3547V86.7547ZM24.2854 84.2776C24.287 85.6541 25.4554 86.7532 26.8764 86.7547L26.8768 86.3547C25.6578 86.3534 24.6867 85.4149 24.6854 84.2771L24.2854 84.2776ZM26.8766 81.8C25.4548 81.8 24.2854 82.9001 24.2854 84.2774H24.6854C24.6854 83.1392 25.6571 82.2 26.8766 82.2V81.8ZM29.4678 84.2774C29.4678 82.9001 28.2984 81.8 26.8766 81.8V82.2C28.0961 82.2 29.0678 83.1392 29.0678 84.2774H29.4678ZM26.8764 82.7273C27.7901 82.7273 28.5138 83.4303 28.5138 84.2772H28.9138C28.9138 83.1913 27.9924 82.3273 26.8764 82.3273V82.7273ZM25.2391 84.2774C25.2397 83.4307 25.9632 82.728 26.8766 82.7273L26.8763 82.3273C25.7608 82.3281 24.8399 83.1915 24.8391 84.2771L25.2391 84.2774ZM26.8764 85.8271C25.9628 85.8271 25.2391 85.1241 25.2391 84.2772H24.8391C24.8391 85.3632 25.7605 86.2271 26.8764 86.2271V85.8271ZM28.5138 84.2772C28.5138 85.1241 27.7901 85.8271 26.8764 85.8271V86.2271C27.9924 86.2271 28.9138 85.3632 28.9138 84.2772H28.5138Z" fill="#7A0019"/>
<path d="M26.8769 87.7144C24.7377 87.7144 23 89.1385 23 90.8884C23 91.0341 23.124 91.1522 23.2769 91.1522C23.4299 91.1522 23.5538 91.0341 23.5538 90.8884C23.5538 89.4286 25.0465 88.2418 26.8769 88.2418C28.7074 88.2418 30.2 89.4286 30.2 90.8884C30.2 91.0341 30.324 91.1522 30.4769 91.1522C30.6299 91.1522 30.7538 91.0341 30.7538 90.8884C30.7538 89.1385 29.0162 87.7144 26.8769 87.7144Z" fill="#7A0019" stroke="#7A0019" stroke-width="0.4"/>
</svg>
