<svg width="327" height="306" viewBox="0 0 327 306" fill="none" xmlns="http://www.w3.org/2000/svg">
<path d="M58.3427 53.8091H21.2191C20.5385 53.8091 20 54.3475 20 55.0282V57.9945C20 58.6751 20.5385 59.2136 21.2191 59.2136H58.3427C59.0233 59.2136 59.5618 58.6751 59.5618 57.9945V55.0282C59.5618 54.3475 59.0233 53.8091 58.3427 53.8091ZM21.2191 54.8091H58.3427C58.4711 54.8091 58.5618 54.8998 58.5618 55.0282V57.9945C58.5618 58.1228 58.4711 58.2136 58.3427 58.2136H21.2191C21.0907 58.2136 21 58.1228 21 57.9945V55.0282C21 54.8998 21.0907 54.8091 21.2191 54.8091Z" fill="#FF6C0C"/>
<path d="M58.3305 30.8241L40.3979 20.1724C40.0148 19.9425 39.5473 19.9425 39.1643 20.1724L21.2336 30.8229C20.8812 30.9574 20.6294 31.3694 20.6294 31.8371V34.309C20.6294 34.9896 21.1679 35.5281 21.8485 35.5281H57.6687C58.3288 35.5281 58.8566 35.0223 58.9297 34.3642L58.9328 31.8371C58.9328 31.428 58.6987 31.045 58.3305 30.8241ZM39.8834 21.0299L57.8179 31.6827C57.8932 31.7279 57.9328 31.7926 57.9328 31.8371V34.309C57.9174 34.4194 57.804 34.5281 57.6687 34.5281H21.8485C21.7201 34.5281 21.6294 34.4373 21.6294 34.309V31.8371C21.6294 31.7613 21.6505 31.7267 21.6746 31.717L39.6769 21.031C39.7452 20.99 39.817 20.99 39.8834 21.0299Z" fill="#FF6C0C"/>
<path d="M53.8934 31.1572C54.1695 31.1572 54.3934 31.3811 54.3934 31.6572C54.3934 31.9027 54.2165 32.1068 53.9832 32.1492L53.8934 32.1572H25.3091C25.0329 32.1572 24.8091 31.9334 24.8091 31.6572C24.8091 31.4118 24.986 31.2076 25.2192 31.1653L25.3091 31.1572H53.8934Z" fill="#FF6C0C"/>
<path d="M33.0392 36.9214C33.3154 36.9214 33.5392 37.1452 33.5392 37.4214C33.5392 37.6668 33.3623 37.871 33.1291 37.9133L33.0392 37.9214H23.7358C23.4597 37.9214 23.2358 37.6975 23.2358 37.4214C23.2358 37.1759 23.4127 36.9718 23.646 36.9294L23.7358 36.9214H33.0392Z" fill="#FF6C0C"/>
<path d="M44.4552 36.9214C44.7314 36.9214 44.9552 37.1452 44.9552 37.4214C44.9552 37.6668 44.7784 37.871 44.5451 37.9133L44.4552 37.9214H35.1519C34.8757 37.9214 34.6519 37.6975 34.6519 37.4214C34.6519 37.1759 34.8287 36.9718 35.062 36.9294L35.1519 36.9214H44.4552Z" fill="#FF6C0C"/>
<path d="M55.8258 36.9214C56.102 36.9214 56.3258 37.1452 56.3258 37.4214C56.3258 37.6668 56.149 37.871 55.9157 37.9133L55.8258 37.9214H46.5225C46.2463 37.9214 46.0225 37.6975 46.0225 37.4214C46.0225 37.1759 46.1993 36.9718 46.4326 36.9294L46.5225 36.9214H55.8258Z" fill="#FF6C0C"/>
<path d="M33.0392 51.4158C33.3154 51.4158 33.5392 51.6396 33.5392 51.9158C33.5392 52.1612 33.3623 52.3654 33.1291 52.4077L33.0392 52.4158H23.7358C23.4597 52.4158 23.2358 52.1919 23.2358 51.9158C23.2358 51.6703 23.4127 51.4662 23.646 51.4238L23.7358 51.4158H33.0392Z" fill="#FF6C0C"/>
<path d="M44.4552 51.4158C44.7314 51.4158 44.9552 51.6396 44.9552 51.9158C44.9552 52.1612 44.7784 52.3654 44.5451 52.4077L44.4552 52.4158H35.1519C34.8757 52.4158 34.6519 52.1919 34.6519 51.9158C34.6519 51.6703 34.8287 51.4662 35.062 51.4238L35.1519 51.4158H44.4552Z" fill="#FF6C0C"/>
<path d="M55.8258 51.4158C56.102 51.4158 56.3258 51.6396 56.3258 51.9158C56.3258 52.1612 56.149 52.3654 55.9157 52.4077L55.8258 52.4158H46.5225C46.2463 52.4158 46.0225 52.1919 46.0225 51.9158C46.0225 51.6703 46.1993 51.4662 46.4326 51.4238L46.5225 51.4158H55.8258Z" fill="#FF6C0C"/>
<path d="M55.5 37.5V51.5H54.5V37.5H55.5Z" fill="#FF6C0C"/>
<path d="M48 37.5V51.5H47V37.5H48Z" fill="#FF6C0C"/>
<path d="M44 37.5V51.5H43V37.5H44Z" fill="#FF6C0C"/>
<path d="M36.5 37.5V51.5H35.5V37.5H36.5Z" fill="#FF6C0C"/>
<path d="M32.5 37.5V51.5H31.5V37.5H32.5Z" fill="#FF6C0C"/>
<path d="M25.5 37.5V51.5H24.5V37.5H25.5Z" fill="#FF6C0C"/>
<path d="M35.5918 149.541C35.8679 149.541 36.0918 149.765 36.0918 150.041C36.0918 150.286 35.9149 150.49 35.6817 150.533L35.5918 150.541H27.3877C27.1116 150.541 26.8877 150.317 26.8877 150.041C26.8877 149.795 27.0646 149.591 27.2978 149.549L27.3877 149.541H35.5918Z" fill="#FF6C0C"/>
<path d="M35.5918 153.623C35.8679 153.623 36.0918 153.846 36.0918 154.123C36.0918 154.368 35.9149 154.572 35.6817 154.615L35.5918 154.623H27.3877C27.1116 154.623 26.8877 154.399 26.8877 154.123C26.8877 153.877 27.0646 153.673 27.2978 153.631L27.3877 153.623H35.5918Z" fill="#FF6C0C"/>
<path d="M35.5918 157.663C35.8679 157.663 36.0918 157.887 36.0918 158.163C36.0918 158.409 35.9149 158.613 35.6817 158.655L35.5918 158.663H27.3877C27.1116 158.663 26.8877 158.439 26.8877 158.163C26.8877 157.918 27.0646 157.714 27.2978 157.671L27.3877 157.663H35.5918Z" fill="#FF6C0C"/>
<path d="M35.5918 161.704C35.8679 161.704 36.0918 161.928 36.0918 162.204C36.0918 162.45 35.9149 162.654 35.6817 162.696L35.5918 162.704H27.3877C27.1116 162.704 26.8877 162.48 26.8877 162.204C26.8877 161.959 27.0646 161.754 27.2978 161.712L27.3877 161.704H35.5918Z" fill="#FF6C0C"/>
<path fill-rule="evenodd" clip-rule="evenodd" d="M23.4692 145.959C27.0611 145.959 33.9182 145.959 37.5101 145.959L39.4692 147.959C39.4692 154.898 39.4692 161.51 39.4692 168.449L37.5101 166.449C33.9182 166.449 27.0611 166.449 23.4692 166.449C23.4692 159.469 23.4692 152.898 23.4692 145.959Z" stroke="#FF6C0C" stroke-linecap="round" stroke-linejoin="round"/>
<path d="M41.5917 145.959L39.6733 147.959" stroke="#FF6C0C" stroke-linecap="round" stroke-linejoin="round"/>
<path d="M39.6733 168.449L41.5917 166.449" stroke="#FF6C0C" stroke-linecap="round" stroke-linejoin="round"/>
<path d="M41.5918 166.449C45.1836 166.449 52.0408 166.449 55.6326 166.449C55.6326 159.51 55.6326 152.898 55.6326 145.959C52.0408 145.959 45.1836 145.959 41.5918 145.959" stroke="#FF6C0C" stroke-linecap="round" stroke-linejoin="round"/>
<path d="M55.6327 149.184H58.7755V169.633H20V149.102H23.4694" stroke="#FF6C0C" stroke-linecap="round" stroke-linejoin="round"/>
<path d="M51.7549 149.541C52.031 149.541 52.2549 149.765 52.2549 150.041C52.2549 150.286 52.078 150.49 51.8447 150.533L51.7549 150.541H43.5508C43.2746 150.541 43.0508 150.317 43.0508 150.041C43.0508 149.795 43.2277 149.591 43.4609 149.549L43.5508 149.541H51.7549Z" fill="#FF6C0C"/>
<path d="M51.7549 153.623C52.031 153.623 52.2549 153.846 52.2549 154.123C52.2549 154.368 52.078 154.572 51.8447 154.615L51.7549 154.623H43.5508C43.2746 154.623 43.0508 154.399 43.0508 154.123C43.0508 153.877 43.2277 153.673 43.4609 153.631L43.5508 153.623H51.7549Z" fill="#FF6C0C"/>
<path d="M51.7549 157.663C52.031 157.663 52.2549 157.887 52.2549 158.163C52.2549 158.409 52.078 158.613 51.8447 158.655L51.7549 158.663H43.5508C43.2746 158.663 43.0508 158.439 43.0508 158.163C43.0508 157.918 43.2277 157.714 43.4609 157.671L43.5508 157.663H51.7549Z" fill="#FF6C0C"/>
<path d="M31.2651 145.388C31.2651 144.326 31.51 143.143 32.5713 143.143H45.9182C46.9794 143.143 47.5508 144.326 47.5508 145.388" stroke="#FF6C0C" stroke-linecap="round" stroke-linejoin="round"/>
<path d="M47.5508 170.245C47.5508 171.306 46.9794 172.49 45.9182 172.49H32.5713C31.51 172.49 31.2651 171.306 31.2651 170.245" stroke="#FF6C0C" stroke-linecap="round" stroke-linejoin="round"/>
<path d="M41.3471 175.469H37.4287" stroke="#FF6C0C" stroke-linecap="round" stroke-linejoin="round"/>
<path d="M28.1226 169.959V175.429C28.1226 177.143 29.5511 178.571 31.2654 178.571H47.5511C49.2654 178.571 50.694 177.143 50.694 175.429V170.204" stroke="#FF6C0C" stroke-linecap="round" stroke-linejoin="round"/>
<path d="M50.694 145.265V143.143C50.694 141.429 49.2654 140 47.5511 140H31.2654C29.5511 140 28.1226 141.429 28.1226 143.143V145.265" stroke="#FF6C0C" stroke-linecap="round" stroke-linejoin="round"/>
<path d="M33.6867 224.363V222.58C33.6867 221.422 31.2175 219.906 29.1973 219.906C27.1771 219.906 24.708 221.422 24.708 222.58V224.363" stroke="#FF6C0C" stroke-linecap="round" stroke-linejoin="round"/>
<path fill-rule="evenodd" clip-rule="evenodd" d="M29.1975 213.712C27.8058 213.712 26.5039 214.737 26.5039 215.94V217.678C26.5039 218.926 27.8058 219.906 29.1975 219.906C30.5892 219.906 31.8911 218.881 31.8911 217.678V215.94C31.8911 214.692 30.5892 213.712 29.1975 213.712Z" stroke="#FF6C0C" stroke-linecap="round" stroke-linejoin="round"/>
<path d="M59.5455 208.024H20.4545C20.2035 208.024 20 208.226 20 208.476V235.549C20 235.798 20.2035 236 20.4545 236H59.5455C59.7965 236 60 235.798 60 235.549V208.476C60 208.226 59.7965 208.024 59.5455 208.024ZM59.0909 208.927V235.098H20.9091V208.927H59.0909Z" fill="#FF6C0C"/>
<path d="M57.7271 203.512C57.9502 203.512 58.1358 203.672 58.1743 203.882L58.1816 203.963V206.671C58.1816 206.92 57.9781 207.122 57.7271 207.122C57.5039 207.122 57.3183 206.962 57.2798 206.752L57.2725 206.671V204.415H23.6361V206.671C23.6361 206.892 23.4753 207.076 23.2633 207.115L23.1816 207.122C22.9585 207.122 22.7729 206.962 22.7344 206.752L22.7271 206.671V203.963C22.7271 203.742 22.8878 203.558 23.0999 203.519L23.1816 203.512H57.7271Z" fill="#FF6C0C"/>
<path d="M55 199C55.2232 199 55.4088 199.16 55.4473 199.37L55.4546 199.451V202.159C55.4546 202.408 55.2511 202.61 55 202.61C54.7769 202.61 54.5913 202.45 54.5528 202.24L54.5455 202.159V199.902H26.3637V202.159C26.3637 202.38 26.2029 202.564 25.9908 202.602L25.9091 202.61C25.686 202.61 25.5004 202.45 25.4619 202.24L25.4546 202.159V199.451C25.4546 199.23 25.6154 199.045 25.8274 199.007L25.9091 199H55Z" fill="#FF6C0C"/>
<path d="M55.4539 227.427C55.705 227.426 55.9088 227.638 55.9092 227.9C55.9096 228.132 55.7491 228.326 55.5371 228.366L55.4554 228.374L24.5295 228.427C24.2785 228.427 24.0746 228.215 24.0742 227.954C24.0739 227.721 24.2343 227.528 24.4463 227.487L24.528 227.479L55.4539 227.427Z" fill="#FF6C0C"/>
<path d="M38.0305 214.336V217.946H37.5815V214.336H38.0305Z" fill="#FF6C0C" stroke="#FF6C0C" stroke-width="0.25"/>
<path d="M39.2873 214.336V217.946H38.8384V214.336H39.2873Z" fill="#FF6C0C" stroke="#FF6C0C" stroke-width="0.25"/>
<path d="M43.1929 216.386C43.148 215.896 43.148 215.272 43.148 214.826C43.0133 215.227 42.8786 215.717 42.699 216.208L42.0705 217.946H41.7114L41.1278 216.208C40.9482 215.717 40.8135 215.227 40.7237 214.826C40.7237 215.272 40.6788 215.896 40.6339 216.43L40.5441 217.99H40.0952L40.3646 214.38H40.9482L41.5767 216.118C41.7114 216.564 41.8461 216.965 41.9358 217.322C42.0256 216.965 42.1603 216.564 42.3399 216.118L42.9684 214.38H43.552L43.7765 217.99H43.3275L43.1929 216.386Z" fill="#FF6C0C" stroke="#FF6C0C" stroke-width="0.25"/>
<path d="M46.3806 214.336H46.8295V216.742C46.8295 217.723 46.3357 217.99 45.7072 217.99C45.5276 217.99 45.3032 217.946 45.2134 217.901L45.3032 217.5C45.393 217.545 45.5276 217.589 45.7072 217.589C46.1112 217.589 46.3806 217.411 46.3806 216.698V214.336Z" fill="#FF6C0C" stroke="#FF6C0C" stroke-width="0.25"/>
<path d="M50.7352 216.118C50.7352 217.366 49.972 218.035 49.0292 218.035C48.0865 218.035 47.4131 217.277 47.4131 216.208C47.4131 215.049 48.1314 214.291 49.119 214.291C50.0618 214.291 50.7352 215.049 50.7352 216.118ZM47.9069 216.163C47.9069 216.921 48.311 217.634 49.0741 217.634C49.8373 217.634 50.2414 216.965 50.2414 216.118C50.2414 215.405 49.8822 214.648 49.0741 214.648C48.2661 214.692 47.9069 215.405 47.9069 216.163Z" fill="#FF6C0C" stroke="#FF6C0C" stroke-width="0.25"/>
<path d="M51.3188 214.38C51.5433 214.336 51.8576 214.291 52.1718 214.291C52.6208 214.291 52.935 214.38 53.1595 214.559C53.339 214.692 53.4737 214.915 53.4737 215.183C53.4737 215.539 53.2493 215.851 52.8452 215.985C53.2044 216.074 53.6084 216.341 53.6084 216.876C53.6084 217.188 53.4737 217.411 53.2942 217.589C53.0248 217.812 52.6208 217.946 52.0371 217.946C51.7229 217.946 51.4535 217.946 51.3188 217.901V214.38ZM51.8127 215.896H52.2616C52.7554 215.896 53.0697 215.628 53.0697 215.272C53.0697 214.826 52.7554 214.692 52.2616 214.692C52.0371 214.692 51.9025 214.692 51.8576 214.737V215.896H51.8127ZM51.8127 217.589C51.9025 217.589 52.0371 217.589 52.2167 217.589C52.7105 217.589 53.1595 217.411 53.1595 216.876C53.1595 216.386 52.7105 216.163 52.2167 216.163H51.8127V217.589Z" fill="#FF6C0C" stroke="#FF6C0C" stroke-width="0.25"/>
<path d="M54.1919 217.411C54.4163 217.544 54.7306 217.634 55.0448 217.634C55.5387 217.634 55.808 217.366 55.808 217.01C55.808 216.653 55.6285 216.475 55.1346 216.297C54.551 216.074 54.1919 215.762 54.1919 215.272C54.1919 214.692 54.6408 214.291 55.3591 214.291C55.7182 214.291 55.9876 214.38 56.1672 214.47L56.0325 214.871C55.8978 214.826 55.6733 214.692 55.3591 214.692C54.8653 214.692 54.6857 215.004 54.6857 215.227C54.6857 215.584 54.9102 215.717 55.404 215.94C56.0325 216.163 56.3467 216.475 56.3467 217.01C56.3467 217.544 55.9427 218.035 55.0897 218.035C54.7306 218.035 54.3714 217.946 54.147 217.812L54.1919 217.411Z" fill="#FF6C0C" stroke="#FF6C0C" stroke-width="0.25"/>
<path d="M55.4937 223.065C55.7448 223.065 55.9483 223.289 55.9483 223.565C55.9483 223.81 55.7875 224.015 55.5754 224.057L55.4937 224.065H37.9853C37.7343 224.065 37.5308 223.841 37.5308 223.565C37.5308 223.319 37.6916 223.115 37.9036 223.073L37.9853 223.065H55.4937Z" fill="#FF6C0C"/>
<path fill-rule="evenodd" clip-rule="evenodd" d="M59.349 89.3953H51.3955C50.6048 89.3953 49.9536 88.7442 49.9536 87.9535V80L59.349 89.3953Z" stroke="#FF6C0C" stroke-linecap="round" stroke-linejoin="round"/>
<path d="M49.907 80H21.3953C20.6512 80 20 80.6047 20 81.3953V106.512C20 107.256 20.6047 107.907 21.3953 107.907H39.4884" stroke="#FF6C0C" stroke-linecap="round" stroke-linejoin="round"/>
<path d="M59.3023 89.3953V105.767C59.3023 106.837 58.4651 107.674 57.3954 107.674H53.6279" stroke="#FF6C0C" stroke-linecap="round" stroke-linejoin="round"/>
<path d="M46.4652 110C48.3404 110 49.8605 108.48 49.8605 106.605C49.8605 104.729 48.3404 103.209 46.4652 103.209C44.59 103.209 43.0698 104.729 43.0698 106.605C43.0698 108.48 44.59 110 46.4652 110Z" stroke="#FF6C0C" stroke-linecap="round" stroke-linejoin="round"/>
<path d="M46.4185 113.674C50.3487 113.674 53.5348 110.488 53.5348 106.558C53.5348 102.628 50.3487 99.4419 46.4185 99.4419C42.4883 99.4419 39.3022 102.628 39.3022 106.558C39.3022 110.488 42.4883 113.674 46.4185 113.674Z" stroke="#FF6C0C" stroke-linecap="round" stroke-linejoin="round"/>
<path d="M39.9071 110.233L36.6978 116.093L43.1164 119.256L46.5582 114.14L49.9536 119.256L55.9071 116.279L52.7908 110" stroke="#FF6C0C" stroke-linecap="round" stroke-linejoin="round"/>
<path d="M45.2093 91.7559C45.4855 91.7559 45.7093 91.9797 45.7093 92.2559C45.7093 92.5013 45.5325 92.7055 45.2992 92.7478L45.2093 92.7559H25.4419C25.1658 92.7559 24.9419 92.532 24.9419 92.2559C24.9419 92.0104 25.1188 91.8063 25.352 91.7639L25.4419 91.7559H45.2093Z" fill="#FF6C0C"/>
<path d="M45.2093 96.314C45.4855 96.314 45.7093 96.5378 45.7093 96.814C45.7093 97.0594 45.5325 97.2636 45.2992 97.3059L45.2093 97.314H25.4419C25.1658 97.314 24.9419 97.0901 24.9419 96.814C24.9419 96.5685 25.1188 96.3644 25.352 96.322L25.4419 96.314H45.2093Z" fill="#FF6C0C"/>
<path d="M25.5556 84.0557V88.5557H25V84.0557H25.5556Z" fill="#FF6C0C" stroke="#FF6C0C" stroke-width="0.25"/>
<path d="M26.5557 84.1111C26.8334 84.0556 27.2223 84 27.6112 84C28.1668 84 28.5557 84.1111 28.8334 84.3333C29.0557 84.5 29.2223 84.7778 29.2223 85.1111C29.2223 85.5556 28.9446 85.9444 28.4446 86.1111C28.889 86.2222 29.389 86.5556 29.389 87.2222C29.389 87.6111 29.2223 87.8889 29.0001 88.1111C28.6668 88.3889 28.1668 88.5556 27.4446 88.5556C27.0557 88.5556 26.7223 88.5556 26.5557 88.5V84.1111ZM27.1112 85.9444H27.6668C28.2779 85.9444 28.6668 85.6111 28.6668 85.1667C28.6668 84.6111 28.2779 84.4444 27.6668 84.4444C27.389 84.4444 27.2223 84.4444 27.1668 84.5V85.9444H27.1112ZM27.1112 88.1111C27.2223 88.1111 27.389 88.1111 27.6112 88.1111C28.2223 88.1111 28.7779 87.8889 28.7779 87.2222C28.7779 86.6111 28.2223 86.3333 27.6112 86.3333H27.1112V88.1111Z" fill="#FF6C0C" stroke="#FF6C0C" stroke-width="0.25"/>
<path d="M33.9998 86.5557C33.9443 85.9446 33.9443 85.1668 33.9443 84.6112C33.7776 85.1112 33.6109 85.7223 33.3887 86.3334L32.6109 88.5001H32.1665L31.4443 86.3334C31.2221 85.7223 31.0554 85.1112 30.9443 84.6112C30.9443 85.1668 30.8887 85.9446 30.8332 86.6112L30.7221 88.5557H30.1665L30.4998 84.0557H31.2221L31.9998 86.2223C32.1665 86.7779 32.3332 87.2779 32.4443 87.7223C32.5554 87.2779 32.7221 86.7779 32.9443 86.2223L33.7221 84.0557H34.4443L34.7221 88.5557H34.1665L33.9998 86.5557Z" fill="#FF6C0C" stroke="#FF6C0C" stroke-width="0.25"/>
<path fill-rule="evenodd" clip-rule="evenodd" d="M111 39.25H92.8939L97.4683 34.7625L95.6667 33L88 40.5L95.6667 48L97.4683 46.2375L92.8939 41.75H111V39.25Z" fill="#C8C8C8"/>
<path fill-rule="evenodd" clip-rule="evenodd" d="M278 59C288.493 59 297 50.4934 297 40C297 29.5066 288.493 21 278 21C267.507 21 259 29.5066 259 40C259 50.4934 267.507 59 278 59Z" fill="#E89828" fill-opacity="0.3"/>
<path fill-rule="evenodd" clip-rule="evenodd" d="M266 39.25H284.106L279.532 34.7625L281.333 33L289 40.5L281.333 48L279.532 46.2375L284.106 41.75H266V39.25Z" fill="#FF6C0C"/>
<path fill-rule="evenodd" clip-rule="evenodd" d="M220 114.25H238.106L233.532 109.762L235.333 108L243 115.5L235.333 123L233.532 121.238L238.106 116.75H220V114.25Z" fill="#FF6C0C"/>
<path d="M278.565 167.348C278.692 167.221 278.88 167.178 279.043 167.233C280.171 167.606 281.369 167.799 282.579 167.799C282.838 167.799 283.053 168.013 283.053 168.273V171.579C283.053 171.838 282.838 172.053 282.579 172.053C273.945 172.053 266.947 165.055 266.947 156.421C266.947 156.162 267.162 155.947 267.421 155.947H270.737C270.996 155.947 271.211 156.162 271.211 156.421C271.211 157.637 271.402 158.825 271.774 159.952C271.827 160.12 271.785 160.302 271.652 160.435L269.568 162.519L269.325 162.762L269.481 163.069C270.887 165.832 273.154 168.096 275.93 169.518L276.237 169.676L276.481 169.432L278.565 167.348ZM276.362 168.675C273.763 167.343 271.641 165.224 270.325 162.639L270.238 163.189L272.322 161.104C272.707 160.72 272.836 160.169 272.676 159.661C272.333 158.624 272.158 157.536 272.158 156.421C272.158 155.638 271.52 155 270.737 155H267.421C266.638 155 266 155.638 266 156.421C266 165.578 273.422 173 282.579 173C283.362 173 284 172.362 284 171.579V168.273C284 167.49 283.362 166.852 282.579 166.852C281.47 166.852 280.373 166.675 279.345 166.335C278.845 166.164 278.277 166.296 277.896 166.678L275.811 168.762L276.362 168.675Z" fill="white"/>
<path d="M281.667 113.81H281.19V114.286V122.857L281.667 122.381H269.286H268.81V122.857V124.762C268.81 125.549 269.451 126.19 270.238 126.19H280.714L280.378 126.051L284.187 129.861L285 130.673V129.524V115.238C285 114.451 284.358 113.81 283.571 113.81H281.667ZM284.048 115.238V129.524L284.861 129.187L281.051 125.378L280.912 125.238H280.714H270.238C269.977 125.238 269.762 125.023 269.762 124.762V122.857L269.286 123.333H281.667H282.143V122.857V114.286L281.667 114.762H283.571C283.832 114.762 284.048 114.977 284.048 115.238ZM280.238 111.429C280.238 110.642 279.596 110 278.81 110H266.429C265.642 110 265 110.642 265 111.429V124.762V125.912L265.813 125.099L269.622 121.289L269.286 121.429H278.81C279.596 121.429 280.238 120.787 280.238 120V111.429ZM278.81 120.476H269.286H269.088L268.949 120.616L265.139 124.425L265.952 124.762V111.429C265.952 111.168 266.168 110.952 266.429 110.952H278.81C279.07 110.952 279.286 111.168 279.286 111.429V120C279.286 120.261 279.07 120.476 278.81 120.476Z" fill="white"/>
<path fill-rule="evenodd" clip-rule="evenodd" d="M200 114.25H181.894L186.468 109.762L184.667 108L177 115.5L184.667 123L186.468 121.238L181.894 116.75H200V114.25Z" fill="#FF6C0C"/>
<path d="M235.5 39H140.5C139.119 39 138 40.1193 138 41.5C138 42.8807 139.119 44 140.5 44H235.5C236.881 44 238 42.8807 238 41.5C238 40.1193 236.881 39 235.5 39Z" fill="#E89828" fill-opacity="0.3"/>
<path d="M175.5 39H140.5C139.119 39 138 40.1193 138 41.5C138 42.8807 139.119 44 140.5 44H175.5C176.881 44 178 42.8807 178 41.5C178 40.1193 176.881 39 175.5 39Z" fill="#FF6C0C"/>
<path fill-rule="evenodd" clip-rule="evenodd" d="M86.5 90.7793L90.5172 93L89.75 88.2966L93 84.9656L88.5086 84.2793L86.5 80L84.4914 84.2793L80 84.9656L83.25 88.2966L82.4828 93L86.5 90.7793Z" fill="#FF6C0C"/>
<path fill-rule="evenodd" clip-rule="evenodd" d="M102.5 90.7793L106.517 93L105.75 88.2966L109 84.9656L104.509 84.2793L102.5 80L100.491 84.2793L96 84.9656L99.25 88.2966L98.4828 93L102.5 90.7793Z" fill="#FF6C0C"/>
<path fill-rule="evenodd" clip-rule="evenodd" d="M119.5 90.7793L123.517 93L122.75 88.2966L126 84.9656L121.509 84.2793L119.5 80L117.491 84.2793L113 84.9656L116.25 88.2966L115.483 93L119.5 90.7793Z" fill="#FF6C0C"/>
<path fill-rule="evenodd" clip-rule="evenodd" d="M135.5 90.7793L139.517 93L138.75 88.2966L142 84.9656L137.509 84.2793L135.5 80L133.491 84.2793L129 84.9656L132.25 88.2966L131.483 93L135.5 90.7793Z" fill="#FF6C0C"/>
<path fill-rule="evenodd" clip-rule="evenodd" d="M151.5 90.7793L155.517 93L154.75 88.2966L158 84.9656L153.509 84.2793L151.5 80L149.491 84.2793L145 84.9656L148.25 88.2966L147.483 93L151.5 90.7793Z" fill="#FF6C0C"/>
<path opacity="0.3" fill-rule="evenodd" clip-rule="evenodd" d="M85.5 118.779L89.5172 121L88.75 116.297L92 112.966L87.5086 112.279L85.5 108L83.4914 112.279L79 112.966L82.25 116.297L81.4828 121L85.5 118.779Z" fill="#FF6C0C"/>
<path opacity="0.3" fill-rule="evenodd" clip-rule="evenodd" d="M101.5 118.779L105.517 121L104.75 116.297L108 112.966L103.509 112.279L101.5 108L99.4914 112.279L95 112.966L98.25 116.297L97.4828 121L101.5 118.779Z" fill="#FF6C0C"/>
<path opacity="0.3" fill-rule="evenodd" clip-rule="evenodd" d="M118.5 118.779L122.517 121L121.75 116.297L125 112.966L120.509 112.279L118.5 108L116.491 112.279L112 112.966L115.25 116.297L114.483 121L118.5 118.779Z" fill="#FF6C0C"/>
<path opacity="0.3" fill-rule="evenodd" clip-rule="evenodd" d="M134.5 118.779L138.517 121L137.75 116.297L141 112.966L136.509 112.279L134.5 108L132.491 112.279L128 112.966L131.25 116.297L130.483 121L134.5 118.779Z" fill="#FF6C0C"/>
<path opacity="0.3" fill-rule="evenodd" clip-rule="evenodd" d="M150.5 118.779L154.517 121L153.75 116.297L157 112.966L152.509 112.279L150.5 108L148.491 112.279L144 112.966L147.25 116.297L146.483 121L150.5 118.779Z" fill="#FF6C0C"/>
<path d="M264 85H188C186.895 85 186 85.8954 186 87C186 88.1046 186.895 89 188 89H264C265.105 89 266 88.1046 266 87C266 85.8954 265.105 85 264 85Z" fill="#E89828" fill-opacity="0.3"/>
<path d="M220 85H188C186.895 85 186 85.8954 186 87C186 88.1046 186.895 89 188 89H220C221.105 89 222 88.1046 222 87C222 85.8954 221.105 85 220 85Z" fill="#FF6C0C"/>
<path fill-rule="evenodd" clip-rule="evenodd" d="M186.366 159.333C185.453 159.853 184.445 160.231 183.367 160.434C182.508 159.551 181.281 159 179.923 159C177.319 159 175.206 161.035 175.206 163.544C175.206 163.9 175.247 164.246 175.328 164.579C171.406 164.389 167.93 162.582 165.601 159.829C165.194 160.503 164.962 161.284 164.962 162.117C164.962 163.692 165.795 165.083 167.062 165.898C166.289 165.876 165.56 165.67 164.923 165.332V165.387C164.923 167.59 166.55 169.427 168.71 169.843C168.315 169.95 167.897 170.003 167.467 170.003C167.163 170.003 166.866 169.976 166.579 169.922C167.179 171.727 168.921 173.041 170.986 173.077C169.372 174.296 167.336 175.022 165.126 175.022C164.745 175.022 164.368 175.002 164 174.96C166.088 176.247 168.57 177 171.234 177C179.914 177 184.659 170.077 184.659 164.072C184.659 163.874 184.655 163.677 184.647 163.483C185.569 162.842 186.37 162.042 187 161.131C186.155 161.492 185.245 161.737 184.291 161.846C185.265 161.284 186.013 160.394 186.366 159.333Z" fill="#1CA2F1"/>
<path fill-rule="evenodd" clip-rule="evenodd" d="M221.622 165.413V179H217.529V165.413H221.622ZM232.806 165.283C235.714 165.283 238 167.237 238 171.446V179H233.359V171.969C233.359 170.129 232.633 168.873 231.036 168.873C229.815 168.873 229.136 169.72 228.82 170.537C228.741 170.733 228.723 170.98 228.72 171.244V179H224.122L224.123 178.83C224.127 178 224.143 174.277 224.147 170.95L224.148 170.291C224.148 170.183 224.148 170.075 224.148 169.968V168.728C224.147 167.05 224.139 165.745 224.122 165.413H228.72V167.546C228.991 166.613 230.461 165.283 232.806 165.283ZM219.5 159C221.01 159 221.939 160.014 221.969 161.355C221.969 162.672 221.01 163.714 219.472 163.714H219.442C217.961 163.714 217 162.675 217 161.359C217 160.017 217.989 159 219.5 159Z" fill="#0376B7"/>
<path d="M276.389 238.667V239.278H277.611V238.667V225.222V224.611H276.389V225.222V238.667Z" fill="white"/>
<path d="M282.321 235.432L282.753 235L281.889 234.136L281.457 234.568L276.568 239.457L276.136 239.889L277 240.753L277.432 240.321L282.321 235.432Z" fill="white"/>
<path d="M272.543 234.568L272.111 234.136L271.247 235L271.679 235.432L276.568 240.321L277 240.753L277.864 239.889L277.432 239.457L272.543 234.568Z" fill="white"/>
<path d="M266.611 244.778V245.389H267.222H286.778H287.389V244.778V241.111H286.167V244.778L286.778 244.167H267.222L267.834 244.778V241.111H266.611V244.778Z" fill="white"/>
<path fill-rule="evenodd" clip-rule="evenodd" d="M236.5 235.5L230.824 229.5L229.5 230.9L233.851 235.5L229.5 240.1L230.824 241.5L236.5 235.5Z" fill="white"/>
<path d="M189 233L194 238L199 233" stroke="#848DA0" stroke-width="1.5"/>
<path fill-rule="evenodd" clip-rule="evenodd" d="M105 227.15C107.444 227.15 109.656 228.14 111.258 229.742C112.859 231.344 113.85 233.556 113.85 236C113.85 238.444 112.859 240.656 111.258 242.258C109.656 243.859 107.444 244.85 105 244.85C102.556 244.85 100.344 243.859 98.742 242.258C97.1405 240.656 96.1499 238.444 96.1499 236C96.1499 233.556 97.1405 231.344 98.742 229.742C100.344 228.14 102.556 227.15 105 227.15Z" stroke="#FF6C0C" stroke-width="1.5"/>
<path d="M100.2 236L103.4 239.2L109.8 232.8" stroke="#FF6C0C" stroke-width="1.5"/>
<path d="M20 278L25 283.5L20 289" stroke="#FF6C0C" stroke-width="1.5"/>
<path d="M120 278L125 283.5L120 289" stroke="white" stroke-width="1.5"/>
<path d="M51 285L56.5 280L62 285" stroke="#FF6C0C" stroke-width="2"/>
<path d="M91 280L85.5 285L80 280" stroke="#FF6C0C" stroke-width="2"/>
</svg>
