<svg width="20" height="20" viewBox="0 0 20 20" fill="none" xmlns="http://www.w3.org/2000/svg">
<path d="M8.26711 15.9018C9.8781 15.8997 11.4481 15.3938 12.7573 14.455L17.5183 19.2164C17.6252 19.3227 17.7521 19.4067 17.8918 19.4636C18.0314 19.5205 18.1809 19.5491 18.3317 19.5477C18.9848 19.5477 19.4567 19.0454 19.4567 18.4026C19.4567 18.1013 19.3564 17.8201 19.1353 17.5994L14.4043 12.8581C15.3985 11.5523 15.9913 9.93527 15.9913 8.17727C15.9913 3.92841 12.516 0.453125 8.26711 0.453125C4.0084 0.453125 0.542969 3.92841 0.542969 8.17727C0.542969 12.4261 4.0084 15.9018 8.26711 15.9018ZM8.26711 14.2343C4.94225 14.2343 2.21011 11.4923 2.21011 8.17727C2.21011 4.8627 4.94225 2.12027 8.26711 2.12027C11.5817 2.12027 14.3241 4.8627 14.3241 8.17727C14.3241 11.4923 11.5817 14.2343 8.26711 14.2343Z" fill="white"/>
</svg>
