<svg width="24" height="24" viewBox="0 0 24 24" fill="none" xmlns="http://www.w3.org/2000/svg">
<g id="Star 2">
<path id="Star 1" d="M11.0489 2.92705C11.3482 2.00574 12.6516 2.00574 12.951 2.92705L14.4696 7.60081C14.6035 8.01284 14.9874 8.2918 15.4206 8.2918H20.3349C21.3037 8.2918 21.7064 9.53141 20.9227 10.1008L16.947 12.9894C16.5965 13.244 16.4498 13.6954 16.5837 14.1074L18.1023 18.7812C18.4017 19.7025 17.3472 20.4686 16.5635 19.8992L12.5877 17.0106C12.2372 16.756 11.7626 16.756 11.4122 17.0106L7.43642 19.8992C6.6527 20.4686 5.59822 19.7025 5.89757 18.7812L7.41617 14.1074C7.55004 13.6954 7.40339 13.244 7.0529 12.9894L3.07716 10.1008C2.29345 9.53141 2.69622 8.2918 3.66494 8.2918H8.57923C9.01245 8.2918 9.39641 8.01284 9.53028 7.60081L11.0489 2.92705Z" fill="#F1B006"/>
</g>
</svg>
