<svg width="16" height="16" viewBox="0 0 16 16" fill="none" xmlns="http://www.w3.org/2000/svg">
<path d="M14.0001 14.0004L11.1048 11.105M11.1048 11.105C11.6001 10.6098 11.9929 10.0218 12.261 9.37475C12.529 8.72766 12.6669 8.03412 12.6669 7.33371C12.6669 6.63331 12.529 5.93977 12.261 5.29268C11.9929 4.6456 11.6001 4.05764 11.1048 3.56238C10.6095 3.06712 10.0216 2.67426 9.3745 2.40623C8.72742 2.1382 8.03387 2.00024 7.33347 2.00024C6.63307 2.00024 5.93953 2.1382 5.29244 2.40623C4.64535 2.67426 4.0574 3.06712 3.56214 3.56238C2.56192 4.5626 2 5.91919 2 7.33371C2 8.74824 2.56192 10.1048 3.56214 11.105C4.56236 12.1053 5.91895 12.6672 7.33347 12.6672C8.748 12.6672 10.1046 12.1053 11.1048 11.105Z" stroke="#646464" stroke-width="0.666667" stroke-linecap="round" stroke-linejoin="round"/>
</svg>
