<svg width="24" height="24" viewBox="0 0 24 24" fill="none" xmlns="http://www.w3.org/2000/svg">
<path d="M10.2671 17.9018C11.8781 17.8997 13.4481 17.3938 14.7573 16.455L19.5183 21.2164C19.6252 21.3227 19.7521 21.4067 19.8918 21.4636C20.0314 21.5205 20.1809 21.5491 20.3317 21.5477C20.9848 21.5477 21.4567 21.0454 21.4567 20.4026C21.4567 20.1013 21.3564 19.8201 21.1353 19.5994L16.4043 14.8581C17.3985 13.5523 17.9913 11.9353 17.9913 10.1773C17.9913 5.92841 14.516 2.45312 10.2671 2.45312C6.0084 2.45312 2.54297 5.92841 2.54297 10.1773C2.54297 14.4261 6.0084 17.9018 10.2671 17.9018ZM10.2671 16.2343C6.94225 16.2343 4.21011 13.4923 4.21011 10.1773C4.21011 6.8627 6.94225 4.12027 10.2671 4.12027C13.5817 4.12027 16.3241 6.8627 16.3241 10.1773C16.3241 13.4923 13.5817 16.2343 10.2671 16.2343Z" fill="#1179EF"/>
</svg>
