<svg width="16" height="16" viewBox="0 0 16 16" fill="none" xmlns="http://www.w3.org/2000/svg">
<g id="teenyicons:calendar-outline">
<path id="Vector" d="M4.57143 0.519531V4.80525M11.4286 0.519531V4.80525M2.85714 2.66239H13.1429C13.3702 2.66239 13.5882 2.75269 13.7489 2.91344C13.9097 3.07418 14 3.2922 14 3.51953V12.091C14 12.3183 13.9097 12.5363 13.7489 12.6971C13.5882 12.8578 13.3702 12.9481 13.1429 12.9481H2.85714C2.62981 12.9481 2.4118 12.8578 2.25105 12.6971C2.09031 12.5363 2 12.3183 2 12.091V3.51953C2 3.2922 2.09031 3.07418 2.25105 2.91344C2.4118 2.75269 2.62981 2.66239 2.85714 2.66239Z" stroke="#51565E" stroke-width="0.857143"/>
</g>
</svg>
