<svg width="45" height="45" viewBox="0 0 45 45" fill="none" xmlns="http://www.w3.org/2000/svg">
<path d="M14.1641 32.4987H25.8307M14.1641 25.832H15.8307M14.1641 19.1654H19.1641M14.1641 5.83203H29.9974L37.4974 13.332V34.1654" stroke="#2F80ED" stroke-width="2.5" stroke-linecap="round" stroke-linejoin="round"/>
<path d="M7.5 36.6654V13.332C7.5 12.669 7.76339 12.0331 8.23223 11.5643C8.70107 11.0954 9.33696 10.832 10 10.832H26.2533C26.5185 10.8323 26.7726 10.9378 26.96 11.1254L32.2067 16.372C32.2999 16.4652 32.3739 16.5759 32.4242 16.6977C32.4746 16.8196 32.5003 16.9502 32.5 17.082V36.6654C32.5 37.3284 32.2366 37.9643 31.7678 38.4331C31.2989 38.902 30.663 39.1654 30 39.1654H10C9.33696 39.1654 8.70107 38.902 8.23223 38.4331C7.76339 37.9643 7.5 37.3284 7.5 36.6654Z" stroke="#2F80ED" stroke-width="2.5" stroke-linecap="round" stroke-linejoin="round"/>
<path d="M25.8359 10.832V16.4987C25.8359 16.7639 25.9413 17.0183 26.1288 17.2058C26.3164 17.3933 26.5707 17.4987 26.8359 17.4987H32.5026" stroke="#2F80ED" stroke-width="2.5" stroke-linecap="round" stroke-linejoin="round"/>
</svg>
