<svg width="141" height="80" viewBox="0 0 141 80" fill="none" xmlns="http://www.w3.org/2000/svg">
<circle cx="52.102" cy="52.2055" r="3.08834" fill="#24A9F7" fill-opacity="0.1"/>
<circle cx="137.795" cy="52.2055" r="3.08834" fill="#24A9F7" fill-opacity="0.1"/>
<circle cx="52.102" cy="3.08834" r="3.08834" fill="#24A9F7" fill-opacity="0.1"/>
<circle cx="137.795" cy="3.08834" r="3.08834" fill="#24A9F7" fill-opacity="0.1"/>
<circle cx="64.0786" cy="52.2055" r="3.08834" fill="#24A9F7" fill-opacity="0.1"/>
<circle cx="64.0786" cy="3.08834" r="3.08834" fill="#24A9F7" fill-opacity="0.1"/>
<circle cx="76.4282" cy="52.2055" r="3.08834" fill="#24A9F7" fill-opacity="0.1"/>
<circle cx="76.4282" cy="3.08834" r="3.08834" fill="#24A9F7" fill-opacity="0.1"/>
<circle cx="3.08834" cy="52.2055" r="3.08834" fill="#24A9F7" fill-opacity="0.1"/>
<circle cx="88.7817" cy="52.2055" r="3.08834" fill="#24A9F7" fill-opacity="0.1"/>
<circle cx="3.08834" cy="3.08834" r="3.08834" fill="#24A9F7" fill-opacity="0.1"/>
<circle cx="88.7817" cy="3.08834" r="3.08834" fill="#24A9F7" fill-opacity="0.1"/>
<circle cx="15.4399" cy="52.2055" r="3.08834" fill="#24A9F7" fill-opacity="0.1"/>
<circle cx="101.127" cy="52.2055" r="3.08834" fill="#24A9F7" fill-opacity="0.1"/>
<circle cx="15.4399" cy="3.08834" r="3.08834" fill="#24A9F7" fill-opacity="0.1"/>
<circle cx="101.127" cy="3.08834" r="3.08834" fill="#24A9F7" fill-opacity="0.1"/>
<circle cx="27.7973" cy="52.2055" r="3.08834" fill="#24A9F7" fill-opacity="0.1"/>
<circle cx="113.489" cy="52.2055" r="3.08834" fill="#24A9F7" fill-opacity="0.1"/>
<circle cx="27.7973" cy="3.08834" r="3.08834" fill="#24A9F7" fill-opacity="0.1"/>
<circle cx="113.489" cy="3.08834" r="3.08834" fill="#24A9F7" fill-opacity="0.1"/>
<circle cx="40.1508" cy="52.2055" r="3.08834" fill="#24A9F7" fill-opacity="0.1"/>
<circle cx="125.842" cy="52.2055" r="3.08834" fill="#24A9F7" fill-opacity="0.1"/>
<circle cx="40.1508" cy="3.08834" r="3.08834" fill="#24A9F7" fill-opacity="0.1"/>
<circle cx="125.842" cy="3.08834" r="3.08834" fill="#24A9F7" fill-opacity="0.1"/>
<circle cx="52.102" cy="64.5566" r="3.08834" fill="#24A9F7" fill-opacity="0.1"/>
<circle cx="137.795" cy="64.5566" r="3.08834" fill="#24A9F7" fill-opacity="0.1"/>
<circle cx="52.102" cy="15.4414" r="3.08834" fill="#24A9F7" fill-opacity="0.1"/>
<circle cx="137.795" cy="15.4414" r="3.08834" fill="#24A9F7" fill-opacity="0.1"/>
<circle cx="64.0786" cy="64.5566" r="3.08834" fill="#24A9F7" fill-opacity="0.1"/>
<circle cx="64.0786" cy="15.4414" r="3.08834" fill="#24A9F7" fill-opacity="0.1"/>
<circle cx="76.4282" cy="64.5566" r="3.08834" fill="#24A9F7" fill-opacity="0.1"/>
<circle cx="76.4282" cy="15.4414" r="3.08834" fill="#24A9F7" fill-opacity="0.1"/>
<circle cx="3.08834" cy="64.5566" r="3.08834" fill="#24A9F7" fill-opacity="0.1"/>
<circle cx="88.7817" cy="64.5566" r="3.08834" fill="#24A9F7" fill-opacity="0.1"/>
<circle cx="3.08834" cy="15.4414" r="3.08834" fill="#24A9F7" fill-opacity="0.1"/>
<circle cx="88.7817" cy="15.4414" r="3.08834" fill="#24A9F7" fill-opacity="0.1"/>
<circle cx="15.4399" cy="64.5566" r="3.08834" fill="#24A9F7" fill-opacity="0.1"/>
<circle cx="101.127" cy="64.5566" r="3.08834" fill="#24A9F7" fill-opacity="0.1"/>
<circle cx="15.4399" cy="15.4414" r="3.08834" fill="#24A9F7" fill-opacity="0.1"/>
<circle cx="101.127" cy="15.4414" r="3.08834" fill="#24A9F7" fill-opacity="0.1"/>
<circle cx="27.7973" cy="64.5566" r="3.08834" fill="#24A9F7" fill-opacity="0.1"/>
<circle cx="113.489" cy="64.5566" r="3.08834" fill="#24A9F7" fill-opacity="0.1"/>
<circle cx="27.7973" cy="15.4414" r="3.08834" fill="#24A9F7" fill-opacity="0.1"/>
<circle cx="113.489" cy="15.4414" r="3.08834" fill="#24A9F7" fill-opacity="0.1"/>
<circle cx="40.1508" cy="64.5566" r="3.08834" fill="#24A9F7" fill-opacity="0.1"/>
<circle cx="125.842" cy="64.5566" r="3.08834" fill="#24A9F7" fill-opacity="0.1"/>
<circle cx="40.1508" cy="15.4414" r="3.08834" fill="#24A9F7" fill-opacity="0.1"/>
<circle cx="125.842" cy="15.4414" r="3.08834" fill="#24A9F7" fill-opacity="0.1"/>
<circle cx="52.102" cy="76.9116" r="3.08834" fill="#24A9F7" fill-opacity="0.1"/>
<circle cx="137.795" cy="76.9116" r="3.08834" fill="#24A9F7" fill-opacity="0.1"/>
<circle cx="52.102" cy="27.7949" r="3.08834" fill="#24A9F7" fill-opacity="0.1"/>
<circle cx="137.795" cy="27.7949" r="3.08834" fill="#24A9F7" fill-opacity="0.1"/>
<circle cx="64.0786" cy="76.9116" r="3.08834" fill="#24A9F7" fill-opacity="0.1"/>
<circle cx="64.0786" cy="27.7949" r="3.08834" fill="#24A9F7" fill-opacity="0.1"/>
<circle cx="76.4282" cy="76.9116" r="3.08834" fill="#24A9F7" fill-opacity="0.1"/>
<circle cx="76.4282" cy="27.7949" r="3.08834" fill="#24A9F7" fill-opacity="0.1"/>
<circle cx="3.08834" cy="76.9116" r="3.08834" fill="#24A9F7" fill-opacity="0.1"/>
<circle cx="88.7817" cy="76.9116" r="3.08834" fill="#24A9F7" fill-opacity="0.1"/>
<circle cx="3.08834" cy="27.7949" r="3.08834" fill="#24A9F7" fill-opacity="0.1"/>
<circle cx="88.7817" cy="27.7949" r="3.08834" fill="#24A9F7" fill-opacity="0.1"/>
<circle cx="15.4399" cy="76.9116" r="3.08834" fill="#24A9F7" fill-opacity="0.1"/>
<circle cx="101.127" cy="76.9116" r="3.08834" fill="#24A9F7" fill-opacity="0.1"/>
<circle cx="15.4399" cy="27.7949" r="3.08834" fill="#24A9F7" fill-opacity="0.1"/>
<circle cx="101.127" cy="27.7949" r="3.08834" fill="#24A9F7" fill-opacity="0.1"/>
<circle cx="27.7973" cy="76.9116" r="3.08834" fill="#24A9F7" fill-opacity="0.1"/>
<circle cx="113.489" cy="76.9116" r="3.08834" fill="#24A9F7" fill-opacity="0.1"/>
<circle cx="27.7973" cy="27.7949" r="3.08834" fill="#24A9F7" fill-opacity="0.1"/>
<circle cx="113.489" cy="27.7949" r="3.08834" fill="#24A9F7" fill-opacity="0.1"/>
<circle cx="40.1508" cy="76.9116" r="3.08834" fill="#24A9F7" fill-opacity="0.1"/>
<circle cx="125.842" cy="76.9116" r="3.08834" fill="#24A9F7" fill-opacity="0.1"/>
<circle cx="40.1508" cy="27.7949" r="3.08834" fill="#24A9F7" fill-opacity="0.1"/>
<circle cx="125.842" cy="27.7949" r="3.08834" fill="#24A9F7" fill-opacity="0.1"/>
<circle cx="52.102" cy="40.1479" r="3.08834" fill="#24A9F7" fill-opacity="0.1"/>
<circle cx="137.795" cy="40.1479" r="3.08834" fill="#24A9F7" fill-opacity="0.1"/>
<circle cx="64.0786" cy="40.1479" r="3.08834" fill="#24A9F7" fill-opacity="0.1"/>
<circle cx="76.4282" cy="40.1479" r="3.08834" fill="#24A9F7" fill-opacity="0.1"/>
<circle cx="3.08834" cy="40.1479" r="3.08834" fill="#24A9F7" fill-opacity="0.1"/>
<circle cx="88.7817" cy="40.1479" r="3.08834" fill="#24A9F7" fill-opacity="0.1"/>
<circle cx="15.4399" cy="40.1479" r="3.08834" fill="#24A9F7" fill-opacity="0.1"/>
<circle cx="101.127" cy="40.1479" r="3.08834" fill="#24A9F7" fill-opacity="0.1"/>
<circle cx="27.7973" cy="40.1479" r="3.08834" fill="#24A9F7" fill-opacity="0.1"/>
<circle cx="113.489" cy="40.1479" r="3.08834" fill="#24A9F7" fill-opacity="0.1"/>
<circle cx="40.1508" cy="40.1479" r="3.08834" fill="#24A9F7" fill-opacity="0.1"/>
<circle cx="125.842" cy="40.1479" r="3.08834" fill="#24A9F7" fill-opacity="0.1"/>
</svg>
