<svg width="32" height="22" viewBox="0 0 32 22" fill="none" xmlns="http://www.w3.org/2000/svg">
<path d="M27.6667 1H4.33333C2.49238 1 1 2.49238 1 4.33333V17.6667C1 19.5076 2.49238 21 4.33333 21H27.6667C29.5076 21 31 19.5076 31 17.6667V4.33333C31 2.49238 29.5076 1 27.6667 1Z" stroke="#4F4F4F" stroke-width="1.66667"/>
<path d="M4.33301 6H9.33301M22.6663 16H27.6663" stroke="#4F4F4F" stroke-width="1.66667" stroke-linecap="round"/>
<path d="M16.0003 14.3346C17.8413 14.3346 19.3337 12.8423 19.3337 11.0013C19.3337 9.16035 17.8413 7.66797 16.0003 7.66797C14.1594 7.66797 12.667 9.16035 12.667 11.0013C12.667 12.8423 14.1594 14.3346 16.0003 14.3346Z" stroke="#4F4F4F" stroke-width="1.66667"/>
</svg>
