<svg width="86" height="149" viewBox="0 0 86 149" fill="none" xmlns="http://www.w3.org/2000/svg">
<path d="M13.5 125.5V123.833C13.5 122.949 13.8512 122.101 14.4763 121.476C15.1014 120.851 15.9493 120.5 16.8333 120.5H20.1667C21.0507 120.5 21.8986 120.851 22.5237 121.476C23.1488 122.101 23.5 122.949 23.5 123.833V125.5M24.3333 110.608C25.0503 110.792 25.6859 111.209 26.1397 111.794C26.5935 112.378 26.8399 113.097 26.8399 113.838C26.8399 114.578 26.5935 115.297 26.1397 115.881C25.6859 116.466 25.0503 116.883 24.3333 117.067M28.5 125.5V123.833C28.4958 123.098 28.2483 122.384 27.7961 121.804C27.3439 121.223 26.7124 120.809 26 120.625M15.1667 113.833C15.1667 114.717 15.5179 115.565 16.143 116.19C16.7681 116.815 17.6159 117.167 18.5 117.167C19.3841 117.167 20.2319 116.815 20.857 116.19C21.4821 115.565 21.8333 114.717 21.8333 113.833C21.8333 112.949 21.4821 112.101 20.857 111.476C20.2319 110.851 19.3841 110.5 18.5 110.5C17.6159 110.5 16.7681 110.851 16.143 111.476C15.5179 112.101 15.1667 112.949 15.1667 113.833Z" stroke="#151B5C" stroke-width="1.66667" stroke-linecap="round" stroke-linejoin="round"/>
<path d="M60.7188 121.281V120.552C60.7188 120.165 60.8724 119.794 61.1459 119.521C61.4194 119.247 61.7903 119.094 62.1771 119.094H63.6354C64.0222 119.094 64.3931 119.247 64.6666 119.521C64.9401 119.794 65.0938 120.165 65.0938 120.552V121.281M65.4583 114.766C65.772 114.846 66.0501 115.029 66.2486 115.285C66.4472 115.54 66.5549 115.855 66.5549 116.179C66.5549 116.503 66.4472 116.817 66.2486 117.073C66.0501 117.329 65.772 117.511 65.4583 117.592M67.2813 121.281V120.552C67.2794 120.23 67.1711 119.918 66.9733 119.664C66.7754 119.41 66.4992 119.229 66.1875 119.148M61.4479 116.177C61.4479 116.564 61.6016 116.935 61.8751 117.208C62.1485 117.482 62.5195 117.635 62.9063 117.635C63.293 117.635 63.664 117.482 63.9374 117.208C64.2109 116.935 64.3646 116.564 64.3646 116.177C64.3646 115.79 64.2109 115.419 63.9374 115.146C63.664 114.872 63.293 114.719 62.9063 114.719C62.5195 114.719 62.1485 114.872 61.8751 115.146C61.6016 115.419 61.4479 115.79 61.4479 116.177Z" stroke="#151B5C" stroke-width="0.729167" stroke-linecap="round" stroke-linejoin="round"/>
<path d="M14.827 81L16.452 73.975L11.002 69.25L18.202 68.625L21.002 62L23.802 68.625L31.002 69.25L25.552 73.975L27.177 81L21.002 77.275L14.827 81Z" fill="#F8AB33"/>
<g clip-path="url(#clip0_4580_3099)">
<path d="M60.3973 77.25L61.3452 73.1521L58.166 70.3958L62.366 70.0312L63.9993 66.1667L65.6327 70.0312L69.8327 70.3958L66.6535 73.1521L67.6014 77.25L63.9993 75.0771L60.3973 77.25Z" fill="#F8AB33"/>
</g>
<path d="M23.0397 31.4057L25.0401 29.7826L26.6193 29.9074L24.3031 31.8177L24.9874 34.652L23.6451 33.8779L23.0397 31.4057ZM21.8026 27.7599L21.2499 26.5363L21.8553 25.1629L23.066 27.8723L21.8026 27.7599ZM18.1177 32.5669L19.7759 31.618L21.4341 32.5794L20.9998 30.7814L22.4606 29.5828L20.5392 29.4205L19.7759 27.7225L19.0126 29.408L17.0912 29.5703L18.552 30.7814L18.1177 32.5669ZM16.5253 34.652L17.3807 31.1435L14.5117 28.7837L18.3019 28.4716L19.7759 25.1629L21.2499 28.4716L25.0401 28.7837L22.1711 31.1435L23.0265 34.652L19.7759 32.7916L16.5253 34.652Z" fill="#1179EF"/>
<path d="M14.5651 22.0765C14.1512 22.3444 13.6791 22.505 13.1328 22.5942C13.2723 22.0983 13.5841 21.6651 14.0357 21.3735C14.4871 21.0816 15.0343 20.9606 15.5849 21.0112C15.3055 21.455 14.9792 21.8093 14.5649 22.0767L14.5651 22.0765Z" fill="#1179EF"/>
<path d="M12.8916 22.6302C12.7106 23.0561 12.3908 23.4522 11.9593 23.8602C11.8396 23.6773 11.7634 23.4803 11.7365 23.2691C11.725 23.165 11.7258 23.0575 11.7398 22.9468C11.747 22.8917 11.7561 22.8347 11.7713 22.7792C11.7861 22.7235 11.8042 22.667 11.8257 22.61C11.997 22.1538 12.3961 21.7118 12.9668 21.3638C13.0335 21.5742 13.0586 21.7843 13.0455 21.9948C13.0343 22.2075 12.9806 22.4161 12.8918 22.6302H12.8916Z" fill="#1179EF"/>
<path d="M13.1687 22.8992C12.7134 23.0362 12.2839 23.3745 11.959 23.8606C12.1818 23.9248 12.4028 23.9546 12.6182 23.949C12.7277 23.9477 12.8362 23.9376 12.9428 23.9183C12.9965 23.909 13.0483 23.8962 13.1024 23.8832C13.1561 23.8699 13.2096 23.8544 13.2625 23.8366C13.6869 23.6932 14.0671 23.4278 14.4486 23.0591C14.2559 22.9469 14.0502 22.8713 13.835 22.8419C13.622 22.8146 13.3952 22.8288 13.1687 22.8992Z" fill="#1179EF"/>
<path d="M11.3995 24.2567C11.3173 24.7082 11.0909 25.156 10.7607 25.6382C10.6018 25.4816 10.4849 25.3042 10.4117 25.1026C10.3747 25.0017 10.354 24.8975 10.3428 24.7864C10.3375 24.731 10.3353 24.6743 10.3361 24.6162C10.3371 24.5582 10.3435 24.5001 10.3518 24.4401C10.4181 23.9605 10.7111 23.4521 11.193 23.0035C11.2485 23.0999 11.2943 23.1984 11.3301 23.2987C11.3657 23.3988 11.3915 23.5007 11.41 23.6061C11.4275 23.7109 11.4353 23.8173 11.4323 23.9248C11.4306 24.0332 11.4212 24.1446 11.3995 24.2567Z" fill="#1179EF"/>
<path d="M11.7277 24.4662C11.3131 24.6872 10.9665 25.0994 10.7578 25.6377C10.989 25.6574 11.2136 25.645 11.4231 25.5986C11.5274 25.5753 11.6337 25.5459 11.7335 25.5067C11.7838 25.4872 11.833 25.4657 11.8816 25.4418C11.9303 25.4181 11.9802 25.3935 12.0279 25.3659C12.411 25.1448 12.7242 24.8129 13.0164 24.3801C12.9093 24.3432 12.8015 24.3162 12.6929 24.2997C12.5841 24.283 12.4749 24.2772 12.3678 24.2842C12.26 24.2907 12.1519 24.3085 12.0438 24.3379C11.9368 24.3682 11.8325 24.4116 11.7277 24.4663V24.4662Z" fill="#1179EF"/>
<path d="M10.3007 26.1324C10.3217 26.5901 10.1996 27.0715 9.98561 27.6069C9.79432 27.4842 9.64092 27.3331 9.52419 27.15C9.46479 27.0582 9.4214 26.9602 9.38576 26.8539C9.35115 26.7477 9.32498 26.6332 9.31689 26.5132C9.27419 26.0311 9.44757 25.4767 9.81998 24.9456C9.97167 25.1131 10.0841 25.2951 10.1664 25.4939C10.207 25.593 10.2372 25.6953 10.259 25.8013C10.2828 25.9083 10.2969 26.0186 10.3007 26.1322V26.1324Z" fill="#1179EF"/>
<path d="M10.6701 26.2748C10.3144 26.5704 10.0667 27.0402 9.98438 27.6072C10.2142 27.5819 10.4319 27.5267 10.6264 27.4411C10.7227 27.3979 10.8201 27.3489 10.9093 27.2914C10.9993 27.2343 11.082 27.1688 11.1655 27.0971C11.4904 26.8075 11.7225 26.4233 11.9124 25.9445C11.6866 25.9133 11.4633 25.9199 11.2566 25.9744C11.1526 26.0014 11.0498 26.0389 10.9511 26.0887C10.8545 26.1392 10.7607 26.2013 10.6703 26.2748H10.6701Z" fill="#1179EF"/>
<path d="M9.64667 28.1796C9.76943 28.6232 9.75996 29.1176 9.66819 29.6823C9.45573 29.5988 9.26978 29.4804 9.11448 29.3238C9.0377 29.2455 8.97209 29.158 8.91338 29.0608C8.88429 29.0121 8.85726 28.9612 8.83247 28.9077C8.80802 28.8543 8.78839 28.799 8.76979 28.741C8.62 28.2779 8.6646 27.7024 8.91011 27.111C9.09572 27.2456 9.24688 27.4022 9.37205 27.5809C9.43404 27.6701 9.4862 27.7642 9.53166 27.8638C9.57901 27.9638 9.6174 28.069 9.64667 28.1796Z" fill="#1179EF"/>
<path d="M10.0414 28.2462C9.75938 28.604 9.62439 29.1111 9.6683 29.6815C9.88954 29.6129 10.0879 29.5172 10.2592 29.396C10.3455 29.3354 10.4286 29.2686 10.503 29.1953C10.5404 29.1585 10.576 29.1203 10.6097 29.0803C10.6438 29.0403 10.6786 28.9989 10.7103 28.9558C10.9634 28.6097 11.1037 28.1891 11.182 27.6845C10.9537 27.6973 10.7375 27.7466 10.5472 27.8398C10.4515 27.8862 10.3591 27.9428 10.2742 28.0104C10.191 28.0783 10.1132 28.1571 10.0412 28.2464L10.0414 28.2462Z" fill="#1179EF"/>
<path d="M9.465 30.3071C9.56951 30.5124 9.65611 30.7365 9.70777 30.9811C9.73858 31.1029 9.76114 31.2298 9.77612 31.3623C9.79541 31.4941 9.81038 31.6312 9.81641 31.7741C9.59 31.7326 9.38202 31.6519 9.19573 31.5278C9.10103 31.4659 9.01873 31.3925 8.94074 31.3082C8.86309 31.224 8.79146 31.1287 8.72758 31.0226C8.60965 30.8094 8.51874 30.5614 8.48465 30.2875C8.47484 30.2191 8.46726 30.1492 8.46193 30.0778C8.45831 30.0064 8.45848 29.9337 8.46003 29.8597C8.46209 29.7857 8.46486 29.7106 8.4726 29.6345C8.48138 29.5583 8.49223 29.4811 8.50532 29.4032C8.6112 29.4512 8.71037 29.5062 8.80283 29.5681C8.84897 29.599 8.89339 29.6317 8.93609 29.666C8.97931 29.7003 9.02183 29.7364 9.06195 29.7741C9.14253 29.8496 9.21587 29.9316 9.28164 30.0204C9.34741 30.1093 9.41198 30.2049 9.46552 30.3074L9.465 30.3071Z" fill="#1179EF"/>
<path d="M9.86537 30.2983C9.76241 30.5007 9.71489 30.7314 9.70146 30.9813C9.69957 31.1059 9.70697 31.2354 9.72315 31.3682C9.74364 31.5007 9.77635 31.6361 9.81561 31.7738C10.0172 31.6647 10.1904 31.5334 10.3314 31.3824C10.4003 31.3071 10.4683 31.226 10.5257 31.14C10.5835 31.054 10.6326 30.963 10.6737 30.8666C10.7655 30.6729 10.812 30.4666 10.8443 30.2443C10.8512 30.1887 10.8559 30.1322 10.8583 30.0749C10.8624 30.0174 10.8662 29.9589 10.8667 29.8995C10.8679 29.84 10.8653 29.7794 10.8638 29.7178C10.8631 29.6562 10.8602 29.5937 10.8554 29.53C10.7452 29.5581 10.6405 29.5947 10.542 29.6401C10.4928 29.6628 10.4451 29.6878 10.3988 29.715C10.3531 29.7423 10.3103 29.7719 10.2686 29.8037C10.1854 29.8674 10.109 29.9404 10.0399 30.0229C9.97091 30.1054 9.91581 30.1972 9.86554 30.2983H9.86537Z" fill="#1179EF"/>
<path d="M9.75415 32.4236C10.0555 32.785 10.2638 33.2408 10.4268 33.7913C10.1958 33.7944 9.97385 33.7555 9.76311 33.6701C9.65843 33.6271 9.56098 33.5713 9.46525 33.504C9.41756 33.4703 9.3709 33.4336 9.3251 33.3939C9.27913 33.3542 9.2342 33.3116 9.19374 33.2649C9.11092 33.1721 9.03448 33.069 8.96492 32.9569C8.89657 32.8446 8.84147 32.7214 8.78999 32.5914C8.73661 32.4617 8.70322 32.3215 8.67188 32.1762C8.6643 32.1397 8.65724 32.103 8.65053 32.0657C8.64364 32.0287 8.63779 31.9911 8.63418 31.9527C8.62591 31.8764 8.61971 31.7987 8.61523 31.7198C8.72938 31.7467 8.83871 31.782 8.94271 31.8251C9.04704 31.8683 9.14381 31.9197 9.24108 31.978C9.33698 32.0365 9.42754 32.103 9.51208 32.1773C9.55443 32.2146 9.59489 32.2538 9.63449 32.2949C9.67581 32.3358 9.71576 32.3786 9.75415 32.4236Z" fill="#1179EF"/>
<path d="M10.1433 32.3389C10.1308 32.393 10.1209 32.4483 10.1137 32.505C10.1072 32.5614 10.1001 32.6199 10.1018 32.6777C10.1027 32.7941 10.1142 32.9147 10.1356 33.0383C10.1602 33.161 10.1986 33.2856 10.2444 33.4126C10.2663 33.4764 10.2966 33.5385 10.3267 33.6019C10.3573 33.6649 10.3904 33.7283 10.4255 33.7917C10.5979 33.6463 10.7375 33.4848 10.8411 33.3101C10.8935 33.2226 10.9413 33.1303 10.9775 33.0356C10.9959 32.988 11.0119 32.9397 11.0257 32.8905C11.0391 32.8413 11.0503 32.7914 11.0622 32.7396C11.0842 32.6365 11.0963 32.5321 11.0984 32.4261C11.1018 32.3198 11.102 32.2104 11.0889 32.0998C11.0739 31.9895 11.0622 31.8748 11.0357 31.7587C11.0293 31.7296 11.0224 31.7004 11.0149 31.671C11.0071 31.6416 10.9992 31.612 10.9927 31.582C10.9784 31.522 10.962 31.4613 10.9432 31.3998C10.8415 31.4482 10.7471 31.5037 10.6607 31.5668C10.5746 31.6298 10.4942 31.7009 10.4284 31.7786C10.3615 31.8567 10.3033 31.9425 10.2545 32.0361C10.2303 32.0829 10.2079 32.1316 10.1884 32.1824C10.1709 32.2327 10.1557 32.2848 10.1433 32.3391V32.3389Z" fill="#1179EF"/>
<path d="M10.5142 34.4385C10.8901 34.734 11.1965 35.1396 11.4787 35.6471C11.2535 35.6943 11.0276 35.6989 10.8026 35.6558C10.6903 35.634 10.5827 35.5979 10.4739 35.5506C10.4197 35.5267 10.3658 35.4999 10.3122 35.4699C10.2854 35.4549 10.2587 35.439 10.232 35.4225C10.2057 35.4059 10.1805 35.3876 10.1549 35.3689C10.0529 35.2941 9.95515 35.2082 9.86183 35.112C9.77075 35.0148 9.68829 34.9054 9.60874 34.7881C9.58912 34.7587 9.56948 34.7288 9.55054 34.6983C9.53281 34.6672 9.51525 34.6357 9.4982 34.6035C9.46394 34.5393 9.43123 34.473 9.39989 34.4047C9.33464 34.2693 9.28764 34.1213 9.24219 33.9691C9.47858 33.9777 9.70068 34.023 9.91228 34.1014C10.0195 34.1401 10.123 34.1875 10.2227 34.244C10.2725 34.2723 10.3214 34.3026 10.3691 34.3355C10.4173 34.368 10.467 34.4018 10.5144 34.4385H10.5142Z" fill="#1179EF"/>
<path d="M10.8771 34.2816C10.8701 34.726 11.0827 35.2099 11.4787 35.6486C11.6149 35.4733 11.7153 35.2884 11.7776 35.0976C11.8091 35.0021 11.8353 34.9024 11.8494 34.8028C11.8568 34.7528 11.8616 34.7024 11.864 34.6516C11.8652 34.6262 11.8657 34.6008 11.8656 34.5751C11.8656 34.5495 11.8664 34.523 11.8659 34.4969C11.8644 34.3918 11.8525 34.2873 11.8308 34.1832C11.8112 34.0781 11.7857 33.9714 11.7481 33.8657C11.7287 33.8125 11.7091 33.759 11.6893 33.705C11.6684 33.6509 11.6452 33.5967 11.6195 33.5423C11.5657 33.4345 11.5143 33.3216 11.4487 33.2092C11.2723 33.3425 11.1285 33.4995 11.0298 33.6788C10.982 33.768 10.9446 33.8631 10.9181 33.9639C10.9048 34.0144 10.8943 34.0663 10.8866 34.1195C10.8792 34.1728 10.8775 34.2262 10.877 34.2816H10.8771Z" fill="#1179EF"/>
<path d="M11.7064 36.2655C11.7611 36.2921 11.8149 36.3211 11.8675 36.3523C11.9206 36.383 11.9707 36.4174 12.0242 36.4508C12.1294 36.5187 12.231 36.5953 12.3291 36.6806C12.4307 36.7629 12.5301 36.8531 12.6261 36.9522C12.7241 37.0496 12.8236 37.1518 12.9187 37.2647C12.7088 37.3537 12.4889 37.4009 12.2594 37.4014C12.2307 37.4014 12.2019 37.4008 12.173 37.3993C12.1446 37.3973 12.116 37.3947 12.0874 37.3913C12.0301 37.3844 11.9724 37.3745 11.9142 37.3614C11.7985 37.3348 11.678 37.2982 11.5616 37.2446C11.0916 37.0345 10.6646 36.6157 10.3574 36.0502C10.5907 36.0133 10.8176 36.0151 11.0425 36.0511C11.156 36.0684 11.2679 36.095 11.3777 36.1313C11.4326 36.1494 11.4872 36.1698 11.5411 36.1928C11.5964 36.2149 11.6518 36.2389 11.7066 36.2657L11.7064 36.2655Z" fill="#1179EF"/>
<path d="M12.0259 36.0412C12.0381 36.0954 12.0534 36.1496 12.0715 36.2042C12.0901 36.2582 12.1096 36.3139 12.1364 36.3664C12.1881 36.4726 12.2511 36.5787 12.3246 36.6838C12.4016 36.786 12.4901 36.8865 12.5873 36.9853C12.6867 37.0825 12.7995 37.1739 12.9183 37.2644C13.0128 37.0668 13.0703 36.8665 13.0891 36.6677C13.0915 36.6429 13.0932 36.6181 13.0942 36.5933C13.0959 36.5679 13.097 36.5426 13.0975 36.5173C13.0985 36.4667 13.0971 36.4162 13.0934 36.3657C13.0863 36.2643 13.0665 36.1655 13.0412 36.0632C12.936 35.6565 12.696 35.2754 12.3451 34.8821C12.2024 35.0464 12.0963 35.2277 12.0407 35.4219C12.0138 35.5183 11.9983 35.6186 11.9949 35.7225C11.9932 35.7744 11.9944 35.8272 11.9987 35.8809C12.0044 35.9337 12.0137 35.9869 12.0257 36.0412H12.0259Z" fill="#1179EF"/>
<path d="M13.2802 37.8244C13.7538 37.9531 14.2082 38.2135 14.6877 38.5722C14.5023 38.6991 14.2977 38.787 14.0732 38.8306C13.9603 38.8536 13.8458 38.861 13.7261 38.8575C13.6068 38.8538 13.482 38.8393 13.3547 38.8107C12.8494 38.6931 12.3375 38.3656 11.9121 37.8706C12.0218 37.8306 12.1327 37.7999 12.2442 37.7785C12.356 37.7569 12.4672 37.746 12.5829 37.7406C12.6976 37.7362 12.8129 37.7411 12.9283 37.7556C12.9863 37.7627 13.0431 37.7734 13.1022 37.7844C13.1614 37.7952 13.2206 37.8086 13.28 37.8244H13.2802Z" fill="#1179EF"/>
<path d="M13.5424 37.5453C13.5663 37.5961 13.5932 37.6464 13.6229 37.6963C13.6377 37.7213 13.6534 37.7462 13.6698 37.771C13.6865 37.7953 13.7046 37.8187 13.723 37.8424C13.797 37.9365 13.8814 38.0294 13.9773 38.1174C14.0756 38.2025 14.1839 38.2847 14.3008 38.3631C14.4206 38.4378 14.5503 38.5073 14.6866 38.5733C14.7354 38.3618 14.7474 38.1547 14.7219 37.9562C14.7083 37.8581 14.6887 37.7576 14.6589 37.6602C14.6293 37.5626 14.5892 37.4683 14.5406 37.3744C14.3487 36.9949 14.0282 36.6689 13.5976 36.3501C13.5456 36.4445 13.5043 36.5405 13.474 36.6385C13.4441 36.7364 13.4239 36.8373 13.4196 36.9361C13.4144 37.0358 13.4215 37.1369 13.441 37.2395C13.4509 37.2904 13.463 37.3429 13.4802 37.3935C13.4976 37.444 13.5183 37.4946 13.5422 37.5453H13.5424Z" fill="#1179EF"/>
<path d="M15.1649 39.0516C15.6574 39.0865 16.1592 39.2558 16.7088 39.5143C16.5557 39.6739 16.3753 39.7991 16.1654 39.8846C16.1131 39.9057 16.0583 39.9258 16.0031 39.9407C15.9476 39.9555 15.8906 39.9679 15.8316 39.9776C15.7138 39.9969 15.5888 40.0057 15.4575 40.0029C14.937 39.9833 14.3623 39.7612 13.8359 39.3572C13.9344 39.2973 14.036 39.2463 14.1405 39.2042C14.1927 39.1831 14.2455 39.1645 14.2991 39.148C14.3531 39.1308 14.4082 39.1153 14.4639 39.1022C14.687 39.0491 14.9167 39.0375 15.1648 39.0516H15.1649Z" fill="#1179EF"/>
<path d="M15.358 38.728C15.6331 39.0908 16.1078 39.3741 16.7066 39.5154C16.707 39.2989 16.6725 39.0939 16.6035 38.9046C16.5864 38.8569 16.5665 38.8117 16.5455 38.7648C16.5245 38.7179 16.5014 38.672 16.4759 38.6273C16.4251 38.5374 16.3654 38.452 16.2965 38.3705C16.025 38.035 15.639 37.7782 15.1472 37.5479C15.1173 37.6501 15.098 37.7522 15.0901 37.854C15.0861 37.905 15.0849 37.9558 15.0868 38.0064C15.0891 38.0564 15.0947 38.1057 15.1032 38.155C15.1378 38.3512 15.2178 38.5498 15.3582 38.7279L15.358 38.728Z" fill="#1179EF"/>
<path d="M18.0183 39.9425C16.0679 39.5192 14.2802 38.6073 12.8486 37.3053C11.3998 35.9886 10.3773 34.3486 9.89156 32.5625C9.77139 32.1399 9.68289 31.6936 9.62108 31.1989C9.59474 31.0122 9.58114 30.8212 9.56805 30.6366C9.56495 30.594 9.56203 30.5514 9.55875 30.5089V30.5056L9.54688 30.0751L9.55049 29.8136C9.57115 28.8812 9.72783 27.9603 10.016 27.0761C10.3048 26.1883 10.7249 25.3399 11.2643 24.5547C11.8023 23.771 12.4537 23.0578 13.2004 22.4348L13.3114 22.5489C12.5759 23.1624 11.9342 23.8649 11.4043 24.637C10.8729 25.4105 10.4594 26.246 10.175 27.1203C9.89105 27.9913 9.73678 28.8983 9.71647 29.8162L9.71285 30.0738L9.72455 30.4999C9.72765 30.5421 9.73076 30.5844 9.73368 30.6265C9.7466 30.8086 9.75985 30.9971 9.78568 31.1801C9.84663 31.6686 9.93375 32.108 10.0522 32.5242C10.5307 34.2838 11.5377 35.8987 12.9648 37.1957C14.3748 38.4779 16.1354 39.3762 18.0562 39.793L18.0183 39.9425Z" fill="#1179EF"/>
<path d="M27.0264 21.4689C27.473 21.7573 27.7805 22.1869 27.9162 22.6794C27.3737 22.5938 26.9061 22.4365 26.4972 22.1719C26.0879 21.9078 25.7668 21.5563 25.4922 21.1144C26.038 21.0618 26.58 21.1801 27.0264 21.4687V21.4689Z" fill="#1179EF"/>
<path d="M27.9616 22.8989C28.4168 23.0359 28.8464 23.3742 29.1713 23.8603C28.9485 23.9245 28.7274 23.9542 28.512 23.9487C28.4025 23.9474 28.294 23.9372 28.1875 23.9181C28.1337 23.9088 28.0819 23.8961 28.0279 23.883C27.9741 23.8698 27.9206 23.8543 27.8677 23.8365C27.4433 23.693 27.0632 23.4276 26.6816 23.059C26.8743 22.9467 27.08 22.8711 27.2953 22.8417C27.5082 22.8144 27.735 22.8286 27.9616 22.899V22.8989Z" fill="#1179EF"/>
<path d="M28.2393 22.6309C28.4202 23.0567 28.7401 23.4528 29.1716 23.8609C29.2913 23.6779 29.3675 23.4809 29.3944 23.2697C29.4059 23.1657 29.4051 23.0582 29.3911 22.9475C29.3839 22.8924 29.3748 22.8354 29.3596 22.7799C29.3448 22.7242 29.3267 22.6676 29.3052 22.6106C29.1339 22.1544 28.7348 21.7126 28.1641 21.3647C28.0974 21.575 28.0723 21.7851 28.0854 21.9956C28.0966 22.2083 28.1503 22.4169 28.2391 22.6311L28.2393 22.6309Z" fill="#1179EF"/>
<path d="M29.402 24.466C29.8166 24.687 30.1632 25.0993 30.3718 25.6375C30.1406 25.6573 29.9161 25.6449 29.7066 25.5985C29.6021 25.5751 29.496 25.5457 29.3961 25.5065C29.3459 25.4871 29.2966 25.4655 29.2481 25.4417C29.1993 25.418 29.1494 25.3933 29.1017 25.3657C28.7186 25.1447 28.4055 24.8128 28.1133 24.3799C28.2204 24.343 28.3282 24.3161 28.4368 24.2996C28.5456 24.2829 28.6548 24.277 28.7619 24.284C28.8696 24.2906 28.9778 24.3084 29.0859 24.3378C29.1928 24.368 29.2971 24.4114 29.402 24.4662V24.466Z" fill="#1179EF"/>
<path d="M29.7347 24.2556C29.8168 24.707 30.0432 25.1549 30.3734 25.6371C30.5323 25.4806 30.6492 25.3031 30.7224 25.1015C30.7594 25.0006 30.7801 24.8963 30.7913 24.7853C30.7966 24.7299 30.7989 24.6732 30.798 24.6151C30.797 24.5571 30.7906 24.4989 30.7823 24.439C30.716 23.9596 30.423 23.4509 29.9411 23.0024C29.8857 23.0988 29.8399 23.1973 29.804 23.2975C29.7684 23.3977 29.7426 23.4996 29.7242 23.605C29.7066 23.7098 29.6988 23.8162 29.7018 23.9236C29.7035 24.0321 29.713 24.1435 29.7347 24.2556Z" fill="#1179EF"/>
<path d="M30.459 26.2745C30.8147 26.5701 31.0625 27.0399 31.1448 27.6069C30.9149 27.5816 30.6973 27.5264 30.5028 27.4408C30.4065 27.3976 30.3091 27.3486 30.2199 27.2911C30.1298 27.234 30.0472 27.1685 29.9637 27.0969C29.6388 26.8073 29.4067 26.4231 29.2168 25.9444C29.4425 25.9132 29.6658 25.9197 29.8726 25.9741C29.9766 26.0011 30.0794 26.0386 30.178 26.0884C30.2746 26.1389 30.3685 26.201 30.4589 26.2745H30.459Z" fill="#1179EF"/>
<path d="M30.8324 26.1324C30.8115 26.5901 30.9334 27.0715 31.1475 27.6068C31.3387 27.4841 31.4921 27.333 31.6089 27.1499C31.6683 27.0581 31.7117 26.9601 31.7471 26.8537C31.7817 26.7476 31.8079 26.6331 31.816 26.513C31.8587 26.031 31.6853 25.4766 31.3129 24.9454C31.1611 25.113 31.049 25.295 30.9665 25.4937C30.9259 25.5929 30.8957 25.6951 30.8739 25.8012C30.8501 25.9081 30.836 26.0184 30.8322 26.1321L30.8324 26.1324Z" fill="#1179EF"/>
<path d="M31.092 28.2463C31.374 28.604 31.5092 29.1112 31.4651 29.6814C31.2438 29.6128 31.0455 29.5171 30.8742 29.3959C30.7878 29.3353 30.7046 29.2685 30.6304 29.1951C30.593 29.1584 30.5574 29.1201 30.5236 29.0801C30.4896 29.0401 30.4548 28.9988 30.4231 28.9557C30.17 28.6095 30.0295 28.1889 29.9512 27.6844C30.1795 27.6971 30.3957 27.7464 30.586 27.8395C30.6817 27.8859 30.774 27.9424 30.859 28.0101C30.9422 28.078 31.02 28.1567 31.092 28.2461V28.2463Z" fill="#1179EF"/>
<path d="M31.4839 28.1792C31.3611 28.6229 31.3706 29.1173 31.4623 29.682C31.6748 29.5985 31.8609 29.4801 32.016 29.3235C32.0928 29.2452 32.1584 29.1577 32.2171 29.0605C32.2462 29.0118 32.2733 28.9608 32.2981 28.9074C32.3225 28.854 32.3421 28.7986 32.3607 28.7406C32.5105 28.2777 32.4659 27.7021 32.2204 27.1108C32.0348 27.2454 31.8836 27.4021 31.7585 27.5807C31.6965 27.6699 31.6443 27.764 31.5989 27.8637C31.5515 27.9636 31.5131 28.0688 31.4839 28.1794V28.1792Z" fill="#1179EF"/>
<path d="M31.2655 30.2982C31.3685 30.5006 31.416 30.731 31.4294 30.9811C31.4313 31.1058 31.4239 31.2351 31.4077 31.3681C31.3872 31.5006 31.3547 31.636 31.3153 31.7737C31.1137 31.6645 30.9405 31.5334 30.7994 31.3823C30.7306 31.307 30.6626 31.2258 30.6052 31.1399C30.5474 31.0538 30.4983 30.9628 30.4572 30.8665C30.3654 30.6727 30.3189 30.4666 30.2865 30.2441C30.2797 30.1886 30.275 30.1321 30.2726 30.0747C30.2685 30.0172 30.2647 29.9588 30.264 29.8993C30.2628 29.8398 30.2654 29.7792 30.2669 29.7177C30.2676 29.6561 30.2705 29.5935 30.2753 29.5298C30.3855 29.5579 30.4902 29.5945 30.5887 29.6399C30.6379 29.6626 30.6856 29.6876 30.732 29.7149C30.7776 29.7422 30.8204 29.7717 30.8623 29.8036C30.9454 29.8673 31.0219 29.9403 31.0909 30.0228C31.16 30.1053 31.2151 30.1971 31.2653 30.2982H31.2655Z" fill="#1179EF"/>
<path d="M31.6678 30.3061C31.5633 30.5115 31.4767 30.7356 31.425 30.9799C31.3942 31.1018 31.3717 31.2287 31.3567 31.3612C31.3374 31.493 31.3224 31.63 31.3164 31.773C31.5428 31.7315 31.7508 31.6508 31.9371 31.5266C32.0318 31.4647 32.1141 31.3914 32.1921 31.3071C32.2697 31.2228 32.3413 31.1276 32.4052 31.0214C32.5232 30.8083 32.6139 30.5603 32.6482 30.2864C32.658 30.2179 32.6655 30.148 32.6709 30.0766C32.6745 30.0053 32.6743 29.9326 32.6728 29.8586C32.6707 29.7846 32.668 29.7095 32.6602 29.6333C32.6514 29.5572 32.6406 29.48 32.6275 29.402C32.5216 29.4501 32.4224 29.5051 32.33 29.567C32.2838 29.5979 32.2394 29.6306 32.1967 29.6649C32.1535 29.6992 32.111 29.7353 32.0709 29.773C31.9903 29.8485 31.9169 29.9305 31.8512 30.0193C31.7856 30.1082 31.7208 30.2037 31.6675 30.3063L31.6678 30.3061Z" fill="#1179EF"/>
<path d="M30.9884 32.3379C31.0009 32.392 31.0107 32.4474 31.018 32.5041C31.0245 32.5604 31.0316 32.6189 31.0299 32.6767C31.029 32.7932 31.0175 32.9137 30.9961 33.0374C30.9717 33.16 30.9331 33.2847 30.8875 33.4116C30.8656 33.4755 30.8353 33.5375 30.8052 33.6007C30.7745 33.6638 30.7415 33.7272 30.7063 33.7905C30.534 33.6452 30.3944 33.4836 30.2907 33.309C30.2384 33.2215 30.1905 33.1292 30.1542 33.0344C30.1358 32.9869 30.1197 32.9385 30.106 32.8894C30.0925 32.8402 30.0813 32.7902 30.0695 32.7385C30.0474 32.6354 30.0354 32.531 30.0333 32.425C30.0297 32.3187 30.0297 32.2092 30.0428 32.0986C30.0578 31.9884 30.0695 31.8737 30.096 31.7576C30.1024 31.7285 30.1092 31.6993 30.1168 31.6699C30.1247 31.6405 30.1325 31.6109 30.139 31.5808C30.1533 31.5209 30.1697 31.4601 30.1884 31.3987C30.2902 31.4471 30.3846 31.5026 30.471 31.5656C30.5571 31.6287 30.6375 31.6998 30.7032 31.7775C30.7702 31.8556 30.8284 31.9413 30.8771 32.0349C30.9016 32.0818 30.9238 32.1305 30.9432 32.1813C30.9608 32.2316 30.976 32.2837 30.9884 32.3379Z" fill="#1179EF"/>
<path d="M31.3797 32.4235C31.0784 32.7848 30.8701 33.2407 30.707 33.7912C30.9381 33.7943 31.16 33.7554 31.3708 33.67C31.4754 33.627 31.5729 33.5711 31.6686 33.5038C31.7163 33.4702 31.763 33.4334 31.8088 33.3937C31.8547 33.354 31.8995 33.3114 31.9401 33.2647C32.0229 33.1719 32.0994 33.0689 32.169 32.9568C32.2371 32.8444 32.2924 32.7213 32.3437 32.5912C32.3971 32.4615 32.4303 32.3214 32.4618 32.176C32.4694 32.1396 32.4765 32.1028 32.4832 32.0656C32.4901 32.0285 32.4959 31.9909 32.4995 31.9526C32.5078 31.8763 32.514 31.7985 32.5185 31.7196C32.4043 31.7466 32.295 31.7819 32.191 31.825C32.0866 31.8681 31.9899 31.9196 31.8926 31.9779C31.7967 32.0364 31.7062 32.1028 31.6216 32.1772C31.5793 32.2144 31.5386 32.2536 31.4992 32.2948C31.4579 32.3356 31.4179 32.3784 31.3797 32.4235Z" fill="#1179EF"/>
<path d="M30.2587 34.2813C30.2657 34.7257 30.0531 35.2095 29.6571 35.6483C29.5209 35.473 29.4204 35.2881 29.3581 35.0973C29.3265 35.0018 29.3004 34.9021 29.2862 34.8025C29.2788 34.7525 29.274 34.702 29.2716 34.6512C29.2704 34.6259 29.2699 34.6004 29.2701 34.5748C29.2699 34.5491 29.2692 34.5227 29.2697 34.4965C29.2713 34.3915 29.2832 34.287 29.3048 34.1829C29.3245 34.0777 29.35 33.9711 29.3875 33.8656C29.4069 33.8123 29.4266 33.7589 29.4464 33.7048C29.4672 33.6508 29.4904 33.5965 29.5161 33.5421C29.57 33.4343 29.6213 33.3215 29.6869 33.2091C29.8634 33.3424 30.0071 33.4992 30.1058 33.6787C30.1537 33.7679 30.191 33.8628 30.2175 33.9637C30.2308 34.0142 30.2413 34.0661 30.249 34.1194C30.2564 34.1726 30.2582 34.226 30.2587 34.2814V34.2813Z" fill="#1179EF"/>
<path d="M30.6208 34.4384C30.2449 34.7339 29.9384 35.1395 29.6562 35.647C29.8815 35.6942 30.1073 35.6987 30.3325 35.6556C30.4448 35.6339 30.5524 35.5978 30.6612 35.5504C30.7155 35.5266 30.7694 35.4998 30.8229 35.4697C30.8498 35.4547 30.8764 35.4389 30.9031 35.4224C30.9295 35.4055 30.9546 35.3874 30.9803 35.3688C31.0822 35.294 31.18 35.2081 31.2733 35.1118C31.3644 35.0147 31.4468 34.9052 31.5264 34.7879C31.546 34.7585 31.5656 34.7286 31.5846 34.6981C31.6023 34.6671 31.6199 34.6355 31.6369 34.6034C31.671 34.5392 31.7039 34.4728 31.7352 34.4046C31.8005 34.2692 31.8475 34.1212 31.8929 33.9689C31.6566 33.9776 31.4343 34.0228 31.223 34.1014C31.1158 34.1401 31.0123 34.1875 30.9126 34.244C30.8628 34.2723 30.8139 34.3026 30.7663 34.3355C30.718 34.3681 30.6683 34.4018 30.6209 34.4385L30.6208 34.4384Z" fill="#1179EF"/>
<path d="M29.1073 36.041C29.095 36.0952 29.0797 36.1495 29.0616 36.204C29.043 36.2581 29.0236 36.3138 28.9969 36.3662C28.9452 36.4724 28.8822 36.5786 28.8087 36.6836C28.7318 36.7859 28.6433 36.8863 28.546 36.9851C28.4466 37.0823 28.3339 37.1738 28.2151 37.2643C28.1205 37.0666 28.063 36.8664 28.0441 36.6676C28.0417 36.6428 28.04 36.6179 28.0389 36.5931C28.0372 36.5678 28.0362 36.5425 28.0355 36.5172C28.0345 36.4665 28.0358 36.416 28.0396 36.3656C28.0467 36.2641 28.0665 36.1655 28.0918 36.0631C28.197 35.6563 28.4368 35.2753 28.7877 34.8819C28.9304 35.0463 29.0365 35.2276 29.0923 35.4218C29.1191 35.5182 29.1346 35.6184 29.1381 35.7223C29.1398 35.7743 29.1386 35.827 29.1343 35.8808C29.1288 35.9335 29.1193 35.9868 29.1073 36.041Z" fill="#1179EF"/>
<path d="M29.4271 36.2636C29.3724 36.2902 29.3186 36.3191 29.266 36.3503C29.2129 36.381 29.1628 36.4155 29.1093 36.4488C29.0041 36.5168 28.9025 36.5934 28.8044 36.6786C28.7028 36.761 28.6034 36.8511 28.5074 36.9503C28.4094 37.0476 28.3099 37.1499 28.2148 37.2627C28.4247 37.3518 28.6446 37.399 28.8741 37.3993C28.9028 37.3993 28.9316 37.3987 28.9605 37.3972C28.9889 37.3952 29.0175 37.3926 29.0461 37.3892C29.1034 37.3823 29.1611 37.3724 29.2193 37.3593C29.335 37.3327 29.4555 37.2961 29.5719 37.2425C30.0419 37.0324 30.4689 36.6136 30.7761 36.0481C30.5428 36.0112 30.3159 36.013 30.091 36.0489C29.9776 36.0663 29.8656 36.0929 29.7558 36.1291C29.7009 36.1473 29.6463 36.1677 29.5924 36.1907C29.5371 36.2128 29.4817 36.2368 29.4269 36.2636H29.4271Z" fill="#1179EF"/>
<path d="M27.5907 37.5451C27.5668 37.5959 27.5399 37.6462 27.5103 37.6962C27.4955 37.7212 27.4798 37.746 27.4635 37.7708C27.4468 37.7952 27.4287 37.8185 27.4104 37.8422C27.3364 37.9363 27.252 38.0292 27.1561 38.1173C27.0578 38.2024 26.9495 38.2846 26.8326 38.363C26.7128 38.4376 26.5832 38.5074 26.4468 38.5732C26.3981 38.3617 26.386 38.1545 26.4113 37.9561C26.4249 37.8579 26.4444 37.7574 26.4742 37.6601C26.5038 37.5624 26.5439 37.4682 26.5924 37.3742C26.7844 36.9948 27.1047 36.6688 27.5353 36.3499C27.5873 36.4443 27.6286 36.5404 27.6589 36.6384C27.6888 36.7362 27.709 36.8372 27.7133 36.936C27.7185 37.0356 27.7114 37.1367 27.6919 37.2393C27.682 37.2903 27.6699 37.3427 27.6527 37.3934C27.6353 37.4438 27.6146 37.4945 27.5909 37.5451H27.5907Z" fill="#1179EF"/>
<path d="M27.8528 37.8241C27.3792 37.9528 26.925 38.2132 26.4453 38.5719C26.6307 38.6988 26.8353 38.7867 27.0598 38.8303C27.1727 38.8533 27.2872 38.8607 27.4069 38.8572C27.5262 38.8535 27.651 38.8389 27.7783 38.8104C28.2836 38.6927 28.7955 38.3652 29.2209 37.8701C29.1112 37.8301 29.0004 37.7994 28.8888 37.7782C28.777 37.7566 28.6658 37.7457 28.5501 37.7405C28.4355 37.736 28.3201 37.7409 28.2047 37.7555C28.1467 37.7625 28.0899 37.7733 28.0308 37.7842C27.9716 37.795 27.9124 37.8084 27.853 37.8242L27.8528 37.8241Z" fill="#1179EF"/>
<path d="M25.7723 38.7269C25.4972 39.0897 25.0226 39.3729 24.4238 39.5142C24.4235 39.2978 24.4579 39.0928 24.527 38.9035C24.544 38.8558 24.564 38.8105 24.585 38.7637C24.606 38.7168 24.6291 38.671 24.6545 38.6261C24.7053 38.5363 24.7651 38.4509 24.8339 38.3694C25.1055 38.0338 25.4915 37.7771 25.9832 37.5468C26.0132 37.649 26.0324 37.7511 26.0404 37.8529C26.0443 37.9038 26.0455 37.9546 26.0436 38.0053C26.0414 38.0554 26.0357 38.1046 26.0273 38.1539C25.9927 38.3501 25.9126 38.5487 25.7723 38.7267V38.7269Z" fill="#1179EF"/>
<path d="M25.9677 39.0514C25.4753 39.0864 24.9734 39.2556 24.4238 39.5142C24.5769 39.6738 24.7573 39.7989 24.9672 39.8845C25.0195 39.9056 25.0743 39.9257 25.1296 39.9405C25.185 39.9554 25.242 39.9678 25.3011 39.9774C25.4188 39.9967 25.5438 40.0055 25.6752 40.0026C26.1957 39.9828 26.7704 39.7607 27.2965 39.3567C27.198 39.2968 27.0965 39.2458 26.992 39.2038C26.9398 39.1828 26.8868 39.1641 26.8334 39.1476C26.7793 39.1305 26.7242 39.115 26.6686 39.1021C26.4455 39.049 26.2158 39.0374 25.9677 39.0514Z" fill="#1179EF"/>
<path d="M23.127 39.9888L23.0879 39.8395C25.0121 39.4074 26.7703 38.4947 28.1727 37.1997C29.5883 35.8934 30.5812 34.2737 31.044 32.5152C31.1587 32.099 31.242 31.6609 31.2986 31.1748C31.3229 30.9917 31.3348 30.8043 31.346 30.623C31.3486 30.5807 31.3513 30.5384 31.3541 30.4962L31.3623 30.0694L31.3566 29.8154C31.3289 28.9036 31.1683 28.0036 30.8794 27.1408C30.5901 26.2756 30.1733 25.4501 29.6406 24.6873C29.1098 23.9267 28.4693 23.2361 27.7367 22.6344L27.8467 22.5195C28.5905 23.1306 29.2408 23.8318 29.7799 24.604C30.321 25.3785 30.7442 26.2168 31.038 27.0954C31.3313 27.9716 31.4944 28.8855 31.5226 29.8117L31.5283 30.0696L31.5199 30.5042C31.5171 30.5469 31.5144 30.5895 31.5118 30.6321C31.5002 30.8157 31.4884 31.0057 31.4636 31.1926C31.4062 31.6847 31.3217 32.13 31.2051 32.5524C30.7353 34.3374 29.7272 35.9824 28.2901 37.3085C26.8662 38.6234 25.081 39.5502 23.1273 39.9888H23.127Z" fill="#1179EF"/>
<g clip-path="url(#clip1_4580_3099)">
<path d="M66.2392 31.3047L67.3958 30.3662L68.3089 30.4384L66.9697 31.5429L67.3654 33.1816L66.5892 32.734L66.2392 31.3047ZM65.524 29.1968L65.2044 28.4893L65.5544 27.6953L66.2544 29.2618L65.524 29.1968ZM63.3935 31.976L64.3522 31.4274L65.3109 31.9832L65.0598 30.9437L65.9044 30.2507L64.7935 30.1569L64.3522 29.1751L63.9109 30.1497L62.8 30.2435L63.6446 30.9437L63.3935 31.976ZM62.4728 33.1816L62.9674 31.1531L61.3086 29.7887L63.5 29.6083L64.3522 27.6953L65.2044 29.6083L67.3958 29.7887L65.737 31.1531L66.2316 33.1816L64.3522 32.106L62.4728 33.1816Z" fill="#1179EF"/>
<path d="M61.3398 25.9108C61.1005 26.0657 60.8276 26.1585 60.5117 26.2101C60.5924 25.9234 60.7726 25.6729 61.0337 25.5043C61.2947 25.3356 61.6111 25.2656 61.9294 25.2949C61.7679 25.5515 61.5792 25.7563 61.3397 25.9109L61.3398 25.9108Z" fill="#1179EF"/>
<path d="M60.3697 26.2309C60.2651 26.4772 60.0802 26.7062 59.8307 26.9421C59.7615 26.8363 59.7174 26.7224 59.7019 26.6003C59.6952 26.5401 59.6957 26.478 59.7038 26.414C59.708 26.3821 59.7132 26.3492 59.722 26.3171C59.7306 26.2849 59.741 26.2522 59.7534 26.2192C59.8525 25.9555 60.0832 25.6999 60.4132 25.4987C60.4518 25.6204 60.4663 25.7418 60.4587 25.8636C60.4523 25.9865 60.4212 26.1071 60.3698 26.2309H60.3697Z" fill="#1179EF"/>
<path d="M60.5314 26.3864C60.2682 26.4657 60.0199 26.6613 59.832 26.9423C59.9608 26.9794 60.0887 26.9966 60.2132 26.9934C60.2765 26.9927 60.3392 26.9868 60.4008 26.9757C60.4319 26.9703 60.4619 26.9629 60.4931 26.9554C60.5242 26.9477 60.5551 26.9387 60.5857 26.9284C60.8311 26.8455 61.0509 26.6921 61.2715 26.4789C61.1601 26.414 61.0411 26.3703 60.9167 26.3533C60.7935 26.3375 60.6624 26.3457 60.5314 26.3864Z" fill="#1179EF"/>
<path d="M59.5075 27.1713C59.46 27.4323 59.3291 27.6913 59.1382 27.9701C59.0463 27.8795 58.9787 27.7769 58.9364 27.6604C58.915 27.602 58.903 27.5418 58.8966 27.4776C58.8935 27.4455 58.8922 27.4128 58.8927 27.3792C58.8933 27.3456 58.897 27.312 58.9017 27.2774C58.9401 27.0001 59.1095 26.7061 59.3881 26.4467C59.4202 26.5025 59.4467 26.5594 59.4674 26.6174C59.488 26.6753 59.5029 26.7342 59.5135 26.7951C59.5237 26.8558 59.5282 26.9172 59.5265 26.9794C59.5255 27.0421 59.52 27.1065 59.5075 27.1713Z" fill="#1179EF"/>
<path d="M59.6994 27.2924C59.4597 27.4202 59.2593 27.6586 59.1387 27.9698C59.2724 27.9812 59.4022 27.974 59.5233 27.9472C59.5836 27.9337 59.6451 27.9167 59.7028 27.894C59.7319 27.8828 59.7603 27.8703 59.7884 27.8565C59.8166 27.8428 59.8454 27.8286 59.873 27.8126C60.0945 27.6848 60.2756 27.4929 60.4445 27.2427C60.3826 27.2213 60.3203 27.2057 60.2575 27.1962C60.1946 27.1866 60.1314 27.1832 60.0695 27.1872C60.0072 27.191 59.9447 27.2013 59.8822 27.2183C59.8204 27.2358 59.76 27.2609 59.6994 27.2925V27.2924Z" fill="#1179EF"/>
<path d="M58.8733 28.2558C58.8854 28.5204 58.8148 28.7988 58.6911 29.1083C58.5805 29.0374 58.4918 28.95 58.4243 28.8442C58.39 28.7911 58.3649 28.7344 58.3443 28.673C58.3243 28.6116 58.3091 28.5454 58.3044 28.476C58.2798 28.1973 58.38 27.8767 58.5953 27.5696C58.683 27.6665 58.748 27.7717 58.7956 27.8866C58.8191 27.944 58.8365 28.0031 58.8492 28.0644C58.8629 28.1262 58.8711 28.19 58.8733 28.2557V28.2558Z" fill="#1179EF"/>
<path d="M59.0879 28.3381C58.8822 28.509 58.739 28.7807 58.6914 29.1085C58.8243 29.0938 58.9501 29.0619 59.0626 29.0124C59.1183 28.9875 59.1746 28.9591 59.2262 28.9259C59.2782 28.8929 59.326 28.855 59.3743 28.8135C59.5621 28.6461 59.6963 28.424 59.8061 28.1472C59.6756 28.1291 59.5465 28.1329 59.4269 28.1644C59.3668 28.18 59.3074 28.2017 59.2504 28.2305C59.1945 28.2597 59.1403 28.2956 59.088 28.3381H59.0879Z" fill="#1179EF"/>
<path d="M58.4943 29.4394C58.5653 29.6959 58.5598 29.9818 58.5068 30.3083C58.3839 30.26 58.2764 30.1915 58.1866 30.101C58.1422 30.0557 58.1043 30.0051 58.0704 29.9489C58.0535 29.9208 58.0379 29.8913 58.0236 29.8604C58.0094 29.8296 57.9981 29.7975 57.9873 29.764C57.9007 29.4963 57.9265 29.1636 58.0685 28.8216C58.1758 28.8994 58.2632 28.99 58.3355 29.0933C58.3714 29.1449 58.4015 29.1993 58.4278 29.2569C58.4552 29.3147 58.4774 29.3755 58.4943 29.4394Z" fill="#1179EF"/>
<path d="M58.7224 29.4779C58.5593 29.6848 58.4813 29.978 58.5067 30.3078C58.6346 30.2681 58.7493 30.2128 58.8483 30.1427C58.8982 30.1077 58.9463 30.0691 58.9893 30.0266C59.0109 30.0054 59.0315 29.9833 59.051 29.9602C59.0707 29.937 59.0908 29.9131 59.1091 29.8882C59.2554 29.6881 59.3366 29.4449 59.3819 29.1532C59.2499 29.1605 59.1248 29.1891 59.0148 29.243C58.9595 29.2698 58.906 29.3025 58.857 29.3416C58.8089 29.3809 58.7639 29.4264 58.7223 29.478L58.7224 29.4779Z" fill="#1179EF"/>
<path d="M58.3902 30.6695C58.4507 30.7882 58.5007 30.9178 58.5306 31.0592C58.5484 31.1296 58.5615 31.203 58.5701 31.2796C58.5813 31.3558 58.5899 31.435 58.5934 31.5177C58.4625 31.4937 58.3423 31.447 58.2346 31.3753C58.1798 31.3395 58.1322 31.2971 58.0871 31.2483C58.0422 31.1996 58.0008 31.1445 57.9639 31.0832C57.8957 30.9599 57.8431 30.8166 57.8234 30.6582C57.8178 30.6186 57.8134 30.5782 57.8103 30.5369C57.8082 30.4956 57.8083 30.4536 57.8092 30.4108C57.8104 30.3681 57.812 30.3246 57.8165 30.2806C57.8215 30.2366 57.8278 30.1919 57.8354 30.1469C57.8966 30.1746 57.9539 30.2065 58.0074 30.2423C58.0341 30.2601 58.0598 30.279 58.0844 30.2988C58.1094 30.3187 58.134 30.3395 58.1572 30.3614C58.2038 30.405 58.2462 30.4524 58.2842 30.5038C58.3223 30.5551 58.3596 30.6104 58.3905 30.6697L58.3902 30.6695Z" fill="#1179EF"/>
<path d="M58.6203 30.6644C58.5608 30.7814 58.5333 30.9148 58.5256 31.0593C58.5245 31.1313 58.5287 31.2062 58.5381 31.283C58.5499 31.3596 58.5689 31.4379 58.5916 31.5175C58.7081 31.4544 58.8083 31.3785 58.8898 31.2912C58.9296 31.2477 58.9689 31.2008 59.0021 31.1511C59.0355 31.1013 59.0639 31.0487 59.0877 30.993C59.1407 30.881 59.1676 30.7617 59.1863 30.6332C59.1903 30.6011 59.193 30.5684 59.1944 30.5352C59.1968 30.502 59.199 30.4682 59.1993 30.4338C59.2 30.3994 59.1985 30.3644 59.1976 30.3288C59.1972 30.2932 59.1955 30.257 59.1927 30.2202C59.129 30.2364 59.0685 30.2576 59.0115 30.2838C58.9831 30.297 58.9555 30.3114 58.9287 30.3272C58.9023 30.343 58.8775 30.3601 58.8535 30.3785C58.8054 30.4153 58.7612 30.4575 58.7213 30.5052C58.6813 30.5529 58.6495 30.606 58.6204 30.6644H58.6203Z" fill="#1179EF"/>
<path d="M58.5569 31.8932C58.7311 32.1021 58.8516 32.3657 58.9459 32.684C58.8123 32.6858 58.6839 32.6633 58.5621 32.6139C58.5016 32.589 58.4452 32.5567 58.3899 32.5178C58.3623 32.4984 58.3353 32.4771 58.3089 32.4542C58.2823 32.4312 58.2563 32.4066 58.2329 32.3796C58.185 32.3259 58.1408 32.2663 58.1006 32.2016C58.0611 32.1366 58.0292 32.0654 57.9995 31.9902C57.9686 31.9152 57.9493 31.8342 57.9312 31.7501C57.9268 31.7291 57.9227 31.7078 57.9188 31.6863C57.9149 31.6649 57.9115 31.6431 57.9094 31.6209C57.9046 31.5768 57.901 31.5319 57.8984 31.4863C57.9644 31.5018 58.0276 31.5222 58.0878 31.5472C58.1481 31.5721 58.204 31.6019 58.2603 31.6356C58.3157 31.6694 58.3681 31.7078 58.417 31.7508C58.4415 31.7723 58.4648 31.795 58.4877 31.8188C58.5116 31.8424 58.5347 31.8671 58.5569 31.8932Z" fill="#1179EF"/>
<path d="M58.782 31.8442C58.7747 31.8755 58.769 31.9075 58.7648 31.9403C58.761 31.9729 58.757 32.0067 58.758 32.0401C58.7585 32.1074 58.7651 32.1771 58.7775 32.2486C58.7917 32.3196 58.8139 32.3916 58.8404 32.465C58.853 32.5019 58.8706 32.5378 58.888 32.5745C58.9057 32.6109 58.9248 32.6475 58.9451 32.6842C59.0448 32.6001 59.1255 32.5067 59.1854 32.4058C59.2157 32.3552 59.2433 32.3018 59.2643 32.247C59.2749 32.2195 59.2842 32.1916 59.2921 32.1632C59.2999 32.1347 59.3064 32.1058 59.3132 32.0759C59.326 32.0163 59.3329 31.956 59.3341 31.8947C59.3361 31.8332 59.3362 31.7699 59.3287 31.706C59.32 31.6422 59.3132 31.5759 59.2979 31.5088C59.2942 31.492 59.2902 31.4751 59.2859 31.4581C59.2814 31.4411 59.2768 31.424 59.273 31.4066C59.2648 31.3719 59.2553 31.3368 59.2444 31.3013C59.1856 31.3293 59.1311 31.3614 59.0811 31.3978C59.0313 31.4343 58.9848 31.4754 58.9468 31.5203C58.9081 31.5654 58.8744 31.615 58.8463 31.6691C58.8322 31.6962 58.8193 31.7244 58.808 31.7538C58.7979 31.7829 58.7891 31.813 58.782 31.8443V31.8442Z" fill="#1179EF"/>
<path d="M58.9952 33.0582C59.2125 33.229 59.3897 33.4635 59.5529 33.7569C59.4227 33.7842 59.292 33.7869 59.1619 33.7619C59.097 33.7494 59.0348 33.7285 58.9719 33.7011C58.9406 33.6873 58.9094 33.6718 58.8784 33.6545C58.8629 33.6458 58.8475 33.6366 58.832 33.6271C58.8168 33.6174 58.8023 33.6069 58.7875 33.5961C58.7285 33.5528 58.672 33.5032 58.618 33.4475C58.5654 33.3914 58.5177 33.3281 58.4717 33.2603C58.4603 33.2433 58.449 33.226 58.438 33.2083C58.4278 33.1904 58.4176 33.1722 58.4078 33.1536C58.388 33.1164 58.3691 33.0781 58.3509 33.0386C58.3132 32.9603 58.286 32.8748 58.2598 32.7867C58.3964 32.7917 58.5249 32.8179 58.6472 32.8632C58.7092 32.8856 58.769 32.913 58.8267 32.9457C58.8554 32.962 58.8837 32.9796 58.9113 32.9986C58.9392 33.0174 58.9679 33.0369 58.9953 33.0582H58.9952Z" fill="#1179EF"/>
<path d="M59.2071 32.9674C59.2031 33.2244 59.326 33.5041 59.5549 33.7578C59.6337 33.6565 59.6917 33.5495 59.7278 33.4392C59.746 33.384 59.7611 33.3264 59.7693 33.2688C59.7735 33.2399 59.7763 33.2107 59.7777 33.1813C59.7784 33.1667 59.7787 33.152 59.7786 33.1371C59.7786 33.1223 59.7791 33.107 59.7788 33.0919C59.7779 33.0312 59.7711 32.9707 59.7585 32.9106C59.7472 32.8497 59.7324 32.7881 59.7107 32.727C59.6995 32.6962 59.6881 32.6653 59.6767 32.634C59.6646 32.6028 59.6512 32.5714 59.6364 32.54C59.6052 32.4776 59.5755 32.4124 59.5376 32.3474C59.4356 32.4245 59.3525 32.5152 59.2954 32.6189C59.2678 32.6705 59.2462 32.7255 59.2308 32.7837C59.2232 32.8129 59.2171 32.8429 59.2126 32.8737C59.2083 32.9045 59.2073 32.9354 59.207 32.9674H59.2071Z" fill="#1179EF"/>
<path d="M59.6862 34.1145C59.7178 34.1299 59.7489 34.1466 59.7794 34.1646C59.81 34.1824 59.839 34.2023 59.8699 34.2216C59.9308 34.2608 59.9895 34.3051 60.0462 34.3544C60.105 34.402 60.1624 34.4542 60.218 34.5115C60.2746 34.5678 60.3321 34.6269 60.3871 34.6922C60.2657 34.7436 60.1386 34.7709 60.0059 34.7712C59.9893 34.7712 59.9727 34.7708 59.956 34.77C59.9395 34.7688 59.923 34.7673 59.9065 34.7653C59.8733 34.7614 59.84 34.7556 59.8063 34.7481C59.7394 34.7327 59.6698 34.7115 59.6025 34.6805C59.3307 34.5591 59.0838 34.3169 58.9062 33.99C59.0411 33.9686 59.1723 33.9697 59.3023 33.9905C59.3679 34.0005 59.4326 34.0159 59.4962 34.0368C59.5279 34.0473 59.5595 34.0591 59.5906 34.0724C59.6226 34.0852 59.6546 34.0991 59.6863 34.1146L59.6862 34.1145Z" fill="#1179EF"/>
<path d="M59.8719 33.9848C59.8789 34.0161 59.8878 34.0475 59.8983 34.079C59.909 34.1103 59.9203 34.1425 59.9358 34.1728C59.9656 34.2342 60.0021 34.2956 60.0446 34.3563C60.0891 34.4154 60.1402 34.4735 60.1965 34.5306C60.2539 34.5868 60.3191 34.6397 60.3878 34.692C60.4425 34.5777 60.4757 34.462 60.4866 34.347C60.488 34.3327 60.489 34.3183 60.4895 34.304C60.4905 34.2893 60.4911 34.2747 60.4914 34.26C60.492 34.2308 60.4912 34.2016 60.4891 34.1724C60.485 34.1138 60.4735 34.0566 60.4589 33.9975C60.3981 33.7623 60.2593 33.542 60.0564 33.3146C59.9739 33.4096 59.9126 33.5144 59.8804 33.6267C59.8649 33.6824 59.8559 33.7404 59.854 33.8005C59.853 33.8305 59.8537 33.861 59.8561 33.8921C59.8594 33.9226 59.8648 33.9534 59.8718 33.9848H59.8719Z" fill="#1179EF"/>
<path d="M60.5976 35.0158C60.8715 35.0902 61.1342 35.2407 61.4114 35.4481C61.3042 35.5215 61.1859 35.5723 61.0561 35.5975C60.9908 35.6109 60.9246 35.6151 60.8554 35.6131C60.7865 35.6109 60.7143 35.6025 60.6407 35.586C60.3486 35.518 60.0526 35.3287 59.8066 35.0425C59.8701 35.0194 59.9342 35.0016 59.9987 34.9892C60.0633 34.9768 60.1276 34.9705 60.1945 34.9673C60.2608 34.9648 60.3275 34.9676 60.3942 34.976C60.4277 34.9801 60.4606 34.9863 60.4947 34.9926C60.5289 34.9989 60.5632 35.0066 60.5975 35.0158H60.5976Z" fill="#1179EF"/>
<path d="M60.7477 34.8544C60.7615 34.8838 60.7771 34.9128 60.7943 34.9417C60.8029 34.9562 60.8119 34.9705 60.8214 34.9849C60.831 34.999 60.8415 35.0125 60.8521 35.0262C60.8949 35.0806 60.9437 35.1343 60.9992 35.1852C61.056 35.2344 61.1186 35.2819 61.1862 35.3272C61.2555 35.3704 61.3304 35.4106 61.4093 35.4488C61.4375 35.3265 61.4444 35.2067 61.4297 35.092C61.4218 35.0352 61.4105 34.9772 61.3933 34.9209C61.3761 34.8644 61.3529 34.8099 61.3249 34.7556C61.2139 34.5362 61.0286 34.3477 60.7797 34.1634C60.7496 34.2179 60.7257 34.2735 60.7082 34.3301C60.6909 34.3867 60.6792 34.4451 60.6767 34.5022C60.6737 34.5598 60.6778 34.6183 60.6891 34.6776C60.6948 34.7071 60.7018 34.7374 60.7118 34.7666C60.7218 34.7958 60.7338 34.8251 60.7476 34.8544H60.7477Z" fill="#1179EF"/>
<path d="M61.6844 35.7253C61.9691 35.7455 62.2593 35.8434 62.577 35.9929C62.4885 36.0851 62.3842 36.1575 62.2629 36.207C62.2326 36.2191 62.2009 36.2308 62.169 36.2393C62.1369 36.2479 62.104 36.2551 62.0698 36.2607C62.0018 36.2718 61.9295 36.2769 61.8535 36.2753C61.5526 36.264 61.2203 36.1356 60.916 35.902C60.973 35.8673 61.0317 35.8379 61.0921 35.8135C61.1223 35.8013 61.1528 35.7906 61.1838 35.781C61.215 35.7711 61.2469 35.7621 61.2791 35.7546C61.4081 35.7239 61.5409 35.7172 61.6843 35.7253H61.6844Z" fill="#1179EF"/>
<path d="M61.796 35.5382C61.955 35.748 62.2295 35.9117 62.5757 35.9934C62.5759 35.8683 62.556 35.7498 62.5161 35.6403C62.5062 35.6127 62.4947 35.5866 62.4825 35.5595C62.4704 35.5324 62.457 35.5058 62.4423 35.48C62.4129 35.428 62.3784 35.3786 62.3386 35.3315C62.1816 35.1375 61.9584 34.9891 61.6741 34.8559C61.6568 34.915 61.6456 34.974 61.6411 35.0329C61.6388 35.0623 61.6381 35.0917 61.6392 35.121C61.6405 35.1499 61.6438 35.1784 61.6486 35.2069C61.6686 35.3204 61.7149 35.4352 61.7961 35.5381L61.796 35.5382Z" fill="#1179EF"/>
<path d="M63.3354 36.2404C62.2078 35.9957 61.1742 35.4684 60.3465 34.7156C59.5088 33.9543 58.9176 33.0061 58.6368 31.9734C58.5673 31.7291 58.5161 31.4711 58.4804 31.1851C58.4652 31.0771 58.4573 30.9667 58.4497 30.86C58.448 30.8353 58.4463 30.8107 58.4444 30.7861V30.7842L58.4375 30.5353L58.4396 30.3841C58.4515 29.845 58.5421 29.3126 58.7088 28.8014C58.8757 28.2881 59.1186 27.7976 59.4305 27.3436C59.7415 26.8905 60.1181 26.4781 60.5499 26.118L60.6141 26.1839C60.1888 26.5386 59.8178 26.9448 59.5114 27.3912C59.2042 27.8384 58.9651 28.3214 58.8006 28.827C58.6365 29.3305 58.5473 29.855 58.5356 30.3856L58.5335 30.5345L58.5402 30.7809C58.542 30.8053 58.5438 30.8298 58.5455 30.8541C58.553 30.9594 58.5606 31.0684 58.5756 31.1742C58.6108 31.4567 58.6612 31.7107 58.7297 31.9513C59.0063 32.9687 59.5885 33.9024 60.4137 34.6522C61.2288 35.3936 62.2468 35.9129 63.3573 36.1539L63.3354 36.2404Z" fill="#1179EF"/>
<path d="M68.5433 25.5595C68.8015 25.7263 68.9793 25.9747 69.0577 26.2594C68.7441 26.2099 68.4737 26.119 68.2373 25.966C68.0007 25.8133 67.815 25.61 67.6562 25.3546C67.9718 25.3241 68.2852 25.3925 68.5433 25.5594V25.5595Z" fill="#1179EF"/>
<path d="M69.0838 26.3863C69.347 26.4655 69.5953 26.6611 69.7832 26.9422C69.6544 26.9793 69.5265 26.9965 69.402 26.9933C69.3387 26.9925 69.276 26.9866 69.2144 26.9756C69.1833 26.9702 69.1534 26.9628 69.1221 26.9553C69.091 26.9476 69.0601 26.9387 69.0295 26.9284C68.7841 26.8455 68.5643 26.692 68.3438 26.4788C68.4551 26.414 68.5741 26.3702 68.6985 26.3532C68.8217 26.3375 68.9528 26.3457 69.0838 26.3864V26.3863Z" fill="#1179EF"/>
<path d="M69.2452 26.2313C69.3498 26.4775 69.5348 26.7066 69.7843 26.9425C69.8534 26.8367 69.8975 26.7228 69.9131 26.6007C69.9197 26.5405 69.9192 26.4784 69.9112 26.4144C69.907 26.3825 69.9017 26.3496 69.893 26.3175C69.8844 26.2853 69.874 26.2526 69.8615 26.2196C69.7625 25.9559 69.5317 25.7004 69.2017 25.4992C69.1632 25.6209 69.1487 25.7423 69.1562 25.8641C69.1627 25.987 69.1938 26.1076 69.2451 26.2314L69.2452 26.2313Z" fill="#1179EF"/>
<path d="M69.917 27.2923C70.1567 27.4201 70.3571 27.6585 70.4777 27.9697C70.344 27.9811 70.2142 27.9739 70.0931 27.9471C70.0326 27.9336 69.9713 27.9166 69.9136 27.8939C69.8845 27.8827 69.8561 27.8702 69.828 27.8564C69.7998 27.8427 69.7709 27.8285 69.7434 27.8125C69.5219 27.6847 69.3408 27.4928 69.1719 27.2426C69.2338 27.2212 69.2961 27.2056 69.3589 27.1961C69.4218 27.1865 69.4849 27.1831 69.5469 27.1871C69.6092 27.1909 69.6717 27.2012 69.7342 27.2182C69.796 27.2357 69.8563 27.2608 69.917 27.2924V27.2923Z" fill="#1179EF"/>
<path d="M70.1072 27.1707C70.1547 27.4317 70.2856 27.6907 70.4766 27.9695C70.5684 27.879 70.636 27.7763 70.6783 27.6598C70.6997 27.6014 70.7117 27.5412 70.7182 27.477C70.7212 27.4449 70.7225 27.4122 70.722 27.3785C70.7214 27.345 70.7178 27.3114 70.713 27.2767C70.6747 26.9996 70.5052 26.7055 70.2266 26.4461C70.1946 26.5019 70.1681 26.5588 70.1474 26.6168C70.1268 26.6747 70.1118 26.7336 70.1012 26.7945C70.091 26.8552 70.0865 26.9166 70.0882 26.9788C70.0892 27.0415 70.0947 27.1059 70.1072 27.1707Z" fill="#1179EF"/>
<path d="M70.5268 28.338C70.7325 28.5089 70.8757 28.7805 70.9233 29.1083C70.7904 29.0937 70.6646 29.0617 70.5521 29.0123C70.4965 28.9873 70.4401 28.959 70.3885 28.9258C70.3365 28.8927 70.2887 28.8548 70.2404 28.8135C70.0526 28.646 69.9184 28.4239 69.8086 28.1471C69.9391 28.1291 70.0682 28.1328 70.1878 28.1643C70.2479 28.1799 70.3073 28.2016 70.3644 28.2304C70.4202 28.2596 70.4745 28.2955 70.5267 28.338H70.5268Z" fill="#1179EF"/>
<path d="M70.7435 28.2558C70.7315 28.5204 70.802 28.7988 70.9257 29.1082C71.0363 29.0373 71.125 28.95 71.1925 28.8441C71.2268 28.791 71.2519 28.7343 71.2724 28.6729C71.2924 28.6115 71.3075 28.5453 71.3122 28.4759C71.3369 28.1972 71.2367 27.8766 71.0213 27.5695C70.9336 27.6664 70.8687 27.7716 70.8211 27.8866C70.7976 27.9439 70.7802 28.003 70.7675 28.0643C70.7538 28.1262 70.7456 28.1899 70.7434 28.2556L70.7435 28.2558Z" fill="#1179EF"/>
<path d="M70.892 29.478C71.0551 29.6848 71.1332 29.978 71.1077 30.3077C70.9798 30.2681 70.8651 30.2127 70.7661 30.1427C70.7161 30.1076 70.668 30.069 70.6251 30.0266C70.6035 30.0053 70.5829 29.9832 70.5634 29.9601C70.5437 29.937 70.5236 29.9131 70.5053 29.8881C70.3589 29.688 70.2777 29.4448 70.2324 29.1531C70.3644 29.1605 70.4894 29.189 70.5994 29.2428C70.6548 29.2696 70.7081 29.3023 70.7573 29.3414C70.8054 29.3807 70.8504 29.4262 70.892 29.4779V29.478Z" fill="#1179EF"/>
<path d="M71.1192 29.4392C71.0482 29.6957 71.0537 29.9816 71.1067 30.3081C71.2296 30.2598 71.3372 30.1914 71.4269 30.1008C71.4713 30.0556 71.5092 30.0049 71.5431 29.9487C71.56 29.9206 71.5756 29.8911 71.5899 29.8603C71.6041 29.8294 71.6154 29.7974 71.6262 29.7638C71.7128 29.4962 71.687 29.1634 71.545 28.8215C71.4377 28.8993 71.3503 28.9899 71.278 29.0932C71.2421 29.1448 71.212 29.1992 71.1857 29.2568C71.1583 29.3146 71.1361 29.3754 71.1192 29.4393V29.4392Z" fill="#1179EF"/>
<path d="M70.9933 30.6643C71.0528 30.7814 71.0803 30.9146 71.0881 31.0592C71.0892 31.1313 71.0849 31.2061 71.0755 31.2829C71.0637 31.3595 71.0449 31.4378 71.0221 31.5174C70.9055 31.4543 70.8054 31.3785 70.7238 31.2911C70.684 31.2476 70.6447 31.2007 70.6115 31.151C70.5781 31.1012 70.5497 31.0486 70.5259 30.9929C70.4729 30.8809 70.446 30.7617 70.4273 30.6331C70.4233 30.601 70.4206 30.5683 70.4192 30.5351C70.4168 30.5019 70.4146 30.4681 70.4142 30.4337C70.4135 30.3993 70.415 30.3643 70.4159 30.3287C70.4163 30.2931 70.418 30.2569 70.4208 30.2201C70.4845 30.2363 70.545 30.2575 70.602 30.2837C70.6305 30.2969 70.658 30.3113 70.6848 30.3271C70.7112 30.3429 70.736 30.36 70.7602 30.3784C70.8082 30.4152 70.8524 30.4574 70.8924 30.5051C70.9323 30.5528 70.9641 30.6059 70.9932 30.6643H70.9933Z" fill="#1179EF"/>
<path d="M71.2266 30.669C71.1662 30.7877 71.1161 30.9173 71.0863 31.0585C71.0684 31.129 71.0554 31.2024 71.0467 31.279C71.0356 31.3552 71.0269 31.4344 71.0234 31.517C71.1543 31.4931 71.2746 31.4464 71.3823 31.3746C71.437 31.3388 71.4846 31.2964 71.5297 31.2477C71.5746 31.199 71.616 31.1439 71.653 31.0825C71.7211 30.9593 71.7736 30.8159 71.7934 30.6575C71.7991 30.618 71.8035 30.5775 71.8066 30.5363C71.8086 30.495 71.8085 30.453 71.8077 30.4102C71.8065 30.3674 71.8049 30.324 71.8004 30.28C71.7953 30.236 71.789 30.1913 71.7815 30.1462C71.7203 30.174 71.6629 30.2058 71.6095 30.2416C71.5828 30.2595 71.5571 30.2784 71.5324 30.2982C71.5074 30.318 71.4828 30.3389 71.4596 30.3607C71.4131 30.4043 71.3707 30.4518 71.3326 30.5031C71.2947 30.5545 71.2573 30.6098 71.2264 30.6691L71.2266 30.669Z" fill="#1179EF"/>
<path d="M70.8327 31.8437C70.8399 31.875 70.8456 31.907 70.8498 31.9397C70.8536 31.9723 70.8577 32.0061 70.8567 32.0396C70.8562 32.1069 70.8495 32.1766 70.8371 32.2481C70.823 32.319 70.8007 32.3911 70.7743 32.4644C70.7617 32.5014 70.7442 32.5373 70.7268 32.5738C70.709 32.6103 70.6899 32.6469 70.6696 32.6836C70.57 32.5995 70.4892 32.5061 70.4293 32.4051C70.399 32.3545 70.3714 32.3012 70.3504 32.2464C70.3397 32.2189 70.3305 32.1909 70.3225 32.1625C70.3147 32.1341 70.3083 32.1052 70.3014 32.0753C70.2887 32.0157 70.2817 31.9553 70.2805 31.894C70.2784 31.8325 70.2784 31.7693 70.286 31.7053C70.2946 31.6416 70.3014 31.5753 70.3167 31.5081C70.3204 31.4913 70.3244 31.4744 70.3288 31.4574C70.3333 31.4404 70.3378 31.4233 70.3416 31.406C70.3499 31.3713 70.3593 31.3362 70.3702 31.3007C70.429 31.3286 70.4836 31.3607 70.5335 31.3972C70.5833 31.4336 70.6298 31.4747 70.6678 31.5197C70.7065 31.5648 70.7402 31.6144 70.7684 31.6685C70.7825 31.6956 70.7953 31.7238 70.8066 31.7531C70.8167 31.7822 70.8255 31.8123 70.8327 31.8437Z" fill="#1179EF"/>
<path d="M71.0608 31.8931C70.8866 32.102 70.7661 32.3656 70.6719 32.6839C70.8055 32.6857 70.9338 32.6632 71.0556 32.6138C71.1161 32.589 71.1725 32.5567 71.2278 32.5177C71.2554 32.4983 71.2824 32.477 71.3089 32.4541C71.3354 32.4311 71.3613 32.4065 71.3848 32.3795C71.4327 32.3258 71.4769 32.2663 71.5171 32.2015C71.5565 32.1365 71.5885 32.0653 71.6182 31.9901C71.649 31.9151 71.6682 31.8341 71.6864 31.75C71.6908 31.729 71.6949 31.7077 71.6988 31.6862C71.7028 31.6648 71.7061 31.643 71.7082 31.6208C71.713 31.5767 71.7166 31.5318 71.7192 31.4862C71.6532 31.5018 71.59 31.5222 71.5299 31.5471C71.4695 31.572 71.4136 31.6018 71.3573 31.6355C71.3019 31.6693 71.2495 31.7077 71.2007 31.7507C71.1762 31.7722 71.1527 31.7949 71.1299 31.8187C71.106 31.8423 71.0829 31.8671 71.0608 31.8931Z" fill="#1179EF"/>
<path d="M70.4117 32.9673C70.4158 33.2242 70.2929 33.504 70.0639 33.7576C69.9852 33.6563 69.9271 33.5494 69.891 33.4391C69.8728 33.3838 69.8577 33.3262 69.8495 33.2686C69.8452 33.2397 69.8424 33.2105 69.8411 33.1812C69.8404 33.1665 69.8401 33.1518 69.8402 33.137C69.8401 33.1221 69.8397 33.1068 69.84 33.0917C69.8408 33.031 69.8477 32.9706 69.8603 32.9104C69.8716 32.8496 69.8863 32.7879 69.908 32.7269C69.9193 32.6961 69.9306 32.6652 69.9421 32.634C69.9541 32.6027 69.9676 32.5714 69.9824 32.5399C70.0136 32.4776 70.0432 32.4123 70.0812 32.3474C70.1832 32.4244 70.2663 32.5151 70.3233 32.6189C70.351 32.6704 70.3726 32.7253 70.388 32.7837C70.3956 32.8128 70.4017 32.8429 70.4062 32.8737C70.4105 32.9045 70.4114 32.9353 70.4117 32.9674V32.9673Z" fill="#1179EF"/>
<path d="M70.6202 33.0581C70.4028 33.2289 70.2257 33.4634 70.0625 33.7569C70.1927 33.7842 70.3233 33.7868 70.4535 33.7619C70.5184 33.7493 70.5806 33.7284 70.6435 33.7011C70.6749 33.6873 70.7061 33.6718 70.737 33.6544C70.7526 33.6457 70.768 33.6366 70.7834 33.627C70.7986 33.6173 70.8132 33.6068 70.828 33.596C70.8869 33.5528 70.9435 33.5031 70.9974 33.4475C71.0501 33.3913 71.0978 33.328 71.1438 33.2602C71.1551 33.2432 71.1665 33.2259 71.1774 33.2083C71.1877 33.1903 71.1978 33.1721 71.2077 33.1535C71.2274 33.1164 71.2464 33.078 71.2645 33.0386C71.3022 32.9603 71.3294 32.8747 71.3557 32.7867C71.219 32.7917 71.0905 32.8178 70.9684 32.8633C70.9063 32.8857 70.8465 32.913 70.7889 32.9457C70.7601 32.9621 70.7318 32.9796 70.7043 32.9986C70.6764 33.0175 70.6476 33.0369 70.6203 33.0582L70.6202 33.0581Z" fill="#1179EF"/>
<path d="M69.7449 33.9847C69.7378 34.016 69.7289 34.0474 69.7185 34.0789C69.7077 34.1102 69.6965 34.1424 69.6811 34.1727C69.6512 34.2341 69.6148 34.2955 69.5723 34.3562C69.5278 34.4153 69.4766 34.4734 69.4203 34.5305C69.3629 34.5867 69.2977 34.6396 69.229 34.6919C69.1744 34.5777 69.1411 34.4619 69.1302 34.3469C69.1288 34.3326 69.1278 34.3182 69.1272 34.3039C69.1262 34.2892 69.1256 34.2746 69.1252 34.26C69.1246 34.2307 69.1254 34.2015 69.1276 34.1723C69.1317 34.1137 69.1431 34.0566 69.1577 33.9974C69.2186 33.7623 69.3572 33.5419 69.5601 33.3145C69.6426 33.4095 69.7039 33.5144 69.7362 33.6266C69.7517 33.6824 69.7607 33.7403 69.7627 33.8004C69.7637 33.8304 69.763 33.8609 69.7605 33.892C69.7573 33.9225 69.7518 33.9533 69.7449 33.9847Z" fill="#1179EF"/>
<path d="M69.9294 34.1134C69.8978 34.1288 69.8667 34.1455 69.8362 34.1635C69.8056 34.1813 69.7766 34.2012 69.7457 34.2205C69.6848 34.2597 69.6261 34.304 69.5694 34.3533C69.5106 34.4009 69.4532 34.4531 69.3976 34.5104C69.341 34.5667 69.2835 34.6258 69.2285 34.6911C69.3499 34.7425 69.477 34.7698 69.6097 34.77C69.6263 34.77 69.6429 34.7696 69.6596 34.7688C69.6761 34.7677 69.6926 34.7661 69.7091 34.7642C69.7423 34.7602 69.7756 34.7544 69.8093 34.7469C69.8762 34.7315 69.9458 34.7103 70.0131 34.6793C70.2849 34.5579 70.5318 34.3158 70.7094 33.9888C70.5745 33.9675 70.4433 33.9685 70.3133 33.9893C70.2477 33.9993 70.183 34.0147 70.1194 34.0356C70.0877 34.0461 70.0561 34.0579 70.025 34.0712C69.993 34.084 69.961 34.0979 69.9293 34.1134H69.9294Z" fill="#1179EF"/>
<path d="M68.871 34.8543C68.8571 34.8837 68.8416 34.9128 68.8245 34.9417C68.8159 34.9561 68.8069 34.9705 68.7974 34.9848C68.7878 34.9989 68.7773 35.0124 68.7668 35.0261C68.724 35.0805 68.6752 35.1342 68.6197 35.1851C68.5629 35.2343 68.5003 35.2819 68.4327 35.3272C68.3634 35.3703 68.2884 35.4107 68.2096 35.4487C68.1814 35.3264 68.1745 35.2067 68.1891 35.0919C68.197 35.0352 68.2082 34.9771 68.2254 34.9208C68.2425 34.8643 68.2657 34.8098 68.2938 34.7555C68.4048 34.5362 68.59 34.3476 68.8389 34.1633C68.869 34.2179 68.8929 34.2734 68.9104 34.3301C68.9277 34.3867 68.9394 34.445 68.9419 34.5022C68.9448 34.5598 68.9408 34.6182 68.9295 34.6775C68.9237 34.707 68.9168 34.7373 68.9068 34.7666C68.8968 34.7958 68.8848 34.825 68.8711 34.8543H68.871Z" fill="#1179EF"/>
<path d="M69.0208 35.0156C68.747 35.09 68.4844 35.2406 68.207 35.448C68.3142 35.5214 68.4325 35.5722 68.5623 35.5974C68.6276 35.6107 68.6938 35.6149 68.763 35.613C68.832 35.6108 68.9041 35.6024 68.9777 35.5859C69.2699 35.5179 69.5658 35.3285 69.8118 35.0423C69.7484 35.0191 69.6843 35.0014 69.6198 34.9891C69.5552 34.9766 69.4909 34.9703 69.424 34.9673C69.3577 34.9647 69.291 34.9676 69.2243 34.976C69.1907 34.98 69.1579 34.9863 69.1237 34.9926C69.0895 34.9988 69.0553 35.0066 69.0209 35.0157L69.0208 35.0156Z" fill="#1179EF"/>
<path d="M67.8167 35.5376C67.6577 35.7473 67.3833 35.9111 67.0371 35.9928C67.0369 35.8677 67.0568 35.7491 67.0967 35.6397C67.1066 35.6121 67.1181 35.5859 67.1303 35.5588C67.1424 35.5317 67.1558 35.5053 67.1705 35.4793C67.1999 35.4274 67.2344 35.378 67.2742 35.3309C67.4312 35.1369 67.6544 34.9884 67.9387 34.8553C67.956 34.9144 67.9672 34.9734 67.9717 35.0322C67.974 35.0617 67.9747 35.0911 67.9736 35.1203C67.9723 35.1493 67.9691 35.1778 67.9642 35.2063C67.9442 35.3197 67.8979 35.4346 67.8167 35.5375V35.5376Z" fill="#1179EF"/>
<path d="M67.9297 35.7252C67.645 35.7455 67.3549 35.8433 67.0371 35.9928C67.1256 36.0851 67.2299 36.1574 67.3513 36.2069C67.3815 36.2191 67.4132 36.2307 67.4451 36.2393C67.4772 36.2479 67.5102 36.2551 67.5443 36.2606C67.6124 36.2718 67.6847 36.2769 67.7606 36.2752C68.0615 36.2637 68.3938 36.1353 68.698 35.9018C68.6411 35.8671 68.5824 35.8376 68.5219 35.8134C68.4918 35.8012 68.4611 35.7904 68.4302 35.7809C68.399 35.771 68.3671 35.762 68.335 35.7545C68.206 35.7238 68.0732 35.7171 67.9297 35.7252Z" fill="#1179EF"/>
<path d="M66.2882 36.2672L66.2656 36.1809C67.3781 35.9311 68.3947 35.4033 69.2055 34.6546C70.024 33.8994 70.598 32.9629 70.8656 31.9461C70.9319 31.7055 70.9801 31.4522 71.0128 31.1712C71.0269 31.0653 71.0337 30.957 71.0402 30.8521C71.0417 30.8277 71.0433 30.8032 71.0449 30.7789L71.0497 30.5321L71.0464 30.3852C71.0304 29.8581 70.9375 29.3377 70.7704 28.8389C70.6032 28.3386 70.3622 27.8613 70.0542 27.4203C69.7473 26.9806 69.377 26.5813 68.9534 26.2334L69.0171 26.167C69.4471 26.5203 69.8231 26.9257 70.1347 27.3721C70.4476 27.82 70.6923 28.3046 70.8621 28.8126C71.0318 29.3192 71.126 29.8476 71.1423 30.3831L71.1456 30.5322L71.1408 30.7835C71.1392 30.8081 71.1376 30.8328 71.1361 30.8574C71.1294 30.9636 71.1225 31.0734 71.1082 31.1815C71.0751 31.466 71.0262 31.7235 70.9588 31.9677C70.6871 32.9997 70.1043 33.9508 69.2734 34.7175C68.4501 35.4777 67.418 36.0136 66.2884 36.2672H66.2882Z" fill="#1179EF"/>
</g>
<defs>
<clipPath id="clip0_4580_3099">
<rect width="14" height="14" fill="white" transform="translate(57 65)"/>
</clipPath>
<clipPath id="clip1_4580_3099">
<rect width="14" height="14" fill="white" transform="translate(58 24)"/>
</clipPath>
</defs>
</svg>
