<?xml version="1.0" encoding="UTF-8"?>
<svg width="90px" height="274px" viewBox="0 0 90 274" version="1.1" xmlns="http://www.w3.org/2000/svg" xmlns:xlink="http://www.w3.org/1999/xlink">
    <!-- Generator: Sketch 59.1 (86144) - https://sketch.com -->
    <title>Sprite Image - Purdue Masters 0.1</title>
    <desc>Created with Sketch.</desc>
    <g id="Sprite-Image---Purdue-Masters-0.1" stroke="none" stroke-width="1" fill="none" fill-rule="evenodd">
        <g id="Group-95" transform="translate(20.000000, 20.000000)">
            <polygon id="Mask" fill-opacity="0" fill="#FFFFFF" points="-2.84772206e-14 0 27 0 27 24 -2.84772206e-14 24"></polygon>
            <polygon id="Path-56-Copy-6" fill="#1179EF" points="10 6 10 18 17 12"></polygon>
        </g>
        <g id="Group-85-Copy" transform="translate(20.000000, 64.000000)">
            <circle id="Oval" fill="#FFFFFF" opacity="0" cx="25" cy="25" r="25"></circle>
            <g id="Shape-2" transform="translate(6.666667, 10.000000)" fill="#1179EF" fill-rule="nonzero" stroke="#1179EF" stroke-width="0.5">
                <path d="M10.8217939,5.83472416 L17.8326154,2.98496584 C17.9432775,2.92963476 18.0472833,2.92963476 18.1446327,2.98496584 C18.2552949,3.02656815 18.3314271,3.10270038 18.3730294,3.21377855 C18.4703788,3.44924763 18.3942466,3.62980166 18.1446327,3.75460859 L11.1338112,6.60436692 L10.968234,6.62516807 C10.78768,6.62516807 10.6628731,6.54196345 10.5938132,6.37555421 C10.5522109,6.26447603 10.5522109,6.15381389 10.5938132,6.04273571 C10.6349995,5.94580233 10.7111317,5.87674249 10.8217939,5.83472416 Z M4.70667015,7.91483972 C4.70667015,7.38773844 4.98374154,6.87478194 5.53871638,6.37555421 L5.64272215,6.31315074 L18.9342446,0.405622535 C20.0995253,-0.135207512 21.3338659,-0.135207512 22.6368503,0.405622535 L36.0535957,6.31315074 L36.1576015,6.37555421 C36.7263051,6.87478194 37.0171052,7.39481083 37.03125,7.93564088 C37.03125,8.44859738 36.7679074,8.94824114 36.2416381,9.43332409 L36.1376324,9.49572755 L33.4334821,10.8270015 L33.3498615,14.8624257 L33.7242823,14.8624257 C33.8357765,14.8624257 33.9248054,14.8969556 33.9946973,14.9664315 C34.0774859,15.0496361 34.1190882,15.1465695 34.1190882,15.2576477 L34.4523227,21.2483805 C34.4797802,21.3594587 34.4448343,21.4634644 34.3483169,21.5603978 C34.2655283,21.6436024 34.1615226,21.6852048 34.0362996,21.6852048 L31.5401609,21.6852048 C31.4286667,21.6852048 31.3321494,21.6436024 31.2493608,21.5603978 C31.1520114,21.4634644 31.1170654,21.3594587 31.145355,21.2483805 L31.5817632,15.2576477 C31.5817632,15.1465695 31.6233656,15.0496361 31.7069862,14.9664315 C31.776046,14.8969556 31.8663231,14.8624257 31.9774012,14.8624257 L32.5178152,14.8624257 L32.6014359,11.2430246 L29.6268706,12.6991055 L29.3352384,16.0896939 L29.3352384,16.1520974 C29.1272269,16.9566861 28.7112038,17.4904437 28.0871691,17.7537863 L20.849199,21.3315851 C20.7377048,21.401061 20.6199702,21.401061 20.4947473,21.3315851 L13.4435715,17.8577921 C12.8332656,17.5803047 12.4247309,17.0465471 12.2167194,16.2561031 L12.2167194,16.1936997 L11.8834849,12.5742986 L5.621921,9.51652871 L5.51791522,9.45412524 C4.97708517,8.98277105 4.70667015,8.46981456 4.70667015,7.91483972 Z M5.53871638,7.91483972 C5.53871638,8.2060559 5.70512562,8.49727208 6.03752809,8.78848826 L19.6418999,15.4240569 C20.5292772,15.7984777 21.4724016,15.7639478 22.470441,15.3200511 L35.7216092,8.7676871 C36.0402829,8.47647093 36.1992038,8.19898351 36.1992038,7.93564088 C36.1717462,7.65815346 35.9911922,7.36028091 35.6587898,7.04119119 L22.3044478,1.15446414 C21.2506613,0.724712263 20.2447174,0.724712263 19.2882803,1.15446414 L6.05832924,7.04119119 C5.71178199,7.34655215 5.53871638,7.63776833 5.53871638,7.91483972 Z M0.816854045,20.52034 C0.872185119,21.0332965 0.954973719,21.456392 1.06646791,21.7892105 C1.2191484,22.1915049 1.35726807,22.5101786 1.48249103,22.7460637 C4.40838158,23.1620868 7.44576633,23.7307904 10.5933972,24.4517585 C10.5380661,24.0773377 10.5168489,23.723718 10.5309937,23.3908995 C10.5309937,22.8500695 10.6699455,22.2676371 10.9470168,21.6436024 C11.1550284,21.185977 11.4945033,20.7004781 11.9658574,20.1875216 C8.9571783,19.2859995 6.05125685,18.2600865 3.25058926,17.1089505 C2.25213378,17.5112449 1.60022557,18.0587313 1.29569665,18.7522418 C0.976190897,19.5014994 0.816854045,20.0905882 0.816854045,20.52034 Z M3.1253663,16.2561031 C3.23686049,16.2286456 3.33337786,16.235302 3.4169985,16.2769043 C6.4535512,17.5387024 9.60201412,18.6411636 12.8603071,19.584288 C17.5617843,20.9434355 22.6301939,22.0180233 28.0663679,22.8084672 C28.1907589,22.8084672 28.3159818,22.8292683 28.4407887,22.8708706 C28.967474,22.9819488 29.4246834,23.3143513 29.813249,23.8693261 C30.299164,24.5628366 30.5412894,25.3324794 30.5412894,26.1782544 L30.5412894,26.2822602 L30.478886,26.5110729 C30.4514284,26.622151 30.388609,26.7049396 30.2920916,26.7606867 C30.1955742,26.8301626 30.0978088,26.8509638 30.0012914,26.8230902 L28.6492163,26.5734763 C28.6766738,26.6982833 28.6908186,26.8925661 28.6908186,27.1559087 C28.6908186,27.7246123 28.516921,28.2654423 28.1707897,28.7783988 C27.851284,29.3192289 27.366201,29.6728485 26.7147088,29.8392578 C26.5894859,29.8808601 26.465095,29.9016612 26.340288,29.9016612 C26.2154811,29.9016612 26.0906742,29.8808601 25.9658672,29.8392578 L25.9034638,29.8184566 C21.5352211,28.2375688 17.0912622,26.8925661 12.570339,25.7830324 L11.0518547,25.4086116 C7.86262149,24.65977 4.56189411,24.0357353 1.15008856,23.5365076 C1.01196889,23.5227788 0.907963107,23.4466466 0.838071224,23.3076949 C0.630059667,22.9332741 0.44326529,22.517251 0.276440021,22.0596256 C0.123759539,21.5603978 0.0343145698,21.0611701 0.00602499808,20.5619424 C-0.0355773132,20.0348411 0.138320348,19.3209454 0.526053889,18.4194233 C0.927516193,17.4767149 1.79450836,16.7553309 3.1253663,16.2561031 Z M12.8603071,20.4579366 C12.3198931,20.9987666 11.9379839,21.5050668 11.7162436,21.9764209 C11.4807745,22.4619199 11.3626239,22.9332741 11.3626239,23.3908995 C11.3488952,23.7790491 11.3900815,24.2021446 11.4878469,24.65977 L12.0906644,24.8053781 L12.0906644,24.6805712 C12.0769356,24.569493 12.1043931,24.4725596 12.173453,24.389355 C12.2433449,24.3061504 12.3336219,24.2508193 12.443868,24.2229457 C12.5553622,24.208801 12.659368,24.2437469 12.7558853,24.3269515 C12.839506,24.3964274 12.8873486,24.4862884 12.9014934,24.5973666 L12.9851141,25.0133897 C17.0063935,26.0118451 21.0210165,27.2112398 25.0285672,28.6119896 C24.8904475,28.0154124 24.8692303,27.2807156 24.9661637,26.4070671 C24.9798925,26.0879774 25.0360556,25.7688876 25.1325729,25.4502139 C25.2852534,24.8815103 25.5144822,24.389355 25.8190111,23.9733319 C25.9579628,23.7790491 26.1385168,23.5847663 26.3602572,23.3908995 C22.1438629,22.7252625 18.185403,21.8932163 14.4823813,20.8947608 C13.8583466,21.4634644 13.4423235,21.9693485 13.2343119,22.4132452 C13.0400291,22.8567258 12.9222946,23.238219 12.8806923,23.5573088 C12.8532347,23.8347962 12.7001382,23.9596031 12.4230668,23.9317296 C12.3115727,23.9180008 12.2217117,23.8693261 12.1526518,23.7861215 C12.0827599,23.6891881 12.0553024,23.5851823 12.0690312,23.4741041 C12.1114655,23.00275 12.2429288,22.5380521 12.4646692,22.0804267 C12.7001382,21.5949277 13.0612463,21.1169172 13.5463293,20.645147 L12.8603071,20.4579366 Z M13.7963591,17.1093665 L20.6607405,20.4999549 L27.7543506,16.9845596 C28.1287714,16.8181504 28.3850416,16.4853319 28.5239934,15.9861041 L28.7532221,13.1363458 L22.8248927,16.0693088 C21.6184257,16.6101388 20.4464886,16.6517411 19.3090814,16.1941157 L12.7567174,13.0115389 L13.0271324,16.0901099 C13.1660841,16.6030664 13.4219383,16.9429573 13.7963591,17.1093665 Z M32.3722072,15.694888 L31.9977864,20.8535746 L33.5994753,20.8535746 L33.3298924,15.694888 L32.3722072,15.694888 L32.3722072,15.694888 Z M19.5166769,3.17259226 L19.3298826,3.25579688 C19.2882803,3.28367043 19.2325332,3.29739919 19.1634733,3.29739919 C18.9829193,3.29739919 18.851456,3.21419457 18.7686674,3.04778533 C18.726233,2.93670715 18.726233,2.83270138 18.7686674,2.73576799 C18.8102697,2.62468982 18.8793295,2.54855759 18.9766789,2.50695528 L19.1634733,2.42375066 C19.2599907,2.36841958 19.3639965,2.36134719 19.4754907,2.4029495 C19.5869849,2.44455181 19.6697735,2.52068404 19.7251045,2.63176221 C19.7667068,2.74284038 19.7667068,2.84684616 19.7251045,2.94377955 C19.6835022,3.05444169 19.6144424,3.13057392 19.5166769,3.17259226 Z M28.1287714,25.6378404 L29.7092432,25.9290565 C29.6676409,25.3466242 29.4737741,24.8195229 29.1268109,24.3481687 C28.877197,23.9600191 28.5863968,23.7378628 28.2531623,23.6825317 L28.0247656,23.6409294 L27.7955369,23.6409294 C27.2829964,23.6825317 26.8519965,23.9600191 26.5058652,24.4729756 L26.4846481,24.4729756 C26.3182388,24.695132 26.1863595,24.9376735 26.0898421,25.2010161 L27.1715022,25.3050219 C27.3241827,25.3050219 27.4697908,25.325823 27.6087425,25.3674253 L27.8995427,25.4922323 L28.1287714,25.6378404 Z M25.8610294,26.0118451 L25.7782408,26.4902717 C25.6808914,27.3639203 25.7158374,28.0711595 25.8822466,28.6119896 C25.9650352,28.8337299 26.069041,28.9726816 26.1942639,29.0280127 L26.2770525,29.069615 L26.5062813,29.0488139 C26.9360331,28.9240069 27.2547068,28.6881218 27.4627184,28.3415746 C27.7268931,27.9392802 27.8583564,27.5440583 27.8583564,27.1559087 C27.8583564,26.7673431 27.7884645,26.4973441 27.6503448,26.3446636 L27.6291276,26.3238625 L27.5047367,26.2198567 L27.400731,26.1782544 L27.1303159,26.1366521 L27.005093,26.1782544 L26.9847078,26.2198567 L26.9223044,26.3030613 C26.8108102,26.4141395 26.7558951,26.5872051 26.7558951,26.8230902 C26.7558951,27.0585593 26.7974974,27.2461857 26.8811181,27.3847214 L26.9015032,27.4263237 L26.9639067,27.5095283 C27.0604241,27.5648594 27.1165872,27.6551364 27.1303159,27.7799434 C27.1303159,27.8910215 27.09537,27.9950273 27.0263102,28.0919607 C26.9564183,28.1751653 26.8669733,28.223424 26.7558951,28.2375688 C26.6444009,28.2512976 26.5403952,28.223424 26.4438778,28.1543642 C26.3049261,28.0158285 26.2146491,27.9047503 26.1734628,27.8215457 C26.0070535,27.558203 25.9238489,27.2249685 25.9238489,26.8230902 C25.9238489,26.5040005 25.97918,26.2406578 26.0902582,26.0326463 L25.8610294,26.0118451 Z" id="Shape"></path>
            </g>
        </g>
        <g id="Group-92-Copy" transform="translate(20.000000, 134.000000)">
            <circle id="Oval-Copy-5" fill="#FFFFFF" opacity="0" cx="25" cy="25" r="25"></circle>
            <g id="Shape-6" transform="translate(12.222222, 12.222222)" fill="#1179EF" fill-rule="nonzero" stroke="#1179EF">
                <path d="M1.68128655,-5.68434189e-14 C0.75567038,-5.68434189e-14 -1.20792265e-12,0.755671053 -1.20792265e-12,1.68128655 L-1.20792265e-12,23.874269 C-1.20792265e-12,24.7998845 0.75567038,25.5555556 1.68128655,25.5555556 L23.874269,25.5555556 C24.7998852,25.5555556 25.5555893,24.7998845 25.5555893,23.874269 L25.5555893,4.37134503 C25.5572706,4.25007857 25.493558,4.13728258 25.3888147,4.07614887 C25.2840714,4.01501515 25.1545251,4.01501515 25.0497818,4.07614887 C24.9450385,4.13728258 24.8813259,4.25007857 24.8830409,4.37134503 L24.8830409,23.874269 C24.8830409,24.4389459 24.4389446,24.8830409 23.874269,24.8830409 L1.68128655,24.8830409 C1.11661099,24.8830409 0.67251462,24.4389459 0.67251462,23.874269 L0.67251462,1.68128655 C0.67251462,1.11660965 1.11661099,0.67251462 1.68128655,0.67251462 L23.874269,0.67251462 C24.4389446,0.67251462 24.8830409,1.11660965 24.8830409,1.68128655 C24.8813259,1.80255301 24.9450385,1.915349 25.0497818,1.97648271 C25.1545251,2.03761643 25.2840714,2.03761643 25.3888147,1.97648271 C25.493558,1.915349 25.5572706,1.80255301 25.5555893,1.68128655 C25.5555893,0.755671053 24.7998852,-5.68434189e-14 23.874269,-5.68434189e-14 L1.68128655,-5.68434189e-14 Z M7.3661367,3.68832237 C7.35191467,3.69091794 7.33787482,3.6944279 7.32410453,3.69883041 C7.16753354,3.73389474 7.05754123,3.8746849 7.06140351,4.03508772 L7.06140351,6.7251462 L4.37134503,6.7251462 C4.35037532,6.72317179 4.32926649,6.72317179 4.30829678,6.7251462 C4.122587,6.7425565 3.98615332,6.90721785 4.00356361,7.09292763 C4.0209739,7.27863741 4.18563525,7.4150711 4.37134503,7.39766082 L7.06140351,7.39766082 L7.06140351,10.0877193 C7.0596885,10.2089858 7.12340105,10.3217817 7.22814438,10.3829155 C7.33288771,10.4440492 7.46243393,10.4440492 7.56717726,10.3829155 C7.67192059,10.3217817 7.73563314,10.2089858 7.73391813,10.0877193 L7.73391813,7.39766082 L10.4239766,7.39766082 C10.5452431,7.39937583 10.6580391,7.33566328 10.7191728,7.23091995 C10.7803065,7.12617662 10.7803065,6.9966304 10.7191728,6.89188707 C10.6580391,6.78714374 10.5452431,6.72343119 10.4239766,6.7251462 L7.73391813,6.7251462 L7.73391813,4.03508772 C7.73736395,3.938358 7.69896444,3.84483374 7.62854028,3.77843382 C7.55811612,3.7120339 7.46249669,3.67919743 7.3661367,3.68832237 L7.3661367,3.68832237 Z M15.0685307,5.04385965 C14.8828209,5.06126994 14.7463872,5.2259313 14.7637975,5.41164108 C14.7812078,5.59735087 14.9458692,5.73378456 15.1315789,5.71637427 L21.1842105,5.71637427 C21.305477,5.71808928 21.418273,5.65437673 21.4794067,5.5496334 C21.5405404,5.44489007 21.5405404,5.31534385 21.4794067,5.21060052 C21.418273,5.10585719 21.305477,5.04214464 21.1842105,5.04385965 L15.1315789,5.04385965 C15.1106092,5.04188524 15.0895004,5.04188524 15.0685307,5.04385965 Z M15.0685307,8.40643275 C14.8828209,8.42384305 14.7463872,8.5885044 14.7637975,8.77421418 C14.7812078,8.95992396 14.9458692,9.09635765 15.1315789,9.07894737 L21.1842105,9.07894737 C21.305477,9.08066238 21.418273,9.01694983 21.4794067,8.9122065 C21.5405404,8.80746317 21.5405404,8.67791695 21.4794067,8.57317362 C21.418273,8.46843029 21.305477,8.40471774 21.1842105,8.40643275 L15.1315789,8.40643275 C15.1106092,8.40445834 15.0895004,8.40445834 15.0685307,8.40643275 Z M15.4258041,15.4573282 C15.2949145,15.4700666 15.1834596,15.5579319 15.1405196,15.682232 C15.0975796,15.8065321 15.1310341,15.944457 15.2261513,16.0352705 L17.6745249,18.494152 L15.2261513,20.9425256 C15.1408403,21.028711 15.1082199,21.1539843 15.1406622,21.270832 C15.1731045,21.3876797 15.2656403,21.4782039 15.3831727,21.5080706 C15.5007051,21.5379373 15.6252314,21.5025718 15.7095212,21.4153874 L18.1578947,18.9670139 L20.6062683,21.4153874 C20.7370849,21.5475449 20.95007,21.5492581 21.0829957,21.4192221 C21.2159213,21.2891862 21.2188889,21.0762148 21.0896382,20.9425256 L18.6412646,18.494152 L21.0896382,16.0352705 C21.1908962,15.9377158 21.2207731,15.7874628 21.1645384,15.6585917 C21.1083038,15.5297205 20.9778299,15.4494388 20.8374452,15.4573282 C20.7496147,15.4607967 20.6666331,15.4985156 20.6062683,15.5624086 L18.1578947,18.0107822 L15.7095212,15.5624086 C15.6369345,15.4844155 15.5316827,15.4454333 15.4258041,15.4573282 L15.4258041,15.4573282 Z M4.30829678,18.1578947 C4.122587,18.175305 3.98615332,18.3399664 4.00356361,18.5256762 C4.0209739,18.7113859 4.18563525,18.8478196 4.37134503,18.8304094 L10.4239766,18.8304094 C10.5452431,18.8321244 10.6580391,18.7684118 10.7191728,18.6636685 C10.7803065,18.5589252 10.7803065,18.4293789 10.7191728,18.3246356 C10.6580391,18.2198923 10.5452431,18.1561797 10.4239766,18.1578947 L4.37134503,18.1578947 C4.35037532,18.1559203 4.32926649,18.1559203 4.30829678,18.1578947 Z" id="Shape"></path>
            </g>
        </g>
        <g id="Group-94-Copy" transform="translate(20.000000, 204.000000)">
            <circle id="Oval-Copy-6" fill="#FFFFFF" opacity="0" cx="25" cy="25" r="25"></circle>
            <g id="Group-51" transform="translate(11.111111, 11.111111)" fill="#1179EF" fill-rule="nonzero" stroke="#1179EF" stroke-width="0.2">
                <path d="M21.412037,27.7777778 C17.9016204,27.7777778 15.0462963,24.9212963 15.0462963,21.412037 C15.0462963,17.9027778 17.9016204,15.0462963 21.412037,15.0462963 C24.9224537,15.0462963 27.7777778,17.9027778 27.7777778,21.412037 C27.7777778,24.9212963 24.9224537,27.7777778 21.412037,27.7777778 Z M21.412037,16.2037037 C18.5405093,16.2037037 16.2037037,18.5405093 16.2037037,21.412037 C16.2037037,24.2835648 18.5405093,26.6203704 21.412037,26.6203704 C24.2835648,26.6203704 26.6203704,24.2835648 26.6203704,21.412037 C26.6203704,18.5405093 24.2835648,16.2037037 21.412037,16.2037037 Z" id="Shape"></path>
                <path d="M20.2546296,24.3055556 C20.1064815,24.3055556 19.9583333,24.2488426 19.8449074,24.1365741 L17.5300926,21.8217593 C17.3043981,21.5960648 17.3043981,21.2291667 17.5300926,21.0034722 C17.755787,20.7777778 18.1226852,20.7777778 18.3483796,21.0034722 L20.2534722,22.9085648 L24.4733796,18.6886574 C24.6990741,18.462963 25.0659722,18.462963 25.2916667,18.6886574 C25.5173611,18.9143519 25.5173611,19.28125 25.2916667,19.5069444 L20.662037,24.1365741 C20.5509259,24.2488426 20.4027778,24.3055556 20.2546296,24.3055556 Z" id="Path"></path>
                <path d="M15.7465278,27.7777778 L0.578703704,27.7777778 C0.259259259,27.7777778 0,27.5185185 0,27.1990741 L0,24.4189815 C0,24.3715278 0.00578703704,24.3240741 0.0173611111,24.2789352 C0.319444444,23.0706019 0.792824074,21.8888889 2.2037037,21.4178241 L7.34027778,19.7060185 C8.5474537,19.2013889 9.11226852,17.2037037 9.2337963,16.4456019 C8.34837963,15.6319444 7.52314815,14.4085648 7.52314815,13.3101852 C7.52314815,12.900463 7.40162037,12.7314815 7.33680556,12.7002315 C7.15625,12.6550926 7.05439815,12.5405093 6.9849537,12.3680556 C6.9224537,12.2094907 6.36574074,10.7893519 6.36574074,9.83796296 C6.36574074,9.79050926 6.37152778,9.74305556 6.38310185,9.69791667 C6.44675926,9.44328704 6.62384259,9.07291667 6.94444444,8.85532407 L6.94444444,5.78703704 C6.94444444,3.37037037 9.14583333,0 12.7314815,0 C16.2731481,0 17.2361111,1.81597222 17.349537,2.71412037 C17.9490741,3.15856481 18.5185185,3.9224537 18.5185185,5.78703704 L18.5185185,8.85532407 C18.8391204,9.07291667 19.0162037,9.44328704 19.0798611,9.69791667 C19.0914352,9.74305556 19.0972222,9.79050926 19.0972222,9.83796296 C19.0972222,10.7893519 18.5405093,12.2094907 18.4768519,12.3680556 C18.4074074,12.5405093 18.2592593,12.6701389 18.0798611,12.7152778 C18.0613426,12.7314815 17.9398148,12.900463 17.9398148,13.3101852 C17.9398148,13.8136574 17.7685185,14.3657407 17.431713,14.9537037 C17.2719907,15.2303241 16.9178241,15.3252315 16.6412037,15.1678241 C16.3645833,15.0081019 16.2685185,14.6550926 16.4270833,14.3773148 C16.6597222,13.9722222 16.7824074,13.6041667 16.7824074,13.3101852 C16.7824074,12.4456019 17.1400463,11.9664352 17.4780093,11.7395833 C17.6446759,11.2858796 17.9097222,10.4618056 17.9375,9.92592593 C17.9178241,9.88078704 17.8900463,9.83333333 17.8715278,9.81712963 C17.5520833,9.81597222 17.3611111,9.5787037 17.3611111,9.25925926 L17.3611111,5.78703704 C17.3611111,4.08333333 16.8136574,3.73726852 16.5798611,3.58796296 C16.4398148,3.49768519 16.2037037,3.34953704 16.1689815,3.03125 C16.162037,2.96180556 16.1712963,2.88425926 16.1944444,2.80555556 C16.1122685,2.34606481 15.4178241,1.15740741 12.7314815,1.15740741 C9.90509259,1.15740741 8.10185185,3.89930556 8.10185185,5.78703704 L8.10185185,9.25925926 C8.10185185,9.5787037 7.84259259,9.83796296 7.52314815,9.83796296 C7.55092593,9.83796296 7.54050926,9.87731481 7.52546296,9.9212963 C7.55208333,10.4606481 7.81828704,11.2858796 7.9849537,11.7384259 C8.32291667,11.9652778 8.68055556,12.4456019 8.68055556,13.3101852 C8.68055556,14.0891204 9.44791667,15.130787 10.2060185,15.7569444 C10.3402778,15.8680556 10.4166667,16.03125 10.4166667,16.2037037 C10.4166667,16.9386574 9.74884259,19.9537037 7.74537037,20.7893519 L2.56944444,22.5162037 C1.75,22.7893519 1.42476852,23.4479167 1.15740741,24.4907407 L1.15740741,26.6203704 L15.7465278,26.6203704 C16.0659722,26.6203704 16.3252315,26.8796296 16.3252315,27.1990741 C16.3252315,27.5185185 16.0671296,27.7777778 15.7465278,27.7777778 Z" id="Path"></path>
            </g>
        </g>
    </g>
</svg>