<?xml version="1.0" standalone="no"?>
<!DOCTYPE svg PUBLIC "-//W3C//DTD SVG 1.0//EN" "http://www.w3.org/TR/2001/REC-SVG-20010904/DTD/svg10.dtd">
<svg xmlns="http://www.w3.org/2000/svg" xmlns:xlink="http://www.w3.org/1999/xlink" id="body_1" width="102" height="61">

<g transform="matrix(1 0 0 1 0 0)">
    <path d="M12.6273 4.51133C 38.0273 -9.15102 45.0088 12.2206 55.9059 15.9778C 64.0538 18.7872 78.4153 20.5429 89.315 28.3956C 98.0003 34.6529 100.901 48.5606 99.0989 59.9442L99.0989 59.9442L7.05316 59.9442C 6.33829 37.9612 -9.84865 16.6011 12.6273 4.51133z" stroke="none" fill="#1A5896" fill-rule="nonzero" fill-opacity="0.15686275" />
    <path d="M18.5466 15.741L6.6643 15.741C 5.71125 15.741 4.93797 16.5087 4.91892 17.4622L4.91892 17.4622L4.91724 17.4622L4.91724 31.1902L4.92197 31.1902C 4.92012 31.1571 4.91724 31.1249 4.91724 31.0911C 4.91724 30.1208 5.69928 29.334 6.6643 29.334L6.6643 29.334L18.5466 29.334L18.5466 15.741z" stroke="#69AEEB" stroke-width="1" fill="none" />
    <path d="M18.5467 29.334L15.1704 29.334L6.66442 29.334C 5.69935 29.334 4.91736 30.1209 4.91736 31.0911C 4.91736 32.0611 5.6994 32.848 6.66442 32.848L6.66442 32.848L15.1704 32.848L18.5467 32.848L18.5467 29.334z" stroke="#69AEEB" stroke-width="1" fill="none" />
    <path d="M10.0673 34.2582L8.7995 33.45L7.53284 34.2582L7.53284 31.2427L8.7995 31.2427L10.0673 31.2427L10.0673 34.2582z" stroke="none" fill="#FFFFFF" fill-rule="nonzero" />
    <path d="M6.53406 31.1904L18.5467 31.1904" stroke="#69AEEB" stroke-width="1" fill="none" />
    <path d="M6.53406 29.225L6.53406 15.9102" stroke="#69AEEB" stroke-width="1" fill="none" />
    <path d="M9.85107 22.1052L15.2232 22.1052" stroke="#69AEEB" stroke-width="1" fill="none" />
    <path d="M10.4817 20.4038L14.5938 20.4038" stroke="#69AEEB" stroke-width="1" fill="none" />
    <path d="M47.6515 18.8186L29.1318 18.8186L29.1318 31.9661L47.6515 31.9661L47.6515 18.8186z" stroke="none" fill="#FFFFFF" fill-rule="nonzero" />
    <path d="M37.1081 18.0293L30.3591 18.0293L30.3591 30.6431L37.1081 30.6431C 37.8374 30.6431 38.4287 31.2372 38.4287 31.9707L38.4287 31.9707L38.4287 19.3568C 38.4287 18.6239 37.8374 18.0293 37.1081 18.0293z" stroke="#69AEEB" stroke-width="1" fill="none" />
    <path d="M39.7847 18.0293L46.5334 18.0293L46.5334 30.6431L39.7847 30.6431C 39.0558 30.6431 38.4645 31.2372 38.4645 31.9707L38.4645 31.9707L38.4645 19.3568C 38.4645 18.6239 39.0558 18.0293 39.7847 18.0293z" stroke="#69AEEB" stroke-width="1" fill="none" />
    <path d="M31.7028 19.9937L34.8444 19.9937" stroke="#69AEEB" stroke-width="1" fill="none" />
    <path d="M31.7028 21.7136L36.9936 21.7136" stroke="#69AEEB" stroke-width="1" fill="none" />
    <path d="M31.7028 23.4053L36.9936 23.4053" stroke="#69AEEB" stroke-width="1" fill="none" />
    <path d="M31.7028 25.0979L36.9936 25.0979" stroke="#69AEEB" stroke-width="1" fill="none" />
    <path d="M31.7028 26.7905L36.9936 26.7905" stroke="#69AEEB" stroke-width="1" fill="none" />
    <path d="M31.7028 28.4834L36.9936 28.4834" stroke="#69AEEB" stroke-width="1" fill="none" />
    <path d="M39.7024 21.7136L44.9929 21.7136" stroke="#69AEEB" stroke-width="1" fill="none" />
    <path d="M39.7024 23.4053L44.9929 23.4053" stroke="#69AEEB" stroke-width="1" fill="none" />
    <path d="M39.7024 25.0979L44.9929 25.0979" stroke="#69AEEB" stroke-width="1" fill="none" />
    <path d="M39.7024 26.7905L44.9929 26.7905" stroke="#69AEEB" stroke-width="1" fill="none" />
    <path d="M39.7024 28.4834L44.9929 28.4834" stroke="#69AEEB" stroke-width="1" fill="none" />
    <path d="M65.2689 46.296C 65.2689 46.296 61.755 58.9163 58.2413 59.4211C 54.7273 59.9257 59.7472 40.7432 60.2491 38.8922C 60.7511 37.0413 65.2689 46.296 65.2689 46.296z" stroke="none" fill="#EC9568" fill-rule="nonzero" />
    <path d="M55.8986 10.287C 55.8986 10.287 53.5561 6.08043 54.5601 3.89293C 55.5639 1.70543 58.9106 -1.15519 62.0898 1.20067C 65.269 3.55632 66.9423 2.715 68.4483 1.87363C 69.9542 1.03226 72.0825 -0.121214 76.8147 2.04194C 82.3365 4.56589 79.9938 13.4842 77.3166 15.6717C 74.6393 17.8591 79.492 18.3639 85.1811 18.0273C 90.8702 17.691 100.575 19.8783 101.579 26.1044C 102.041 28.9717 101.579 43.9407 86.0177 39.9023C 70.4562 35.8637 61.7551 48.1473 51.8829 32.4985C 48.5087 27.1499 59.9146 14.4938 55.8986 10.287z" stroke="none" fill="#212957" fill-rule="nonzero" />
    <path d="M71.2931 25.5988C 71.2931 25.5988 67.6118 24.7574 64.0981 27.7863C 60.5841 30.8151 58.5205 39.3968 58.5205 39.3968L58.5205 39.3968L65.6598 49.2685L72.9664 39.7332C 72.9665 39.7333 77.6516 24.7574 71.2931 25.5988z" stroke="none" fill="#FEC12F" fill-rule="nonzero" />
    <path d="M61.2533 17.0178C 61.2533 17.0178 59.9147 20.2149 60.082 21.2246C 60.2494 22.2343 61.5881 25.2631 61.5881 25.2631L61.5881 25.2631L55.0622 50.5032C 55.0622 50.5032 54.7275 57.234 56.5681 58.9167C 58.4087 60.5993 58.576 59.9261 60.082 58.5802C 61.5881 57.2341 62.9267 38.388 63.4286 31.8254C 63.9306 25.2631 64.5999 22.7389 64.5999 22.7389C 64.5999 22.7389 62.9267 21.7293 62.2573 21.3928C 61.588 21.0562 61.4207 17.5226 61.2533 17.0178z" stroke="none" fill="#F7B68B" fill-rule="nonzero" />
    <path d="M63.4287 16.6806C 63.9306 17.0171 68.4485 21.392 68.2812 26.4402C 68.1138 31.4881 67.7791 31.4881 67.9465 33.1709C 68.1138 34.8535 67.4446 40.0699 71.2931 42.9305C 72.3781 43.7368 73.9703 34.517 75.4764 29.8055C 76.6039 26.2775 78.8229 26.2718 73.9703 21.8969C 69.1178 17.5219 68.2812 13.3153 67.9465 11.1277C 67.6117 8.94038 63.4287 16.6806 63.4287 16.6806z" stroke="none" fill="#F7B68B" fill-rule="nonzero" />
    <path d="M78.3202 25.095C 78.3202 25.095 82.4142 21.2897 88.8619 37.4997C 90.2005 40.8651 97.3956 60.0005 97.3956 60.0005L97.3956 60.0005L69.6192 60.0005C 69.6192 60.0005 67.1093 49.1103 65.7707 45.4083C 64.432 41.7065 68.1132 26.8102 68.1132 26.8102L68.1132 26.8102L68.448 36.5815C 68.448 36.5814 74.8065 19.9907 78.3202 25.095z" stroke="none" fill="#FFAB01" fill-rule="nonzero" />
    <path d="M82.6711 38.2193L76.4801 58.5799C 76.4801 58.5799 75.6435 60.5989 70.791 59.0845C 65.0802 57.3024 47.1978 53.1952 47.1978 53.1952C 47.1978 53.1952 46.3612 54.0365 45.1898 55.5511C 44.0186 57.0654 41.3414 55.8034 41.3414 55.8034L41.3414 55.8034L39.6681 57.0654C 39.6681 57.0654 38.124 57.9907 37.4093 57.9907C 36.9072 57.9907 43.0147 52.6904 43.0147 52.6904L43.0147 52.6904L49.1222 50.7553L69.6197 52.6904L74.9743 34.3491L82.6711 38.2193z" stroke="none" fill="#F7B68B" fill-rule="nonzero" />
    <path d="M19.4057 10.1599L29.8743 50.367C 29.968 50.7264 30.3338 50.9418 30.6914 50.8474L30.6914 50.8474L33.4432 50.1229" stroke="#0450CF" stroke-width="1" fill="none" />
    <path d="M67.9462 11.1277C 68.1803 12.6574 68.6618 15.175 70.5884 18.0467C 70.5114 21.8678 69.6336 25.3648 68.2111 28.1166C 68.2361 27.6282 68.2599 27.0742 68.2808 26.4401C 68.4482 21.392 63.9303 17.0171 63.4284 16.6806C 63.4285 16.6806 67.6115 8.94034 67.9462 11.1277z" stroke="none" fill="#EC9568" fill-rule="nonzero" />
    <path d="M60.4961 19.0727C 60.8357 18.0158 61.2534 17.0178 61.2534 17.0178C 61.4208 17.5226 61.5881 21.0562 62.2573 21.3928C 62.9267 21.7292 64.5999 22.7389 64.5999 22.7389C 64.5999 22.7389 64.3357 23.7363 64.0147 26.1048C 62.2216 24.6988 60.8999 22.1331 60.4961 19.0727z" stroke="none" fill="#EC9568" fill-rule="nonzero" />
    <path d="M61.0858 4.73364C 61.0858 4.73364 59.0778 9.27679 59.7472 12.9787C 60.4164 16.6807 60.9184 20.7192 62.7591 22.2335C 64.5996 23.7478 66.2426 21.1836 68.6155 18.3632C 70.456 16.1758 72.1731 12.4027 71.1253 11.8009C 68.7828 10.4547 69.2848 13.3153 68.9501 13.6519C 68.1135 14.4932 67.9461 10.2862 68.2808 9.7816C 70.0073 7.17727 63.0938 11.1278 61.0858 4.73364z" stroke="none" fill="#F7B68B" fill-rule="nonzero" />
    <path d="M61.8049 14.1224C 62.1228 15.3356 63.0326 16.146 63.837 15.9327C 64.6413 15.7194 65.0352 14.563 64.7173 13.3501C 64.3992 12.1369 63.4893 11.3265 62.685 11.5396C 61.8807 11.7529 61.4868 12.909 61.8049 14.1224z" stroke="#212957" stroke-width="1" fill="none" />
    <path d="M58.1234 14.1224C 58.4415 15.3356 59.3513 16.146 60.1555 15.9327C 60.9598 15.7194 61.3539 14.563 61.0358 13.3501C 60.7177 12.1369 59.808 11.3265 59.0035 11.5396C 58.1993 11.7529 57.8054 12.909 58.1234 14.1224z" stroke="#212957" stroke-width="1" fill="none" />
    <path d="M59.0041 11.5393C 58.1998 11.7526 57.8059 12.9087 58.1239 14.1221C 58.4421 15.3353 59.3518 16.1457 60.156 15.9324" stroke="#FFFFFF" stroke-width="1" fill="none" />
    <path d="M64.2651 13.3153L68.9503 11.6326" stroke="#212957" stroke-width="1" fill="none" />
    <path d="M66.9935 56.6099C 71.4736 57.4465 74.6323 57.9642 76.8293 57.4331L76.8293 57.4331L76.4806 58.5803C 76.4806 58.5803 75.6439 60.5993 70.7915 59.085C 65.459 57.421 49.5165 53.7302 47.4271 53.2484C 48.3916 52.7517 58.8552 55.09 66.9935 56.6099z" stroke="none" fill="#EC9568" fill-rule="nonzero" />
    <path d="M81.0431 43.5737C 78.6128 42.6227 75.2089 41.4924 72.8734 41.5454L72.8734 41.5454L74.3813 36.3801L82.3938 39.1316L81.0431 43.5737z" stroke="none" fill="#EC9568" fill-rule="nonzero" />
    <path d="M89.5315 44.7814L72.1295 38.2188C 72.1295 38.2188 72.2966 27.4498 74.472 23.4112C 75.5819 21.3503 78.3777 21.5107 82.8383 26.7765C 86.6869 31.3199 89.5315 44.7814 89.5315 44.7814z" stroke="none" fill="#FEC12F" fill-rule="nonzero" />
    <path d="M37.96 13.0384C 37.96 13.5863 37.5181 14.0313 36.9727 14.0313L36.9727 14.0313L36.3146 14.0313L36.3146 16.3478L34.0107 14.0313L26.4413 14.0313C 25.8957 14.0313 25.4538 13.5863 25.4538 13.0384L25.4538 13.0384L25.4538 4.76436C 25.4538 4.21589 25.8957 3.77148 26.4413 3.77148L26.4413 3.77148L36.9727 3.77148C 37.5181 3.77148 37.96 4.21583 37.96 4.76436L37.96 4.76436L37.96 13.0384z" stroke="none" fill="#FFAB01" fill-rule="nonzero" />
    <path d="M27.429 6.75024L35.9862 6.75024L35.9862 7.41226L27.429 7.41226L27.429 6.75024z" stroke="none" fill="#FFFFFF" fill-rule="nonzero" />
    <path d="M27.429 8.4043L35.9862 8.4043L35.9862 9.06603L27.429 9.06603L27.429 8.4043z" stroke="none" fill="#FFFFFF" fill-rule="nonzero" />
    <path d="M27.429 10.0598L35.9862 10.0598L35.9862 10.7217L27.429 10.7217L27.429 10.0598z" stroke="none" fill="#FFFFFF" fill-rule="nonzero" />
    <path d="M6.20464 45.7322L6.20464 43.2012L8.45108 43.0139C 8.60778 42.1859 8.9152 41.4104 9.33802 40.7156L9.33802 40.7156L7.84625 38.9402L9.62705 37.1504L11.3407 38.6082C 12.0119 38.1492 12.7684 37.8633 13.5808 37.667L13.5808 37.667L13.7733 35.4031L16.2903 35.4031L16.4765 37.5972C 17.2994 37.7548 18.0714 38.032 18.7617 38.457L18.7617 38.457L20.5274 36.9405L22.3072 38.723L20.8575 40.4423C 21.3137 41.117 21.6302 41.8761 21.8257 42.6933L21.8257 42.6933L24.1088 42.8852L24.1088 45.4158L21.8948 45.603C 21.7382 46.431 21.4467 47.2069 21.0239 47.9011L21.0239 47.9011L22.5236 49.6772L20.7473 51.4665L19.0355 50.0092C 18.3647 50.468 17.609 50.8507 16.7958 51.0473L16.7958 51.0473L16.6049 53.4079L14.0877 53.4079L13.9015 51.1167C 13.0781 50.9591 12.3068 50.6338 11.6165 50.2085L11.6165 50.2085L9.85014 51.7008L8.07103 49.9061L9.52046 48.1808C 9.06429 47.5057 8.71568 46.7437 8.52018 45.9267L8.52018 45.9267L6.20464 45.7322zM15.1892 47.1156C 16.7306 47.1156 17.9804 45.8587 17.9804 44.3087C 17.9804 42.7584 16.7306 41.5016 15.1892 41.5016C 13.6476 41.5016 12.398 42.7584 12.398 44.3087C 12.398 45.8587 13.6477 47.1156 15.1892 47.1156z" stroke="none" fill="#C5E1F9" fill-rule="nonzero" />
    <path d="M15.1887 39.8008C 12.7129 39.8008 10.7058 41.8187 10.7058 44.3089" stroke="#9AC7F7" stroke-width="1" fill="none" />
    <path d="M29.4091 50.8347C 29.5028 51.1941 29.8686 51.4094 30.2263 51.3152L30.2263 51.3152L32.9781 50.5906C 33.3356 50.4963 33.5496 50.1284 33.4561 49.769L33.4561 49.769L22.9874 9.56209C 22.8938 9.20244 22.5279 8.98735 22.1704 9.08141L22.1704 9.08141L19.4187 9.80607C 19.061 9.90018 18.8471 10.268 18.9407 10.6276L18.9407 10.6276L29.4091 50.8347z" stroke="none" fill="#0561FC" fill-rule="nonzero" />
    <path d="M24.5578 30.6541C 24.5578 30.6541 15.4029 53.9592 15.4029 56.216C 15.4029 59.1818 17.7483 59.5321 17.7483 59.5321L17.7483 59.5321L28.2781 59.5321" stroke="#0450CF" stroke-width="1" fill="none" />
    <path d="M31.3007 59.9998L31.3007 59.4394C 31.3007 59.0677 31.3503 59.0645 31.7199 59.0645L31.7199 59.0645L48.2853 59.0645C 48.655 59.0645 49.4375 59.0677 49.4375 59.4394L49.4375 59.4394L49.4375 59.9998L31.3007 59.9998z" stroke="none" fill="#0450CF" fill-rule="nonzero" />
</g>
</svg>