<svg width="453" height="195" viewBox="0 0 453 195" fill="none" xmlns="http://www.w3.org/2000/svg">
<g id="Reseller sprite image">
<g id="Group 46">
<circle id="Oval" opacity="0.2" cx="65" cy="65" r="45" fill="#1179EF"/>
<g id="Group 40">
<g id="Oval_2" filter="url(#filter0_d)">
<circle cx="65.5" cy="65.5" r="25.5" fill="white"/>
</g>
<path id="Triangle" fill-rule="evenodd" clip-rule="evenodd" d="M72.5415 66.4563L61.704 76.0188V56.8938L72.5415 66.4563Z" fill="#1179EF"/>
</g>
</g>
<g id="3d copy">
<path id="Path" d="M153.375 42.7368C153.14 42.7368 152.95 42.9255 152.95 43.1579C152.95 43.3903 153.14 43.5789 153.375 43.5789C153.61 43.5789 153.8 43.3903 153.8 43.1579C153.8 42.9255 153.61 42.7368 153.375 42.7368Z" fill="#1179EF"/>
<path id="Path_2" d="M147.35 31.3684C147.35 31.1359 147.16 30.9474 146.925 30.9474C146.69 30.9474 146.5 31.1359 146.5 31.3684C146.5 31.6008 146.69 31.7895 146.925 31.7895C147.16 31.7895 147.35 31.6008 147.35 31.3684Z" fill="#1179EF"/>
<path id="Path_3" d="M140.625 43.5789C140.86 43.5789 141.05 43.3903 141.05 43.1579C141.05 42.9255 140.86 42.7368 140.625 42.7368C140.391 42.7368 140.2 42.9255 140.2 43.1579C140.2 43.3903 140.391 43.5789 140.625 43.5789Z" fill="#1179EF"/>
<path id="Shape" fill-rule="evenodd" clip-rule="evenodd" d="M160.015 45.6469L163.605 47.2285C163.941 47.3764 164.092 47.7653 163.943 48.0976C163.795 48.4266 163.405 48.5812 163.066 48.432L159.347 46.7936L147.263 51.9473C147.093 52.0196 146.898 52.0155 146.738 51.9473L134.653 46.7936L130.934 48.432C130.596 48.5807 130.205 48.4279 130.057 48.0976C129.908 47.7653 130.059 47.3764 130.395 47.2285L133.985 45.6469V31.1939C133.985 30.9223 134.155 30.6838 134.392 30.5861L146.336 25.4925V20.6585C146.336 20.2948 146.633 20 147 20C147.367 20 147.664 20.2948 147.664 20.6585V25.4925L159.608 30.5861C159.858 30.6915 160.015 30.9331 160.015 31.1939V45.6469ZM146.336 28.56V26.9262L136.329 31.1939L147 35.7447L157.671 31.1939L147.664 26.9262V28.56C147.664 28.9235 147.367 29.2185 147 29.2185C146.633 29.2185 146.336 28.9235 146.336 28.56ZM138.805 44.2436C138.656 43.9112 138.263 43.7618 137.928 43.9092L135.313 45.0617V32.1937L146.336 36.895V50.3426L136.306 46.0651L138.468 45.1129C138.803 44.965 138.954 44.5759 138.805 44.2436ZM147.664 36.895V50.3426L157.694 46.0651L155.532 45.1129C155.197 44.965 155.046 44.5761 155.195 44.2438C155.344 43.9112 155.736 43.7618 156.072 43.9094L158.687 45.0617V32.1937L147.664 36.895Z" fill="#1179EF"/>
</g>
<g id="cube copy">
<path id="Shape_2" fill-rule="evenodd" clip-rule="evenodd" d="M221.911 41.3206C221.732 40.6645 221.304 40.1162 220.706 39.7765C220.489 39.6533 220.261 39.5653 220.029 39.5095V31.491C220.263 31.4342 220.491 31.3455 220.706 31.2235C221.941 30.5224 222.365 28.9643 221.652 27.75C221.307 27.1618 220.749 26.741 220.082 26.5653C219.415 26.3895 218.718 26.4797 218.12 26.8193C217.905 26.9414 217.712 27.0908 217.545 27.262L210.483 23.253C210.55 23.0274 210.586 22.7893 210.586 22.5427C210.586 21.1406 209.426 20 208 20C206.574 20 205.414 21.1406 205.414 22.5427C205.414 22.7893 205.45 23.0274 205.517 23.253L198.455 27.262C198.288 27.0907 198.095 26.9413 197.88 26.8193C197.282 26.4797 196.585 26.3895 195.918 26.5653C195.251 26.741 194.693 27.1618 194.348 27.75C193.635 28.9643 194.059 30.5224 195.294 31.2235C195.509 31.3453 195.736 31.434 195.971 31.4909V39.5098C195.739 39.5657 195.511 39.6535 195.294 39.7767C194.696 40.1163 194.268 40.6646 194.089 41.3207C193.91 41.9768 194.002 42.662 194.348 43.2501C194.693 43.8383 195.251 44.2591 195.918 44.4348C196.141 44.4936 196.367 44.5226 196.591 44.5226C197.04 44.5226 197.482 44.407 197.88 44.1807C198.095 44.0587 198.288 43.9093 198.455 43.7381L205.517 47.747C205.45 47.9726 205.414 48.2107 205.414 48.4573C205.414 49.8594 206.574 51 208 51C209.426 51 210.586 49.8594 210.586 48.4573C210.586 48.2107 210.549 47.9726 210.483 47.747L217.545 43.7379C217.712 43.9092 217.904 44.0587 218.12 44.1807C218.518 44.4069 218.96 44.5226 219.408 44.5226C219.633 44.5226 219.859 44.4936 220.082 44.4348C220.749 44.2591 221.307 43.8383 221.652 43.2501C221.998 42.6618 222.09 41.9766 221.911 41.3206ZM218.735 27.8679C218.944 27.7494 219.176 27.6888 219.411 27.6888C219.528 27.6888 219.647 27.704 219.763 27.7348C220.113 27.8269 220.405 28.0473 220.586 28.3553C220.959 28.9914 220.737 29.8076 220.09 30.1748C219.777 30.3527 219.412 30.4 219.062 30.3079C218.713 30.2158 218.42 29.9954 218.24 29.6873V29.6873C217.866 29.0513 218.089 28.2351 218.735 27.8679ZM209.355 22.5427C209.355 21.8083 208.747 21.2108 208 21.2108C207.253 21.2108 206.645 21.8084 206.645 22.5428C206.645 23.2772 207.253 23.8747 208 23.8747C208.747 23.8747 209.355 23.2772 209.355 22.5427ZM206.134 24.3009C206.469 24.6442 206.9 24.8956 207.385 25.0123V29.0214C207.385 29.3558 207.661 29.6268 208.001 29.6268C208.341 29.6268 208.617 29.3557 208.617 29.0214V25.0119C209.101 24.895 209.531 24.6438 209.866 24.3009L216.93 28.3112L216.924 28.3316C216.921 28.3421 216.918 28.3526 216.915 28.3632C216.79 28.8196 216.797 29.2901 216.929 29.7322L209.869 33.7411C209.545 33.4079 209.134 33.1669 208.67 33.0446C208.003 32.8688 207.306 32.959 206.708 33.2987C206.491 33.422 206.299 33.5722 206.134 33.7418L199.071 29.7322C199.203 29.2901 199.21 28.8196 199.085 28.3632C199.082 28.3517 199.079 28.3403 199.075 28.329L199.07 28.3112L206.134 24.3009ZM206.828 36.1667C207.201 36.8027 208.031 37.0214 208.678 36.6542C209.325 36.287 209.547 35.4708 209.174 34.8348C208.993 34.5267 208.701 34.3063 208.351 34.2142C208.235 34.1835 208.116 34.1683 207.999 34.1683C207.764 34.1683 207.532 34.2288 207.324 34.3473C206.677 34.7145 206.454 35.5307 206.828 36.1667ZM195.91 30.1748C195.263 29.8076 195.041 28.9915 195.414 28.3555C195.595 28.0473 195.887 27.827 196.237 27.7349C196.353 27.7042 196.472 27.689 196.589 27.689C196.824 27.689 197.056 27.7495 197.265 27.868C197.578 28.0459 197.802 28.3331 197.896 28.6767C197.989 29.0203 197.941 29.3793 197.76 29.6874C197.579 29.9956 197.287 30.2159 196.938 30.308C196.588 30.4 196.223 30.3527 195.91 30.1748ZM197.265 43.1321C197.578 42.9542 197.802 42.6671 197.896 42.3233C197.989 41.9798 197.941 41.6207 197.76 41.3126C197.387 40.6766 196.557 40.4579 195.91 40.8251C195.597 41.003 195.372 41.2902 195.279 41.6339C195.185 41.9775 195.233 42.3364 195.414 42.6445C195.595 42.9527 195.887 43.173 196.237 43.2651C196.586 43.3572 196.951 43.3099 197.265 43.1321ZM206.134 46.6991L199.07 42.6887L199.076 42.6685L199.076 42.6684C199.079 42.6579 199.082 42.6474 199.085 42.6367C199.21 42.1804 199.203 41.7099 199.071 41.2678L203.804 38.5817C204.099 38.4144 204.199 38.0442 204.03 37.7546C203.859 37.465 203.483 37.366 203.188 37.5329L198.454 40.2196C198.109 39.8653 197.672 39.624 197.202 39.5107V31.49C197.21 31.4881 197.218 31.4865 197.225 31.4848L197.225 31.4848C197.236 31.4825 197.246 31.4802 197.257 31.4775C197.721 31.3552 198.132 31.1141 198.455 30.7809L205.519 34.7912C205.33 35.4338 205.395 36.1482 205.761 36.7722C206.128 37.396 206.724 37.8086 207.385 37.9681V45.9877C206.9 46.1045 206.469 46.3559 206.134 46.6991ZM206.645 48.4573C206.645 49.1917 207.253 49.7892 208 49.7892C208.747 49.7892 209.355 49.1917 209.355 48.4573C209.355 47.7228 208.747 47.1254 208 47.1254C207.253 47.1254 206.645 47.7228 206.645 48.4573ZM212.301 37.2425C212.006 37.0754 211.63 37.1745 211.459 37.4641C211.289 37.7537 211.39 38.1239 211.685 38.2911L216.929 41.2678C216.797 41.7099 216.79 42.1804 216.915 42.6368C216.918 42.6479 216.921 42.6588 216.925 42.6697L216.93 42.6885L209.866 46.6991C209.531 46.3562 209.101 46.105 208.617 45.9881V37.9695C208.849 37.9137 209.077 37.8261 209.294 37.7028C210.345 37.106 210.809 35.8883 210.484 34.7901L217.545 30.7809C217.868 31.1142 218.279 31.3553 218.743 31.4776C218.754 31.4803 218.764 31.4825 218.775 31.4848L218.775 31.4848C218.782 31.4864 218.79 31.4881 218.797 31.4899V39.511C218.328 39.6244 217.891 39.8657 217.546 40.2197L212.301 37.2425ZM219.763 43.2652C220.113 43.173 220.405 42.9527 220.586 42.6446C220.767 42.3365 220.815 41.9775 220.721 41.6339C220.628 41.2903 220.403 41.003 220.09 40.8252C219.877 40.7044 219.645 40.647 219.415 40.647C218.947 40.647 218.49 40.8859 218.24 41.3127C218.059 41.6208 218.011 41.9797 218.104 42.3234C218.198 42.667 218.422 42.9542 218.735 43.1321C219.049 43.31 219.414 43.3573 219.763 43.2652Z" fill="#1179EF"/>
<path id="Path_4" d="M208.303 30.7247C208.226 30.6489 208.12 30.6052 208.012 30.6052C207.904 30.6052 207.797 30.6489 207.721 30.7247C207.644 30.8006 207.6 30.9059 207.6 31.0131C207.6 31.1204 207.644 31.2257 207.721 31.3015C207.797 31.3774 207.904 31.421 208.012 31.421C208.12 31.421 208.226 31.3774 208.303 31.3015C208.38 31.2256 208.424 31.1204 208.424 31.0131C208.424 30.9058 208.38 30.8006 208.303 30.7247Z" fill="#1179EF"/>
</g>
<g id="018-blockchain copy">
<path id="Shape_3" fill-rule="evenodd" clip-rule="evenodd" d="M282 27.8139C282 26.3664 280.828 25.1889 279.388 25.1889C278.648 25.1889 277.98 25.4999 277.504 25.998L267.311 20.0837C267.118 19.9721 266.882 19.9721 266.689 20.0837L256.495 25.998C256.02 25.4999 255.352 25.1889 254.612 25.1889C253.172 25.1889 252 26.3664 252 27.8139C252 29.0459 252.849 30.0817 253.99 30.363V42.1875C253.99 42.4106 254.109 42.6169 254.301 42.7287L264.492 48.6414C264.424 48.8743 264.387 49.1204 264.387 49.375C264.387 50.8223 265.559 52 266.999 52C268.439 52 269.611 50.8223 269.611 49.375C269.611 49.1206 269.574 48.875 269.507 48.6421L279.699 42.7287C279.891 42.6172 280.01 42.4106 280.01 42.1875V30.363C281.151 30.0817 282 29.0459 282 27.8139ZM253.244 27.8139C253.244 27.0556 253.858 26.4389 254.612 26.4389C255.366 26.4389 255.98 27.0556 255.98 27.8139C255.98 28.572 255.366 29.1889 254.612 29.1889C253.858 29.1889 253.244 28.572 253.244 27.8139ZM265.631 49.375C265.631 50.1333 266.245 50.75 266.999 50.75C267.753 50.75 268.367 50.1333 268.367 49.375C268.367 48.6169 267.753 48 266.999 48C266.245 48 265.631 48.6169 265.631 49.375ZM268.884 47.5603C268.408 47.0615 267.739 46.75 266.999 46.75C266.259 46.75 265.591 47.0613 265.115 47.5596L255.234 41.8266V30.363C256.375 30.0817 257.224 29.0459 257.224 27.8139C257.224 27.559 257.187 27.3127 257.119 27.0793L267 21.3466L276.881 27.0793C276.813 27.3127 276.776 27.5588 276.776 27.8139C276.776 29.0459 277.625 30.0817 278.766 30.363V41.8266L268.884 47.5603ZM278.02 27.8139C278.02 28.572 278.634 29.1889 279.388 29.1889C280.142 29.1889 280.756 28.572 280.756 27.8139C280.756 27.0556 280.142 26.4389 279.388 26.4389C278.634 26.4389 278.02 27.0556 278.02 27.8139Z" fill="#1179EF"/>
<path id="Shape_4" fill-rule="evenodd" clip-rule="evenodd" d="M275.858 29.2363L267.724 24.2973C267.534 24.1816 267.299 24.1816 267.109 24.2973L258.975 29.2363C258.784 29.3523 258.667 29.5662 258.667 29.7976V39.6759C258.667 39.9072 258.784 40.1214 258.975 40.2371L267.109 45.1764C267.204 45.2341 267.31 45.2632 267.416 45.2632C267.523 45.2632 267.629 45.2341 267.724 45.1764L275.858 40.2371C276.049 40.1214 276.167 39.9072 276.167 39.6759V29.7976C276.167 29.5662 276.049 29.3523 275.858 29.2363ZM267.416 25.607L274.318 29.7976L267.416 33.9885L260.515 29.7976L267.416 25.607ZM268.033 40.5698V43.4926L274.934 39.3017V30.9201L267.724 35.2981C267.629 35.3558 267.523 35.385 267.416 35.385C267.31 35.385 267.204 35.3558 267.109 35.2981L259.899 30.9201V39.3017L266.8 43.4926V40.5698C266.8 40.2118 267.076 39.9217 267.416 39.9217C267.757 39.9217 268.033 40.2118 268.033 40.5698Z" fill="#1179EF"/>
<path id="Path_5" d="M267.434 36.8422C267.214 36.8422 267 36.932 266.844 37.0889C266.689 37.2455 266.6 37.4626 266.6 37.6843C266.6 37.9056 266.689 38.1228 266.844 38.2793C267 38.4362 267.214 38.5264 267.434 38.5264C267.653 38.5264 267.868 38.4362 268.023 38.2793C268.178 38.1228 268.267 37.9056 268.267 37.6843C268.267 37.4626 268.178 37.2455 268.023 37.0889C267.868 36.932 267.653 36.8422 267.434 36.8422Z" fill="#1179EF"/>
</g>
<g id="school (1) copy">
<path id="Path_6" d="M343.66 20H304.34C303.05 20 302 21.0369 302 22.3116V50.7919C302 52.0665 303.05 53.1034 304.34 53.1034H311.171C311.527 53.1034 311.815 52.8184 311.815 52.4668C311.815 52.1153 311.527 51.8302 311.171 51.8302H304.34C303.761 51.8302 303.289 51.3644 303.289 50.7919V27.1922H336.977C337.333 27.1922 337.621 26.9072 337.621 26.5556C337.621 26.204 337.333 25.919 336.977 25.919H303.289V22.3116C303.289 21.739 303.761 21.2732 304.34 21.2732H343.66C344.239 21.2732 344.711 21.739 344.711 22.3116V25.919H340.013C339.657 25.919 339.368 26.204 339.368 26.5556C339.368 26.9072 339.657 27.1922 340.013 27.1922H344.711V50.7919C344.711 51.3645 344.239 51.8302 343.66 51.8302H336.888C336.532 51.8302 336.244 52.1153 336.244 52.4668C336.244 52.8184 336.532 53.1034 336.888 53.1034H343.66C344.95 53.1034 346 52.0665 346 50.7919V22.3116C346 21.0369 344.95 20 343.66 20Z" fill="#1179EF"/>
<path id="Path_7" d="M305.801 22.1379C305.427 22.1379 305.125 22.4467 305.125 22.8276C305.125 23.2085 305.427 23.5172 305.801 23.5172H308.574C308.948 23.5172 309.25 23.2085 309.25 22.8276C309.25 22.4467 308.948 22.1379 308.574 22.1379H305.801Z" fill="#1179EF"/>
<path id="Path_8" d="M310.676 22.1379C310.302 22.1379 310 22.4467 310 22.8276C310 23.2085 310.302 23.5172 310.676 23.5172H313.449C313.823 23.5172 314.125 23.2085 314.125 22.8276C314.125 22.4467 313.823 22.1379 313.449 22.1379H310.676Z" fill="#1179EF"/>
<path id="Path_9" d="M315.676 22.1379C315.302 22.1379 315 22.4467 315 22.8276C315 23.2085 315.302 23.5172 315.676 23.5172H318.449C318.823 23.5172 319.125 23.2085 319.125 22.8276C319.125 22.4467 318.823 22.1379 318.449 22.1379H315.676Z" fill="#1179EF"/>
<path id="Shape_5" fill-rule="evenodd" clip-rule="evenodd" d="M340.094 39.7013C340.339 39.6032 340.5 39.3689 340.5 39.1088C340.5 38.8488 340.339 38.6145 340.094 38.5164L324.934 32.4611C324.776 32.3981 324.599 32.3981 324.441 32.4611L309.281 38.5163C309.036 38.6144 308.875 38.8487 308.875 39.1088C308.875 39.3688 309.036 39.6031 309.281 39.7012L313.592 41.4228V54.9125C313.592 55.1725 313.752 55.4068 313.998 55.5049L316.873 56.653V59.3603C316.873 59.7136 317.165 60 317.525 60C317.886 60 318.178 59.7136 318.178 59.3603V57.1744L324.441 59.6761C324.52 59.7077 324.604 59.7235 324.688 59.7235C324.771 59.7235 324.855 59.7077 324.934 59.6761L335.377 55.5049C335.623 55.4068 335.783 55.1725 335.783 54.9125V41.4228L340.094 39.7013ZM316.873 42.7334V50.2829L314.897 49.4938V41.9444L316.873 42.7334ZM314.897 50.8754V54.4824L316.873 55.2714V51.6644L314.897 50.8754ZM324.688 58.393L318.178 55.7929V52.1859L324.441 54.6876C324.52 54.7192 324.604 54.7349 324.688 54.7349C324.771 54.7349 324.855 54.7192 324.934 54.6876L334.478 50.8755V54.4824L324.688 58.393ZM324.688 53.4043L334.478 49.4938H334.478V41.9443L331.645 43.0756C331.312 43.209 330.931 43.0518 330.795 42.7246C330.659 42.3975 330.819 42.0241 331.153 41.8908L338.118 39.1088L324.688 33.7444L311.257 39.1088L317.525 41.6124L324.441 38.85C324.775 38.7166 325.156 38.8738 325.292 39.2011C325.428 39.5282 325.268 39.9015 324.934 40.0349L319.255 42.3032L324.688 44.4732L328.322 43.0214C328.656 42.8881 329.037 43.0451 329.173 43.3724C329.309 43.6995 329.149 44.0729 328.815 44.2062L324.934 45.7565C324.855 45.7881 324.771 45.8038 324.688 45.8038C324.604 45.8038 324.52 45.7881 324.441 45.7565L318.178 43.2548V50.8042L324.688 53.4043Z" fill="#1179EF"/>
</g>
<g id="code (1) copy">
<path id="Shape_6" fill-rule="evenodd" clip-rule="evenodd" d="M166.715 90H132.285C131.025 90 130 91.0096 130 92.25V117.75C130 118.99 131.025 120 132.285 120H166.715C167.975 120 169 118.99 169 117.75V92.25C169 91.0096 167.975 90 166.715 90ZM167.477 117.75C167.477 118.163 167.135 118.5 166.715 118.5H132.285C131.865 118.5 131.523 118.163 131.523 117.75V96.4515H167.477V117.75ZM131.523 92.25V94.9515H167.477V92.25C167.477 91.8366 167.135 91.5 166.715 91.5H132.285C131.865 91.5 131.523 91.8366 131.523 92.25Z" fill="#1179EF"/>
<path id="Path_10" d="M143.083 93.75H137.047C136.629 93.75 136.291 93.4702 136.291 93.125C136.291 92.7798 136.629 92.5 137.047 92.5H143.083C143.5 92.5 143.839 92.7798 143.839 93.125C143.839 93.4702 143.5 93.75 143.083 93.75Z" fill="#1179EF"/>
<path id="Path_11" d="M133.145 93.75C132.798 93.75 132.516 93.4702 132.516 93.125C132.516 92.7798 132.797 92.5 133.145 92.5H133.145C133.493 92.5 133.774 92.7798 133.774 93.125C133.774 93.4702 133.493 93.75 133.145 93.75Z" fill="#1179EF"/>
<path id="Shape_7" fill-rule="evenodd" clip-rule="evenodd" d="M135.289 117.5H163.711C164.546 117.5 165.226 116.799 165.226 115.938V100.312C165.226 99.451 164.546 98.75 163.711 98.75H135.289C134.454 98.75 133.774 99.451 133.774 100.312V115.938C133.774 116.799 134.454 117.5 135.289 117.5ZM135.289 115.938V100.312H163.711L163.712 115.938H163.711H135.289Z" fill="#1179EF"/>
<path id="Path_12" d="M144.341 111.25C144.148 111.25 143.954 111.173 143.806 111.021L141.544 108.677C141.249 108.372 141.249 107.878 141.544 107.573L143.806 105.229C144.101 104.924 144.58 104.923 144.875 105.228C145.17 105.533 145.171 106.028 144.876 106.333L143.146 108.125L144.876 109.917C145.171 110.222 145.17 110.717 144.875 111.022C144.728 111.174 144.535 111.25 144.341 111.25Z" fill="#1179EF"/>
<path id="Path_13" d="M154.659 111.25C154.466 111.25 154.273 111.174 154.125 111.022C153.83 110.717 153.829 110.222 154.124 109.917L155.854 108.125L154.124 106.333C153.829 106.028 153.83 105.533 154.125 105.228C154.421 104.924 154.899 104.924 155.194 105.229L157.457 107.573C157.751 107.878 157.751 108.372 157.457 108.677L155.194 111.021C155.046 111.173 154.853 111.25 154.659 111.25Z" fill="#1179EF"/>
<path id="Path_14" d="M147.142 111.25C146.941 111.25 146.74 111.174 146.586 111.022C146.278 110.717 146.278 110.222 146.585 109.917L151.3 105.229C151.607 104.924 152.106 104.923 152.414 105.228C152.722 105.533 152.723 106.028 152.415 106.333L147.7 111.021C147.546 111.173 147.344 111.25 147.142 111.25Z" fill="#1179EF"/>
</g>
<g id="Group Copy">
<path id="Path_15" fill-rule="evenodd" clip-rule="evenodd" d="M203.143 94.0663L202.461 95.4316L205.685 97.0383H208.927V95.512H206.044L203.143 94.0663Z" fill="#1179EF"/>
<path id="Path_16" fill-rule="evenodd" clip-rule="evenodd" d="M211.332 93.9857C210.053 93.9857 208.857 94.6238 208.147 95.6849L204.462 101.194C204.305 101.428 204.29 101.73 204.423 101.979C204.557 102.228 204.817 102.383 205.099 102.383H208.874C209.641 102.383 210.359 102 210.785 101.364L211.407 100.434C211.549 100.221 211.787 100.094 212.044 100.094H213.058C213.209 100.094 213.357 100.138 213.482 100.222L225.194 108.003C225.751 108.373 225.877 109.109 225.475 109.642L225.427 109.705C225.071 110.179 224.43 110.305 223.92 110L217.744 106.306C217.509 106.15 217.207 106.134 216.957 106.267C216.707 106.4 216.551 106.658 216.551 106.94C216.55 107.222 216.706 107.482 216.955 107.615L223.131 111.309C224.303 112.01 225.833 111.713 226.654 110.623L226.701 110.56C227.619 109.342 227.315 107.578 226.044 106.733L214.332 98.9491C213.954 98.6983 213.511 98.5645 213.058 98.5645H212.044C211.276 98.5645 210.559 98.9476 210.133 99.584L209.511 100.514C209.369 100.727 209.13 100.854 208.874 100.854H206.532L209.421 96.5343C209.847 95.8971 210.564 95.5149 211.332 95.5149H216.156C216.37 95.5149 216.579 95.5423 216.784 95.6019L221.16 96.848C221.712 97.0055 222.305 96.9517 222.82 96.6953L223.818 96.1974C224.197 96.0081 224.351 95.5483 224.161 95.1705C223.971 94.7927 223.51 94.6399 223.131 94.8293L222.132 95.327C221.96 95.4125 221.765 95.4308 221.581 95.3774L217.206 94.1313C216.864 94.0336 216.512 93.9847 216.156 93.9847H211.332V93.9857Z" fill="#1179EF"/>
<path id="Path_17" fill-rule="evenodd" clip-rule="evenodd" d="M228.235 102.67L225.173 106.485L226.369 107.436L229.432 103.621L228.235 102.67Z" fill="#1179EF"/>
<path id="Path_18" fill-rule="evenodd" clip-rule="evenodd" d="M197.984 103.367L196.902 104.446L199.964 107.499L201.047 106.42L197.984 103.367Z" fill="#1179EF"/>
<path id="Path_19" fill-rule="evenodd" clip-rule="evenodd" d="M205.06 90.9361C204.808 90.9492 204.579 91.0853 204.447 91.2998L195.661 105.174L190.941 102.485C190.703 102.334 190.402 102.326 190.156 102.464C189.91 102.602 189.76 102.863 189.766 103.144C189.771 103.425 189.931 103.68 190.182 103.808L195.535 106.861C195.891 107.064 196.345 106.951 196.564 106.605L205.742 92.1136C205.899 91.873 205.907 91.5652 205.763 91.3168C205.619 91.0683 205.348 90.9213 205.06 90.9361Z" fill="#1179EF"/>
<path id="Shape_8" fill-rule="evenodd" clip-rule="evenodd" d="M203.912 106.45C204.254 105.932 204.78 105.6 205.351 105.481H205.35C205.921 105.363 206.537 105.46 207.058 105.8H207.061L207.139 105.853C208.181 106.532 208.476 107.95 207.791 108.986L204.755 113.577C204.07 114.613 202.651 114.906 201.609 114.227H201.606L201.528 114.174C200.487 113.494 200.192 112.077 200.876 111.041L203.912 106.45ZM206.221 107.076H206.218L206.218 107.076C205.865 106.848 205.425 106.938 205.192 107.29L202.157 111.881C201.923 112.234 202.013 112.667 202.366 112.898H202.369L202.45 112.951C202.802 113.179 203.243 113.088 203.475 112.736L206.511 108.146C206.744 107.793 206.655 107.359 206.302 107.129H206.299L206.221 107.076Z" fill="#1179EF"/>
<path id="Shape_9" fill-rule="evenodd" clip-rule="evenodd" d="M205.635 109.443C205.979 108.917 206.511 108.582 207.088 108.462C207.665 108.342 208.287 108.437 208.814 108.781C209.867 109.468 210.167 110.899 209.478 111.95L207.381 115.143C206.692 116.193 205.256 116.494 204.202 115.807C203.148 115.12 202.849 113.686 203.538 112.635L205.635 109.443ZM208.198 111.115C208.437 110.75 208.342 110.298 207.976 110.06C207.61 109.821 207.154 109.915 206.915 110.28L204.818 113.473C204.579 113.838 204.673 114.29 205.039 114.528C205.405 114.767 205.862 114.672 206.101 114.308L208.198 111.115Z" fill="#1179EF"/>
<path id="Shape_10" fill-rule="evenodd" clip-rule="evenodd" d="M207.677 111.818C208.019 111.291 208.549 110.949 209.125 110.826C209.701 110.702 210.325 110.798 210.854 111.139C211.91 111.821 212.218 113.25 211.535 114.305L210.172 116.412C209.489 117.467 208.052 117.774 206.995 117.092C205.939 116.41 205.631 114.981 206.314 113.926L207.677 111.818ZM210.249 113.476C210.486 113.11 210.389 112.655 210.022 112.418C209.655 112.181 209.203 112.278 208.966 112.644L207.6 114.755C207.363 115.121 207.463 115.576 207.83 115.813C208.197 116.05 208.649 115.953 208.886 115.587L210.249 113.476Z" fill="#1179EF"/>
<path id="Shape_11" fill-rule="evenodd" clip-rule="evenodd" d="M200.269 106.456C200.611 105.928 201.138 105.587 201.714 105.463C202.29 105.339 202.914 105.435 203.442 105.776C204.499 106.458 204.807 107.887 204.124 108.942L202.761 111.049C202.078 112.104 200.644 112.411 199.587 111.729C198.53 111.047 198.22 109.618 198.903 108.563L200.269 106.456ZM202.838 108.113C203.075 107.747 202.978 107.295 202.611 107.058C202.244 106.821 201.792 106.915 201.555 107.281L200.192 109.392C199.954 109.758 200.052 110.213 200.419 110.45C200.786 110.687 201.238 110.59 201.475 110.224L202.838 108.113Z" fill="#1179EF"/>
<path id="Path_20" fill-rule="evenodd" clip-rule="evenodd" d="M221.961 90.933C221.676 90.9256 221.411 91.0762 221.272 91.3241C221.134 91.5719 221.144 91.876 221.3 92.1136L230.479 106.605C230.697 106.951 231.151 107.064 231.507 106.861L236.861 103.808C237.112 103.68 237.271 103.425 237.277 103.144C237.282 102.863 237.132 102.602 236.887 102.464C236.641 102.326 236.339 102.334 236.101 102.485L231.382 105.174L222.595 91.2998C222.46 91.0781 222.221 90.9399 221.961 90.933Z" fill="#1179EF"/>
<path id="Path_21" fill-rule="evenodd" clip-rule="evenodd" d="M215.788 109.243C215.447 109.251 215.153 109.483 215.066 109.812C214.978 110.14 215.119 110.487 215.411 110.662L219.721 113.345C221.08 114.191 222.88 113.842 223.821 112.549L224.479 111.646C224.65 111.425 224.686 111.13 224.575 110.874C224.464 110.619 224.222 110.444 223.944 110.418C223.666 110.392 223.395 110.518 223.238 110.748L222.58 111.652C222.104 112.306 221.219 112.477 220.531 112.048L216.225 109.365C216.095 109.282 215.943 109.239 215.788 109.243V109.243Z" fill="#1179EF"/>
<path id="Path_22" fill-rule="evenodd" clip-rule="evenodd" d="M214.302 112.295C213.947 112.284 213.631 112.516 213.537 112.857C213.443 113.198 213.596 113.559 213.907 113.729L217.403 115.721C218.796 116.515 220.585 116.133 221.527 114.838L222.203 113.908C222.453 113.567 222.377 113.088 222.034 112.84C221.692 112.591 221.211 112.666 220.962 113.008L220.286 113.941C219.796 114.615 218.891 114.807 218.166 114.394L214.667 112.403C214.556 112.337 214.43 112.3 214.302 112.296V112.295Z" fill="#1179EF"/>
<path id="Path_23" fill-rule="evenodd" clip-rule="evenodd" d="M210.734 114.677L210.184 116.105L214.777 117.852C215.938 118.294 217.264 117.869 217.945 116.833L218.614 115.81L217.331 114.973L216.661 115.995C216.371 116.437 215.82 116.613 215.325 116.424L210.734 114.677V114.677Z" fill="#1179EF"/>
<path id="Path_24" d="M195.146 101.619C195.146 102.04 194.803 102.382 194.38 102.382C193.958 102.382 193.615 102.04 193.615 101.619C193.615 101.197 193.958 100.855 194.38 100.855C194.803 100.855 195.146 101.197 195.146 101.619Z" fill="#1179EF"/>
<path id="Path_25" d="M233.427 101.619C233.427 102.04 233.084 102.382 232.662 102.382C232.239 102.382 231.896 102.04 231.896 101.619C231.896 101.197 232.239 100.855 232.662 100.855C233.084 100.855 233.427 101.197 233.427 101.619Z" fill="#1179EF"/>
</g>
<g id="Group 11 Copy">
<g id="Shape_12">
<path fill-rule="evenodd" clip-rule="evenodd" d="M279.744 90.1194L285.398 95.7704C285.477 95.8898 285.516 96.0092 285.556 96.1286V110.694C285.556 110.972 285.358 111.171 285.081 111.171C284.805 111.171 284.607 110.933 284.607 110.694V96.6061H278.953V90.9153H258.949V123.986H273.893C274.17 123.986 274.367 124.224 274.367 124.463C274.367 124.742 274.13 124.941 273.893 124.941H258.474C258.198 124.941 258 124.702 258 124.463V90.4776C258 90.199 258.237 90 258.474 90H279.428C279.547 90 279.665 90.0398 279.744 90.1194ZM283.974 95.651L279.902 91.552V95.651H283.974Z" fill="#1179EF"/>
<path d="M285.398 95.7704L285.523 95.6876L285.514 95.675L285.504 95.6643L285.398 95.7704ZM279.744 90.1194L279.638 90.2251L279.638 90.2255L279.744 90.1194ZM285.556 96.1286H285.706V96.1044L285.698 96.0814L285.556 96.1286ZM284.607 96.6061H284.757V96.4561H284.607V96.6061ZM278.953 96.6061H278.803V96.7561H278.953V96.6061ZM278.953 90.9153H279.103V90.7653H278.953V90.9153ZM258.949 90.9153V90.7653H258.799V90.9153H258.949ZM258.949 123.986H258.799V124.136H258.949V123.986ZM279.902 91.552L280.009 91.4463L279.752 91.1882V91.552H279.902ZM283.974 95.651V95.801H284.335L284.081 95.5453L283.974 95.651ZM279.902 95.651H279.752V95.801H279.902V95.651ZM285.504 95.6643L279.85 90.0133L279.638 90.2255L285.292 95.8765L285.504 95.6643ZM285.698 96.0814C285.659 95.9635 285.614 95.8259 285.523 95.6876L285.273 95.8532C285.339 95.9537 285.373 96.0549 285.413 96.1757L285.698 96.0814ZM285.706 110.694V96.1286H285.406V110.694H285.706ZM285.081 111.321C285.442 111.321 285.706 111.054 285.706 110.694H285.406C285.406 110.891 285.274 111.021 285.081 111.021V111.321ZM284.457 110.694C284.457 111.006 284.713 111.321 285.081 111.321V111.021C284.896 111.021 284.757 110.859 284.757 110.694H284.457ZM284.457 96.6061V110.694H284.757V96.6061H284.457ZM278.953 96.7561H284.607V96.4561H278.953V96.7561ZM278.803 90.9153V96.6061H279.103V90.9153H278.803ZM258.949 91.0653H278.953V90.7653H258.949V91.0653ZM259.099 123.986V90.9153H258.799V123.986H259.099ZM273.893 123.836H258.949V124.136H273.893V123.836ZM274.517 124.463C274.517 124.151 274.261 123.836 273.893 123.836V124.136C274.078 124.136 274.217 124.298 274.217 124.463H274.517ZM273.893 125.091C274.206 125.091 274.517 124.832 274.517 124.463H274.217C274.217 124.652 274.055 124.791 273.893 124.791V125.091ZM258.474 125.091H273.893V124.791H258.474V125.091ZM257.85 124.463C257.85 124.776 258.106 125.091 258.474 125.091V124.791C258.289 124.791 258.15 124.628 258.15 124.463H257.85ZM257.85 90.4776V124.463H258.15V90.4776H257.85ZM258.474 89.85C258.162 89.85 257.85 90.1091 257.85 90.4776H258.15C258.15 90.2889 258.313 90.15 258.474 90.15V89.85ZM279.428 89.85H258.474V90.15H279.428V89.85ZM279.851 90.0137C279.737 89.8994 279.577 89.85 279.428 89.85V90.15C279.516 90.15 279.593 90.1802 279.638 90.2251L279.851 90.0137ZM279.796 91.6578L283.868 95.7567L284.081 95.5453L280.009 91.4463L279.796 91.6578ZM280.052 95.651V91.552H279.752V95.651H280.052ZM283.974 95.501H279.902V95.801H283.974V95.501Z" fill="#1179EF"/>
</g>
<g id="Shape_13">
<path fill-rule="evenodd" clip-rule="evenodd" d="M275.277 120.524C275.277 125.14 278.993 128.881 283.579 128.881C288.126 128.881 291.882 125.14 291.882 120.524C291.882 115.907 288.165 112.166 283.579 112.166C278.993 112.166 275.277 115.907 275.277 120.524ZM276.186 120.524C276.186 116.425 279.507 113.082 283.579 113.082C287.612 113.082 290.933 116.425 290.972 120.524C290.972 124.623 287.651 127.965 283.579 127.965C279.507 127.965 276.186 124.623 276.186 120.524Z" fill="#1179EF"/>
<path d="M290.972 120.524H291.122L291.122 120.522L290.972 120.524ZM283.579 128.731C279.077 128.731 275.427 125.058 275.427 120.524H275.127C275.127 125.222 278.909 129.031 283.579 129.031V128.731ZM291.732 120.524C291.732 125.057 288.042 128.731 283.579 128.731V129.031C288.209 129.031 292.032 125.222 292.032 120.524H291.732ZM283.579 112.316C288.081 112.316 291.732 115.989 291.732 120.524H292.032C292.032 115.825 288.249 112.016 283.579 112.016V112.316ZM275.427 120.524C275.427 115.989 279.077 112.316 283.579 112.316V112.016C278.909 112.016 275.127 115.825 275.127 120.524H275.427ZM283.579 112.932C279.423 112.932 276.036 116.343 276.036 120.524H276.336C276.336 116.506 279.591 113.232 283.579 113.232V112.932ZM291.122 120.522C291.082 116.343 287.696 112.932 283.579 112.932V113.232C287.527 113.232 290.783 116.506 290.822 120.525L291.122 120.522ZM283.579 128.115C287.735 128.115 291.122 124.704 291.122 120.524H290.822C290.822 124.541 287.568 127.815 283.579 127.815V128.115ZM276.036 120.524C276.036 124.704 279.423 128.115 283.579 128.115V127.815C279.591 127.815 276.336 124.541 276.336 120.524H276.036Z" fill="#1179EF"/>
</g>
<path id="Path_26" d="M281.128 100.307H262.428C262.191 100.307 261.954 100.108 261.954 99.8296C261.954 99.5908 262.151 99.3521 262.428 99.3521H281.128C281.365 99.3521 281.602 99.551 281.602 99.8296C281.602 100.108 281.365 100.307 281.128 100.307Z" fill="#1179EF" stroke="#1179EF" stroke-width="0.3"/>
<path id="Path_27" d="M281.128 107.311H262.428C262.191 107.311 261.954 107.112 261.954 106.834C261.954 106.555 262.151 106.356 262.428 106.356H281.128C281.365 106.356 281.602 106.555 281.602 106.834C281.602 107.112 281.365 107.311 281.128 107.311Z" fill="#1179EF" stroke="#1179EF" stroke-width="0.3"/>
<path id="Path_28" d="M281.128 110.813H262.428C262.191 110.813 261.954 110.614 261.954 110.336C261.954 110.057 262.151 109.858 262.428 109.858H281.128C281.365 109.858 281.602 110.057 281.602 110.336C281.602 110.614 281.365 110.813 281.128 110.813Z" fill="#1179EF" stroke="#1179EF" stroke-width="0.3"/>
<path id="Path_29" d="M281.128 103.809H262.428C262.191 103.809 261.954 103.61 261.954 103.332C261.954 103.053 262.151 102.854 262.428 102.854H281.128C281.365 102.854 281.602 103.053 281.602 103.332C281.602 103.61 281.365 103.809 281.128 103.809Z" fill="#1179EF" stroke="#1179EF" stroke-width="0.3"/>
<path id="Path_30" d="M275.316 114.315H262.428C262.191 114.315 261.954 114.116 261.954 113.838C261.954 113.599 262.151 113.36 262.428 113.36H275.316C275.554 113.36 275.791 113.559 275.791 113.838C275.791 114.116 275.593 114.315 275.316 114.315Z" fill="#1179EF" stroke="#1179EF" stroke-width="0.3"/>
<path id="Path_31" d="M271.758 117.817H262.428C262.191 117.817 261.954 117.618 261.954 117.34C261.954 117.101 262.151 116.862 262.428 116.862H271.758C271.995 116.862 272.233 117.061 272.233 117.34C272.233 117.618 272.035 117.817 271.758 117.817Z" fill="#1179EF" stroke="#1179EF" stroke-width="0.3"/>
<path id="Path_32" d="M285.912 121.081C285.714 120.882 285.437 120.882 285.24 121.081L284.133 122.195V117.698C284.133 117.419 283.935 117.22 283.658 117.22C283.381 117.22 283.223 117.419 283.223 117.698V122.195L282.116 121.081C281.919 120.882 281.642 120.882 281.444 121.081C281.246 121.28 281.246 121.558 281.444 121.757L283.342 123.667C283.421 123.747 283.54 123.787 283.658 123.787C283.777 123.787 283.895 123.747 283.974 123.667L285.872 121.757C286.109 121.558 286.109 121.28 285.912 121.081Z" fill="#1179EF" stroke="#1179EF" stroke-width="0.3"/>
</g>
<g id="arrow-drop-down copy 4">
<path id="Shape_14" fill-rule="evenodd" clip-rule="evenodd" d="M312 91L317.5 97.5L323 91H312Z" fill="#51565E"/>
</g>
<g id="Oval 5 + Path 143 Mask Copy">
<mask id="mask0" mask-type="alpha" maskUnits="userSpaceOnUse" x="343" y="85" width="24" height="24">
<rect id="Mask" width="24" height="24" transform="matrix(1 0 0 -1 343 109)" fill="white"/>
</mask>
<g mask="url(#mask0)">
<path id="Path 143" d="M349.646 98.6464L354.646 93.6464L355 93.2929L355.354 93.6464L360.354 98.6464L359.646 99.3535L354.646 94.3535H355.354L350.354 99.3535L349.646 98.6464Z" fill="#51565E"/>
</g>
</g>
<g id="Oval 5 + Path 143 Mask Copy 2">
<rect id="Mask_2" opacity="0.01" x="343" y="129" width="24" height="24" fill="white"/>
<mask id="mask1" mask-type="alpha" maskUnits="userSpaceOnUse" x="343" y="129" width="24" height="24">
<rect id="Mask_3" x="343" y="129" width="24" height="24" fill="white"/>
</mask>
<g mask="url(#mask1)">
<path id="Path 143_2" d="M349.646 139.354L354.646 144.354L355 144.707L355.354 144.354L360.354 139.354L359.646 138.646L354.646 143.646H355.354L350.354 138.646L349.646 139.354Z" fill="#51565E"/>
</g>
</g>
<g id="Oval 5 + Path 143 Mask Copy_2">
<mask id="mask2" mask-type="alpha" maskUnits="userSpaceOnUse" x="387" y="85" width="24" height="24">
<rect id="Mask_4" width="24" height="24" transform="matrix(1 0 0 -1 387 109)" fill="white"/>
</mask>
<g mask="url(#mask2)">
<path id="Path 143_3" d="M393.646 98.6464L398.646 93.6464L399 93.2929L399.354 93.6464L404.354 98.6464L403.646 99.3535L398.646 94.3535H399.354L394.354 99.3535L393.646 98.6464Z" fill="#51565E" stroke="#51565E"/>
</g>
</g>
<g id="Oval 5 + Path 143 Mask Copy 2_2">
<rect id="Mask_5" opacity="0.01" x="387" y="129" width="24" height="24" fill="white"/>
<mask id="mask3" mask-type="alpha" maskUnits="userSpaceOnUse" x="387" y="129" width="24" height="24">
<rect id="Mask_6" x="387" y="129" width="24" height="24" fill="white"/>
</mask>
<g mask="url(#mask3)">
<path id="Path 143_4" d="M393.646 139.354L398.646 144.354L399 144.707L399.354 144.354L404.354 139.354L403.646 138.646L398.646 143.646H399.354L394.354 138.646L393.646 139.354Z" fill="#51565E" stroke="#51565E"/>
</g>
</g>
</g>
<defs>
<filter id="filter0_d" x="34" y="36" width="63" height="63" filterUnits="userSpaceOnUse" color-interpolation-filters="sRGB">
<feFlood flood-opacity="0" result="BackgroundImageFix"/>
<feColorMatrix in="SourceAlpha" type="matrix" values="0 0 0 0 0 0 0 0 0 0 0 0 0 0 0 0 0 0 127 0"/>
<feOffset dy="2"/>
<feGaussianBlur stdDeviation="3"/>
<feColorMatrix type="matrix" values="0 0 0 0 0 0 0 0 0 0 0 0 0 0 0 0 0 0 0.25 0"/>
<feBlend mode="normal" in2="BackgroundImageFix" result="effect1_dropShadow"/>
<feBlend mode="normal" in="SourceGraphic" in2="effect1_dropShadow" result="shape"/>
</filter>
</defs>
</svg>
