<svg width="220" height="241" viewBox="0 0 220 241" fill="none" xmlns="http://www.w3.org/2000/svg">
<circle cx="4.33102" cy="4.33102" r="4.33102" fill="#EEF6FF"/>
<circle cx="25.3672" cy="4.33102" r="4.33102" fill="#EEF6FF"/>
<circle cx="46.4033" cy="4.33102" r="4.33102" fill="#EEF6FF"/>
<circle cx="67.4404" cy="4.33102" r="4.33102" fill="#EEF6FF"/>
<circle cx="88.4765" cy="4.33102" r="4.33102" fill="#EEF6FF"/>
<circle cx="109.513" cy="4.33102" r="4.33102" fill="#EEF6FF"/>
<circle cx="130.549" cy="4.33102" r="4.33102" fill="#EEF6FF"/>
<circle cx="151.586" cy="4.33102" r="4.33102" fill="#EEF6FF"/>
<circle cx="172.622" cy="4.33102" r="4.33102" fill="#EEF6FF"/>
<circle cx="193.658" cy="4.33102" r="4.33102" fill="#EEF6FF"/>
<circle cx="214.695" cy="4.33102" r="4.33102" fill="#EEF6FF"/>
<circle cx="4.33102" cy="25.3672" r="4.33102" fill="#EEF6FF"/>
<circle cx="25.3672" cy="25.3672" r="4.33102" fill="#EEF6FF"/>
<circle cx="46.4033" cy="25.3672" r="4.33102" fill="#EEF6FF"/>
<circle cx="67.4404" cy="25.3672" r="4.33102" fill="#EEF6FF"/>
<circle cx="88.4765" cy="25.3672" r="4.33102" fill="#EEF6FF"/>
<circle cx="109.513" cy="25.3672" r="4.33102" fill="#EEF6FF"/>
<circle cx="130.549" cy="25.3672" r="4.33102" fill="#EEF6FF"/>
<circle cx="151.586" cy="25.3672" r="4.33102" fill="#EEF6FF"/>
<circle cx="172.622" cy="25.3672" r="4.33102" fill="#EEF6FF"/>
<circle cx="193.658" cy="25.3672" r="4.33102" fill="#EEF6FF"/>
<circle cx="214.695" cy="25.3672" r="4.33102" fill="#EEF6FF"/>
<circle cx="4.33102" cy="46.4043" r="4.33102" fill="#EEF6FF"/>
<circle cx="25.3672" cy="46.4043" r="4.33102" fill="#EEF6FF"/>
<circle cx="46.4033" cy="46.4043" r="4.33102" fill="#EEF6FF"/>
<circle cx="67.4404" cy="46.4043" r="4.33102" fill="#EEF6FF"/>
<circle cx="88.4765" cy="46.4043" r="4.33102" fill="#EEF6FF"/>
<circle cx="109.513" cy="46.4043" r="4.33102" fill="#EEF6FF"/>
<circle cx="130.549" cy="46.4043" r="4.33102" fill="#EEF6FF"/>
<circle cx="151.586" cy="46.4043" r="4.33102" fill="#EEF6FF"/>
<circle cx="172.622" cy="46.4043" r="4.33102" fill="#EEF6FF"/>
<circle cx="193.658" cy="46.4043" r="4.33102" fill="#EEF6FF"/>
<circle cx="214.695" cy="46.4043" r="4.33102" fill="#EEF6FF"/>
<circle cx="4.33102" cy="67.4404" r="4.33102" fill="#EEF6FF"/>
<circle cx="25.3672" cy="67.4404" r="4.33102" fill="#EEF6FF"/>
<circle cx="46.4033" cy="67.4404" r="4.33102" fill="#EEF6FF"/>
<circle cx="67.4404" cy="67.4404" r="4.33102" fill="#EEF6FF"/>
<circle cx="88.4765" cy="67.4404" r="4.33102" fill="#EEF6FF"/>
<circle cx="109.513" cy="67.4404" r="4.33102" fill="#EEF6FF"/>
<circle cx="130.549" cy="67.4404" r="4.33102" fill="#EEF6FF"/>
<circle cx="151.586" cy="67.4404" r="4.33102" fill="#EEF6FF"/>
<circle cx="172.622" cy="67.4404" r="4.33102" fill="#EEF6FF"/>
<circle cx="193.658" cy="67.4404" r="4.33102" fill="#EEF6FF"/>
<circle cx="214.695" cy="67.4404" r="4.33102" fill="#EEF6FF"/>
<circle cx="4.33102" cy="88.4765" r="4.33102" fill="#EEF6FF"/>
<circle cx="25.3672" cy="88.4765" r="4.33102" fill="#EEF6FF"/>
<circle cx="46.4033" cy="88.4765" r="4.33102" fill="#EEF6FF"/>
<circle cx="67.4404" cy="88.4765" r="4.33102" fill="#EEF6FF"/>
<circle cx="88.4765" cy="88.4765" r="4.33102" fill="#EEF6FF"/>
<circle cx="109.513" cy="88.4765" r="4.33102" fill="#EEF6FF"/>
<circle cx="130.549" cy="88.4765" r="4.33102" fill="#EEF6FF"/>
<circle cx="151.586" cy="88.4765" r="4.33102" fill="#EEF6FF"/>
<circle cx="172.622" cy="88.4765" r="4.33102" fill="#EEF6FF"/>
<circle cx="193.658" cy="88.4765" r="4.33102" fill="#EEF6FF"/>
<circle cx="214.695" cy="88.4765" r="4.33102" fill="#EEF6FF"/>
<circle cx="4.33102" cy="88.4765" r="4.33102" fill="#EEF6FF"/>
<circle cx="25.3672" cy="88.4765" r="4.33102" fill="#EEF6FF"/>
<circle cx="46.4033" cy="88.4765" r="4.33102" fill="#EEF6FF"/>
<circle cx="67.4404" cy="88.4765" r="4.33102" fill="#EEF6FF"/>
<circle cx="88.4765" cy="88.4765" r="4.33102" fill="#EEF6FF"/>
<circle cx="109.513" cy="88.4765" r="4.33102" fill="#EEF6FF"/>
<circle cx="130.549" cy="88.4765" r="4.33102" fill="#EEF6FF"/>
<circle cx="151.586" cy="88.4765" r="4.33102" fill="#EEF6FF"/>
<circle cx="172.622" cy="88.4765" r="4.33102" fill="#EEF6FF"/>
<circle cx="193.658" cy="88.4765" r="4.33102" fill="#EEF6FF"/>
<circle cx="214.695" cy="88.4765" r="4.33102" fill="#EEF6FF"/>
<circle cx="4.33102" cy="109.513" r="4.33102" fill="#EEF6FF"/>
<circle cx="25.3672" cy="109.513" r="4.33102" fill="#EEF6FF"/>
<circle cx="46.4033" cy="109.513" r="4.33102" fill="#EEF6FF"/>
<circle cx="67.4404" cy="109.513" r="4.33102" fill="#EEF6FF"/>
<circle cx="88.4765" cy="109.513" r="4.33102" fill="#EEF6FF"/>
<circle cx="109.513" cy="109.513" r="4.33102" fill="#EEF6FF"/>
<circle cx="130.549" cy="109.513" r="4.33102" fill="#EEF6FF"/>
<circle cx="151.586" cy="109.513" r="4.33102" fill="#EEF6FF"/>
<circle cx="172.622" cy="109.513" r="4.33102" fill="#EEF6FF"/>
<circle cx="193.658" cy="109.513" r="4.33102" fill="#EEF6FF"/>
<circle cx="214.695" cy="109.513" r="4.33102" fill="#EEF6FF"/>
<circle cx="4.33102" cy="130.55" r="4.33102" fill="#EEF6FF"/>
<circle cx="25.3672" cy="130.55" r="4.33102" fill="#EEF6FF"/>
<circle cx="46.4033" cy="130.55" r="4.33102" fill="#EEF6FF"/>
<circle cx="67.4404" cy="130.55" r="4.33102" fill="#EEF6FF"/>
<circle cx="88.4765" cy="130.55" r="4.33102" fill="#EEF6FF"/>
<circle cx="109.513" cy="130.55" r="4.33102" fill="#EEF6FF"/>
<circle cx="130.549" cy="130.55" r="4.33102" fill="#EEF6FF"/>
<circle cx="151.586" cy="130.55" r="4.33102" fill="#EEF6FF"/>
<circle cx="172.622" cy="130.55" r="4.33102" fill="#EEF6FF"/>
<circle cx="193.658" cy="130.55" r="4.33102" fill="#EEF6FF"/>
<circle cx="214.695" cy="130.55" r="4.33102" fill="#EEF6FF"/>
<circle cx="4.33102" cy="151.586" r="4.33102" fill="#EEF6FF"/>
<circle cx="25.3672" cy="151.586" r="4.33102" fill="#EEF6FF"/>
<circle cx="46.4033" cy="151.586" r="4.33102" fill="#EEF6FF"/>
<circle cx="67.4404" cy="151.586" r="4.33102" fill="#EEF6FF"/>
<circle cx="88.4765" cy="151.586" r="4.33102" fill="#EEF6FF"/>
<circle cx="109.513" cy="151.586" r="4.33102" fill="#EEF6FF"/>
<circle cx="130.549" cy="151.586" r="4.33102" fill="#EEF6FF"/>
<circle cx="151.586" cy="151.586" r="4.33102" fill="#EEF6FF"/>
<circle cx="172.622" cy="151.586" r="4.33102" fill="#EEF6FF"/>
<circle cx="193.658" cy="151.586" r="4.33102" fill="#EEF6FF"/>
<circle cx="214.695" cy="151.586" r="4.33102" fill="#EEF6FF"/>
<circle cx="4.33102" cy="172.622" r="4.33102" fill="#EEF6FF"/>
<circle cx="25.3672" cy="172.622" r="4.33102" fill="#EEF6FF"/>
<circle cx="46.4033" cy="172.622" r="4.33102" fill="#EEF6FF"/>
<circle cx="67.4404" cy="172.622" r="4.33102" fill="#EEF6FF"/>
<circle cx="88.4765" cy="172.622" r="4.33102" fill="#EEF6FF"/>
<circle cx="109.513" cy="172.622" r="4.33102" fill="#EEF6FF"/>
<circle cx="130.549" cy="172.622" r="4.33102" fill="#EEF6FF"/>
<circle cx="151.586" cy="172.622" r="4.33102" fill="#EEF6FF"/>
<circle cx="172.622" cy="172.622" r="4.33102" fill="#EEF6FF"/>
<circle cx="193.658" cy="172.622" r="4.33102" fill="#EEF6FF"/>
<circle cx="214.695" cy="172.622" r="4.33102" fill="#EEF6FF"/>
<circle cx="4.33102" cy="193.658" r="4.33102" fill="#EEF6FF"/>
<circle cx="25.3672" cy="193.658" r="4.33102" fill="#EEF6FF"/>
<circle cx="46.4033" cy="193.658" r="4.33102" fill="#EEF6FF"/>
<circle cx="67.4404" cy="193.658" r="4.33102" fill="#EEF6FF"/>
<circle cx="88.4765" cy="193.658" r="4.33102" fill="#EEF6FF"/>
<circle cx="109.513" cy="193.658" r="4.33102" fill="#EEF6FF"/>
<circle cx="130.549" cy="193.658" r="4.33102" fill="#EEF6FF"/>
<circle cx="151.586" cy="193.658" r="4.33102" fill="#EEF6FF"/>
<circle cx="172.622" cy="193.658" r="4.33102" fill="#EEF6FF"/>
<circle cx="193.658" cy="193.658" r="4.33102" fill="#EEF6FF"/>
<circle cx="214.695" cy="193.658" r="4.33102" fill="#EEF6FF"/>
<circle cx="4.33102" cy="214.695" r="4.33102" fill="#EEF6FF"/>
<circle cx="25.3672" cy="214.695" r="4.33102" fill="#EEF6FF"/>
<circle cx="46.4033" cy="214.695" r="4.33102" fill="#EEF6FF"/>
<circle cx="67.4404" cy="214.695" r="4.33102" fill="#EEF6FF"/>
<circle cx="88.4765" cy="214.695" r="4.33102" fill="#EEF6FF"/>
<circle cx="109.513" cy="214.695" r="4.33102" fill="#EEF6FF"/>
<circle cx="130.549" cy="214.695" r="4.33102" fill="#EEF6FF"/>
<circle cx="151.586" cy="214.695" r="4.33102" fill="#EEF6FF"/>
<circle cx="172.622" cy="214.695" r="4.33102" fill="#EEF6FF"/>
<circle cx="193.658" cy="214.695" r="4.33102" fill="#EEF6FF"/>
<circle cx="214.695" cy="214.695" r="4.33102" fill="#EEF6FF"/>
<circle cx="4.33102" cy="235.731" r="4.33102" fill="#EEF6FF"/>
<circle cx="25.3672" cy="235.731" r="4.33102" fill="#EEF6FF"/>
<circle cx="46.4033" cy="235.731" r="4.33102" fill="#EEF6FF"/>
<circle cx="67.4404" cy="235.731" r="4.33102" fill="#EEF6FF"/>
<circle cx="88.4765" cy="235.731" r="4.33102" fill="#EEF6FF"/>
<circle cx="109.513" cy="235.731" r="4.33102" fill="#EEF6FF"/>
<circle cx="130.549" cy="235.731" r="4.33102" fill="#EEF6FF"/>
<circle cx="151.586" cy="235.731" r="4.33102" fill="#EEF6FF"/>
<circle cx="172.622" cy="235.731" r="4.33102" fill="#EEF6FF"/>
<circle cx="193.658" cy="235.731" r="4.33102" fill="#EEF6FF"/>
<circle cx="214.695" cy="235.731" r="4.33102" fill="#EEF6FF"/>
</svg>
