<svg width="16" height="16" viewBox="0 0 16 16" fill="none" xmlns="http://www.w3.org/2000/svg">
<g id="ri:discount-percent-fill" clip-path="url(#clip0_482_44395)">
<path id="Vector" d="M9.29621 1.39582C8.93432 1.08738 8.47437 0.917969 7.99887 0.917969C7.52337 0.917969 7.06343 1.08738 6.70154 1.39582L5.80287 2.16182C5.69613 2.25288 5.56339 2.30793 5.42354 2.31916L4.24687 2.41249C3.77289 2.45029 3.32788 2.65573 2.99166 2.99195C2.65544 3.32817 2.45001 3.77318 2.41221 4.24716L2.31887 5.42449C2.30746 5.56442 2.25217 5.69717 2.16087 5.80382L1.39554 6.70249C1.08728 7.06433 0.917969 7.52414 0.917969 7.99949C0.917969 8.47484 1.08728 8.93465 1.39554 9.29649L2.16087 10.1958C2.25193 10.3026 2.30698 10.4353 2.31821 10.5752L2.41221 11.7518C2.45001 12.2258 2.65544 12.6708 2.99166 13.007C3.32788 13.3433 3.77289 13.5487 4.24687 13.5865L5.42354 13.6798C5.5637 13.6911 5.6967 13.7464 5.80354 13.8378L6.70154 14.6032C7.06343 14.9116 7.52337 15.081 7.99887 15.081C8.47437 15.081 8.93432 14.9116 9.29621 14.6032L10.1949 13.8378C10.3018 13.7466 10.4348 13.6916 10.5749 13.6805L11.7515 13.5865C12.2255 13.5487 12.6705 13.3433 13.0068 13.007C13.343 12.6708 13.5484 12.2258 13.5862 11.7518L13.6795 10.5752C13.6906 10.4351 13.7457 10.3021 13.8369 10.1952L14.6029 9.29716C14.9113 8.93527 15.0807 8.47532 15.0807 7.99982C15.0807 7.52432 14.9113 7.06438 14.6029 6.70249L13.8369 5.80382C13.7457 5.6969 13.6906 5.56391 13.6795 5.42382L13.5862 4.24716C13.5484 3.77318 13.343 3.32817 13.0068 2.99195C12.6705 2.65573 12.2255 2.45029 11.7515 2.41249L10.5742 2.31916C10.4344 2.30793 10.3016 2.25288 10.1949 2.16182L9.29621 1.39582ZM9.88421 5.17116L10.8275 6.11382L6.11354 10.8285L5.17021 9.88516L9.88421 5.17116ZM6.82021 6.82116C6.72796 6.91667 6.61761 6.99285 6.49561 7.04526C6.37361 7.09767 6.24239 7.12525 6.10961 7.12641C5.97683 7.12756 5.84515 7.10226 5.72225 7.05198C5.59936 7.0017 5.4877 6.92744 5.39381 6.83355C5.29992 6.73966 5.22567 6.62801 5.17538 6.50511C5.1251 6.38221 5.0998 6.25054 5.10096 6.11776C5.10211 5.98498 5.1297 5.85376 5.18211 5.73175C5.23451 5.60975 5.3107 5.4994 5.40621 5.40716C5.59481 5.225 5.84741 5.1242 6.10961 5.12648C6.3718 5.12876 6.62262 5.23393 6.80802 5.41934C6.99343 5.60475 7.0986 5.85556 7.10088 6.11776C7.10316 6.37995 7.00236 6.63256 6.82021 6.82116ZM9.17754 10.5925C9.08041 10.5007 9.00268 10.3903 8.94894 10.2679C8.89519 10.1455 8.86653 10.0136 8.86464 9.87997C8.86275 9.74632 8.88767 9.61365 8.93793 9.4898C8.98819 9.36595 9.06277 9.25343 9.15727 9.15889C9.25176 9.06436 9.36424 8.98972 9.48807 8.9394C9.6119 8.88908 9.74456 8.8641 9.87821 8.86593C10.0119 8.86775 10.1438 8.89635 10.2662 8.95004C10.3886 9.00373 10.499 9.08141 10.5909 9.17849C10.7675 9.36806 10.8637 9.61879 10.8591 9.87785C10.8545 10.1369 10.7496 10.3841 10.5664 10.5673C10.3832 10.7505 10.136 10.8555 9.8769 10.8601C9.61784 10.8646 9.36711 10.7685 9.17754 10.5918" fill="#2F80ED"/>
</g>
<defs>
<clipPath id="clip0_482_44395">
<rect width="16" height="16" fill="white"/>
</clipPath>
</defs>
</svg>
