<svg width="18" height="18" viewBox="0 0 18 18" fill="none" xmlns="http://www.w3.org/2000/svg">
<g clip-path="url(#clip0_92_2069)">
<path d="M9.70352 9.00009L13.8485 4.85509C13.9304 4.75944 13.9732 4.6364 13.9684 4.51057C13.9635 4.38473 13.9114 4.26536 13.8223 4.17631C13.7333 4.08726 13.6139 4.0351 13.488 4.03024C13.3622 4.02538 13.2392 4.06818 13.1435 4.15009L8.99852 8.29509L4.85352 4.14509C4.75937 4.05094 4.63167 3.99805 4.49852 3.99805C4.36537 3.99805 4.23767 4.05094 4.14352 4.14509C4.04937 4.23924 3.99648 4.36694 3.99648 4.50009C3.99648 4.63324 4.04937 4.76094 4.14352 4.85509L8.29352 9.00009L4.14352 13.1451C4.09118 13.1899 4.04867 13.2451 4.01866 13.3071C3.98865 13.3691 3.97178 13.4367 3.96912 13.5056C3.96646 13.5744 3.97807 13.6431 4.0032 13.7073C4.02834 13.7714 4.06647 13.8297 4.1152 13.8784C4.16392 13.9271 4.2222 13.9653 4.28636 13.9904C4.35052 14.0155 4.41919 14.0272 4.48805 14.0245C4.55691 14.0218 4.62447 14.005 4.68651 13.975C4.74854 13.9449 4.8037 13.9024 4.84852 13.8501L8.99852 9.70509L13.1435 13.8501C13.2392 13.932 13.3622 13.9748 13.488 13.9699C13.6139 13.9651 13.7333 13.9129 13.8223 13.8239C13.9114 13.7348 13.9635 13.6155 13.9684 13.4896C13.9732 13.3638 13.9304 13.2407 13.8485 13.1451L9.70352 9.00009Z" fill="black"/>
</g>
<defs>
<clipPath id="clip0_92_2069">
<rect width="18" height="18" fill="white"/>
</clipPath>
</defs>
</svg>
