<svg width="80" height="80" viewBox="0 0 80 80" fill="none" xmlns="http://www.w3.org/2000/svg">
<g clip-path="url(#clip0_2163_3821)">
<path d="M21.3327 39.9998L37.3327 53.3332L58.666 26.6665M39.9993 77.3332C35.0967 77.3332 30.242 76.3675 25.7125 74.4913C21.183 72.6152 17.0674 69.8652 13.6007 66.3985C10.134 62.9318 7.38402 58.8162 5.50785 54.2867C3.63167 49.7572 2.66602 44.9025 2.66602 39.9998C2.66602 35.0972 3.63167 30.2425 5.50785 25.713C7.38402 21.1835 10.134 17.0679 13.6007 13.6012C17.0674 10.1345 21.183 7.38451 25.7125 5.50833C30.242 3.63216 35.0967 2.6665 39.9993 2.6665C49.9008 2.6665 59.3966 6.59983 66.398 13.6012C73.3994 20.6025 77.3327 30.0984 77.3327 39.9998C77.3327 49.9012 73.3994 59.3971 66.398 66.3985C59.3966 73.3998 49.9008 77.3332 39.9993 77.3332Z" stroke="#27AE60" stroke-width="5.33333"/>
</g>
<defs>
<clipPath id="clip0_2163_3821">
<rect width="80" height="80" fill="white"/>
</clipPath>
</defs>
</svg>
