<svg width="14" height="15" viewBox="0 0 14 15" fill="none" xmlns="http://www.w3.org/2000/svg">
<path d="M8.47656 9.77709C8.47656 9.77709 9.05149 9.43472 9.76168 8.45898L13.6847 12.3106C13.7861 12.4133 13.8707 12.516 13.9383 12.653C14.0398 12.8926 14.0398 13.3377 13.7692 13.6116C13.7692 13.6116 13.0421 14.4504 12.315 13.6972L8.47656 9.77709Z" fill="#51565E"/>
<path fill-rule="evenodd" clip-rule="evenodd" d="M0 5.20395C0 2.32989 2.30147 0 5.14048 0C7.9795 0 10.281 2.32989 10.281 5.20395C10.281 8.07801 7.9795 10.4079 5.14048 10.4079C2.30147 10.4079 0 8.07801 0 5.20395ZM9.26659 5.20401C9.26659 2.8972 7.41935 1.02716 5.14067 1.02716C2.86199 1.02716 1.01476 2.8972 1.01476 5.20401C1.01476 7.51082 2.86199 9.38086 5.14067 9.38086C7.41935 9.38086 9.26659 7.51082 9.26659 5.20401Z" fill="#51565E"/>
</svg>
