<svg width="11" height="11" viewBox="0 0 11 11" fill="none" xmlns="http://www.w3.org/2000/svg">
<path id="Vector" fill-rule="evenodd" clip-rule="evenodd" d="M0.908224 8.79603C0.762078 8.79603 0.621917 8.73798 0.518576 8.63463C0.415234 8.53129 0.357178 8.39113 0.357178 8.24499C0.357178 8.09884 0.415234 7.95868 0.518576 7.85534C0.621917 7.752 0.762078 7.69394 0.908224 7.69394H2.41001C3.04188 7.69394 3.6179 7.33392 3.8949 6.76671L4.51941 5.48975L3.8949 4.2128C3.759 3.93474 3.54777 3.70042 3.28526 3.5365C3.02275 3.37258 2.7195 3.28563 2.41001 3.28557H0.908224C0.762078 3.28557 0.621917 3.22751 0.518576 3.12417C0.415234 3.02083 0.357178 2.88067 0.357178 2.73452C0.357178 2.58838 0.415234 2.44822 0.518576 2.34487C0.621917 2.24153 0.762078 2.18348 0.908224 2.18348H2.41001C2.92588 2.18347 3.43139 2.32829 3.869 2.60146C4.30661 2.87462 4.65874 3.26516 4.88531 3.72861L5.13291 4.23557L5.38052 3.72861C5.60709 3.26516 5.95922 2.87462 6.39683 2.60146C6.83444 2.32829 7.33995 2.18347 7.85582 2.18348H8.76174L8.04905 1.47079C7.94872 1.36681 7.89324 1.22759 7.89457 1.08311C7.89589 0.938627 7.95391 0.800444 8.05612 0.698324C8.15834 0.596203 8.29658 0.538315 8.44106 0.537128C8.58555 0.535941 8.72472 0.59155 8.8286 0.691978L10.4817 2.34512C10.5849 2.44844 10.6429 2.5885 10.6429 2.73452C10.6429 2.88055 10.5849 3.02061 10.4817 3.12393L8.8286 4.77707C8.77815 4.83121 8.71731 4.87463 8.64972 4.90475C8.58212 4.93487 8.50916 4.95106 8.43517 4.95237C8.36118 4.95367 8.28768 4.94006 8.21907 4.91235C8.15045 4.88463 8.08812 4.84338 8.0358 4.79106C7.98347 4.73873 7.94222 4.6764 7.91451 4.60778C7.88679 4.53917 7.87318 4.46568 7.87449 4.39169C7.87579 4.3177 7.89199 4.24473 7.9221 4.17713C7.95222 4.10954 7.99565 4.0487 8.04979 3.99826L8.76247 3.28557H7.85582C7.22395 3.28557 6.64792 3.64559 6.37093 4.2128L4.88531 7.2509C4.65874 7.71435 4.30661 8.10489 3.869 8.37805C3.43139 8.65122 2.92588 8.79604 2.41001 8.79603H0.908224ZM5.78609 7.66308L6.29746 6.61683L6.37093 6.76671C6.50683 7.04477 6.71805 7.27909 6.98056 7.44301C7.24307 7.60693 7.54633 7.69387 7.85582 7.69394H8.76174L8.04905 6.98125C7.99644 6.9304 7.95449 6.86957 7.92565 6.80233C7.8968 6.73509 7.88163 6.66277 7.88103 6.5896C7.88043 6.51643 7.89441 6.44388 7.92215 6.37617C7.94988 6.30846 7.99083 6.24696 8.04259 6.19524C8.09436 6.14353 8.1559 6.10264 8.22364 6.07497C8.29137 6.04729 8.36394 6.03338 8.43711 6.03405C8.51027 6.03472 8.58257 6.04996 8.64979 6.07887C8.717 6.10778 8.77779 6.14979 8.8286 6.20244L10.4817 7.85558C10.5849 7.9589 10.6429 8.09896 10.6429 8.24499C10.6429 8.39101 10.5849 8.53107 10.4817 8.63439L8.8286 10.2875C8.77815 10.3417 8.71731 10.3851 8.64972 10.4152C8.58212 10.4453 8.50916 10.4615 8.43517 10.4628C8.36118 10.4641 8.28768 10.4505 8.21907 10.4228C8.15045 10.3951 8.08812 10.3538 8.0358 10.3015C7.98347 10.2492 7.94222 10.1869 7.91451 10.1182C7.88679 10.0496 7.87318 9.97614 7.87449 9.90215C7.87579 9.82816 7.89199 9.75519 7.9221 9.6876C7.95222 9.62 7.99565 9.55917 8.04979 9.50872L8.76247 8.79603H7.85582C7.44724 8.79609 7.04376 8.70527 6.67461 8.53016C6.30546 8.35505 5.97987 8.10003 5.72143 7.78358C5.74421 7.74464 5.76551 7.70423 5.78609 7.66308Z" fill="#1179EF"/>
</svg>
