<svg width="509" height="308" viewBox="0 0 509 308" fill="none" xmlns="http://www.w3.org/2000/svg">
<path d="M68.9763 192.344H62.9289C58.9695 192.344 55.1722 193.917 52.3729 196.717C49.5728 199.516 48 203.313 48 207.273C48 207.731 48.182 208.171 48.506 208.494C48.83 208.818 49.2697 209 49.7278 209H82.1598C82.618 209 83.0577 208.818 83.3816 208.494C83.7056 208.17 83.8876 207.731 83.8876 207.273C83.8876 203.316 82.3172 199.522 79.521 196.723C76.7257 193.923 72.933 192.348 68.9767 192.344H68.9763Z" fill="#FFBD5C"/>
<path d="M65.9495 189.613C68.1579 189.613 70.276 188.736 71.8379 187.174C73.3999 185.612 74.277 183.494 74.277 181.285C74.277 179.076 73.4 176.958 71.8379 175.396C70.2758 173.834 68.1577 172.957 65.9495 172.957C63.7402 172.957 61.6222 173.834 60.0602 175.396C58.4982 176.958 57.6211 179.076 57.6211 181.285C57.6211 183.494 58.4981 185.612 60.0602 187.174C61.6223 188.736 63.7404 189.613 65.9495 189.613Z" fill="#FFBD5C"/>
<path d="M133.285 192.344H127.237C123.281 192.348 119.488 193.923 116.693 196.723C113.897 199.522 112.326 203.316 112.326 207.273C112.326 207.731 112.508 208.171 112.832 208.494C113.156 208.818 113.596 209 114.054 209H146.486C146.944 209 147.384 208.818 147.708 208.494C148.032 208.17 148.214 207.731 148.214 207.273C148.214 203.313 146.641 199.516 143.841 196.717C141.042 193.917 137.244 192.344 133.285 192.344H133.285Z" fill="#FFBD5C"/>
<path d="M130.262 189.613C132.472 189.618 134.593 188.744 136.158 187.184C137.723 185.624 138.605 183.506 138.608 181.296C138.611 179.087 137.735 176.967 136.174 175.402C134.614 173.838 132.495 172.959 130.285 172.957C128.076 172.955 125.955 173.832 124.392 175.394C122.83 176.956 121.951 179.076 121.951 181.285C121.951 183.491 122.826 185.607 124.384 187.168C125.942 188.729 128.056 189.608 130.262 189.613Z" fill="#FFBD5C"/>
<path d="M81.8839 165.043H114.334C114.792 165.043 115.231 164.861 115.555 164.537C115.879 164.213 116.061 163.773 116.061 163.315C116.057 159.357 114.482 155.563 111.684 152.764C108.885 149.966 105.09 148.391 101.133 148.387H95.0851C91.1273 148.391 87.333 149.966 84.5337 152.764C81.7352 155.563 80.1608 159.357 80.1562 163.315C80.1562 163.773 80.3383 164.213 80.6623 164.537C80.987 164.861 81.4259 165.043 81.8841 165.043H81.8839Z" fill="#FFBD5C"/>
<path d="M98.1055 145.657C100.314 145.657 102.433 144.779 103.994 143.217C105.556 141.655 106.434 139.537 106.434 137.328C106.434 135.119 105.556 133.001 103.994 131.439C102.433 129.878 100.314 129 98.1055 129C95.8972 129 93.7782 129.878 92.217 131.439C90.655 133.001 89.7773 135.119 89.7773 137.328C89.7773 139.537 90.6551 141.655 92.217 143.217C93.7783 144.779 95.8972 145.657 98.1055 145.657Z" fill="#FFBD5C"/>
<path d="M100.127 183.548C99.9398 183.36 99.8347 183.106 99.8347 182.841V172.888C99.8347 171.934 99.0611 171.16 98.1069 171.16C97.1527 171.16 96.3791 171.934 96.3791 172.888V182.841C96.3791 183.106 96.2737 183.36 96.0862 183.548L88.3615 191.273C87.9959 191.586 87.7776 192.037 87.7591 192.518C87.7406 192.999 87.9234 193.466 88.2643 193.806C88.6045 194.147 89.0712 194.329 89.5525 194.311C90.0338 194.292 90.4851 194.074 90.7982 193.708L97.3998 187.122C97.7904 186.733 98.4229 186.733 98.8132 187.123L105.399 193.708C106.084 194.295 107.106 194.256 107.744 193.618C108.382 192.98 108.421 191.957 107.834 191.273L100.127 183.548Z" fill="#FFBD5C"/>
<path d="M65.25 262V255.75H59V254.25H65.25V248H66.75V254.25H73V255.75H66.75V262H65.25Z" fill="#51565E"/>
<path d="M100 255.75V254.25H114V255.75H100Z" fill="#51565E"/>
<path d="M378 169C383.569 169 388.911 166.788 392.849 162.849C396.788 158.911 399 153.569 399 148C399 142.431 396.788 137.089 392.849 133.151C388.911 129.213 383.569 127 378 127C372.431 127 367.089 129.213 363.151 133.151C359.212 137.089 357 142.431 357 148C357.006 153.568 359.221 158.905 363.158 162.842C367.095 166.779 372.432 168.994 378 169ZM376.031 137.098C376.031 137.098 376.031 137.098 376.031 137.098V136.187C376.031 135.099 376.913 134.218 378 134.218C379.088 134.218 379.969 135.099 379.969 136.187V136.339C379.969 136.8 380.286 137.194 380.719 137.351C381.688 137.701 382.575 138.251 383.322 138.97C384.094 139.735 384.099 140.983 383.333 141.754C382.566 142.527 381.319 142.531 380.548 141.765C379.86 141.117 378.945 140.764 378 140.781C377.219 140.706 376.44 140.939 375.828 141.429C375.215 141.918 374.818 142.627 374.719 143.406C374.719 144.415 376.977 145.402 378.788 146.196C381.652 147.449 385.219 149.008 385.219 152.593C385.168 154.078 384.625 155.504 383.674 156.646C382.895 157.581 381.881 158.283 380.742 158.681C380.299 158.836 379.969 159.235 379.969 159.705V159.812C379.969 160.899 379.088 161.781 378 161.781C376.913 161.781 376.031 160.899 376.031 159.812V159.66C376.031 159.199 375.714 158.805 375.28 158.648C374.311 158.298 373.424 157.748 372.677 157.029C371.905 156.263 371.9 155.017 372.666 154.245C373.432 153.473 374.678 153.468 375.45 154.234C376.139 154.882 377.054 155.236 378 155.218C378.781 155.293 379.56 155.06 380.172 154.57C380.785 154.08 381.182 153.371 381.281 152.593C381.281 151.584 379.024 150.597 377.213 149.803C374.347 148.55 370.781 146.99 370.781 143.406C370.832 141.921 371.375 140.495 372.326 139.353C373.277 138.211 374.58 137.417 376.031 137.098C376.031 137.098 376.031 137.098 376.031 137.098V137.098Z" fill="#FFBD5C"/>
<path d="M412.095 173.178C412.094 173.178 412.093 173.178 412.092 173.177C410.749 172.821 409.317 173.007 408.114 173.693L396.569 180.235C396.323 180.375 396.15 180.613 396.076 180.886C395.987 181.214 395.881 181.537 395.759 181.854C395.118 183.599 393.945 185.108 392.399 186.174C390.853 187.239 389.01 187.811 387.12 187.81H371.469C371.404 187.81 371.34 187.816 371.277 187.831C370.664 187.97 370.104 188.28 369.666 188.725C369.15 189.213 368.331 189.204 367.826 188.706C367.32 188.208 367.315 187.404 367.814 186.899C368.764 185.951 370.024 185.362 371.372 185.234H387.12C388.477 185.233 389.8 184.82 390.908 184.051C392.016 183.282 392.855 182.195 393.309 180.94C393.599 180.143 393.778 179.314 393.842 178.473C393.882 177.934 393.434 177.504 392.893 177.504H377.933C375.631 177.611 373.349 177.032 371.39 175.841C368.61 174.232 365.407 173.466 362.185 173.639C355.846 173.639 350.151 177.742 346.824 181.148C346.478 181.503 345.895 181.481 345.59 181.091V181.091C345.167 180.55 344.542 180.196 343.853 180.106C343.164 180.016 342.467 180.198 341.915 180.613L335.652 185.314C335.106 185.725 334.747 186.331 334.652 187.001C334.605 187.336 334.627 187.673 334.711 187.994C334.852 188.53 334.79 189.163 334.347 189.496L332.525 190.87C332.197 191.112 332.002 191.49 332 191.893V209.712C332 210.053 332.138 210.381 332.384 210.623C332.63 210.864 332.964 211 333.312 211H348.642C348.932 211.001 349.213 210.907 349.442 210.735L351.176 209.43C351.176 209.43 351.176 209.43 351.176 209.43V209.43C351.176 209.43 351.176 209.43 351.176 209.43C351.603 209.96 352.225 210.304 352.908 210.387C353.59 210.471 354.28 210.289 354.827 209.879L361.077 205.178C361.629 204.763 361.99 204.149 362.08 203.473C362.172 202.797 361.986 202.113 361.564 201.571L361.292 201.221C361.291 201.221 361.292 201.22 361.292 201.22V201.22C361.292 201.22 361.292 201.22 361.292 201.22C363.828 199.34 366.885 198.258 370.06 198.117H382.278C384.822 198.116 387.32 197.457 389.521 196.205L413.369 182.625C414.577 181.942 415.46 180.815 415.821 179.493C416.182 178.171 415.992 176.762 415.293 175.577C414.595 174.393 413.446 173.53 412.098 173.178C412.097 173.178 412.096 173.178 412.095 173.178V173.178ZM354.016 207.242C353.581 207.571 352.962 207.489 352.627 207.059L345.241 197.602L338.023 188.355L337.873 188.161C337.531 187.72 337.616 187.084 338.062 186.749L342.714 183.249C343.15 182.921 343.769 183.003 344.104 183.433L345.075 184.679L358.4 201.747L358.852 202.326C359.195 202.767 359.111 203.403 358.665 203.74L354.016 207.242Z" fill="#FFBD5C"/>
<rect x="289" y="43" width="48" height="48" rx="24" fill="#272C37"/>
<path d="M315.398 57.9023V75H312.023V61.793L307.969 63.082V60.4219L315.035 57.9023H315.398Z" fill="#FEFEFF"/>
<path d="M270.413 172.767C270.463 172.931 270.473 173.105 270.428 173.27C270.194 174.117 269.715 174.879 269.048 175.457L267.679 176.678C267.332 176.987 266.817 177.016 266.437 176.748L240.412 158.362C240.175 158.195 239.877 158.136 239.6 158.219C238.738 158.477 237.919 158.866 237.173 159.373L228.986 164.068C228.986 164.069 228.985 164.069 228.985 164.069V164.069C228.985 164.069 228.985 164.069 228.985 164.069C228.394 164.377 227.734 164.526 227.069 164.499C224.575 164.463 222.193 163.455 220.43 161.69C220.245 161.483 220.154 161.208 220.18 160.931C220.207 160.655 220.347 160.401 220.568 160.233L234.029 151.025C234.029 151.025 234.029 151.024 234.03 151.024V151.024C234.03 151.024 234.03 151.024 234.03 151.024C235.309 150.385 236.698 149.994 238.123 149.873L257.887 145.883C258.644 145.674 259.444 145.674 260.202 145.883C261.271 146.136 262.177 146.836 262.693 147.803C262.719 147.853 262.74 147.905 262.756 147.959L270.413 172.767Z" fill="#FFBD5C"/>
<path d="M282.909 170.202C282.909 170.202 282.909 170.202 282.909 170.202L274.172 172.878C273.643 173.039 273.083 172.742 272.922 172.213L264.861 145.736C264.7 145.208 264.997 144.65 265.525 144.489L281.609 139.563C282.138 139.401 282.698 139.699 282.859 140.228L288.676 159.335C289.349 161.543 289.119 163.928 288.037 165.967C286.956 168.004 285.112 169.528 282.91 170.202C282.91 170.202 282.909 170.202 282.909 170.202V170.202Z" fill="#FFBD5C"/>
<path d="M199.744 139.94C199.935 139.421 200.511 139.155 201.03 139.347L214.664 144.385C215.182 144.577 215.447 145.151 215.256 145.669L206.969 168.195C206.779 168.713 206.203 168.979 205.684 168.787L197.401 165.726C195.723 165.123 194.357 163.87 193.61 162.248C192.864 160.626 192.799 158.771 193.431 157.101L199.744 139.94Z" fill="#FFBD5C"/>
<path d="M268.067 183.242C268.067 183.243 268.067 183.243 268.067 183.243C268.071 184.346 267.629 185.404 266.843 186.175C266.124 186.844 265.195 187.243 264.215 187.301C263.252 187.359 262.297 187.085 261.51 186.525C261.486 186.507 261.456 186.498 261.426 186.498V186.498C261.397 186.498 261.368 186.488 261.344 186.472L261.275 186.423C260.897 186.155 260.005 186.856 260.017 187.319C260.018 187.352 260.019 187.386 260.019 187.419C260.026 187.552 260.026 187.685 260.019 187.818C259.949 188.49 259.712 189.134 259.33 189.691C258.878 190.334 258.251 190.834 257.524 191.131C256.797 191.427 256.001 191.508 255.23 191.365C254.678 191.249 254.157 191.018 253.7 190.689L252.583 189.906L251.389 189.062C251.389 189.062 251.389 189.062 251.389 189.062V189.062C251.389 189.062 251.389 189.062 251.389 189.062C251.618 189.462 251.778 189.898 251.863 190.351C252.072 191.437 251.835 192.56 251.207 193.468C250.578 194.376 249.612 194.99 248.525 195.172C247.439 195.354 246.325 195.088 245.437 194.435L243.998 193.422C243.998 193.422 243.998 193.422 243.998 193.422V193.422C243.998 193.422 243.998 193.422 243.998 193.422C244.191 193.911 244.29 194.432 244.289 194.957V195.156V195.157C244.252 196.012 243.947 196.834 243.417 197.506C242.715 198.325 241.731 198.848 240.662 198.971C239.592 199.094 238.515 198.806 237.648 198.166L223.066 188.033C222.792 187.835 219.907 184.789 219.868 184.748C219.866 184.746 219.867 184.747 219.865 184.745L210.013 174.231C210.013 174.231 210.013 174.231 210.013 174.231V174.231C210.013 174.231 210.013 174.23 210.013 174.23C209.325 173.562 208.852 172.705 208.653 171.769C208.617 171.603 208.636 171.43 208.695 171.27L218.37 144.922C218.389 144.871 218.412 144.822 218.44 144.775C218.817 144.139 219.359 143.616 220.009 143.263C220.681 142.896 221.444 142.727 222.209 142.773L240.019 143.909C240.02 143.909 240.02 143.909 240.02 143.909V143.909C240.019 143.909 240.02 143.909 240.02 143.909C240.503 143.941 240.976 144.06 241.417 144.259C241.444 144.271 241.472 144.281 241.501 144.29C241.756 144.363 242.003 144.462 242.238 144.584V144.584C242.946 145.02 242.757 146.097 241.943 146.264L236.745 147.333C235.229 147.486 233.767 147.974 232.461 148.761L219.026 157.972C219.026 157.972 219.026 157.972 219.026 157.972V157.972C219.025 157.972 219.025 157.972 219.025 157.972C218.207 158.517 217.652 159.379 217.495 160.352C217.337 161.378 217.602 162.426 218.23 163.253C220.494 165.694 223.66 167.093 226.982 167.122C228.123 167.165 229.254 166.899 230.257 166.354L238.413 161.672L238.962 161.358C239.299 161.166 239.717 161.186 240.035 161.409L266.827 180.317C266.878 180.353 266.926 180.393 266.968 180.439C267.065 180.544 267.156 180.655 267.24 180.771C267.775 181.483 268.064 182.35 268.066 183.242C268.066 183.242 268.067 183.242 268.067 183.242V183.242Z" fill="#FFBD5C"/>
<g filter="url(#filter0_d_352_4155)">
<path d="M158.575 254.975L153.675 259.875C153.492 260.058 153.258 260.15 152.975 260.15C152.692 260.15 152.458 260.058 152.275 259.875C152.092 259.692 152 259.458 152 259.175C152 258.892 152.092 258.658 152.275 258.475L157.175 253.575L152.275 248.675C152.092 248.492 152 248.258 152 247.975C152 247.692 152.092 247.458 152.275 247.275C152.458 247.092 152.692 247 152.975 247C153.258 247 153.492 247.092 153.675 247.275L158.575 252.175L163.475 247.275C163.658 247.092 163.892 247 164.175 247C164.458 247 164.692 247.092 164.875 247.275C165.058 247.458 165.15 247.692 165.15 247.975C165.15 248.258 165.058 248.492 164.875 248.675L159.975 253.575L164.875 258.475C165.058 258.658 165.15 258.892 165.15 259.175C165.15 259.458 165.058 259.692 164.875 259.875C164.692 260.058 164.458 260.15 164.175 260.15C163.892 260.15 163.658 260.058 163.475 259.875L158.575 254.975Z" fill="white"/>
</g>
<rect x="363" y="43" width="48" height="48" rx="24" fill="#272C37"/>
<path d="M392.844 72.3633V75H381.172V72.75L386.691 66.832C387.246 66.2148 387.684 65.6719 388.004 65.2031C388.324 64.7266 388.555 64.3008 388.695 63.9258C388.844 63.543 388.918 63.1797 388.918 62.8359C388.918 62.3203 388.832 61.8789 388.66 61.5117C388.488 61.1367 388.234 60.8477 387.898 60.6445C387.57 60.4414 387.164 60.3398 386.68 60.3398C386.164 60.3398 385.719 60.4648 385.344 60.7148C384.977 60.9648 384.695 61.3125 384.5 61.7578C384.312 62.2031 384.219 62.707 384.219 63.2695H380.832C380.832 62.2539 381.074 61.3242 381.559 60.4805C382.043 59.6289 382.727 58.9531 383.609 58.4531C384.492 57.9453 385.539 57.6914 386.75 57.6914C387.945 57.6914 388.953 57.8867 389.773 58.2773C390.602 58.6602 391.227 59.2148 391.648 59.9414C392.078 60.6602 392.293 61.5195 392.293 62.5195C392.293 63.082 392.203 63.6328 392.023 64.1719C391.844 64.7031 391.586 65.2344 391.25 65.7656C390.922 66.2891 390.523 66.8203 390.055 67.3594C389.586 67.8984 389.066 68.457 388.496 69.0352L385.531 72.3633H392.844Z" fill="#FEFEFF"/>
<rect x="437" y="43" width="48" height="48" rx="24" fill="#272C37"/>
<path d="M458.629 65.0039H460.434C461.012 65.0039 461.488 64.9062 461.863 64.7109C462.238 64.5078 462.516 64.2266 462.695 63.8672C462.883 63.5 462.977 63.0742 462.977 62.5898C462.977 62.1523 462.891 61.7656 462.719 61.4297C462.555 61.0859 462.301 60.8203 461.957 60.6328C461.613 60.4375 461.18 60.3398 460.656 60.3398C460.242 60.3398 459.859 60.4219 459.508 60.5859C459.156 60.75 458.875 60.9805 458.664 61.2773C458.453 61.5742 458.348 61.9336 458.348 62.3555H454.961C454.961 61.418 455.211 60.6016 455.711 59.9062C456.219 59.2109 456.898 58.668 457.75 58.2773C458.602 57.8867 459.539 57.6914 460.562 57.6914C461.719 57.6914 462.73 57.8789 463.598 58.2539C464.465 58.6211 465.141 59.1641 465.625 59.8828C466.109 60.6016 466.352 61.4922 466.352 62.5547C466.352 63.0938 466.227 63.6172 465.977 64.125C465.727 64.625 465.367 65.0781 464.898 65.4844C464.438 65.8828 463.875 66.2031 463.211 66.4453C462.547 66.6797 461.801 66.7969 460.973 66.7969H458.629V65.0039ZM458.629 67.5703V65.8242H460.973C461.902 65.8242 462.719 65.9297 463.422 66.1406C464.125 66.3516 464.715 66.6562 465.191 67.0547C465.668 67.4453 466.027 67.9102 466.27 68.4492C466.512 68.9805 466.633 69.5703 466.633 70.2188C466.633 71.0156 466.48 71.7266 466.176 72.3516C465.871 72.9688 465.441 73.4922 464.887 73.9219C464.34 74.3516 463.699 74.6797 462.965 74.9062C462.23 75.125 461.43 75.2344 460.562 75.2344C459.844 75.2344 459.137 75.1367 458.441 74.9414C457.754 74.7383 457.129 74.4375 456.566 74.0391C456.012 73.6328 455.566 73.125 455.23 72.5156C454.902 71.8984 454.738 71.168 454.738 70.3242H458.125C458.125 70.7617 458.234 71.1523 458.453 71.4961C458.672 71.8398 458.973 72.1094 459.355 72.3047C459.746 72.5 460.18 72.5977 460.656 72.5977C461.195 72.5977 461.656 72.5 462.039 72.3047C462.43 72.1016 462.727 71.8203 462.93 71.4609C463.141 71.0938 463.246 70.668 463.246 70.1836C463.246 69.5586 463.133 69.0586 462.906 68.6836C462.68 68.3008 462.355 68.0195 461.934 67.8398C461.512 67.6602 461.012 67.5703 460.434 67.5703H458.629Z" fill="#FEFEFF"/>
<path d="M138.893 63L140.772 59.7525C140.997 59.3618 141.059 58.8973 140.942 58.4614C140.826 58.0254 140.541 57.6535 140.15 57.4275L136.9 55.5484V51.8039C136.9 51.3525 136.72 50.9196 136.401 50.6004C136.082 50.2812 135.649 50.1019 135.198 50.1019H131.455L129.578 46.8527C129.351 46.4628 128.98 46.1778 128.544 46.0595C128.329 46.001 128.103 45.9859 127.881 46.0151C127.66 46.0443 127.446 46.1173 127.253 46.2297L124.002 48.1088L120.751 46.228C120.36 46.0023 119.896 45.9412 119.46 46.058C119.024 46.1748 118.652 46.4601 118.426 46.851L116.547 50.1019H112.804C112.353 50.1019 111.92 50.2812 111.601 50.6004C111.282 50.9196 111.102 51.3525 111.102 51.8039V55.5467L107.852 57.4258C107.658 57.5374 107.488 57.6862 107.351 57.8637C107.215 58.0411 107.115 58.2438 107.057 58.46C107 58.6762 106.985 58.9017 107.015 59.1235C107.045 59.3453 107.118 59.5591 107.23 59.7525L109.109 63L107.23 66.2475C107.006 66.6386 106.945 67.1026 107.061 67.5385C107.177 67.9743 107.461 68.3466 107.85 68.5742L111.101 70.4532V74.196C111.101 74.6474 111.28 75.0804 111.599 75.3996C111.918 75.7187 112.351 75.8981 112.803 75.8981H116.547L118.426 79.149C118.577 79.4066 118.792 79.6205 119.05 79.7697C119.309 79.9189 119.602 79.9983 119.9 80C120.196 80 120.491 79.9217 120.753 79.7702L124 77.8912L127.251 79.7702C127.642 79.9956 128.106 80.0568 128.542 79.9403C128.978 79.8238 129.35 79.5393 129.576 79.149L131.453 75.8981H135.196C135.647 75.8981 136.08 75.7187 136.399 75.3996C136.719 75.0804 136.898 74.6474 136.898 74.196V70.4532L140.149 68.5742C140.342 68.4623 140.512 68.3133 140.648 68.1358C140.784 67.9583 140.884 67.7557 140.941 67.5396C140.999 67.3235 141.014 67.0982 140.984 66.8765C140.955 66.6547 140.882 66.441 140.77 66.2475L138.893 63ZM119.745 54.4727C120.422 54.473 121.072 54.7422 121.551 55.2214C122.03 55.7005 122.298 56.3502 122.298 57.0275C122.298 57.7048 122.029 58.3544 121.55 58.8331C121.07 59.3119 120.421 59.5808 119.743 59.5806C119.066 59.5803 118.417 59.3111 117.938 58.8319C117.459 58.3528 117.19 57.7031 117.19 57.0258C117.191 56.3485 117.46 55.6989 117.939 55.2202C118.418 54.7414 119.068 54.4725 119.745 54.4727V54.4727ZM120.256 70.8124L117.533 68.7716L127.745 55.1553L130.468 57.196L120.256 70.8124ZM128.255 71.4932C127.92 71.4931 127.588 71.4269 127.278 71.2984C126.968 71.17 126.687 70.9818 126.45 70.7446C126.212 70.5073 126.024 70.2257 125.896 69.9158C125.768 69.6059 125.702 69.2738 125.702 68.9384C125.702 68.603 125.768 68.2709 125.897 67.9611C126.025 67.6513 126.214 67.3698 126.451 67.1328C126.688 66.8957 126.97 66.7077 127.279 66.5794C127.589 66.4512 127.921 66.3852 128.257 66.3853C128.934 66.3856 129.584 66.6549 130.062 67.134C130.541 67.6131 130.81 68.2628 130.81 68.9401C130.81 69.6175 130.54 70.267 130.061 70.7458C129.582 71.2245 128.932 71.4934 128.255 71.4932V71.4932Z" fill="#FCB601"/>
<path d="M60.2783 50.4344L62.5213 54.25H57.7969C56.3725 54.25 55.2188 53.0963 55.2188 51.6719C55.2188 50.2475 56.3725 49.0938 57.7969 49.0938H57.9387C58.899 49.0938 59.7949 49.6029 60.2783 50.4344ZM52.125 51.6719C52.125 52.6 52.3506 53.4766 52.7437 54.25H50.0625C48.9217 54.25 48 55.1717 48 56.3125V60.4375C48 61.5783 48.9217 62.5 50.0625 62.5H78.9375C80.0783 62.5 81 61.5783 81 60.4375V56.3125C81 55.1717 80.0783 54.25 78.9375 54.25H76.2562C76.6494 53.4766 76.875 52.6 76.875 51.6719C76.875 48.5395 74.3355 46 71.2031 46H71.0613C69.0053 46 67.0975 47.0893 66.0533 48.8617L64.5 51.5107L62.9467 48.8682C61.9025 47.0893 59.9947 46 57.9387 46H57.7969C54.6645 46 52.125 48.5395 52.125 51.6719ZM73.7812 51.6719C73.7812 53.0963 72.6275 54.25 71.2031 54.25H66.4787L68.7217 50.4344C69.2115 49.6029 70.101 49.0938 71.0613 49.0938H71.2031C72.6275 49.0938 73.7812 50.2475 73.7812 51.6719ZM50.0625 64.5625V75.9062C50.0625 77.6143 51.4482 79 53.1562 79H62.4375V64.5625H50.0625ZM66.5625 79H75.8438C77.5518 79 78.9375 77.6143 78.9375 75.9062V64.5625H66.5625V79Z" fill="#FCB601"/>
<path d="M177.047 54H188.435C189.275 54 190.036 54.3343 190.588 54.8739C191.139 55.4127 191.482 56.1579 191.482 56.9771V59.1794H194.953C195.792 59.1794 196.554 59.5138 197.106 60.0533C197.657 60.5922 198 61.3374 198 62.1566V77.2047C198 78.0239 197.658 78.7689 197.106 79.3079C196.554 79.8467 195.792 80.1818 194.953 80.1818H183.565C182.725 80.1818 181.964 79.8475 181.412 79.3079C180.861 78.7681 180.518 78.0239 180.518 77.2047V75.0024H177.047C176.208 75.0024 175.446 74.6673 174.894 74.1285C174.343 73.5897 174 72.8445 174 72.0253V56.9771C174 56.1572 174.342 55.4129 174.894 54.8739C175.446 54.3351 176.208 54 177.047 54V54ZM191.482 60.9343V72.0251C191.482 72.8443 191.14 73.5893 190.588 74.1283C190.036 74.6671 189.274 75.0022 188.435 75.0022H182.314V77.2045C182.314 77.5396 182.455 77.8448 182.681 78.0671C182.909 78.2887 183.221 78.4264 183.564 78.4264H194.953C195.296 78.4264 195.608 78.2887 195.836 78.0671C196.063 77.8448 196.203 77.5396 196.203 77.2045V62.1564C196.203 61.8213 196.062 61.5161 195.836 61.2937C195.608 61.0722 195.296 60.9345 194.953 60.9345H191.482L191.482 60.9343ZM188.435 55.7553H177.047C176.704 55.7553 176.391 55.8929 176.164 56.1145C175.936 56.3368 175.796 56.6421 175.796 56.9771V72.0253C175.796 72.3603 175.937 72.6656 176.164 72.8872C176.391 73.1095 176.704 73.2471 177.047 73.2471H188.434C188.777 73.2471 189.089 73.1095 189.317 72.8872C189.544 72.6656 189.685 72.3604 189.685 72.0253V56.9771C189.685 56.6421 189.544 56.3368 189.317 56.1145C189.089 55.8922 188.777 55.7553 188.434 55.7553H188.435Z" fill="#1179EF"/>
<path fill-rule="evenodd" clip-rule="evenodd" d="M224 67C224 58.1634 231.163 51 240 51V51C248.837 51 256 58.1634 256 67V67C256 75.8366 248.837 83 240 83V83C231.163 83 224 75.8366 224 67V67Z" fill="white" stroke="#D7D7D7"/>
<path d="M233.629 67.3838V67.2266C233.629 66.6934 233.706 66.1989 233.861 65.7432C234.016 65.2829 234.24 64.8841 234.531 64.5469C234.823 64.2051 235.176 63.9408 235.591 63.7539C236.006 63.5625 236.47 63.4668 236.985 63.4668C237.505 63.4668 237.972 63.5625 238.387 63.7539C238.806 63.9408 239.161 64.2051 239.453 64.5469C239.749 64.8841 239.975 65.2829 240.13 65.7432C240.285 66.1989 240.362 66.6934 240.362 67.2266V67.3838C240.362 67.917 240.285 68.4115 240.13 68.8672C239.975 69.3229 239.749 69.7217 239.453 70.0635C239.161 70.4007 238.808 70.665 238.394 70.8564C237.983 71.0433 237.519 71.1367 236.999 71.1367C236.479 71.1367 236.012 71.0433 235.598 70.8564C235.183 70.665 234.827 70.4007 234.531 70.0635C234.24 69.7217 234.016 69.3229 233.861 68.8672C233.706 68.4115 233.629 67.917 233.629 67.3838ZM234.894 67.2266V67.3838C234.894 67.7529 234.937 68.1016 235.023 68.4297C235.11 68.7533 235.24 69.0404 235.413 69.291C235.591 69.5417 235.812 69.7399 236.076 69.8857C236.34 70.027 236.648 70.0977 236.999 70.0977C237.345 70.0977 237.648 70.027 237.908 69.8857C238.173 69.7399 238.391 69.5417 238.564 69.291C238.738 69.0404 238.868 68.7533 238.954 68.4297C239.045 68.1016 239.091 67.7529 239.091 67.3838V67.2266C239.091 66.862 239.045 66.5179 238.954 66.1943C238.868 65.8662 238.735 65.5768 238.558 65.3262C238.384 65.071 238.166 64.8704 237.901 64.7246C237.642 64.5788 237.336 64.5059 236.985 64.5059C236.639 64.5059 236.334 64.5788 236.069 64.7246C235.81 64.8704 235.591 65.071 235.413 65.3262C235.24 65.5768 235.11 65.8662 235.023 66.1943C234.937 66.5179 234.894 66.862 234.894 67.2266ZM243.213 64.7656V71H241.948V63.6035H243.179L243.213 64.7656ZM245.523 63.5625L245.517 64.7383C245.412 64.7155 245.312 64.7018 245.216 64.6973C245.125 64.6882 245.02 64.6836 244.901 64.6836C244.61 64.6836 244.352 64.7292 244.129 64.8203C243.906 64.9115 243.716 65.0391 243.562 65.2031C243.407 65.3672 243.284 65.5632 243.192 65.791C243.106 66.0143 243.049 66.2604 243.021 66.5293L242.666 66.7344C242.666 66.2878 242.709 65.8685 242.796 65.4766C242.887 65.0846 243.026 64.7383 243.213 64.4375C243.4 64.1322 243.637 63.8952 243.924 63.7266C244.215 63.5534 244.562 63.4668 244.963 63.4668C245.054 63.4668 245.159 63.4782 245.277 63.501C245.396 63.5192 245.478 63.5397 245.523 63.5625Z" fill="#272C37"/>
<circle cx="339.955" cy="285.241" r="2.95528" transform="rotate(180 339.955 285.241)" fill="white" fill-opacity="0.2"/>
<circle cx="422.318" cy="285.241" r="2.95528" transform="rotate(180 422.318 285.241)" fill="white" fill-opacity="0.02"/>
<circle cx="410.5" cy="285.241" r="2.95528" transform="rotate(180 410.5 285.241)" fill="white" fill-opacity="0.03"/>
<circle cx="398.683" cy="285.241" r="2.95528" transform="rotate(180 398.683 285.241)" fill="white" fill-opacity="0.04"/>
<circle cx="386.857" cy="285.241" r="2.95528" transform="rotate(180 386.857 285.241)" fill="white" fill-opacity="0.07"/>
<circle cx="375.037" cy="285.241" r="2.95528" transform="rotate(180 375.037 285.241)" fill="white" fill-opacity="0.09"/>
<circle cx="363.217" cy="285.241" r="2.95528" transform="rotate(180 363.217 285.241)" fill="white" fill-opacity="0.12"/>
<circle cx="351.396" cy="285.241" r="2.95528" transform="rotate(180 351.396 285.241)" fill="white" fill-opacity="0.2"/>
<circle cx="339.955" cy="273.421" r="2.95528" transform="rotate(180 339.955 273.421)" fill="white" fill-opacity="0.2"/>
<circle cx="422.318" cy="273.421" r="2.95528" transform="rotate(180 422.318 273.421)" fill="white" fill-opacity="0.02"/>
<circle cx="410.5" cy="273.421" r="2.95528" transform="rotate(180 410.5 273.421)" fill="white" fill-opacity="0.03"/>
<circle cx="398.683" cy="273.421" r="2.95528" transform="rotate(180 398.683 273.421)" fill="white" fill-opacity="0.04"/>
<circle cx="386.857" cy="273.421" r="2.95528" transform="rotate(180 386.857 273.421)" fill="white" fill-opacity="0.07"/>
<circle cx="375.037" cy="273.421" r="2.95528" transform="rotate(180 375.037 273.421)" fill="white" fill-opacity="0.09"/>
<circle cx="363.217" cy="273.421" r="2.95528" transform="rotate(180 363.217 273.421)" fill="white" fill-opacity="0.12"/>
<circle cx="351.396" cy="273.421" r="2.95528" transform="rotate(180 351.396 273.421)" fill="white" fill-opacity="0.2"/>
<circle cx="339.955" cy="261.598" r="2.95528" transform="rotate(180 339.955 261.598)" fill="white" fill-opacity="0.2"/>
<circle cx="422.318" cy="261.598" r="2.95528" transform="rotate(180 422.318 261.598)" fill="white" fill-opacity="0.02"/>
<circle cx="410.5" cy="261.598" r="2.95528" transform="rotate(180 410.5 261.598)" fill="white" fill-opacity="0.03"/>
<circle cx="398.683" cy="261.598" r="2.95528" transform="rotate(180 398.683 261.598)" fill="white" fill-opacity="0.04"/>
<circle cx="386.857" cy="261.598" r="2.95528" transform="rotate(180 386.857 261.598)" fill="white" fill-opacity="0.07"/>
<circle cx="375.037" cy="261.598" r="2.95528" transform="rotate(180 375.037 261.598)" fill="white" fill-opacity="0.09"/>
<circle cx="363.217" cy="261.598" r="2.95528" transform="rotate(180 363.217 261.598)" fill="white" fill-opacity="0.12"/>
<circle cx="351.396" cy="261.598" r="2.95528" transform="rotate(180 351.396 261.598)" fill="white" fill-opacity="0.2"/>
<circle cx="339.955" cy="249.778" r="2.95528" transform="rotate(180 339.955 249.778)" fill="white" fill-opacity="0.2"/>
<circle cx="422.318" cy="249.778" r="2.95528" transform="rotate(180 422.318 249.778)" fill="white" fill-opacity="0.02"/>
<circle cx="410.5" cy="249.778" r="2.95528" transform="rotate(180 410.5 249.778)" fill="white" fill-opacity="0.03"/>
<circle cx="398.683" cy="249.778" r="2.95528" transform="rotate(180 398.683 249.778)" fill="white" fill-opacity="0.04"/>
<circle cx="386.857" cy="249.778" r="2.95528" transform="rotate(180 386.857 249.778)" fill="white" fill-opacity="0.07"/>
<circle cx="375.037" cy="249.778" r="2.95528" transform="rotate(180 375.037 249.778)" fill="white" fill-opacity="0.09"/>
<circle cx="363.217" cy="249.778" r="2.95528" transform="rotate(180 363.217 249.778)" fill="white" fill-opacity="0.12"/>
<circle cx="351.396" cy="249.778" r="2.95528" transform="rotate(180 351.396 249.778)" fill="white" fill-opacity="0.2"/>
<circle cx="339.955" cy="237.955" r="2.95528" transform="rotate(180 339.955 237.955)" fill="white" fill-opacity="0.2"/>
<circle cx="422.318" cy="237.955" r="2.95528" transform="rotate(180 422.318 237.955)" fill="white" fill-opacity="0.02"/>
<circle cx="410.5" cy="237.955" r="2.95528" transform="rotate(180 410.5 237.955)" fill="white" fill-opacity="0.03"/>
<circle cx="398.683" cy="237.955" r="2.95528" transform="rotate(180 398.683 237.955)" fill="white" fill-opacity="0.04"/>
<circle cx="386.857" cy="237.955" r="2.95528" transform="rotate(180 386.857 237.955)" fill="white" fill-opacity="0.07"/>
<circle cx="375.037" cy="237.955" r="2.95528" transform="rotate(180 375.037 237.955)" fill="white" fill-opacity="0.09"/>
<circle cx="363.217" cy="237.955" r="2.95528" transform="rotate(180 363.217 237.955)" fill="white" fill-opacity="0.12"/>
<circle cx="351.396" cy="237.955" r="2.95528" transform="rotate(180 351.396 237.955)" fill="white" fill-opacity="0.2"/>
<path d="M208 248C203.582 248 200 251.582 200 256C200 257.501 200.422 258.9 201.141 260.1L200.072 264L204.055 262.954C205.22 263.617 206.564 264 208 264C212.418 264 216 260.418 216 256C216 251.582 212.418 248 208 248ZM205.262 252.268C205.392 252.268 205.525 252.267 205.641 252.273C205.783 252.277 205.939 252.287 206.087 252.616C206.264 253.007 206.649 253.987 206.698 254.086C206.747 254.185 206.782 254.302 206.714 254.432C206.648 254.566 206.614 254.646 206.518 254.764C206.419 254.879 206.31 255.021 206.22 255.108C206.121 255.207 206.018 255.316 206.133 255.514C206.247 255.712 206.646 256.361 207.234 256.885C207.991 257.561 208.629 257.769 208.828 257.868C209.027 257.968 209.142 257.952 209.257 257.819C209.375 257.689 209.752 257.243 209.885 257.044C210.015 256.846 210.148 256.88 210.328 256.945C210.511 257.011 211.485 257.491 211.684 257.59C211.882 257.689 212.013 257.738 212.063 257.819C212.114 257.902 212.114 258.299 211.949 258.762C211.785 259.224 210.976 259.67 210.613 259.702C210.247 259.736 209.906 259.866 208.234 259.208C206.218 258.414 204.947 256.349 204.848 256.216C204.748 256.086 204.04 255.143 204.04 254.169C204.04 253.193 204.552 252.714 204.732 252.516C204.914 252.317 205.128 252.268 205.262 252.268Z" fill="#848DA0"/>
<g clip-path="url(#clip0_352_4155)">
<path d="M250.25 247.25H235.246C234.559 247.25 234 247.816 234 248.512V263.488C234 264.184 234.559 264.75 235.246 264.75H250.25C250.938 264.75 251.5 264.184 251.5 263.488V248.512C251.5 247.816 250.938 247.25 250.25 247.25ZM239.289 262.25H236.695V253.898H239.293V262.25H239.289ZM237.992 252.758C237.16 252.758 236.488 252.082 236.488 251.254C236.488 250.426 237.16 249.75 237.992 249.75C238.82 249.75 239.496 250.426 239.496 251.254C239.496 252.086 238.824 252.758 237.992 252.758ZM249.012 262.25H246.418V258.188C246.418 257.219 246.398 255.973 245.07 255.973C243.719 255.973 243.512 257.027 243.512 258.117V262.25H240.918V253.898H243.406V255.039H243.441C243.789 254.383 244.637 253.691 245.898 253.691C248.523 253.691 249.012 255.422 249.012 257.672V262.25Z" fill="#848DA0"/>
</g>
<g clip-path="url(#clip1_352_4155)">
<path d="M285.444 251.927C285.457 252.104 285.457 252.282 285.457 252.46C285.457 257.878 281.332 264.122 273.794 264.122C271.472 264.122 269.315 263.449 267.5 262.282C267.83 262.32 268.147 262.333 268.49 262.333C270.406 262.333 272.17 261.686 273.579 260.581C271.777 260.543 270.266 259.363 269.746 257.739C270 257.777 270.254 257.802 270.52 257.802C270.888 257.802 271.256 257.751 271.599 257.663C269.721 257.282 268.312 255.632 268.312 253.64V253.589C268.858 253.894 269.492 254.084 270.165 254.109C269.061 253.373 268.338 252.117 268.338 250.696C268.338 249.934 268.541 249.236 268.896 248.627C270.914 251.114 273.947 252.739 277.348 252.916C277.284 252.612 277.246 252.295 277.246 251.977C277.246 249.718 279.074 247.878 281.345 247.878C282.525 247.878 283.591 248.373 284.34 249.173C285.266 248.995 286.155 248.653 286.942 248.183C286.637 249.135 285.99 249.934 285.14 250.442C285.964 250.353 286.764 250.125 287.5 249.807C286.942 250.62 286.244 251.343 285.444 251.927Z" fill="#848DA0"/>
</g>
<path d="M313.313 257.125L313.813 253.867H310.688V251.753C310.688 250.862 311.124 249.994 312.524 249.994H313.945V247.22C313.945 247.22 312.656 247 311.423 247C308.849 247 307.166 248.56 307.166 251.385V253.867H304.305V257.125H307.166V265H310.688V257.125H313.313Z" fill="#848DA0"/>
<path d="M336.999 247C334.104 247 331.75 249.356 331.75 252.251V259.751C331.75 262.646 334.106 265 337.001 265H344.501C347.396 265 349.75 262.644 349.75 259.749V252.249C349.75 249.354 347.394 247 344.499 247H336.999ZM346 250C346.414 250 346.75 250.336 346.75 250.75C346.75 251.164 346.414 251.5 346 251.5C345.586 251.5 345.25 251.164 345.25 250.75C345.25 250.336 345.586 250 346 250ZM340.75 251.5C343.232 251.5 345.25 253.518 345.25 256C345.25 258.482 343.232 260.5 340.75 260.5C338.268 260.5 336.25 258.482 336.25 256C336.25 253.518 338.268 251.5 340.75 251.5ZM340.75 253C339.954 253 339.191 253.316 338.629 253.879C338.066 254.441 337.75 255.204 337.75 256C337.75 256.796 338.066 257.559 338.629 258.121C339.191 258.684 339.954 259 340.75 259C341.546 259 342.309 258.684 342.871 258.121C343.434 257.559 343.75 256.796 343.75 256C343.75 255.204 343.434 254.441 342.871 253.879C342.309 253.316 341.546 253 340.75 253Z" fill="#848DA0"/>
<defs>
<filter id="filter0_d_352_4155" x="151" y="247" width="15.1504" height="16.1499" filterUnits="userSpaceOnUse" color-interpolation-filters="sRGB">
<feFlood flood-opacity="0" result="BackgroundImageFix"/>
<feColorMatrix in="SourceAlpha" type="matrix" values="0 0 0 0 0 0 0 0 0 0 0 0 0 0 0 0 0 0 127 0" result="hardAlpha"/>
<feOffset dy="2"/>
<feGaussianBlur stdDeviation="0.5"/>
<feComposite in2="hardAlpha" operator="out"/>
<feColorMatrix type="matrix" values="0 0 0 0 0 0 0 0 0 0 0 0 0 0 0 0 0 0 0.25 0"/>
<feBlend mode="normal" in2="BackgroundImageFix" result="effect1_dropShadow_352_4155"/>
<feBlend mode="normal" in="SourceGraphic" in2="effect1_dropShadow_352_4155" result="shape"/>
</filter>
<clipPath id="clip0_352_4155">
<rect width="17.5" height="20" fill="white" transform="translate(234 246)"/>
</clipPath>
<clipPath id="clip1_352_4155">
<rect width="20" height="20" fill="white" transform="translate(267.5 246)"/>
</clipPath>
</defs>
</svg>
