<svg width="674" height="437" viewBox="0 0 674 437" fill="none" xmlns="http://www.w3.org/2000/svg">
<circle opacity="0.01" cx="71" cy="217" r="20" fill="white"/>
<mask id="path-2-outside-1_1505_15" maskUnits="userSpaceOnUse" x="59" y="205" width="24" height="24" fill="black">
<rect fill="white" x="59" y="205" width="24" height="24"/>
<path fill-rule="evenodd" clip-rule="evenodd" d="M61.842 206H80.1623H80.1625C81.1762 206 82.0044 206.828 82 207.842V226.158C82 227.172 81.1718 228 80.158 228H61.842C60.8282 228 60 227.172 60 226.158V207.842C60 206.828 60.8282 206 61.842 206ZM80.1623 226.918C80.5787 226.918 80.9181 226.579 80.9181 226.162H80.9138V207.842C80.9138 207.426 80.5744 207.086 80.158 207.086H61.842C61.4257 207.086 61.0862 207.426 61.0862 207.842V226.162C61.0862 226.579 61.4256 226.918 61.842 226.918H80.1623ZM71.7675 218.542C71.8278 218.319 72.0577 218.188 72.2804 218.249C72.5021 218.309 72.6328 218.538 72.5727 218.76L70.9913 224.599C70.931 224.822 70.701 224.953 70.4784 224.892C70.2567 224.831 70.1259 224.603 70.186 224.381L71.7675 218.542ZM68.7171 218.872C68.8976 218.729 69.1595 218.76 69.3027 218.94C69.4462 219.12 69.416 219.383 69.2351 219.526L66.6516 221.572L69.2347 223.615C69.4157 223.758 69.4462 224.02 69.3026 224.201C69.1595 224.381 68.8976 224.411 68.7173 224.269L65.7215 221.897C65.5113 221.731 65.5124 221.411 65.7215 221.244L68.7171 218.872ZM73.4563 218.94C73.5995 218.76 73.8615 218.729 74.0419 218.872L77.0375 221.244C77.2466 221.411 77.2477 221.731 77.0375 221.897L74.0418 224.269C73.8614 224.411 73.5995 224.381 73.4564 224.201C73.3129 224.02 73.3433 223.758 73.5243 223.615L76.1074 221.572L73.5239 219.526C73.3431 219.383 73.3128 219.12 73.4563 218.94ZM69.187 211.961H66.8788V209.652C66.8788 209.354 66.6344 209.109 66.3357 209.109C66.0371 209.109 65.7927 209.354 65.7927 209.652V211.961H63.4845C63.1859 211.961 62.9414 212.205 62.9414 212.504C62.9414 212.802 63.1859 213.047 63.4845 213.047H65.7927V215.355C65.7927 215.654 66.0371 215.898 66.3357 215.898C66.6344 215.898 66.8788 215.654 66.8788 215.355V213.047H69.187C69.4856 213.047 69.7301 212.802 69.7301 212.504C69.7301 212.205 69.4856 211.961 69.187 211.961ZM78.4015 212.504C78.4015 212.802 78.157 213.047 77.8584 213.047H72.9933C72.6947 213.047 72.4502 212.802 72.4502 212.504C72.4502 212.205 72.6946 211.96 72.9933 211.96H77.8584C78.157 211.96 78.4015 212.205 78.4015 212.504Z"/>
</mask>
<path fill-rule="evenodd" clip-rule="evenodd" d="M61.842 206H80.1623H80.1625C81.1762 206 82.0044 206.828 82 207.842V226.158C82 227.172 81.1718 228 80.158 228H61.842C60.8282 228 60 227.172 60 226.158V207.842C60 206.828 60.8282 206 61.842 206ZM80.1623 226.918C80.5787 226.918 80.9181 226.579 80.9181 226.162H80.9138V207.842C80.9138 207.426 80.5744 207.086 80.158 207.086H61.842C61.4257 207.086 61.0862 207.426 61.0862 207.842V226.162C61.0862 226.579 61.4256 226.918 61.842 226.918H80.1623ZM71.7675 218.542C71.8278 218.319 72.0577 218.188 72.2804 218.249C72.5021 218.309 72.6328 218.538 72.5727 218.76L70.9913 224.599C70.931 224.822 70.701 224.953 70.4784 224.892C70.2567 224.831 70.1259 224.603 70.186 224.381L71.7675 218.542ZM68.7171 218.872C68.8976 218.729 69.1595 218.76 69.3027 218.94C69.4462 219.12 69.416 219.383 69.2351 219.526L66.6516 221.572L69.2347 223.615C69.4157 223.758 69.4462 224.02 69.3026 224.201C69.1595 224.381 68.8976 224.411 68.7173 224.269L65.7215 221.897C65.5113 221.731 65.5124 221.411 65.7215 221.244L68.7171 218.872ZM73.4563 218.94C73.5995 218.76 73.8615 218.729 74.0419 218.872L77.0375 221.244C77.2466 221.411 77.2477 221.731 77.0375 221.897L74.0418 224.269C73.8614 224.411 73.5995 224.381 73.4564 224.201C73.3129 224.02 73.3433 223.758 73.5243 223.615L76.1074 221.572L73.5239 219.526C73.3431 219.383 73.3128 219.12 73.4563 218.94ZM69.187 211.961H66.8788V209.652C66.8788 209.354 66.6344 209.109 66.3357 209.109C66.0371 209.109 65.7927 209.354 65.7927 209.652V211.961H63.4845C63.1859 211.961 62.9414 212.205 62.9414 212.504C62.9414 212.802 63.1859 213.047 63.4845 213.047H65.7927V215.355C65.7927 215.654 66.0371 215.898 66.3357 215.898C66.6344 215.898 66.8788 215.654 66.8788 215.355V213.047H69.187C69.4856 213.047 69.7301 212.802 69.7301 212.504C69.7301 212.205 69.4856 211.961 69.187 211.961ZM78.4015 212.504C78.4015 212.802 78.157 213.047 77.8584 213.047H72.9933C72.6947 213.047 72.4502 212.802 72.4502 212.504C72.4502 212.205 72.6946 211.96 72.9933 211.96H77.8584C78.157 211.96 78.4015 212.205 78.4015 212.504Z" fill="white"/>
<path d="M82 207.842L81.9 207.842V207.842H82ZM80.9181 226.162H81.0181V226.062H80.9181V226.162ZM80.9138 226.162H80.8138V226.262H80.9138V226.162ZM72.2804 218.249L72.3069 218.152L72.2804 218.249ZM71.7675 218.542L71.864 218.568L71.7675 218.542ZM72.5727 218.76L72.4762 218.734L72.5727 218.76ZM70.9913 224.599L71.0878 224.625L70.9913 224.599ZM70.4784 224.892L70.4519 224.989H70.4519L70.4784 224.892ZM70.186 224.381L70.2826 224.407L70.186 224.381ZM69.3027 218.94L69.381 218.878L69.3027 218.94ZM68.7171 218.872L68.6551 218.794L68.7171 218.872ZM69.2351 219.526L69.2972 219.605L69.2351 219.526ZM66.6516 221.572L66.5896 221.494L66.4905 221.573L66.5896 221.651L66.6516 221.572ZM69.2347 223.615L69.1727 223.693L69.2347 223.615ZM69.3026 224.201L69.2243 224.139V224.139L69.3026 224.201ZM68.7173 224.269L68.7793 224.19H68.7793L68.7173 224.269ZM65.7215 221.897L65.7836 221.819L65.7835 221.818L65.7215 221.897ZM65.7215 221.244L65.6594 221.165L65.659 221.166L65.7215 221.244ZM74.0419 218.872L73.9798 218.951L74.0419 218.872ZM73.4563 218.94L73.5346 219.002L73.4563 218.94ZM77.0375 221.244L77.1 221.166L77.0996 221.165L77.0375 221.244ZM77.0375 221.897L76.9756 221.819L76.9755 221.819L77.0375 221.897ZM74.0418 224.269L74.1038 224.347L74.0418 224.269ZM73.4564 224.201L73.5347 224.139V224.139L73.4564 224.201ZM73.5243 223.615L73.4623 223.536H73.4623L73.5243 223.615ZM76.1074 221.572L76.1694 221.651L76.2685 221.573L76.1695 221.494L76.1074 221.572ZM73.5239 219.526L73.586 219.448L73.5239 219.526ZM66.8788 211.961H66.7788V212.061H66.8788V211.961ZM65.7927 211.961V212.061H65.8927V211.961H65.7927ZM65.7927 213.047H65.8927V212.947H65.7927V213.047ZM66.8788 213.047V212.947H66.7788V213.047H66.8788ZM80.1623 205.9H61.842V206.1H80.1623V205.9ZM80.1625 205.9H80.1623V206.1H80.1625V205.9ZM82.1 207.842C82.1047 206.773 81.2314 205.9 80.1625 205.9V206.1C81.1211 206.1 81.9042 206.883 81.9 207.842L82.1 207.842ZM82.1 226.158V207.842H81.9V226.158H82.1ZM80.158 228.1C81.227 228.1 82.1 227.227 82.1 226.158H81.9C81.9 227.117 81.1166 227.9 80.158 227.9V228.1ZM61.842 228.1H80.158V227.9H61.842V228.1ZM59.9 226.158C59.9 227.227 60.773 228.1 61.842 228.1V227.9C60.8834 227.9 60.1 227.117 60.1 226.158H59.9ZM59.9 207.842V226.158H60.1V207.842H59.9ZM61.842 205.9C60.773 205.9 59.9 206.773 59.9 207.842H60.1C60.1 206.883 60.8834 206.1 61.842 206.1V205.9ZM80.8181 226.162C80.8181 226.524 80.5234 226.818 80.1623 226.818V227.018C80.6339 227.018 81.0181 226.634 81.0181 226.162H80.8181ZM80.9138 226.262H80.9181V226.062H80.9138V226.262ZM80.8138 207.842V226.162H81.0138V207.842H80.8138ZM80.158 207.186C80.5191 207.186 80.8138 207.481 80.8138 207.842H81.0138C81.0138 207.371 80.6296 206.986 80.158 206.986V207.186ZM61.842 207.186H80.158V206.986H61.842V207.186ZM61.1862 207.842C61.1862 207.481 61.4809 207.186 61.842 207.186V206.986C61.3704 206.986 60.9862 207.371 60.9862 207.842H61.1862ZM61.1862 226.162V207.842H60.9862V226.162H61.1862ZM61.842 226.818C61.4809 226.818 61.1862 226.524 61.1862 226.162H60.9862C60.9862 226.634 61.3704 227.018 61.842 227.018V226.818ZM80.1623 226.818H61.842V227.018H80.1623V226.818ZM72.3069 218.152C72.0308 218.076 71.7458 218.239 71.6709 218.516L71.864 218.568C71.9099 218.399 72.0847 218.299 72.254 218.345L72.3069 218.152ZM72.6693 218.786C72.7438 218.511 72.5817 218.227 72.3069 218.152L72.254 218.345C72.4225 218.391 72.5219 218.565 72.4762 218.734L72.6693 218.786ZM71.0878 224.625L72.6693 218.786L72.4762 218.734L70.8948 224.573L71.0878 224.625ZM70.4519 224.989C70.728 225.064 71.013 224.901 71.0878 224.625L70.8948 224.573C70.8489 224.742 70.6741 224.842 70.5048 224.796L70.4519 224.989ZM70.0895 224.355C70.015 224.63 70.1771 224.913 70.4519 224.989L70.5048 224.796C70.3363 224.75 70.2369 224.576 70.2826 224.407L70.0895 224.355ZM71.6709 218.516L70.0895 224.355L70.2826 224.407L71.864 218.568L71.6709 218.516ZM69.381 218.878C69.2035 218.654 68.8787 218.617 68.6551 218.794L68.7792 218.951C68.9164 218.842 69.1156 218.865 69.2244 219.002L69.381 218.878ZM69.2972 219.605C69.5214 219.427 69.5589 219.101 69.381 218.878L69.2244 219.002C69.3335 219.139 69.3105 219.339 69.173 219.448L69.2972 219.605ZM66.7137 221.651L69.2972 219.605L69.173 219.448L66.5896 221.494L66.7137 221.651ZM69.2968 223.536L66.7137 221.494L66.5896 221.651L69.1727 223.693L69.2968 223.536ZM69.3809 224.263C69.5589 224.039 69.5212 223.713 69.2968 223.536L69.1727 223.693C69.3103 223.802 69.3334 224.002 69.2243 224.139L69.3809 224.263ZM68.6552 224.347C68.8788 224.524 69.2035 224.487 69.3809 224.263L69.2243 224.139C69.1155 224.276 68.9164 224.299 68.7793 224.19L68.6552 224.347ZM65.6594 221.975L68.6552 224.347L68.7793 224.19L65.7836 221.819L65.6594 221.975ZM65.659 221.166C65.4004 221.373 65.3981 221.769 65.6595 221.975L65.7835 221.818C65.6245 221.693 65.6244 221.45 65.784 221.322L65.659 221.166ZM68.6551 218.794L65.6594 221.165L65.7836 221.322L68.7792 218.951L68.6551 218.794ZM74.104 218.794C73.8803 218.617 73.5555 218.654 73.378 218.878L73.5346 219.002C73.6434 218.865 73.8427 218.842 73.9798 218.951L74.104 218.794ZM77.0996 221.165L74.104 218.794L73.9798 218.951L76.9755 221.322L77.0996 221.165ZM77.0995 221.975C77.3609 221.769 77.3586 221.373 77.1 221.166L76.9751 221.322C77.1346 221.45 77.1345 221.693 76.9756 221.819L77.0995 221.975ZM74.1038 224.347L77.0996 221.975L76.9755 221.819L73.9797 224.19L74.1038 224.347ZM73.3781 224.263C73.5556 224.487 73.8802 224.524 74.1038 224.347L73.9797 224.19C73.8426 224.299 73.6435 224.276 73.5347 224.139L73.3781 224.263ZM73.4623 223.536C73.2379 223.713 73.2002 224.039 73.3781 224.263L73.5347 224.139C73.4256 224.002 73.4487 223.802 73.5863 223.693L73.4623 223.536ZM76.0454 221.494L73.4623 223.536L73.5863 223.693L76.1694 221.651L76.0454 221.494ZM73.4618 219.605L76.0453 221.651L76.1695 221.494L73.586 219.448L73.4618 219.605ZM73.378 218.878C73.2001 219.101 73.2376 219.427 73.4618 219.605L73.586 219.448C73.4485 219.339 73.4255 219.139 73.5346 219.002L73.378 218.878ZM66.8788 212.061H69.187V211.861H66.8788V212.061ZM66.7788 209.652V211.961H66.9788V209.652H66.7788ZM66.3357 209.209C66.5791 209.209 66.7788 209.409 66.7788 209.652H66.9788C66.9788 209.299 66.6896 209.009 66.3357 209.009V209.209ZM65.8927 209.652C65.8927 209.409 66.0923 209.209 66.3357 209.209V209.009C65.9819 209.009 65.6927 209.299 65.6927 209.652H65.8927ZM65.8927 211.961V209.652H65.6927V211.961H65.8927ZM63.4845 212.061H65.7927V211.861H63.4845V212.061ZM63.0414 212.504C63.0414 212.26 63.2411 212.061 63.4845 212.061V211.861C63.1306 211.861 62.8414 212.15 62.8414 212.504H63.0414ZM63.4845 212.947C63.2411 212.947 63.0414 212.747 63.0414 212.504H62.8414C62.8414 212.858 63.1306 213.147 63.4845 213.147V212.947ZM65.7927 212.947H63.4845V213.147H65.7927V212.947ZM65.8927 215.355V213.047H65.6927V215.355H65.8927ZM66.3357 215.798C66.0924 215.798 65.8927 215.598 65.8927 215.355H65.6927C65.6927 215.709 65.9819 215.998 66.3357 215.998V215.798ZM66.7788 215.355C66.7788 215.598 66.5791 215.798 66.3357 215.798V215.998C66.6896 215.998 66.9788 215.709 66.9788 215.355H66.7788ZM66.7788 213.047V215.355H66.9788V213.047H66.7788ZM69.187 212.947H66.8788V213.147H69.187V212.947ZM69.6301 212.504C69.6301 212.747 69.4304 212.947 69.187 212.947V213.147C69.5409 213.147 69.8301 212.858 69.8301 212.504H69.6301ZM69.187 212.061C69.4304 212.061 69.6301 212.26 69.6301 212.504H69.8301C69.8301 212.15 69.5408 211.861 69.187 211.861V212.061ZM77.8584 213.147C78.2122 213.147 78.5015 212.857 78.5015 212.504H78.3015C78.3015 212.747 78.1018 212.947 77.8584 212.947V213.147ZM72.9933 213.147H77.8584V212.947H72.9933V213.147ZM72.3502 212.504C72.3502 212.857 72.6394 213.147 72.9933 213.147V212.947C72.7499 212.947 72.5502 212.747 72.5502 212.504H72.3502ZM72.9933 211.86C72.6394 211.86 72.3502 212.15 72.3502 212.504H72.5502C72.5502 212.26 72.7499 212.06 72.9933 212.06V211.86ZM77.8584 211.86H72.9933V212.06H77.8584V211.86ZM78.5015 212.504C78.5015 212.15 78.2122 211.86 77.8584 211.86V212.06C78.1018 212.06 78.3015 212.26 78.3015 212.504H78.5015Z" fill="white" mask="url(#path-2-outside-1_1505_15)"/>
<circle opacity="0.01" cx="71" cy="158" r="20" fill="white"/>
<path fill-rule="evenodd" clip-rule="evenodd" d="M60.372 152.696C60.372 152.302 60.5791 151.919 60.9939 151.546L61.0716 151.499L71.0059 147.084C71.8769 146.679 72.7994 146.679 73.7733 147.084L83.8012 151.499L83.879 151.546C84.304 151.919 84.5214 152.308 84.5319 152.712C84.5319 153.095 84.3351 153.469 83.9418 153.831L83.864 153.878L81.8429 154.873L81.7804 157.889H82.0602C82.1436 157.889 82.2101 157.915 82.2624 157.967C82.3242 158.029 82.3553 158.101 82.3553 158.184L82.6044 162.662C82.6249 162.745 82.5988 162.823 82.5267 162.895C82.4648 162.957 82.387 162.988 82.2935 162.988H80.4278C80.3445 162.988 80.2723 162.957 80.2105 162.895C80.1377 162.823 80.1116 162.745 80.1327 162.662L80.4589 158.184C80.4589 158.101 80.49 158.029 80.5525 157.967C80.6041 157.915 80.6716 157.889 80.7546 157.889H81.1585L81.221 155.184L78.9978 156.272L78.7798 158.806V158.853C78.6243 159.454 78.3134 159.853 77.847 160.05L72.4372 162.724C72.3539 162.776 72.2659 162.776 72.1723 162.724L66.9021 160.128C66.446 159.92 66.1406 159.521 65.9851 158.931V158.884L65.7361 156.179L61.0561 153.893L60.9783 153.847C60.5741 153.494 60.372 153.111 60.372 152.696ZM64.9416 151.141L70.1816 149.011C70.2643 148.97 70.3421 148.97 70.4148 149.011C70.4975 149.043 70.5544 149.099 70.5855 149.182C70.6583 149.358 70.6014 149.493 70.4148 149.587L65.1748 151.717L65.0511 151.732C64.9161 151.732 64.8228 151.67 64.7712 151.546C64.7401 151.463 64.7401 151.38 64.7712 151.297C64.802 151.224 64.8589 151.173 64.9416 151.141ZM61.3665 153.349C61.118 153.131 60.9937 152.914 60.9937 152.696C60.9937 152.489 61.123 152.271 61.382 152.043L71.2703 147.643C71.9852 147.322 72.737 147.322 73.5247 147.643L83.5059 152.043C83.7544 152.282 83.8893 152.504 83.9098 152.712C83.9098 152.909 83.791 153.116 83.5529 153.334L73.6487 158.231C72.9028 158.563 72.1979 158.589 71.5346 158.309L61.3665 153.349ZM57.4637 162.118C57.505 162.501 57.5669 162.817 57.6502 163.066C57.7644 163.367 57.8676 163.605 57.9612 163.781C60.148 164.092 62.4182 164.517 64.7708 165.056C64.7295 164.776 64.7136 164.512 64.7242 164.263C64.7242 163.859 64.828 163.424 65.0351 162.957C65.1906 162.615 65.4443 162.252 65.7966 161.869C63.5479 161.195 61.376 160.428 59.2827 159.568C58.5364 159.869 58.0492 160.278 57.8216 160.796C57.5828 161.356 57.4637 161.797 57.4637 162.118ZM59.4074 158.946C59.3449 158.915 59.2728 158.91 59.1895 158.931C58.1948 159.304 57.5468 159.843 57.2467 160.548C56.9569 161.221 56.8269 161.755 56.858 162.149C56.8792 162.522 56.946 162.895 57.0601 163.268C57.1848 163.61 57.3244 163.921 57.4799 164.201C57.5321 164.305 57.6099 164.362 57.7131 164.372C60.2632 164.745 62.7302 165.212 65.1139 165.771L66.2488 166.051C69.6278 166.881 72.9493 167.886 76.2142 169.067L76.2608 169.083C76.3541 169.114 76.4474 169.13 76.5407 169.13C76.634 169.13 76.7269 169.114 76.8205 169.083C77.3075 168.959 77.67 168.694 77.9088 168.29C78.1675 167.907 78.2975 167.502 78.2975 167.077C78.2975 166.881 78.2869 166.735 78.2664 166.642L79.277 166.829C79.3491 166.849 79.4222 166.834 79.4943 166.782C79.5665 166.74 79.6134 166.678 79.6339 166.595L79.6806 166.424V166.347C79.6806 165.715 79.4996 165.139 79.1364 164.621C78.846 164.206 78.5043 163.958 78.1106 163.875C78.0174 163.844 77.9238 163.828 77.8308 163.828C73.7677 163.237 69.9795 162.434 66.4655 161.418C64.0302 160.713 61.677 159.889 59.4074 158.946ZM66.4646 162.071C66.0607 162.475 65.7753 162.854 65.6096 163.206C65.4336 163.569 65.3452 163.921 65.3452 164.263C65.335 164.553 65.3658 164.87 65.4388 165.212L65.8894 165.321V165.227C65.8791 165.144 65.8997 165.072 65.9513 165.01C66.0035 164.947 66.071 164.906 66.1534 164.885C66.2367 164.875 66.3145 164.901 66.3866 164.963C66.4491 165.015 66.4849 165.082 66.4954 165.165L66.5579 165.476C69.5635 166.222 72.5641 167.119 75.5594 168.166C75.4562 167.72 75.4403 167.171 75.5128 166.518C75.523 166.279 75.565 166.041 75.6371 165.803C75.7513 165.377 75.9226 165.01 76.1502 164.699C76.254 164.553 76.389 164.408 76.5547 164.263C73.4033 163.766 70.4447 163.144 67.677 162.398C67.2106 162.823 66.8997 163.201 66.7442 163.533C66.599 163.864 66.511 164.149 66.4799 164.388C66.4594 164.595 66.3449 164.688 66.1378 164.668C66.0545 164.657 65.9873 164.621 65.9357 164.559C65.8835 164.486 65.863 164.409 65.8732 164.326C65.9049 163.973 66.0032 163.626 66.1689 163.284C66.3449 162.921 66.6148 162.564 66.9774 162.211L66.4646 162.071ZM72.2952 162.103L67.1647 159.568C66.8848 159.444 66.6936 159.19 66.5897 158.807L66.3876 156.506L71.285 158.884C72.1351 159.226 73.011 159.195 73.9127 158.791L78.3437 156.599L78.1723 158.729C78.0685 159.102 77.877 159.351 77.5971 159.475L72.2952 162.103ZM81.0491 158.511L80.7693 162.367H81.9664L81.7649 158.511H81.0491ZM71.3006 149.214L71.4402 149.152C71.5133 149.12 71.5649 149.064 71.596 148.981C71.6271 148.908 71.6271 148.831 71.596 148.748C71.5546 148.665 71.4927 148.608 71.4094 148.577C71.3261 148.546 71.2483 148.551 71.1762 148.592L71.0366 148.654C70.9638 148.685 70.9122 148.742 70.8811 148.825C70.8494 148.898 70.8494 148.976 70.8811 149.059C70.943 149.183 71.0413 149.245 71.1762 149.245C71.2278 149.245 71.2695 149.235 71.3006 149.214ZM77.8773 165.943L79.0586 166.16C79.0275 165.725 78.8826 165.331 78.6233 164.979C78.4367 164.689 78.2194 164.523 77.9703 164.481L77.7996 164.45H77.6282C77.2452 164.481 76.923 164.689 76.6643 165.072H76.6485C76.5241 165.238 76.4255 165.419 76.3534 165.616L77.1618 165.694C77.276 165.694 77.3848 165.71 77.4886 165.741L77.706 165.834L77.8773 165.943ZM76.1205 166.58L76.1824 166.222L76.3538 166.238C76.2707 166.393 76.2294 166.59 76.2294 166.828C76.2294 167.129 76.2916 167.378 76.4159 167.575C76.4467 167.637 76.5142 167.72 76.6181 167.823C76.6902 167.875 76.7679 167.896 76.8513 167.886C76.9343 167.875 77.0011 167.839 77.0534 167.777C77.105 167.704 77.1311 167.627 77.1311 167.544C77.1209 167.45 77.0789 167.383 77.0067 167.341L76.9601 167.279L76.9449 167.248C76.8824 167.145 76.8513 167.004 76.8513 166.828C76.8513 166.652 76.8923 166.523 76.9756 166.44L77.0223 166.378L77.0375 166.346L77.1311 166.315L77.3332 166.346L77.411 166.378L77.5039 166.455L77.5198 166.471C77.623 166.585 77.6753 166.787 77.6753 167.077C77.6753 167.367 77.577 167.663 77.3796 167.963C77.2241 168.222 76.9859 168.399 76.6647 168.492L76.4934 168.508L76.4315 168.476C76.3379 168.435 76.2602 168.331 76.1983 168.165C76.0739 167.761 76.0478 167.233 76.1205 166.58Z" fill="white"/>
<path d="M60.9939 151.546L60.8653 151.331L60.8446 151.344L60.8267 151.36L60.9939 151.546ZM61.0716 151.499L60.9701 151.271L60.9561 151.277L60.943 151.285L61.0716 151.499ZM71.0059 147.084L71.1075 147.312L71.1112 147.31L71.0059 147.084ZM73.7733 147.084L73.8741 146.855L73.8692 146.853L73.7733 147.084ZM83.8012 151.499L83.9298 151.285L83.9164 151.277L83.902 151.27L83.8012 151.499ZM83.879 151.546L84.0439 151.358L84.0269 151.343L84.0076 151.331L83.879 151.546ZM84.5319 152.712H84.782L84.7818 152.705L84.5319 152.712ZM83.9418 153.831L84.0704 154.046L84.0924 154.032L84.1112 154.015L83.9418 153.831ZM83.864 153.878L83.9744 154.102L83.9838 154.097L83.9927 154.092L83.864 153.878ZM81.8429 154.873L81.7325 154.649L81.5961 154.716L81.593 154.868L81.8429 154.873ZM81.7804 157.889L81.5305 157.884L81.5252 158.139H81.7804V157.889ZM82.2624 157.967L82.4396 157.79L82.4386 157.789L82.2624 157.967ZM82.3553 158.184H82.1049L82.1057 158.198L82.3553 158.184ZM82.6044 162.662L82.3548 162.676L82.3561 162.699L82.3617 162.722L82.6044 162.662ZM82.5267 162.895L82.3495 162.719L82.3494 162.719L82.5267 162.895ZM80.2105 162.895L80.3877 162.719L80.3868 162.718L80.2105 162.895ZM80.1327 162.662L80.375 162.724L80.3804 162.702L80.3821 162.68L80.1327 162.662ZM80.4589 158.184L80.7082 158.203L80.7089 158.193V158.184H80.4589ZM80.5525 157.967L80.7288 158.144L80.7298 158.143L80.5525 157.967ZM81.1585 157.889V158.139H81.4028L81.4085 157.895L81.1585 157.889ZM81.221 155.184L81.4709 155.19L81.4804 154.778L81.1111 154.959L81.221 155.184ZM78.9978 156.272L78.8879 156.048L78.7608 156.11L78.7487 156.251L78.9978 156.272ZM78.7798 158.806L78.5307 158.785L78.5298 158.795V158.806H78.7798ZM78.7798 158.853L79.0218 158.915L79.0298 158.885V158.853H78.7798ZM77.847 160.05L77.7498 159.82L77.7429 159.823L77.7362 159.826L77.847 160.05ZM72.4372 162.724L72.3264 162.5L72.3154 162.505L72.305 162.512L72.4372 162.724ZM72.1723 162.724L72.2937 162.505L72.2828 162.5L72.1723 162.724ZM66.9021 160.128L67.0126 159.903L67.0056 159.9L66.9021 160.128ZM65.9851 158.931H65.7351V158.963L65.7434 158.994L65.9851 158.931ZM65.9851 158.884H66.2351V158.872L66.2341 158.861L65.9851 158.884ZM65.7361 156.179L65.985 156.156L65.9721 156.016L65.8458 155.954L65.7361 156.179ZM61.0561 153.893L60.9274 154.108L60.9367 154.113L60.9464 154.118L61.0561 153.893ZM60.9783 153.847L60.8141 154.035L60.8308 154.05L60.8497 154.061L60.9783 153.847ZM70.1816 149.011L70.2758 149.243L70.2847 149.239L70.2934 149.235L70.1816 149.011ZM64.9416 151.141L65.0304 151.375L65.0357 151.373L64.9416 151.141ZM70.4148 149.011L70.2913 149.229L70.3084 149.238L70.3268 149.245L70.4148 149.011ZM70.5855 149.182L70.3513 149.27L70.3545 149.278L70.5855 149.182ZM70.4148 149.587L70.509 149.818L70.5179 149.815L70.5266 149.81L70.4148 149.587ZM65.1748 151.717L65.206 151.965L65.2385 151.961L65.269 151.948L65.1748 151.717ZM65.0511 151.732V151.982H65.0667L65.0822 151.98L65.0511 151.732ZM64.7712 151.546L64.537 151.633L64.5403 151.641L64.7712 151.546ZM64.7712 151.297L64.5409 151.199L64.5371 151.209L64.7712 151.297ZM61.3665 153.349L61.2017 153.537L61.2269 153.559L61.2569 153.574L61.3665 153.349ZM61.382 152.043L61.2804 151.815L61.2455 151.83L61.2168 151.856L61.382 152.043ZM71.2703 147.643L71.372 147.872L71.3728 147.871L71.2703 147.643ZM73.5247 147.643L73.6255 147.414L73.6191 147.412L73.5247 147.643ZM83.5059 152.043L83.679 151.863L83.6472 151.832L83.6068 151.814L83.5059 152.043ZM83.9098 152.712H84.1598V152.699L84.1586 152.687L83.9098 152.712ZM83.5529 153.334L83.6637 153.558L83.6954 153.542L83.7215 153.518L83.5529 153.334ZM73.6487 158.231L73.7504 158.46L73.7595 158.455L73.6487 158.231ZM71.5346 158.309L71.4249 158.534L71.4374 158.539L71.5346 158.309ZM57.6502 163.066L57.413 163.146L57.4165 163.155L57.6502 163.066ZM57.4637 162.118H57.2137V162.131L57.2151 162.145L57.4637 162.118ZM57.9612 163.781L57.7404 163.899L57.8 164.011L57.926 164.029L57.9612 163.781ZM64.7708 165.056L64.715 165.3L65.0716 165.382L65.0181 165.02L64.7708 165.056ZM64.7242 164.263L64.9742 164.274V164.263H64.7242ZM65.0351 162.957L64.8075 162.854L64.8066 162.856L65.0351 162.957ZM65.7966 161.869L65.9807 162.038L66.2509 161.744L65.8684 161.63L65.7966 161.869ZM59.2827 159.568L59.3777 159.337L59.2836 159.298L59.1893 159.336L59.2827 159.568ZM57.8216 160.796L57.5927 160.696L57.5916 160.698L57.8216 160.796ZM59.1895 158.931L59.1297 158.688L59.1154 158.691L59.1017 158.697L59.1895 158.931ZM59.4074 158.946L59.2961 159.17L59.3037 159.174L59.3115 159.177L59.4074 158.946ZM57.2467 160.548L57.4764 160.646L57.4767 160.646L57.2467 160.548ZM56.858 162.149L57.1077 162.135L57.1072 162.129L56.858 162.149ZM57.0601 163.268L56.8207 163.342L56.8253 163.354L57.0601 163.268ZM57.4799 164.201L57.7034 164.089L57.6984 164.08L57.4799 164.201ZM57.7131 164.372L57.7493 164.125L57.7378 164.123L57.7131 164.372ZM65.1139 165.771L65.1737 165.529L65.171 165.528L65.1139 165.771ZM66.2488 166.051L66.1889 166.294L66.1892 166.294L66.2488 166.051ZM76.2142 169.067L76.1291 169.303L76.1351 169.305L76.2142 169.067ZM76.2608 169.083L76.3399 168.846V168.846L76.2608 169.083ZM76.8205 169.083L76.7587 168.841L76.7501 168.843L76.7417 168.846L76.8205 169.083ZM77.9088 168.29L77.7016 168.15L77.6974 168.156L77.6936 168.163L77.9088 168.29ZM78.2664 166.642L78.3118 166.396L77.9413 166.328L78.0223 166.696L78.2664 166.642ZM79.277 166.829L79.3463 166.588L79.3345 166.585L79.3224 166.583L79.277 166.829ZM79.4943 166.782L79.3693 166.566L79.3584 166.572L79.3483 166.579L79.4943 166.782ZM79.6339 166.595L79.3927 166.53L79.3913 166.535L79.6339 166.595ZM79.6806 166.424L79.9218 166.49L79.9306 166.458V166.424H79.6806ZM79.1364 164.621L78.9316 164.764L78.9317 164.764L79.1364 164.621ZM78.1106 163.875L78.0316 164.112L78.0451 164.116L78.059 164.119L78.1106 163.875ZM77.8308 163.828L77.7948 164.075L77.8127 164.078H77.8308V163.828ZM66.4655 161.418L66.396 161.658L66.3961 161.658L66.4655 161.418ZM65.6096 163.206L65.8345 163.315L65.8358 163.313L65.6096 163.206ZM66.4646 162.071L66.5305 161.83L66.3904 161.792L66.2878 161.895L66.4646 162.071ZM65.3452 164.263L65.5952 164.272V164.263H65.3452ZM65.4388 165.212L65.1944 165.264L65.2272 165.418L65.3801 165.455L65.4388 165.212ZM65.8894 165.321L65.8307 165.564L66.1394 165.638V165.321H65.8894ZM65.8894 165.227H66.1394V165.212L66.1375 165.197L65.8894 165.227ZM65.9513 165.01L65.7598 164.849L65.7589 164.85L65.9513 165.01ZM66.1534 164.885L66.1219 164.637L66.1068 164.639L66.0921 164.643L66.1534 164.885ZM66.3866 164.963L66.2233 165.152L66.2268 165.155L66.3866 164.963ZM66.4954 165.165L66.2474 165.197L66.2486 165.206L66.2503 165.214L66.4954 165.165ZM66.5579 165.476L66.3128 165.525L66.344 165.681L66.4977 165.719L66.5579 165.476ZM75.5594 168.166L75.4769 168.402L75.9053 168.551L75.803 168.109L75.5594 168.166ZM75.5128 166.518L75.7612 166.545L75.7622 166.537L75.7625 166.528L75.5128 166.518ZM75.6371 165.803L75.8765 165.875L75.8786 165.867L75.6371 165.803ZM76.1502 164.699L76.3519 164.846L76.3535 164.844L76.1502 164.699ZM76.5547 164.263L76.7193 164.452L77.1217 164.1L76.5937 164.016L76.5547 164.263ZM67.677 162.398L67.7421 162.156L67.6098 162.121L67.5086 162.213L67.677 162.398ZM66.7442 163.533L66.5177 163.427L66.5152 163.432L66.7442 163.533ZM66.4799 164.388L66.2319 164.355L66.2311 164.363L66.4799 164.388ZM66.1378 164.668L66.1073 164.916L66.1128 164.916L66.1378 164.668ZM65.9357 164.559L65.7329 164.705L65.7379 164.712L65.7434 164.718L65.9357 164.559ZM65.8732 164.326L66.1215 164.356L66.1222 164.348L65.8732 164.326ZM66.1689 163.284L65.944 163.175L65.944 163.175L66.1689 163.284ZM66.9774 162.211L67.1517 162.39L67.4655 162.085L67.0432 161.97L66.9774 162.211ZM67.1647 159.568L67.2755 159.344L67.2662 159.34L67.1647 159.568ZM72.2952 162.103L72.1845 162.327L72.2954 162.382L72.4062 162.327L72.2952 162.103ZM66.5897 158.807L66.3407 158.829L66.3426 158.851L66.3484 158.872L66.5897 158.807ZM66.3876 156.506L66.4969 156.281L66.1 156.088L66.1386 156.528L66.3876 156.506ZM71.285 158.884L71.1757 159.109L71.1836 159.113L71.1917 159.116L71.285 158.884ZM73.9127 158.791L74.0151 159.019L74.0236 159.015L73.9127 158.791ZM78.3437 156.599L78.5929 156.619L78.6282 156.179L78.2328 156.375L78.3437 156.599ZM78.1723 158.729L78.4132 158.796L78.4196 158.773L78.4215 158.749L78.1723 158.729ZM77.5971 159.475L77.4955 159.247L77.4861 159.251L77.5971 159.475ZM80.7693 162.367L80.5199 162.349L80.5005 162.617H80.7693V162.367ZM81.0491 158.511V158.261H80.8166L80.7998 158.493L81.0491 158.511ZM81.9664 162.367V162.617H82.2298L82.2161 162.354L81.9664 162.367ZM81.7649 158.511L82.0146 158.498L82.0022 158.261H81.7649V158.511ZM71.4402 149.152L71.3415 148.922L71.3385 148.924L71.4402 149.152ZM71.3006 149.214L71.1989 148.986L71.1793 148.994L71.1614 149.006L71.3006 149.214ZM71.596 148.981L71.366 148.882L71.362 148.893L71.596 148.981ZM71.596 148.748L71.8301 148.66L71.8255 148.648L71.8197 148.636L71.596 148.748ZM71.4094 148.577L71.322 148.811L71.322 148.811L71.4094 148.577ZM71.1762 148.592L71.2779 148.821L71.2895 148.815L71.3005 148.809L71.1762 148.592ZM71.0366 148.654L71.1348 148.884L71.1383 148.883L71.0366 148.654ZM70.8811 148.825L71.1105 148.926L71.1152 148.913L70.8811 148.825ZM70.8811 149.059L70.6476 149.148L70.6519 149.159L70.6573 149.17L70.8811 149.059ZM79.0586 166.16L79.0133 166.406L79.331 166.465L79.3079 166.143L79.0586 166.16ZM77.8773 165.943L77.7433 166.154L77.7843 166.18L77.832 166.189L77.8773 165.943ZM78.6233 164.979L78.413 165.114L78.4173 165.121L78.4219 165.127L78.6233 164.979ZM77.9703 164.481L77.9255 164.727L77.9293 164.728L77.9703 164.481ZM77.7996 164.45L77.8444 164.204L77.8222 164.2H77.7996V164.45ZM77.6282 164.45V164.2H77.6181L77.608 164.201L77.6282 164.45ZM76.6643 165.072V165.322H76.7972L76.8716 165.212L76.6643 165.072ZM76.6485 165.072V164.822H76.5234L76.4484 164.922L76.6485 165.072ZM76.3534 165.616L76.1187 165.53L76.0073 165.834L76.3295 165.865L76.3534 165.616ZM77.1618 165.694L77.1379 165.943L77.1498 165.944H77.1618V165.694ZM77.4886 165.741L77.5872 165.511L77.5741 165.505L77.5603 165.501L77.4886 165.741ZM77.706 165.834L77.84 165.623L77.8231 165.612L77.8046 165.604L77.706 165.834ZM76.1824 166.222L76.205 165.973L75.9754 165.952L75.9361 166.179L76.1824 166.222ZM76.1205 166.58L75.8742 166.537L75.8729 166.544L75.8721 166.552L76.1205 166.58ZM76.3538 166.238L76.5743 166.355L76.7519 166.023L76.3764 165.989L76.3538 166.238ZM76.4159 167.575L76.64 167.464L76.6342 167.452L76.6273 167.441L76.4159 167.575ZM76.6181 167.823L76.4415 168L76.456 168.015L76.4726 168.027L76.6181 167.823ZM76.8513 167.886L76.8818 168.134L76.8828 168.134L76.8513 167.886ZM77.0534 167.777L77.2448 167.938L77.2512 167.93L77.257 167.922L77.0534 167.777ZM77.1311 167.544H77.3811V167.53L77.3796 167.516L77.1311 167.544ZM77.0067 167.341L76.8067 167.491L76.8377 167.533L76.8824 167.558L77.0067 167.341ZM76.9601 167.279L76.7356 167.389L76.746 167.41L76.7601 167.429L76.9601 167.279ZM76.9449 167.248L77.1694 167.138L77.1645 167.128L77.1589 167.119L76.9449 167.248ZM76.9756 166.44L77.1521 166.617L77.1648 166.604L77.1756 166.59L76.9756 166.44ZM77.0223 166.378L77.2223 166.528L77.2364 166.509L77.2468 166.488L77.0223 166.378ZM77.0375 166.346L76.9587 166.109L76.8592 166.142L76.813 166.236L77.0375 166.346ZM77.1311 166.315L77.1691 166.068L77.1095 166.059L77.0523 166.078L77.1311 166.315ZM77.3332 166.346L77.4261 166.114L77.3995 166.104L77.3712 166.099L77.3332 166.346ZM77.411 166.378L77.5713 166.186L77.5408 166.16L77.5038 166.145L77.411 166.378ZM77.5039 166.455L77.679 166.277L77.6719 166.27L77.6643 166.264L77.5039 166.455ZM77.5198 166.471L77.7052 166.303L77.7002 166.298L77.6948 166.292L77.5198 166.471ZM77.3796 167.963L77.1704 167.826L77.1652 167.835L77.3796 167.963ZM76.6647 168.492L76.6873 168.741L76.7113 168.739L76.7344 168.732L76.6647 168.492ZM76.4934 168.508L76.3811 168.731L76.4449 168.763L76.516 168.756L76.4934 168.508ZM76.4315 168.476L76.5439 168.253L76.5325 168.248L76.4315 168.476ZM76.1983 168.165L75.9593 168.239L75.9615 168.246L75.9641 168.253L76.1983 168.165ZM60.8267 151.36C60.3817 151.76 60.122 152.206 60.122 152.696H60.622C60.622 152.399 60.7765 152.078 61.1611 151.732L60.8267 151.36ZM60.943 151.285L60.8653 151.331L61.1225 151.76L61.2002 151.713L60.943 151.285ZM70.9044 146.855L60.9701 151.271L61.1732 151.728L71.1075 147.312L70.9044 146.855ZM73.8692 146.853C72.8377 146.425 71.8418 146.42 70.9007 146.857L71.1112 147.31C71.912 146.939 72.7612 146.934 73.6775 147.315L73.8692 146.853ZM83.902 151.27L73.8741 146.855L73.6726 147.312L83.7005 151.728L83.902 151.27ZM84.0076 151.331L83.9298 151.285L83.6726 151.713L83.7503 151.76L84.0076 151.331ZM84.7818 152.705C84.7688 152.207 84.5 151.758 84.0439 151.358L83.714 151.734C84.108 152.079 84.2739 152.408 84.282 152.718L84.7818 152.705ZM84.1112 154.015C84.535 153.624 84.7819 153.189 84.7819 152.712H84.2819C84.2819 153.001 84.1352 153.313 83.7723 153.647L84.1112 154.015ZM83.9927 154.092L84.0704 154.046L83.8131 153.617L83.7354 153.663L83.9927 154.092ZM81.9533 155.097L83.9744 154.102L83.7536 153.653L81.7325 154.649L81.9533 155.097ZM82.0303 157.894L82.0928 154.878L81.593 154.868L81.5305 157.884L82.0303 157.894ZM82.0602 157.639H81.7804V158.139H82.0602V157.639ZM82.4386 157.789C82.3337 157.685 82.201 157.639 82.0602 157.639V158.139C82.0759 158.139 82.0823 158.141 82.0831 158.142C82.0836 158.142 82.0837 158.142 82.0838 158.142C82.0838 158.142 82.0846 158.142 82.0861 158.144L82.4386 157.789ZM82.6053 158.184C82.6053 158.031 82.5448 157.896 82.4396 157.79L82.0851 158.143C82.1037 158.162 82.1053 158.172 82.1053 158.184H82.6053ZM82.854 162.648L82.6049 158.17L82.1057 158.198L82.3548 162.676L82.854 162.648ZM82.7038 163.072C82.823 162.952 82.8931 162.788 82.8471 162.602L82.3617 162.722C82.3616 162.722 82.3611 162.719 82.3612 162.715C82.3614 162.71 82.3622 162.706 82.3632 162.703C82.3651 162.698 82.365 162.703 82.3495 162.719L82.7038 163.072ZM82.2935 163.238C82.4486 163.238 82.5917 163.184 82.7039 163.071L82.3494 162.719C82.3379 162.73 82.3255 162.738 82.2935 162.738V163.238ZM80.4278 163.238H82.2935V162.738H80.4278V163.238ZM80.0332 163.071C80.139 163.178 80.2737 163.238 80.4278 163.238V162.738C80.4152 162.738 80.4057 162.737 80.3877 162.719L80.0332 163.071ZM79.8904 162.6C79.8427 162.788 79.9138 162.953 80.0341 163.072L80.3868 162.718C80.3712 162.702 80.3714 162.697 80.3735 162.703C80.3746 162.706 80.3754 162.711 80.3756 162.716C80.3757 162.72 80.3751 162.723 80.375 162.724L79.8904 162.6ZM80.2096 158.166L79.8834 162.644L80.3821 162.68L80.7082 158.203L80.2096 158.166ZM80.3762 157.789C80.2696 157.895 80.2089 158.031 80.2089 158.184H80.7089C80.7089 158.172 80.7104 158.162 80.7288 158.144L80.3762 157.789ZM80.7546 157.639C80.6153 157.639 80.4805 157.684 80.3752 157.79L80.7298 158.143C80.7307 158.142 80.7311 158.142 80.7309 158.142C80.7307 158.142 80.7308 158.142 80.7314 158.142C80.7325 158.141 80.7391 158.139 80.7546 158.139V157.639ZM81.1585 157.639H80.7546V158.139H81.1585V157.639ZM80.9711 155.178L80.9086 157.883L81.4085 157.895L81.4709 155.19L80.9711 155.178ZM79.1077 156.497L81.3309 155.408L81.1111 154.959L78.8879 156.048L79.1077 156.497ZM79.0289 158.828L79.2469 156.293L78.7487 156.251L78.5307 158.785L79.0289 158.828ZM79.0298 158.853V158.806H78.5298V158.853H79.0298ZM77.9442 160.28C78.4987 160.046 78.8518 159.573 79.0218 158.915L78.5378 158.79C78.3969 159.335 78.1281 159.66 77.7498 159.82L77.9442 160.28ZM72.548 162.948L77.9578 160.274L77.7362 159.826L72.3264 162.5L72.548 162.948ZM72.051 162.943C72.127 162.985 72.2138 163.013 72.3086 163.013C72.4047 163.013 72.4927 162.984 72.5694 162.936L72.305 162.512C72.301 162.514 72.2998 162.515 72.3013 162.514C72.303 162.514 72.3057 162.513 72.3086 162.513C72.3114 162.513 72.3121 162.513 72.3101 162.513C72.308 162.512 72.3025 162.51 72.2936 162.505L72.051 162.943ZM66.7916 160.352L72.0618 162.948L72.2828 162.5L67.0126 159.903L66.7916 160.352ZM65.7434 158.994C65.9133 159.64 66.259 160.11 66.7986 160.355L67.0056 159.9C66.6329 159.731 66.3679 159.403 66.2269 158.867L65.7434 158.994ZM65.7351 158.884V158.931H66.2351V158.884H65.7351ZM65.4871 156.202L65.7362 158.907L66.2341 158.861L65.985 156.156L65.4871 156.202ZM60.9464 154.118L65.6264 156.403L65.8458 155.954L61.1658 153.669L60.9464 154.118ZM60.8497 154.061L60.9274 154.108L61.1847 153.679L61.107 153.632L60.8497 154.061ZM60.122 152.696C60.122 153.203 60.3724 153.65 60.8141 154.035L61.1426 153.658C60.7758 153.339 60.622 153.019 60.622 152.696H60.122ZM70.0875 148.78L64.8475 150.91L65.0357 151.373L70.2758 149.243L70.0875 148.78ZM70.5384 148.794C70.3846 148.707 70.2179 148.714 70.0698 148.788L70.2934 149.235C70.3066 149.228 70.3086 149.23 70.3019 149.23C70.2989 149.23 70.2958 149.23 70.2931 149.229C70.2905 149.229 70.2898 149.228 70.2913 149.229L70.5384 148.794ZM70.8196 149.095C70.7633 148.944 70.6531 148.834 70.5028 148.777L70.3268 149.245C70.3382 149.25 70.3418 149.253 70.3426 149.254C70.3435 149.255 70.3471 149.259 70.3514 149.27L70.8196 149.095ZM70.5266 149.81C70.6509 149.748 70.768 149.654 70.8277 149.513C70.8894 149.367 70.8704 149.217 70.8166 149.087L70.3545 149.278C70.3641 149.301 70.3659 149.315 70.3661 149.319C70.3663 149.323 70.3657 149.322 70.3671 149.318C70.37 149.312 70.3653 149.332 70.303 149.363L70.5266 149.81ZM65.269 151.948L70.509 149.818L70.3207 149.355L65.0807 151.485L65.269 151.948ZM65.0822 151.98L65.206 151.965L65.1437 151.469L65.0199 151.484L65.0822 151.98ZM64.5403 151.641C64.5812 151.74 64.6457 151.83 64.7412 151.894C64.8367 151.957 64.9444 151.982 65.0511 151.982V151.482C65.0365 151.482 65.0277 151.48 65.0234 151.479C65.0212 151.479 65.02 151.478 65.0194 151.478C65.0188 151.478 65.0186 151.478 65.0186 151.478C65.0185 151.477 65.0183 151.477 65.0179 151.477C65.0175 151.477 65.0165 151.476 65.0152 151.474C65.0125 151.47 65.0077 151.463 65.0021 151.45L64.5403 151.641ZM64.5371 151.209C64.4848 151.349 64.4848 151.494 64.5371 151.633L65.0053 151.458C64.9954 151.431 64.9954 151.411 65.0053 151.385L64.5371 151.209ZM64.8529 150.908C64.7159 150.96 64.6022 151.055 64.5411 151.199L65.0013 151.395C65.0029 151.391 65.004 151.39 65.0053 151.389C65.0071 151.387 65.0138 151.381 65.0304 151.375L64.8529 150.908ZM60.7437 152.696C60.7437 153.016 60.9274 153.297 61.2017 153.537L61.5312 153.161C61.3087 152.966 61.2437 152.811 61.2437 152.696H60.7437ZM61.2168 151.856C60.9384 152.101 60.7437 152.381 60.7437 152.696H61.2437C61.2437 152.597 61.3076 152.442 61.5473 152.231L61.2168 151.856ZM71.1687 147.415L61.2804 151.815L61.4837 152.272L71.372 147.872L71.1687 147.415ZM73.6191 147.412C72.7741 147.067 71.9508 147.063 71.1679 147.415L71.3728 147.871C72.0196 147.581 72.7 147.577 73.4302 147.875L73.6191 147.412ZM83.6068 151.814L73.6255 147.415L73.4238 147.872L83.4051 152.272L83.6068 151.814ZM84.1586 152.687C84.1294 152.392 83.9441 152.117 83.679 151.863L83.3328 152.224C83.5646 152.446 83.6492 152.617 83.661 152.736L84.1586 152.687ZM83.7215 153.518C83.9798 153.282 84.1598 153.013 84.1598 152.712H83.6598C83.6598 152.805 83.6023 152.95 83.3842 153.149L83.7215 153.518ZM73.7595 158.455L83.6637 153.558L83.4421 153.109L73.5379 158.007L73.7595 158.455ZM71.4374 158.539C72.1731 158.849 72.9505 158.815 73.7503 158.459L73.5471 158.002C72.855 158.31 72.2226 158.328 71.6318 158.078L71.4374 158.539ZM61.2569 153.574L71.425 158.533L71.6442 158.084L61.4761 153.124L61.2569 153.574ZM57.8873 162.987C57.8117 162.761 57.7525 162.464 57.7122 162.091L57.2151 162.145C57.2576 162.538 57.3221 162.874 57.4132 163.146L57.8873 162.987ZM58.182 163.664C58.0954 163.501 57.9965 163.274 57.884 162.977L57.4165 163.155C57.5323 163.46 57.6397 163.709 57.7404 163.899L58.182 163.664ZM64.8266 164.812C62.4679 164.272 60.1908 163.846 57.9964 163.534L57.926 164.029C60.1053 164.339 62.3686 164.762 64.715 165.3L64.8266 164.812ZM64.4744 164.253C64.4631 164.519 64.4802 164.8 64.5235 165.093L65.0181 165.02C64.9787 164.753 64.9642 164.505 64.974 164.274L64.4744 164.253ZM64.8066 162.856C64.589 163.346 64.4742 163.816 64.4742 164.263H64.9742C64.9742 163.902 65.0671 163.501 65.2636 163.059L64.8066 162.856ZM65.6125 161.7C65.2487 162.096 64.9772 162.481 64.8075 162.854L65.2627 163.061C65.404 162.75 65.64 162.409 65.9807 162.038L65.6125 161.7ZM59.1876 159.799C61.2889 160.663 63.4686 161.432 65.7249 162.108L65.8684 161.63C63.6272 160.958 61.4631 160.194 59.3777 159.337L59.1876 159.799ZM58.0505 160.897C58.2424 160.46 58.6646 160.087 59.3761 159.8L59.1893 159.336C58.4082 159.651 57.8559 160.096 57.5927 160.696L58.0505 160.897ZM57.7137 162.118C57.7137 161.848 57.8163 161.446 58.0515 160.894L57.5916 160.698C57.3493 161.266 57.2137 161.745 57.2137 162.118H57.7137ZM59.2492 159.173C59.2703 159.168 59.2827 159.168 59.2886 159.168C59.2937 159.169 59.2954 159.17 59.2961 159.17L59.5188 158.722C59.3914 158.659 59.2562 158.657 59.1297 158.688L59.2492 159.173ZM57.4767 160.646C57.7409 160.025 58.3211 159.523 59.2773 159.165L59.1017 158.697C58.0684 159.084 57.3526 159.661 57.0167 160.45L57.4767 160.646ZM57.1072 162.129C57.0811 161.797 57.191 161.31 57.4764 160.646L57.017 160.449C56.7228 161.133 56.5728 161.713 56.6088 162.169L57.1072 162.129ZM57.2992 163.195C57.1908 162.841 57.1276 162.487 57.1076 162.135L56.6084 162.163C56.6307 162.557 56.7012 162.95 56.8211 163.341L57.2992 163.195ZM57.6984 164.08C57.5502 163.813 57.4159 163.514 57.295 163.183L56.8253 163.354C56.9538 163.707 57.0986 164.03 57.2614 164.323L57.6984 164.08ZM57.7378 164.123C57.7317 164.123 57.7286 164.122 57.7275 164.121C57.7265 164.121 57.7259 164.121 57.7252 164.12C57.7241 164.119 57.7152 164.113 57.7032 164.089L57.2566 164.314C57.3419 164.483 57.4887 164.601 57.6884 164.621L57.7378 164.123ZM65.171 165.528C62.78 164.967 60.306 164.499 57.7493 164.125L57.6769 164.62C60.2203 164.992 62.6803 165.457 65.0567 166.015L65.171 165.528ZM66.3087 165.809L65.1737 165.529L65.054 166.014L66.1889 166.294L66.3087 165.809ZM76.2993 168.832C73.026 167.648 69.696 166.64 66.3084 165.808L66.1892 166.294C69.5596 167.121 72.8726 168.124 76.1291 169.303L76.2993 168.832ZM76.3399 168.846L76.2933 168.83L76.1351 169.305L76.1818 169.32L76.3399 168.846ZM76.5407 168.88C76.4757 168.88 76.4091 168.869 76.3399 168.846L76.1818 169.32C76.2992 169.359 76.4191 169.38 76.5407 169.38V168.88ZM76.7417 168.846C76.6719 168.869 76.6056 168.88 76.5407 168.88V169.38C76.6624 169.38 76.7819 169.359 76.8994 169.32L76.7417 168.846ZM77.6936 168.163C77.4911 168.506 77.1862 168.732 76.7587 168.841L76.8824 169.325C77.4288 169.186 77.849 168.883 78.1241 168.417L77.6936 168.163ZM78.0475 167.077C78.0475 167.448 77.9351 167.804 77.7016 168.15L78.1161 168.43C78.3999 168.009 78.5475 167.557 78.5475 167.077H78.0475ZM78.0223 166.696C78.0367 166.761 78.0475 166.884 78.0475 167.077H78.5475C78.5475 166.877 78.5372 166.709 78.5106 166.588L78.0223 166.696ZM79.3224 166.583L78.3118 166.396L78.221 166.888L79.2316 167.074L79.3224 166.583ZM79.3483 166.579C79.335 166.589 79.3301 166.589 79.3333 166.588C79.3349 166.588 79.3374 166.588 79.3403 166.588C79.3433 166.588 79.3454 166.588 79.3463 166.588L79.2076 167.069C79.367 167.115 79.5184 167.073 79.6404 166.985L79.3483 166.579ZM79.3913 166.535C79.3883 166.547 79.385 166.552 79.3836 166.554C79.3822 166.556 79.3787 166.56 79.3693 166.566L79.6194 166.998C79.7506 166.923 79.8399 166.804 79.8766 166.655L79.3913 166.535ZM79.4394 166.359L79.3928 166.53L79.8751 166.661L79.9218 166.49L79.4394 166.359ZM79.4306 166.347V166.424H79.9306V166.347H79.4306ZM78.9317 164.764C79.2654 165.241 79.4306 165.766 79.4306 166.347H79.9306C79.9306 165.663 79.7339 165.038 79.3412 164.477L78.9317 164.764ZM78.059 164.119C78.3758 164.186 78.6678 164.388 78.9316 164.764L79.3412 164.478C79.0242 164.025 78.6328 163.729 78.1622 163.63L78.059 164.119ZM77.8308 164.078C77.8955 164.078 77.9624 164.089 78.0316 164.112L78.1897 163.638C78.0723 163.598 77.952 163.578 77.8308 163.578V164.078ZM66.3961 161.658C69.9223 162.678 73.7218 163.483 77.7948 164.075L77.8668 163.581C73.8136 162.991 70.0367 162.19 66.535 161.178L66.3961 161.658ZM59.3115 159.177C61.59 160.124 63.952 160.951 66.396 161.658L66.535 161.178C64.1084 160.476 61.764 159.655 59.5034 158.715L59.3115 159.177ZM65.8358 163.313C65.9849 162.996 66.2492 162.641 66.6415 162.248L66.2878 161.895C65.8723 162.31 65.5657 162.712 65.3833 163.1L65.8358 163.313ZM65.5952 164.263C65.5952 163.965 65.672 163.65 65.8345 163.315L65.3846 163.097C65.1951 163.488 65.0952 163.877 65.0952 164.263H65.5952ZM65.6833 165.16C65.6138 164.834 65.5857 164.538 65.5951 164.272L65.0954 164.255C65.0843 164.569 65.1178 164.905 65.1944 165.264L65.6833 165.16ZM65.9481 165.078L65.4975 164.969L65.3801 165.455L65.8307 165.564L65.9481 165.078ZM65.6394 165.227V165.321H66.1394V165.227H65.6394ZM65.7589 164.85C65.6614 164.967 65.6229 165.109 65.6413 165.258L66.1375 165.197C66.136 165.185 66.1374 165.18 66.1376 165.179C66.1378 165.178 66.1385 165.176 66.1436 165.169L65.7589 164.85ZM66.0921 164.643C65.9618 164.676 65.8478 164.744 65.7598 164.849L66.1427 165.17C66.1593 165.151 66.1801 165.136 66.2147 165.128L66.0921 164.643ZM66.5498 164.774C66.4325 164.673 66.2859 164.616 66.1219 164.637L66.1849 165.133C66.1901 165.133 66.1925 165.133 66.195 165.134C66.1983 165.135 66.2079 165.139 66.2234 165.152L66.5498 164.774ZM66.7434 165.134C66.7253 164.991 66.6601 164.865 66.5464 164.771L66.2268 165.155C66.2381 165.165 66.2444 165.173 66.2474 165.197L66.7434 165.134ZM66.803 165.427L66.7405 165.116L66.2503 165.214L66.3128 165.525L66.803 165.427ZM75.6419 167.93C72.6394 166.88 69.6314 165.982 66.6182 165.233L66.4977 165.719C69.4956 166.463 72.4887 167.357 75.4769 168.402L75.6419 167.93ZM75.2643 166.49C75.1899 167.16 75.2042 167.74 75.3158 168.222L75.803 168.109C75.7082 167.7 75.6907 167.181 75.7612 166.545L75.2643 166.49ZM75.3979 165.73C75.3201 165.987 75.2742 166.246 75.263 166.507L75.7625 166.528C75.7718 166.312 75.8099 166.094 75.8764 165.875L75.3979 165.73ZM75.9485 164.551C75.7003 164.89 75.5167 165.287 75.3957 165.738L75.8786 165.867C75.9858 165.468 76.1448 165.129 76.3519 164.846L75.9485 164.551ZM76.3902 164.075C76.2131 164.23 76.0642 164.389 75.9468 164.553L76.3535 164.844C76.4439 164.718 76.5649 164.587 76.7193 164.452L76.3902 164.075ZM67.6119 162.639C70.3891 163.388 73.3565 164.012 76.5157 164.51L76.5937 164.016C73.4501 163.52 70.5003 162.9 67.7421 162.156L67.6119 162.639ZM66.9706 163.639C67.1054 163.351 67.3882 162.999 67.8454 162.582L67.5086 162.213C67.033 162.646 66.6939 163.051 66.5178 163.427L66.9706 163.639ZM66.7278 164.42C66.7547 164.214 66.8332 163.952 66.9732 163.633L66.5152 163.432C66.3647 163.776 66.2672 164.085 66.232 164.355L66.7278 164.42ZM66.1128 164.916C66.2548 164.931 66.4106 164.91 66.537 164.807C66.6636 164.703 66.7146 164.555 66.7287 164.412L66.2311 164.363C66.2247 164.428 66.2082 164.43 66.2206 164.42C66.233 164.41 66.228 164.425 66.1629 164.419L66.1128 164.916ZM65.7434 164.718C65.837 164.831 65.9628 164.898 66.1073 164.916L66.1684 164.419C66.1463 164.417 66.1377 164.411 66.1281 164.399L65.7434 164.718ZM65.6251 164.295C65.6067 164.444 65.646 164.584 65.7329 164.705L66.1385 164.413C66.121 164.388 66.1192 164.373 66.1213 164.356L65.6251 164.295ZM65.944 163.175C65.7659 163.542 65.6588 163.919 65.6242 164.303L66.1222 164.348C66.1511 164.028 66.2405 163.71 66.3939 163.393L65.944 163.175ZM66.8031 162.032C66.425 162.4 66.1355 162.78 65.944 163.175L66.3939 163.393C66.5543 163.062 66.8046 162.728 67.1517 162.39L66.8031 162.032ZM66.3988 162.312L66.9116 162.452L67.0432 161.97L66.5305 161.83L66.3988 162.312ZM67.054 159.793L72.1845 162.327L72.4059 161.878L67.2754 159.344L67.054 159.793ZM66.3484 158.872C66.4656 159.304 66.6949 159.633 67.0631 159.797L67.2662 159.34C67.0748 159.255 66.9216 159.076 66.831 158.741L66.3484 158.872ZM66.1386 156.528L66.3407 158.829L66.8388 158.785L66.6367 156.484L66.1386 156.528ZM71.3942 158.659L66.4969 156.281L66.2784 156.731L71.1757 159.109L71.3942 158.659ZM73.8105 158.563C72.9653 158.942 72.1601 158.967 71.3783 158.652L71.1917 159.116C72.1101 159.486 73.0567 159.449 74.015 159.019L73.8105 158.563ZM78.2328 156.375L73.8019 158.567L74.0236 159.015L78.4545 156.823L78.2328 156.375ZM78.4215 158.749L78.5929 156.619L78.0945 156.579L77.9232 158.709L78.4215 158.749ZM77.6986 159.704C78.0643 159.541 78.2951 159.22 78.4132 158.796L77.9315 158.662C77.8419 158.984 77.6896 159.16 77.4956 159.247L77.6986 159.704ZM72.4062 162.327L77.7081 159.699L77.4861 159.251L72.1842 161.879L72.4062 162.327ZM81.0186 162.385L81.2985 158.529L80.7998 158.493L80.5199 162.349L81.0186 162.385ZM81.9664 162.117H80.7693V162.617H81.9664V162.117ZM81.5153 158.524L81.7168 162.38L82.2161 162.354L82.0146 158.498L81.5153 158.524ZM81.0491 158.761H81.7649V158.261H81.0491V158.761ZM71.3385 148.924L71.1989 148.986L71.4023 149.442L71.5419 149.38L71.3385 148.924ZM71.362 148.893C71.3559 148.909 71.3505 148.916 71.3489 148.917C71.3477 148.919 71.3462 148.92 71.3415 148.922L71.5389 149.382C71.6822 149.32 71.7781 149.207 71.83 149.069L71.362 148.893ZM71.3619 148.835C71.3734 148.866 71.3687 148.877 71.3662 148.882L71.8257 149.079C71.8855 148.94 71.8807 148.795 71.8301 148.66L71.3619 148.835ZM71.322 148.811C71.3428 148.819 71.3576 148.83 71.3722 148.859L71.8197 148.636C71.7517 148.499 71.6427 148.397 71.4968 148.342L71.322 148.811ZM71.3005 148.809C71.3037 148.807 71.3053 148.807 71.3056 148.807C71.3058 148.807 71.3056 148.807 71.3053 148.807C71.3042 148.807 71.309 148.806 71.322 148.811L71.4968 148.342C71.349 148.287 71.1931 148.294 71.0519 148.375L71.3005 148.809ZM71.1383 148.883L71.2779 148.821L71.0745 148.364L70.9349 148.426L71.1383 148.883ZM71.1152 148.913C71.1214 148.897 71.1267 148.89 71.1283 148.889C71.1293 148.887 71.1306 148.886 71.1348 148.884L70.9383 148.424C70.7946 148.486 70.6988 148.599 70.647 148.738L71.1152 148.913ZM71.1147 148.969C71.1032 148.939 71.1081 148.93 71.1101 148.926L70.6521 148.725C70.5907 148.865 70.5956 149.012 70.6476 149.148L71.1147 148.969ZM71.1762 148.995C71.1483 148.995 71.138 148.989 71.1349 148.987C71.1313 148.985 71.1195 148.977 71.1049 148.947L70.6573 149.17C70.7046 149.265 70.7729 149.35 70.8676 149.41C70.9628 149.47 71.0691 149.495 71.1762 149.495V148.995ZM71.1614 149.006C71.1733 148.998 71.1826 148.996 71.1857 148.995C71.1884 148.994 71.1859 148.995 71.1762 148.995V149.495C71.2581 149.495 71.3539 149.479 71.4397 149.422L71.1614 149.006ZM79.1039 165.915L77.9226 165.697L77.832 166.189L79.0133 166.406L79.1039 165.915ZM78.4219 165.127C78.6532 165.441 78.7815 165.79 78.8092 166.178L79.3079 166.143C79.2735 165.66 79.112 165.221 78.8246 164.831L78.4219 165.127ZM77.9293 164.728C78.0857 164.754 78.2498 164.86 78.413 165.114L78.8335 164.844C78.6236 164.517 78.353 164.291 78.0112 164.235L77.9293 164.728ZM77.7548 164.696L77.9255 164.727L78.0151 164.235L77.8444 164.204L77.7548 164.696ZM77.6282 164.7H77.7996V164.2H77.6282V164.7ZM76.8716 165.212C77.0972 164.878 77.3565 164.723 77.6485 164.699L77.608 164.201C77.1339 164.24 76.7489 164.5 76.4571 164.932L76.8716 165.212ZM76.6485 165.322H76.6643V164.822H76.6485V165.322ZM76.5881 165.702C76.6519 165.528 76.7388 165.369 76.8486 165.222L76.4484 164.922C76.3094 165.108 76.1992 165.311 76.1187 165.53L76.5881 165.702ZM77.1858 165.445L76.3773 165.367L76.3295 165.865L77.1379 165.943L77.1858 165.445ZM77.5603 165.501C77.4321 165.463 77.299 165.444 77.1618 165.444V165.944C77.2529 165.944 77.3375 165.956 77.4169 165.98L77.5603 165.501ZM77.8046 165.604L77.5872 165.511L77.39 165.97L77.6074 166.064L77.8046 165.604ZM78.0114 165.732L77.84 165.623L77.5719 166.045L77.7433 166.154L78.0114 165.732ZM75.9361 166.179L75.8742 166.537L76.3669 166.622L76.4288 166.265L75.9361 166.179ZM76.3764 165.989L76.205 165.973L76.1598 166.471L76.3312 166.487L76.3764 165.989ZM76.4794 166.828C76.4794 166.617 76.5163 166.464 76.5743 166.355L76.1332 166.12C76.0252 166.322 75.9794 166.563 75.9794 166.828H76.4794ZM76.6273 167.441C76.5346 167.294 76.4794 167.095 76.4794 166.828H75.9794C75.9794 167.162 76.0486 167.461 76.2046 167.708L76.6273 167.441ZM76.7946 167.646C76.6934 167.546 76.6514 167.487 76.64 167.464L76.1919 167.686C76.2421 167.787 76.335 167.894 76.4415 168L76.7946 167.646ZM76.8207 167.638C76.8037 167.64 76.7881 167.638 76.7635 167.62L76.4726 168.027C76.5923 168.112 76.7322 168.152 76.8818 168.134L76.8207 167.638ZM76.862 167.616C76.8513 167.629 76.8422 167.635 76.8197 167.638L76.8828 168.134C77.0263 168.115 77.1509 168.049 77.2448 167.938L76.862 167.616ZM76.8811 167.544C76.8811 167.57 76.8739 167.598 76.8498 167.632L77.257 167.922C77.3361 167.811 77.3811 167.683 77.3811 167.544H76.8811ZM76.8824 167.558C76.8839 167.559 76.8837 167.559 76.8825 167.558C76.8813 167.557 76.8801 167.556 76.8794 167.554C76.8776 167.551 76.8808 167.555 76.8826 167.571L77.3796 167.516C77.3618 167.354 77.281 167.211 77.1311 167.125L76.8824 167.558ZM76.7601 167.429L76.8067 167.491L77.2067 167.191L77.1601 167.129L76.7601 167.429ZM76.7204 167.358L76.7356 167.389L77.1846 167.169L77.1694 167.138L76.7204 167.358ZM76.6013 166.828C76.6013 167.03 76.6363 167.221 76.7308 167.377L77.1589 167.119C77.1284 167.069 77.1013 166.979 77.1013 166.828H76.6013ZM76.7992 166.263C76.6494 166.412 76.6013 166.619 76.6013 166.828H77.1013C77.1013 166.685 77.1352 166.634 77.1521 166.617L76.7992 166.263ZM76.8223 166.228L76.7756 166.29L77.1756 166.59L77.2223 166.528L76.8223 166.228ZM76.813 166.236L76.7978 166.268L77.2468 166.488L77.262 166.456L76.813 166.236ZM77.0523 166.078L76.9587 166.109L77.1163 166.584L77.2099 166.553L77.0523 166.078ZM77.3712 166.099L77.1691 166.068L77.0931 166.562L77.2952 166.594L77.3712 166.099ZM77.5038 166.145L77.4261 166.114L77.2404 166.579L77.3181 166.61L77.5038 166.145ZM77.6643 166.264L77.5713 166.186L77.2506 166.569L77.3436 166.647L77.6643 166.264ZM77.6948 166.292L77.679 166.277L77.3289 166.634L77.3448 166.649L77.6948 166.292ZM77.9253 167.077C77.9253 166.772 77.8736 166.489 77.7052 166.303L77.3344 166.639C77.3725 166.681 77.4253 166.801 77.4253 167.077H77.9253ZM77.5885 168.101C77.8065 167.769 77.9253 167.426 77.9253 167.077H77.4253C77.4253 167.308 77.3476 167.557 77.1706 167.826L77.5885 168.101ZM76.7344 168.732C77.1093 168.623 77.4025 168.411 77.5939 168.092L77.1652 167.835C77.0457 168.034 76.8626 168.174 76.595 168.252L76.7344 168.732ZM76.516 168.756L76.6873 168.741L76.6421 168.243L76.4708 168.259L76.516 168.756ZM76.3192 168.7L76.3811 168.731L76.6056 168.284L76.5437 168.253L76.3192 168.7ZM75.9641 168.253C76.0334 168.439 76.143 168.622 76.3305 168.705L76.5325 168.248C76.5341 168.248 76.523 168.244 76.503 168.218C76.4826 168.19 76.4579 168.146 76.4325 168.078L75.9641 168.253ZM75.8721 166.552C75.7974 167.222 75.8209 167.789 75.9593 168.239L76.4372 168.092C76.3269 167.733 76.2982 167.243 76.369 166.607L75.8721 166.552Z" fill="white"/>
<circle opacity="0.01" cx="74" cy="90" r="20" fill="white"/>
<path fill-rule="evenodd" clip-rule="evenodd" d="M74.9272 96.0189C74.9272 98.8263 77.2115 101.111 80.0198 101.111C82.8282 101.111 85.1124 98.8263 85.1124 96.0189C85.1124 93.2115 82.8282 90.9263 80.0198 90.9263C77.2115 90.9263 74.9272 93.2115 74.9272 96.0189ZM75.8546 96.0186C75.8546 93.7214 77.724 91.852 80.0213 91.852C82.3185 91.852 84.1879 93.7214 84.1879 96.0186C84.1879 98.3158 82.3185 100.185 80.0213 100.185C77.724 100.185 75.8546 98.3158 75.8546 96.0186Z" fill="white"/>
<path d="M80.0198 101.011C77.2667 101.011 75.0272 98.7711 75.0272 96.0189H74.8272C74.8272 98.8815 77.1563 101.211 80.0198 101.211V101.011ZM85.0124 96.0189C85.0124 98.7711 82.7729 101.011 80.0198 101.011V101.211C82.8834 101.211 85.2124 98.8815 85.2124 96.0189H85.0124ZM80.0198 91.0263C82.7729 91.0263 85.0124 93.2667 85.0124 96.0189H85.2124C85.2124 93.1562 82.8834 90.8263 80.0198 90.8263V91.0263ZM75.0272 96.0189C75.0272 93.2667 77.2667 91.0263 80.0198 91.0263V90.8263C77.1563 90.8263 74.8272 93.1562 74.8272 96.0189H75.0272ZM80.0213 91.752C77.6688 91.752 75.7546 93.6662 75.7546 96.0186H75.9546C75.9546 93.7766 77.7793 91.952 80.0213 91.952V91.752ZM84.2879 96.0186C84.2879 93.6662 82.3737 91.752 80.0213 91.752V91.952C82.2633 91.952 84.0879 93.7766 84.0879 96.0186H84.2879ZM80.0213 100.285C82.3737 100.285 84.2879 98.3711 84.2879 96.0186H84.0879C84.0879 98.2606 82.2633 100.085 80.0213 100.085V100.285ZM75.7546 96.0186C75.7546 98.3711 77.6688 100.285 80.0213 100.285V100.085C77.7793 100.085 75.9546 98.2606 75.9546 96.0186H75.7546Z" fill="white"/>
<path d="M79.0939 98.3335C78.9753 98.3335 78.8568 98.2882 78.7661 98.1983L76.9142 96.3465C76.7337 96.1659 76.7337 95.8724 76.9142 95.6919C77.0948 95.5113 77.3883 95.5113 77.5689 95.6919L79.0929 97.2159L82.4689 93.84C82.6494 93.6595 82.9429 93.6595 83.1235 93.84C83.304 94.0206 83.304 94.3141 83.1235 94.4946L79.4198 98.1983C79.3309 98.2882 79.2124 98.3335 79.0939 98.3335Z" fill="white" stroke="white" stroke-width="0.2"/>
<path d="M75.4864 101.111H63.3521C63.0966 101.111 62.8892 100.904 62.8892 100.648V98.4243C62.8892 98.3864 62.8938 98.3484 62.903 98.3123C63.1447 97.3456 63.5234 96.4003 64.6521 96.0234L68.7614 94.654C69.7271 94.2503 70.179 92.6521 70.2762 92.0456C69.5679 91.3947 68.9077 90.416 68.9077 89.5373C68.9077 89.2095 68.8105 89.0743 68.7586 89.0493C68.6142 89.0132 68.5327 88.9216 68.4771 88.7836C68.4271 88.6568 67.9818 87.5206 67.9818 86.7595C67.9818 86.7216 67.9864 86.6836 67.9956 86.6475C68.0466 86.4438 68.1882 86.1475 68.4447 85.9734V83.5188C68.4447 81.5855 70.2058 78.8892 73.0743 78.8892C75.9077 78.8892 76.678 80.3419 76.7688 81.0605C77.2484 81.416 77.704 82.0271 77.704 83.5188V85.9734C77.9605 86.1475 78.1021 86.4438 78.153 86.6475C78.1623 86.6836 78.1669 86.7216 78.1669 86.7595C78.1669 87.5206 77.7216 88.6568 77.6706 88.7836C77.6151 88.9216 77.4966 89.0253 77.353 89.0614C77.3382 89.0743 77.241 89.2095 77.241 89.5373C77.241 89.9401 77.104 90.3818 76.8345 90.8521C76.7068 91.0734 76.4234 91.1493 76.2021 91.0234C75.9808 90.8956 75.904 90.6132 76.0308 90.391C76.2169 90.0669 76.3151 89.7725 76.3151 89.5373C76.3151 88.8456 76.6012 88.4623 76.8716 88.2808C77.0049 87.9179 77.2169 87.2586 77.2392 86.8299C77.2234 86.7938 77.2012 86.7558 77.1864 86.7429C76.9308 86.7419 76.778 86.5521 76.778 86.2966V83.5188C76.778 82.1558 76.3401 81.879 76.153 81.7595C76.041 81.6873 75.8521 81.5688 75.8243 81.3142C75.8188 81.2586 75.8262 81.1966 75.8447 81.1336C75.779 80.766 75.2234 79.8151 73.0743 79.8151C70.8132 79.8151 69.3706 82.0086 69.3706 83.5188V86.2966C69.3706 86.5521 69.1632 86.7595 68.9077 86.7595C68.9299 86.7595 68.9216 86.791 68.9095 86.8262C68.9308 87.2577 69.1438 87.9179 69.2771 88.2799C69.5475 88.4614 69.8336 88.8456 69.8336 89.5373C69.8336 90.1605 70.4475 90.9938 71.054 91.4947C71.1614 91.5836 71.2225 91.7142 71.2225 91.8521C71.2225 92.4401 70.6882 94.8521 69.0855 95.5206L64.9447 96.9021C64.2892 97.1206 64.029 97.6475 63.8151 98.4818V100.185H75.4864C75.7419 100.185 75.9493 100.393 75.9493 100.648C75.9493 100.904 75.7429 101.111 75.4864 101.111Z" fill="white" stroke="white" stroke-width="0.2"/>
<path fill-rule="evenodd" clip-rule="evenodd" d="M68 35L74.3269 41.7143L80.6538 35H68Z" fill="#51565E"/>
<path d="M62 281.051L69.4717 288.486L70 289.012L70.5283 288.486L78 281.051L76.9433 280L69.4717 287.434H70.5283L63.0567 280L62 281.051Z" fill="white"/>
<path d="M62 294.949L69.4717 287.514L70 286.988L70.5283 287.514L78 294.949L76.9433 296L69.4717 288.566H70.5283L63.0567 296L62 294.949Z" fill="white"/>
<path d="M62.5835 332.35L68.0002 337.766L68.3832 338.149L68.7662 337.766L74.1829 332.35L73.4168 331.583L68.0002 337H68.7662L63.3495 331.583L62.5835 332.35Z" fill="white"/>
<path d="M62.5835 342.475L68.0002 337.058L68.3832 336.675L68.7662 337.058L74.1829 342.475L73.4168 343.241L68.0002 337.824H68.7662L63.3495 343.241L62.5835 342.475Z" fill="white"/>
</svg>
