<svg width="96" height="56" viewBox="0 0 96 56" fill="none" xmlns="http://www.w3.org/2000/svg">
<path fill-rule="evenodd" clip-rule="evenodd" d="M12.1553 12.9001C12.4219 12.7528 12.7455 12.7528 13.012 12.9001L15.3656 14.2012C16.0125 14.5587 16.7868 14.0132 16.6679 13.2837L16.1973 10.3988C16.152 10.1214 16.2411 9.83905 16.4374 9.6379L18.4636 7.56115C18.9669 7.04533 18.676 6.17641 17.9636 6.06756L15.2396 5.65136C14.9477 5.60677 14.6972 5.4196 14.5718 5.15231L13.3852 2.62425C13.0665 1.94531 12.1008 1.94531 11.7821 2.62425L10.5955 5.15231C10.4701 5.4196 10.2196 5.60677 9.92775 5.65136L7.20369 6.06756C6.49128 6.17641 6.20039 7.04533 6.70367 7.56115L8.72993 9.6379C8.92618 9.83905 9.01529 10.1214 8.97005 10.3988L8.49946 13.2837C8.38047 14.0132 9.15483 14.5587 9.80168 14.2012L12.1553 12.9001Z" fill="#FFBB0C"/>
<path fill-rule="evenodd" clip-rule="evenodd" d="M29.8633 12.9001C30.1299 12.7528 30.4535 12.7528 30.72 12.9001L33.0736 14.2012C33.7205 14.5587 34.4949 14.0132 34.3759 13.2837L33.9053 10.3988C33.86 10.1214 33.9491 9.83905 34.1454 9.6379L36.1716 7.56115C36.6749 7.04533 36.384 6.17641 35.6716 6.06756L32.9476 5.65136C32.6557 5.60677 32.4052 5.4196 32.2798 5.15231L31.0932 2.62425C30.7745 1.94531 29.8088 1.94531 29.4901 2.62425L28.3035 5.15231C28.1781 5.4196 27.9276 5.60677 27.6358 5.65136L24.9117 6.06756C24.1993 6.17641 23.9084 7.04533 24.4117 7.56115L26.4379 9.6379C26.6342 9.83905 26.7233 10.1214 26.6781 10.3988L26.2075 13.2837C26.0885 14.0132 26.8628 14.5587 27.5097 14.2012L29.8633 12.9001Z" fill="#FFBB0C"/>
<path fill-rule="evenodd" clip-rule="evenodd" d="M47.5713 12.9001C47.8379 12.7528 48.1615 12.7528 48.428 12.9001L50.7816 14.2012C51.4285 14.5587 52.2029 14.0132 52.0839 13.2837L51.6133 10.3988C51.568 10.1214 51.6572 9.83905 51.8534 9.6379L53.8797 7.56115C54.3829 7.04533 54.092 6.17641 53.3796 6.06756L50.6556 5.65136C50.3637 5.60677 50.1133 5.4196 49.9878 5.15231L48.8012 2.62425C48.4825 1.94531 47.5168 1.94531 47.1982 2.62425L46.0116 5.15231C45.8861 5.4196 45.6356 5.60677 45.3438 5.65136L42.6197 6.06756C41.9073 6.17641 41.6164 7.04533 42.1197 7.56115L44.1459 9.6379C44.3422 9.83905 44.4313 10.1214 44.3861 10.3988L43.9155 13.2837C43.7965 14.0132 44.5708 14.5587 45.2177 14.2012L47.5713 12.9001Z" fill="#FFBB0C"/>
<path fill-rule="evenodd" clip-rule="evenodd" d="M65.2803 12.9001C65.5469 12.7528 65.8705 12.7528 66.137 12.9001L68.4906 14.2012C69.1375 14.5587 69.9118 14.0132 69.7929 13.2837L69.3223 10.3988C69.277 10.1214 69.3661 9.83905 69.5624 9.6379L71.5886 7.56115C72.0919 7.04533 71.801 6.17641 71.0886 6.06756L68.3646 5.65136C68.0727 5.60677 67.8222 5.4196 67.6968 5.15231L66.5102 2.62425C66.1915 1.94531 65.2258 1.94531 64.9071 2.62425L63.7205 5.15231C63.5951 5.4196 63.3446 5.60677 63.0527 5.65136L60.3287 6.06756C59.6163 6.17641 59.3254 7.04533 59.8287 7.56115L61.8549 9.6379C62.0512 9.83905 62.1403 10.1214 62.0951 10.3988L61.6245 13.2837C61.5055 14.0132 62.2798 14.5587 62.9267 14.2012L65.2803 12.9001Z" fill="#FFBB0C"/>
<path fill-rule="evenodd" clip-rule="evenodd" d="M82.9883 12.9001C83.2549 12.7528 83.5785 12.7528 83.845 12.9001L86.1986 14.2012C86.8455 14.5587 87.6199 14.0132 87.5009 13.2837L87.0303 10.3988C86.985 10.1214 87.0741 9.83905 87.2704 9.6379L89.2966 7.56115C89.7999 7.04533 89.509 6.17641 88.7966 6.06756L86.0726 5.65136C85.7807 5.60677 85.5302 5.4196 85.4048 5.15231L84.2182 2.62425C83.8995 1.94531 82.9338 1.94531 82.6151 2.62425L81.4285 5.15231C81.3031 5.4196 81.0526 5.60677 80.7608 5.65136L78.0367 6.06756C77.3243 6.17641 77.0334 7.04533 77.5367 7.56115L79.5629 9.6379C79.7592 9.83905 79.8483 10.1214 79.8031 10.3988L79.3325 13.2837C79.2135 14.0132 79.9878 14.5587 80.6347 14.2012L82.9883 12.9001Z" fill="#FFBB0C"/>
<path fill-rule="evenodd" clip-rule="evenodd" d="M12.1553 42.9001C12.4219 42.7528 12.7455 42.7528 13.012 42.9001L15.3656 44.2012C16.0125 44.5587 16.7868 44.0132 16.6679 43.2837L16.1973 40.3988C16.152 40.1214 16.2411 39.839 16.4374 39.6379L18.4636 37.5612C18.9669 37.0453 18.676 36.1764 17.9636 36.0676L15.2396 35.6514C14.9477 35.6068 14.6972 35.4196 14.5718 35.1523L13.3852 32.6243C13.0665 31.9453 12.1008 31.9453 11.7821 32.6243L10.5955 35.1523C10.4701 35.4196 10.2196 35.6068 9.92775 35.6514L7.20369 36.0676C6.49128 36.1764 6.20039 37.0453 6.70367 37.5612L8.72993 39.6379C8.92618 39.839 9.01529 40.1214 8.97005 40.3988L8.49946 43.2837C8.38047 44.0132 9.15483 44.5587 9.80168 44.2012L12.1553 42.9001Z" fill="#E6E6E6"/>
<path fill-rule="evenodd" clip-rule="evenodd" d="M29.8633 42.9001C30.1299 42.7528 30.4535 42.7528 30.72 42.9001L33.0736 44.2012C33.7205 44.5587 34.4949 44.0132 34.3759 43.2837L33.9053 40.3988C33.86 40.1214 33.9491 39.839 34.1454 39.6379L36.1716 37.5612C36.6749 37.0453 36.384 36.1764 35.6716 36.0676L32.9476 35.6514C32.6557 35.6068 32.4052 35.4196 32.2798 35.1523L31.0932 32.6243C30.7745 31.9453 29.8088 31.9453 29.4901 32.6243L28.3035 35.1523C28.1781 35.4196 27.9276 35.6068 27.6358 35.6514L24.9117 36.0676C24.1993 36.1764 23.9084 37.0453 24.4117 37.5612L26.4379 39.6379C26.6342 39.839 26.7233 40.1214 26.6781 40.3988L26.2075 43.2837C26.0885 44.0132 26.8628 44.5587 27.5097 44.2012L29.8633 42.9001Z" fill="#E6E6E6"/>
<path fill-rule="evenodd" clip-rule="evenodd" d="M47.5713 42.9001C47.8379 42.7528 48.1615 42.7528 48.428 42.9001L50.7816 44.2012C51.4285 44.5587 52.2029 44.0132 52.0839 43.2837L51.6133 40.3988C51.568 40.1214 51.6572 39.839 51.8534 39.6379L53.8797 37.5612C54.3829 37.0453 54.092 36.1764 53.3796 36.0676L50.6556 35.6514C50.3637 35.6068 50.1133 35.4196 49.9878 35.1523L48.8012 32.6243C48.4825 31.9453 47.5168 31.9453 47.1982 32.6243L46.0116 35.1523C45.8861 35.4196 45.6356 35.6068 45.3438 35.6514L42.6197 36.0676C41.9073 36.1764 41.6164 37.0453 42.1197 37.5612L44.1459 39.6379C44.3422 39.839 44.4313 40.1214 44.3861 40.3988L43.9155 43.2837C43.7965 44.0132 44.5708 44.5587 45.2177 44.2012L47.5713 42.9001Z" fill="#E6E6E6"/>
<path fill-rule="evenodd" clip-rule="evenodd" d="M65.2803 42.9001C65.5469 42.7528 65.8705 42.7528 66.137 42.9001L68.4906 44.2012C69.1375 44.5587 69.9118 44.0132 69.7929 43.2837L69.3223 40.3988C69.277 40.1214 69.3661 39.839 69.5624 39.6379L71.5886 37.5612C72.0919 37.0453 71.801 36.1764 71.0886 36.0676L68.3646 35.6514C68.0727 35.6068 67.8222 35.4196 67.6968 35.1523L66.5102 32.6243C66.1915 31.9453 65.2258 31.9453 64.9071 32.6243L63.7205 35.1523C63.5951 35.4196 63.3446 35.6068 63.0527 35.6514L60.3287 36.0676C59.6163 36.1764 59.3254 37.0453 59.8287 37.5612L61.8549 39.6379C62.0512 39.839 62.1403 40.1214 62.0951 40.3988L61.6245 43.2837C61.5055 44.0132 62.2798 44.5587 62.9267 44.2012L65.2803 42.9001Z" fill="#E6E6E6"/>
<path fill-rule="evenodd" clip-rule="evenodd" d="M82.9883 42.9001C83.2549 42.7528 83.5785 42.7528 83.845 42.9001L86.1986 44.2012C86.8455 44.5587 87.6199 44.0132 87.5009 43.2837L87.0303 40.3988C86.985 40.1214 87.0741 39.839 87.2704 39.6379L89.2966 37.5612C89.7999 37.0453 89.509 36.1764 88.7966 36.0676L86.0726 35.6514C85.7807 35.6068 85.5302 35.4196 85.4048 35.1523L84.2182 32.6243C83.8995 31.9453 82.9338 31.9453 82.6151 32.6243L81.4285 35.1523C81.3031 35.4196 81.0526 35.6068 80.7608 35.6514L78.0367 36.0676C77.3243 36.1764 77.0334 37.0453 77.5367 37.5612L79.5629 39.6379C79.7592 39.839 79.8483 40.1214 79.8031 40.3988L79.3325 43.2837C79.2135 44.0132 79.9878 44.5587 80.6347 44.2012L82.9883 42.9001Z" fill="#E6E6E6"/>
</svg>
