<svg width="15" height="15" viewBox="0 0 15 15" fill="none" xmlns="http://www.w3.org/2000/svg">
<path d="M14.2966 4.48891C14.2739 4.46747 13.7932 4.01984 13.1932 3.69625C13.1237 3.01775 12.8941 2.40233 12.8829 2.37315C12.8383 2.25514 12.7452 2.162 12.6272 2.11738C12.598 2.10622 11.9826 1.87662 11.3041 1.8071C10.9805 1.20671 10.5324 0.726054 10.5114 0.70329C10.4247 0.611032 10.3028 0.545787 10.1767 0.565094C10.1458 0.565944 9.48914 0.589118 8.83555 0.784824C8.30682 0.353978 7.70942 0.0521566 7.68109 0.0392657C7.56607 -0.0130886 7.43388 -0.0130886 7.31888 0.0392657C7.29055 0.0521273 6.69318 0.353948 6.16445 0.784824C5.51083 0.589118 4.85422 0.565944 4.82334 0.565094C4.69115 0.546637 4.57528 0.611003 4.48859 0.70329C4.46755 0.726024 4.01951 1.20671 3.69592 1.8071C3.01742 1.87662 2.402 2.10622 2.37282 2.11738C2.25481 2.162 2.16167 2.25514 2.11705 2.37315C2.10589 2.40233 1.87629 3.01775 1.80677 3.69625C1.20638 4.01984 0.725724 4.46788 0.70296 4.48891C0.611113 4.57561 0.560487 4.69748 0.564765 4.82367C0.565614 4.85458 0.588789 5.51119 0.784495 6.16478C0.353619 6.69351 0.0517977 7.29091 0.0389362 7.31921C-0.0129787 7.43423 -0.0129787 7.56642 0.0389362 7.68142C0.0517977 7.70975 0.353619 8.30712 0.784495 8.83585C0.588789 9.48947 0.565614 10.1461 0.564765 10.177C0.560487 10.3031 0.611113 10.425 0.70296 10.5117C0.725695 10.5327 1.20638 10.9808 1.80677 11.3044C1.87629 11.9829 2.10589 12.5983 2.11705 12.6275C2.16167 12.7455 2.25481 12.8386 2.37326 12.8832C2.40244 12.8944 3.01742 13.124 3.69592 13.1935C4.01951 13.7935 4.46711 14.2742 4.48859 14.2969C4.57484 14.3892 4.69888 14.4471 4.82334 14.4355C4.85425 14.4347 5.51086 14.4115 6.16404 14.2158C6.69321 14.6462 7.29058 14.9485 7.31891 14.9613C7.37642 14.9875 7.43821 15.0004 7.50003 15.0004C7.56185 15.0004 7.62364 14.9875 7.68115 14.9613C7.70948 14.9485 8.30685 14.6462 8.83558 14.2158C9.4892 14.4115 10.1458 14.4347 10.1767 14.4355C10.3072 14.4462 10.4248 14.3892 10.5114 14.2969C10.5329 14.2742 10.9805 13.7935 11.3041 13.1935C11.9826 13.124 12.5976 12.8944 12.6268 12.8832C12.7452 12.8386 12.8384 12.7455 12.883 12.6275C12.8941 12.5983 13.1237 11.9829 13.1933 11.3044C13.7932 10.9808 14.2739 10.5332 14.2966 10.5117C14.3889 10.4255 14.4395 10.3036 14.4352 10.177C14.4344 10.1461 14.4112 9.48944 14.2155 8.83585C14.6464 8.30712 14.9482 7.70972 14.9611 7.68142C15.013 7.56639 15.013 7.43421 14.9611 7.31921C14.9482 7.29088 14.6464 6.69351 14.2155 6.16478C14.4112 5.51116 14.4344 4.85455 14.4352 4.82367C14.4395 4.69707 14.3889 4.5752 14.2966 4.48891ZM10.9182 6.3858L6.93178 10.3723C6.84594 10.4581 6.73349 10.501 6.62108 10.501C6.50867 10.501 6.39619 10.4581 6.31038 10.3723L4.08176 8.14367C3.91011 7.97202 3.91011 7.6939 4.08176 7.52224L5.32461 6.27939C5.49627 6.10774 5.77439 6.10774 5.94604 6.27939L6.62111 6.95446L9.05358 4.52155C9.22523 4.3499 9.50335 4.3499 9.675 4.52155L10.9183 5.7644C11.0899 5.93606 11.0898 6.21426 10.9182 6.3858Z" fill="#1179EF"/>
<circle cx="7.87319" cy="7.12489" r="4.12514" fill="#1179EF"/>
<path d="M4.49902 7.17803L6.68091 9.74954L10.4992 5.24939" stroke="white" stroke-width="1.5"/>
</svg>
