<svg width="32" height="32" viewBox="0 0 32 32" fill="none" xmlns="http://www.w3.org/2000/svg">
<path fill-rule="evenodd" clip-rule="evenodd" d="M27.3656 7.33277C26.4531 7.85297 25.4447 8.2313 24.367 8.43373C23.5084 7.55134 22.2815 7 20.9231 7C18.3193 7 16.2062 9.03467 16.2062 11.544C16.2062 11.9004 16.2467 12.2458 16.3277 12.5786C12.4061 12.3889 8.92965 10.582 6.60097 7.82932C6.19443 8.50293 5.9623 9.28439 5.9623 10.1166C5.9623 11.6922 6.79502 13.0832 8.06192 13.8981C7.28938 13.8762 6.56044 13.6698 5.923 13.3318V13.3872C5.923 15.5897 7.54976 17.4271 9.71017 17.8429C9.31469 17.9496 8.8971 18.0032 8.46661 18.0032C8.16263 18.0032 7.86602 17.9756 7.57862 17.9225C8.17921 19.7271 9.92081 21.0414 11.986 21.0766C10.3716 22.2958 8.33581 23.0224 6.12565 23.0224C5.74491 23.0224 5.36846 23.0017 5 22.9601C7.08795 24.2474 9.56954 25 12.2335 25C20.9139 25 25.659 18.0771 25.659 12.0717C25.659 11.8739 25.6554 11.6766 25.6474 11.4828C26.5691 10.8421 27.3699 10.0422 28 9.13098C27.155 9.49201 26.2449 9.73654 25.2906 9.84611C26.2652 9.28439 27.0131 8.39393 27.3656 7.33277Z" fill="#1CA2F1"/>
</svg>
