<svg width="212" height="310" viewBox="0 0 212 310" fill="none" xmlns="http://www.w3.org/2000/svg">
<path d="M36.3929 32.1429C34.6297 32.1429 32.9504 31.7591 31.4021 31.0026C31.2564 30.9298 31.0889 30.9213 30.9371 30.9747C30.7841 31.0281 30.659 31.1399 30.5886 31.2844L29.6341 33.26C27.1643 31.8818 25.1194 29.8381 23.7424 27.3683L25.7169 26.4114C25.8626 26.341 25.9731 26.2159 26.0265 26.0629C26.0787 25.9111 26.069 25.7436 25.9974 25.5979C25.2409 24.0496 24.8571 22.3703 24.8571 20.6071C24.8571 20.272 24.5851 20 24.25 20H20.6071C20.272 20 20 20.272 20 20.6071C20 29.6463 27.3537 37 36.3929 37C36.728 37 37 36.728 37 36.3929V32.75C37 32.4149 36.728 32.1429 36.3929 32.1429Z" fill="#212529"/>
<path d="M73.3929 32.1429C71.6297 32.1429 69.9504 31.7591 68.4021 31.0026C68.2564 30.9298 68.0889 30.9213 67.9371 30.9747C67.7841 31.0281 67.659 31.1399 67.5886 31.2844L66.6341 33.26C64.1643 31.8818 62.1194 29.8381 60.7424 27.3683L62.7169 26.4114C62.8626 26.341 62.9731 26.2159 63.0265 26.0629C63.0787 25.9111 63.069 25.7436 62.9974 25.5979C62.2409 24.0496 61.8571 22.3703 61.8571 20.6071C61.8571 20.272 61.5851 20 61.25 20H57.6071C57.272 20 57 20.272 57 20.6071C57 29.6463 64.3537 37 73.3929 37C73.728 37 74 36.728 74 36.3929V32.75C74 32.4149 73.728 32.1429 73.3929 32.1429Z" fill="#212529"/>
<path d="M69.5001 25.3676C69.5306 25.642 69.7778 25.8398 70.0522 25.8093L74.5247 25.3124C74.7991 25.2819 74.9969 25.0346 74.9664 24.7602C74.9359 24.4857 74.6887 24.288 74.4143 24.3185L70.4387 24.7602L69.997 20.7847C69.9665 20.5102 69.7193 20.3124 69.4448 20.3429C69.1704 20.3734 68.9726 20.6206 69.0031 20.8951L69.5001 25.3676ZM73.6066 20L69.6066 25L70.3874 25.6247L74.3874 20.6247L73.6066 20Z" fill="#212529"/>
<path d="M36.3929 73.1429C34.6297 73.1429 32.9504 72.7591 31.4021 72.0026C31.2564 71.9298 31.0889 71.9213 30.9371 71.9747C30.7841 72.0281 30.659 72.1399 30.5886 72.2844L29.6341 74.26C27.1643 72.8818 25.1194 70.8381 23.7424 68.3683L25.7169 67.4114C25.8626 67.341 25.9731 67.2159 26.0265 67.0629C26.0787 66.9111 26.069 66.7436 25.9974 66.5979C25.2409 65.0496 24.8571 63.3703 24.8571 61.6071C24.8571 61.272 24.5851 61 24.25 61H20.6071C20.272 61 20 61.272 20 61.6071C20 70.6463 27.3537 78 36.3929 78C36.728 78 37 77.728 37 77.3929V73.75C37 73.4149 36.728 73.1429 36.3929 73.1429Z" fill="#F36B24"/>
<path d="M69.5031 68.0553C69.5336 68.3298 69.7808 68.5275 70.0552 68.497L74.5277 68.0001C74.8021 67.9696 74.9999 67.7224 74.9694 67.4479C74.9389 67.1735 74.6917 66.9757 74.4173 67.0062L70.4417 67.4479L70 63.4724C69.9695 63.1979 69.7223 63.0002 69.4478 63.0307C69.1734 63.0612 68.9756 63.3084 69.0061 63.5828L69.5031 68.0553ZM73.6096 62.6877L69.6096 67.6877L70.3904 68.3124L74.3904 63.3124L73.6096 62.6877Z" fill="#F36B24"/>
<path d="M73.3929 75.1429C71.6297 75.1429 69.9504 74.7591 68.4021 74.0026C68.2564 73.9298 68.0889 73.9213 67.9371 73.9747C67.7841 74.0281 67.659 74.1399 67.5886 74.2844L66.6341 76.26C64.1643 74.8818 62.1194 72.8381 60.7424 70.3683L62.7169 69.4114C62.8626 69.341 62.9731 69.2159 63.0265 69.0629C63.0787 68.9111 63.069 68.7436 62.9974 68.5979C62.2409 67.0496 61.8571 65.3703 61.8571 63.6071C61.8571 63.272 61.5851 63 61.25 63H57.6071C57.272 63 57 63.272 57 63.6071C57 72.6463 64.3537 80 73.3929 80C73.728 80 74 79.728 74 79.3929V75.75C74 75.4149 73.728 75.1429 73.3929 75.1429Z" fill="#F36B24"/>
<path d="M36.3929 113.143C34.6297 113.143 32.9504 112.759 31.4021 112.003C31.2564 111.93 31.0889 111.921 30.9371 111.975C30.7841 112.028 30.659 112.14 30.5886 112.284L29.6341 114.26C27.1643 112.882 25.1194 110.838 23.7424 108.368L25.7169 107.411C25.8626 107.341 25.9731 107.216 26.0265 107.063C26.0787 106.911 26.069 106.744 25.9974 106.598C25.2409 105.05 24.8571 103.37 24.8571 101.607C24.8571 101.272 24.5851 101 24.25 101H20.6071C20.272 101 20 101.272 20 101.607C20 110.646 27.3537 118 36.3929 118C36.728 118 37 117.728 37 117.393V113.75C37 113.415 36.728 113.143 36.3929 113.143Z" fill="black"/>
<path d="M36.3929 148.143C34.6297 148.143 32.9504 147.759 31.4021 147.003C31.2564 146.93 31.0889 146.921 30.9371 146.975C30.7841 147.028 30.659 147.14 30.5886 147.284L29.6341 149.26C27.1643 147.882 25.1194 145.838 23.7424 143.368L25.7169 142.411C25.8626 142.341 25.9731 142.216 26.0265 142.063C26.0787 141.911 26.069 141.744 25.9974 141.598C25.2409 140.05 24.8571 138.37 24.8571 136.607C24.8571 136.272 24.5851 136 24.25 136H20.6071C20.272 136 20 136.272 20 136.607C20 145.646 27.3537 153 36.3929 153C36.728 153 37 152.728 37 152.393V148.75C37 148.415 36.728 148.143 36.3929 148.143Z" fill="#337AE7"/>
<path d="M36.3929 192.143C34.6297 192.143 32.9504 191.759 31.4021 191.003C31.2564 190.93 31.0889 190.921 30.9371 190.975C30.7841 191.028 30.659 191.14 30.5886 191.284L29.6341 193.26C27.1643 191.882 25.1194 189.838 23.7424 187.368L25.7169 186.411C25.8626 186.341 25.9731 186.216 26.0265 186.063C26.0787 185.911 26.069 185.744 25.9974 185.598C25.2409 184.05 24.8571 182.37 24.8571 180.607C24.8571 180.272 24.5851 180 24.25 180H20.6071C20.272 180 20 180.272 20 180.607C20 189.646 27.3537 197 36.3929 197C36.728 197 37 196.728 37 196.393V192.75C37 192.415 36.728 192.143 36.3929 192.143Z" fill="#881C1C"/>
<path d="M36.3929 236.143C34.6297 236.143 32.9504 235.759 31.4021 235.003C31.2564 234.93 31.0889 234.921 30.9371 234.975C30.7841 235.028 30.659 235.14 30.5886 235.284L29.6341 237.26C27.1643 235.882 25.1194 233.838 23.7424 231.368L25.7169 230.411C25.8626 230.341 25.9731 230.216 26.0265 230.063C26.0787 229.911 26.069 229.744 25.9974 229.598C25.2409 228.05 24.8571 226.37 24.8571 224.607C24.8571 224.272 24.5851 224 24.25 224H20.6071C20.272 224 20 224.272 20 224.607C20 233.646 27.3537 241 36.3929 241C36.728 241 37 240.728 37 240.393V236.75C37 236.415 36.728 236.143 36.3929 236.143Z" fill="#990000"/>
<path d="M36.3929 282.143C34.6297 282.143 32.9504 281.759 31.4021 281.003C31.2564 280.93 31.0889 280.921 30.9371 280.975C30.7841 281.028 30.659 281.14 30.5886 281.284L29.6341 283.26C27.1643 281.882 25.1194 279.838 23.7424 277.368L25.7169 276.411C25.8626 276.341 25.9731 276.216 26.0265 276.063C26.0787 275.911 26.069 275.744 25.9974 275.598C25.2409 274.05 24.8571 272.37 24.8571 270.607C24.8571 270.272 24.5851 270 24.25 270H20.6071C20.272 270 20 270.272 20 270.607C20 279.646 27.3537 287 36.3929 287C36.728 287 37 286.728 37 286.393V282.75C37 282.415 36.728 282.143 36.3929 282.143Z" fill="#0064A4"/>
<path d="M69.5031 108.055C69.5336 108.33 69.7808 108.528 70.0552 108.497L74.5277 108C74.8021 107.97 74.9999 107.722 74.9694 107.448C74.9389 107.173 74.6917 106.976 74.4173 107.006L70.4417 107.448L70 103.472C69.9695 103.198 69.7223 103 69.4478 103.031C69.1734 103.061 68.9756 103.308 69.0061 103.583L69.5031 108.055ZM73.6096 102.688L69.6096 107.688L70.3904 108.312L74.3904 103.312L73.6096 102.688Z" fill="black"/>
<path d="M73.3929 115.143C71.6297 115.143 69.9504 114.759 68.4021 114.003C68.2564 113.93 68.0889 113.921 67.9371 113.975C67.7841 114.028 67.659 114.14 67.5886 114.284L66.6341 116.26C64.1643 114.882 62.1194 112.838 60.7424 110.368L62.7169 109.411C62.8626 109.341 62.9731 109.216 63.0265 109.063C63.0787 108.911 63.069 108.744 62.9974 108.598C62.2409 107.05 61.8571 105.37 61.8571 103.607C61.8571 103.272 61.5851 103 61.25 103H57.6071C57.272 103 57 103.272 57 103.607C57 112.646 64.3537 120 73.3929 120C73.728 120 74 119.728 74 119.393V115.75C74 115.415 73.728 115.143 73.3929 115.143Z" fill="black"/>
<path d="M69.5031 143.055C69.5336 143.33 69.7808 143.528 70.0552 143.497L74.5277 143C74.8021 142.97 74.9999 142.722 74.9694 142.448C74.9389 142.173 74.6917 141.976 74.4173 142.006L70.4417 142.448L70 138.472C69.9695 138.198 69.7223 138 69.4478 138.031C69.1734 138.061 68.9756 138.308 69.0061 138.583L69.5031 143.055ZM73.6096 137.688L69.6096 142.688L70.3904 143.312L74.3904 138.312L73.6096 137.688Z" fill="#337AE7"/>
<path d="M73.3929 150.143C71.6297 150.143 69.9504 149.759 68.4021 149.003C68.2564 148.93 68.0889 148.921 67.9371 148.975C67.7841 149.028 67.659 149.14 67.5886 149.284L66.6341 151.26C64.1643 149.882 62.1194 147.838 60.7424 145.368L62.7169 144.411C62.8626 144.341 62.9731 144.216 63.0265 144.063C63.0787 143.911 63.069 143.744 62.9974 143.598C62.2409 142.05 61.8571 140.37 61.8571 138.607C61.8571 138.272 61.5851 138 61.25 138H57.6071C57.272 138 57 138.272 57 138.607C57 147.646 64.3537 155 73.3929 155C73.728 155 74 154.728 74 154.393V150.75C74 150.415 73.728 150.143 73.3929 150.143Z" fill="#337AE7"/>
<path d="M69.5031 187.055C69.5336 187.33 69.7808 187.528 70.0552 187.497L74.5277 187C74.8021 186.97 74.9999 186.722 74.9694 186.448C74.9389 186.173 74.6917 185.976 74.4173 186.006L70.4417 186.448L70 182.472C69.9695 182.198 69.7223 182 69.4478 182.031C69.1734 182.061 68.9756 182.308 69.0061 182.583L69.5031 187.055ZM73.6096 181.688L69.6096 186.688L70.3904 187.312L74.3904 182.312L73.6096 181.688Z" fill="#881C1C"/>
<path d="M73.3929 194.143C71.6297 194.143 69.9504 193.759 68.4021 193.003C68.2564 192.93 68.0889 192.921 67.9371 192.975C67.7841 193.028 67.659 193.14 67.5886 193.284L66.6341 195.26C64.1643 193.882 62.1194 191.838 60.7424 189.368L62.7169 188.411C62.8626 188.341 62.9731 188.216 63.0265 188.063C63.0787 187.911 63.069 187.744 62.9974 187.598C62.2409 186.05 61.8571 184.37 61.8571 182.607C61.8571 182.272 61.5851 182 61.25 182H57.6071C57.272 182 57 182.272 57 182.607C57 191.646 64.3537 199 73.3929 199C73.728 199 74 198.728 74 198.393V194.75C74 194.415 73.728 194.143 73.3929 194.143Z" fill="#881C1C"/>
<path d="M69.5031 231.055C69.5336 231.33 69.7808 231.528 70.0552 231.497L74.5277 231C74.8021 230.97 74.9999 230.722 74.9694 230.448C74.9389 230.173 74.6917 229.976 74.4173 230.006L70.4417 230.448L70 226.472C69.9695 226.198 69.7223 226 69.4478 226.031C69.1734 226.061 68.9756 226.308 69.0061 226.583L69.5031 231.055ZM73.6096 225.688L69.6096 230.688L70.3904 231.312L74.3904 226.312L73.6096 225.688Z" fill="#990000"/>
<path d="M73.3929 238.143C71.6297 238.143 69.9504 237.759 68.4021 237.003C68.2564 236.93 68.0889 236.921 67.9371 236.975C67.7841 237.028 67.659 237.14 67.5886 237.284L66.6341 239.26C64.1643 237.882 62.1194 235.838 60.7424 233.368L62.7169 232.411C62.8626 232.341 62.9731 232.216 63.0265 232.063C63.0787 231.911 63.069 231.744 62.9974 231.598C62.2409 230.05 61.8571 228.37 61.8571 226.607C61.8571 226.272 61.5851 226 61.25 226H57.6071C57.272 226 57 226.272 57 226.607C57 235.646 64.3537 243 73.3929 243C73.728 243 74 242.728 74 242.393V238.75C74 238.415 73.728 238.143 73.3929 238.143Z" fill="#990000"/>
<path d="M69.5031 277.055C69.5336 277.33 69.7808 277.528 70.0552 277.497L74.5277 277C74.8021 276.97 74.9999 276.722 74.9694 276.448C74.9389 276.173 74.6917 275.976 74.4173 276.006L70.4417 276.448L70 272.472C69.9695 272.198 69.7223 272 69.4478 272.031C69.1734 272.061 68.9756 272.308 69.0061 272.583L69.5031 277.055ZM73.6096 271.688L69.6096 276.688L70.3904 277.312L74.3904 272.312L73.6096 271.688Z" fill="#0064A4"/>
<path d="M73.3929 284.143C71.6297 284.143 69.9504 283.759 68.4021 283.003C68.2564 282.93 68.0889 282.921 67.9371 282.975C67.7841 283.028 67.659 283.14 67.5886 283.284L66.6341 285.26C64.1643 283.882 62.1194 281.838 60.7424 279.368L62.7169 278.411C62.8626 278.341 62.9731 278.216 63.0265 278.063C63.0787 277.911 63.069 277.744 62.9974 277.598C62.2409 276.05 61.8571 274.37 61.8571 272.607C61.8571 272.272 61.5851 272 61.25 272H57.6071C57.272 272 57 272.272 57 272.607C57 281.646 64.3537 289 73.3929 289C73.728 289 74 288.728 74 288.393V284.75C74 284.415 73.728 284.143 73.3929 284.143Z" fill="#0064A4"/>
<path fill-rule="evenodd" clip-rule="evenodd" d="M149.21 103.429C149.21 102.871 148.756 102.417 148.198 102.417H139.428C138.871 102.417 138.417 102.871 138.417 103.429V112.873V113.687L138.992 113.112L141.592 110.512H148.198C148.756 110.512 149.21 110.057 149.21 109.5V103.429ZM149.885 105.115H150.223H151.572C152.129 105.115 152.584 105.57 152.584 106.127V116.246V117.06L152.008 116.485L149.408 113.885H142.127C141.57 113.885 141.115 113.43 141.115 112.873V111.524V111.186H141.453H149.885V105.452V105.115ZM151.909 115.432V106.127C151.909 105.942 151.756 105.79 151.571 105.79H150.56V111.524V111.861H150.222H141.79V112.873C141.79 113.058 141.942 113.21 142.127 113.21H149.548H149.687L149.786 113.309L151.909 115.432ZM141.453 109.837H148.199C148.383 109.837 148.536 109.685 148.536 109.5V103.429C148.536 103.244 148.383 103.091 148.199 103.091H139.429C139.244 103.091 139.091 103.244 139.091 103.429V112.059L141.214 109.936L141.313 109.837H141.453Z" fill="#212529"/>
<path fill-rule="evenodd" clip-rule="evenodd" d="M108.21 139.429C108.21 138.871 107.756 138.417 107.198 138.417H98.4284C97.8711 138.417 97.4165 138.871 97.4165 139.429V148.873V149.687L97.9923 149.112L100.592 146.512H107.198C107.756 146.512 108.21 146.057 108.21 145.5V139.429ZM108.885 141.115H109.223H110.572C111.129 141.115 111.584 141.57 111.584 142.127V152.246V153.06L111.008 152.485L108.408 149.885H101.127C100.57 149.885 100.115 149.43 100.115 148.873V147.524V147.186H100.453H108.885V141.452V141.115ZM110.909 151.432V142.127C110.909 141.942 110.756 141.79 110.571 141.79H109.56V147.524V147.861H109.222H100.79V148.873C100.79 149.058 100.942 149.21 101.127 149.21H108.548H108.687L108.786 149.309L110.909 151.432ZM100.453 145.837H107.199C107.383 145.837 107.536 145.685 107.536 145.5V139.429C107.536 139.244 107.383 139.091 107.199 139.091H98.4288C98.244 139.091 98.0915 139.244 98.0915 139.429V148.059L100.214 145.936L100.313 145.837H100.453Z" fill="#337AE7"/>
<path fill-rule="evenodd" clip-rule="evenodd" d="M108.21 183.429C108.21 182.871 107.756 182.417 107.198 182.417H98.4284C97.8711 182.417 97.4165 182.871 97.4165 183.429V192.873V193.687L97.9923 193.112L100.592 190.512H107.198C107.756 190.512 108.21 190.057 108.21 189.5V183.429ZM108.885 185.115H109.223H110.572C111.129 185.115 111.584 185.57 111.584 186.127V196.246V197.06L111.008 196.485L108.408 193.885H101.127C100.57 193.885 100.115 193.43 100.115 192.873V191.524V191.186H100.453H108.885V185.452V185.115ZM110.909 195.432V186.127C110.909 185.942 110.756 185.79 110.571 185.79H109.56V191.524V191.861H109.222H100.79V192.873C100.79 193.058 100.942 193.21 101.127 193.21H108.548H108.687L108.786 193.309L110.909 195.432ZM100.453 189.837H107.199C107.383 189.837 107.536 189.685 107.536 189.5V183.429C107.536 183.244 107.383 183.091 107.199 183.091H98.4288C98.244 183.091 98.0915 183.244 98.0915 183.429V192.059L100.214 189.936L100.313 189.837H100.453Z" fill="#881C1C"/>
<path fill-rule="evenodd" clip-rule="evenodd" d="M108.21 227.429C108.21 226.871 107.756 226.417 107.198 226.417H98.4284C97.8711 226.417 97.4165 226.871 97.4165 227.429V236.873V237.687L97.9923 237.112L100.592 234.512H107.198C107.756 234.512 108.21 234.057 108.21 233.5V227.429ZM108.885 229.115H109.223H110.572C111.129 229.115 111.584 229.57 111.584 230.127V240.246V241.06L111.008 240.485L108.408 237.885H101.127C100.57 237.885 100.115 237.43 100.115 236.873V235.524V235.186H100.453H108.885V229.452V229.115ZM110.909 239.432V230.127C110.909 229.942 110.756 229.79 110.571 229.79H109.56V235.524V235.861H109.222H100.79V236.873C100.79 237.058 100.942 237.21 101.127 237.21H108.548H108.687L108.786 237.309L110.909 239.432ZM100.453 233.837H107.199C107.383 233.837 107.536 233.685 107.536 233.5V227.429C107.536 227.244 107.383 227.091 107.199 227.091H98.4288C98.244 227.091 98.0915 227.244 98.0915 227.429V236.059L100.214 233.936L100.313 233.837H100.453Z" fill="#990000"/>
<path fill-rule="evenodd" clip-rule="evenodd" d="M108.21 273.429C108.21 272.871 107.756 272.417 107.198 272.417H98.4284C97.8711 272.417 97.4165 272.871 97.4165 273.429V282.873V283.687L97.9923 283.112L100.592 280.512H107.198C107.756 280.512 108.21 280.057 108.21 279.5V273.429ZM108.885 275.115H109.223H110.572C111.129 275.115 111.584 275.57 111.584 276.127V286.246V287.06L111.008 286.485L108.408 283.885H101.127C100.57 283.885 100.115 283.43 100.115 282.873V281.524V281.186H100.453H108.885V275.452V275.115ZM110.909 285.432V276.127C110.909 275.942 110.756 275.79 110.571 275.79H109.56V281.524V281.861H109.222H100.79V282.873C100.79 283.058 100.942 283.21 101.127 283.21H108.548H108.687L108.786 283.309L110.909 285.432ZM100.453 279.837H107.199C107.383 279.837 107.536 279.685 107.536 279.5V273.429C107.536 273.244 107.383 273.091 107.199 273.091H98.4288C98.244 273.091 98.0915 273.244 98.0915 273.429V282.059L100.214 279.936L100.313 279.837H100.453Z" fill="#0064A4"/>
<path fill-rule="evenodd" clip-rule="evenodd" d="M109.21 103.429C109.21 102.871 108.756 102.417 108.198 102.417H99.4284C98.8711 102.417 98.4165 102.871 98.4165 103.429V112.873V113.687L98.9923 113.112L101.592 110.512H108.198C108.756 110.512 109.21 110.057 109.21 109.5V103.429ZM109.885 105.115H110.223H111.572C112.129 105.115 112.584 105.57 112.584 106.127V116.246V117.06L112.008 116.485L109.408 113.885H102.127C101.57 113.885 101.115 113.43 101.115 112.873V111.524V111.186H101.453H109.885V105.452V105.115ZM111.909 115.432V106.127C111.909 105.942 111.756 105.79 111.571 105.79H110.56V111.524V111.861H110.222H101.79V112.873C101.79 113.058 101.942 113.21 102.127 113.21H109.548H109.687L109.786 113.309L111.909 115.432ZM101.453 109.837H108.199C108.383 109.837 108.536 109.685 108.536 109.5V103.429C108.536 103.244 108.383 103.091 108.199 103.091H99.4288C99.244 103.091 99.0915 103.244 99.0915 103.429V112.059L101.214 109.936L101.313 109.837H101.453Z" fill="#CFBA91"/>
<path fill-rule="evenodd" clip-rule="evenodd" d="M109.21 63.4286C109.21 62.8713 108.756 62.4167 108.198 62.4167H99.4284C98.8711 62.4167 98.4165 62.8713 98.4165 63.4286V72.8731V73.6874L98.9923 73.1116L101.592 70.512H108.198C108.756 70.512 109.21 70.0574 109.21 69.5001V63.4286ZM109.885 65.115H110.223H111.572C112.129 65.115 112.584 65.5696 112.584 66.1269V76.246V77.0603L112.008 76.4845L109.408 73.8849H102.127C101.57 73.8849 101.115 73.4303 101.115 72.873V71.5237V71.1864H101.453H109.885V65.4523V65.115ZM111.909 75.4316V66.1269C111.909 65.9421 111.756 65.7896 111.571 65.7896H110.56V71.5237V71.861H110.222H101.79V72.8729C101.79 73.0576 101.942 73.2102 102.127 73.2102H109.548H109.687L109.786 73.309L111.909 75.4316ZM101.453 69.8374H108.199C108.383 69.8374 108.536 69.6848 108.536 69.5001V63.4286C108.536 63.2439 108.383 63.0913 108.199 63.0913H99.4288C99.244 63.0913 99.0915 63.2439 99.0915 63.4286V72.0587L101.214 69.9362L101.313 69.8374H101.453Z" fill="white"/>
<path fill-rule="evenodd" clip-rule="evenodd" d="M109.21 23.4286C109.21 22.8713 108.756 22.4167 108.198 22.4167H99.4284C98.8711 22.4167 98.4165 22.8713 98.4165 23.4286V32.8731V33.6874L98.9923 33.1116L101.592 30.512H108.198C108.756 30.512 109.21 30.0574 109.21 29.5001V23.4286ZM109.885 25.115H110.223H111.572C112.129 25.115 112.584 25.5696 112.584 26.1269V36.246V37.0603L112.008 36.4845L109.408 33.8849H102.127C101.57 33.8849 101.115 33.4303 101.115 32.873V31.5237V31.1864H101.453H109.885V25.4523V25.115ZM111.909 35.4316V26.1269C111.909 25.9421 111.756 25.7896 111.571 25.7896H110.56V31.5237V31.861H110.222H101.79V32.8729C101.79 33.0576 101.942 33.2102 102.127 33.2102H109.548H109.687L109.786 33.309L111.909 35.4316ZM101.453 29.8374H108.199C108.383 29.8374 108.536 29.6848 108.536 29.5001V23.4286C108.536 23.2439 108.383 23.0913 108.199 23.0913H99.4288C99.244 23.0913 99.0915 23.2439 99.0915 23.4286V32.0587L101.214 29.9362L101.313 29.8374H101.453Z" fill="#F36B24"/>
<path d="M140.588 29.4706V29.8824H141.412V29.4706V20.4118V20H140.588V20.4118V29.4706Z" fill="white"/>
<path d="M144.585 27.2917L144.876 27.0005L144.293 26.4182L144.002 26.7094L140.708 30.0035L140.417 30.2947L140.999 30.877L141.29 30.5858L144.585 27.2917Z" fill="white"/>
<path d="M137.997 26.7089L137.706 26.4177L137.124 27L137.415 27.2912L140.709 30.5853L141 30.8765L141.582 30.2942L141.291 30.003L137.997 26.7089Z" fill="white"/>
<path d="M134 33.5883V34H134.412H147.588H148V33.5883V31.1177H147.176V33.5883L147.588 33.1765H134.412L134.824 33.5883V31.1177H134V33.5883Z" fill="white"/>
<path d="M141.778 73.056V73.667H143V73.056V59.611V59H141.778V59.611V73.056Z" fill="white"/>
<path d="M147.71 69.8209L148.142 69.3889L147.278 68.5249L146.846 68.9569L141.957 73.8459L141.525 74.2779L142.389 75.1419L142.821 74.7099L147.71 69.8209Z" fill="white"/>
<path d="M137.932 68.9569L137.5 68.5249L136.636 69.3889L137.068 69.8209L141.957 74.7099L142.389 75.1419L143.253 74.2779L142.821 73.8459L137.932 68.9569Z" fill="white"/>
<path d="M132 79.167V79.778H132.611H152.167H152.778V79.167V75.5H151.556V79.167L152.167 78.556H132.611L133.223 79.167V75.5H132V79.167Z" fill="white"/>
</svg>
