<svg width="24" height="25" viewBox="0 0 24 25" fill="none" xmlns="http://www.w3.org/2000/svg">
<path fill-rule="evenodd" clip-rule="evenodd" d="M12 12.7007C9.23858 12.7007 7 10.4621 7 7.70068C7 4.93926 9.23858 2.70068 12 2.70068C14.7614 2.70068 17 4.93926 17 7.70068C17 10.4621 14.7614 12.7007 12 12.7007Z" stroke="white" stroke-width="1.5" stroke-linecap="round" stroke-linejoin="round"/>
<path d="M3.41016 22.7007C3.41016 18.8307 7.26015 15.7007 12.0002 15.7007C12.9602 15.7007 13.8902 15.8307 14.7602 16.0707" stroke="white" stroke-width="1.5" stroke-linecap="round" stroke-linejoin="round"/>
<path d="M21.42 20.7607C21.21 21.1207 20.94 21.4407 20.63 21.7007C19.93 22.3307 19.01 22.7007 18 22.7007C16.54 22.7007 15.27 21.9207 14.58 20.7607C14.21 20.1607 14 19.4507 14 18.7007C14 17.4407 14.58 16.3107 15.5 15.5807C16.19 15.0307 17.06 14.7007 18 14.7007C20.21 14.7007 22 16.4907 22 18.7007C22 19.4507 21.79 20.1607 21.42 20.7607Z" stroke="white" stroke-width="1.5" stroke-linecap="round" stroke-linejoin="round"/>
<path d="M16.4399 18.7007L17.4299 19.6907L19.5599 17.7207" stroke="white" stroke-width="1.5" stroke-linecap="round" stroke-linejoin="round"/>
</svg>
