<svg width="211" height="41" viewBox="0 0 211 41" fill="none" xmlns="http://www.w3.org/2000/svg">
<path d="M122.04 31.8826H108.754V24.4252H122.047C124.233 24.461 125.997 26.0966 125.997 28.1398C125.997 30.1825 124.226 31.8826 122.04 31.8826ZM108.754 10.018H121.812C123.598 10.0394 125.111 11.418 125.111 13.2254C125.111 15.0252 123.526 16.4609 121.733 16.4396H108.754V10.018ZM129.547 20.4467C132.004 18.7181 132.933 15.8539 132.933 12.704C132.933 6.77528 127.94 2.02521 121.819 2.02521H99.6473V39.8754H122.69V39.8898C129.162 39.8898 134.547 34.8971 134.547 28.7829C134.547 24.7972 132.147 21.8466 129.547 20.4467ZM163.74 1.93984V23.2186C163.74 29.7258 159.94 32.4542 155.269 32.4542C150.59 32.4542 146.819 29.7327 146.819 23.2255V1.93984H137.383V23.2827C137.383 36.8972 145.383 40.8613 155.269 40.8613C165.162 40.8613 173.169 36.8972 173.169 23.2827V1.93984H163.74ZM196.848 16.6901C189.212 15.0327 186.633 14.297 186.633 11.8757C186.633 9.73997 189.398 8.66145 193.762 8.66145C197.883 8.66145 202.862 10.4186 205.783 12.1685L208.762 4.46853C204.333 2.6257 199.005 0.861328 191.962 0.861328C182.726 0.861328 176.962 6.26146 176.962 12.8613C176.962 19.4686 181.712 22.3758 191.126 24.3687C198.426 25.9115 200.404 26.84 200.404 29.1112C200.404 31.3829 197.476 32.2184 193.519 32.2184C188.397 32.2184 183.469 30.5112 178.826 28.5183L176.019 36.0252C181.569 38.5969 187.333 40.6611 194.204 40.6611C205.654 40.6611 210.326 35.1897 210.326 28.8112C210.326 23.1395 206.397 18.768 196.847 16.6898M19.3255 2.02488L0.204102 39.8685L11.5612 39.8757L14.4185 33.7901H27.4609L23.4042 25.4968H18.2542L23.1041 15.147L35.3184 39.8757H46.7044L26.8397 2.02521L19.3255 2.02488ZM96.1547 14.6105C96.1547 7.71787 91.4259 2.12469 81.7042 2.12469H62.0686V39.9749L71.1685 39.9677V10.1179H82.3329C85.6328 10.1179 87.0042 12.161 87.0042 14.5895C87.0042 17.025 85.5616 18.9752 82.2613 18.9752H74.454L86.2687 39.968H95.6116C95.6116 39.968 87.5259 26.2467 87.5685 26.2395C93.4044 24.4252 96.1543 20.0038 96.1543 14.6105M48.6543 39.8895H58.0684V2.04655H48.6543V39.8895Z" fill="#00205B"/>
</svg>
