<?xml version="1.0" encoding="UTF-8"?>
<svg width="146px" height="45px" viewBox="0 0 146 45" version="1.1" xmlns="http://www.w3.org/2000/svg" xmlns:xlink="http://www.w3.org/1999/xlink">
    <title>android</title>
    <defs>
        <linearGradient x1="60.6829276%" y1="4.83441863%" x2="26.3779077%" y2="71.6916502%" id="linearGradient-1">
            <stop stop-color="#0494F3" offset="0%"></stop>
            <stop stop-color="#0495F3" offset="0.7000001%"></stop>
            <stop stop-color="#05B2F3" offset="26%"></stop>
            <stop stop-color="#06C6F3" offset="51.2%"></stop>
            <stop stop-color="#06D3F3" offset="76%"></stop>
            <stop stop-color="#07D7F3" offset="100%"></stop>
        </linearGradient>
        <linearGradient x1="107.355982%" y1="49.3707616%" x2="-131.707158%" y2="49.3707616%" id="linearGradient-2">
            <stop stop-color="#F3D40B" offset="0%"></stop>
            <stop stop-color="#F3B109" offset="40.9%"></stop>
            <stop stop-color="#F39907" offset="77.5%"></stop>
            <stop stop-color="#F39008" offset="100%"></stop>
        </linearGradient>
        <linearGradient x1="86.0460228%" y1="30.6995743%" x2="-49.9424033%" y2="136.133783%" id="linearGradient-3">
            <stop stop-color="#F33A45" offset="0%"></stop>
            <stop stop-color="#B71163" offset="100%"></stop>
        </linearGradient>
        <linearGradient x1="-18.8422165%" y1="-12.315907%" x2="41.8739537%" y2="34.9534137%" id="linearGradient-4">
            <stop stop-color="#339471" offset="0%"></stop>
            <stop stop-color="#2E9B71" offset="6.9%"></stop>
            <stop stop-color="#19C274" offset="47.6%"></stop>
            <stop stop-color="#0CDB76" offset="80.1%"></stop>
            <stop stop-color="#07E477" offset="100%"></stop>
        </linearGradient>
    </defs>
    <g id="Page-1" stroke="none" stroke-width="1" fill="none" fill-rule="evenodd">
        <g id="Android-and-iOS-Apps" transform="translate(-20.000000, -20.000000)" fill-rule="nonzero">
            <g id="android" transform="translate(20.000000, 20.000000)">
                <path d="M140.081081,44.0735294 L6.44504505,44.0735294 C3.41981982,44.0735294 1.05225225,41.6911765 1.05225225,38.6470588 L1.05225225,6.48529412 C1.05225225,3.44117647 3.41981982,1.05882353 6.44504505,1.05882353 L140.081081,1.05882353 C143.106306,1.05882353 145.473874,3.44117647 145.473874,6.48529412 L145.473874,38.7794118 C145.342342,41.6911765 142.974775,44.0735294 140.081081,44.0735294 Z" id="Path" fill="#000000"></path>
                <path d="M140.081081,1.98529412 C142.58018,1.98529412 144.553153,3.97058824 144.553153,6.48529412 L144.553153,38.7794118 C144.553153,41.2941176 142.58018,43.2794118 140.081081,43.2794118 L6.44504505,43.2794118 C3.94594595,43.2794118 1.97297297,41.2941176 1.97297297,38.7794118 L1.97297297,6.48529412 C1.97297297,3.97058824 3.94594595,1.98529412 6.44504505,1.98529412 L140.081081,1.98529412 M140.081081,1.05882353 L6.44504505,1.05882353 C3.41981982,1.05882353 1.05225225,3.57352941 1.05225225,6.48529412 L1.05225225,38.7794118 C1.05225225,41.8235294 3.41981982,44.2058824 6.44504505,44.2058824 L140.081081,44.2058824 C143.106306,44.2058824 145.473874,41.8235294 145.473874,38.7794118 L145.473874,6.48529412 C145.342342,3.57352941 142.974775,1.05882353 140.081081,1.05882353 Z" id="Shape" fill="#9A9A9A"></path>
                <path d="M51.6918919,12.0441176 C51.6918919,12.9705882 51.4288288,13.6323529 50.9027027,14.1617647 C50.245045,14.8235294 49.4558559,15.0882353 48.5351351,15.0882353 C47.6144144,15.0882353 46.8252252,14.8235294 46.1675676,14.1617647 C45.5099099,13.5 45.2468468,12.7058824 45.2468468,11.7794118 C45.2468468,10.8529412 45.5099099,10.0588235 46.1675676,9.39705882 C46.8252252,8.73529412 47.6144144,8.47058824 48.5351351,8.47058824 C48.9297297,8.47058824 49.4558559,8.60294118 49.8504505,8.73529412 C50.245045,8.86764706 50.6396396,9.13235294 50.7711712,9.52941176 L50.245045,10.0588235 C49.8504505,9.52941176 49.3243243,9.26470588 48.5351351,9.26470588 C47.8774775,9.26470588 47.2198198,9.52941176 46.8252252,10.0588235 C46.2990991,10.4558824 46.036036,11.1176471 46.036036,11.9117647 C46.036036,12.7058824 46.2990991,13.3676471 46.8252252,13.7647059 C47.3513514,14.1617647 48.009009,14.5588235 48.6666667,14.5588235 C49.4558559,14.5588235 49.981982,14.2941176 50.5081081,13.7647059 C50.7711712,13.5 51.0342342,12.9705882 51.0342342,12.4411765 L48.6666667,12.4411765 L48.6666667,11.5147059 L51.8234234,11.5147059 L51.6918919,12.0441176 L51.6918919,12.0441176 Z M56.6900901,9.39705882 L53.7963964,9.39705882 L53.7963964,11.3823529 L56.427027,11.3823529 L56.427027,12.1764706 L53.7963964,12.1764706 L53.7963964,14.1617647 L56.6900901,14.1617647 L56.6900901,15.0882353 L53.0072072,15.0882353 L53.0072072,8.60294118 L56.6900901,8.60294118 L56.6900901,9.39705882 Z M60.2414414,15.0882353 L59.3207207,15.0882353 L59.3207207,9.39705882 L57.4792793,9.39705882 L57.4792793,8.60294118 L61.9513514,8.60294118 L61.9513514,9.39705882 L60.1099099,9.39705882 L60.1099099,15.0882353 L60.2414414,15.0882353 Z M65.1081081,15.0882353 L65.1081081,8.60294118 L66.0288288,8.60294118 L66.0288288,15.0882353 L65.1081081,15.0882353 Z M69.5801802,15.0882353 L68.6594595,15.0882353 L68.6594595,9.39705882 L66.818018,9.39705882 L66.818018,8.60294118 L71.1585586,8.60294118 L71.1585586,9.39705882 L69.3171171,9.39705882 L69.5801802,15.0882353 L69.5801802,15.0882353 Z M79.7081081,14.1617647 C79.0504505,14.8235294 78.2612613,15.0882353 77.3405405,15.0882353 C76.4198198,15.0882353 75.6306306,14.8235294 74.972973,14.1617647 C74.3153153,13.5 74.0522523,12.7058824 74.0522523,11.7794118 C74.0522523,10.8529412 74.3153153,10.0588235 74.972973,9.39705882 C75.6306306,8.73529412 76.4198198,8.47058824 77.3405405,8.47058824 C78.2612613,8.47058824 79.0504505,8.73529412 79.7081081,9.39705882 C80.3657658,10.0588235 80.6288288,10.8529412 80.6288288,11.7794118 C80.7603604,12.8382353 80.3657658,13.5 79.7081081,14.1617647 Z M75.7621622,13.6323529 C76.1567568,14.0294118 76.8144144,14.4264706 77.4720721,14.4264706 C78.1297297,14.4264706 78.7873874,14.1617647 79.181982,13.6323529 C79.5765766,13.2352941 79.9711712,12.5735294 79.9711712,11.7794118 C79.9711712,10.9852941 79.7081081,10.3235294 79.181982,9.92647059 C78.7873874,9.52941176 78.1297297,9.13235294 77.4720721,9.13235294 C76.8144144,9.13235294 76.1567568,9.39705882 75.7621622,9.92647059 C75.3675676,10.3235294 74.972973,10.9852941 74.972973,11.7794118 C74.972973,12.5735294 75.1045045,13.2352941 75.7621622,13.6323529 Z M81.9441441,15.0882353 L81.9441441,8.60294118 L82.8648649,8.60294118 L86.0216216,13.6323529 L86.0216216,8.60294118 L86.8108108,8.60294118 L86.8108108,15.0882353 L85.8900901,15.0882353 L82.6018018,9.79411765 L82.6018018,15.0882353 L81.9441441,15.0882353 L81.9441441,15.0882353 Z" id="Shape" stroke="#FFFFFF" stroke-width="0.25" fill="#FFFFFF"></path>
                <path d="M73.9207207,24.4852941 C71.2900901,24.4852941 69.3171171,26.4705882 69.3171171,29.1176471 C69.3171171,31.7647059 71.2900901,33.75 73.9207207,33.75 C76.5513514,33.75 78.5243243,31.7647059 78.5243243,29.1176471 C78.5243243,26.3382353 76.4198198,24.4852941 73.9207207,24.4852941 Z M73.9207207,31.8970588 C72.4738739,31.8970588 71.2900901,30.7058824 71.2900901,29.1176471 C71.2900901,27.5294118 72.4738739,26.3382353 73.9207207,26.3382353 C75.3675676,26.3382353 76.5513514,27.3970588 76.5513514,29.1176471 C76.4198198,30.7058824 75.236036,31.8970588 73.9207207,31.8970588 Z M63.9243243,24.4852941 C61.2936937,24.4852941 59.3207207,26.4705882 59.3207207,29.1176471 C59.3207207,31.7647059 61.2936937,33.75 63.9243243,33.75 C66.554955,33.75 68.5279279,31.7647059 68.5279279,29.1176471 C68.5279279,26.3382353 66.554955,24.4852941 63.9243243,24.4852941 Z M63.9243243,31.8970588 C62.4774775,31.8970588 61.2936937,30.7058824 61.2936937,29.1176471 C61.2936937,27.5294118 62.4774775,26.3382353 63.9243243,26.3382353 C65.3711712,26.3382353 66.554955,27.3970588 66.554955,29.1176471 C66.554955,30.7058824 65.3711712,31.8970588 63.9243243,31.8970588 Z M52.0864865,25.9411765 L52.0864865,27.9264706 L56.6900901,27.9264706 C56.5585586,28.9852941 56.163964,29.9117647 55.6378378,30.4411765 C54.9801802,30.9705882 53.9279279,31.7647059 52.0864865,31.7647059 C49.1927928,31.7647059 47.0882883,29.5147059 47.0882883,26.6029412 C47.0882883,23.6911765 49.3243243,21.4411765 52.0864865,21.4411765 C53.5333333,21.4411765 54.7171171,22.1029412 55.6378378,22.8970588 L57.0846847,21.4411765 C55.9009009,20.3823529 54.4540541,19.4558824 52.218018,19.4558824 C48.4036036,19.4558824 45.1153153,22.6323529 45.1153153,26.6029412 C45.1153153,30.5735294 48.4036036,33.75 52.218018,33.75 C54.3225225,33.75 55.9009009,33.0882353 57.0846847,31.7647059 C58.4,30.4411765 58.7945946,28.5882353 58.7945946,27.2647059 C58.7945946,26.8676471 58.7945946,26.3382353 58.6630631,26.0735294 L52.0864865,25.9411765 L52.0864865,25.9411765 Z M100.621622,27.3970588 C100.227027,26.3382353 99.1747748,24.4852941 96.8072072,24.4852941 C94.4396396,24.4852941 92.4666667,26.3382353 92.4666667,29.1176471 C92.4666667,31.7647059 94.4396396,33.75 96.9387387,33.75 C98.9117117,33.75 100.227027,32.4264706 100.621622,31.7647059 L99.1747748,30.7058824 C98.6486486,31.5 97.990991,32.0294118 96.9387387,32.0294118 C95.8864865,32.0294118 95.2288288,31.6323529 94.7027027,30.5735294 L100.753153,27.9264706 L100.621622,27.3970588 L100.621622,27.3970588 Z M94.4396396,28.9852941 C94.4396396,27.2647059 95.8864865,26.3382353 96.8072072,26.3382353 C97.5963964,26.3382353 98.2540541,26.7352941 98.5171171,27.2647059 L94.4396396,28.9852941 L94.4396396,28.9852941 Z M89.4414414,33.3529412 L91.4144144,33.3529412 L91.4144144,19.8529412 L89.4414414,19.8529412 L89.4414414,33.3529412 Z M86.1531532,25.5441176 C85.627027,25.0147059 84.7063063,24.4852941 83.6540541,24.4852941 C81.418018,24.4852941 79.3135135,26.4705882 79.3135135,29.1176471 C79.3135135,31.7647059 81.2864865,33.6176471 83.6540541,33.6176471 C84.7063063,33.6176471 85.627027,33.0882353 86.0216216,32.5588235 L86.1531532,32.5588235 L86.1531532,33.0882353 C86.1531532,34.8088235 85.2324324,35.7352941 83.6540541,35.7352941 C82.4702703,35.7352941 81.6810811,34.8088235 81.418018,34.1470588 L79.7081081,34.9411765 C80.2342342,36.1323529 81.5495495,37.5882353 83.7855856,37.5882353 C86.1531532,37.5882353 88.1261261,36.1323529 88.1261261,32.8235294 L88.1261261,24.6176471 L86.1531532,24.6176471 L86.1531532,25.5441176 L86.1531532,25.5441176 Z M83.7855856,31.8970588 C82.3387387,31.8970588 81.154955,30.7058824 81.154955,29.1176471 C81.154955,27.5294118 82.3387387,26.3382353 83.7855856,26.3382353 C85.2324324,26.3382353 86.2846847,27.5294118 86.2846847,29.1176471 C86.2846847,30.7058824 85.2324324,31.8970588 83.7855856,31.8970588 Z M109.96036,19.8529412 L105.093694,19.8529412 L105.093694,33.3529412 L107.066667,33.3529412 L107.066667,28.3235294 L109.828829,28.3235294 C112.064865,28.3235294 114.169369,26.7352941 114.169369,24.0882353 C114.169369,21.4411765 112.196396,19.8529412 109.96036,19.8529412 Z M109.96036,26.3382353 L107.066667,26.3382353 L107.066667,21.7058824 L109.96036,21.7058824 C111.407207,21.7058824 112.327928,23.0294118 112.327928,23.9558824 C112.196396,25.1470588 111.407207,26.3382353 109.96036,26.3382353 L109.96036,26.3382353 Z M122.324324,24.4852941 C120.877477,24.4852941 119.299099,25.1470588 118.772973,26.4705882 L120.614414,27.2647059 C121.009009,26.4705882 121.666667,26.3382353 122.455856,26.3382353 C123.508108,26.3382353 124.428829,27 124.56036,28.0588235 L124.56036,28.1911765 C124.297297,27.9264706 123.376577,27.6617647 122.587387,27.6617647 C120.614414,27.6617647 118.772973,28.7205882 118.772973,30.7058824 C118.772973,32.5588235 120.351351,33.75 122.061261,33.75 C123.508108,33.75 124.034234,33.0882353 124.691892,32.4264706 L124.823423,32.4264706 L124.823423,33.4852941 L126.796396,33.4852941 L126.796396,28.3235294 C126.401802,25.8088235 124.56036,24.4852941 122.324324,24.4852941 L122.324324,24.4852941 Z M122.061261,31.8970588 C121.403604,31.8970588 120.482883,31.6323529 120.482883,30.7058824 C120.482883,29.6470588 121.666667,29.25 122.587387,29.25 C123.508108,29.25 123.902703,29.5147059 124.428829,29.6470588 C124.165766,30.9705882 123.113514,31.8970588 122.061261,31.8970588 Z M133.372973,24.75 L131.136937,30.5735294 L131.005405,30.5735294 L128.637838,24.75 L126.533333,24.75 L130.084685,32.9558824 L128.111712,37.4558824 L130.084685,37.4558824 L135.477477,24.75 L133.372973,24.75 L133.372973,24.75 Z M115.353153,33.3529412 L117.326126,33.3529412 L117.326126,19.8529412 L115.353153,19.8529412 L115.353153,33.3529412 Z" id="Shape" fill="#FFFFFF"></path>
                <g id="Group" transform="translate(11.837838, 7.941176)">
                    <path d="M0.394594595,1.19117647 C0,1.58823529 0,2.11764706 0,2.77941176 L0,26.6029412 C0,27.2647059 0.263063063,27.7941176 0.526126126,28.0588235 L0.657657658,28.1911765 L13.9423423,14.8235294 L13.9423423,14.5588235 L0.394594595,1.19117647 Z" id="Path" fill="url(#linearGradient-1)"></path>
                    <path d="M18.1513514,19.3235294 L13.8108108,14.9558824 L13.8108108,14.5588235 L18.1513514,10.1911765 L18.2828829,10.3235294 L23.5441441,13.3676471 C24.990991,14.2941176 24.990991,15.6176471 23.5441441,16.5441176 L18.1513514,19.3235294 Z" id="Path" fill="url(#linearGradient-2)"></path>
                    <path d="M18.2828829,19.1911765 L13.8108108,14.6911765 L0.394594595,28.0588235 C0.920720721,28.5882353 1.70990991,28.5882353 2.63063063,28.1911765 L18.2828829,19.1911765" id="Path" fill="url(#linearGradient-3)"></path>
                    <path d="M18.2828829,10.1911765 L2.63063063,1.19117647 C1.70990991,0.661764706 0.920720721,0.794117647 0.394594595,1.32352941 L13.8108108,14.6911765 L18.2828829,10.1911765 L18.2828829,10.1911765 Z" id="Path" fill="url(#linearGradient-4)"></path>
                    <path d="M18.1513514,19.0588235 L2.63063063,27.9264706 C1.70990991,28.4558824 1.05225225,28.3235294 0.526126126,27.9264706 L0.394594595,28.0588235 L0.526126126,28.1911765 C1.05225225,28.5882353 1.84144144,28.7205882 2.63063063,28.1911765 L18.1513514,19.0588235 Z" id="Path" fill="#000000" opacity="0.2"></path>
                    <path d="M0.394594595,27.9264706 C6.10622664e-16,27.5294118 6.10622664e-16,27 6.10622664e-16,26.3382353 L6.10622664e-16,26.4705882 C6.10622664e-16,27.1323529 0.131531532,27.6617647 0.394594595,27.9264706 L0.394594595,27.9264706 L0.394594595,27.9264706 L0.394594595,27.9264706 Z M23.4126126,16.0147059 L18.0198198,19.0588235 L18.1513514,19.1911765 L23.4126126,16.0147059 C24.2018018,15.75 24.4648649,15.0882353 24.4648649,14.5588235 C24.4648649,15.2205882 24.0702703,15.6176471 23.4126126,16.0147059 Z" id="Shape" fill="#000000" opacity="0.12"></path>
                    <path d="M2.63063063,1.32352941 L23.4126126,13.2352941 C24.0702703,13.6323529 24.4648649,14.1617647 24.4648649,14.6911765 C24.4648649,14.1617647 24.2018018,13.6323529 23.4126126,13.2352941 L2.63063063,1.32352941 C1.18378378,0.397058824 0,1.05882353 0,2.77941176 L0,2.91176471 C0,1.19117647 1.18378378,0.397058824 2.63063063,1.32352941 Z" id="Path" fill="#FFFFFF" opacity="0.25"></path>
                </g>
            </g>
        </g>
    </g>
</svg>