<svg width="99" height="41" viewBox="0 0 99 41" fill="none" xmlns="http://www.w3.org/2000/svg">
<g clip-path="url(#clip0_2960_10338)">
<path d="M29.6156 8.78428C37.389 -1.13854 50.3175 -0.990008 57.488 4.03985C56.1337 6.17469 54.7736 8.31828 53.3873 10.5026C49.9447 8.30954 46.3769 7.47948 42.4888 8.6736C36.4978 10.5143 32.8223 16.0742 33.5649 22.1584C34.2931 28.1231 39.3841 32.821 45.4915 33.1617C50.8534 33.4617 56.1454 29.7017 57.555 24.5C58.3035 21.7419 58.7957 18.911 59.6083 16.1762C62.049 7.95422 67.2274 2.48167 75.8687 1.0196C81.1694 0.12256 86.3041 0.929317 91.0165 4.12139C89.6709 6.27081 88.3487 8.38235 87.1254 10.3366C85.1217 9.65802 83.2722 8.74641 81.3267 8.42022C75.0736 7.36881 69.2748 11.2657 67.6031 17.4227C65.3867 25.5864 71.6543 33.5287 80.0714 33.2142C84.6324 33.0452 89.1496 29.227 89.9243 24.7563H78.2365C79.7889 22.3215 81.1752 20.1196 82.5994 17.944C82.7538 17.711 83.1412 17.5042 83.4237 17.5042C88.3196 17.478 93.2154 17.4839 98.088 17.4839C99.8646 25.0971 95.6415 34.0792 88.6661 38.1537C82.0053 42.0448 69.8166 42.272 62.4305 32.3317C54.3571 43.3117 38.7783 42.971 30.7719 34.1316C30.4457 34.5597 30.1428 34.982 29.8166 35.3781C27.4109 38.3023 24.2159 39.7556 20.5316 39.8342C13.9785 39.9711 7.42251 39.875 0.869433 39.8721C0.685947 39.8721 0.505373 39.8168 0.257812 39.7789V1.4623H1.75483C6.75556 1.4623 11.7563 1.4623 16.757 1.4623C23.2897 1.4623 26.2925 3.15445 29.6127 8.78428H29.6156ZM8.36907 32.9113C12.2398 32.9113 15.8716 32.9316 19.5035 32.9054C22.2441 32.8851 24.2829 31.0007 24.3324 28.5134C24.3819 26.0087 22.5907 24.1039 19.8209 24.0136C16.3347 23.8971 12.8426 23.9583 9.35057 24.0078C9.01855 24.0136 8.41858 24.4709 8.40984 24.7301C8.33994 27.3863 8.36616 30.0454 8.36616 32.9113H8.36907ZM8.47101 17.114C11.8611 17.114 15.1493 17.245 18.42 17.0674C20.6656 16.948 22.3053 14.8277 22.2266 12.6666C22.1422 10.3861 20.3947 8.59205 18.0327 8.46099C16.7308 8.38818 15.4202 8.44352 14.1125 8.4406C12.2485 8.4406 10.3816 8.4406 8.47392 8.4406V17.114H8.47101Z" fill="#147B58"/>
</g>
<defs>
<clipPath id="clip0_2960_10338">
<rect width="98.2379" height="40" fill="white" transform="translate(0.257812 0.669922)"/>
</clipPath>
</defs>
</svg>
