<svg width="225" height="48" viewBox="0 0 225 48" fill="none" xmlns="http://www.w3.org/2000/svg">
<g clip-path="url(#clip0_2960_10378)">
<path d="M23.994 0.00585938C10.755 0.00585938 0 10.7609 0 23.9999C0 37.2388 10.755 47.9939 23.994 47.9939C37.233 47.9939 47.988 37.2388 47.988 23.9999C47.988 10.7609 37.233 0.00585938 23.994 0.00585938ZM23.994 45.5892C12.0763 45.5892 2.40468 35.8912 2.40468 23.9999C2.40468 12.1086 12.0763 2.41054 23.994 2.41054C35.9117 2.41054 45.5833 12.1086 45.5833 23.9999C45.5833 35.8912 35.9117 45.5892 23.994 45.5892Z" fill="black"/>
<path d="M32.5556 8.62041C32.4763 8.56756 32.3706 8.54114 32.2649 8.54114C31.9478 8.54114 31.7099 8.77896 31.7099 9.09607V16.6008C31.7099 16.865 31.4985 17.0764 31.2343 17.0764H16.7005C16.4362 17.0764 16.2513 16.865 16.2248 16.6008V9.09607C16.2248 8.99037 16.1984 8.91109 16.1456 8.80539C15.987 8.54114 15.6435 8.46186 15.3792 8.62041C10.0149 11.9236 6.76465 17.6578 6.76465 23.9998C6.76465 30.3419 10.0149 36.0761 15.4321 39.3792C15.5114 39.4321 15.6171 39.4585 15.7228 39.4585C16.0399 39.4585 16.2777 39.2207 16.2777 38.9036V31.3989C16.2777 31.1346 16.4891 30.9496 16.7533 30.9232H31.2871C31.5514 30.9232 31.7628 31.1346 31.7628 31.3989V38.9036C31.7628 39.0093 31.7892 39.0886 31.8421 39.1943C32.0006 39.4585 32.3442 39.5378 32.6084 39.3792C38.0255 36.0761 41.2758 30.3419 41.2758 23.9998C41.2758 17.6578 37.9727 11.9236 32.5556 8.62041ZM13.4766 33.4072L13.5559 34.3056L12.9745 33.5921C8.5087 27.9636 8.5087 20.0096 12.9745 14.3811L13.4766 13.7469L13.5559 13.6676L13.4766 14.5925C13.3973 15.3324 13.3709 16.0987 13.3709 16.865V31.1082C13.3709 31.8745 13.4238 32.6408 13.4766 33.4072ZM31.7099 27.5936C31.7099 27.8579 31.4985 28.0693 31.2343 28.0693H16.7005C16.4362 28.0693 16.2513 27.8579 16.2248 27.5936V20.406C16.2248 20.1418 16.4362 19.9304 16.7005 19.9304H31.2343C31.4985 19.9304 31.7099 20.1418 31.7099 20.406V27.5936ZM34.9867 33.5921L34.4053 34.3056L34.4846 33.4072C34.5639 32.6673 34.5903 31.9009 34.5903 31.1346V16.865C34.5903 16.0987 34.5639 15.3324 34.4846 14.5925L34.4582 14.1961L34.4317 13.7733V13.6676L34.9867 14.3811C37.1535 17.0764 38.3427 20.5117 38.3427 23.9734C38.3427 27.4351 37.1535 30.8968 34.9867 33.5921Z" fill="black"/>
<path d="M84.1895 23.5777C84.0574 23.5249 83.8988 23.472 83.8988 23.3135C83.8988 23.2078 83.9517 23.1285 84.0574 23.0756C84.2424 22.9964 88.8139 21.358 88.8139 15.9673C88.8139 9.96877 84.7709 6.40138 77.9532 6.40138H61.4375V41.6525H79.4594C84.718 41.6525 90.373 37.9265 90.373 31.928C90.373 26.1938 86.0393 24.1855 84.1895 23.5777ZM69.7614 13.6154C69.7614 13.4833 69.8671 13.3776 69.9992 13.3776H76.5527C78.7195 13.3776 80.1993 14.831 80.1993 16.9979C80.1993 18.6891 78.8781 20.5124 76.3941 20.5124H69.9992C69.8671 20.5124 69.7614 20.4067 69.7614 20.2746V13.6154ZM76.5527 34.7027H69.9992C69.8671 34.7027 69.7614 34.597 69.7614 34.4648V27.4358C69.7614 27.3036 69.8671 27.1979 69.9992 27.1979H76.3941C79.5387 27.1979 81.3356 28.5456 81.3356 30.9239C81.3356 33.3814 79.6708 34.7027 76.5527 34.7027ZM146.156 20.4331L144.888 20.1689C142.034 19.5611 139.259 18.7948 139.259 16.3372C139.259 13.8797 141.558 12.7698 143.831 12.7698C146.5 12.7698 149.142 13.959 151.151 16.0201L156.383 10.8408C154.137 8.35684 150.147 5.50293 143.699 5.50293C135.93 5.50293 130.698 9.91592 130.698 16.4958C130.698 23.4456 136.168 26.0617 140.766 27.0394L142.008 27.3036C146.474 28.2549 148.588 28.9684 148.588 31.5052C148.588 33.7778 146.553 35.284 143.54 35.284C139.999 35.284 136.855 33.7249 134.476 30.7918L129.112 36.0504C131.966 39.4328 135.745 42.4981 143.646 42.4981C150.384 42.4981 157.229 38.5872 157.229 31.0824C157.202 23.3927 151.97 21.6487 146.156 20.4331ZM215.787 6.40138V19.2968C215.787 19.429 215.681 19.5347 215.549 19.5347H204.714C204.582 19.5347 204.477 19.429 204.477 19.2968V6.40138H195.598V41.6525H204.477V27.8057C204.477 27.6736 204.582 27.5679 204.714 27.5679H215.549C215.681 27.5679 215.787 27.6736 215.787 27.8057V41.6525H224.718V6.40138H215.787ZM177.734 34.4384C173.744 34.4384 169.437 31.1089 169.437 23.7891C169.437 17.1036 173.48 13.6154 177.47 13.6154C180.377 13.6154 182.412 14.831 184.024 17.5264L190.841 13.0077C187.353 7.88119 183.204 5.55578 177.417 5.55578C166.081 5.55578 161.007 14.7253 161.007 23.7891C161.007 34.8084 167.719 42.4981 177.312 42.4981C184.446 42.4981 187.697 39.882 191.106 35.0462L184.235 30.4218C182.702 32.9058 181.038 34.4384 177.734 34.4384ZM110.324 5.50293C100.626 5.50293 94.1254 12.9284 94.1254 24.0005C94.1254 35.0726 100.626 42.4981 110.324 42.4981C120.022 42.4981 126.523 35.0726 126.523 24.0005C126.523 12.9284 120.022 5.50293 110.324 5.50293ZM110.324 34.4384C105.567 34.4384 102.502 30.3425 102.502 24.0005C102.502 17.6849 105.567 13.6154 110.324 13.6154C115.107 13.6154 118.199 17.6849 118.199 24.0005C118.199 30.3425 115.107 34.4384 110.324 34.4384Z" fill="#F80000"/>
</g>
<defs>
<clipPath id="clip0_2960_10378">
<rect width="224.719" height="48" fill="white"/>
</clipPath>
</defs>
</svg>
