<svg width="132" height="41" viewBox="0 0 132 41" fill="none" xmlns="http://www.w3.org/2000/svg">
<g clip-path="url(#clip0_2960_10344)">
<path d="M56.4495 0.697266H55.6759L36.0173 13.8013L35.9308 13.4634C33.2236 5.76336 25.606 2.38051 15.8745 2.38051H1.8877V37.9131H16.7171C26.0315 37.9131 33.4771 34.1048 36.0173 26.8291L36.1018 26.5757L56.0735 39.8579L77.2341 25.729V37.9131H102.563V27.0547H89.9239V2.38053H77.234V14.9468L61.4558 25.7105L57.8762 23.1744L73.9562 12.3448L66.8227 7.72169L50.5716 18.5512L47.1444 16.4106L63.3924 5.58208L56.4495 0.697266ZM23.9125 20.5681C23.9125 25.2232 20.5296 27.338 16.2958 27.338H14.5848V13.3769H16.2958C20.9509 13.3769 23.9125 15.7461 23.9125 20.5681ZM129.941 37.9131H105.136V2.3805H117.829V27.0547H129.941V37.9131Z" fill="#0073C9"/>
</g>
<defs>
<clipPath id="clip0_2960_10344">
<rect width="130.798" height="40" fill="white" transform="translate(0.515625 0.277344)"/>
</clipPath>
</defs>
</svg>
