<svg width="57" height="57" viewBox="0 0 57 57" fill="none" xmlns="http://www.w3.org/2000/svg">
<path d="M28.8298 0.139583C28.4069 0.139583 27.9839 0.139583 27.5756 0.168749L21.8444 15.9187H26.8319C29.7923 15.9187 31.3964 18.1938 30.3756 20.9938L23.3173 40.3896H17.3819L24.9652 19.5937H20.5173L12.9339 40.3896H7.0131L15.9089 15.8896L21.2902 1.16042C15.3134 2.83019 10.0607 6.43817 6.35717 11.4176C2.65368 16.3969 0.70929 22.4656 0.829473 28.67C0.949657 34.8745 3.1276 40.8633 7.02115 45.6955C10.9147 50.5277 16.3032 53.9296 22.3402 55.3667L27.5464 41.075L36.7048 15.8896H47.6423C50.6027 15.8896 52.2069 18.1792 51.186 20.9792L44.9881 38.0271C44.705 38.7003 44.237 39.2796 43.6382 39.6977C43.0394 40.1158 42.3343 40.3557 41.6048 40.3896H33.7298L28.0131 56.1104L28.8444 56.125C36.2704 56.125 43.3923 53.175 48.6433 47.924C53.8944 42.673 56.8444 35.5511 56.8444 28.125C56.8444 20.6989 53.8944 13.577 48.6433 8.32601C43.3923 3.07499 36.2704 0.125 28.8444 0.125L28.8298 0.139583ZM41.3131 19.5792L35.0714 36.7H39.5339L45.7756 19.5792H41.3131Z" fill="#0096D6"/>
</svg>
