<?xml version="1.0" encoding="UTF-8"?>
<svg width="132px" height="45px" viewBox="0 0 132 45" version="1.1" xmlns="http://www.w3.org/2000/svg" xmlns:xlink="http://www.w3.org/1999/xlink">
    <title>IOS</title>
    <g id="Page-1" stroke="none" stroke-width="1" fill="none" fill-rule="evenodd">
        <g id="Android-and-iOS-Apps" transform="translate(-187.000000, -20.000000)" fill-rule="nonzero">
            <g id="IOS" transform="translate(187.000000, 20.000000)">
                <path d="M130.944,38.25 C130.944,41.4264706 128.304,44.0735294 125.136,44.0735294 L6.072,44.0735294 C2.904,44.0735294 0.264,41.4264706 0.264,38.25 L0.264,7.01470588 C0.264,3.83823529 2.904,1.19117647 6.072,1.19117647 L125.136,1.19117647 C128.304,1.19117647 130.944,3.83823529 130.944,7.01470588 L130.944,38.25 Z" id="Path" fill="#000000"></path>
                <g id="Group" transform="translate(7.920000, 6.617647)" fill="#FFFFFF">
                    <path d="M26.4,22.8970588 C25.74,24.4852941 25.344,25.1470588 24.552,26.4705882 C23.364,28.3235294 21.516,30.7058824 19.404,30.7058824 C17.424,30.7058824 17.028,29.3823529 14.388,29.5147059 C11.748,29.5147059 11.22,30.8382353 9.24,30.7058824 C7.128,30.7058824 5.412,28.5882353 4.224,26.6029412 C0.792,21.3088235 0.396,15.0882353 2.508,11.7794118 C4.092,9.39705882 6.468,8.07352941 8.712,8.07352941 C10.956,8.07352941 12.408,9.39705882 14.388,9.39705882 C16.236,9.39705882 17.292,8.07352941 20.064,8.07352941 C22.044,8.07352941 24.156,9.13235294 25.74,11.1176471 C20.592,13.8970588 21.384,20.9117647 26.4,22.8970588 Z" id="Path"></path>
                    <path d="M17.82,5.95588235 C18.744,4.76470588 19.536,2.91176471 19.272,1.19117647 C17.688,1.32352941 15.84,2.25 14.784,3.57352941 C13.86,4.76470588 12.936,6.48529412 13.332,8.20588235 C15.048,8.33823529 16.896,7.27941176 17.82,5.95588235 Z" id="Path"></path>
                </g>
                <g id="Group" transform="translate(39.600000, 7.941176)" fill="#FFFFFF">
                    <g transform="translate(0.000000, 9.264706)">
                        <path d="M5.28,1.19117647 L0.396,15.8823529 L2.64,15.8823529 L4.092,11.3823529 L8.976,11.3823529 L10.56,15.8823529 L12.936,15.8823529 L7.92,1.19117647 L5.28,1.19117647 Z M6.468,3.57352941 C6.6,4.23529412 6.864,4.89705882 6.996,5.69117647 L8.316,9.52941176 L4.488,9.52941176 L5.808,5.55882353 C6.072,5.02941176 6.336,4.36764706 6.468,3.57352941 Z" id="Shape"></path>
                        <path d="M19.272,5.02941176 C17.82,5.02941176 16.5,5.55882353 15.708,6.75 L15.576,5.29411765 L13.596,5.29411765 L13.596,5.42647059 C13.596,6.35294118 13.728,7.27941176 13.728,8.73529412 L13.728,20.1176471 L15.84,20.1176471 L15.84,14.8235294 C16.5,15.6176471 17.688,16.1470588 18.876,16.1470588 C20.196,16.1470588 21.384,15.6176471 22.176,14.6911765 C23.1,13.6323529 23.628,12.1764706 23.628,10.4558824 C23.628,8.86764706 23.232,7.54411765 22.308,6.61764706 C21.648,5.55882353 20.46,5.02941176 19.272,5.02941176 Z M18.744,6.88235294 C20.724,6.88235294 21.648,8.73529412 21.648,10.5882353 C21.648,12.9705882 20.46,14.4264706 18.744,14.4264706 C17.556,14.4264706 16.368,13.6323529 16.104,12.3088235 C16.104,12.1764706 15.972,11.9117647 15.972,11.6470588 L15.972,9.79411765 C15.972,9.66176471 15.972,9.39705882 16.104,9.26470588 C16.104,9.26470588 16.104,9.13235294 16.104,9.13235294 C16.368,7.67647059 17.424,6.88235294 18.744,6.88235294 Z" id="Shape"></path>
                        <path d="M30.624,5.02941176 C29.172,5.02941176 27.852,5.55882353 27.06,6.75 L27.06,5.29411765 L25.08,5.29411765 L25.08,5.42647059 C25.08,6.35294118 25.212,7.27941176 25.212,8.73529412 L25.212,20.1176471 L27.456,20.1176471 L27.456,14.8235294 C28.116,15.6176471 29.304,16.1470588 30.492,16.1470588 C31.812,16.1470588 33,15.6176471 33.792,14.6911765 C34.716,13.6323529 35.244,12.1764706 35.244,10.4558824 C35.244,8.86764706 34.848,7.54411765 33.924,6.61764706 C33.132,5.55882353 31.944,5.02941176 30.624,5.02941176 Z M30.096,6.88235294 C32.076,6.88235294 33,8.73529412 33,10.5882353 C33,12.9705882 31.812,14.4264706 30.096,14.4264706 C28.908,14.4264706 27.72,13.6323529 27.456,12.3088235 C27.456,12.1764706 27.324,11.9117647 27.324,11.6470588 L27.324,9.79411765 C27.324,9.66176471 27.324,9.39705882 27.456,9.26470588 C27.456,9.26470588 27.456,9.13235294 27.456,9.13235294 C27.72,7.67647059 28.908,6.88235294 30.096,6.88235294 Z" id="Shape"></path>
                        <path d="M44.88,7.41176471 C42.768,6.61764706 42.108,5.95588235 42.108,4.76470588 C42.108,3.83823529 42.9,2.77941176 44.616,2.77941176 C46.068,2.77941176 46.992,3.30882353 47.256,3.44117647 L47.388,3.57352941 L48.048,1.72058824 L47.916,1.58823529 C47.52,1.32352941 46.464,0.926470588 44.748,0.926470588 C41.976,0.926470588 39.996,2.64705882 39.996,5.02941176 C39.996,7.01470588 41.184,8.33823529 43.824,9.26470588 C45.672,9.92647059 46.464,10.7205882 46.464,11.9117647 C46.464,13.3676471 45.408,14.1617647 43.692,14.1617647 C42.504,14.1617647 41.448,13.8970588 40.524,13.2352941 L40.26,13.2352941 L39.6,15.0882353 L39.732,15.2205882 C40.524,15.75 42.108,16.1470588 43.428,16.1470588 C47.256,16.1470588 48.576,13.7647059 48.576,11.7794118 C48.708,9.79411765 47.652,8.47058824 44.88,7.41176471 Z" id="Path"></path>
                        <path d="M52.668,2.64705882 L50.556,3.30882353 L50.556,5.29411765 L48.972,5.29411765 L48.972,7.01470588 L50.556,7.01470588 L50.556,12.4411765 C50.556,13.7647059 50.82,14.6911765 51.348,15.2205882 C51.876,15.75 52.668,16.0147059 53.46,16.0147059 C54.252,16.0147059 54.912,15.8823529 55.176,15.75 L55.308,15.75 L55.176,14.0294118 L54.912,14.0294118 C54.648,14.1617647 54.384,14.1617647 53.856,14.1617647 C52.932,14.1617647 52.668,13.6323529 52.668,12.3088235 L52.668,6.88235294 L55.308,6.88235294 L55.308,5.29411765 L52.668,5.29411765 L52.668,2.64705882 L52.668,2.64705882 Z" id="Path"></path>
                        <path d="M60.852,5.02941176 C57.816,5.02941176 55.572,7.41176471 55.572,10.7205882 C55.572,13.8970588 57.684,16.1470588 60.72,16.1470588 L60.72,16.1470588 C63.228,16.1470588 66,14.4264706 66,10.4558824 C66,8.86764706 65.472,7.54411765 64.548,6.48529412 C63.624,5.55882353 62.304,5.02941176 60.852,5.02941176 Z M60.72,6.75 C62.7,6.75 63.624,8.73529412 63.624,10.4558824 C63.624,12.7058824 62.436,14.2941176 60.72,14.2941176 L60.72,14.2941176 C59.004,14.2941176 57.816,12.7058824 57.816,10.4558824 C57.816,8.73529412 58.74,6.75 60.72,6.75 Z" id="Shape"></path>
                        <path d="M72.732,5.16176471 L72.6,5.16176471 C72.468,5.16176471 72.204,5.02941176 72.072,5.02941176 C70.884,5.02941176 69.828,5.69117647 69.3,6.88235294 L69.3,5.29411765 L67.32,5.29411765 L67.32,5.42647059 C67.32,6.35294118 67.452,7.27941176 67.452,8.60294118 L67.452,15.8823529 L69.696,15.8823529 L69.696,10.1911765 C69.696,9.92647059 69.696,9.52941176 69.696,9.26470588 C69.96,7.94117647 70.884,7.01470588 72.072,7.01470588 C72.336,7.01470588 72.468,7.01470588 72.732,7.01470588 L72.996,7.01470588 L72.996,5.16176471 L72.732,5.16176471 Z" id="Path"></path>
                        <path d="M77.748,5.02941176 C74.844,5.02941176 72.732,7.41176471 72.732,10.7205882 C72.732,14.0294118 74.844,16.1470588 78.012,16.1470588 C79.728,16.1470588 80.784,15.75 81.576,15.4852941 L81.708,15.4852941 L81.312,13.7647059 L81.18,13.8970588 C80.52,14.1617647 79.728,14.4264706 78.408,14.4264706 C77.484,14.4264706 75.24,14.1617647 75.108,11.25 L82.236,11.25 L82.236,11.1176471 C82.236,10.8529412 82.368,10.5882353 82.368,10.1911765 C82.104,7.67647059 80.916,5.02941176 77.748,5.02941176 Z M77.616,6.61764706 C78.276,6.61764706 78.804,6.88235294 79.2,7.27941176 C79.86,7.94117647 79.992,8.86764706 79.992,9.39705882 L74.976,9.39705882 C75.108,8.07352941 75.9,6.61764706 77.616,6.61764706 Z" id="Shape"></path>
                    </g>
                    <g>
                        <path d="M0.396,0.397058824 C1.056,0.264705882 1.716,0.264705882 2.508,0.264705882 C3.96,0.264705882 5.016,0.529411765 5.676,1.05882353 C6.336,1.58823529 6.732,2.38235294 6.732,3.57352941 C6.732,4.76470588 6.336,5.69117647 5.676,6.22058824 C4.884,6.88235294 3.696,7.27941176 2.244,7.27941176 C1.584,7.27941176 0.924,7.27941176 0.396,7.14705882 L0.396,0.397058824 Z M1.32,6.61764706 C1.584,6.61764706 1.98,6.61764706 2.376,6.61764706 C4.488,6.61764706 5.676,5.55882353 5.676,3.70588235 C5.676,1.98529412 4.62,1.05882353 2.508,1.05882353 C1.98,1.05882353 1.584,1.05882353 1.32,1.19117647 L1.32,6.61764706 Z" id="Shape"></path>
                        <path d="M10.296,7.41176471 C8.844,7.41176471 7.656,6.48529412 7.656,4.89705882 C7.656,3.17647059 8.844,2.25 10.428,2.25 C12.012,2.25 13.068,3.30882353 13.068,4.76470588 C12.936,6.61764706 11.616,7.41176471 10.296,7.41176471 L10.296,7.41176471 Z M10.296,6.75 C11.22,6.75 12.012,5.95588235 12.012,4.76470588 C12.012,3.97058824 11.484,2.91176471 10.296,2.91176471 C9.108,2.91176471 8.58,3.83823529 8.58,4.89705882 C8.58,5.82352941 9.24,6.75 10.296,6.75 L10.296,6.75 Z" id="Shape"></path>
                        <path d="M14.652,2.25 L15.444,4.76470588 C15.576,5.29411765 15.708,5.82352941 15.84,6.35294118 L15.84,6.35294118 C15.972,5.82352941 16.104,5.29411765 16.368,4.76470588 L17.292,2.25 L18.084,2.25 L18.876,4.76470588 C19.14,5.29411765 19.272,5.82352941 19.404,6.35294118 L19.404,6.35294118 C19.536,5.82352941 19.668,5.29411765 19.8,4.76470588 L20.592,2.25 L21.648,2.25 L19.8,7.27941176 L18.876,7.27941176 L18.084,4.89705882 C17.952,4.36764706 17.688,3.83823529 17.556,3.30882353 L17.556,3.30882353 C17.424,3.97058824 17.292,4.36764706 17.028,5.02941176 L16.104,7.41176471 L15.18,7.41176471 L13.464,2.38235294 L14.652,2.38235294 L14.652,2.25 Z" id="Path"></path>
                        <path d="M22.572,3.57352941 C22.572,3.04411765 22.572,2.64705882 22.572,2.25 L23.496,2.25 L23.496,3.04411765 L23.496,3.04411765 C23.76,2.51470588 24.42,2.11764706 25.344,2.11764706 C26.136,2.11764706 27.324,2.51470588 27.324,4.23529412 L27.324,7.27941176 L26.268,7.27941176 L26.268,4.36764706 C26.268,3.57352941 25.872,2.91176471 24.948,2.91176471 C24.288,2.91176471 23.76,3.30882353 23.628,3.83823529 C23.628,3.97058824 23.496,4.10294118 23.496,4.23529412 L23.496,7.27941176 L22.44,7.27941176 L22.44,3.57352941 L22.572,3.57352941 Z" id="Path"></path>
                        <polygon id="Path" points="28.908 0 29.964 0 29.964 7.27941176 28.908 7.27941176"></polygon>
                        <path d="M33.924,7.41176471 C32.472,7.41176471 31.284,6.48529412 31.284,4.89705882 C31.284,3.17647059 32.472,2.25 34.056,2.25 C35.64,2.25 36.696,3.30882353 36.696,4.76470588 C36.696,6.61764706 35.244,7.41176471 33.924,7.41176471 L33.924,7.41176471 Z M33.924,6.75 C34.848,6.75 35.64,5.95588235 35.64,4.76470588 C35.64,3.97058824 35.112,2.91176471 33.924,2.91176471 C32.736,2.91176471 32.208,3.83823529 32.208,4.89705882 C32.208,5.82352941 32.868,6.75 33.924,6.75 L33.924,6.75 Z" id="Shape"></path>
                        <path d="M41.844,6.08823529 C41.844,6.48529412 41.844,6.88235294 41.976,7.27941176 L40.92,7.27941176 L40.92,6.61764706 L40.92,6.61764706 C40.656,7.01470588 39.996,7.41176471 39.204,7.41176471 C38.148,7.41176471 37.488,6.75 37.488,5.95588235 C37.488,4.76470588 38.676,4.10294118 40.788,4.10294118 L40.788,3.97058824 C40.788,3.57352941 40.656,2.77941176 39.468,2.77941176 C38.94,2.77941176 38.412,2.91176471 38.016,3.17647059 L37.884,2.64705882 C38.28,2.38235294 39.072,2.25 39.732,2.25 C41.448,2.25 41.844,3.30882353 41.844,4.23529412 L41.844,6.08823529 Z M40.788,4.76470588 C39.732,4.76470588 38.412,4.89705882 38.412,5.82352941 C38.412,6.48529412 38.808,6.75 39.336,6.75 C40.128,6.75 40.524,6.35294118 40.656,5.95588235 C40.656,5.82352941 40.656,5.82352941 40.656,5.69117647 L40.656,4.76470588 L40.788,4.76470588 Z" id="Shape"></path>
                        <path d="M48.18,0 L48.18,6.08823529 C48.18,6.48529412 48.18,7.01470588 48.18,7.41176471 L47.256,7.41176471 L47.256,6.48529412 L47.256,6.48529412 C46.992,7.01470588 46.332,7.41176471 45.408,7.41176471 C44.088,7.41176471 43.032,6.35294118 43.032,4.89705882 C43.032,3.17647059 44.22,2.25 45.54,2.25 C46.332,2.25 46.992,2.64705882 47.256,3.04411765 L47.256,3.04411765 L47.256,0 L48.18,0 Z M47.124,4.36764706 C47.124,4.23529412 47.124,4.10294118 47.124,3.97058824 C46.992,3.44117647 46.464,2.91176471 45.672,2.91176471 C44.616,2.91176471 43.956,3.70588235 43.956,4.76470588 C43.956,5.82352941 44.484,6.61764706 45.54,6.61764706 C46.2,6.61764706 46.86,6.22058824 46.992,5.55882353 C46.992,5.42647059 46.992,5.29411765 46.992,5.16176471 L46.992,4.36764706 L47.124,4.36764706 Z" id="Shape"></path>
                        <path d="M54.516,7.41176471 C53.064,7.41176471 51.876,6.48529412 51.876,4.89705882 C51.876,3.17647059 53.064,2.25 54.648,2.25 C56.232,2.25 57.288,3.30882353 57.288,4.76470588 C57.288,6.61764706 55.836,7.41176471 54.516,7.41176471 L54.516,7.41176471 Z M54.516,6.75 C55.44,6.75 56.232,5.95588235 56.232,4.76470588 C56.232,3.97058824 55.704,2.91176471 54.516,2.91176471 C53.328,2.91176471 52.8,3.83823529 52.8,4.89705882 C52.932,5.82352941 53.592,6.75 54.516,6.75 L54.516,6.75 Z" id="Shape"></path>
                        <path d="M58.608,3.57352941 C58.608,3.04411765 58.608,2.64705882 58.608,2.25 L59.4,2.25 L59.4,3.04411765 L59.4,3.04411765 C59.664,2.51470588 60.324,2.11764706 61.248,2.11764706 C62.04,2.11764706 63.228,2.51470588 63.228,4.23529412 L63.228,7.27941176 L62.172,7.27941176 L62.172,4.36764706 C62.172,3.57352941 61.776,2.91176471 60.852,2.91176471 C60.192,2.91176471 59.664,3.30882353 59.532,3.83823529 C59.532,3.97058824 59.4,4.10294118 59.4,4.23529412 L59.4,7.27941176 L58.344,7.27941176 L58.344,3.57352941 L58.608,3.57352941 Z" id="Path"></path>
                        <path d="M68.508,1.05882353 L68.508,2.25 L69.96,2.25 L69.96,2.91176471 L68.508,2.91176471 L68.508,5.55882353 C68.508,6.22058824 68.64,6.48529412 69.3,6.48529412 C69.564,6.48529412 69.696,6.48529412 69.828,6.48529412 L69.828,7.14705882 C69.696,7.14705882 69.3,7.27941176 68.904,7.27941176 C68.376,7.27941176 68.112,7.14705882 67.848,6.88235294 C67.584,6.61764706 67.452,6.22058824 67.452,5.55882353 L67.452,2.77941176 L66.66,2.77941176 L66.66,2.11764706 L67.452,2.11764706 L67.452,1.32352941 L68.508,1.05882353 Z" id="Path"></path>
                        <path d="M71.148,0 L72.204,0 L72.204,3.17647059 L72.204,3.17647059 C72.336,2.91176471 72.6,2.64705882 72.864,2.51470588 C73.128,2.38235294 73.524,2.25 73.92,2.25 C74.712,2.25 75.9,2.64705882 75.9,4.36764706 L75.9,7.27941176 L74.844,7.27941176 L74.844,4.36764706 C74.844,3.57352941 74.448,2.91176471 73.524,2.91176471 C72.864,2.91176471 72.336,3.30882353 72.204,3.83823529 C72.204,3.97058824 72.072,4.10294118 72.072,4.23529412 L72.072,7.27941176 L71.016,7.27941176 L71.016,0 L71.148,0 Z" id="Path"></path>
                        <path d="M78.012,4.89705882 C78.012,6.08823529 78.936,6.61764706 79.86,6.61764706 C80.52,6.61764706 81.048,6.48529412 81.444,6.35294118 L81.576,7.01470588 C81.18,7.14705882 80.652,7.27941176 79.728,7.27941176 C78.012,7.27941176 76.956,6.22058824 76.956,4.76470588 C76.956,3.30882353 78.012,2.11764706 79.596,2.11764706 C81.444,2.11764706 81.84,3.57352941 81.84,4.5 C81.84,4.63235294 81.84,4.76470588 81.84,4.89705882 L78.012,4.89705882 Z M80.916,4.23529412 C80.916,3.70588235 80.652,2.77941176 79.596,2.77941176 C78.54,2.77941176 78.144,3.57352941 78.012,4.23529412 L80.916,4.23529412 Z" id="Shape"></path>
                    </g>
                </g>
            </g>
        </g>
    </g>
</svg>