<svg width="163" height="49" viewBox="0 0 163 49" fill="none" xmlns="http://www.w3.org/2000/svg">
<g clip-path="url(#clip0_2960_10413)">
<path d="M43.7119 35.7307V34.9385H49.4393V35.7307H47.016V42.0593H46.1306V35.7307H43.7119Z" fill="#231F20"/>
<path d="M53.2143 34.9854V37.9026C53.4048 37.6187 53.6641 37.3878 53.9681 37.2313C54.2721 37.0748 54.6108 36.9979 54.9525 37.0079C56.3506 37.0079 57.0543 37.9399 57.0543 39.338V42.1341H56.2294V39.338C56.2294 38.3547 55.7215 37.7908 54.8034 37.7908C54.3828 37.792 53.9797 37.96 53.6827 38.2579C53.3857 38.5558 53.2189 38.9593 53.2189 39.3799V42.1108H52.3848V34.9854H53.2143Z" fill="#231F20"/>
<path d="M65.0278 41.2722C64.7493 41.5657 64.4117 41.7968 64.0374 41.9502C63.6631 42.1036 63.2605 42.1759 62.8561 42.1623C62.5128 42.1651 62.1723 42.1002 61.8541 41.9714C61.5358 41.8425 61.2461 41.6523 61.0013 41.4114C60.5071 40.9251 60.2263 40.2623 60.2208 39.5689C60.2152 38.8756 60.4853 38.2084 60.9717 37.7142C61.458 37.2199 62.1208 36.9392 62.8142 36.9336C64.3521 36.9336 65.5171 37.8656 65.326 39.8788H61.0573C61.1067 40.3154 61.324 40.7156 61.6632 40.9948C62.0024 41.2739 62.4369 41.4102 62.8748 41.3748C63.1671 41.381 63.4577 41.3289 63.7297 41.2217C64.0018 41.1145 64.2497 40.9543 64.4592 40.7503L65.0185 41.2583L65.0278 41.2722ZM64.5618 39.1984C64.5152 38.2198 63.8441 37.6979 62.8608 37.6979C62.4313 37.6845 62.012 37.8303 61.6834 38.1073C61.3548 38.3843 61.1401 38.7729 61.0806 39.1984H64.5618Z" fill="#231F20"/>
<path d="M73.9612 34.9385L78.3278 40.3862V34.9385H79.1946V42.0406H78.5841L74.2408 36.6301V42.0593H73.374V34.9851L73.9612 34.9385Z" fill="#231F20"/>
<path d="M87.3081 41.2722C87.0269 41.5622 86.6889 41.7909 86.3152 41.9441C85.9415 42.0973 85.5402 42.1716 85.1364 42.1623C84.7931 42.1651 84.4526 42.1002 84.1343 41.9714C83.8161 41.8425 83.5263 41.6523 83.2816 41.4114C82.7874 40.9251 82.5066 40.2623 82.5011 39.5689C82.4955 38.8756 82.7656 38.2084 83.252 37.7142C83.7383 37.2199 84.4011 36.9392 85.0945 36.9336C86.6277 36.9336 87.7974 37.8656 87.6016 39.8788H83.3236C83.373 40.3154 83.5903 40.7156 83.9295 40.9948C84.2687 41.2739 84.7032 41.4102 85.1411 41.3748C85.4344 41.3832 85.7263 41.3322 85.9994 41.2249C86.2725 41.1176 86.5211 40.9561 86.7302 40.7503L87.2894 41.2583L87.3081 41.2722ZM86.8141 39.1798C86.7721 38.2012 86.1104 37.6792 85.1178 37.6792C84.6856 37.6613 84.2623 37.8051 83.9305 38.0826C83.5988 38.3601 83.3824 38.7513 83.3236 39.1798H86.8141Z" fill="#231F20"/>
<path d="M91.9079 39.4818L90.2209 37.0631V37.0352H91.1529L92.4578 38.9319L93.73 37.0352H94.6853V37.0631L92.9797 39.4818L94.8438 42.0355V42.0588H93.9117L92.5137 40.0223L91.1156 42.0588H90.1836V42.0169L91.9079 39.4818Z" fill="#231F20"/>
<path d="M99.1681 37.0452H100.72V37.7816H99.1681V40.4285C99.1681 41.025 99.3638 41.3932 99.965 41.3932C100.209 41.3871 100.448 41.3249 100.664 41.2115L100.911 41.9012C100.605 42.0505 100.272 42.1346 99.9323 42.1482C98.8605 42.1482 98.3479 41.5377 98.3479 40.4099V37.7629H97.3506V37.0499H98.3525V35.6891L99.1867 35.6006L99.1681 37.0452Z" fill="#231F20"/>
<path d="M111.751 34.9385L114.948 42.0406H113.988L113.289 40.4515H109.225L108.531 42.0406H107.557L110.763 34.9385H111.751ZM111.252 35.8426L109.57 39.6779H112.939L111.252 35.8426Z" fill="#231F20"/>
<path d="M117.897 37.0546H118.69L118.736 38.0146C118.94 37.6858 119.226 37.4158 119.566 37.2311C119.906 37.0465 120.288 36.9535 120.675 36.9614C121.328 36.9527 121.958 37.2025 122.428 37.6564C122.898 38.1104 123.169 38.7316 123.182 39.3847V39.5525C123.203 39.8745 123.16 40.1975 123.056 40.5029C122.951 40.8083 122.788 41.0901 122.574 41.3321C122.361 41.5742 122.102 41.7717 121.812 41.9133C121.522 42.055 121.207 42.1379 120.885 42.1575H120.628C120.249 42.1707 119.874 42.0832 119.54 41.9039C119.206 41.7246 118.925 41.46 118.727 41.1369V44.3991H117.935L117.897 37.0546ZM122.325 39.5758C122.358 39.134 122.215 38.6971 121.927 38.3607C121.638 38.0244 121.228 37.8161 120.787 37.7816C120.713 37.7723 120.637 37.7723 120.563 37.7816C120.339 37.7748 120.116 37.8121 119.906 37.8916C119.697 37.9711 119.505 38.091 119.342 38.2447C119.179 38.3983 119.047 38.5826 118.955 38.787C118.864 38.9914 118.813 39.2119 118.806 39.436V39.5711C118.786 40.0315 118.949 40.481 119.26 40.8209C119.572 41.1609 120.005 41.3634 120.465 41.3839H120.563C121.012 41.4029 121.449 41.2434 121.78 40.9403C122.111 40.6372 122.309 40.2152 122.329 39.7668C122.334 39.7032 122.334 39.6394 122.329 39.5758H122.325Z" fill="#231F20"/>
<path d="M126.407 37.0545H127.199L127.237 38.0145C127.443 37.6886 127.728 37.4208 128.067 37.2364C128.405 37.0521 128.785 36.9574 129.171 36.9613C129.824 36.9501 130.455 37.1985 130.925 37.6519C131.395 38.1054 131.666 38.7269 131.678 39.3799V39.5477C131.699 39.869 131.656 40.1913 131.552 40.4961C131.449 40.8009 131.286 41.0823 131.073 41.3243C130.861 41.5662 130.603 41.7638 130.314 41.906C130.025 42.0482 129.711 42.132 129.39 42.1528C129.3 42.1574 129.209 42.1574 129.119 42.1528C128.742 42.1646 128.368 42.077 128.035 41.8987C127.702 41.7204 127.422 41.4576 127.223 41.1368V44.399H126.407V37.0545ZM130.844 39.5757C130.875 39.1318 130.729 38.6937 130.438 38.3568C130.147 38.0199 129.736 37.8114 129.292 37.7768C129.219 37.7722 129.146 37.7722 129.073 37.7768C128.62 37.7704 128.183 37.9405 127.854 38.2512C127.526 38.5618 127.331 38.9885 127.311 39.4405V39.5757C127.294 40.0357 127.459 40.484 127.77 40.8228C128.082 41.1615 128.515 41.3632 128.975 41.3838H129.073C129.522 41.4041 129.961 41.2451 130.293 40.9419C130.625 40.6386 130.823 40.216 130.844 39.7667C130.848 39.7031 130.848 39.6393 130.844 39.5757Z" fill="#231F20"/>
<path d="M135.807 42.0595H134.959V34.9854H135.793L135.807 42.0595Z" fill="#231F20"/>
<path d="M140.402 35.5118C140.408 35.584 140.399 35.6567 140.377 35.7256C140.355 35.7946 140.319 35.8585 140.272 35.9136C140.225 35.9688 140.168 36.0142 140.104 36.0472C140.039 36.0802 139.969 36.1002 139.896 36.106C139.751 36.1177 139.606 36.0711 139.495 35.9762C139.383 35.8814 139.314 35.7462 139.302 35.6004C139.298 35.571 139.298 35.5412 139.302 35.5118C139.302 35.366 139.36 35.2261 139.463 35.123C139.566 35.0198 139.706 34.9619 139.852 34.9619C139.998 34.9619 140.138 35.0198 140.241 35.123C140.344 35.2261 140.402 35.366 140.402 35.5118ZM139.423 42.0594H140.258V37.0124H139.423V42.0594Z" fill="#231F20"/>
<path d="M148.291 41.2722C148.012 41.5647 147.674 41.7952 147.3 41.9485C146.926 42.1019 146.524 42.1747 146.119 42.1623C145.768 42.1919 145.415 42.1504 145.08 42.0401C144.745 41.9298 144.436 41.7531 144.171 41.5205C143.906 41.2879 143.691 41.0043 143.538 40.6866C143.386 40.3688 143.299 40.0236 143.283 39.6715C143.267 39.3194 143.322 38.9677 143.445 38.6374C143.569 38.3072 143.757 38.0052 144 37.7495C144.242 37.4939 144.534 37.2899 144.857 37.1497C145.181 37.0095 145.529 36.936 145.882 36.9336H146.082C147.615 36.9336 148.785 37.8656 148.594 39.8788H144.335C144.384 40.3162 144.602 40.7172 144.942 40.9965C145.282 41.2758 145.718 41.4115 146.157 41.3748C146.449 41.3823 146.74 41.3309 147.012 41.2236C147.285 41.1163 147.532 40.9553 147.741 40.7503L148.3 41.2583L148.291 41.2722ZM147.825 39.1984C147.783 38.2198 147.112 37.6979 146.124 37.6979C145.695 37.6847 145.276 37.8306 144.948 38.1077C144.621 38.3847 144.407 38.7733 144.348 39.1984H147.825Z" fill="#231F20"/>
<path d="M156.745 34.915V42.0172H155.948L155.911 41.0851C155.717 41.4039 155.443 41.666 155.115 41.8452C154.788 42.0243 154.42 42.1142 154.047 42.1057C153.388 42.0909 152.76 41.8281 152.287 41.37C151.814 40.9119 151.531 40.2921 151.495 39.6346C151.459 38.9771 151.673 38.3302 152.093 37.8233C152.513 37.3164 153.109 36.9867 153.762 36.9003C153.852 36.8933 153.943 36.8933 154.033 36.9003C154.404 36.8894 154.771 36.9762 155.099 37.1521C155.426 37.3279 155.701 37.5866 155.897 37.9022V34.915H156.717H156.745ZM154.098 37.7112C153.739 37.6959 153.384 37.7873 153.077 37.9737C152.77 38.1602 152.525 38.4334 152.373 38.7589C152.222 39.0843 152.17 39.4475 152.224 39.8024C152.279 40.1574 152.437 40.4883 152.679 40.7533C152.922 41.0184 153.237 41.2057 153.586 41.2916C153.934 41.3776 154.301 41.3583 154.638 41.2363C154.976 41.1142 155.27 40.8949 155.483 40.6059C155.696 40.3169 155.819 39.9712 155.836 39.6125V39.4494C155.816 38.9954 155.626 38.5657 155.304 38.2448C154.982 37.9239 154.552 37.7352 154.098 37.7158V37.7112Z" fill="#231F20"/>
<path d="M61.5513 9.53545L54.6403 19.1401H53.9645L47.142 9.54011V25.1238H43.8799V4.81934H47.6593L54.3513 14.3448L61.0247 4.81934H64.7995V25.1331H61.5374L61.5513 9.53545Z" fill="#231F20"/>
<path d="M69.2354 31.7233V10.7524H72.0315L72.2039 13.0825C72.7656 12.2636 73.5224 11.5975 74.406 11.1443C75.2895 10.6911 76.2721 10.4651 77.2649 10.4868C81.5289 10.5194 84.4882 13.6184 84.4882 17.9431C84.4882 22.2677 81.6921 25.3994 77.2742 25.3994C75.5406 25.3994 73.3084 24.761 72.2225 22.9947V31.7233H69.2354ZM81.515 17.9384C81.515 15.2355 79.7115 13.3808 76.9852 13.3808C74.259 13.3808 72.5021 15.3846 72.5021 17.9384C72.4845 19.125 72.9346 20.2708 73.7551 21.128C74.5757 21.9853 75.7007 22.4851 76.8869 22.5194C78.0731 22.5537 79.2251 22.1197 80.0938 21.3113C80.9625 20.5029 81.478 19.385 81.5289 18.1994V17.9384H81.515Z" fill="#231F20"/>
<path d="M90.6771 4.77246V12.8998C91.1943 12.15 91.8928 11.5431 92.7076 11.1357C93.5224 10.7283 94.427 10.5336 95.3373 10.5697C99.3823 10.5697 101.232 13.2633 101.232 17.355V25.0769H98.2359V17.3876C98.2359 14.6847 96.8379 13.3519 94.6429 13.3519C92.3128 13.3519 90.6911 15.2719 90.6911 17.6206V25.0769H87.6992V4.77246H90.6771Z" fill="#231F20"/>
<path d="M116.564 10.7524H119.496V25.0639H116.648L116.504 22.7338C115.544 24.5606 113.33 25.4274 111.573 25.4274C107.379 25.46 104.233 22.7618 104.233 17.8919C104.233 13.1105 107.496 10.4355 111.615 10.4355C113.652 10.4355 115.586 11.3676 116.476 13.0173L116.564 10.7524ZM107.183 17.9152C107.183 20.8744 109.271 22.6919 111.843 22.6919C118.023 22.6919 118.023 13.199 111.843 13.199C109.285 13.199 107.183 14.9979 107.183 17.9291V17.9152Z" fill="#231F20"/>
<path d="M132.675 14.2893C132.168 13.8258 131.572 13.469 130.925 13.2401C130.277 13.0111 129.59 12.9147 128.904 12.9564C127.078 12.9285 125.866 13.539 125.866 14.6667C125.866 15.7945 127.129 16.3444 128.993 16.4982C131.635 16.7265 135.075 17.2904 135.075 20.9813C135.047 23.6516 132.693 25.511 128.993 25.511C126.663 25.511 124.333 24.9891 122.469 22.8733L124.035 20.7529C124.685 21.4219 125.464 21.9537 126.323 22.317C127.183 22.6804 128.106 22.868 129.04 22.8687C130.438 22.8687 132.059 22.3421 132.078 21.0046C132.097 19.6671 130.89 19.2337 128.769 19.024C126.071 18.7584 122.967 17.9056 122.944 14.732C122.921 11.5584 126.206 10.3887 128.89 10.3887C131.099 10.3887 132.8 10.8827 134.408 12.3087L132.675 14.2893Z" fill="#231F20"/>
<path d="M141.385 6.55786C141.385 9.02777 137.657 9.02777 137.657 6.55786C137.657 4.08796 141.385 4.13922 141.385 6.55786ZM138.016 10.7054V25.0728H141.008V10.7194L138.016 10.7054Z" fill="#231F20"/>
<path d="M154.21 14.2893C153.703 13.8258 153.108 13.469 152.46 13.2401C151.812 13.0111 151.125 12.9147 150.44 12.9564C148.604 12.9285 147.397 13.539 147.397 14.6667C147.397 15.7945 148.678 16.3211 150.51 16.4982C153.147 16.7265 156.568 17.2904 156.568 20.9813C156.54 23.6516 154.191 25.511 150.51 25.511C148.18 25.511 145.849 24.9891 143.985 22.8733L145.551 20.7529C146.205 21.4247 146.987 21.9581 147.85 22.3216C148.714 22.685 149.642 22.8711 150.58 22.8687C152.001 22.8687 153.599 22.3421 153.623 21.0046C153.646 19.6671 152.43 19.2337 150.319 19.024C147.616 18.7584 144.512 17.9056 144.484 14.732C144.456 11.5584 147.746 10.3887 150.435 10.3887C152.639 10.3887 154.34 10.8547 155.943 12.304L154.21 14.2893Z" fill="#231F20"/>
<path d="M32.9466 14.7691L19.255 0.532227C18.5978 1.15687 18.0705 1.90529 17.7036 2.73444C17.3367 3.56358 17.1373 4.45709 17.117 5.36357C17.0966 6.27005 17.2557 7.1716 17.585 8.01638C17.9143 8.86116 18.4074 9.6325 19.036 10.286L28.156 19.7509" fill="url(#paint0_linear_2960_10413)"/>
<path d="M29.7313 11.3672L32.9469 14.7412L28.1702 19.7229L24.8428 16.2511L29.7313 11.3672Z" fill="url(#paint1_linear_2960_10413)"/>
<path d="M20.2244 28.0224L32.9234 14.7734C34.2727 16.2027 35.0145 18.0999 34.9928 20.0653C34.9711 22.0307 34.1874 23.911 32.8069 25.3101L25.2248 32.9109C24.9006 33.2356 24.5156 33.4931 24.0917 33.6688C23.6679 33.8446 23.2136 33.935 22.7548 33.935C22.2961 33.935 21.8418 33.8446 21.418 33.6688C20.9941 33.4931 20.6091 33.2356 20.2849 32.9109C19.6322 32.2687 19.2597 31.3947 19.2483 30.4791C19.237 29.5635 19.5878 28.6805 20.2244 28.0224Z" fill="#D61360"/>
<path d="M7.94922 35.5068L20.5317 48.6393C21.8518 47.3754 22.6163 45.6394 22.6573 43.8123C22.6984 41.9853 22.0127 40.2166 20.7508 38.8948L12.7399 30.5391" fill="url(#paint2_linear_2960_10413)"/>
<path d="M8.0661 24.9843L16.4544 16.596C16.7769 16.2733 17.1597 16.0173 17.5811 15.8427C18.0025 15.668 18.4542 15.5781 18.9104 15.5781C19.3665 15.5781 19.8182 15.668 20.2396 15.8427C20.661 16.0173 21.0439 16.2733 21.3663 16.596C22.0149 17.2369 22.3858 18.1071 22.3988 19.0189C22.4119 19.9308 22.0662 20.8112 21.4362 21.4705L7.92163 35.5163C6.5807 34.0821 5.84683 32.1845 5.87376 30.2213C5.90069 28.258 6.68633 26.3813 8.0661 24.9843Z" fill="url(#paint3_linear_2960_10413)"/>
</g>
<defs>
<linearGradient id="paint0_linear_2960_10413" x1="-272.086" y1="-264.922" x2="-256.27" y2="-264.922" gradientUnits="userSpaceOnUse">
<stop stop-color="#8F54A1"/>
<stop offset="0.23" stop-color="#9E4596"/>
<stop offset="0.67" stop-color="#C51C7A"/>
<stop offset="0.69" stop-color="#C71A78"/>
</linearGradient>
<linearGradient id="paint1_linear_2960_10413" x1="-267.165" y1="-269.414" x2="-270.576" y2="-272.821" gradientUnits="userSpaceOnUse">
<stop stop-color="white" stop-opacity="0"/>
<stop offset="1"/>
</linearGradient>
<linearGradient id="paint2_linear_2960_10413" x1="-314.625" y1="-399.434" x2="-299.922" y2="-399.434" gradientUnits="userSpaceOnUse">
<stop stop-color="#069CD3"/>
<stop offset="0.85" stop-color="#A2CD48"/>
</linearGradient>
<linearGradient id="paint3_linear_2960_10413" x1="-318.511" y1="-404.839" x2="-298.57" y2="-424.776" gradientUnits="userSpaceOnUse">
<stop stop-color="#A6DDED"/>
<stop offset="1" stop-color="#069CD3"/>
</linearGradient>
<clipPath id="clip0_2960_10413">
<rect width="161.709" height="48" fill="white" transform="translate(0.37207 0.5)"/>
</clipPath>
</defs>
</svg>
