<?xml version="1.0" encoding="UTF-8"?>
<svg width="385px" height="287px" viewBox="0 0 385 287" version="1.1" xmlns="http://www.w3.org/2000/svg" xmlns:xlink="http://www.w3.org/1999/xlink">
    <title>Sprite image</title>
    <defs>
        <circle id="path-1" cx="35" cy="35" r="35"></circle>
        <filter x="-18.6%" y="-12.9%" width="137.1%" height="137.1%" filterUnits="objectBoundingBox" id="filter-2">
            <feMorphology radius="0.5" operator="dilate" in="SourceAlpha" result="shadowSpreadOuter1"></feMorphology>
            <feOffset dx="0" dy="4" in="shadowSpreadOuter1" result="shadowOffsetOuter1"></feOffset>
            <feGaussianBlur stdDeviation="3.5" in="shadowOffsetOuter1" result="shadowBlurOuter1"></feGaussianBlur>
            <feComposite in="shadowBlurOuter1" in2="SourceAlpha" operator="out" result="shadowBlurOuter1"></feComposite>
            <feColorMatrix values="0 0 0 0 0.112357698   0 0 0 0 0.349305401   0 0 0 0 0.618149909  0 0 0 0.15 0" type="matrix" in="shadowBlurOuter1"></feColorMatrix>
        </filter>
        <circle id="path-3" cx="25.5" cy="25.5" r="25.5"></circle>
        <filter x="-19.6%" y="-15.7%" width="139.2%" height="139.2%" filterUnits="objectBoundingBox" id="filter-4">
            <feOffset dx="0" dy="2" in="SourceAlpha" result="shadowOffsetOuter1"></feOffset>
            <feGaussianBlur stdDeviation="3" in="shadowOffsetOuter1" result="shadowBlurOuter1"></feGaussianBlur>
            <feColorMatrix values="0 0 0 0 0   0 0 0 0 0   0 0 0 0 0  0 0 0 0.25 0" type="matrix" in="shadowBlurOuter1"></feColorMatrix>
        </filter>
    </defs>
    <g id="Sprite-image" stroke="none" stroke-width="1" fill="none" fill-rule="evenodd">
        <g id="Star-Copy-7" transform="translate(183.000000, 21.000000)" fill="#F4C150">
            <polygon id="Star-Copy-6" points="7 10.5 2.88550323 12.663119 3.67130219 8.08155948 0.342604386 4.83688104 4.94275162 4.16844052 7 0 9.05724838 4.16844052 13.6573956 4.83688104 10.3286978 8.08155948 11.1144968 12.663119"></polygon>
        </g>
        <g id="Shape-3" transform="translate(151.000000, 22.000000)" fill="#1179EF" fill-rule="nonzero">
            <path d="M6.0014625,0 C5.45008507,0 5.05992756,0.226363665 4.78051497,0.451061759 C4.50111004,0.675759853 4.30042874,0.879846076 3.93896252,1.02953383 C3.57749629,1.17922156 3.29350873,1.17322268 2.93701121,1.21186236 C2.58051369,1.25050205 2.14769632,1.36759361 1.75781248,1.75738356 C1.36794001,2.14717379 1.25154,2.58281513 1.21288875,2.93922393 C1.1742375,3.29563245 1.17658875,3.57955155 1.026855,3.94093253 C0.877128754,4.30231053 0.672993756,4.5029369 0.448241246,4.78227973 C0.22348875,5.06162242 0,5.44875412 0,6 C0,6.55124591 0.22348875,6.94130664 0.448241246,7.22064947 C0.672993756,7.5 0.877128754,7.69768949 1.026855,8.05906778 C1.1765775,8.42044592 1.17424125,8.70729476 1.21288875,9.06370513 C1.25154,9.42011606 1.36792875,9.85282723 1.75781248,10.2426165 C2.14769632,10.63241 2.58051001,10.7494992 2.93701121,10.788138 C3.29350873,10.8267775 3.57749998,10.8237092 3.93896252,10.9733953 C4.30043257,11.123083 4.50111004,11.3271693 4.78051497,11.5518674 C5.05992756,11.7765654 5.45008507,12 6.0014625,12 C6.55284375,12 6.94007251,11.7765654 7.21948127,11.5518674 C7.49889372,11.3271693 7.6995675,11.123083 8.06103372,10.9733953 C8.42249995,10.8237074 8.7064912,10.8267775 9.06298871,10.788138 C9.41948623,10.749498 9.85230006,10.6324066 10.2421876,10.2426165 C10.6320601,9.85282681 10.7491875,9.42011422 10.7878426,9.06370513 C10.8264938,8.70729661 10.82343,8.42044847 10.9731451,8.05906778 C11.1228675,7.69768978 11.3270025,7.5 11.5517587,7.22064947 C11.7765075,6.94130664 12,6.55124634 12,6 C12,5.44875369 11.7765113,5.06162242 11.5517587,4.78227973 C11.3270025,4.5029369 11.1228675,4.30231053 10.9731451,3.94093253 C10.8234188,3.57955425 10.82649,3.29563444 10.7878426,2.93922393 C10.7491913,2.58281314 10.6320713,2.14717322 10.2421876,1.75738356 C9.85230006,1.36759338 9.41948623,1.250502 9.06298871,1.21186236 C8.7064912,1.17322268 8.42249995,1.17922156 8.06103372,1.02953383 C7.6995675,0.879846119 7.49889372,0.675759811 7.21948127,0.451061759 C6.94007251,0.226363694 6.55284375,0 6.0014625,0 Z M8.23241995,4.10422283 C8.38677189,4.09937531 8.52831637,4.18961307 8.58903122,4.33157045 C8.64974607,4.47352783 8.6172174,4.63817994 8.50707756,4.74639975 L5.46459747,7.78813796 C5.39421006,7.85886825 5.29852783,7.89863451 5.19873002,7.89863451 C5.09893221,7.89863451 5.00324999,7.85886825 4.93286258,7.78813796 L3.49365002,6.34854793 C3.39597892,6.25423681 3.35692801,6.11450999 3.39155427,5.98324239 C3.42618052,5.85197479 3.52907477,5.74967252 3.66056375,5.71578059 C3.79205273,5.68188867 3.93159574,5.72170155 4.02538874,5.81986845 L5.19872995,6.99365402 L7.97534253,4.21772041 C8.04308226,4.14800656 8.13525252,4.10731434 8.23241995,4.1042234 L8.23241995,4.10422283 Z" id="Shape"></path>
        </g>
        <g id="Group-32-Copy" transform="translate(20.000000, 164.000000)">
            <g id="Group-56">
                <polygon id="Shape" points="0 0 38 0 38 38 0 38"></polygon>
                <polygon id="Shape-Copy" fill="#CEDBE9" points="30.568966 17.2691572 12.8021744 17.2691572 17.290891 12.7679023 15.5229887 11 8 18.5229887 15.5229887 26.0459773 17.290891 24.278075 12.8021744 19.7768201 30.568966 19.7768201"></polygon>
            </g>
            <g id="Group-60" transform="translate(178.000000, 0.000000)">
                <path d="M19,38 C29.4934102,38 38,29.4934102 38,19 C38,8.50658975 29.4934102,2.80664381e-13 19,2.80664381e-13 C8.50658975,2.80664381e-13 -3.55271368e-15,8.50658975 -3.55271368e-15,19 C-3.55271368e-15,29.4934102 8.50658975,38 19,38 Z" id="Oval" fill="#E2EDF9"></path>
                <polygon id="Shape" fill="#1179EF" transform="translate(19.284483, 18.522989) scale(-1, 1) translate(-19.284483, -18.522989) " points="30.568966 17.2691572 12.8021744 17.2691572 17.290891 12.7679023 15.5229887 11 8 18.5229887 15.5229887 26.0459773 17.290891 24.278075 12.8021744 19.7768201 30.568966 19.7768201"></polygon>
            </g>
            <g id="Group-62" transform="translate(58.000000, 17.000000)">
                <rect id="Rectangle" fill="#CEDBE9" x="0" y="0" width="100" height="5" rx="2.5"></rect>
                <rect id="Rectangle" fill="#1179EF" x="0" y="0" width="40" height="5" rx="2.5"></rect>
            </g>
        </g>
        <g id="Group-29-Copy" transform="translate(92.000000, 216.000000)">
            <rect id="Rectangle" fill="#D2D6DE" x="0" y="0" width="80" height="4" rx="2"></rect>
            <rect id="Rectangle" fill="#1179EF" x="0" y="0" width="36" height="4" rx="2"></rect>
        </g>
        <g id="Shape-2" transform="translate(84.000000, 22.000000)" fill="#848DA0" fill-rule="nonzero">
            <path d="M11.3242188,1.015625 L10.15625,1.015625 L10.15625,0.40625 C10.15625,0.181898437 9.97437695,0 9.75,0 C9.52562305,0 9.34375,0.181898437 9.34375,0.40625 L9.34375,1.015625 L3.65625,1.015625 L3.65625,0.40625 C3.65625,0.181898437 3.47437695,0 3.25,0 C3.02562305,0 2.84375,0.181898437 2.84375,0.40625 L2.84375,1.015625 L1.67578125,1.015625 C0.751740234,1.015625 0,1.76736523 0,2.69140625 L0,11.3242188 C0,12.2482598 0.751740234,13 1.67578125,13 L11.3242188,13 C12.2482598,13 13,12.2482598 13,11.3242188 L13,2.69140625 C13,1.76736523 12.2482598,1.015625 11.3242188,1.015625 Z M1.67578125,1.828125 L2.84375,1.828125 L2.84375,2.234375 C2.84375,2.45872656 3.02562305,2.640625 3.25,2.640625 C3.47437695,2.640625 3.65625,2.45872656 3.65625,2.234375 L3.65625,1.828125 L9.34375,1.828125 L9.34375,2.234375 C9.34375,2.45872656 9.52562305,2.640625 9.75,2.640625 C9.97437695,2.640625 10.15625,2.45872656 10.15625,2.234375 L10.15625,1.828125 L11.3242188,1.828125 C11.8002422,1.828125 12.1875,2.21538281 12.1875,2.69140625 L12.1875,3.65625 L0.8125,3.65625 L0.8125,2.69140625 C0.8125,2.21538281 1.19975781,1.828125 1.67578125,1.828125 Z M11.3242188,12.1875 L1.67578125,12.1875 C1.19975781,12.1875 0.8125,11.8002422 0.8125,11.3242188 L0.8125,4.46875 L12.1875,4.46875 L12.1875,11.3242188 C12.1875,11.8002422 11.8002422,12.1875 11.3242188,12.1875 Z" id="Shape"></path>
        </g>
        <g id="Group-26" transform="translate(117.000000, 21.000000)" fill="#848DA0" fill-rule="nonzero">
            <path d="M6.9,8.8817842e-16 C3.08923523,8.8817842e-16 1.16351373e-13,3.08923523 1.16351373e-13,6.9 C1.16351373e-13,10.7107648 3.08923523,13.8 6.9,13.8 C10.7107648,13.8 13.8,10.7107648 13.8,6.9 C13.8,3.08923523 10.7107648,8.8817842e-16 6.9,8.8817842e-16 Z M6.9,0.8 C10.268937,0.8 13,3.53106303 13,6.9 C13,10.268937 10.268937,13 6.9,13 C3.53106303,13 0.8,10.268937 0.8,6.9 C0.8,3.53106303 3.53106303,0.8 6.9,0.8 Z" id="Oval"></path>
            <polygon id="Path-11" points="6.8 2.4 6.8 7 10.4 7 10.4 7.8 6 7.8 6 2.4"></polygon>
        </g>
        <g id="Group-23-Copy-4" transform="translate(50.000000, 21.000000)" fill="#848DA0" fill-rule="nonzero">
            <path d="M6.55681095,1 L4.31943905,1 C4.14302411,1 4,1.19652941 4,1.43894118 L4,13.1432745 C4,13.3856863 4.14302411,13.5822157 4.31943905,13.5822157 L6.55681095,13.5822157 C6.73322589,13.5822157 6.87625,13.3856863 6.87625,13.1432745 L6.87625,1.43894118 C6.8760645,1.19627451 6.73322589,1 6.55681095,1 Z M4.6388781,4.45086275 L6.2388781,4.45086275 L6.2388781,9.85376471 L4.6388781,9.85376471 L4.6388781,4.45086275 Z M6.2388781,1.87762745 L6.2388781,3.71929412 L4.6388781,3.71929412 L4.6388781,1.87762745 L6.2388781,1.87762745 L6.2388781,1.87762745 Z M4.6388781,12.7040784 L4.6388781,10.5853333 L6.2388781,10.5853333 L6.2388781,12.7040784 L4.6388781,12.7040784 Z" id="Shape"></path>
            <path d="M11.5568109,1 L9.31943905,1 C9.14302411,1 9,1.19652941 9,1.43894118 L9,13.1432745 C9,13.3856863 9.14302411,13.5822157 9.31943905,13.5822157 L11.5568109,13.5822157 C11.7332259,13.5822157 11.87625,13.3856863 11.87625,13.1432745 L11.87625,1.43894118 C11.8760645,1.19627451 11.7332259,1 11.5568109,1 Z M9.6388781,4.45086275 L11.2388781,4.45086275 L11.2388781,9.85376471 L9.6388781,9.85376471 L9.6388781,4.45086275 Z M11.2388781,1.87762745 L11.2388781,3.71929412 L9.6388781,3.71929412 L9.6388781,1.87762745 L11.2388781,1.87762745 L11.2388781,1.87762745 Z M9.6388781,12.7040784 L9.6388781,10.5853333 L11.2388781,10.5853333 L11.2388781,12.7040784 L9.6388781,12.7040784 Z" id="Shape-Copy-4" transform="translate(10.438125, 7.291108) rotate(-17.000000) translate(-10.438125, -7.291108) "></path>
            <path d="M2.55681095,1 L0.319439052,1 C0.143024105,1 2.27373675e-13,1.19652941 2.27373675e-13,1.43894118 L2.27373675e-13,13.1432745 C2.27373675e-13,13.3856863 0.143024105,13.5822157 0.319439052,13.5822157 L2.55681095,13.5822157 C2.73322589,13.5822157 2.87625,13.3856863 2.87625,13.1432745 L2.87625,1.43894118 C2.8760645,1.19627451 2.73322589,1 2.55681095,1 Z M0.638878104,4.45086275 L2.2388781,4.45086275 L2.2388781,9.85376471 L0.638878104,9.85376471 L0.638878104,4.45086275 Z M2.2388781,1.87762745 L2.2388781,3.71929412 L0.638878104,3.71929412 L0.638878104,1.87762745 L2.2388781,1.87762745 L2.2388781,1.87762745 Z M0.638878104,12.7040784 L0.638878104,10.5853333 L2.2388781,10.5853333 L2.2388781,12.7040784 L0.638878104,12.7040784 Z" id="Shape-Copy-3"></path>
        </g>
        <g id="Path-3-Copy-5" transform="translate(20.000000, 25.000000)" stroke="#1179EF" stroke-linecap="round" stroke-width="1.2">
            <polyline id="Path-3-Copy-4" points="0 3.26690271 3.47811745 7 10 0"></polyline>
        </g>
        <g id="Group-22-Copy-5" transform="translate(115.000000, 55.000000)">
            <g id="Oval" opacity="0.98999995">
                <use fill="black" fill-opacity="1" filter="url(#filter-2)" xlink:href="#path-1"></use>
                <use stroke="#FFFFFF" stroke-width="1" fill="#FFFFFF" fill-rule="evenodd" xlink:href="#path-1"></use>
            </g>
            <g id="Group-10" transform="translate(9.000000, 9.000000)" fill-rule="nonzero">
                <g id="Group-48" transform="translate(0.149414, 0.061942)" fill="#51565E">
                    <path d="M3.31933304,32.3646472 C3.31933304,32.3646472 3.50515876,32.1168796 3.72195544,31.7452281 C3.81486831,31.5594024 3.93875212,31.3426057 4.03166499,31.0948381 C4.12457785,30.8470704 4.21749071,30.5683318 4.24846167,30.2895933 C4.27943262,30.1347385 4.27943262,30.0108547 4.27943262,29.8869709 C4.27943262,29.763087 4.27943262,29.6082323 4.27943262,29.4843484 C4.24846167,29.2365808 4.21749071,28.9888132 4.1555488,28.8029875 C4.09360689,28.6171617 4.06263594,28.431336 4.03166499,28.3074522 C4.00069403,28.1835684 3.96972308,28.1216265 3.96972308,28.1216265 C3.96972308,28.1216265 3.72195544,28.3074522 3.47418781,28.6481327 C3.44321685,28.6791036 3.4122459,28.7410455 3.38127495,28.7720165 C3.35030399,28.8339584 3.31933304,28.8649294 3.28836208,28.9268713 C3.22642018,29.0197841 3.16447827,29.1436679 3.10253636,29.2675518 C2.97865254,29.5153194 2.88573968,29.794058 2.85476872,30.1037675 L3.31933304,32.3646472 Z" id="Path"></path>
                    <path d="M3.0715654,32.4265891 C3.0715654,32.4265891 2.668943,32.2717343 2.11146582,31.9000829 C1.98758201,31.80717 1.83272723,31.7142572 1.67787246,31.5903733 C1.52301769,31.4664895 1.39913387,31.3426057 1.2442791,31.1877509 C1.08942433,31.0328962 0.965540515,30.8780414 0.841656698,30.6922157 C0.779714789,30.5993028 0.717772881,30.5063899 0.655830972,30.4134771 C0.593889064,30.3205642 0.531947155,30.1966804 0.500976201,30.1037675 C0.0673828415,29.2365808 -0.0255300212,28.3074522 0.00544093304,27.5951202 C0.0364118873,26.8827883 0.160295704,26.418224 0.160295704,26.418224 C0.160295704,26.418224 0.531947155,26.6969626 0.996511469,27.1615269 C1.2442791,27.4092945 1.46107578,27.6880331 1.73981437,27.9977426 C1.86369819,28.1525974 1.98758201,28.3384231 2.11146582,28.5242489 C2.23534964,28.7100746 2.3282625,28.8959003 2.42117536,29.112697 L3.0715654,32.4265891 Z" id="Path"></path>
                    <path d="M5.51827079,37.9703899 C5.51827079,37.9703899 5.54924174,37.908448 5.5802127,37.7845642 C5.64215461,37.6606804 5.70409652,37.4748546 5.73506747,37.2890289 C5.79700938,37.0722322 5.85895129,36.8244646 5.85895129,36.576697 C5.85895129,36.5147551 5.85895129,36.4528132 5.88992224,36.3908712 C5.88992224,36.3289293 5.88992224,36.2669874 5.88992224,36.1740746 C5.88992224,36.0192198 5.88992224,35.895336 5.88992224,35.7404812 C5.82798033,35.183004 5.64215461,34.6564978 5.42535793,34.3158173 C5.39438697,34.2848464 5.36341602,34.2229044 5.36341602,34.1919335 C5.33244506,34.1609625 5.33244506,34.0990206 5.30147411,34.0680497 C5.27050316,34.0061078 5.20856125,33.9441659 5.17759029,33.8822239 C5.11564838,33.7893111 5.05370648,33.7273692 5.05370648,33.7273692 C5.05370648,33.7273692 4.86788075,33.9751368 4.71302598,34.3777592 C4.62011312,34.5635849 4.55817121,34.8113526 4.4962293,35.0900912 C4.46525835,35.213975 4.46525835,35.3688298 4.43428739,35.4927136 C4.43428739,35.6475683 4.43428739,35.8024231 4.43428739,35.9263069 L5.51827079,37.9703899 Z" id="Path"></path>
                    <path d="M5.30147411,38.0942737 C5.30147411,38.0942737 5.27050316,38.0942737 5.20856125,38.0942737 C5.14661934,38.0942737 5.08467743,38.0633028 4.99176457,38.0633028 C4.80593884,38.0323318 4.52720025,37.9703899 4.21749071,37.8465061 C3.59807163,37.6297094 2.82379777,37.1961161 2.17340773,36.4837841 C2.01855296,36.2979584 1.89466914,36.1121327 1.77078533,35.895336 C1.70884342,35.8024231 1.64690151,35.7095103 1.5849596,35.5856264 C1.52301769,35.4927136 1.49204674,35.3688298 1.43010483,35.2759169 C1.33719197,35.0900912 1.27525006,34.8732945 1.21330815,34.6874688 C1.15136624,34.501643 1.08942433,34.3158173 1.05845338,34.1299916 C0.996511469,33.7893111 0.934569561,33.4796015 0.934569561,33.2937758 C0.934569561,33.200863 0.934569561,33.1079501 0.903598606,33.0460082 C0.903598606,32.9840663 0.903598606,32.9530953 0.903598606,32.9530953 C0.903598606,32.9530953 0.934569561,32.9530953 0.965540515,32.9840663 C1.02748242,33.0150372 1.08942433,33.0460082 1.18233719,33.0769791 C1.36816292,33.169892 1.61593055,33.2937758 1.89466914,33.4796015 C2.17340773,33.6654273 2.48311727,33.8822239 2.82379777,34.1299916 C2.97865254,34.2538754 3.13350731,34.4087302 3.28836208,34.532614 C3.35030399,34.5945559 3.44321685,34.6874688 3.50515876,34.7803816 C3.56710067,34.8732945 3.66001353,34.9352364 3.72195544,35.0281493 L5.30147411,38.0942737 Z" id="Path"></path>
                    <path d="M9.07993053,42.8328297 C9.07993053,42.8328297 9.07993053,42.7708878 9.11090148,42.616033 C9.11090148,42.4921492 9.14187244,42.3063235 9.14187244,42.0895268 C9.14187244,41.8727301 9.14187244,41.6249625 9.11090148,41.3462239 C9.07993053,41.2223401 9.07993053,41.0674853 9.04895957,40.9436015 C9.01798862,40.8197177 8.98701767,40.6648629 8.92507576,40.5409791 C8.83216289,40.2622405 8.67730812,40.0454438 8.55342431,39.8286472 C8.42954049,39.6118505 8.27468572,39.4260248 8.11983095,39.27117 C7.96497618,39.1163152 7.84109236,38.9924314 7.7481795,38.9304895 C7.65526663,38.8375766 7.59332472,38.8066057 7.59332472,38.8066057 C7.59332472,38.8066057 7.56235377,38.8685476 7.53138282,38.9924314 C7.50041186,39.1163152 7.43846995,39.3021409 7.407499,39.5189376 C7.37652804,39.7357343 7.37652804,39.9835019 7.37652804,40.2622405 C7.37652804,40.3861243 7.407499,40.5409791 7.43846995,40.6958339 C7.46944091,40.8506887 7.50041186,40.9745725 7.56235377,41.1294272 L9.07993053,42.8328297 Z" id="Path"></path>
                    <path d="M8.8941048,43.0186555 C8.8941048,43.0186555 8.77022099,43.0496264 8.58439526,43.0496264 C8.4914824,43.0496264 8.36759858,43.0496264 8.24371476,43.0496264 C8.11983095,43.0496264 7.96497618,43.0496264 7.8101214,43.0186555 C7.50041186,42.9876845 7.09778946,42.9257426 6.69516705,42.8018588 C6.29254465,42.677975 5.88992224,42.4611783 5.48729984,42.2134106 C5.08467743,41.9346721 4.77496789,41.5939916 4.46525835,41.2533111 C4.18651976,40.9126306 3.96972308,40.5409791 3.81486831,40.2312696 C3.66001353,39.92156 3.56710067,39.6428214 3.47418781,39.4260248 C3.4122459,39.240199 3.38127495,39.1163152 3.38127495,39.1163152 C3.38127495,39.1163152 3.84583926,39.1782571 4.46525835,39.3640829 C4.62011312,39.4260248 4.77496789,39.4569957 4.96079361,39.5499086 C5.14661934,39.6118505 5.33244506,39.6737924 5.51827079,39.7667053 C5.70409652,39.8596181 5.88992224,39.952531 6.07574797,40.0454438 C6.26157369,40.1383567 6.44739942,40.2622405 6.63322514,40.3861243 L8.8941048,43.0186555 Z" id="Path"></path>
                    <path d="M13.7255737,46.6732281 C13.7255737,46.6732281 13.6946027,46.3635185 13.6016898,45.9608961 C13.5397479,45.7440994 13.477806,45.4963318 13.3848932,45.2485642 C13.2919803,45.0007965 13.1680965,44.7530289 12.9822708,44.5052613 C12.827416,44.2574936 12.6415903,44.0716679 12.4557645,43.8858422 C12.3938226,43.8548712 12.3628517,43.7929293 12.3009098,43.7619584 C12.2389679,43.7309874 12.2079969,43.6690455 12.177026,43.6380745 C12.0841131,43.5761326 11.9912002,43.5141907 11.8982874,43.4522488 C11.7124616,43.328365 11.5576069,43.2664231 11.464694,43.2044812 C11.3408102,43.1425393 11.2788683,43.1115683 11.2788683,43.1115683 C11.2788683,43.1115683 11.2788683,43.1425393 11.2788683,43.1735102 C11.2788683,43.2044812 11.2788683,43.2664231 11.2788683,43.328365 C11.2788683,43.4522488 11.2788683,43.6380745 11.3098392,43.8548712 C11.3408102,44.0716679 11.3717811,44.3194355 11.464694,44.5672032 C11.495665,44.691087 11.5576069,44.8149708 11.6195488,44.9698256 C11.6814907,45.0937094 11.7434326,45.2175932 11.8363455,45.341477 L13.7255737,46.6732281 Z" id="Path"></path>
                    <path d="M13.6016898,46.9209957 C13.6016898,46.9209957 13.508777,46.9519666 13.3229513,47.0139086 C13.1371255,47.0758505 12.8583869,47.1377924 12.5486774,47.1997343 C12.2389679,47.2616762 11.8363455,47.2616762 11.4337231,47.2616762 C11.3408102,47.2616762 11.2169264,47.2616762 11.1240135,47.2307052 C11.0311006,47.2307052 10.9072168,47.1997343 10.783333,47.1687633 C10.5665363,47.1068214 10.3497397,47.0448795 10.101972,46.9829376 C9.9780882,46.9519666 9.88517534,46.8900247 9.76129152,46.8590538 C9.66837866,46.7971119 9.54449484,46.7661409 9.45158198,46.704199 C9.26575625,46.5803152 9.04895957,46.4564314 8.8941048,46.3325476 C8.70827908,46.2086637 8.55342431,46.053809 8.39856953,45.9299252 C8.24371476,45.8060413 8.11983095,45.6511866 7.99594713,45.5273027 C7.7481795,45.2795351 7.59332472,45.0317675 7.46944091,44.8459418 C7.34555709,44.660116 7.28361518,44.5672032 7.28361518,44.5672032 C7.28361518,44.5672032 7.7481795,44.5052613 8.39856953,44.5362322 C8.73925003,44.5362322 9.11090148,44.5672032 9.51352389,44.660116 C9.91614629,44.7220579 10.3497397,44.8149708 10.7523621,45.0007965 L13.6016898,46.9209957 Z" id="Path"></path>
                    <path d="M19.1454907,49.2438173 C19.1454907,49.2438173 19.0525778,48.9341077 18.8357811,48.5624563 C18.6189844,48.1908048 18.3402458,47.6952695 17.8756815,47.3236181 C17.7517977,47.2307052 17.6588849,47.1377924 17.535001,47.0758505 C17.4111172,47.0139086 17.3182044,46.9209957 17.1943205,46.8590538 C17.0704367,46.7971119 16.9775239,46.7661409 16.85364,46.704199 C16.7297562,46.6732281 16.6368434,46.6112861 16.5439305,46.5803152 C16.1722791,46.4564314 15.8625695,46.3944895 15.8625695,46.3944895 C15.8625695,46.3944895 15.8935405,46.704199 16.0483952,47.1068214 C16.1103371,47.2926471 16.234221,47.5404148 16.3581048,47.7572115 C16.5129595,47.9740081 16.6987853,48.2217758 16.915582,48.4076015 L19.1454907,49.2438173 Z" id="Path"></path>
                    <path d="M19.0835488,49.4915849 C19.0835488,49.4915849 18.7428683,49.7703235 18.1234492,50.0490621 C18.0615073,50.080033 17.9685944,50.111004 17.8756815,50.1419749 C17.7827687,50.1729459 17.7208268,50.2039168 17.6279139,50.2348878 C17.4420882,50.2968297 17.2562625,50.3278007 17.0394658,50.3897426 C16.8226691,50.4207135 16.6058724,50.4516845 16.3890757,50.4826554 C16.1722791,50.4826554 15.9245114,50.4826554 15.6767438,50.4516845 C15.4289761,50.4207135 15.2121795,50.3897426 14.9644118,50.3278007 C14.7476152,50.2658587 14.5308185,50.1729459 14.3140218,50.111004 C14.0972251,50.0180911 13.9113994,49.9251783 13.7565446,49.8322654 C13.5707189,49.7393525 13.4158641,49.6154687 13.2610094,49.5225558 C12.9822708,49.3367301 12.7345031,49.1509044 12.5796484,48.9960496 C12.4247936,48.8411949 12.3318807,48.748282 12.3318807,48.748282 C12.3318807,48.748282 12.4557645,48.717311 12.6415903,48.6553691 C12.827416,48.5934272 13.1061546,48.5314853 13.4158641,48.4695434 C13.7565446,48.4076015 14.1281961,48.3456596 14.5308185,48.3146886 C14.9334409,48.2837177 15.3670342,48.2527467 15.8315986,48.3146886 L19.0835488,49.4915849 Z" id="Path"></path>
                    <path d="M19.3932583,3.28292115 C19.3932583,3.28292115 19.4552002,3.3138921 19.579084,3.40680497 C19.6410259,3.43777592 19.7029678,3.46874688 19.7958807,3.53068878 C19.8887936,3.56165974 19.9507355,3.62360165 20.0746193,3.68554356 C20.260445,3.77845642 20.5082126,3.87136928 20.7559803,3.96428214 C20.8798641,3.9952531 21.0037479,4.02622405 21.1586027,4.05719501 C21.2824865,4.08816596 21.4373413,4.11913692 21.592196,4.11913692 C21.8709346,4.15010787 22.1496732,4.11913692 22.3974409,4.08816596 C22.6452085,4.05719501 22.8929761,3.9952531 23.0788018,3.93331119 C23.2646276,3.87136928 23.4194823,3.80942737 23.5433662,3.74748546 C23.66725,3.68554356 23.7291919,3.6545726 23.7291919,3.6545726 C23.7291919,3.6545726 23.66725,3.59263069 23.5743371,3.49971783 C23.4814243,3.40680497 23.3265695,3.28292115 23.1717147,3.19000829 C22.985889,3.06612447 22.7690923,2.94224065 22.5213247,2.84932779 C22.3974409,2.78738588 22.273557,2.75641493 22.1187023,2.72544397 C21.9638475,2.69447302 21.8399637,2.66350207 21.6851089,2.66350207 L19.3932583,3.28292115 Z" id="Path"></path>
                    <path d="M19.3932583,3.37583401 C19.3932583,3.37583401 19.4242292,3.2519502 19.4861712,3.09709542 C19.5481131,2.9112697 19.6719969,2.66350207 19.8268517,2.38476348 C19.9817064,2.10602489 20.2294741,1.79631535 20.5082126,1.4866058 C20.7869512,1.17689626 21.1586027,0.898157673 21.5612251,0.650390039 C21.9948185,0.433593359 22.4284118,0.247767634 22.8620052,0.154854771 C23.2955985,0.0619419085 23.6982209,0.0309709542 24.0389014,1.71295928e-13 C24.3795819,1.71295928e-13 24.6892915,0.0309709542 24.9060881,0.0309709542 C25.1228848,0.0619419085 25.2467686,0.0619419085 25.2467686,0.0619419085 C25.2467686,0.0619419085 24.999001,0.464564314 24.5344367,0.929128627 C24.31764,1.17689626 24.0389014,1.45563485 23.7291919,1.70340248 C23.5743371,1.8272863 23.3885114,2.01311203 22.985889,2.29185061 L19.3932583,3.37583401 Z" id="Path"></path>
                    <path d="M13.7565446,6.10127799 C13.7565446,6.10127799 13.8184865,6.13224894 13.9423703,6.1632199 C14.0662542,6.19419085 14.2520799,6.25613276 14.4688766,6.28710371 C14.6856732,6.31807467 14.9334409,6.38001658 15.1812085,6.38001658 C15.4599471,6.41098753 15.7077147,6.38001658 16.0174243,6.34904562 C16.2961629,6.31807467 16.5749015,6.2251618 16.7916981,6.10127799 C17.0394658,6.00836512 17.2252915,5.88448131 17.4111172,5.79156844 C17.5969429,5.69865558 17.7208268,5.57477176 17.8137396,5.51282986 C17.9066525,5.45088795 17.9685944,5.38894604 17.9685944,5.38894604 C17.9685944,5.38894604 17.9066525,5.35797509 17.7827687,5.29603318 C17.6588849,5.23409127 17.5040301,5.17214936 17.2872334,5.0792365 C17.0704367,5.01729459 16.85364,4.95535268 16.5749015,4.92438173 C16.4510176,4.89341077 16.2961629,4.89341077 16.1413081,4.89341077 C15.9864533,4.89341077 15.8625695,4.92438173 15.7077147,4.92438173 L13.7565446,6.10127799 Z" id="Path"></path>
                    <path d="M13.6016898,5.88448131 C13.6016898,5.88448131 13.6016898,5.76059749 13.6326608,5.57477176 C13.6636318,5.38894604 13.6946027,5.11020745 13.7875156,4.80049791 C13.8804284,4.49078837 14.0043123,4.11913692 14.2211089,3.74748546 C14.4069347,3.37583401 14.6856732,3.00418256 15.0263537,2.66350207 C15.0573247,2.63253111 15.1192666,2.5705892 15.1502376,2.53961825 C15.1812085,2.50864729 15.2431504,2.47767634 15.2741214,2.41573443 C15.3670342,2.35379252 15.4599471,2.26087966 15.55286,2.19893775 C15.7386857,2.07505393 15.9245114,1.95117012 16.1413081,1.8272863 C16.5439305,1.61048962 16.915582,1.4866058 17.2562625,1.39369294 C17.4111172,1.33175103 17.5969429,1.30078008 17.7208268,1.26980912 C17.8756815,1.23883817 17.9995654,1.20786722 18.0924782,1.20786722 C18.3092749,1.17689626 18.4331587,1.17689626 18.4331587,1.17689626 C18.4331587,1.17689626 18.2783039,1.61048962 17.9685944,2.19893775 C17.9376234,2.26087966 17.8756815,2.35379252 17.8447106,2.41573443 C17.8137396,2.50864729 17.7517977,2.5705892 17.7208268,2.66350207 C17.6279139,2.81835684 17.5040301,3.00418256 17.4111172,3.15903733 C17.2872334,3.3138921 17.1633496,3.49971783 17.0394658,3.6545726 C16.915582,3.80942737 16.7607272,3.9952531 16.6058724,4.15010787 L13.6016898,5.88448131 Z" id="Path"></path>
                    <path d="M9.11090148,9.94167631 C9.11090148,9.94167631 9.42061102,9.97264727 9.85420438,9.94167631 C9.94711725,9.94167631 10.0710011,9.91070536 10.1948849,9.91070536 C10.3187687,9.91070536 10.4426525,9.87973441 10.5665363,9.84876345 C10.814304,9.78682154 11.0930426,9.72487963 11.3717811,9.60099582 C11.8982874,9.38419914 12.3009098,9.01254769 12.5796484,8.7338091 C12.8583869,8.45507051 13.0132417,8.17633192 13.0132417,8.17633192 C13.0132417,8.17633192 12.7345031,8.08341906 12.3009098,8.0524481 C12.0841131,8.02147715 11.8363455,8.02147715 11.5576069,8.0524481 C11.2788683,8.08341906 11.0001297,8.17633192 10.7213911,8.26924478 L9.11090148,9.94167631 Z" id="Path"></path>
                    <path d="M8.8941048,9.75585059 C8.8941048,9.75585059 8.80119194,9.32225723 8.80119194,8.67186719 C8.80119194,8.33118669 8.86313385,7.95953524 8.95604671,7.55691284 C9.04895957,7.15429043 9.2347853,6.72069707 9.48255293,6.31807467 C9.73032057,5.88448131 10.0400301,5.54380081 10.3807106,5.26506222 C10.4736235,5.20312031 10.5355654,5.11020745 10.6284782,5.04826554 C10.7213911,4.98632363 10.783333,4.92438173 10.8762459,4.86243982 C11.0311006,4.738556 11.1859554,4.64564314 11.3408102,4.55273027 C11.495665,4.45981741 11.6195488,4.36690455 11.7744035,4.30496264 C11.8982874,4.24302073 12.0221712,4.18107882 12.115084,4.15010787 C12.3009098,4.05719501 12.4247936,4.02622405 12.4247936,4.02622405 C12.4247936,4.02622405 12.4247936,4.15010787 12.3938226,4.33593359 C12.3628517,4.52175932 12.3009098,4.80049791 12.2389679,5.14117841 C12.177026,5.4818589 12.0531421,5.85351035 11.9292583,6.2251618 C11.8982874,6.31807467 11.8673164,6.41098753 11.8053745,6.50390039 C11.7744035,6.59681326 11.7124616,6.68972612 11.6814907,6.81360993 C11.5885778,6.99943566 11.495665,7.21623234 11.3717811,7.40205807 L8.8941048,9.75585059 Z" id="Path"></path>
                    <path d="M5.54924174,14.8041161 C5.54924174,14.8041161 5.85895129,14.7731452 6.26157369,14.6492614 C6.47837037,14.5873195 6.69516705,14.4944066 6.94293468,14.3705228 C7.19070232,14.246639 7.43846995,14.1227551 7.65526663,13.9369294 C7.87206331,13.7511037 8.08885999,13.565278 8.24371476,13.3484813 C8.33662763,13.2555684 8.39856953,13.1626556 8.46051144,13.0387717 C8.52245335,12.9458589 8.58439526,12.852946 8.64633717,12.7600332 C8.86313385,12.4193527 8.95604671,12.1406141 8.95604671,12.1406141 C8.95604671,12.1406141 8.64633717,12.1096431 8.24371476,12.202556 C7.8101214,12.2644979 7.28361518,12.4503236 6.78807991,12.8219751 L5.54924174,14.8041161 Z" id="Path"></path>
                    <path d="M5.30147411,14.6802323 C5.30147411,14.6802323 5.08467743,14.2776099 4.96079361,13.6272199 C4.92982266,13.4723651 4.8988517,13.2865394 4.86788075,13.1007136 C4.8369098,12.9148879 4.8369098,12.7290622 4.8369098,12.5122655 C4.8369098,12.2954688 4.8369098,12.0786722 4.86788075,11.8618755 C4.8988517,11.6450788 4.96079361,11.3973112 5.02273552,11.1805145 C5.08467743,10.9637178 5.17759029,10.7159502 5.27050316,10.5301244 C5.36341602,10.3133278 5.48729984,10.127502 5.61118365,9.94167631 C5.73506747,9.75585059 5.85895129,9.60099582 5.9828351,9.41517009 C6.10671892,9.26031532 6.23060274,9.1364315 6.38545751,9.01254769 C6.63322514,8.76478005 6.85002182,8.57895433 7.03584755,8.45507051 C7.19070232,8.33118669 7.31458614,8.26924478 7.31458614,8.26924478 C7.31458614,8.26924478 7.34555709,8.3931286 7.34555709,8.57895433 C7.34555709,8.67186719 7.37652804,8.79575101 7.37652804,8.91963482 C7.37652804,9.04351864 7.407499,9.19837341 7.407499,9.38419914 C7.407499,9.72487963 7.407499,10.0965311 7.34555709,10.4991535 C7.31458614,10.9017759 7.22167327,11.3353693 7.09778946,11.7689626 L5.30147411,14.6802323 Z" id="Path"></path>
                    <path d="M3.31933304,20.4098589 C3.31933304,20.4098589 3.59807163,20.285975 3.96972308,20.0691784 C4.1555488,19.9452945 4.37234548,19.8214107 4.55817121,19.635585 C4.74399693,19.4497593 4.96079361,19.2639335 5.14661934,19.0471369 C5.2395322,18.923253 5.30147411,18.7993692 5.36341602,18.7064564 C5.42535793,18.5825725 5.48729984,18.4586887 5.54924174,18.3657759 C5.64215461,18.1489792 5.73506747,17.9012116 5.76603842,17.7153858 C5.82798033,17.5295601 5.85895129,17.3437344 5.88992224,17.2198506 C5.92089319,17.0959667 5.92089319,17.0340248 5.92089319,17.0340248 C5.92089319,17.0340248 5.61118365,17.0959667 5.2395322,17.2508215 C5.02273552,17.3437344 4.8369098,17.4676182 4.62011312,17.622473 C4.40331644,17.7773277 4.18651976,17.9631535 4.00069403,18.2109211 L3.31933304,20.4098589 Z" id="Path"></path>
                    <path d="M3.0715654,20.3479169 C3.0715654,20.3479169 3.04059445,20.316946 3.0096235,20.285975 C2.97865254,20.2550041 2.91671063,20.1930622 2.88573968,20.1001493 C2.76185586,19.9452945 2.63797204,19.7284979 2.48311727,19.4187883 C2.3282625,19.1400497 2.17340773,18.7683983 2.08049487,18.3657759 C2.01855296,18.1489792 1.98758201,17.9631535 1.95661105,17.7153858 C1.95661105,17.591502 1.9256401,17.4985892 1.9256401,17.3747053 C1.9256401,17.2508215 1.9256401,17.1269377 1.9256401,17.0340248 C1.95661105,16.0739253 2.3282625,15.1757676 2.69991395,14.5873195 C2.88573968,14.2776099 3.0715654,14.0298423 3.19544922,13.8749875 C3.25739113,13.7820746 3.31933304,13.7201327 3.35030399,13.6891618 C3.38127495,13.6581908 3.4122459,13.6272199 3.4122459,13.6272199 C3.4122459,13.6272199 3.4122459,13.6581908 3.44321685,13.6891618 C3.47418781,13.7511037 3.50515876,13.8130456 3.53612972,13.9059585 C3.59807163,14.0917842 3.69098449,14.3705228 3.78389735,14.6802323 C3.93875212,15.3306224 4.12457785,16.1668381 4.09360689,17.0649958 L3.0715654,20.3479169 Z" id="Path"></path>
                    <path d="M2.57603014,26.387253 C2.57603014,26.387253 2.82379777,26.2014273 3.13350731,25.8917178 C3.28836208,25.736863 3.44321685,25.5510373 3.59807163,25.3342406 C3.7529264,25.1174439 3.90778117,24.8696763 4.00069403,24.6219086 C4.21749071,24.0954024 4.27943262,23.5688962 4.27943262,23.1353028 C4.27943262,22.9185061 4.27943262,22.7636514 4.24846167,22.6397676 C4.24846167,22.5158837 4.21749071,22.4539418 4.21749071,22.4539418 C4.21749071,22.4539418 3.93875212,22.5778256 3.59807163,22.8565642 C3.44321685,22.9804481 3.25739113,23.1662738 3.0715654,23.3830705 C2.97865254,23.4759833 2.91671063,23.5998671 2.82379777,23.723751 C2.76185586,23.8476348 2.668943,23.9715186 2.60700109,24.1263734 L2.57603014,26.387253 Z" id="Path"></path>
                    <path d="M2.29729155,26.387253 C2.29729155,26.387253 1.9256401,26.1394854 1.49204674,25.6439501 C1.27525006,25.3961825 1.02748242,25.0864729 0.841656698,24.7148215 C0.748743835,24.5289958 0.655830972,24.34317 0.56291811,24.1263734 C0.470005247,23.9095767 0.408063338,23.69278 0.34612143,23.4450124 C0.284179521,23.1972447 0.284179521,22.9804481 0.253208567,22.7326804 C0.253208567,22.5158837 0.222237613,22.2681161 0.253208567,22.0513194 C0.284179521,21.6177261 0.377092384,21.2151037 0.470005247,20.8744232 C0.686801927,20.1930622 0.903598606,19.7594688 0.903598606,19.7594688 C0.903598606,19.7594688 1.21330815,20.1311203 1.52301769,20.6885974 C1.61593055,20.8434522 1.67787246,20.998307 1.77078533,21.1531618 C1.86369819,21.3080165 1.95661105,21.4938422 2.01855296,21.679668 C2.11146582,21.8654937 2.17340773,22.0513194 2.23534964,22.2681161 C2.26632059,22.361029 2.29729155,22.4849128 2.3282625,22.5778256 C2.35923346,22.6707385 2.39020441,22.7946223 2.42117536,22.9185061 L2.29729155,26.387253 Z" id="Path"></path>
                    <path d="M25.5564782,54.1062571 C25.4635653,54.1062571 25.4016234,54.0752861 25.3396815,53.9823733 C23.8221048,51.4117841 21.4683122,50.2968297 19.7649097,49.8012944 C9.42061102,46.7971119 2.17340773,37.1651451 2.17340773,26.3562821 C2.17340773,20.7505393 4.12457785,15.2996514 7.65526663,10.9637178 C11.1240135,6.68972612 15.9864533,3.68554356 21.3444284,2.53961825 C21.4683122,2.50864729 21.623167,2.60156016 21.623167,2.72544397 C21.654138,2.84932779 21.5612251,3.00418256 21.4373413,3.00418256 C10.5665363,5.38894604 2.668943,15.2067385 2.668943,26.3562821 C2.668943,36.9173775 9.76129152,46.3635185 19.8887936,49.3057592 C22.4593828,50.0490621 24.5034657,51.5666388 25.7423039,53.7036347 C25.8042458,53.8275185 25.7732749,53.9823733 25.6493911,54.0443152 C25.6493911,54.1062571 25.5874491,54.1062571 25.5564782,54.1062571 Z" id="Path"></path>
                </g>
                <g id="Group" transform="translate(9.291286, 8.973167)">
                    <rect id="Rectangle" fill="#D0D2D3" x="0" y="18.4980691" width="34.0990206" height="1"></rect>
                    <g transform="translate(0.000000, 13.016210)" fill="#212120">
                        <polygon id="Path" points="3.15903733 4.15010787 3.15903733 1.64146058 2.07505393 3.28292115 2.04408298 3.28292115 0.960099582 1.64146058 0.960099582 4.15010787 0.123883817 4.15010787 0.123883817 0.278738588 1.05301244 0.278738588 2.07505393 1.92019916 3.09709542 0.278738588 4.02622405 0.278738588 4.02622405 4.15010787"></polygon>
                        <path d="M8.95060578,4.15010787 L8.60992528,3.28292115 L6.96846471,3.28292115 L6.62778421,4.15010787 L5.76059749,4.15010787 L7.40205807,0.247767634 L8.17633192,0.247767634 L9.8177925,4.15010787 L8.95060578,4.15010787 Z M7.77370952,1.26980912 L7.24720329,2.50864729 L8.26924478,2.50864729 L7.77370952,1.26980912 Z" id="Shape"></path>
                        <path d="M13.0078008,4.21204978 C12.4193527,4.21204978 11.8309045,3.9952531 11.3663402,3.59263069 L11.8618755,3.00418256 C12.202556,3.28292115 12.5742074,3.46874688 13.0078008,3.46874688 C13.3484813,3.46874688 13.565278,3.34486306 13.565278,3.09709542 L13.565278,3.09709542 C13.565278,2.88029875 13.4413941,2.75641493 12.7910041,2.60156016 C12.0167302,2.41573443 11.521195,2.19893775 11.521195,1.4246639 L11.521195,1.4246639 C11.521195,0.712331948 12.0786722,0.247767634 12.883917,0.247767634 C13.4413941,0.247767634 13.9369294,0.433593359 14.3085809,0.743302902 L13.8749875,1.39369294 C13.534307,1.14592531 13.1936265,1.02204149 12.883917,1.02204149 C12.5742074,1.02204149 12.3883817,1.17689626 12.3883817,1.36272199 L12.3883817,1.36272199 C12.3883817,1.61048962 12.5432365,1.70340248 13.2245975,1.85825725 C13.9988713,2.07505393 14.4634356,2.35379252 14.4634356,3.00418256 L14.4634356,3.00418256 C14.4324647,3.77845642 13.8440165,4.21204978 13.0078008,4.21204978 Z" id="Path"></path>
                        <polygon id="Path" points="18.0870373 1.05301244 18.0870373 4.15010787 17.2508215 4.15010787 17.2508215 1.05301244 16.0739253 1.05301244 16.0739253 0.278738588 19.2639335 0.278738588 19.2639335 1.05301244"></polygon>
                        <polygon id="Path" points="21.0292779 4.15010787 21.0292779 0.278738588 23.9405476 0.278738588 23.9405476 1.02204149 21.8654937 1.02204149 21.8654937 1.79631535 23.69278 1.79631535 23.69278 2.53961825 21.8654937 2.53961825 21.8654937 3.34486306 23.9715186 3.34486306 23.9715186 4.08816596 21.0292779 4.08816596"></polygon>
                        <path d="M28.3384231,4.15010787 L27.5022074,2.9112697 L26.8208464,2.9112697 L26.8208464,4.15010787 L25.9846306,4.15010787 L25.9846306,0.278738588 L27.749975,0.278738588 C28.6481327,0.278738588 29.2056099,0.774273856 29.2056099,1.54854771 L29.2056099,1.54854771 C29.2056099,2.1679668 28.8649294,2.5705892 28.3693941,2.75641493 L29.2985227,4.15010787 L28.3384231,4.15010787 Z M28.3384231,1.61048962 C28.3384231,1.23883817 28.0906555,1.05301244 27.6570621,1.05301244 L26.8208464,1.05301244 L26.8208464,2.1679668 L27.6880331,2.1679668 C28.1216265,2.1679668 28.3384231,1.95117012 28.3384231,1.61048962 L28.3384231,1.61048962 Z" id="Shape"></path>
                        <path d="M32.519502,4.21204978 C31.9310538,4.21204978 31.3426057,3.9952531 30.8780414,3.59263069 L31.3735767,3.00418256 C31.7142572,3.28292115 32.0859086,3.46874688 32.519502,3.46874688 C32.8601825,3.46874688 33.0769791,3.34486306 33.0769791,3.09709542 L33.0769791,3.09709542 C33.0769791,2.88029875 32.9530953,2.75641493 32.3027053,2.60156016 C31.5284314,2.41573443 31.0328962,2.19893775 31.0328962,1.4246639 L31.0328962,1.4246639 C31.0328962,0.712331948 31.5903733,0.247767634 32.3956181,0.247767634 C32.9530953,0.247767634 33.4486306,0.433593359 33.820282,0.743302902 L33.3866887,1.39369294 C33.0460082,1.14592531 32.7053277,1.02204149 32.3956181,1.02204149 C32.0549376,1.02204149 31.9000829,1.17689626 31.9000829,1.36272199 L31.9000829,1.36272199 C31.9000829,1.61048962 32.0549376,1.70340248 32.7362986,1.85825725 C33.5105725,2.07505393 33.9751368,2.35379252 33.9751368,3.00418256 L33.9751368,3.00418256 C33.9441659,3.77845642 33.3557177,4.21204978 32.519502,4.21204978 Z" id="Path"></path>
                    </g>
                    <g transform="translate(0.000000, 19.829820)" fill="#212120">
                        <path d="M1.61048962,2.9112697 L0.960099582,2.9112697 L0.960099582,4.05719501 L0.123883817,4.05719501 L0.123883817,0.185825725 L1.70340248,0.185825725 C2.63253111,0.185825725 3.19000829,0.743302902 3.19000829,1.51757676 L3.19000829,1.51757676 C3.19000829,2.44670539 2.47767634,2.9112697 1.61048962,2.9112697 Z M2.32282157,1.54854771 C2.32282157,1.17689626 2.04408298,0.960099582 1.64146058,0.960099582 L0.991070536,0.960099582 L0.991070536,2.13699584 L1.67243153,2.13699584 C2.07505393,2.13699584 2.32282157,1.88922821 2.32282157,1.54854771 L2.32282157,1.54854771 Z" id="Shape"></path>
                        <path d="M6.96846471,4.05719501 L6.13224894,2.81835684 L5.45088795,2.81835684 L5.45088795,4.05719501 L4.61467218,4.05719501 L4.61467218,0.185825725 L6.38001658,0.185825725 C7.27817425,0.185825725 7.83565143,0.681360993 7.83565143,1.45563485 L7.83565143,1.45563485 C7.83565143,2.07505393 7.49497093,2.47767634 6.99943566,2.66350207 L7.92856429,4.05719501 L6.96846471,4.05719501 Z M6.96846471,1.51757676 C6.96846471,1.14592531 6.72069707,0.960099582 6.28710371,0.960099582 L5.45088795,0.960099582 L5.45088795,2.07505393 L6.31807467,2.07505393 C6.72069707,2.07505393 6.96846471,1.85825725 6.96846471,1.51757676 L6.96846471,1.51757676 Z" id="Shape"></path>
                        <path d="M11.2424564,4.11913692 C10.0345892,4.11913692 9.19837341,3.22097924 9.19837341,2.13699584 L9.19837341,2.13699584 C9.19837341,1.05301244 10.0655601,0.123883817 11.2734273,0.123883817 C12.4812946,0.123883817 13.3175103,1.02204149 13.3175103,2.10602489 L13.3175103,2.10602489 C13.2865394,3.22097924 12.4193527,4.11913692 11.2424564,4.11913692 Z M12.4193527,2.13699584 C12.4193527,1.4866058 11.9238174,0.929128627 11.2424564,0.929128627 C10.5610954,0.929128627 10.0965311,1.45563485 10.0965311,2.13699584 L10.0965311,2.13699584 C10.0965311,2.78738588 10.5920664,3.34486306 11.2734273,3.34486306 C11.9238174,3.34486306 12.4193527,2.81835684 12.4193527,2.13699584 L12.4193527,2.13699584 Z" id="Shape"></path>
                        <path d="M16.6933443,4.11913692 C15.4854771,4.11913692 14.6492614,3.28292115 14.6492614,2.13699584 L14.6492614,2.13699584 C14.6492614,1.05301244 15.5164481,0.123883817 16.6623734,0.123883817 C17.3437344,0.123883817 17.7773277,0.309709542 18.1799501,0.650390039 L17.6534439,1.30078008 C17.3437344,1.05301244 17.0959667,0.898157673 16.6314024,0.898157673 C16.0119833,0.898157673 15.5164481,1.45563485 15.5164481,2.10602489 L15.5164481,2.10602489 C15.5164481,2.81835684 16.0119833,3.34486306 16.6933443,3.34486306 C17.0030539,3.34486306 17.2817925,3.2519502 17.4985892,3.12806638 L17.4985892,2.5705892 L16.6314024,2.5705892 L16.6314024,1.8272863 L18.303834,1.8272863 L18.303834,3.49971783 C17.9631535,3.87136928 17.4056763,4.11913692 16.6933443,4.11913692 Z" id="Path"></path>
                        <path d="M22.361029,4.05719501 L21.5248132,2.81835684 L20.8434522,2.81835684 L20.8434522,4.05719501 L20.0072364,4.05719501 L20.0072364,0.185825725 L21.7725808,0.185825725 C22.6707385,0.185825725 23.2282157,0.681360993 23.2282157,1.45563485 L23.2282157,1.45563485 C23.2282157,2.07505393 22.8875352,2.47767634 22.3919999,2.66350207 L23.3211286,4.05719501 L22.361029,4.05719501 Z M22.3919999,1.51757676 C22.3919999,1.14592531 22.1442323,0.960099582 21.7106389,0.960099582 L20.8744232,0.960099582 L20.8744232,2.07505393 L21.7416099,2.07505393 C22.1442323,2.07505393 22.3919999,1.85825725 22.3919999,1.51757676 L22.3919999,1.51757676 Z" id="Shape"></path>
                        <path d="M27.780946,4.05719501 L27.4402655,3.19000829 L25.7988049,3.19000829 L25.4581244,4.05719501 L24.5909377,4.05719501 L26.2633692,0.154854771 L27.0376431,0.154854771 L28.6791036,4.05719501 L27.780946,4.05719501 Z M26.6040497,1.20786722 L26.0775435,2.44670539 L27.099585,2.44670539 L26.6040497,1.20786722 Z" id="Shape"></path>
                        <polygon id="Path" points="33.0769791 4.05719501 33.0769791 1.54854771 31.9929957 3.19000829 31.9620248 3.19000829 30.8780414 1.54854771 30.8780414 4.05719501 30.0418256 4.05719501 30.0418256 0.185825725 30.9709542 0.185825725 31.9929957 1.8272863 33.0150372 0.185825725 33.9441659 0.185825725 33.9441659 4.05719501"></polygon>
                    </g>
                    <g transform="translate(3.775380, 27.886473)" fill="#FFC013" id="Path">
                        <polygon points="2.25464052 0 2.74784314 1.5148366 4.36836601 1.5148366 3.06490196 2.50124183 3.55810458 4.08653595 2.25464052 3.13535948 0.951176471 4.08653595 1.44437908 2.50124183 0.140915033 1.5148366 1.76143791 1.5148366"></polygon>
                        <polygon points="7.9969281 0 8.49013072 1.5148366 10.1106536 1.5148366 8.80718954 2.50124183 9.30039216 4.08653595 7.9969281 3.13535948 6.65823529 4.08653595 7.18666667 2.50124183 5.84797386 1.5148366 7.46849673 1.5148366"></polygon>
                        <polygon points="13.7039869 0 14.2324183 1.5148366 15.8529412 1.5148366 14.5494771 2.50124183 15.0426797 4.08653595 13.7039869 3.13535948 12.4005229 4.08653595 12.8937255 2.50124183 11.5902614 1.5148366 13.2107843 1.5148366"></polygon>
                        <polygon points="19.4462745 0 19.9394771 1.5148366 21.5952288 1.5148366 20.2565359 2.50124183 20.7497386 4.08653595 19.4462745 3.13535948 18.1428105 4.08653595 18.6360131 2.50124183 17.332549 1.5148366 18.9530719 1.5148366"></polygon>
                        <polygon points="25.1885621 0 25.6817647 1.5148366 27.3022876 1.5148366 25.9988235 2.50124183 26.4920261 4.08653595 25.1885621 3.13535948 23.885098 4.08653595 24.3783007 2.50124183 23.0396078 1.5148366 24.6953595 1.5148366"></polygon>
                    </g>
                    <g transform="translate(9.375380, 0.360166)" fill="#FFC013" id="Path">
                        <path d="M7.13688899,6.92800443 C9.78276003,6.92800443 12.010862,7.0672608 12.7419579,7.24133127 L14.1345216,0.139256371 C14.1345216,0.139256371 10.9664392,2.92438378 10.0960869,2.92438378 C9.19092045,2.92438378 7.13688899,0.974794594 7.13688899,0.974794594 C7.13688899,0.974794594 5.15248571,2.92438378 4.31694749,2.92438378 C3.44659517,2.92438378 0.174070463,0.139256371 0.174070463,0.139256371 L1.56663417,7.24133127 C2.26291602,7.0672608 4.49101795,6.92800443 7.13688899,6.92800443 Z"></path>
                        <path d="M7.13688899,7.79835675 C3.89917837,7.79835675 1.25330733,8.0072413 1.25330733,8.21612586 L12.9856566,8.21612586 C12.9856566,7.97242721 10.3745996,7.79835675 7.13688899,7.79835675 Z"></path>
                    </g>
                </g>
                <g id="Group-25" transform="translate(26.598993, 0.061942)" fill="#51565E">
                    <path d="M21.9584066,32.3646472 C21.9584066,32.3646472 22.1442323,32.1168796 22.361029,31.7452281 C22.4539418,31.5594024 22.5778256,31.3426057 22.6707385,31.0948381 C22.7636514,30.8470704 22.8565642,30.5683318 22.8875352,30.2895933 C22.9185061,30.1347385 22.9185061,30.0108547 22.9185061,29.8869709 C22.9185061,29.763087 22.9185061,29.6082323 22.9185061,29.4843484 C22.8875352,29.2365808 22.8565642,28.9888132 22.7946223,28.8029875 C22.7326804,28.6171617 22.7017095,28.431336 22.6707385,28.3074522 C22.6397676,28.1835684 22.6087966,28.1216265 22.6087966,28.1216265 C22.6087966,28.1216265 22.361029,28.3074522 22.1132613,28.6481327 C22.0822904,28.6791036 22.0513194,28.7410455 22.0203485,28.7720165 C21.9893775,28.8339584 21.9584066,28.8649294 21.9274356,28.9268713 C21.8654937,29.0197841 21.8035518,29.1436679 21.7416099,29.2675518 C21.6177261,29.5153194 21.5248132,29.794058 21.4938422,30.1037675 L21.9584066,32.3646472 Z" id="Path" transform="translate(22.206174, 30.243137) scale(-1, 1) translate(-22.206174, -30.243137) "></path>
                    <path d="M25.7732749,32.4265891 C25.7732749,32.4265891 25.3706525,32.2717343 24.8131753,31.9000829 C24.6892915,31.80717 24.5344367,31.7142572 24.3795819,31.5903733 C24.2247272,31.4664895 24.1008433,31.3426057 23.9459886,31.1877509 C23.7911338,31.0328962 23.66725,30.8780414 23.5433662,30.6922157 C23.4814243,30.5993028 23.4194823,30.5063899 23.3575404,30.4134771 C23.2955985,30.3205642 23.2336566,30.1966804 23.2026857,30.1037675 C22.7690923,29.2365808 22.6761794,28.3074522 22.7071504,27.5951202 C22.7381214,26.8827883 22.8620052,26.418224 22.8620052,26.418224 C22.8620052,26.418224 23.2336566,26.6969626 23.6982209,27.1615269 C23.9459886,27.4092945 24.1627852,27.6880331 24.4415238,27.9977426 C24.5654077,28.1525974 24.6892915,28.3384231 24.8131753,28.5242489 C24.9370591,28.7100746 25.029972,28.8959003 25.1228848,29.112697 L25.7732749,32.4265891 Z" id="Path" transform="translate(24.237492, 29.422407) scale(-1, 1) translate(-24.237492, -29.422407) "></path>
                    <path d="M20.967336,37.9703899 C20.967336,37.9703899 20.998307,37.908448 21.0292779,37.7845642 C21.0912198,37.6606804 21.1531618,37.4748546 21.1841327,37.2890289 C21.2460746,37.0722322 21.3080165,36.8244646 21.3080165,36.576697 C21.3080165,36.5147551 21.3080165,36.4528132 21.3389875,36.3908712 C21.3389875,36.3289293 21.3389875,36.2669874 21.3389875,36.1740746 C21.3389875,36.0192198 21.3389875,35.895336 21.3389875,35.7404812 C21.2770456,35.183004 21.0912198,34.6564978 20.8744232,34.3158173 C20.8434522,34.2848464 20.8124813,34.2229044 20.8124813,34.1919335 C20.7815103,34.1609625 20.7815103,34.0990206 20.7505393,34.0680497 C20.7195684,34.0061078 20.6576265,33.9441659 20.6266555,33.8822239 C20.5647136,33.7893111 20.5027717,33.7273692 20.5027717,33.7273692 C20.5027717,33.7273692 20.316946,33.9751368 20.1620912,34.3777592 C20.0691784,34.5635849 20.0072364,34.8113526 19.9452945,35.0900912 C19.9143236,35.213975 19.9143236,35.3688298 19.8833526,35.4927136 C19.8833526,35.6475683 19.8833526,35.8024231 19.8833526,35.9263069 L20.967336,37.9703899 Z" id="Path" transform="translate(20.611170, 35.848880) scale(-1, 1) translate(-20.611170, -35.848880) "></path>
                    <path d="M24.8696763,38.0942737 C24.8696763,38.0942737 24.8387053,38.0942737 24.7767634,38.0942737 C24.7148215,38.0942737 24.6528796,38.0633028 24.5599667,38.0633028 C24.374141,38.0323318 24.0954024,37.9703899 23.7856929,37.8465061 C23.1662738,37.6297094 22.3919999,37.1961161 21.7416099,36.4837841 C21.5867551,36.2979584 21.4628713,36.1121327 21.3389875,35.895336 C21.2770456,35.8024231 21.2151037,35.7095103 21.1531618,35.5856264 C21.0912198,35.4927136 21.0602489,35.3688298 20.998307,35.2759169 C20.9053941,35.0900912 20.8434522,34.8732945 20.7815103,34.6874688 C20.7195684,34.501643 20.6576265,34.3158173 20.6266555,34.1299916 C20.5647136,33.7893111 20.5027717,33.4796015 20.5027717,33.2937758 C20.5027717,33.200863 20.5027717,33.1079501 20.4718008,33.0460082 C20.4718008,32.9840663 20.4718008,32.9530953 20.4718008,32.9530953 C20.4718008,32.9530953 20.5027717,32.9530953 20.5337427,32.9840663 C20.5956846,33.0150372 20.6576265,33.0460082 20.7505393,33.0769791 C20.9363651,33.169892 21.1841327,33.2937758 21.4628713,33.4796015 C21.7416099,33.6654273 22.0513194,33.8822239 22.3919999,34.1299916 C22.5468547,34.2538754 22.7017095,34.4087302 22.8565642,34.532614 C22.9185061,34.5945559 23.011419,34.6874688 23.0733609,34.7803816 C23.1353028,34.8732945 23.2282157,34.9352364 23.2901576,35.0281493 L24.8696763,38.0942737 Z" id="Path" transform="translate(22.670739, 35.523685) scale(-1, 1) translate(-22.670739, -35.523685) "></path>
                    <path d="M18.3348049,42.8328297 C18.3348049,42.8328297 18.3348049,42.7708878 18.3657759,42.616033 C18.3657759,42.4921492 18.3967468,42.3063235 18.3967468,42.0895268 C18.3967468,41.8727301 18.3967468,41.6249625 18.3657759,41.3462239 C18.3348049,41.2223401 18.3348049,41.0674853 18.303834,40.9436015 C18.272863,40.8197177 18.2418921,40.6648629 18.1799501,40.5409791 C18.0870373,40.2622405 17.9321825,40.0454438 17.8082987,39.8286472 C17.6844149,39.6118505 17.5295601,39.4260248 17.3747053,39.27117 C17.2198506,39.1163152 17.0959667,38.9924314 17.0030539,38.9304895 C16.910141,38.8375766 16.8481991,38.8066057 16.8481991,38.8066057 C16.8481991,38.8066057 16.8172282,38.8685476 16.7862572,38.9924314 C16.7552862,39.1163152 16.6933443,39.3021409 16.6623734,39.5189376 C16.6314024,39.7357343 16.6314024,39.9835019 16.6314024,40.2622405 C16.6314024,40.3861243 16.6623734,40.5409791 16.6933443,40.6958339 C16.7243153,40.8506887 16.7552862,40.9745725 16.8172282,41.1294272 L18.3348049,42.8328297 Z" id="Path" transform="translate(17.514075, 40.819718) scale(-1, 1) translate(-17.514075, -40.819718) "></path>
                    <path d="M22.3919999,43.0186555 C22.3919999,43.0186555 22.2681161,43.0496264 22.0822904,43.0496264 C21.9893775,43.0496264 21.8654937,43.0496264 21.7416099,43.0496264 C21.6177261,43.0496264 21.4628713,43.0496264 21.3080165,43.0186555 C20.998307,42.9876845 20.5956846,42.9257426 20.1930622,42.8018588 C19.7904398,42.677975 19.3878174,42.4611783 18.985195,42.2134106 C18.5825725,41.9346721 18.272863,41.5939916 17.9631535,41.2533111 C17.6844149,40.9126306 17.4676182,40.5409791 17.3127634,40.2312696 C17.1579087,39.92156 17.0649958,39.6428214 16.9720829,39.4260248 C16.910141,39.240199 16.8791701,39.1163152 16.8791701,39.1163152 C16.8791701,39.1163152 17.3437344,39.1782571 17.9631535,39.3640829 C18.1180082,39.4260248 18.272863,39.4569957 18.4586887,39.5499086 C18.6445145,39.6118505 18.8303402,39.6737924 19.0161659,39.7667053 C19.2019916,39.8596181 19.3878174,39.952531 19.5736431,40.0454438 C19.7594688,40.1383567 19.9452945,40.2622405 20.1311203,40.3861243 L22.3919999,43.0186555 Z" id="Path" transform="translate(19.635585, 41.082971) scale(-1, 1) translate(-19.635585, -41.082971) "></path>
                    <path d="M14.4944066,46.6732281 C14.4944066,46.6732281 14.4634356,46.3635185 14.3705228,45.9608961 C14.3085809,45.7440994 14.246639,45.4963318 14.1537261,45.2485642 C14.0608132,45.0007965 13.9369294,44.7530289 13.7511037,44.5052613 C13.5962489,44.2574936 13.4104232,44.0716679 13.2245975,43.8858422 C13.1626556,43.8548712 13.1316846,43.7929293 13.0697427,43.7619584 C13.0078008,43.7309874 12.9768298,43.6690455 12.9458589,43.6380745 C12.852946,43.5761326 12.7600332,43.5141907 12.6671203,43.4522488 C12.4812946,43.328365 12.3264398,43.2664231 12.2335269,43.2044812 C12.1096431,43.1425393 12.0477012,43.1115683 12.0477012,43.1115683 C12.0477012,43.1115683 12.0477012,43.1425393 12.0477012,43.1735102 C12.0477012,43.2044812 12.0477012,43.2664231 12.0477012,43.328365 C12.0477012,43.4522488 12.0477012,43.6380745 12.0786722,43.8548712 C12.1096431,44.0716679 12.1406141,44.3194355 12.2335269,44.5672032 C12.2644979,44.691087 12.3264398,44.8149708 12.3883817,44.9698256 C12.4503236,45.0937094 12.5122655,45.2175932 12.6051784,45.341477 L14.4944066,46.6732281 Z" id="Path" transform="translate(13.271054, 44.892398) scale(-1, 1) translate(-13.271054, -44.892398) "></path>
                    <path d="M18.4896597,46.9209957 C18.4896597,46.9209957 18.3967468,46.9519666 18.2109211,47.0139086 C18.0250954,47.0758505 17.7463568,47.1377924 17.4366472,47.1997343 C17.1269377,47.2616762 16.7243153,47.2616762 16.3216929,47.2616762 C16.22878,47.2616762 16.1048962,47.2616762 16.0119833,47.2307052 C15.9190705,47.2307052 15.7951867,47.1997343 15.6713029,47.1687633 C15.4545062,47.1068214 15.2377095,47.0448795 14.9899419,46.9829376 C14.866058,46.9519666 14.7731452,46.8900247 14.6492614,46.8590538 C14.5563485,46.7971119 14.4324647,46.7661409 14.3395518,46.704199 C14.1537261,46.5803152 13.9369294,46.4564314 13.7820746,46.3325476 C13.5962489,46.2086637 13.4413941,46.053809 13.2865394,45.9299252 C13.1316846,45.8060413 13.0078008,45.6511866 12.883917,45.5273027 C12.6361493,45.2795351 12.4812946,45.0317675 12.3574107,44.8459418 C12.2335269,44.660116 12.171585,44.5672032 12.171585,44.5672032 C12.171585,44.5672032 12.6361493,44.5052613 13.2865394,44.5362322 C13.6272199,44.5362322 13.9988713,44.5672032 14.4014937,44.660116 C14.8041161,44.7220579 15.2377095,44.8149708 15.6403319,45.0007965 L18.4896597,46.9209957 Z" id="Path" transform="translate(15.330622, 45.894618) scale(-1, 1) translate(-15.330622, -45.894618) "></path>
                    <path d="M9.91070536,49.2438173 C9.91070536,49.2438173 9.8177925,48.9341077 9.60099582,48.5624563 C9.38419914,48.1908048 9.10546055,47.6952695 8.64089624,47.3236181 C8.51701242,47.2307052 8.42409956,47.1377924 8.30021574,47.0758505 C8.17633192,47.0139086 8.08341906,46.9209957 7.95953524,46.8590538 C7.83565143,46.7971119 7.74273856,46.7661409 7.61885475,46.704199 C7.49497093,46.6732281 7.40205807,46.6112861 7.3091452,46.5803152 C6.93749375,46.4564314 6.62778421,46.3944895 6.62778421,46.3944895 C6.62778421,46.3944895 6.65875516,46.704199 6.81360993,47.1068214 C6.87555184,47.2926471 6.99943566,47.5404148 7.12331948,47.7572115 C7.27817425,47.9740081 7.46399997,48.2217758 7.68079665,48.4076015 L9.91070536,49.2438173 Z" id="Path" transform="translate(8.269245, 47.819153) scale(-1, 1) translate(-8.269245, -47.819153) "></path>
                    <path d="M13.4413941,49.4915849 C13.4413941,49.4915849 13.1007136,49.7703235 12.4812946,50.0490621 C12.4193527,50.080033 12.3264398,50.111004 12.2335269,50.1419749 C12.1406141,50.1729459 12.0786722,50.2039168 11.9857593,50.2348878 C11.7999336,50.2968297 11.6141078,50.3278007 11.3973112,50.3897426 C11.1805145,50.4207135 10.9637178,50.4516845 10.7469211,50.4826554 C10.5301244,50.4826554 10.2823568,50.4826554 10.0345892,50.4516845 C9.78682154,50.4207135 9.57002486,50.3897426 9.32225723,50.3278007 C9.10546055,50.2658587 8.88866387,50.1729459 8.67186719,50.111004 C8.45507051,50.0180911 8.26924478,49.9251783 8.11439001,49.8322654 C7.92856429,49.7393525 7.77370952,49.6154687 7.61885475,49.5225558 C7.34011616,49.3367301 7.09234852,49.1509044 6.93749375,48.9960496 C6.78263898,48.8411949 6.68972612,48.748282 6.68972612,48.748282 C6.68972612,48.748282 6.81360993,48.717311 6.99943566,48.6553691 C7.18526139,48.5934272 7.46399997,48.5314853 7.77370952,48.4695434 C8.11439001,48.4076015 8.48604146,48.3456596 8.88866387,48.3146886 C9.29128627,48.2837177 9.72487963,48.2527467 10.1894439,48.3146886 L13.4413941,49.4915849 Z" id="Path" transform="translate(10.065560, 49.380791) scale(-1, 1) translate(-10.065560, -49.380791) "></path>
                    <path d="M2.04408298,3.28292115 C2.04408298,3.28292115 2.10602489,3.3138921 2.22990871,3.40680497 C2.29185061,3.43777592 2.35379252,3.46874688 2.44670539,3.53068878 C2.53961825,3.56165974 2.60156016,3.62360165 2.72544397,3.68554356 C2.9112697,3.77845642 3.15903733,3.87136928 3.40680497,3.96428214 C3.53068878,3.9952531 3.6545726,4.02622405 3.80942737,4.05719501 C3.93331119,4.08816596 4.08816596,4.11913692 4.24302073,4.11913692 C4.52175932,4.15010787 4.80049791,4.11913692 5.04826554,4.08816596 C5.29603318,4.05719501 5.54380081,3.9952531 5.72962654,3.93331119 C5.91545226,3.87136928 6.07030703,3.80942737 6.19419085,3.74748546 C6.31807467,3.68554356 6.38001658,3.6545726 6.38001658,3.6545726 C6.38001658,3.6545726 6.31807467,3.59263069 6.2251618,3.49971783 C6.13224894,3.40680497 5.97739417,3.28292115 5.8225394,3.19000829 C5.63671367,3.06612447 5.41991699,2.94224065 5.17214936,2.84932779 C5.04826554,2.78738588 4.92438173,2.75641493 4.76952695,2.72544397 C4.61467218,2.69447302 4.49078837,2.66350207 4.33593359,2.66350207 L2.04408298,3.28292115 Z" id="Path" transform="translate(4.212050, 3.397734) scale(-1, 1) translate(-4.212050, -3.397734) "></path>
                    <path d="M0.526506222,3.37583401 C0.526506222,3.37583401 0.557477176,3.2519502 0.619419085,3.09709542 C0.681360993,2.9112697 0.80524481,2.66350207 0.960099582,2.38476348 C1.11495435,2.10602489 1.36272199,1.79631535 1.64146058,1.4866058 C1.92019916,1.17689626 2.29185061,0.898157673 2.69447302,0.650390039 C3.12806638,0.433593359 3.56165974,0.247767634 3.9952531,0.154854771 C4.42884646,0.0619419085 4.83146886,0.0309709542 5.17214936,1.71295928e-13 C5.51282986,1.71295928e-13 5.8225394,0.0309709542 6.03933608,0.0309709542 C6.25613276,0.0619419085 6.38001658,0.0619419085 6.38001658,0.0619419085 C6.38001658,0.0619419085 6.13224894,0.464564314 5.66768463,0.929128627 C5.45088795,1.17689626 5.17214936,1.45563485 4.86243982,1.70340248 C4.70758505,1.8272863 4.52175932,2.01311203 4.11913692,2.29185061 L0.526506222,3.37583401 Z" id="Path" transform="translate(3.453261, 1.687917) scale(-1, 1) translate(-3.453261, -1.687917) "></path>
                    <path d="M7.80468047,6.10127799 C7.80468047,6.10127799 7.86662238,6.13224894 7.9905062,6.1632199 C8.11439001,6.19419085 8.30021574,6.25613276 8.51701242,6.28710371 C8.7338091,6.31807467 8.98157673,6.38001658 9.22934437,6.38001658 C9.50808295,6.41098753 9.75585059,6.38001658 10.0655601,6.34904562 C10.3442987,6.31807467 10.6230373,6.2251618 10.839834,6.10127799 C11.0876016,6.00836512 11.2734273,5.88448131 11.4592531,5.79156844 C11.6450788,5.69865558 11.7689626,5.57477176 11.8618755,5.51282986 C11.9547883,5.45088795 12.0167302,5.38894604 12.0167302,5.38894604 C12.0167302,5.38894604 11.9547883,5.35797509 11.8309045,5.29603318 C11.7070207,5.23409127 11.5521659,5.17214936 11.3353693,5.0792365 C11.1185726,5.01729459 10.9017759,4.95535268 10.6230373,4.92438173 C10.4991535,4.89341077 10.3442987,4.89341077 10.1894439,4.89341077 C10.0345892,4.89341077 9.91070536,4.92438173 9.75585059,4.92438173 L7.80468047,6.10127799 Z" id="Path" transform="translate(9.910705, 5.643128) scale(-1, 1) translate(-9.910705, -5.643128) "></path>
                    <path d="M7.34011616,5.88448131 C7.34011616,5.88448131 7.34011616,5.76059749 7.37108711,5.57477176 C7.40205807,5.38894604 7.43302902,5.11020745 7.52594188,4.80049791 C7.61885475,4.49078837 7.74273856,4.11913692 7.95953524,3.74748546 C8.14536097,3.37583401 8.42409956,3.00418256 8.76478005,2.66350207 C8.79575101,2.63253111 8.85769292,2.5705892 8.88866387,2.53961825 C8.91963482,2.50864729 8.98157673,2.47767634 9.01254769,2.41573443 C9.10546055,2.35379252 9.19837341,2.26087966 9.29128627,2.19893775 C9.477112,2.07505393 9.66293773,1.95117012 9.87973441,1.8272863 C10.2823568,1.61048962 10.6540083,1.4866058 10.9946888,1.39369294 C11.1495435,1.33175103 11.3353693,1.30078008 11.4592531,1.26980912 C11.6141078,1.23883817 11.7379917,1.20786722 11.8309045,1.20786722 C12.0477012,1.17689626 12.171585,1.17689626 12.171585,1.17689626 C12.171585,1.17689626 12.0167302,1.61048962 11.7070207,2.19893775 C11.6760498,2.26087966 11.6141078,2.35379252 11.5831369,2.41573443 C11.5521659,2.50864729 11.490224,2.5705892 11.4592531,2.66350207 C11.3663402,2.81835684 11.2424564,3.00418256 11.1495435,3.15903733 C11.0256597,3.3138921 10.9017759,3.49971783 10.7778921,3.6545726 C10.6540083,3.80942737 10.4991535,3.9952531 10.3442987,4.15010787 L7.34011616,5.88448131 Z" id="Path" transform="translate(9.755851, 3.530689) scale(-1, 1) translate(-9.755851, -3.530689) "></path>
                    <path d="M12.7600332,9.94167631 C12.7600332,9.94167631 13.0697427,9.97264727 13.5033361,9.94167631 C13.5962489,9.94167631 13.7201327,9.91070536 13.8440165,9.91070536 C13.9679004,9.91070536 14.0917842,9.87973441 14.215668,9.84876345 C14.4634356,9.78682154 14.7421742,9.72487963 15.0209128,9.60099582 C15.547419,9.38419914 15.9500414,9.01254769 16.22878,8.7338091 C16.5075186,8.45507051 16.6623734,8.17633192 16.6623734,8.17633192 C16.6623734,8.17633192 16.3836348,8.08341906 15.9500414,8.0524481 C15.7332448,8.02147715 15.4854771,8.02147715 15.2067385,8.0524481 C14.9279999,8.08341906 14.6492614,8.17633192 14.3705228,8.26924478 L12.7600332,9.94167631 Z" id="Path" transform="translate(14.711203, 8.992331) scale(-1, 1) translate(-14.711203, -8.992331) "></path>
                    <path d="M13.4413941,9.75585059 C13.4413941,9.75585059 13.3484813,9.32225723 13.3484813,8.67186719 C13.3484813,8.33118669 13.4104232,7.95953524 13.5033361,7.55691284 C13.5962489,7.15429043 13.7820746,6.72069707 14.0298423,6.31807467 C14.2776099,5.88448131 14.5873195,5.54380081 14.9279999,5.26506222 C15.0209128,5.20312031 15.0828547,5.11020745 15.1757676,5.04826554 C15.2686804,4.98632363 15.3306224,4.92438173 15.4235352,4.86243982 C15.57839,4.738556 15.7332448,4.64564314 15.8880995,4.55273027 C16.0429543,4.45981741 16.1668381,4.36690455 16.3216929,4.30496264 C16.4455767,4.24302073 16.5694605,4.18107882 16.6623734,4.15010787 C16.8481991,4.05719501 16.9720829,4.02622405 16.9720829,4.02622405 C16.9720829,4.02622405 16.9720829,4.15010787 16.941112,4.33593359 C16.910141,4.52175932 16.8481991,4.80049791 16.7862572,5.14117841 C16.7243153,5.4818589 16.6004315,5.85351035 16.4765477,6.2251618 C16.4455767,6.31807467 16.4146058,6.41098753 16.3526638,6.50390039 C16.3216929,6.59681326 16.259751,6.68972612 16.22878,6.81360993 C16.1358672,6.99943566 16.0429543,7.21623234 15.9190705,7.40205807 L13.4413941,9.75585059 Z" id="Path" transform="translate(15.160282, 6.891037) scale(-1, 1) translate(-15.160282, -6.891037) "></path>
                    <path d="M16.8172282,14.8041161 C16.8172282,14.8041161 17.1269377,14.7731452 17.5295601,14.6492614 C17.7463568,14.5873195 17.9631535,14.4944066 18.2109211,14.3705228 C18.4586887,14.246639 18.7064564,14.1227551 18.923253,13.9369294 C19.1400497,13.7511037 19.3568464,13.565278 19.5117012,13.3484813 C19.604614,13.2555684 19.6665559,13.1626556 19.7284979,13.0387717 C19.7904398,12.9458589 19.8523817,12.852946 19.9143236,12.7600332 C20.1311203,12.4193527 20.2240331,12.1406141 20.2240331,12.1406141 C20.2240331,12.1406141 19.9143236,12.1096431 19.5117012,12.202556 C19.0781078,12.2644979 18.5516016,12.4503236 18.0560663,12.8219751 L16.8172282,14.8041161 Z" id="Path" transform="translate(18.520631, 13.469887) scale(-1, 1) translate(-18.520631, -13.469887) "></path>
                    <path d="M18.8303402,14.6802323 C18.8303402,14.6802323 18.6135435,14.2776099 18.4896597,13.6272199 C18.4586887,13.4723651 18.4277178,13.2865394 18.3967468,13.1007136 C18.3657759,12.9148879 18.3657759,12.7290622 18.3657759,12.5122655 C18.3657759,12.2954688 18.3657759,12.0786722 18.3967468,11.8618755 C18.4277178,11.6450788 18.4896597,11.3973112 18.5516016,11.1805145 C18.6135435,10.9637178 18.7064564,10.7159502 18.7993692,10.5301244 C18.8922821,10.3133278 19.0161659,10.127502 19.1400497,9.94167631 C19.2639335,9.75585059 19.3878174,9.60099582 19.5117012,9.41517009 C19.635585,9.26031532 19.7594688,9.1364315 19.9143236,9.01254769 C20.1620912,8.76478005 20.3788879,8.57895433 20.5647136,8.45507051 C20.7195684,8.33118669 20.8434522,8.26924478 20.8434522,8.26924478 C20.8434522,8.26924478 20.8744232,8.3931286 20.8744232,8.57895433 C20.8744232,8.67186719 20.9053941,8.79575101 20.9053941,8.91963482 C20.9053941,9.04351864 20.9363651,9.19837341 20.9363651,9.38419914 C20.9363651,9.72487963 20.9363651,10.0965311 20.8744232,10.4991535 C20.8434522,10.9017759 20.7505393,11.3353693 20.6266555,11.7689626 L18.8303402,14.6802323 Z" id="Path" transform="translate(19.651070, 11.474739) scale(-1, 1) translate(-19.651070, -11.474739) "></path>
                    <path d="M19.8523817,20.4098589 C19.8523817,20.4098589 20.1311203,20.285975 20.5027717,20.0691784 C20.6885974,19.9452945 20.9053941,19.8214107 21.0912198,19.635585 C21.2770456,19.4497593 21.4938422,19.2639335 21.679668,19.0471369 C21.7725808,18.923253 21.8345227,18.7993692 21.8964647,18.7064564 C21.9584066,18.5825725 22.0203485,18.4586887 22.0822904,18.3657759 C22.1752032,18.1489792 22.2681161,17.9012116 22.2990871,17.7153858 C22.361029,17.5295601 22.3919999,17.3437344 22.4229709,17.2198506 C22.4539418,17.0959667 22.4539418,17.0340248 22.4539418,17.0340248 C22.4539418,17.0340248 22.1442323,17.0959667 21.7725808,17.2508215 C21.5557842,17.3437344 21.3699584,17.4676182 21.1531618,17.622473 C20.9363651,17.7773277 20.7195684,17.9631535 20.5337427,18.2109211 L19.8523817,20.4098589 Z" id="Path" transform="translate(21.153162, 18.721942) scale(-1, 1) translate(-21.153162, -18.721942) "></path>
                    <path d="M22.8221786,20.3479169 C22.8221786,20.3479169 22.7912077,20.316946 22.7602367,20.285975 C22.7292658,20.2550041 22.6673239,20.1930622 22.6363529,20.1001493 C22.5124691,19.9452945 22.3885853,19.7284979 22.2337305,19.4187883 C22.0788757,19.1400497 21.924021,18.7683983 21.8311081,18.3657759 C21.7691662,18.1489792 21.7381952,17.9631535 21.7072243,17.7153858 C21.7072243,17.591502 21.6762533,17.4985892 21.6762533,17.3747053 C21.6762533,17.2508215 21.6762533,17.1269377 21.6762533,17.0340248 C21.7072243,16.0739253 22.0788757,15.1757676 22.4505272,14.5873195 C22.6363529,14.2776099 22.8221786,14.0298423 22.9460625,13.8749875 C23.0080044,13.7820746 23.0699463,13.7201327 23.1009172,13.6891618 C23.1318882,13.6581908 23.1628591,13.6272199 23.1628591,13.6272199 C23.1628591,13.6272199 23.1628591,13.6581908 23.1938301,13.6891618 C23.224801,13.7511037 23.255772,13.8130456 23.286743,13.9059585 C23.3486849,14.0917842 23.4415977,14.3705228 23.5345106,14.6802323 C23.6893654,15.3306224 23.8751911,16.1668381 23.8442201,17.0649958 L22.8221786,20.3479169 Z" id="Path" transform="translate(22.761944, 16.987568) scale(-1, 1) translate(-22.761944, -16.987568) "></path>
                    <path d="M21.4938422,26.387253 C21.4938422,26.387253 21.7416099,26.2014273 22.0513194,25.8917178 C22.2061742,25.736863 22.361029,25.5510373 22.5158837,25.3342406 C22.6707385,25.1174439 22.8255933,24.8696763 22.9185061,24.6219086 C23.1353028,24.0954024 23.1972447,23.5688962 23.1972447,23.1353028 C23.1972447,22.9185061 23.1972447,22.7636514 23.1662738,22.6397676 C23.1662738,22.5158837 23.1353028,22.4539418 23.1353028,22.4539418 C23.1353028,22.4539418 22.8565642,22.5778256 22.5158837,22.8565642 C22.361029,22.9804481 22.1752032,23.1662738 21.9893775,23.3830705 C21.8964647,23.4759833 21.8345227,23.5998671 21.7416099,23.723751 C21.679668,23.8476348 21.5867551,23.9715186 21.5248132,24.1263734 L21.4938422,26.387253 Z" id="Path" transform="translate(22.345543, 24.420597) scale(-1, 1) translate(-22.345543, -24.420597) "></path>
                    <path d="M25.4099474,26.387253 C25.4099474,26.387253 25.0382959,26.1394854 24.6047025,25.6439501 C24.3879059,25.3961825 24.1401382,25.0864729 23.9543125,24.7148215 C23.8613996,24.5289958 23.7684868,24.34317 23.6755739,24.1263734 C23.5826611,23.9095767 23.5207191,23.69278 23.4587772,23.4450124 C23.3968353,23.1972447 23.3968353,22.9804481 23.3658644,22.7326804 C23.3658644,22.5158837 23.3348934,22.2681161 23.3658644,22.0513194 C23.3968353,21.6177261 23.4897482,21.2151037 23.5826611,20.8744232 C23.7994577,20.1930622 24.0162544,19.7594688 24.0162544,19.7594688 C24.0162544,19.7594688 24.325964,20.1311203 24.6356735,20.6885974 C24.7285864,20.8434522 24.7905283,20.998307 24.8834411,21.1531618 C24.976354,21.3080165 25.0692669,21.4938422 25.1312088,21.679668 C25.2241216,21.8654937 25.2860635,22.0513194 25.3480054,22.2681161 C25.3789764,22.361029 25.4099474,22.4849128 25.4409183,22.5778256 C25.4718893,22.6707385 25.5028602,22.7946223 25.5338312,22.9185061 L25.4099474,26.387253 Z" id="Path" transform="translate(24.442965, 23.073361) scale(-1, 1) translate(-24.442965, -23.073361) "></path>
                    <path d="M23.3830705,54.1062571 C23.2901576,54.1062571 23.2282157,54.0752861 23.1662738,53.9823733 C21.648697,51.4117841 19.2949045,50.2968297 17.591502,49.8012944 C7.24720329,46.7971119 -1.71510316e-15,37.1651451 -1.71510316e-15,26.3562821 C-1.71510316e-15,20.7505393 1.95117012,15.2996514 5.4818589,10.9637178 C8.95060578,6.68972612 13.8130456,3.68554356 19.1710207,2.53961825 C19.2949045,2.50864729 19.4497593,2.60156016 19.4497593,2.72544397 C19.4807302,2.84932779 19.3878174,3.00418256 19.2639335,3.00418256 C8.3931286,5.38894604 0.495535268,15.2067385 0.495535268,26.3562821 C0.495535268,36.9173775 7.58788379,46.3635185 17.7153858,49.3057592 C20.285975,50.0490621 22.330058,51.5666388 23.5688962,53.7036347 C23.6308381,53.8275185 23.5998671,53.9823733 23.4759833,54.0443152 C23.4759833,54.1062571 23.4140414,54.1062571 23.3830705,54.1062571 Z" id="Path" transform="translate(11.799934, 28.319936) scale(-1, 1) translate(-11.799934, -28.319936) "></path>
                </g>
            </g>
        </g>
        <polygon id="Shape" fill="#1179EF" transform="translate(186.500000, 250.500000) scale(-1, 1) translate(-186.500000, -250.500000) " points="198 249.25 179.893889 249.25 184.468333 244.7625 182.666667 243 175 250.5 182.666667 258 184.468333 256.2375 179.893889 251.75 198 251.75"></polygon>
        <polygon id="Shape-Copy-2" fill="#1179EF" points="138 249.25 119.893889 249.25 124.468333 244.7625 122.666667 243 115 250.5 122.666667 258 124.468333 256.2375 119.893889 251.75 138 251.75"></polygon>
        <polygon id="Shape-Copy-5" fill="#CEDBE9" transform="translate(229.500000, 250.500000) scale(-1, 1) translate(-229.500000, -250.500000) " points="241 249.25 222.893889 249.25 227.468333 244.7625 225.666667 243 218 250.5 225.666667 258 227.468333 256.2375 222.893889 251.75 241 251.75"></polygon>
        <path d="M218.001462,22 C218.552844,22 218.940073,22.2263637 219.219481,22.4510618 C219.498894,22.6757598 219.699567,22.8798461 220.061034,23.0295338 C220.4225,23.1792216 220.706491,23.1732227 221.062989,23.2118624 C221.419486,23.250502 221.8523,23.3675934 222.242188,23.7573836 C222.632071,24.1471732 222.749191,24.5828131 222.787843,24.9392239 C222.82649,25.2956344 222.823419,25.5795542 222.973145,25.9409325 C223.122867,26.3023105 223.327003,26.5029369 223.551759,26.7822797 C223.776511,27.0616224 224,27.4487537 224,28 C224,28.5512463 223.776507,28.9413066 223.551759,29.2206495 C223.327003,29.5 223.122867,29.6976898 222.973145,30.0590678 C222.82343,30.4204485 222.826494,30.7072966 222.787843,31.0637051 C222.749187,31.4201142 222.63206,31.8528268 222.242188,32.2426165 C221.8523,32.6324066 221.419486,32.749498 221.062989,32.788138 C220.706491,32.8267775 220.4225,32.8237074 220.061034,32.9733953 C219.699567,33.123083 219.498894,33.3271693 219.219481,33.5518674 C218.940073,33.7765654 218.552844,34 218.001462,34 C217.450085,34 217.059928,33.7765654 216.780515,33.5518674 C216.50111,33.3271693 216.300433,33.123083 215.938963,32.9733953 C215.5775,32.8237092 215.293509,32.8267775 214.937011,32.788138 C214.58051,32.7494992 214.147696,32.63241 213.757812,32.2426165 C213.367929,31.8528272 213.25154,31.4201161 213.212889,31.0637051 C213.174241,30.7072948 213.176577,30.4204459 213.026855,30.0590678 C212.877129,29.6976895 212.672994,29.5 212.448241,29.2206495 C212.223489,28.9413066 212,28.5512459 212,28 C212,27.4487541 212.223489,27.0616224 212.448241,26.7822797 C212.672994,26.5029369 212.877129,26.3023105 213.026855,25.9409325 C213.176589,25.5795516 213.174237,25.2956325 213.212889,24.9392239 C213.25154,24.5828151 213.36794,24.1471738 213.757812,23.7573836 C214.147696,23.3675936 214.580514,23.250502 214.937011,23.2118624 C215.293509,23.1732227 215.577496,23.1792216 215.938963,23.0295338 C216.300429,22.8798461 216.50111,22.6757599 216.780515,22.4510618 C217.059928,22.2263637 217.450085,22 218.001462,22 Z" id="Combined-Shape" fill="#1179EF" fill-rule="nonzero"></path>
        <path d="M238.001462,22 C238.552844,22 238.940073,22.2263637 239.219481,22.4510618 C239.498894,22.6757598 239.699567,22.8798461 240.061034,23.0295338 C240.4225,23.1792216 240.706491,23.1732227 241.062989,23.2118624 C241.419486,23.250502 241.8523,23.3675934 242.242188,23.7573836 C242.632071,24.1471732 242.749191,24.5828131 242.787843,24.9392239 C242.82649,25.2956344 242.823419,25.5795542 242.973145,25.9409325 C243.122867,26.3023105 243.327003,26.5029369 243.551759,26.7822797 C243.776511,27.0616224 244,27.4487537 244,28 C244,28.5512463 243.776507,28.9413066 243.551759,29.2206495 C243.327003,29.5 243.122867,29.6976898 242.973145,30.0590678 C242.82343,30.4204485 242.826494,30.7072966 242.787843,31.0637051 C242.749187,31.4201142 242.63206,31.8528268 242.242188,32.2426165 C241.8523,32.6324066 241.419486,32.749498 241.062989,32.788138 C240.706491,32.8267775 240.4225,32.8237074 240.061034,32.9733953 C239.699567,33.123083 239.498894,33.3271693 239.219481,33.5518674 C238.940073,33.7765654 238.552844,34 238.001462,34 C237.450085,34 237.059928,33.7765654 236.780515,33.5518674 C236.50111,33.3271693 236.300433,33.123083 235.938963,32.9733953 C235.5775,32.8237092 235.293509,32.8267775 234.937011,32.788138 C234.58051,32.7494992 234.147696,32.63241 233.757812,32.2426165 C233.367929,31.8528272 233.25154,31.4201161 233.212889,31.0637051 C233.174241,30.7072948 233.176577,30.4204459 233.026855,30.0590678 C232.877129,29.6976895 232.672994,29.5 232.448241,29.2206495 C232.223489,28.9413066 232,28.5512459 232,28 C232,27.4487541 232.223489,27.0616224 232.448241,26.7822797 C232.672994,26.5029369 232.877129,26.3023105 233.026855,25.9409325 C233.176589,25.5795516 233.174237,25.2956325 233.212889,24.9392239 C233.25154,24.5828151 233.36794,24.1471738 233.757812,23.7573836 C234.147696,23.3675936 234.580514,23.250502 234.937011,23.2118624 C235.293509,23.1732227 235.577496,23.1792216 235.938963,23.0295338 C236.300429,22.8798461 236.50111,22.6757599 236.780515,22.4510618 C237.059928,22.2263637 237.450085,22 238.001462,22 Z" id="Combined-Shape-Copy" fill="#1179EF" fill-rule="nonzero"></path>
        <path d="M219.792826,26.0900902 C219.899375,25.9757303 220.078457,25.9693982 220.192817,26.075947 C220.29447,26.1706571 220.310768,26.3226772 220.238302,26.4356088 L220.20696,26.4759375 L217.216261,29.6858843 C217.065669,29.8475164 216.812561,29.856466 216.650929,29.7058738 C216.644032,29.6994482 216.637365,29.6927809 216.630939,29.6858843 L215.075947,28.0168962 L215.075947,28.0168962 C214.969398,27.9025363 214.97573,27.7234544 215.09009,27.6169056 C215.191743,27.5221956 215.344535,27.5166754 215.452066,27.5969365 L215.490081,27.6310488 L216.923545,29.1692724 L219.792826,26.0900902 Z" id="Path-3-Copy-17" stroke="#FFFFFF" stroke-width="0.5" fill="#FFFFFF" fill-rule="nonzero"></path>
        <path d="M258.792826,26.0900902 C258.899375,25.9757303 259.078457,25.9693982 259.192817,26.075947 C259.29447,26.1706571 259.310768,26.3226772 259.238302,26.4356088 L259.20696,26.4759375 L256.216261,29.6858843 C256.065669,29.8475164 255.812561,29.856466 255.650929,29.7058738 C255.644032,29.6994482 255.637365,29.6927809 255.630939,29.6858843 L254.075947,28.0168962 L254.075947,28.0168962 C253.969398,27.9025363 253.97573,27.7234544 254.09009,27.6169056 C254.191743,27.5221956 254.344535,27.5166754 254.452066,27.5969365 L254.490081,27.6310488 L255.923545,29.1692724 L258.792826,26.0900902 Z" id="Path-3-Copy-18" stroke="#FFFFFF" stroke-width="0.5" fill="#FFFFFF" fill-rule="nonzero"></path>
        <g id="Group-46" transform="translate(12.000000, 47.000000)">
            <circle id="Oval" fill="#7A97B8" opacity="0.3" cx="45" cy="45" r="45"></circle>
            <g id="Group-40" transform="translate(20.000000, 20.000000)">
                <g id="Oval">
                    <use fill="black" fill-opacity="1" filter="url(#filter-4)" xlink:href="#path-3"></use>
                    <use fill="#FFFFFF" fill-rule="evenodd" xlink:href="#path-3"></use>
                </g>
                <polygon id="Triangle" fill="#1179EF" transform="translate(27.122727, 26.456250) rotate(-270.000000) translate(-27.122727, -26.456250) " points="27.1227273 21.0375 36.6852273 31.875 17.5602273 31.875"></polygon>
            </g>
        </g>
        <path d="M207,57 L312.733889,57 C313.320972,57 313.878406,57.2579475 314.258408,57.7054572 L321.900741,66.7054572 C322.534716,67.4520576 322.534716,68.5479424 321.900741,69.2945428 L314.258408,78.2945428 C313.878406,78.7420525 313.320972,79 312.733889,79 L207,79 C205.895431,79 205,78.1045695 205,77 L205,59 C205,57.8954305 205.895431,57 207,57 Z" id="Rectangle-Copy-28" fill="#E2EDF9"></path>
    </g>
</svg>