<svg width="239" height="49" viewBox="0 0 239 49" fill="none" xmlns="http://www.w3.org/2000/svg">
<g clip-path="url(#clip0_2960_10453)">
<path d="M53.7051 11.2806H65.5984V13.7186H61.2327V25.9548H58.0784V13.7186H53.7051V11.2806ZM70.4213 25.9548V19.5091H76.006V25.9548H79.1603V11.2806H75.9679V17.071H70.4213V11.2806H67.267V25.9548H70.4213ZM81.7203 25.9548H91.7851V23.5167H84.8746V19.5929H91.1375V17.1548H84.8746V13.7186H91.5641V11.2806H81.7203V25.9548ZM104.372 22.3206H104.334L102.078 11.2806H98.8251L102.406 25.9548H105.979L108.829 14.7777H108.867L111.511 25.9548H115L118.741 11.2806H115.732L113.37 22.3206H113.332L110.772 11.2806H107.221L104.372 22.3206ZM119.808 18.6253C119.808 22.9529 122.002 26.2672 126.863 26.2672C131.716 26.2672 133.918 22.9606 133.918 18.6253C133.918 14.2977 131.724 10.9834 126.863 10.9834C122.002 10.9758 119.808 14.2901 119.808 18.6253ZM123.16 18.6253C123.16 16.1034 123.755 13.2539 126.863 13.2539C129.972 13.2539 130.566 16.1034 130.566 18.6253C130.566 21.1396 129.972 23.9891 126.863 23.9891C123.755 23.9891 123.16 21.1396 123.16 18.6253ZM139.145 20.0425H142.482C143.518 20.0806 143.716 21.2006 143.8 22.0158C143.937 23.3415 144.082 24.6596 144.349 25.9548H147.823C147.236 25.1396 147.115 23.4177 146.97 22.4806C146.703 20.4463 146.703 18.9606 144.288 18.7015V18.6634C146.101 18.2825 147.336 17.0177 147.336 15.1053C147.336 12.1186 144.753 11.3034 142.231 11.2806H135.991V25.9548H139.145V20.0425ZM139.145 13.7186H141.781C143.168 13.7415 143.976 14.2901 143.976 15.5853C143.976 16.8882 143.16 17.5739 141.781 17.5967H139.145V13.7186ZM159.252 25.9548V23.5167H152.89V11.2806H149.743V25.9548H159.252ZM160.958 25.9548H165.956C170.528 25.9929 173.377 23.7225 173.377 18.6177C173.377 13.5129 170.528 11.2348 165.956 11.2806H160.958V25.9548ZM164.113 13.7186H165.743C169.484 13.6806 170.033 16.2787 170.033 18.6177C170.033 20.9491 169.484 23.5548 165.743 23.5167H164.113V13.7186ZM186.909 25.9548C189.164 26.1148 192.821 25.0634 192.821 22.1529C192.821 20.0044 191.442 18.7244 189.591 18.3358V18.2977C191.054 17.8101 192.174 16.6901 192.174 15.0901C192.174 12.2253 189.492 11.1282 186.871 11.2882H181.362V25.9625H186.909V25.9548ZM184.501 23.5167V19.6158H186.962C188.448 19.6158 189.461 19.8825 189.461 21.5663C189.461 23.2577 188.448 23.5167 186.962 23.5167H184.501ZM184.501 17.1777V13.7186H186.962C188.28 13.7186 189.012 14.2672 189.012 15.4482C189.012 16.6291 188.28 17.1777 186.962 17.1777H184.501ZM196.806 25.9548L197.903 22.8463H203.717L204.776 25.9548H207.945L202.848 11.2806H199.107L193.796 25.9548H196.806ZM198.718 20.4082L200.867 14.1453H200.913L202.924 20.4082H198.718ZM222.81 25.9548V11.2806H219.861V22.7853L219.823 22.831L214.231 11.2882H209.56V25.9625H212.509V13.8025L212.547 13.7567L218.337 25.9548H222.81ZM228.547 11.2806H225.4V25.9548H228.547V18.4729H228.585L233.69 25.9548H237.614L231.762 17.8482L237.149 11.2806H233.469L228.593 17.6272H228.555V11.2806H228.547Z" fill="#002345"/>
<path d="M45.2324 14.587C44.6762 14.8232 44.4171 15.4632 44.6533 16.0193C45.7657 18.6479 46.3295 21.4517 46.3295 24.3317C46.3295 26.0993 46.1086 27.8136 45.6971 29.4593C45.3771 30.4955 44.8057 31.4555 44.0209 32.3241C44.0362 31.9508 44.0514 31.5774 44.0514 31.1965C44.059 26.9908 42.9009 22.5565 40.7448 18.3813C42.3219 17.0251 43.3276 15.3489 43.6781 13.4746C43.7848 12.8803 43.3962 12.3089 42.8019 12.1946C42.2076 12.0803 41.6362 12.4765 41.5295 13.0708C41.3009 14.3127 40.6533 15.4479 39.6476 16.4155C39.3352 15.8974 39.0076 15.387 38.6648 14.8765C36.7448 12.0574 34.459 9.61935 31.96 7.67649C35.259 7.88982 38.3067 8.69744 40.7676 10.0689C41.1562 10.2898 41.6667 10.2822 42.0248 9.97744C42.4895 9.58887 42.5505 8.89554 42.1619 8.43077C38.6343 3.50125 32.5314 0.78125 24.9733 0.78125C11.9905 0.78125 1.42285 11.3489 1.42285 24.3317C1.42285 26.5717 1.74285 28.7355 2.32952 30.7851C2.36761 30.9222 2.39809 31.0593 2.43618 31.1965C2.4438 31.227 2.45904 31.2498 2.46666 31.2727C5.43809 40.8727 14.3981 47.8746 24.9657 47.8746C29.8571 47.8746 34.3981 46.3736 38.1695 43.8136C38.2076 43.7908 38.2457 43.7755 38.2762 43.7527C38.5048 43.6003 38.7181 43.4403 38.9314 43.2727C43.259 40.0727 46.4667 35.4251 47.8076 30.046C47.8838 29.8022 47.9524 29.5432 48.0057 29.2917C48.0209 29.2308 48.0209 29.1698 48.0286 29.1089C48.3486 27.5622 48.5162 25.9622 48.5162 24.3241C48.5162 21.147 47.8914 18.0612 46.6648 15.1584C46.4362 14.6098 45.7886 14.3508 45.2324 14.587ZM36.859 16.1184C37.2171 16.6517 37.56 17.1851 37.8876 17.7336C36.1352 18.747 33.9257 19.3489 31.5333 19.5241C31.3276 15.7451 30.8857 12.1032 30.1695 9.07839C32.6609 10.9298 34.9467 13.3222 36.859 16.1184ZM33.6057 4.5222C34.7029 4.96411 35.7924 5.52792 36.8286 6.23649C35.1752 5.82506 33.4152 5.57363 31.5867 5.4822C32.3333 4.99458 33.0267 4.65935 33.6057 4.5222ZM30.7105 3.61554C30.1009 3.94315 29.4686 4.35458 28.8286 4.8422C28.539 4.19458 28.2343 3.62315 27.9067 3.13554C28.7829 3.23458 29.7276 3.38696 30.7105 3.61554ZM20.2952 19.6079C21.8648 20.3165 23.579 20.8727 25.3771 21.2612C26.7409 21.5508 28.0971 21.7108 29.4381 21.7565C29.4609 22.5793 29.4762 23.4251 29.4762 24.2936C29.4762 29.4517 29.0648 33.7336 28.4705 37.0784C26.5124 36.9946 24.4933 36.7355 22.4667 36.3089C19.7543 35.7222 17.1943 34.8689 14.8705 33.7717C15.6324 30.3432 17.0495 26.1832 19.3048 21.5736C19.6171 20.9032 19.9524 20.2479 20.2952 19.6079ZM16.4705 14.5489C15.5638 13.6955 14.8781 12.8193 14.4133 11.9279C16.4629 10.6936 18.7333 9.68792 21.1562 8.95649C22.5962 8.5222 24.0514 8.2022 25.5067 7.98125C23.4038 10.3279 21.3162 13.3146 19.3962 16.6898C18.299 16.0574 17.3162 15.3413 16.4705 14.5489ZM29.3467 19.5546C28.1886 19.5089 27 19.3641 25.8343 19.1127C24.2495 18.7774 22.7409 18.2898 21.3543 17.6803C23.3962 14.107 25.6362 10.9984 27.8381 8.6822C28.5238 11.3946 29.1029 15.0365 29.3467 19.5546ZM24.9429 2.97554C25.3162 2.98315 25.7733 3.42506 26.2533 4.29363C26.0095 4.18696 25.7657 4.08792 25.5219 3.99649C24.5314 3.61554 23.5486 3.32601 22.5809 3.11268C23.3581 3.02125 24.1429 2.97554 24.9429 2.97554ZM13.8114 8.3622C14.0552 7.22696 14.7409 6.21363 15.7924 5.36792C18.3448 4.60601 21.3238 4.78887 24.4476 5.93173C23.1371 6.1603 21.819 6.46506 20.5162 6.85363C18.1009 7.57744 15.8229 8.56792 13.7352 9.77934C13.6971 9.29934 13.72 8.82696 13.8114 8.3622ZM11.7619 7.56982C11.7314 7.68411 11.7009 7.79077 11.6781 7.91268C11.4571 8.94887 11.48 10.0003 11.739 11.0517C9.38476 12.6746 7.33523 14.6022 5.69714 16.7584C5.2019 17.4136 4.75999 18.0841 4.35618 18.7622C5.56761 14.2746 8.21142 10.3736 11.7619 7.56982ZM12.1124 41.3679C8.45523 38.6022 5.72761 34.6936 4.43238 30.1755C4.24952 29.4593 4.12761 28.7355 4.0819 28.0041C4.81333 29.0403 5.70476 30.0613 6.7638 31.0441C8.3638 32.5222 10.2686 33.8479 12.3867 34.9832C11.96 37.406 11.8381 39.6003 12.1124 41.3679ZM8.25714 29.4289C6.39809 27.707 5.11809 25.8936 4.46285 24.0803C4.98095 22.0536 5.97904 20.0193 7.44952 18.0765C8.8438 16.2251 10.5809 14.5641 12.5771 13.1317C13.1486 14.1679 13.9562 15.1813 14.9771 16.1413C15.9524 17.0555 17.08 17.8784 18.3448 18.6022C17.9943 19.2574 17.659 19.9279 17.3314 20.606C15.3886 24.5908 13.8038 28.8574 12.8667 32.7355C11.1371 31.7679 9.57523 30.6555 8.25714 29.4289ZM24.9886 45.6727C24.9352 45.6727 24.8819 45.6803 24.8362 45.6879C21.5752 45.6651 18.4895 44.9184 15.7238 43.5851C15.6629 43.5317 15.5867 43.486 15.5105 43.4479C14.2914 42.8536 13.8038 40.1413 14.4362 35.9965C16.7752 37.0479 19.32 37.8784 21.9943 38.4498C24.0209 38.8841 26.04 39.1508 28.0209 39.2498C27.0533 43.4632 25.8114 45.6727 24.9886 45.6727ZM37.6057 41.5355C34.8781 43.547 31.6552 44.926 28.1581 45.4517C29.0343 43.9355 29.7429 41.8022 30.2762 39.2955C33.3695 39.2574 36.3029 38.8079 38.9009 37.9317C39.5562 37.7108 40.1733 37.467 40.7676 37.2003C40.0514 38.9679 38.9924 40.4384 37.6057 41.5355ZM41.5981 34.2974C40.6152 34.8993 39.4876 35.4251 38.2076 35.8517C35.9448 36.6136 33.4 37.0251 30.6952 37.0936C31.3429 33.2003 31.6552 28.6822 31.6552 24.286C31.6552 23.4327 31.6476 22.5717 31.6171 21.7184C34.3448 21.5355 36.8667 20.827 38.9314 19.6384C40.8438 23.4251 41.8724 27.4174 41.8648 31.1813C41.8648 32.2784 41.7733 33.3222 41.5981 34.2974Z" fill="url(#paint0_radial_2960_10453)"/>
</g>
<defs>
<radialGradient id="paint0_radial_2960_10453" cx="0" cy="0" r="1" gradientUnits="userSpaceOnUse" gradientTransform="translate(46.3816 9.5823) scale(39.0318 39.032)">
<stop stop-color="white"/>
<stop offset="0.0598" stop-color="#EBF8FD"/>
<stop offset="0.1829" stop-color="#B6E7F7"/>
<stop offset="0.3589" stop-color="#60CCEE"/>
<stop offset="0.544" stop-color="#00ADE4"/>
<stop offset="1" stop-color="#002345"/>
</radialGradient>
<clipPath id="clip0_2960_10453">
<rect width="237.714" height="48" fill="white" transform="translate(0.661133 0.332031)"/>
</clipPath>
</defs>
</svg>
