<svg width="156" height="41" viewBox="0 0 156 41" fill="none" xmlns="http://www.w3.org/2000/svg">
<g clip-path="url(#clip0_2960_10363)">
<path d="M38.3482 20.7854C38.3482 25.8073 36.3533 30.6234 32.8023 34.1744C29.2513 37.7253 24.4352 39.7203 19.4134 39.7203C14.3915 39.7203 9.57537 37.7253 6.0244 34.1744C2.47343 30.6234 0.478516 25.8073 0.478516 20.7854C0.478516 15.7636 2.47343 10.9474 6.0244 7.39647C9.57537 3.8455 14.3915 1.85059 19.4134 1.85059C24.4352 1.85059 29.2513 3.8455 32.8023 7.39647C36.3533 10.9474 38.3482 15.7636 38.3482 20.7854Z" fill="#E60000"/>
<path d="M19.5694 31.3376C14.3662 31.3559 8.95231 26.9222 8.92483 19.7862C8.91567 15.0685 11.4623 10.534 14.7051 7.84082C17.8838 5.21174 22.2259 3.53536 26.165 3.51704C26.6246 3.49974 27.0844 3.54911 27.5299 3.66361C25.8005 4.04478 24.2502 4.99818 23.1298 6.36962C22.0093 7.74106 21.3843 9.45036 21.3557 11.2211C21.3557 11.3493 21.3557 11.4776 21.374 11.5325C27.1451 12.9341 29.7559 16.4151 29.7742 21.2335C29.7706 22.5679 29.5035 23.8884 28.9881 25.1193C28.4728 26.3501 27.7194 27.467 26.7712 28.4059C25.8229 29.3447 24.6986 30.087 23.4627 30.5901C22.2268 31.0932 20.9037 31.3473 19.5694 31.3376Z" fill="white"/>
<path d="M50.5772 28.6267L44.7969 14.8035H48.5802L52.1986 23.9823L55.6979 14.8035H59.3072L53.6826 28.6267H50.5772ZM69.3746 21.6464C69.3788 21.0904 69.3111 20.5361 69.1731 19.9975C69.0565 19.5208 68.8514 19.0702 68.5685 18.6692C68.3136 18.3057 67.9821 18.0024 67.5975 17.7806C67.1871 17.549 66.722 17.432 66.2509 17.4417C65.7797 17.4315 65.3145 17.5486 64.9043 17.7806C64.5156 18.0003 64.1807 18.3039 63.9241 18.6692C63.6434 19.0737 63.4414 19.5274 63.3287 20.0067C63.1915 20.5423 63.1237 21.0934 63.1271 21.6464C63.1225 22.2024 63.1903 22.7567 63.3287 23.2953C63.444 23.7705 63.6391 24.2228 63.9058 24.6327C64.1592 25.0192 64.5063 25.3352 64.9147 25.5515C65.3231 25.7677 65.7796 25.8771 66.2417 25.8694C66.7036 25.8834 67.1612 25.7768 67.5692 25.5599C67.9773 25.343 68.3217 25.0234 68.5685 24.6327C68.8474 24.2294 69.0521 23.7796 69.1731 23.3044C69.3123 22.7629 69.38 22.2055 69.3746 21.6464ZM72.8648 21.6556C72.8649 22.557 72.7259 23.4531 72.4526 24.3121C72.1861 25.1596 71.767 25.9512 71.2159 26.648C70.6249 27.3913 69.8679 27.9857 69.0057 28.3834C68.1434 28.7812 67.1999 28.9712 66.2509 28.9382C65.3008 28.969 64.3567 28.7781 63.4933 28.3806C62.6299 27.9831 61.871 27.3899 61.2767 26.648C60.7268 25.9505 60.3078 25.159 60.04 24.3121C59.4956 22.5923 59.4956 20.7463 60.04 19.0265C60.308 18.188 60.7272 17.4057 61.2767 16.718C61.8359 16.0299 62.5395 15.4733 63.3378 15.0874C64.2472 14.6563 65.2446 14.443 66.2509 14.4645C67.1939 14.4385 68.1305 14.6279 68.9893 15.0184C69.8481 15.4089 70.6065 15.9902 71.2067 16.718C71.7564 17.3959 72.1777 18.1654 72.4526 19.0265C72.7274 19.8876 72.8648 20.767 72.8648 21.6556ZM83.546 17.8539C82.9391 17.5982 82.2897 17.4584 81.6314 17.4417C81.1168 17.4168 80.6041 17.5211 80.14 17.7451C79.676 17.9691 79.2755 18.3057 78.9749 18.7242C78.6855 19.1263 78.4685 19.5758 78.3336 20.0525C78.1915 20.5436 78.1206 21.0526 78.1229 21.5639C78.1198 22.1188 78.1813 22.6722 78.3061 23.2128C78.4163 23.7012 78.6116 24.1664 78.8833 24.5869C79.1306 24.9739 79.4626 25.2997 79.8543 25.5396C80.239 25.7778 80.7062 25.906 81.2283 25.906C81.7004 25.8955 82.1627 25.7698 82.5749 25.5396C82.97 25.3534 83.306 25.0618 83.546 24.6969V17.8539ZM83.8299 28.6267L83.6925 27.5641C83.3276 27.9606 82.8929 28.2866 82.4101 28.526C81.7099 28.8255 80.9516 28.9645 80.1908 28.9328C79.4299 28.9011 78.6858 28.6995 78.013 28.3427C77.2917 27.9459 76.6662 27.3955 76.1809 26.7305C75.6683 26.0311 75.2837 25.2465 75.045 24.4129C74.7877 23.5196 74.6581 22.5943 74.6602 21.6647C74.6602 20.7578 74.7885 19.8784 75.0541 19.0173C75.3126 18.1813 75.7259 17.4013 76.2725 16.718C76.863 15.9859 77.6156 15.4013 78.471 15.0101C79.3263 14.619 80.2609 14.4322 81.2009 14.4645C81.9337 14.4645 82.7124 14.6019 83.546 14.8676V9.50867H87.1003V28.6267H83.8299ZM97.1036 22.1411C96.3199 22.1935 95.54 22.2914 94.7676 22.4342C93.9981 22.5899 93.4668 22.8464 93.1645 23.222C92.8815 23.5651 92.7262 23.9956 92.7248 24.4404C92.7248 24.8984 92.8897 25.2648 93.2287 25.5396C93.639 25.8401 94.1408 25.989 94.6485 25.961C95.1066 25.961 95.5646 25.8694 95.9951 25.677C96.4024 25.4993 96.777 25.2547 97.1036 24.9533V22.1411ZM97.3875 28.6084L97.2501 27.5824C96.8438 28.0223 96.3426 28.3638 95.7845 28.5809C94.6106 29.0455 93.3075 29.065 92.1202 28.6359C91.2678 28.3517 90.5291 27.8013 90.013 27.0658C89.4968 26.3303 89.2304 25.4485 89.253 24.5503C89.2412 23.9453 89.3699 23.3459 89.629 22.7991C89.8881 22.2523 90.2705 21.773 90.7462 21.3991C91.2269 21.0251 91.7611 20.7255 92.3309 20.5105C93.422 20.1236 94.5579 19.8773 95.7112 19.7776L97.0853 19.6494V19.4479C97.0853 18.6875 96.8837 18.1471 96.4898 17.8173C96.0204 17.4684 95.443 17.2965 94.8592 17.3318C93.821 17.337 92.8098 17.6634 91.9645 18.2661C91.7798 18.3835 91.6023 18.512 91.4332 18.6509L90.2515 16.1592C90.8183 15.7292 91.4408 15.3779 92.1019 15.1149C93.8238 14.3992 95.7349 14.2767 97.5341 14.7668C98.1527 14.9602 98.7188 15.2928 99.1888 15.739C99.6589 16.1852 100.02 16.7332 100.246 17.3409C100.521 18.1072 100.651 18.9179 100.63 19.7318V28.6176L97.3875 28.6084ZM111.614 12.6599C110.981 12.3764 110.292 12.2387 109.599 12.2568C109.113 12.2568 108.692 12.4034 108.362 12.7057C108.023 12.9988 107.858 13.4843 107.858 14.1531V14.8035H110.844V17.6707H107.886V28.6267H104.331V17.6707H102.499V14.8035H104.331V14.0706C104.331 13.1637 104.45 12.4034 104.679 11.7805C104.866 11.2225 105.182 10.7163 105.6 10.3025C106.019 9.88884 106.528 9.57925 107.089 9.39875C108.721 8.96285 110.45 9.06894 112.017 9.70104L111.614 12.6599ZM121.306 21.6464C121.308 21.0905 121.24 20.5365 121.104 19.9975C120.988 19.5208 120.782 19.0702 120.5 18.6692C120.245 18.3057 119.913 18.0024 119.529 17.7806C119.118 17.549 118.653 17.432 118.182 17.4417C117.711 17.4315 117.246 17.5486 116.835 17.7806C116.448 18.0018 116.113 18.3051 115.855 18.6692C115.574 19.0746 115.369 19.5278 115.251 20.0067C114.972 21.0882 114.972 22.2229 115.251 23.3044C115.371 23.7765 115.569 24.2253 115.837 24.6327C116.087 25.0106 116.423 25.3244 116.817 25.5488C117.236 25.7747 117.706 25.8883 118.182 25.8786C118.643 25.89 119.099 25.7812 119.506 25.5627C119.912 25.3443 120.255 25.0238 120.5 24.6327C120.779 24.2294 120.983 23.7796 121.104 23.3044C121.242 22.7626 121.309 22.2054 121.306 21.6464ZM124.796 21.6556C124.798 22.5571 124.659 23.4535 124.384 24.3121C124.119 25.1602 123.699 25.9521 123.147 26.648C122.556 27.3913 121.799 27.9857 120.937 28.3834C120.074 28.7812 119.131 28.9712 118.182 28.9382C117.232 28.969 116.288 28.7781 115.424 28.3806C114.561 27.9831 113.802 27.3899 113.208 26.648C112.658 25.9505 112.239 25.159 111.971 24.3121C111.419 22.5934 111.419 20.7452 111.971 19.0265C112.236 18.1887 112.652 17.4064 113.199 16.718C113.76 16.0289 114.467 15.4721 115.269 15.0874C116.178 14.6563 117.176 14.443 118.182 14.4645C119.125 14.4385 120.062 14.6279 120.92 15.0184C121.779 15.4089 122.538 15.9902 123.138 16.718C123.687 17.3959 124.109 18.1654 124.384 19.0265C124.658 19.8876 124.796 20.767 124.796 21.6556ZM135.834 28.6267V20.7487C135.889 19.8831 135.657 19.0235 135.175 18.3028C134.961 18.023 134.683 17.7987 134.364 17.6488C134.045 17.499 133.695 17.4279 133.343 17.4417C132.799 17.4355 132.265 17.5848 131.804 17.8722C131.361 18.1399 130.952 18.4597 130.585 18.8249V28.6267H127.031V14.8035H130.274L130.439 15.9027C131.557 14.9704 132.968 14.4613 134.424 14.4645C135.156 14.4645 135.825 14.5745 136.439 14.7943C137.038 15.0107 137.575 15.369 138.005 15.8386C138.454 16.315 138.793 16.9379 139.031 17.6982C139.27 18.4677 139.389 19.3837 139.389 20.4464V28.6267H135.834ZM150.445 20.0525C150.419 19.6226 150.317 19.2007 150.143 18.8066C150.001 18.4819 149.796 18.1891 149.539 17.9455C149.095 17.5347 148.513 17.3058 147.908 17.3043C147.258 17.316 146.635 17.5597 146.149 17.9913C145.857 18.2522 145.619 18.569 145.451 18.9229C145.283 19.2769 145.187 19.6609 145.169 20.0525H150.445ZM145.086 22.6082C145.16 23.7716 145.526 24.6144 146.186 25.1274C146.912 25.6673 147.801 25.9421 148.705 25.906C149.55 25.905 150.389 25.7498 151.178 25.448C151.468 25.3332 151.75 25.1985 152.021 25.0449C152.206 24.9398 152.378 24.8137 152.534 24.6694L153.487 27.5641C152.948 27.9288 152.358 28.2127 151.737 28.4069C150.603 28.7547 149.424 28.9337 148.238 28.9382C147.364 28.9412 146.497 28.7956 145.673 28.5076C144.872 28.2282 144.143 27.7745 143.538 27.1794C142.898 26.5383 142.399 25.7708 142.073 24.9259C141.685 23.9024 141.498 22.8138 141.523 21.7197C141.523 20.5471 141.697 19.5211 142.027 18.6234C142.437 17.3927 143.23 16.3253 144.289 15.5771C145.349 14.8289 146.62 14.439 147.917 14.4645C148.752 14.4562 149.581 14.6022 150.363 14.8951C151.105 15.179 151.746 15.6279 152.287 16.2233C152.836 16.8279 153.267 17.6066 153.578 18.5684C153.899 19.5211 154.055 20.6571 154.055 21.9762V22.6082H145.086Z" fill="#E60000"/>
</g>
<defs>
<clipPath id="clip0_2960_10363">
<rect width="154.799" height="40" fill="white" transform="translate(0.478516 0.785156)"/>
</clipPath>
</defs>
</svg>
